<svg width="258" height="312" viewBox="0 0 258 312" fill="none" xmlns="http://www.w3.org/2000/svg">
<path d="M179.9 136C190.9 139.9 202.3 142.9 213.9 144.9C221.8 146.2 230 147.1 237.9 145.4C245.8 143.7 253.3 139 256.8 131.8C256.7 143.6 251.5 155.3 242.8 163.3C234.1 171.3 222 175.4 210.2 174.5C210.2 200.8 210.1 227.1 210 253.4C211.4 253.2 212.8 253.7 213.9 254.6C198 257.5 182.2 260.4 166.3 263.3C165 263.5 163.7 263.8 162.8 264.7C162 265.6 161.8 266.9 161.7 268.2C161.1 274.3 160.5 280.3 159.9 286.5C174.7 283.6 189.5 280.7 204.2 277.8C205.8 277.5 207.6 277.1 208.8 276C209.9 275 210.4 273.5 210.8 272.1C212.6 266.4 214.4 260.8 216.3 255.1C214.4 253.7 212.4 252.3 210.5 250.8C213.8 249.7 217.2 253 217.5 256.5C217.8 260 216.1 263.2 214.4 266.3C212.8 269.4 211.2 272.8 211.9 276.2C214.8 277.5 217.8 278.7 220.7 279.9C208.6 278.1 196 279.8 184.6 284.6C174.4 284.3 164.2 286.8 155.3 291.8C152 293.7 149.5 288.2 149.5 284.4C149.6 252.4 149.7 220.4 149.7 188.5C124.2 188.5 98.7001 188.6 73.2001 188.6C73.5001 207 73.7001 225.5 74.0001 243.9C81.7001 243.5 89.4001 242.3 96.9001 240.4C96.6001 225.7 96.7001 211 97.2001 196.3C91.7001 195.9 86.2001 195.4 80.7001 195C102.8 194.2 124.8 194.2 146.9 195.2C130.7 196.1 114.4 196.5 98.1001 196.2C98.2001 213.4 98.3001 230.7 98.3001 247.9C98.3001 251.1 98.6001 254.8 101.3 256.6C93.9001 258 86.5001 259.3 79.2001 260.7C77.5001 261 75.7001 261.4 74.4001 262.6C73.1001 263.8 72.7001 266.1 74.0001 267.2C80.6001 265.8 87.5001 265.3 94.3001 265.6C88.8001 266.5 83.3001 267.5 77.8001 268.5C76.8001 268.7 75.6001 269.1 75.6001 270.1C75.5001 271.1 77.6001 270.6 76.9001 270C73.9001 271.6 73.3001 275.6 73.5001 279C73.8001 282.4 74.6001 285.9 73.1001 289C71.7001 292.1 66.6001 293.4 65.0001 290.5C61.1001 283.3 51.1001 282.5 44.8001 277.4C37.0001 271.1 36.1001 259.9 35.8001 249.9C36.9001 249.1 38.1001 248.3 39.4001 248.2C40.8001 248.2 42.2001 249.5 41.8001 250.7C41.4001 252 38.9001 251.6 39.3001 250.3C40.4001 250.8 41.5001 251.2 42.7001 251.6C42.7001 223.3 42.7001 195.1 42.8001 166.8C37.6001 166.6 34.4001 172.6 29.5001 174.2C25.0001 175.6 20.2001 172.9 16.8001 169.8C6.3001 159.7 3.0001 144.6 0.100098 130.4C6.3001 141.4 19.7001 147.7 32.1001 145.5C29.7001 140.3 27.6001 134.9 25.8001 129.4C29.5001 128.3 31.1001 133.7 32.9001 137.1C37.3001 145.2 49.2001 144.4 57.8001 140.9C66.3001 137.4 75.7001 132.5 84.2001 136.1C84.4001 134.4 84.7001 132.8 84.9001 131.2C80.6001 129.4 75.3001 131 72.6001 134.7C72.3001 119.4 72.1001 104 71.9001 88.7C70.9001 104.2 70.4001 119.7 70.5001 135.3C68.9001 122.9 68.7001 110.3 69.8001 97.8C58.3001 97.2 45.9001 96.2 37.1001 88.7C28.9001 81.7 25.7001 70.6 22.9001 60.1C29.7001 70 43.0001 74.8 54.5001 71.5C52.9001 64.7 51.3001 57.8 49.7001 51C49.2001 49 50.0001 45.9 51.9001 46.6C54.8001 54.8 59.3001 64.3 67.9001 65.1C72.5001 65.6 76.9001 63.2 80.8001 60.8C95.8001 51.5 109.3 39.7 120.5 26.1C124.2 26.3 128 26.3 131.7 26.2C139.2 37.5 149.2 47 160.8 54C160.6 50.2 162.7 46.5 166 44.7C168.2 46.6 165.9 50.1 165.8 53C165.5 57.4 170.2 60.2 174.1 62C183.9 66.4 193.9 70.8 204.6 71C215.3 71.2 226.8 65.9 230.6 55.9C229.7 67.7 225.2 79.5 216.5 87.6C207.8 95.6 194.6 99.2 183.6 94.8C193.3 96.6 203.7 94.5 212 89.2C202.1 93.6 190.6 94.2 180.3 91.2C181.1 109.6 180.3 128.1 177.9 146.3C177 153.4 182.6 159.7 188.9 163.1C203.2 170.9 221.4 168.1 236 160.8C244.3 156.7 252.5 150.1 253.7 140.9C230.5 151.9 201.5 150.1 179.9 136ZM89.5001 89.4C88.6001 88.8 87.6001 88.5 86.5001 88.5C86.9001 104.3 86.9001 120.2 86.5001 136C83.0001 138.1 79.6001 140.2 76.1001 142.3C80.1001 141.2 83.9001 139.3 87.1001 136.8C88.3001 135.9 89.5001 134.7 89.5001 133.3C89.3001 118.6 89.3001 104 89.5001 89.4ZM205.3 191.2C205.3 189.2 205.3 187.2 205.3 185.2C191.4 186.1 177.5 186.9 163.7 187.8C162.4 187.9 160.5 187.5 160.5 186.2C167.4 185.8 174.3 185.4 181.2 185C183.9 184.8 187.1 184.4 188.5 182.1C189.4 180.5 189.8 178 191.6 178.1C190.7 180.2 189.7 182.2 188.4 184.2C192.8 184.4 197.1 184.1 201.4 183.4C201.4 181.3 201.5 179.3 201.6 177.3C194.4 177.4 187.3 177.5 180.1 177.7C176.9 177.7 173 178.2 171.6 181.1C170.9 182.7 170.6 185 168.9 185C169.3 182.5 170.4 180.2 172.1 178.3C170.5 177.3 168.8 179.4 168.2 181.1C167.6 182.9 166.6 185.1 164.7 184.9C165.6 182.8 166.6 180.7 167.8 178.7C165.3 178.6 162.8 178.5 160.2 178.5C160.9 176.7 163.5 176.9 165.4 177.1C167.3 177.3 170.1 176.4 169.6 174.5C171.7 177.1 175.7 176.8 179 176.4C187.1 175.4 195.3 175.4 203.4 176.5C203.3 178.7 203.2 180.8 203.1 183C203.7 184 205.3 184.2 206.3 183.5C207 185.4 207.7 187.4 207.4 189.4C207.1 191.4 205.5 193.4 203.4 193.3C203.4 213.8 203.3 234.2 203.3 254.7C204.4 255.9 206.6 255.3 207.5 254C208.4 252.7 208.5 250.9 208.5 249.3C208.5 225.6 208.5 201.9 208.4 178.2C208.4 176.8 207.9 174.9 206.5 175.1C199.2 176.2 192.5 171.5 185.2 170.4C182.1 169.9 178.9 170.1 175.8 170.3C171.1 170.6 166.4 170.8 161.7 171.1C161.2 171.1 160.7 171.2 160.3 171.5C159.9 171.9 159.9 172.6 159.9 173.1C159.8 207.1 159.8 241.2 159.7 275.2C160.2 271.2 160.7 267.2 161.2 263.1C167 261.9 172.7 260.6 178.5 259.4C175.3 259.6 172.5 256.5 172.8 253.4C174.1 256.2 177.2 257.9 180.2 258.3C183.3 258.8 186.4 258.2 189.5 257.7C192 257.2 194.4 256.8 196.8 256.4C199.2 256 202.4 254.6 202 252.2C201.7 250.3 199.6 249.5 197.7 249C191.2 247.2 184.7 245.4 178.2 243.7C178.1 247.6 178 251.4 177.8 255.3C178.7 255.3 179.6 255.5 180.4 255.9C179.8 257 178 256.9 177.2 255.9C176.4 254.9 176.4 253.5 176.4 252.2C176.4 233.9 176.4 215.6 176.4 197.3C177 196.6 177.9 197.9 177.9 198.8C178.1 212.8 178.2 226.7 178.4 240.7C178.4 241.6 179.5 242.1 180.5 242.4C187.5 244.3 194.5 246.2 201.5 248.1C201.5 230 201.5 212 201.5 193.9C187.7 194.7 173.9 195.4 160.2 196.2C159.3 195.6 160.7 194.5 161.8 194.4C176.2 193.1 190.8 192.1 205.3 191.2ZM144 139.1C143.4 136.7 140.3 136.3 137.9 136.3C124.4 136.3 111 136.3 97.5001 136.3C94.5001 136.3 91.4001 136.3 88.7001 137.8C80.2001 142.6 71.4001 147.3 61.7001 148.8C52.1001 150.3 41.3001 148.2 34.6001 141.1C34.4001 144.7 36.4001 148.2 39.0001 150.7C41.7001 153.2 45.0001 154.8 48.3001 156.2C85.4001 172.1 129.4 171.2 165.8 153.8C156.4 155.2 146.3 148.5 144 139.1ZM142.1 85C126 91.1 108.1 92.7 91.2001 89.7C91.2001 104.1 91.2001 118.5 91.2001 133C91.2001 133.4 91.2001 133.9 91.5001 134.2C91.8001 134.5 92.3001 134.5 92.7001 134.5C109.2 134.5 125.7 134.5 142.2 134.5C142.3 117.9 142.3 101.4 142.1 85ZM158.3 64.7C155.9 68.8 149.7 69.3 145.5 66.9C141.3 64.6 138.7 60.3 136.2 56.2C134.3 52.9 132.3 49.6 130.3 46.4C128.4 40.7 126.5 35.1 124.5 29.5C116.7 42.7 105.7 53.9 92.6001 62C86.9001 65.5 80.6001 68.5 73.9001 68.7C67.2001 68.9 60.0001 65.7 57.2001 59.7C55.7001 62.7 56.9001 66.5 59.1001 68.9C61.3001 71.4 64.5001 72.8 67.6001 74.1C81.0001 79.7 95.4001 84 109.9 83.2C124.6 82.4 138.6 76.6 152.1 70.7C154.5 69.6 157 68.5 158.7 66.6C160.4 64.6 161.2 61.6 159.7 59.3C158.1 65 150.7 68 145.5 65.1C149.2 68.1 155 67.9 158.3 64.7ZM136.6 179.3C115.8 179.2 94.9001 179.1 74.1001 179.1C79.4001 177.6 84.9001 177.6 90.4001 177.6C106.2 177.6 122.1 177.7 137.9 177.7C137.9 176.3 139.2 174.9 140.6 174.8C140.1 175.7 139.7 176.6 139.2 177.5C140.8 177.7 142.4 177.9 143.9 178.1C146 178.4 148.2 178.6 149.9 177.5C151.6 176.4 152.1 173.3 150.3 172.4C150.9 171.4 152.7 172.1 153 173.2C153.3 174.3 152.8 175.6 152.5 176.7C151.7 179.2 151.7 181.9 151.7 184.6C151.6 218.2 151.6 251.7 151.5 285.3C151.5 286.3 151.5 287.4 152 288.3C153.3 290.8 158 289.6 158 286.8C157.7 248.2 157.7 209.7 157.8 171.1C145.7 169.5 133.7 173.1 121.7 174.8C105.3 177.2 88.5001 176.1 72.4001 172.3C73.8001 176.9 74.3001 181.7 73.9001 186.5C99.3001 186.5 124.6 186.4 149.9 186.3C149.8 183.9 149.7 181.6 149.6 179.2C147 178.8 144.3 178.4 141.7 178.9C139 179.4 136.5 180.8 135.4 183.3C134.9 184.3 134.3 185.7 133.3 185.5C133.9 183.2 135 181.1 136.6 179.3ZM161.2 100.7C161.2 98.8 161.6 96.3 163.5 95.9C159.4 95.5 155.3 95.1 151.2 94.8C150.2 94.7 148.7 93.7 149.5 93C157.6 93.5 165.7 94 173.9 94.5C175.5 94.6 177.4 94.9 178.1 96.4C173.6 96.4 169.1 96.3 164.7 96.3C164.7 107.1 164.7 117.8 164.7 128.6C168.5 128.8 172.3 129 176 129.2C176.8 129.2 177.8 129.2 178.3 128.6C178.6 128.1 178.6 127.5 178.6 127C178.6 116.1 178.6 105.2 178.7 94.3C178.7 93.1 178.7 92 178.3 90.9C177.1 88 173.4 87.1 170.3 86.7C163.2 85.7 156.1 84.8 149 83.8C149 100.3 149 116.9 149 133.4C149 134.2 149.3 135.1 150 135.1C158.2 134.2 166.5 134.5 174.6 135.9C175.4 134.3 175.7 132.6 175.4 130.9C169.1 130.8 162.7 130.7 156.4 130.6C154 130.6 151.4 130.5 149.6 129C154 128.7 158.3 128.6 162.7 128.7C162.6 127.6 162.6 126.5 162.5 125.5C162.8 126.1 161.9 126.8 161.4 126.4C161.1 126.1 161.1 125.7 161.1 125.3C161.2 116.9 161.2 108.8 161.2 100.7ZM49.8001 175.8C54.5001 176 59.2001 176.5 63.8001 177.4C62.6001 179.1 60.0001 178.6 58.0001 178.1C56.0001 177.6 53.2001 177.6 52.6001 179.5C52.4001 178.7 52.2001 177.9 52.0001 177.1C51.3001 179.3 51.2001 181.6 51.7001 183.8C56.0001 184.1 60.2001 185.2 64.1001 187C60.0001 187.5 55.9001 186.9 52.1001 185.3C50.3001 184.5 48.3001 186.8 48.8001 188.7C49.3001 190.6 51.2001 191.8 53.1001 192.1C55.0001 192.5 57.0001 192.2 58.9001 192.4C60.9001 192.6 62.9001 193.4 63.8001 195.1C59.7001 194.6 55.7001 194.1 51.6001 193.6C51.5001 211.3 51.4001 229 51.3001 246.8C55.5001 246.1 59.7001 245.4 63.9001 244.6C64.0001 220.4 64.1001 196.2 64.2001 172.1C64.2001 171.2 64.2001 170.2 63.5001 169.6C63.0001 169.2 62.4001 169.1 61.8001 169C57.5001 168.5 53.1001 168.2 48.8001 168.3C48.5001 170.9 48.8001 173.4 49.8001 175.8ZM66.0001 170.4C66.0001 209 65.9001 247.6 65.8001 286.2C65.8001 287 65.8001 287.9 66.2001 288.6C67.4001 290.5 70.3001 289.7 72.3001 288.7C72.1001 249.8 72.0001 211 71.8001 172.1C69.9001 171.5 67.9001 171 66.0001 170.4ZM171.6 77.3C178 82.9 186.7 85.5 195.1 85.1C203.6 84.7 211.7 81.4 218.6 76.4C220.8 74.8 222.9 73 224.2 70.7C225.5 68.6 226.1 66.1 226.7 63.8C221.2 70 212.5 72.6 204.2 72.3C195.9 72 187.9 69.1 180.2 66C175.2 63.9 170.1 61.6 165.7 58.5C162.7 65 166.3 72.7 171.6 77.3ZM147.5 143C151.6 151.3 163.5 154.7 171.4 149.8C172.1 152.1 169.5 154 167.3 155.1C140.2 168 109 172.4 79.4001 167.4C64.4001 164.9 49.6001 159.9 37.3001 151.1C36.3001 152.3 36.5001 154.2 37.4001 155.5C38.3001 156.8 39.8001 157.6 41.2001 158.4C81.7001 179.8 133.2 178.9 172.9 156.1C172.1 152.1 172.2 147.9 173.1 143.9C171.5 148.8 165.7 151.2 160.6 150.4C155.6 149.6 151.3 146.5 147.5 143ZM163.7 61.1C164 56.3 164.3 51.5 164.7 46.6C162.4 54.8 161.1 63.3 160.8 71.8C159.5 72.3 159.1 70.1 159.6 68.8C142.8 77.1 125.2 85.1 106.5 85.2C89.4001 85.3 73.0001 78.9 57.9001 70.9C56.7001 73.6 59.8001 76.3 62.4001 77.6C76.6001 84.8 92.4001 89.3 108.3 89.4C124.2 89.6 140.4 85.4 153.6 76.5C142.7 81.1 131.6 85.7 119.9 86.2C133.4 82.6 146.5 77.8 159.1 71.8C157.6 73.1 156.1 74.5 154.5 75.8C157.7 75.8 160.5 73.3 161.9 70.4C163.3 67.6 163.5 64.3 163.7 61.1ZM49.7001 199C49.7001 196.4 49.7001 193.6 48.4001 191.3C47.9001 190.4 47.2001 189.6 47.1001 188.6C46.7001 186.4 49.0001 184.6 49.7001 182.5C51.2001 177.7 45.1001 171.9 48.5001 168.1C48.2001 166.8 46.1001 166.7 45.2001 167.8C44.3001 168.8 44.3001 170.3 44.3001 171.6C44.3001 196.3 44.3001 221.1 44.3001 245.8C44.3001 247.9 44.3001 249.9 45.1001 251.8C45.9001 253.7 47.6001 255.3 49.6001 255.3C49.6001 236.4 49.6001 217.7 49.7001 199ZM33.2001 150.3C33.1001 150.9 32.4001 151.1 31.8001 151.1C25.3001 151.7 18.7001 150.8 12.7001 148.6C10.3001 147.7 7.8001 146.5 6.5001 144.3C7.9001 144 9.2001 144.9 10.5001 145.6C16.8001 149.5 24.7001 149.5 32.1001 149.5C32.4001 149.5 32.6001 149.5 32.9001 149.3C33.5001 149 33.3001 147.9 32.7001 147.5C32.1001 147.2 31.3001 147.2 30.6001 147.3C20.8001 148.4 10.6001 144.8 3.7001 137.8C6.3001 149.1 13.2001 159.5 22.8001 166.1C24.6001 167.4 27.0001 168.5 29.0001 167.6C30.1001 167.1 30.9001 166 31.5001 164.8C33.6001 160.5 33.4001 155.3 33.2001 150.3ZM62.8001 281.9C62.1001 279.9 61.8001 277.8 61.6001 275.7C61.0001 271.3 60.5001 266.8 59.9001 262.3C59.8001 261.8 59.3001 261.5 58.8001 261.2C51.6001 257.8 44.4001 254.5 37.2001 251.1C38.4001 257 39.6001 263 40.8001 268.9C41.1001 270.6 41.6001 272.4 43.2001 273.2C50.3001 276.8 57.1001 280.8 63.6001 285.3C63.8001 284.3 63.2001 283.1 62.8001 281.9ZM160.7 56C158.6 54.4 156.5 52.9 154.4 51.3C145.7 44.8 136.7 37.9 131.5 28.3C133.6 37.5 137.4 46.3 142.5 54.2C145 58 148.1 61.8 152.4 62.8C151.3 64.4 148.8 63.3 147.3 62C138.5 54.1 133.6 42.8 130.5 31.5C130 29.6 128.9 27.1 126.9 27.3C126.3 27.3 126.3 28.2 126.4 28.7C129.6 39.7 135 50 142.2 58.9C143.6 60.6 145 62.3 146.9 63.4C148.8 64.5 151.2 65 153.2 64.1C154.7 63.5 155.8 62.3 156.8 61.1C157.9 59.8 159 57.7 157.6 56.7C149.4 51 141.3 44.9 135.8 36.6C142.8 43.8 150.6 50.3 158.8 56.1C159.6 56.7 160.8 56.8 160.7 56ZM49.0001 76.4C42.8001 77 36.2001 76 31.4001 72.1C39.3001 75.8 48.5001 76.5 56.8001 73.9C56.5001 65.3 54.6001 56.7 51.2001 48.8C50.3001 49.4 50.7001 50.7 51.1001 51.6C53.6001 57.5 55.2001 63.9 55.5001 70.3C55.5001 71 55.6001 71.7 55.2001 72.3C54.6001 73.4 53.2001 73.6 51.9001 73.7C47.3001 74.1 42.6001 74.1 38.1001 72.9C33.6001 71.8 29.4001 69.3 26.7001 65.6C27.7001 71.1 30.5001 76.3 34.6001 80.2C37.8001 83.2 41.6001 85.4 45.6001 87.1C47.0001 87.7 48.5001 88.3 50.1001 88.1C51.6001 87.9 53.2001 86.9 53.4001 85.3C53.8001 82.4 54.2001 79.4 54.6001 76.5C52.8001 76 50.9001 76.2 49.0001 76.4ZM236.4 164C236.8 163.2 237.3 162.4 237.7 161.6C228.5 166.1 218.5 169.4 208.3 169.4C198.1 169.4 187.6 165.8 180.8 158.2C180.1 158.5 179.5 158.9 178.8 159.3C177.7 159 178.4 157.1 179.4 157.5C178.5 155.9 177.7 154.4 176.8 152.9C175.4 155.1 176.8 157.9 178.3 160C184.2 167.7 193.8 172.2 203.4 173.1C213.1 174.1 222.9 171.8 231.8 168C239.1 164.8 246.1 160.4 250.2 153.6C245.3 156.4 240.6 159.9 236.4 164ZM73.9001 258.6C75.8001 259.5 78.1001 259.4 79.9001 258.4C78.0001 258 76.1001 257.6 74.1001 257.3C81.6001 255.8 89.1001 254.7 96.6001 254C97.2001 250.2 97.2001 246.3 96.6001 242.4C89.4001 243.3 82.1001 244.4 74.9001 245.6C74.5001 245.6 74.1001 245.7 73.9001 246C73.7001 246.3 73.7001 246.6 73.7001 246.9C73.9001 250.8 73.9001 254.7 73.9001 258.6ZM214.5 85.7C219.2 83.3 224.2 79.2 223.8 73.9C218 79.3 211.1 83.6 203.5 85.7C195.9 87.8 187.6 87.6 180.2 84.6C173.5 81.9 167.8 76.8 164.2 70.5C163.3 72.3 164.5 74.3 165.7 75.9C167.7 78.5 169.6 81.1 172 83.4C177.6 88.5 185.2 91 192.8 91.2C200.4 91.3 207.8 89.1 214.5 85.7ZM149.3 139.4C149.1 137.8 147.1 136.8 145.7 137.5C145.3 136.6 146.6 135.9 147.6 135.7C146.9 118 147 100.4 147.7 82.7C146.4 83.2 145.2 83.6 143.9 84C144.5 100.5 144.5 117.1 144 133.7C143.9 136.8 146.4 139.2 148.6 141.3C152.8 145.1 157.7 149.2 163.4 148.7C158.1 146.6 153.3 143.5 149.3 139.4ZM69.1001 96.1C70.0001 94.8 69.7001 93 69.6001 91.4C69.4001 89.8 69.7001 87.9 71.1001 87.1C73.0001 86.7 74.9001 86.3 76.9001 85.9C76.6001 85.3 75.8001 85 75.0001 84.8C70.4001 83.4 66.1001 81.5 62.0001 79.1C60.7001 78.3 58.8001 77.7 58.1001 79C58.7001 77.7 58.1001 76.1 56.9001 75.5C56.9001 77.6 56.8001 79.7 56.8001 81.8C56.7001 85.9 56.5001 90.4 53.7001 93.4C58.7001 94.9 63.9001 95.9 69.1001 96.1ZM74.5001 96C73.9001 97.2 73.9001 98.5 73.9001 99.8C73.9001 109.6 73.9001 119.5 73.9001 129.3C75.4001 129.7 77.0001 129.5 78.4001 128.9C78.5001 118 78.4001 107.1 78.3001 96.2C77.0001 96.1 75.8001 96.1 74.5001 96ZM173.5 139.9C167.1 140.1 160.7 140.2 154.3 140.2C155.6 139 157.2 138 158.9 137.2C158.7 137.7 158.6 138.1 158.7 138.6C163.4 138.3 168 138.2 172.7 138.4C173.7 138.4 174.6 137.5 174.6 136.6C166.3 136.4 157.9 136.3 149.5 136.2C152.7 140.2 156.7 143.6 161.2 146C163.2 147.1 165.6 148 167.8 147.1C169.1 146.6 170 145.4 170.8 144.3C171.8 143 172.7 141.5 173.5 139.9ZM51.3001 255.4C51.5001 255.7 51.8001 255.9 52.2001 256.1C56.0001 258.1 59.7001 260.1 63.5001 262.1C62.2001 262.4 62.0001 264.1 62.1001 265.5C62.2001 266.2 62.2001 266.9 62.3001 267.7C62.3001 268 62.4001 268.4 62.6001 268.6C63.0001 268.9 63.6001 268.7 63.9001 268.3C64.2001 267.9 64.2001 267.4 64.2001 266.8C64.2001 260.3 64.2001 253.7 64.1001 247.2C59.8001 247.2 55.6001 247.7 51.4001 248.7C51.3001 250.6 51.2001 252.4 51.1001 254.3C51.1001 254.7 51.1001 255.1 51.3001 255.4ZM151.1 167.7C151.7 168.5 153 168.4 154.1 168.2C164.1 166.2 174.5 167.3 184.7 168.3C181.1 165.2 177.5 162 175.2 158C174.8 157.3 173.8 157.7 173.1 158.1C166.1 162.1 158.8 165.4 151.1 167.7ZM81.4001 99C81.4001 102 81.4001 105 81.4001 108.1C81.4001 114.9 81.4001 121.7 81.5001 128.4C82.1001 129.3 83.6001 129.1 84.3001 128.2C84.9001 127.3 85.0001 126.1 85.0001 125C85.0001 115 85.0001 105 84.9001 95.1C84.1001 94.3 82.6001 94.8 82.0001 95.7C81.4001 96.7 81.4001 97.9 81.4001 99ZM61.7001 143.5C63.8001 142.1 66.2001 141.2 68.6001 140.3C70.9001 139.4 73.2001 138.5 75.7001 138.6C76.9001 138.6 78.1001 138.9 79.3001 138.8C80.5001 138.8 81.8001 138.3 82.4001 137.2C77.6001 136.4 72.6001 136.9 68.1001 138.8C60.6001 141.8 52.8001 144.2 44.9001 145.7C46.8001 146.6 49.0001 146.8 51.1001 146.9C60.2001 147.1 69.4001 144.6 77.2001 139.8C74.0001 139 70.8001 140.7 67.8001 142C64.5001 143.4 60.9001 144.5 57.4001 145.1C57.4001 144.3 58.5001 143.8 59.3001 143.8C60.1001 143.8 61.0001 144 61.7001 143.5ZM124.1 27.9C123 27.5 121.6 27.7 120.6 28.5C113 42.2 101.5 53.8 87.7001 61.4C82.1001 64.5 75.7001 67 69.4001 65.6C68.9001 66 69.7001 66.7 70.3001 66.8C78.5001 68.2 86.7001 64.2 93.6001 59.5C105.9 51.2 116.3 40.4 124.1 27.9ZM162.1 72.9C159 75.9 155.3 78 151.7 80.1C150.5 80.8 149.3 81.5 148.1 82.2C155.8 82 163.4 84.3 171.1 85C167.3 81.7 164.1 77.6 162.1 72.9ZM33.5001 164C32.9001 165.6 32.2001 167.3 30.8001 168.5C29.2001 169.8 26.9001 170.1 24.8001 169.6C22.8001 169.1 21.0001 167.9 19.4001 166.6C15.5001 163.4 12.1001 159.5 9.6001 155.2C9.0001 154.1 8.2001 152.8 6.9001 152.9C9.6001 159 13.6001 164.4 18.6001 168.8C20.5001 170.4 22.6001 172 25.0001 172.6C27.4001 173.2 30.3001 172.8 32.0001 170.9C33.2001 169.6 33.7001 167.9 34.2001 166.2C34.6001 164.7 35.0001 163.1 34.4001 161.7C34.2001 162.4 33.8001 163.2 33.5001 164ZM42.8001 160.4C40.4001 159 37.9001 157.7 35.5001 156.3C36.6001 160 36.6001 164 35.5001 167.8C37.4001 166.7 39.3001 165.5 41.5001 165C43.7001 164.4 46.1001 164.4 48.0001 165.5C50.7001 167 53.9001 167.6 56.9001 167.1C52.8001 165.4 48.8001 163.6 44.8001 161.8C44.3001 161.6 43.7001 161.3 43.2001 161.5C42.7001 161.6 42.2001 162.1 42.4001 162.7C41.5001 162.3 40.4001 162.3 39.4001 161.9C38.5001 161.5 37.6001 160.5 38.1001 159.5C39.0001 160 39.9001 160.5 40.8001 161C41.2001 161.2 41.6001 161.5 42.1001 161.4C42.4001 161.3 42.9001 160.8 42.8001 160.4ZM106.5 44.9C108.7 42.8 110.8 40.5 112.2 37.8C102 47.8 90.6001 56.6 78.3001 64C80.8001 64.1 83.2001 62.7 85.4001 61.4C93.0001 56.7 100.1 51.1 106.5 44.9ZM74.0001 90.6C74.0001 92.3 74.0001 93.9 74.1001 95.6C74.3001 95.4 74.4001 95 74.3001 94.7C77.4001 94.2 80.5001 93.7 83.6001 93.2C83.9001 93.2 84.2001 93.1 84.5001 92.9C84.8001 92.6 84.9001 92.1 85.0001 91.7C85.1001 90.6 85.2001 89.5 85.3001 88.4C84.0001 87.8 82.6001 87.2 81.2001 87C79.8001 86.8 78.2001 87.2 77.3001 88.3C76.6001 89.1 76.2001 90.2 75.2001 90.5C75.5001 89.6 75.7001 88.7 75.9001 87.8C75.3001 87.6 74.6001 88.1 74.3001 88.7C73.9001 89.3 73.9001 89.9 74.0001 90.6ZM54.3001 87.4C53.8001 89.1 52.0001 90.1 50.2001 90.3C48.5001 90.5 46.7001 89.9 45.1001 89.2C39.7001 86.9 34.9001 83.2 31.3001 78.6C30.6001 79.1 31.1001 80.2 31.6001 80.8C34.8001 84.7 38.7001 88.1 43.0001 90.7C45.2001 92 47.7001 93.2 50.3001 92.8C52.8001 92.4 55.1001 89.8 54.3001 87.4ZM175 152.8C176.1 146 177.2 139.1 178.4 132.3C178.5 131.7 178.5 130.8 177.9 130.6C176.2 136.3 175.1 142.2 174.4 148.1C174.1 149.6 174 151.5 175 152.8ZM28.0001 131.4C30.5001 137.2 32.6001 143.1 34.3001 149.2C34.5001 149.9 34.7001 150.6 34.7001 151.4C34.7001 152.5 34.4001 153.7 35.0001 154.6C35.6001 154.4 35.7001 153.5 35.6001 152.8C35.0001 145.1 32.3001 137.7 28.0001 131.4ZM64.5001 273.6C64.5001 273 64.5001 272.3 64.1001 271.9C63.8001 271.7 63.4001 271.6 63.1001 271.7C63.0001 274.2 63.4001 276.7 64.3001 279C64.3001 277.3 64.4001 275.5 64.5001 273.6ZM80.1001 257.4C80.1001 257.6 80.4001 257.8 80.6001 257.9C82.0001 258.7 83.8001 258.6 85.2001 257.8C84.1001 257.5 82.9001 257.1 81.8001 256.7C81.1001 256.6 79.9001 256.7 80.1001 257.4ZM85.5001 256.1C85.1001 256.7 85.9001 257.4 86.6001 257.5C87.6001 257.8 88.5001 257.7 89.5001 257.5C90.0001 257.1 89.1001 256.5 88.5001 256.4C87.5001 256.4 86.5001 256.3 85.5001 256.1ZM91.3001 256.4C92.2001 256.8 93.2001 256.9 94.1001 256.5C93.2001 255.3 91.4001 255 90.2001 255.9C90.5001 256.1 90.8001 256.3 91.2001 256.5M157.7 169.6C158.4 169.9 159.3 169.8 159.8 169.1C158.7 168.6 157.3 168.8 156.3 169.5C156.7 169.7 157.2 169.8 157.7 169.6Z" fill="#393939"/>
<path d="M218.3 157.2C217.7 157.6 216.8 157.7 216.1 157.5C215.8 157.2 215.8 156.7 216.1 156.4C216.8 156.2 217.7 156.3 218.3 156.8" fill="#393939"/>
<path d="M210 264.6C210.5 264.6 211 264.6 211.5 264.6C211.7 264.9 211.7 265.2 211.7 265.6C210.8 265.9 209.7 265.8 209 265.1C209.3 264.9 209.7 264.7 210 264.6Z" fill="#393939"/>
<path d="M7.1001 284.4C7.9001 284.4 8.8001 284.3 9.7001 284.3C9.7001 284.9 9.2001 285.5 8.5001 285.6C7.9001 285.7 7.3001 285.2 7.2001 284.6" fill="#393939"/>
<path d="M206.6 159.8C206.3 159.5 206.3 159 206.6 158.7C207.5 158.6 208.6 158.5 209.1 159.3C208.4 159.9 207.4 160 206.6 159.8Z" fill="#393939"/>
<path d="M245.1 152C244.6 152 244.2 151.3 244.4 150.8C245.2 150.6 246.1 151 246.6 151.7C246.3 152.2 245.6 152.4 245.1 152Z" fill="#393939"/>
<path d="M202.3 158.6C201.7 159.2 200.5 159.2 199.9 158.5C200.5 157.7 202 157.7 202.6 158.5" fill="#393939"/>
<path d="M53.3001 189.5C53.1001 190.2 52.1001 190.5 51.5001 190C51.5001 189.6 51.5001 189.2 51.5001 188.9C51.8001 188.7 52.1001 188.5 52.5001 188.3C52.7001 188.7 53.0001 189 53.3001 189.5Z" fill="#393939"/>
<path d="M53.4001 173.3C53.4001 172.6 53.8001 171.9 54.4001 171.6C54.7001 172.4 54.6001 173.5 54.0001 174.2C53.5001 174.4 53.4001 173.7 53.4001 173.3Z" fill="#393939"/>
<path d="M191.7 74.8C192 75.1 192 75.6 191.7 75.9C190.8 76.1 189.6 75.7 189.2 74.9C190.1 74.8 190.9 74.8 191.7 74.8Z" fill="#393939"/>
<path d="M50.7001 263.6C50.7001 263 51.4001 262.5 51.8001 262.8C51.8001 263.4 51.9001 263.9 51.6001 264.4C51.3001 264.9 50.6001 265.1 50.2001 264.7C50.3001 264.3 50.4001 263.9 50.5001 263.5" fill="#393939"/>
<path d="M47.4001 270.5C47.7001 270.2 48.0001 269.9 48.3001 269.5C48.8001 270.1 48.9001 271 48.4001 271.6C48.2001 272 47.6001 272 47.4001 271.7C47.4001 271.2 47.4001 270.8 47.4001 270.5Z" fill="#393939"/>
<path d="M244.1 285.9C243.6 285.7 243.1 285.3 242.8 284.9C243.8 284.5 245 284.7 245.9 285.4C245.6 285.9 244.8 286.1 244.2 285.8" fill="#393939"/>
<path d="M193.4 253.1C193.8 252.6 194.7 253.4 194.5 254C194.2 254.6 193.5 254.8 192.8 255C192.8 254.3 193.1 253.6 193.6 253.2" fill="#393939"/>
<path d="M157.6 155.6C157.4 156.3 156.7 156.8 155.9 156.6C155.7 155.6 156.5 154.5 157.6 154.4C157.9 154.8 157.9 155.3 157.6 155.6Z" fill="#393939"/>
<path d="M108.6 164.8C108.3 165.3 108 165.7 107.5 166C107 165.2 107.2 164 107.9 163.3C108.2 163 108.7 163.3 108.8 163.6C109 164 108.8 164.4 108.6 164.8Z" fill="#393939"/>
<path d="M127.3 78.3C126.3 77.6 126.8 75.7 128.1 75.6C128.6 76.4 128.3 77.5 127.5 78" fill="#393939"/>
<path d="M128.8 47.4C129.4 47.1 130.1 47.7 130.2 48.3C130.3 48.9 130 49.6 129.7 50.2C128.9 49.7 128.6 48.6 129 47.7" fill="#393939"/>
<path d="M213.8 154.6C214.4 154.8 215.1 155.5 214.5 155.8C213.7 155.6 212.9 155.4 212 155.2C212.1 154.8 212.2 154.4 212.2 154.1C212.7 154.2 213.3 154.3 213.8 154.4" fill="#393939"/>
<path d="M223.3 163.3C222.5 163.7 221.3 163.5 220.8 162.7C221.3 162.4 221.9 162.1 222.4 162.2C223 162.2 223.5 162.8 223.3 163.3Z" fill="#393939"/>
<path d="M187.2 152.6C187.5 153 187.5 153.6 187.2 154C186.3 153.7 185.6 152.9 185.3 151.9C186 151.8 186.8 152.1 187.2 152.6Z" fill="#393939"/>
<path d="M228.3 153.8C229.3 153.4 230.5 153.8 231 154.7C230.1 155.2 228.9 154.8 228.4 153.9" fill="#393939"/>
<path d="M51.9001 171.8C52.1001 172.3 51.8001 172.9 51.4001 173.1C51.1001 172.9 50.8001 172.8 50.5001 172.6C50.4001 171.8 50.4001 170.9 51.1001 170.5C51.3001 170.9 51.6001 171.3 51.9001 171.8Z" fill="#393939"/>
<path d="M200.2 82.6C199.3 82.8 198.3 82.5 197.6 81.8C198.4 81.2 199.8 81.4 200.4 82.3" fill="#393939"/>
<path d="M190.9 82.5C190.6 82 190.6 81.3 191.1 80.9C191.7 81.3 192.2 81.9 192.4 82.5C192.1 83.1 191.1 83.2 190.9 82.5Z" fill="#393939"/>
<path d="M44.7001 270.5C44.8001 269.6 45.2001 268.7 45.7001 267.9C46.4001 268.8 45.9001 270.4 44.8001 270.7" fill="#393939"/>
<path d="M186.7 165.7C186.8 166.1 186.2 166.4 185.9 166.1C185.6 165.4 185.4 164.8 185.1 164.1C185.7 164 186.3 164.2 186.7 164.6C186.6 164.9 186.7 165.3 186.7 165.7Z" fill="#393939"/>
<path d="M62.0001 258.6C62.4001 258.4 62.8001 258.3 63.1001 258.2C63.5001 258.8 63.2001 259.7 62.6001 260C61.9001 260.3 61.1001 259.8 61.0001 259.1C61.3001 258.9 61.6001 258.7 62.0001 258.6Z" fill="#393939"/>
<path d="M159.9 76.3C160.8 76.2 161.7 76.8 162 77.6C161.1 77.9 159.9 77.4 159.5 76.4" fill="#393939"/>
<path d="M124.2 16.8C123.6 16.6 123.7 15.5 124.3 15.2C124.9 14.9 125.6 15.2 126.2 15.5C125.5 15.9 124.8 16.3 124.1 16.6" fill="#393939"/>
<path d="M158.7 310.1C157.9 311 156 310.5 155.8 309.2C156.8 308.7 158.2 309 158.9 310" fill="#393939"/>
<path d="M190.1 292.9C189.2 293.1 188.4 293.2 187.5 293.4C187.7 292.3 188.8 291.4 189.9 291.6C190.1 291.9 190.1 292.4 190.1 292.9Z" fill="#393939"/>
<path d="M132.6 281.7C131.8 281.7 131 281.4 130.8 280.7C131.8 280.4 132.9 280.4 133.9 280.8C133.9 281.3 133.1 281.8 132.6 281.7Z" fill="#393939"/>
<path d="M201.8 262.2C202.4 263.2 202 264.8 200.8 265.3C200.3 264.4 200.6 263.2 201.4 262.5" fill="#393939"/>
<path d="M77.2001 133.6C76.8001 133.6 76.4001 133.6 76.1001 133.6C75.9001 133.3 75.8001 133 75.9001 132.6C76.9001 132.3 78.0001 132.4 78.9001 133.1C78.7001 133.4 78.6001 133.7 78.4001 134C78.0001 133.7 77.5001 133.5 77.2001 133.6Z" fill="#393939"/>
<path d="M80.2001 269.2C81.2001 268.7 82.4001 268.7 83.4001 269.4C82.5001 270.2 80.9001 270.2 80.0001 269.3" fill="#393939"/>
<path d="M89.8001 299.5C90.0001 298.9 90.7001 298.4 91.4001 298.4C91.3001 299.5 90.4001 300.4 89.3001 300.5C89.0001 300.2 89.3001 299.7 89.8001 299.5Z" fill="#393939"/>
<path d="M89.1001 261.7C89.4001 261.4 89.7001 261.1 90.0001 260.8C90.2001 261.1 90.4001 261.4 90.6001 261.7C90.3001 262.3 89.8001 263 89.2001 263.4C88.9001 263 88.9001 262.3 89.1001 261.7Z" fill="#393939"/>
<path d="M82.1001 263.2C82.6001 262.4 83.6001 261.9 84.5001 262.1C83.8001 262.8 83.1001 263.5 82.4001 264.2C82.2001 263.9 82.1001 263.6 82.2001 263.3" fill="#393939"/>
<path d="M187.1 268.1C186.9 267.9 186.8 267.7 186.6 267.5C187.2 266.7 187.8 266 188.4 265.3C188.7 266.3 188.1 267.5 187.2 268" fill="#393939"/>
<path d="M126.6 155.6C125.8 154.9 125.9 153.4 126.8 152.9C127.7 153.6 127.5 155.2 126.5 155.7" fill="#393939"/>
<path d="M76.0001 175.4C76.2001 175.7 76.3001 176 76.5001 176.3C76.0001 176.7 75.1001 176.6 74.6001 176.1C74.2001 175.6 74.3001 174.7 74.8001 174.2C75.2001 174.6 75.6001 175 76.0001 175.4Z" fill="#393939"/>
<path d="M92.0001 183.3C92.0001 183.6 92.1001 183.9 92.1001 184.3C91.1001 184.6 90.1001 184.8 89.1001 184.8C89.7001 183.8 90.8001 183.2 92.0001 183.3Z" fill="#393939"/>
<path d="M182 77.8C182.4 76.6 184.3 76.4 185 77.4C184.8 77.7 184.7 78 184.6 78.3C183.8 78.4 183 78.3 182.3 78" fill="#393939"/>
<path d="M186.8 80.1C186.5 80.3 186.1 79.7 186.4 79.5C187.5 79.2 188.8 79.7 189.3 80.7C188.5 81.1 187.4 80.9 186.8 80.1Z" fill="#393939"/>
<path d="M212.7 76.7C213.6 76.5 214.9 76.8 214.7 77.7C214.1 77.6 213.5 77.8 213 78.2C212.6 77.7 212.1 77.3 211.7 76.9C212 76.7 212.3 76.7 212.7 76.7Z" fill="#393939"/>
<path d="M196 78C195.1 78.3 194.1 78 193.5 77.3C194 76.6 195 76.8 195.8 77C196 77 196.3 77.1 196.3 77.3C196.4 77.5 196.2 77.8 196 77.7" fill="#393939"/>
<path d="M201.6 77.4C200.9 77.3 200.3 77 199.8 76.5C200.7 75.9 202.1 76.1 202.9 76.9C202.5 77 202.1 77.2 201.6 77.4Z" fill="#393939"/>
<path d="M23.4001 162.5C22.9001 163.4 21.5001 163.9 20.6001 163.4C21.1001 162.5 22.4001 162.1 23.4001 162.5Z" fill="#393939"/>
<path d="M154.8 57.5C154.7 57.8 154.7 58.1 154.6 58.4C153.6 58 152.9 57 152.9 55.9C153.7 56 154.5 56.6 154.6 57.5" fill="#393939"/>
<path d="M239.8 283.8C240.4 283.5 241.2 283.2 241.9 283.2C242.1 284 241.8 285 241.1 285.5C240.7 285.2 240.1 285 239.6 285.2C239.3 284.7 239.3 284 239.8 283.8Z" fill="#393939"/>
<path d="M209 293.9C208.9 293.7 208.7 293.4 208.6 293.2C209.3 292.5 210 291.8 210.7 291.1C211.2 292.2 210.4 293.6 209.2 293.7" fill="#393939"/>
<path d="M51.3001 155.1C52.2001 154.8 53.2001 154.4 54.1001 154.1C54.2001 155.5 52.1001 156.6 51.1001 155.6" fill="#393939"/>
<path d="M129.5 72.5C129.7 72.8 129 72.7 128.9 72.3C128.7 71.2 129.1 70.1 129.8 69.3C130.8 70.2 130.6 71.9 129.5 72.5Z" fill="#393939"/>
<path d="M154.2 238.4C153.9 238.9 153.6 239.4 153.4 240C152.9 238.9 153.1 237.5 153.8 236.5C154.1 237.1 154.3 237.7 154.4 238.4" fill="#393939"/>
<path d="M175.2 90C175.4 91.3 174.3 92.5 173 92.5C173.6 91.7 174.3 90.8 175 90" fill="#393939"/>
<path d="M220.7 154.7C219.6 155 218.3 154.7 217.4 153.9C218.3 153 220.2 153.3 220.8 154.4" fill="#393939"/>
<path d="M170.1 68.3C171.1 68.6 171.8 69.5 172.1 70.5C170.9 70.5 169.8 69.5 169.6 68.3" fill="#393939"/>
<path d="M139.4 166.6C140 166.1 140.9 166.1 141.5 166.4C140.9 167.5 139.5 168.1 138.3 167.7C137.7 167.2 138.8 166.2 139.3 166.8" fill="#393939"/>
<path d="M29.0001 159.9C29.7001 159.3 30.8001 159.3 31.5001 159.7C30.7001 160.7 29.4001 161.2 28.1001 160.9C28.3001 160.5 28.6001 160.1 29.0001 159.9Z" fill="#393939"/>
<path d="M9.9001 150.7C9.4001 150.8 8.9001 150.7 8.5001 150.5C9.8001 149.7 11.5001 149.7 12.8001 150.7C11.9001 150.7 10.9001 150.7 9.9001 150.7Z" fill="#393939"/>
<path d="M23.4001 162.4C24.0001 161.5 25.3001 161.3 26.2001 161.9C25.7001 162.9 24.2001 163.2 23.4001 162.4Z" fill="#393939"/>
<path d="M56.6001 265.5C56.6001 266.5 55.9001 267.4 55.0001 267.6C54.9001 266.5 55.4001 265.3 56.3001 264.6C56.5001 264.9 56.6001 265.2 56.8001 265.5" fill="#393939"/>
<path d="M49.1001 84.1C49.5001 84.3 49.9001 84.5 50.4001 84.7C49.5001 85.6 48.1001 85.9 46.9001 85.6C47.6001 85.1 48.3001 84.7 49.0001 84.2" fill="#393939"/>
<path d="M196.8 89C197.5 88.5 198.4 88.4 199.3 88.7C198.4 89.8 196.7 90.1 195.4 89.5C195.7 89.1 196.2 88.9 196.7 89" fill="#393939"/>
<path d="M62.5001 254.9C62.4001 255.6 62.1001 256.2 61.6001 256.6C61.1001 255.3 61.7001 253.8 62.9001 253.2C62.7001 253.8 62.6001 254.3 62.5001 254.9Z" fill="#393939"/>
<path d="M110.2 113.9C109.9 113.7 109.7 113.4 109.7 113C110.3 112.2 110.9 111.3 111.5 110.5C111.7 111.7 111.1 113 110.1 113.8" fill="#393939"/>
<path d="M137.2 90.4C137.7 89.5 138.6 88.8 139.6 88.5C139.2 89.3 138.7 90.1 138.1 90.7C137.9 90.9 137.6 91.2 137.3 91.1C136.9 91 136.9 90.5 137.2 90.4Z" fill="#393939"/>
<path d="M171.4 92.4C171.2 92.7 170.6 92.4 170.7 92.1C171.4 91.2 172.1 90.4 172.8 89.5C173.1 90.6 172.5 91.9 171.4 92.4Z" fill="#393939"/>
<path d="M188.5 151.3C188.4 150.7 189.5 150.7 190 151C190.7 151.5 191.3 152.1 191.7 152.8C190.4 153.1 189.1 152.4 188.5 151.3Z" fill="#393939"/>
<path d="M207.3 161.7C208.4 161.5 209.6 162.1 210.1 163C209.8 163.2 209.5 163.4 209.1 163.6C208.9 163 208.1 163 207.5 162.9C206.9 162.7 206.7 161.5 207.3 161.7Z" fill="#393939"/>
<path d="M93.2001 170.8C92.7001 171.8 91.4001 172.2 90.3001 171.9C90.8001 170.8 92.3001 170.2 93.4001 170.7" fill="#393939"/>
<path d="M27.5001 156.9C26.8001 157.6 25.6001 157.7 24.7001 157.2C25.8001 156.4 27.3001 156 28.7001 156.2C28.3001 156.4 28.0001 156.7 27.5001 156.9Z" fill="#393939"/>
<path d="M196.3 170C195.3 170.1 194 170 193.8 169C195.2 169 196.6 169.3 197.7 170.1C197.3 170.1 196.8 170.1 196.3 170Z" fill="#393939"/>
<path d="M197.7 181.6C198 180.7 198.7 179.9 199.5 179.5C199.7 180.9 198.8 182.4 197.5 183C197.2 182.6 197.4 182 197.7 181.6Z" fill="#393939"/>
<path d="M146.2 152.6C145.9 151.3 146.3 149.9 147.4 149.2C147.6 150 147.6 150.9 147.6 151.7C147.6 152.1 147.5 152.6 147.2 152.8C146.8 153.1 146.2 153 146.2 152.6Z" fill="#393939"/>
<path d="M104.8 119.3C104.3 120.4 103.3 121.3 102.1 121.5C102.2 120.2 103.5 119.2 104.7 119.3" fill="#393939"/>
<path d="M127.8 55.8C128.5 56.9 128.1 58.6 126.9 59.3C126.3 58.1 126.7 56.5 127.8 55.8Z" fill="#393939"/>
<path d="M38.4001 80.5C37.8001 80.6 37.2001 80.5 36.7001 80.3C38.0001 79.8 39.2001 79.4 40.5001 79C40.5001 79.9 39.4001 80.6 38.6001 80.2" fill="#393939"/>
<path d="M209 86.7C208.4 87.2 207.6 87.4 206.9 87.3C207.5 86.1 208.7 85.2 210 85C210.1 85.7 209.7 86.4 209 86.7Z" fill="#393939"/>
<path d="M199.1 262.4C199.4 263.9 198.4 265.6 197 266.1C196.8 264.6 197.7 263 199.1 262.4Z" fill="#393939"/>
<path d="M207.1 262.9C206.9 263.9 206.2 264.7 205.3 265.1C205.3 263.5 206 262 207.3 261.1C207.6 261.6 207.6 262.4 207.1 262.8" fill="#393939"/>
<path d="M147.9 308.1C148.7 309 149.5 309.9 150.3 310.8C148.7 311.3 147 309.5 147.6 307.9" fill="#393939"/>
<path d="M205.7 180.5C206.2 180.9 205.7 182 205.1 181.8C204.3 180.5 204.3 178.8 205.1 177.6C205.7 177.6 206.1 178.2 206.1 178.7C206.1 179.3 205.8 179.8 205.5 180.3" fill="#393939"/>
<path d="M115.7 146.9C115.9 148 115.3 149.1 114.4 149.6C113.9 148.1 114.4 146.4 115.5 145.3C116 145.6 116.3 146.3 116 146.9" fill="#393939"/>
<path d="M104.5 118.9C105.5 118.3 106.6 117.8 107.6 117.2C107.9 118.7 105.9 120 104.7 119.2" fill="#393939"/>
<path d="M138.4 64C138.6 64.8 138.1 65.8 137.3 66.1C136.7 64.8 136.8 63.1 137.5 61.9C138.4 62.2 138.8 63.2 138.4 64Z" fill="#393939"/>
<path d="M146.3 71.3C146.6 71.7 146.4 72.4 145.9 72.6C145.1 71.2 145.6 69.2 147 68.3C147.5 69.3 147.2 70.5 146.5 71.3" fill="#393939"/>
<path d="M119.8 61.3C119.3 62.1 118.9 62.9 118.5 63.7C117.9 62.2 118.3 60.4 119.6 59.3C119.7 60 119.8 60.7 120 61.4" fill="#393939"/>
<path d="M111.7 183.7C111.6 184.1 111.5 184.5 111.4 184.8C110.8 184.2 109.7 184.4 109.3 185.1C109.4 183.8 110.1 182.6 111.3 182.1C111.7 182.5 111.9 183.1 111.8 183.7" fill="#393939"/>
<path d="M208.9 153.3C207.8 152.8 206.8 152.1 205.9 151.2C207.5 150.9 209.2 151.7 209.9 153.1C209.6 153.2 209.2 153.3 208.9 153.4" fill="#393939"/>
<path d="M18.7001 155.3C19.6001 155.2 20.4001 155.1 21.3001 155C20.2001 156.1 18.5001 156.6 16.9001 156.2C17.5001 155.9 18.1001 155.6 18.7001 155.3Z" fill="#393939"/>
<path d="M181 161.5C180.6 161.2 180.5 160.6 180.8 160.2C181.9 161.1 182.9 162.1 183.8 163.1C182.6 163 181.6 162.4 181 161.5Z" fill="#393939"/>
<path d="M187.1 89.1C188.5 88.3 190.4 88.1 192 88.7C191.7 89.6 190.6 89.7 189.7 89.5C188.9 89.3 188 88.9 187.1 89.1Z" fill="#393939"/>
<path d="M125.9 276.8C127.6 276.2 129.6 276.2 131.4 276.7C129.7 277.7 127.6 277.7 125.9 276.8Z" fill="#393939"/>
<path d="M136.2 146.9C136.4 147.8 136 148.8 135.3 149.5C134.5 147.9 134.9 145.7 136.2 144.4C136.6 145.2 136.7 146.2 136.2 146.9Z" fill="#393939"/>
<path d="M140.7 185.2C141.2 183.7 142 182.4 143.2 181.4C143.8 183.1 142.4 185.1 140.7 185.2Z" fill="#393939"/>
<path d="M76.2001 181.7C76.3001 180.8 77.2001 180.2 78.0001 180.4C77.6001 181.8 76.8001 183.2 75.7001 184.2C75.3001 183.4 75.5001 182.3 76.2001 181.7Z" fill="#393939"/>
<path d="M170.1 114C169.8 112.6 170.5 111 171.8 110.4C171.9 110.7 172 111 172.1 111.3C171.5 112.3 170.8 113.2 170.1 114Z" fill="#393939"/>
<path d="M202.8 154.1C202.4 153.9 202.2 153.3 202.4 153C203.9 153.3 205.3 154.1 206.5 155.1C205.3 155.6 203.7 155.1 202.8 154.1Z" fill="#393939"/>
<path d="M198.4 152.8C199.5 153.3 200.5 154.1 201.3 155.1C199.6 155.4 197.8 154.3 197.4 152.7C197.6 152.5 198.1 152.5 198.4 152.8Z" fill="#393939"/>
<path d="M45.0001 79.9C45.7001 79.4 46.7001 79.3 47.5001 79.6C46.2001 80.6 44.7001 81.2 43.2001 81.5C43.5001 80.8 44.1001 80.1 45.0001 79.9Z" fill="#393939"/>
<path d="M173.5 162.5C172.8 162.2 172.1 161.9 171.4 161.6C171.3 161.1 171.5 160.5 171.9 160.4C173.3 160.7 174.5 161.4 175.6 162.4C175 162.5 174.2 162.6 173.5 162.5Z" fill="#393939"/>
<path d="M140.6 146.7C140.9 145.9 141.1 145 141.3 144.2C142.8 145.6 142.6 148.5 141 149.7C140.7 148.7 140.7 147.7 140.8 146.7" fill="#393939"/>
<path d="M129 144.5C130.3 145.5 129.6 147.5 128.8 148.9C128.6 149.3 128.1 149.7 127.8 149.4C127.9 147.7 128 145.9 129 144.5Z" fill="#393939"/>
<path d="M112.8 118.8C113.1 120.5 113.3 122.4 113.1 124.1C113.1 124.4 112.7 124.5 112.5 124.4C112.6 122.5 112.7 120.6 112.8 118.8Z" fill="#393939"/>
<path d="M174.3 112C174.6 111.5 175.3 111.5 175.7 111.8C174.9 113.2 173.7 114.3 172.2 115C172.3 113.7 173.1 112.6 174.3 112Z" fill="#393939"/>
<path d="M152.8 113.7C153.7 113 154.6 112.4 155.5 111.7C154.8 113 153.8 114.2 152.6 115C152 115 152.4 114 152.8 113.7Z" fill="#393939"/>
<path d="M188.2 159C188.6 158.9 189 159.5 188.7 159.9C187.2 159.5 185.8 158.7 184.6 157.7C185.8 157.3 187.3 157.9 187.9 159.1" fill="#393939"/>
<path d="M57.4001 181.4C57.1001 181.7 56.9001 182 56.5001 182.2C56.2001 182.3 55.8001 182.2 55.6001 182C56.3001 180.5 57.6001 179.3 59.1001 178.9C58.6001 179.7 58.0001 180.6 57.4001 181.4Z" fill="#393939"/>
<path d="M125.3 301.4C125.6 301.9 125.7 302.5 125.5 303.1C124.5 303.7 123.7 304.6 123.2 305.7C122.6 305.4 122.3 304.6 122.5 303.9C123.8 303.5 124.9 302.6 125.3 301.4Z" fill="#393939"/>
<path d="M95.0001 147.1C95.0001 147.7 94.4001 148.4 93.8001 148.3C93.5001 146.5 94.2001 144.5 95.7001 143.3C95.6001 144.6 95.5001 145.8 95.4001 147.1" fill="#393939"/>
<path d="M134.6 152.4C134 153 133.8 153.9 133.9 154.7C133.6 154.9 133.2 155 132.8 154.9C132.6 153 133.4 151.1 134.8 149.8C135 150.7 134.8 151.5 134.6 152.4Z" fill="#393939"/>
<path d="M115 55.5C114.8 53.8 114.9 52 115.3 50.4C116.7 51.7 116.5 54.3 115 55.5Z" fill="#393939"/>
<path d="M69.1001 262.5C68.1001 262.7 67.0001 262.2 66.5001 261.3C68.2001 260.7 70.0001 260.5 71.7001 260.5C71.5001 261.6 70.3001 262.4 69.1001 262.5Z" fill="#393939"/>
<path d="M95.0001 251.8C93.9001 252.2 92.8001 252.2 91.7001 252C91.9001 251.7 92.1001 251.3 92.3001 250.9C92.8001 251 93.2001 251.3 93.4001 251.7C94.0001 250.9 94.7001 250.1 95.3001 249.3C95.7001 250 95.5001 251 94.9001 251.5" fill="#393939"/>
<path d="M59.5001 84.1C59.8001 82.7 60.7001 81.4 62.0001 80.7C62.4001 80.5 62.9001 80.4 63.2001 80.7C62.5001 82.2 61.1001 83.4 59.5001 84.1Z" fill="#393939"/>
<path d="M129.3 50.9C129.3 52.1 129.1 53.3 128.8 54.5C128.6 55.1 128.3 55.8 127.8 55.9C127 54.1 127.7 51.9 129.3 50.9Z" fill="#393939"/>
<path d="M47.7001 263.9C47.8001 262 48.3001 260 49.3001 258.4C50.3001 260.2 49.5001 262.8 47.7001 263.9Z" fill="#393939"/>
<path d="M193.8 184.1C194 182 195.2 180 196.9 178.7C196.6 180.8 195.5 182.8 193.8 184.1Z" fill="#393939"/>
<path d="M136.2 89.2C135.1 90.1 133.8 90.7 132.4 90.9C131.8 91 131.3 91.1 130.7 91C131.8 89.2 134.2 89.1 136.2 89.2Z" fill="#393939"/>
<path d="M133.8 55.9C134.9 56.5 134.9 58 134.5 59.2C134.2 60 133.7 60.7 133.1 61.3C132.9 59.4 133.1 57.6 133.8 55.9Z" fill="#393939"/>
<path d="M102.8 184.9C103.5 183.1 104.6 181.5 106 180.2C106.3 182.2 104.8 184.3 102.8 184.9Z" fill="#393939"/>
<path d="M107.4 182.8C107.6 181.7 108.5 180.8 109.6 180.8C109 182.6 107.9 184.3 106.4 185.5C106 184.4 106.5 183.3 107.4 182.8Z" fill="#393939"/>
<path d="M173.1 118.3C172.6 119.6 170.9 120.4 169.6 119.9C170.8 118.6 172 117.4 173.2 116.1C173.5 116.8 173.5 117.7 173.1 118.3Z" fill="#393939"/>
<path d="M151 100.4C151.7 98.8 152.9 97.5 154.3 96.6C154.6 96.4 154.9 96.4 155.1 96.6C154.2 98.3 152.8 99.7 151 100.4Z" fill="#393939"/>
<path d="M202.4 163.7C202.2 163.3 202.7 162.8 203.2 162.8C203.7 162.8 204 163.1 204.4 163.4C205.3 164.1 206.3 164.8 207.3 165.6C205.9 166.5 204 165.3 202.7 164.1C202.6 164 202.4 163.9 202.4 163.7Z" fill="#393939"/>
<path d="M234.7 156.4C234.2 156.2 233.7 156.1 233.2 155.9C232.9 155.8 232.9 155.3 233.2 155.1C233.5 154.9 233.8 155.1 234.1 155.2C235.4 155.7 236.8 156.2 238.1 156.7C237.3 157.9 235.2 157.6 234.7 156.3" fill="#393939"/>
<path d="M240.3 154.5C240.8 154.1 241.6 154 242.2 154.2C242.5 154.4 242.4 154.9 242.1 155.1C241.8 155.3 241.4 155.2 241.1 155.1C239.7 154.9 238.3 154.6 236.9 154.3C236.7 154.1 236.6 153.8 236.7 153.6C237.9 153 239.6 153.4 240.3 154.5Z" fill="#393939"/>
<path d="M82.8001 84.1C81.7001 84.1 80.6001 83.7 80.0001 82.9C81.3001 83.1 82.7001 83.3 84.0001 83.5C84.8001 83.6 85.9001 84.1 85.7001 84.9C84.8001 84.7 83.8001 84.5 82.9001 84.3" fill="#393939"/>
<path d="M62.8001 304.3C61.6001 305.6 59.6001 306.1 58.0001 305.6C57.6001 305.4 57.2001 305.3 56.8001 305.1C58.2001 303.4 60.7001 303.7 62.8001 304.3Z" fill="#393939"/>
<path d="M39.2001 275.1C37.4001 276 35.2001 276.1 33.4001 275.4C34.8001 273.9 37.5001 273.8 39.2001 275.1Z" fill="#393939"/>
<path d="M152.5 309.2C152.7 309.5 153.1 309.7 153.5 309.8C153.7 309.4 154.1 309.1 154.6 309C154.8 309.5 154.9 310.1 154.8 310.7C152.9 311.6 150.4 310 150.4 308C151.1 308.4 151.8 308.8 152.5 309.2Z" fill="#393939"/>
<path d="M194.5 178.1C194.2 179.8 193.4 181.4 192.3 182.8C192.1 183.1 191.7 183.4 191.4 183.3C191.5 181.3 192.7 179.2 194.5 178.1Z" fill="#393939"/>
<path d="M145.6 157.5C145.1 158.7 144.2 160.2 142.9 159.9C143.9 158.3 144.5 156.5 144.9 154.7C146.1 154.8 146 156.4 145.6 157.5Z" fill="#393939"/>
<path d="M157.8 118.7C157.3 119.7 156.8 120.8 156.3 121.8C156 122.6 155.4 123.4 154.6 123.5C154.5 123.2 154.4 122.9 154.3 122.6C154.7 120.8 156.1 119.3 157.8 118.7Z" fill="#393939"/>
<path d="M184.7 151.1C182.5 151.2 180.4 149.5 180.1 147.3C182.1 147.6 184 149.2 184.7 151.1Z" fill="#393939"/>
<path d="M56.1001 172.4C58.3001 172.5 60.4001 173.3 62.1001 174.6C60.1001 175.2 57.8001 174.9 56.1001 173.6C56.1001 173.2 56.1001 172.8 56.1001 172.4Z" fill="#393939"/>
<path d="M177.4 279.1C177.1 280.3 176 281.3 174.7 281.3C174.5 281 174.3 280.6 174.1 280.2C175.4 279 176.4 277.7 177.4 276.3C178 277.1 178.2 278.3 177.7 279.1" fill="#393939"/>
<path d="M185.1 251.8C184.2 252.2 183.3 252.6 182.4 253.1C183.3 251.4 184.6 249.9 186.1 248.7C186.5 249 186.7 249.5 186.7 250C185.8 250.2 185.1 250.9 185.1 251.8Z" fill="#393939"/>
<path d="M99.3001 185.3C99.6001 183.4 100.6 181.7 102.1 180.4C102.4 180.2 102.9 180.2 103.2 180.5C102.7 182.6 101.2 184.4 99.3001 185.3Z" fill="#393939"/>
<path d="M86.0001 180.7C85.1001 182.1 84.0001 183.5 82.7001 184.7C82.4001 185 81.9001 185.3 81.6001 185C82.3001 183 84.0001 181.4 86.0001 180.7Z" fill="#393939"/>
<path d="M63.7001 75.7C64.2001 75.9 64.6001 76.2 64.8001 76.6C64.9001 76.9 64.8001 77.2 64.7001 77.4C63.1001 76.2 61.4001 75 59.8001 73.8C61.1001 74.4 62.4001 75 63.7001 75.7Z" fill="#393939"/>
<path d="M146.8 55.1C145.6 54.6 144.8 53.3 144.9 52C146.3 53.4 147.8 54.8 149.2 56.2C148.3 56.7 147 56.2 146.8 55.2" fill="#393939"/>
<path d="M78.3001 90C78.8001 89.6 79.2001 89.1 79.5001 88.5C79.8001 88.4 80.1001 88.5 80.3001 88.7C80.3001 90.9 78.4001 92.8 76.2001 92.8C76.6001 91.6 77.3001 90.7 78.3001 90Z" fill="#393939"/>
<path d="M75.4001 189.9C76.3001 191.4 77.7001 192.6 79.4001 193.3C78.2001 194 76.6001 194.2 75.4001 193.4C74.2001 192.6 74.1001 190.5 75.4001 189.9Z" fill="#393939"/>
<path d="M185.8 180.8C186.7 179.8 187.5 178.9 188.4 178C187.9 180.1 186.6 182.1 184.9 183.4C184.6 182.5 185.1 181.4 185.8 180.8Z" fill="#393939"/>
<path d="M98.9001 154C98.6001 151.6 99.4001 149.1 100.9 147.2C101.2 149.6 100.5 152.1 98.9001 154Z" fill="#393939"/>
<path d="M150.2 158.4C150.6 156.2 151.2 154 152 151.9C153.2 154.1 152.3 157.2 150.2 158.4Z" fill="#393939"/>
<path d="M87.7001 183.7C87.5001 184.1 87.2001 184.5 87.0001 184.8C86.5001 184.5 85.9001 184.4 85.4001 184.4C86.3001 182.4 88.5001 181.1 90.7001 181.1C89.7001 182 88.7001 182.9 87.7001 183.7Z" fill="#393939"/>
<path d="M159.9 86.8C159.2 88.5 158.1 90 156.6 91.1C156.1 91.4 155.5 91.7 155 91.5C155.9 89.3 157.7 87.5 159.9 86.8Z" fill="#393939"/>
<path d="M215.8 159.9C216.3 160.2 216.3 160.9 215.9 161.3C215.6 161.7 215 161.9 214.4 161.9C212.9 162.1 211.4 161.6 210.2 160.5C210.2 159.9 211.2 160.2 211.7 160.5C213 161.4 214.8 161.1 215.8 159.9Z" fill="#393939"/>
<path d="M164.5 159C163.2 159.4 161.8 159.8 160.4 160.2C161.8 158.5 163.8 157.3 166 157C166.7 157.7 165.5 158.8 164.5 159Z" fill="#393939"/>
<path d="M152.6 163.3C151.4 164.3 149.9 165 148.4 165.3C147.5 165.5 146.5 165.6 145.6 165.3C147.7 164 150.1 163.3 152.6 163.3Z" fill="#393939"/>
<path d="M46.8001 206.8C45.6001 204.3 45.4001 201.4 46.3001 198.8C46.5001 201.5 46.7001 204.1 46.8001 206.8Z" fill="#393939"/>
<path d="M46.7001 193.2C46.5001 194.6 46.2001 196.1 46.0001 197.5C45.7001 195 45.7001 192.6 46.0001 190.1C46.9001 190.8 46.8001 192.1 46.7001 193.2Z" fill="#393939"/>
<path d="M143.4 273.3C143 273.3 142.5 273.2 142.1 272.9C141.7 272.6 141.5 272.2 141.4 271.7C143.7 271.1 146.1 271.2 148.3 272.2C146.9 273.1 145.1 273.5 143.4 273.3Z" fill="#393939"/>
<path d="M206.1 270.2C205.5 272.5 203.7 274.5 201.4 275.3C202.2 273.1 204 271.2 206.1 270.2Z" fill="#393939"/>
<path d="M179.3 182C178.8 183.1 177.8 183.9 176.7 184.2C177.1 181.8 178.6 179.6 180.8 178.5C180.8 179.8 180.3 181.1 179.3 182Z" fill="#393939"/>
<path d="M177 178.8C176.5 181.1 175 183.1 173 184.3C173.1 181.9 174.7 179.5 177 178.8Z" fill="#393939"/>
<path d="M81.2001 181C81.8001 180.7 82.3001 180.5 82.9001 180.3C81.6001 181.9 80.4001 183.6 79.1001 185.2C78.2001 184.7 78.2001 183.4 78.8001 182.6C79.4001 181.8 80.3001 181.4 81.2001 181Z" fill="#393939"/>
<path d="M183.2 75.2C181 74.5 179 72.9 177.8 70.8C180.1 71.3 182.1 73 183.2 75.2Z" fill="#393939"/>
<path d="M78.9001 82.3C76.4001 82.2 73.9001 81.5 71.8001 80.1C74.3001 80.1 76.8001 80.9 78.9001 82.3Z" fill="#393939"/>
<path d="M140.3 45.4C141.7 46.5 142.9 47.9 143.8 49.5C144.1 50.1 144.3 50.8 144 51.4C142.3 49.7 141 47.6 140.3 45.4Z" fill="#393939"/>
<path d="M53.5001 254.5C53.8001 253 54.0001 251.5 54.3001 250.1C55.1001 249.4 56.2001 249.1 57.1001 249.3C55.9001 251 54.7001 252.7 53.5001 254.5Z" fill="#393939"/>
<path d="M180.9 184C181.3 181.5 183.1 179.3 185.4 178.4C184.7 180.7 183 182.7 180.9 184Z" fill="#393939"/>
<path d="M136.4 185.8C136.9 184 137.9 182.3 139.2 180.9C139.7 180.4 140.3 179.9 141.1 179.9C140.5 182.4 138.7 184.6 136.4 185.8Z" fill="#393939"/>
<path d="M61.0001 180.9C61.5001 180.8 62.0001 180.7 62.5001 180.5C62.6001 181.3 62.7001 182 62.3001 182.7C62.0001 183.4 61.2001 183.9 60.6001 183.6C60.7001 183 60.6001 182.4 60.4001 181.8C60.1001 182.4 59.4001 182.9 58.7001 182.9C58.9001 181.6 59.6001 180.5 60.5001 179.6C60.7001 179.4 61.1001 179.6 61.2001 180C61.3001 180.3 61.1001 180.6 60.9001 180.8" fill="#393939"/>
<path d="M59.7001 255.7C59.5001 256.2 59.3001 256.7 58.8001 256.9C58.5001 257 58.2001 257.1 57.9001 257C58.4001 254.4 59.8001 252 61.8001 250.3C61.2001 252.2 60.5001 253.9 59.7001 255.7Z" fill="#393939"/>
<path d="M127.4 273.9C124.2 274.2 121 274.1 117.8 273.8C120.8 272.4 124.4 272.5 127.4 273.9Z" fill="#393939"/>
<path d="M183.8 256.9C185.3 255.3 186.8 253.7 188.4 252.1C188.7 252.1 189 252.3 189.2 252.6C188 254.6 186 256.1 183.8 256.9Z" fill="#393939"/>
<path d="M57.9001 158.4C59.1001 156.1 61.2001 154.2 63.7001 153.4C62.8001 155.9 60.5001 157.9 57.9001 158.4Z" fill="#393939"/>
<path d="M97.8001 95.5C96.7001 97.8 95.0001 99.8 92.9001 101.3C93.7001 98.9 95.5001 96.8 97.8001 95.5Z" fill="#393939"/>
<path d="M209 272.4C208.8 273.5 208.5 274.8 207.6 275.5C206.6 276.1 204.9 275.5 205.1 274.3C206.2 272.4 207.7 270.7 209.6 269.6C209.3 270.5 209.2 271.4 209 272.4Z" fill="#393939"/>
<path d="M109.9 119.4C109.7 117.4 110.9 115.5 112.1 113.7C112.4 113.3 112.6 112.9 112.9 112.6C113.7 115.2 110.5 117.9 111.3 120.5C110.7 121 109.9 120.1 109.9 119.4Z" fill="#393939"/>
<path d="M78.7001 77C79.3001 74.3 81.1001 72 83.4001 70.6C83.0001 73.3 81.2001 75.7 78.7001 77Z" fill="#393939"/>
<path d="M155.4 79.4C157.5 79.6 159.5 79.7 161.6 79.9C162.4 79.9 163.4 80.1 163.9 80.7C161.1 81.8 157.7 81.3 155.4 79.4Z" fill="#393939"/>
<path d="M200 291.4C198.4 292.2 196.4 291.9 195.2 290.7C195.1 291.2 195 291.6 194.9 292.1C194.6 292.6 193.9 292.7 193.4 292.5C193.4 292 193.4 291.5 193.5 291C194.6 289.9 196.3 289.6 197.7 290.3C198.2 290.5 199.2 290.5 199 290C199.3 290.5 199.6 290.9 200 291.4Z" fill="#393939"/>
<path d="M142.8 68.8C142.3 71.1 141.2 73.2 139.5 74.7C140.4 71.9 141.2 69.2 142 66.4C142.9 66.7 143 67.9 142.8 68.8Z" fill="#393939"/>
<path d="M133.1 60.9C133.2 63.2 132.7 65.6 131.7 67.6C131.4 68.1 131 68.7 130.4 68.7C130.9 66 131.8 63.4 133.1 60.9Z" fill="#393939"/>
<path d="M179.7 75.7C178.7 76.2 177.5 75.4 176.7 74.6C175.5 73.6 174.3 72.5 173 71.5C173.2 71.2 173.6 71 173.9 71C175.9 72.6 177.8 74.1 179.7 75.7Z" fill="#393939"/>
<path d="M93.2001 170.8C96.2001 171 99.2001 171.1 102.2 171.3C102.3 171.6 102.4 172 102.4 172.3C99.6001 172.2 96.7001 172.1 93.9001 171.8C93.6001 171.5 93.4001 171.2 93.2001 170.8Z" fill="#393939"/>
<path d="M99.1001 260.9C98.7001 260.3 98.0001 261.2 98.1001 261.9C98.2001 262.6 98.5001 263.5 97.9001 263.8C97.9001 261.7 97.6001 259.7 97.1001 257.7C99.3001 258.2 100.6 260.7 99.9001 262.8C99.6001 262.2 99.2001 261.6 98.9001 261.1" fill="#393939"/>
<path d="M175.8 106.6C174.4 108 173 109.3 171.6 110.7C172.5 108.2 174.3 105.9 176.5 104.4C177.1 105.1 176.4 106 175.8 106.6Z" fill="#393939"/>
<path d="M61.8001 164.9C64.6001 165.4 67.6001 166 70.0001 167.6C66.9001 167.2 63.8001 166.5 61.0001 165.3C60.8001 165 61.4001 164.9 61.8001 164.9Z" fill="#393939"/>
<path d="M56.0001 255.5C56.6001 253.5 57.6001 251.7 58.7001 250C58.3001 249.7 57.9001 249.5 57.5001 249.2C58.3001 249 59.2001 248.9 60.0001 249C59.3001 251.5 57.9001 253.7 56.0001 255.5Z" fill="#393939"/>
<path d="M137 68.1C136.5 70.2 136 72.3 135.5 74.4C135.3 75.3 134.8 76.4 133.9 76.3C134.5 73.9 135.1 71.6 135.7 69.2C135.9 68.5 136.5 67.7 137 68.1Z" fill="#393939"/>
<path d="M85.8001 152.1C85.2001 151.8 85.3001 150.8 85.6001 150.2C86.6001 148 87.6001 145.7 88.6001 143.4C89.4001 143.4 89.3001 144.7 88.9001 145.5C88.0001 147.7 86.9001 149.9 85.8001 152.1Z" fill="#393939"/>
<path d="M38.2001 286.4C37.8001 286.1 37.4001 285.9 37.1001 285.5C36.6001 284.8 36.7001 283.9 36.8001 283.1C39.1001 284.8 41.4001 286.4 43.7001 288.1C41.7001 288.5 39.8001 287.4 38.2001 286.4Z" fill="#393939"/>
<path d="M128.3 164.2C128.8 162.3 129.5 160.4 130.4 158.7C131 157.5 131.7 156.3 132.8 155.7C132.3 158.9 130.7 161.9 128.3 164.2Z" fill="#393939"/>
<path d="M46.0001 174.1C47.2001 177.4 47.4001 181.1 46.6001 184.6C46.5001 185 46.3001 185.5 45.9001 185.7C45.7001 181.8 45.7001 177.9 46.0001 174.1Z" fill="#393939"/>
<path d="M246.5 285.6C248.8 286 251.1 286.4 253.4 286.9C254.7 287.2 255.9 287.4 257.1 287.8C253.5 288.8 249.4 287.9 246.5 285.6Z" fill="#393939"/>
<path d="M182.3 246.7C182.6 247 182.8 247.2 183.1 247.5C183.5 247 184.2 246.8 184.8 246.9C183.2 249.1 181.6 251.1 179.8 253C179.4 252.2 180.1 251.3 180.8 250.7C181.5 250.1 182.3 249.4 182.2 248.5C181.8 248.3 181.4 248.2 181 248.1C181.5 247.8 182 247.3 182.3 246.7Z" fill="#393939"/>
<path d="M66.5001 83.6C66.9001 83.6 66.9001 84.2 66.7001 84.6C65.4001 87 63.3001 88.9 60.8001 90C60.7001 89.7 60.6001 89.3 60.5001 89C62.5001 87.2 64.5001 85.4 66.5001 83.6Z" fill="#393939"/>
<path d="M195.3 159.5C193.1 157.9 190.8 156.2 188.6 154.5C191.9 155.4 194.8 157.3 197.1 159.9C196.5 160.3 195.8 159.9 195.3 159.5Z" fill="#393939"/>
<path d="M73.8001 168.5C77.3001 168.8 80.8001 169.3 84.2001 170.1C84.7001 170.2 85.1001 170.8 84.7001 170.9C80.9001 170.9 77.2001 170 73.8001 168.5Z" fill="#393939"/>
<path d="M94.3001 306.4C93.9001 306.6 93.5001 306.9 93.0001 306.8C92.6001 306.8 92.2001 306.5 92.1001 306.2C95.3001 304.4 99.1001 303.8 102.7 304.6C101 306.9 97.1001 305.2 94.3001 306.4Z" fill="#393939"/>
<path d="M140.3 106.9C140.2 108.8 139.6 110.7 138.3 112.1C137.1 113.5 135.4 114.4 133.6 114.7C135.6 111.9 137.9 109.3 140.3 106.9Z" fill="#393939"/>
<path d="M236 285.5C235.7 286.4 234.3 286 233.3 285.7C232 285.2 230.5 285.3 229.1 284.9C227.7 284.5 226.4 283.4 226.5 282C227.6 282.4 228.7 282.7 229.8 283.1C230.3 283.3 230.8 283.5 230.7 284C232.7 284 234.4 284.6 236 285.5Z" fill="#393939"/>
<path d="M192.8 264.9C192.3 266.3 191.2 267.4 189.8 267.9C189.8 266.5 190.7 265.1 191.9 264.3C192.2 264.1 192.6 263.9 193 263.8C194.1 263.3 195.3 262.8 196.4 262.2C195.9 263.9 194.9 265.4 193.6 266.5C193.3 266 193.1 265.5 192.8 264.9Z" fill="#393939"/>
<path d="M140 151.9C139.6 154.9 138.6 157.8 137.3 160.4C136.9 161.1 136.5 161.8 135.9 162.1C135.5 158.7 139 155.8 138.8 152.3C139.2 152.2 139.6 152 140 151.9Z" fill="#393939"/>
<path d="M52.4001 303.9C50.6001 303.2 48.2001 305.6 46.9001 304.2C48.6001 302.8 51.0001 302.3 53.0001 303C53.7001 303.2 54.4001 302.8 55.2001 302.5C55.9001 302.3 57.0001 302.4 57.1001 303.2C55.8001 304.2 54.0001 304.5 52.4001 303.9Z" fill="#393939"/>
<path d="M66.4001 159.7C65.9001 160.2 65.5001 160.8 64.7001 160.8C64.4001 160.8 64.0001 160.7 63.8001 160.5C65.9001 157.8 67.9001 155 70.0001 152.3C70.2001 155.1 68.3001 157.6 66.4001 159.7Z" fill="#393939"/>
<path d="M104.4 171.6C107.6 171.3 110.7 170.9 113.9 170.6C115 170.5 116.2 170.4 117.3 170.6C117.1 171.2 116.3 171.4 115.7 171.5C112 172.2 108 172.8 104.4 171.6Z" fill="#393939"/>
<path d="M19.6001 279.4C19.0001 279.7 18.5001 280 17.9001 280.1C17.4001 280.1 16.8001 279.8 16.5001 279.4C20.1001 277.8 24.0001 277 27.9001 277.2C27.1001 278.5 25.4001 278.8 23.9001 278.9C22.5001 279 20.9001 278.8 19.6001 279.4Z" fill="#393939"/>
<path d="M140.5 306.4C140.9 305.8 141.9 306 142.5 306.4C144.1 307.2 145.5 308.4 146.5 309.9C145.9 310.4 144.9 309.8 144.4 309.1C143.9 308.4 143.5 307.5 142.6 307.4C142.9 308.9 143.1 310.4 143.4 311.8C141.9 310.3 141 308.4 140.5 306.4Z" fill="#393939"/>
<path d="M90.5001 68.6C90.3001 72.5 88.4001 76.3 85.3001 78.6C86.7001 75.1 88.5001 71.8 90.5001 68.6Z" fill="#393939"/>
<path d="M88.2001 251.1C87.8001 251.6 87.0001 252 86.7001 251.5C88.7001 248.7 91.0001 246.1 93.5001 243.8C93.9001 244.6 93.2001 245.5 92.6001 246.2C91.2001 247.8 89.7001 249.4 88.2001 251.1Z" fill="#393939"/>
<path d="M159.1 110.8C159.6 111.1 159.3 111.9 158.8 112.2C156.6 114.5 154.1 116.6 151.5 118.5C151.2 117.9 151.7 117.3 152.2 116.9C154.5 114.9 156.8 112.8 159.1 110.8Z" fill="#393939"/>
<path d="M109.5 162.5C108.7 161.5 109.2 160 109.7 158.9C110.6 157 111.5 155 112.4 153.1C112.7 152.5 113.3 151.7 114 152C112.7 155.3 111.4 158.6 110.1 161.8C109.8 162 109.6 162.3 109.5 162.5Z" fill="#393939"/>
<path d="M112.4 61.8C112.7 60.8 113 59.8 113.3 58.8C113.6 57.6 114.1 56.3 115 55.4C114.9 59.6 113.6 63.7 111.2 67.2C111.3 65.3 111.9 63.6 112.4 61.8Z" fill="#393939"/>
<path d="M165.4 270.2C166.6 268.4 167.8 266.6 169 264.7C169.3 264.3 169.5 263.9 169.9 263.6C170.5 263.1 171.4 263 172.1 263.3C169.9 266.2 167.6 269.1 165.4 272.1C164.8 271.7 165.1 270.8 165.4 270.2Z" fill="#393939"/>
<path d="M159.9 103.7C158.2 106.4 156.1 108.8 153.7 110.9C153.1 111.4 152.4 111.9 151.6 111.9C153.7 108.6 156.6 105.7 159.9 103.7Z" fill="#393939"/>
<path d="M156.3 117.9C154.9 119.2 153.5 120.5 152.2 121.8C151.8 122.2 151.1 122.6 150.6 122.3C153.1 119.2 156 116.4 159.3 114C158.8 115.6 157.5 116.8 156.3 117.9Z" fill="#393939"/>
<path d="M98.2001 154.4C97.7001 158.3 96.3001 162 94.0001 165.1C93.7001 165.6 93.2001 166 92.6001 165.9C91.8001 164.3 93.7001 162.8 94.6001 161.4C96.2001 159.1 95.8001 155.5 98.2001 154.4Z" fill="#393939"/>
<path d="M93.1001 104.6C95.0001 101 97.9001 97.8 101.3 95.5C99.2001 99 96.4001 102.1 93.1001 104.6Z" fill="#393939"/>
<path d="M166.7 164.4C166.5 163.6 167.8 163.4 168.6 163.5C170.6 163.8 172.7 164.2 174.7 164.5C175.3 164.6 176 164.7 176.4 165.2C174.2 166.9 171.1 165 168.4 165C166.4 165.1 164.1 166.1 162.4 165C163.8 164.4 165.3 164.1 166.7 164.4Z" fill="#393939"/>
<path d="M184.9 261.4C185.4 260.9 186.5 260.6 186.6 261.3C184.1 264.3 181.4 267.2 178.7 270.1C178.1 269.6 178.5 268.7 179 268C180.8 265.7 182.8 263.5 184.9 261.4Z" fill="#393939"/>
<path d="M211.7 84.4C214.9 82.5 218.2 80.6 221.4 78.7C218.6 81.7 215 84.1 211.1 85.6C210.6 85.4 211.2 84.7 211.7 84.4Z" fill="#393939"/>
<path d="M170.8 270.3C170.2 271 169.4 271.7 168.6 271.3C170.7 267.6 173.6 264.4 176.9 261.7C177.4 262.1 177 262.9 176.6 263.4C174.6 265.7 172.7 268 170.8 270.3Z" fill="#393939"/>
<path d="M157.4 97.8C158 97.2 159 96.6 159.6 97.3C156.8 100.4 153.9 103.3 150.9 106.1C150.2 105.4 150.9 104.3 151.6 103.6C153.5 101.7 155.5 99.7 157.4 97.8Z" fill="#393939"/>
<path d="M160.1 99.8C158.4 102.4 156.3 104.8 154 106.8C153.1 107.6 152.2 108.2 151.3 108.8C153.6 105.4 156.7 102.3 160.1 99.8Z" fill="#393939"/>
<path d="M68.9001 86.8C67.5001 89 65.7001 91 63.5001 92.5C62.8001 93 61.6001 93.2 61.4001 92.4C64.6001 89.9 67.4001 86.8 69.4001 83.3C70.1001 84.4 69.5001 85.8 68.9001 86.8Z" fill="#393939"/>
<path d="M168.4 110.7C170.2 107.4 172.3 104.4 174.8 101.7C175.3 101.1 176.1 100.5 176.9 100.8C174.5 104.4 171.7 107.8 168.4 110.7Z" fill="#393939"/>
<path d="M137.2 264.9C140.6 264.9 144.1 264.9 147.5 264.9C148.3 264.9 149.3 265.3 149.1 266C143.4 266.7 137.5 266.6 131.8 265.8C133.4 264.9 135.4 264.9 137.2 264.9Z" fill="#393939"/>
<path d="M131 121.9C129.5 122.2 128.1 123.2 127.4 124.5C126.7 124.5 126.9 123.4 127.3 122.8C128.7 120.9 130.3 119.2 132.2 117.7C132.5 118.5 132.7 119.2 133 120C132.6 122.3 131.8 124.6 130.5 126.6C129.3 125.3 129.6 123.1 131 121.9Z" fill="#393939"/>
<path d="M86.8001 246.2C87.8001 247 88.7001 244.4 89.9001 244.7C87.4001 248 84.6001 251 81.5001 253.7C80.9001 253.4 81.2001 252.4 81.7001 251.8C82.9001 250.1 84.2001 248.5 85.4001 246.8C85.7001 246.4 86.3001 245.9 86.8001 246.2Z" fill="#393939"/>
<path d="M181.8 261.6C179.9 264.8 177.6 267.7 174.9 270.3C174.2 270.9 173.2 271.6 172.4 271.1C174.5 268.7 176.5 266.3 178.5 263.9C179.4 262.9 180.4 261.8 181.8 261.6Z" fill="#393939"/>
<path d="M85.5001 152.8C83.9001 156 82.2001 159.1 80.6001 162.2C80.0001 163.2 78.9001 164.5 77.9001 163.9C79.9001 160.6 81.8001 157.2 83.9001 153.9C84.2001 153.3 84.8001 152.6 85.5001 152.8Z" fill="#393939"/>
<path d="M133.7 168.2C131.6 169.6 129.2 170.6 126.8 171C125.7 171.2 124.5 171.3 123.4 171.3C121.9 171.4 120.4 171.5 118.9 171.6C118.4 171.3 119.2 170.5 119.8 170.4C124.4 169.6 129.1 168.9 133.7 168.2Z" fill="#393939"/>
<path d="M132 113.7C131.5 113.1 132 112.3 132.5 111.7C135 108.7 137.4 105.6 140 102.6C140.8 103.1 140.3 104.3 139.7 105C137.1 108 134.6 110.9 132 113.7Z" fill="#393939"/>
<path d="M118.5 65.7C117.8 70.3 116.6 74.8 114.9 79.1C114.8 79.4 114.7 79.7 114.4 79.9C114.2 80.1 113.9 80.2 113.6 80.2C113.1 79.1 113.7 77.8 114.2 76.8C115.5 74.1 116.3 71.3 116.7 68.3C116.9 67.1 117.3 65.7 118.5 65.7Z" fill="#393939"/>
<path d="M104.9 81.2C104.3 80.7 104.6 79.8 105 79.1C107 75.5 108.8 71.8 110.2 67.9C110.6 67.7 110.8 68.4 110.7 68.8C110.1 71.8 108.8 74.7 106.9 77.2C106.4 77.9 106.6 78.8 106.4 79.6C106.3 80.5 105.7 81.4 104.9 81.2Z" fill="#393939"/>
<path d="M79.1001 153.5C77.2001 156.5 75.1001 159.3 72.6001 161.8C72.0001 162.4 71.0001 162.9 70.6001 162.3C73.9001 158.8 76.8001 155 79.3001 151C80.0001 151.5 79.5001 152.7 79.1001 153.5Z" fill="#393939"/>
<path d="M91.6001 151C92.8001 151.6 92.4001 153.4 91.8001 154.6C90.0001 158.2 88.2001 161.7 86.5001 165.3C85.7001 164.9 86.0001 163.7 86.5001 162.9C88.5001 159.1 90.3001 155.1 91.6001 151Z" fill="#393939"/>
<path d="M113.4 270.9C119.2 270.6 125.1 270.6 130.9 270.7C131.6 270.7 132.5 271 132.4 271.7C126.3 271.7 120.2 271.7 114.1 271.6C113.6 271.6 113 271.1 113.4 270.9Z" fill="#393939"/>
<path d="M89.1001 298.7C87.2001 300 85.7001 301.9 84.8001 304C84.5001 303.6 84.4001 303 84.5001 302.5C83.5001 302.6 83.0001 303.7 82.5001 304.6C82.0001 305.5 80.8001 306.3 80.1001 305.5C82.1001 303.4 84.2001 301.2 86.2001 299.1C87.5001 297.7 89.0001 296.3 90.9001 296.3C91.0001 297.4 90.0001 298.1 89.1001 298.7Z" fill="#393939"/>
<path d="M121.3 146.8C121.6 146.6 121.9 146.4 122.3 146.2C121 151.7 119.1 156.9 116.6 162C116.4 162.1 116.1 162.2 115.9 162.2C115.2 160.7 116.5 159.1 117.4 157.7C118 156.6 118.5 155.3 118.9 154.1C119.7 151.6 120.5 149.2 121.3 146.8Z" fill="#393939"/>
<path d="M224.7 169.2C223.3 169.7 221.9 170.1 220.5 170.5C219.4 170.8 218.2 171.1 217.1 170.8C222.6 168.9 228.2 167 233.7 165.2C230.8 166.8 227.8 168.2 224.7 169.2Z" fill="#393939"/>
<path d="M134.6 103C131.8 106.2 129.1 109.3 126.3 112.4C126 112.8 125.4 113 124.9 112.8C128 108.4 131.6 104.4 135.6 100.8C135.7 101.6 135.1 102.4 134.6 103Z" fill="#393939"/>
<path d="M126.5 116.5C125.7 116.4 126 115.3 126.4 114.7C129.3 110.7 132.6 106.9 136.2 103.5C136.8 103.7 136.5 104.6 136.1 105C132.9 108.9 129.7 112.7 126.5 116.5Z" fill="#393939"/>
<path d="M94.9001 106C97.2001 103.4 99.6001 100.8 102 98.3C102.8 97.4 103.9 96.3 105.1 96.3C101.5 100.5 97.8001 104.5 93.9001 108.5C93.6001 107.5 94.3001 106.6 94.9001 106Z" fill="#393939"/>
<path d="M130.3 96.9C130.9 96 132.3 95.2 132.9 96.1C129.5 100.4 126.1 104.8 122.7 109C122 108.3 122.5 107.1 123.2 106.3C125.6 103.1 127.9 100 130.3 96.9Z" fill="#393939"/>
<path d="M91.7001 79.2C93.6001 74.5 95.7001 69.8 97.9001 65.1C98.3001 64.2 98.9001 63.2 99.9001 63.1C97.8001 68.2 95.6001 73.2 93.3001 78.2C93.0001 78.9 92.2001 79.7 91.7001 79.2Z" fill="#393939"/>
<path d="M124.9 110.1C124.7 109.7 124.9 109.2 125.2 108.8C128.2 104.2 131.8 100 135.9 96.3C136.4 96.8 135.9 97.7 135.4 98.3C131.9 102.2 128.4 106.1 124.9 110.1Z" fill="#393939"/>
<path d="M95.5001 121.9C95.8001 120.6 95.9001 119.2 95.7001 117.9C97.4001 115.8 99.1001 113.8 100.7 111.7C102.1 110 103.5 108.3 105.6 107.8C105.3 109.8 103.4 111.1 101.8 112.4C99.5001 114.4 97.7001 117.1 96.9001 120.1C96.8001 121 96.3001 122 95.5001 121.9Z" fill="#393939"/>
<path d="M120.1 58.7C119.6 56.9 120.4 55 121 53.2C122.7 48.3 123.7 43.1 124.7 38C125.3 37.9 125.5 38.8 125.5 39.3C124.9 46 123 52.6 120.1 58.7Z" fill="#393939"/>
<path d="M95.9001 114.6C98.6001 110 101.9 105.8 105.7 102.1C106.6 101.3 107.5 100.4 108.7 100.3C107 102.2 105.4 104 103.7 105.9C101.1 108.8 98.5001 111.8 95.9001 114.6Z" fill="#393939"/>
<path d="M101.1 199.6C101.1 205.1 101 210.5 100.9 216C100.9 216.6 100.9 217.3 100.8 217.9C100.7 218.6 100.4 219.3 100 219.9C99.9001 212.2 99.8001 204.6 99.7001 197C100.9 197.1 101.1 198.5 101.1 199.6Z" fill="#393939"/>
<path d="M121.1 75.7C121 73.6 121.8 71.5 123.2 69.9C123.6 66.7 124.6 63.5 126.1 60.7C126.5 61.3 126.3 62.1 126.1 62.7C124.3 68.8 122 74.9 119.5 80.7C118.5 78.9 119.3 76.5 121.1 75.7Z" fill="#393939"/>
<path d="M97.3001 301.5C97.5001 301.3 97.9001 301.3 98.2001 301.3C104.7 301.8 111.2 301.7 117.7 301.2C118 301.2 118.3 301.2 118.6 301.4C119.1 301.8 118.8 302.6 118.3 303C117.3 303.9 115.8 303.9 114.5 303.8C109.2 303.6 103.9 303.3 98.6001 302.9C97.9001 302.9 96.7001 302.1 97.3001 301.5Z" fill="#393939"/>
<path d="M18.2001 285.8C16.1001 286.1 13.8001 286.5 12.0001 285.3C14.9001 284.6 17.8001 284.2 20.7001 283.7C24.2001 283.2 27.7001 282.6 31.2001 282.1C32.1001 282 33.1001 281.9 33.7001 282.4C34.4001 282.9 34.2001 284.4 33.3001 284.4C33.0001 284 32.5001 283.6 32.0001 283.6C31.5001 283.5 31.0001 283.6 30.6001 283.6C26.4001 284.3 22.3001 285.1 18.2001 285.8Z" fill="#393939"/>
<path d="M100.1 166.2C99.4001 165 100.1 163.5 100.7 162.3C103.7 156.8 106 150.9 107.8 144.9C108.2 144.6 108.9 145.1 108.9 145.7C109 146.2 108.7 146.7 108.4 147.2C107.5 148.9 107 150.8 106.3 152.7C104.8 157.3 102.7 161.9 100.1 166.2Z" fill="#393939"/>
<path d="M38.5001 153.7C42.6001 156.6 47.2001 158.9 51.9001 160.6C54.5001 161.5 57.0001 162.9 59.2001 164.6C58.6001 164.8 57.9001 164.5 57.4001 164.3C51.7001 161.6 45.9001 158.9 40.2001 156.3C39.2001 155.7 38.0001 154.7 38.5001 153.7Z" fill="#393939"/>
<path d="M94.3001 113.2C94.0001 113 93.7001 112.6 93.7001 112.2C97.4001 107.1 101.6 102.3 106.1 97.9C107 97.1 107.9 96.2 109.1 96C109.3 96.8 108.6 97.5 108 98C102.8 102.5 98.3001 107.6 94.3001 113.2Z" fill="#393939"/>
<path d="M45.5001 290.3C44.7001 289.7 43.8001 289 43.5001 288C50.4001 291.7 56.9001 296 63.0001 300.9C62.8001 301.7 61.7001 301.4 61.0001 300.9C55.9001 297.4 50.7001 293.8 45.5001 290.3Z" fill="#393939"/>
<path d="M69.6001 195C70.3001 197.2 69.7001 199.7 68.1001 201.5C67.8001 197.4 67.7001 193.4 67.7001 189.3C67.7001 188 67.7001 186.6 67.6001 185.3C67.4001 180.6 67.3001 176 67.1001 171.3C68.8001 172.8 69.0001 175.4 69.1001 177.7C69.1001 179.3 69.2001 181 69.3001 182.6C69.4001 185.2 69.5001 187.8 69.3001 190.3C69.3001 191.9 69.1001 193.5 69.6001 195Z" fill="#393939"/>
<path d="M95.1001 85.9C101.5 87.3 108.2 87.2 114.7 86.4C116.4 86.2 118.2 85.9 119.9 85.4C120 86.7 118.3 87.3 117.1 87.5C107.8 88.6 98.2001 87.8 89.1001 85.3C91.0001 84.9 93.1001 85.5 95.1001 85.9Z" fill="#393939"/>
<path d="M154 198.9C153.8 201.2 154.9 203.9 153.5 205.8C152.7 194.9 153 184 154.1 173.3C155.4 175.9 155.2 179 155 182C154.7 187.6 154.4 193.3 154 198.9Z" fill="#393939"/>
<path d="M47.0001 221.2C47.2001 223.7 47.3001 226.3 46.9001 228.8C46.5001 231.2 46.5001 233.7 46.5001 236.2C46.5001 238.7 46.5001 241.2 46.5001 243.7C46.2001 244.1 45.7001 243.4 45.7001 242.9C45.7001 231.7 45.7001 220.6 45.7001 209.4C46.2001 209.8 46.2001 210.4 46.2001 210.9C46.6001 214.3 46.8001 217.7 47.0001 221.2Z" fill="#393939"/>
<path d="M56.8001 269.8C56.2001 269 56.8001 267.7 57.7001 267.6C57.0001 268.5 57.3001 270.1 58.3001 270.7C60.4001 271.9 60.3001 275 59.9001 277.3C59.8001 277.8 59.7001 278.4 59.2001 278.5C58.4001 278.7 58.1001 277.5 58.4001 276.8C58.7001 276.1 59.3001 275.4 59.0001 274.6C53.6001 271.8 48.2001 268.8 42.9001 265.6C42.4001 265.3 42.0001 265 41.7001 264.6C41.4001 264.1 41.4001 263.5 41.9001 263.2C41.1001 262.9 40.6001 262 40.8001 261.2C46.3001 263.8 51.6001 266.7 56.8001 269.8Z" fill="#393939"/>
<path d="M154 277.4C153.4 277.8 152.9 276.8 152.9 276C152.9 271.9 152.9 267.7 152.9 263.6C152.9 257.1 152.8 250.7 153.3 244.3C153.4 243.3 153.6 242.1 154.5 241.6C154.5 244 154.4 246.4 154.4 248.9C154.3 252.5 154.3 256.2 154.2 259.9C154.1 263.6 154.1 267.4 154 271.1C153.9 273.2 154 275.3 154 277.4Z" fill="#393939"/>
<path d="M68.7001 215.5C68.7001 216 68.7001 216.4 68.7001 216.9C68.7001 218.5 68.7001 220.1 68.7001 221.8C68.7001 223 68.7001 224.2 68.6001 225.3C68.4001 232.7 68.2001 240.1 68.0001 247.6C67.2001 246.7 67.2001 245.4 67.2001 244.2C67.3001 234.2 67.4001 224.1 67.5001 214.1C67.5001 213.3 67.6001 212.4 68.2001 212C68.6001 213.1 68.7001 214.4 68.7001 215.5Z" fill="#393939"/>
<path d="M183.2 136.2C182.7 136.2 182.3 136.2 181.8 136.2C181.5 121.7 181.5 107.2 182 92.7C182.5 92.2 183.1 93.3 183.1 94C183.2 108.1 183.2 122.2 183.2 136.2Z" fill="#393939"/>
<path d="M93.9001 302C91.5001 302.5 89.2001 303.4 87.0001 304.5C86.8001 303.5 87.7001 302.7 88.6001 302.3C89.5001 302 90.6001 301.8 91.4001 301.3C92.0001 300.9 92.5001 300.3 93.1001 299.9C93.7001 299.4 94.7001 299.3 95.3001 299.8C98.1001 298 101.6 298 104.9 298C111.2 298 117.5 298 123.8 298C123.6 297.4 124 296.7 124.6 296.7C125.2 296.6 125.8 297.2 125.7 297.8C125.8 298.6 125.2 299.3 124.4 299.6C123.7 299.9 122.8 299.9 122 299.9C118.4 299.8 114.8 299.7 111.2 299.6C106.6 299.5 101.8 299.3 97.4001 300.9C96.5001 301.2 95.5001 301.8 95.7001 302.7C95.2001 302.6 94.7001 302.5 94.3001 302.5C94.9001 301.9 95.4001 301.2 95.6001 300.4C94.8001 300.4 94.0001 301.1 93.9001 302Z" fill="#393939"/>
<path d="M96.8001 264.9C96.5001 265.1 96.2001 265.4 95.9001 265.6C98.7001 266.9 102 266.8 104.7 265.5C105.7 265 106.9 265 108 265C112.9 264.9 117.9 265 122.8 265.3C123.3 266 122.1 266.6 121.2 266.6C116.8 266.6 112.4 266.6 108.1 266.5C105.2 266.5 102.5 269.5 99.8001 268.4C98.1001 267.7 96.2001 267.9 94.4001 268.1C91.1001 268.5 87.8001 268.9 84.5001 269.3C84.2001 268.5 85.6001 268.1 86.5001 268.1C88.4001 268.1 90.3001 267.7 92.2001 267.3C92.8001 267.1 93.5001 267 94.0001 266.6C96.0001 264.9 93.5001 260.7 95.7001 259.3C96.1001 261.1 96.5001 263 96.8001 264.9Z" fill="#393939"/>
<path d="M205.6 245.4C204.5 239.9 204.5 234.3 204.6 228.7C204.7 224.5 204.8 220.3 205 216.1C205.2 209 205.5 201.9 205.7 194.8C207 195.1 207.1 196.8 207.1 198.1C206.2 212.5 205.9 227 206 241.5C206 242.7 206 244.1 205.6 245.4Z" fill="#393939"/>
<path d="M103.8 254.4C103.8 236.1 103.8 217.7 103.8 199.4C103.8 198.6 104.2 197.6 104.9 197.8C105.7 219.8 105.6 241.8 104.7 263.8C103.8 260.8 103.8 257.6 103.8 254.4Z" fill="#393939"/>
<path d="M165.8 60.5C174 64.8 182.4 69.1 191.3 71.6C200.3 74.1 210.1 74.5 218.7 71C220.3 70.4 222 69.5 223.8 69.4C215.9 74.8 205.6 75.7 196.2 74C186.8 72.3 178 68.2 169.4 64.1C167.7 63.4 165.9 62.3 165.8 60.5Z" fill="#393939"/>
<path d="M181.2 140.4C199.1 146.6 218.1 152.8 236.7 148.8C241.4 147.7 246.1 146 250.4 143.9C242.3 151.4 230 152.1 219 151.2C205.8 150.2 192.4 147.4 181.2 140.4Z" fill="#393939"/>
<path d="M172.6 210.7C172.9 209.6 172.2 208.4 171.2 207.9C171 209 171.1 210.1 171.6 211.1C174.1 216.3 174.5 222.4 172.6 227.8C173 222.7 173.3 217.3 171.2 212.7C171.3 224.9 171.4 237.1 171.5 249.2C171.5 252.8 171.5 256.5 170.4 259.9C169.1 241.9 169.6 223.8 170.1 205.8C170.2 202.3 170.7 198.3 173.7 196.6C173.2 199.4 172.7 202.2 172.2 205.1C172.1 205.8 172 206.5 172.2 207.2C172.5 207.8 173 208.3 173.3 209C173.4 209.5 173.3 210.5 172.6 210.7Z" fill="#393939"/>
<path d="M85.5001 143.3C74.2001 150.7 60.4001 154.1 47.1001 152.9C43.3001 151.7 39.9001 149.4 37.4001 146.3C44.2001 151.4 53.5001 152.4 61.9001 150.9C70.3001 149.3 78.1001 145.5 85.7001 141.7C87.6001 140.8 89.6001 139.6 90.1001 137.6C92.4001 139.1 95.3001 139.2 98.0001 139.2C111.6 139.1 125.3 139 138.9 138.9C140.7 138.9 142.9 139.3 143.3 141C128.8 140.8 114.4 140.7 99.9001 140.6C95.0001 140.5 89.7001 140.6 85.5001 143.3Z" fill="#393939"/>
<path d="M121.6 23C121.2 20.6 120.8 18.2 120.4 15.7C120.3 15.2 120.2 14.6 119.8 14.2C117.9 12.6 117.6 9.7 117.6 7.2C117.6 6.3 117.6 5.3 117.9 4.4C118.3 3.5 119.1 2.8 119.9 2.3C121.9 0.9 124.3 0 126.7 0C129.1 0 131.6 1 133.2 2.9C135.1 5.1 135.6 8.5 134.2 11.1C133.4 12.6 132.2 13.8 131.5 15.4C130.9 17 131.1 19.2 132.6 19.8C133.8 20.3 133.8 22.2 132.9 23.2C132 24.2 130.6 24.5 129.3 24.8C129.3 24.3 129.2 23.9 129.2 23.4C127.2 23.6 125.3 23.7 123.3 23.9C123.4 24.8 122 24.9 121.1 24.5C120 24 119 23.2 118.6 22.1C118.2 21 118.9 19.5 120 19.3C120.3 19.9 120.1 20.7 120.2 21.4C120.3 22.4 120.9 23.3 121.6 23ZM127.7 9.4C127.8 7.7 127.8 6 127.9 4.3C126.3 3.9 124.7 3.7 123.1 3.5C124.6 3.1 126.1 2.7 127.6 2.4C126.3 1.7 124.6 1.8 123.3 2.6C122.1 3.4 121.4 5 121.5 6.5C121.7 7.7 122.2 9.1 121.3 9.9C123.5 10 125.6 9.9 127.7 9.4ZM132.8 7.3C132.8 6.2 132.5 4.8 131.4 4.6C130.7 4.4 129.8 4.8 129.4 4.2C129.5 6.1 129.7 7.9 129.8 9.8C130.7 9.7 131.8 10.4 132 11.3C128.7 11 125.4 11.1 122.1 11.5C120.8 11.7 120.1 9.9 120.2 8.6C120.3 7.3 120.6 5.8 119.6 4.8C118.7 7 118.9 9.5 120.1 11.6C121.2 13.4 123.1 15.2 122.5 17.2C122.2 18.1 123.5 18.6 124.4 18.6C126 18.7 127.6 18.8 129.1 18.9C129.4 17.9 129.7 16.8 129.6 15.8C129.4 14.8 128.6 13.7 127.6 13.7C125.6 13.6 123.7 13.5 121.7 13.4C123.9 12.1 126.8 11.9 129.3 12.8C130.6 13.3 132 12.4 132.6 11.2C132.9 10.1 132.9 8.7 132.8 7.3ZM123.5 21.9C125.2 22.5 127.1 22.1 128.4 20.9C126.9 20.1 125.1 19.9 123.4 20.1C123.1 20.7 123.1 21.4 123.5 21.9ZM129.6 21.5C129.9 22.3 130.8 22.7 131.5 22.4C131.6 21.4 130.9 20.3 129.8 20.2C129.6 20.6 129.5 21.1 129.6 21.5Z" fill="#393939"/>
<path d="M76.8001 304.8C77.6001 304.1 76.0001 303.3 75.0001 303.6C69.7001 305 64.6001 307.1 59.8001 309.7C62.3001 305.9 67.0001 303.6 71.6001 304.1C71.2001 303 69.8001 302.5 68.6001 302.7C67.4001 302.8 66.2001 303.3 65.0001 303C63.8001 302.8 62.8001 301.4 63.4001 300.4C64.0001 299.6 63.0001 298.6 62.2001 298C51.8001 291.2 41.5001 284.4 31.2001 277.6C30.9001 278.7 31.5001 280.1 32.7001 280.4C31.1001 280.9 29.2001 279.3 29.4001 277.6C29.6001 275.9 31.7001 274.8 33.3001 275.6C32.6001 275.8 33.1001 276.9 33.7001 277.2C43.5001 283.7 53.4001 290.1 63.2001 296.6C68.2001 299.9 75.7001 295.9 80.9001 299.1C75.8001 299.6 70.6001 299.6 65.4001 299.2C65.4001 299.9 65.4001 300.6 65.4001 301.2C70.6001 301.9 76.0001 301.7 81.2001 300.7C82.2001 298.4 83.0001 296.1 83.7001 293.7C85.6001 294.9 84.8001 297.9 83.3001 299.5C81.8001 301.2 79.7001 302.5 79.2001 304.7C78.3001 304.8 77.5001 304.8 76.8001 304.8Z" fill="#393939"/>
<path d="M165.2 273.6C170.7 272.5 176.2 271.4 181.7 270.3C183 267 185.6 264.2 188.8 262.7C186.8 265.3 184.7 267.8 182.5 270.2C190.6 268.6 198.7 267.1 206.9 265.6C207.5 265.5 208.5 265.9 208.1 266.4C205.8 266.9 203.6 267.5 201.3 268.1C202.1 268.4 203 268.7 203.9 269C204.2 268.6 204.6 268.2 205 267.7C205.7 268.6 207.1 267.9 208.2 267.4C209.2 266.9 211 267.3 210.6 268.4C199.1 270.7 187.5 273.1 175.9 275.4C173.6 275.9 171.2 276.4 169.7 278.2C168.9 279.1 168.5 280.3 167.8 281.3C167.1 282.3 166 283.1 164.8 282.9C165.9 280.6 167.7 278.5 169.9 277C167.3 277.3 164.7 277.5 162.2 277.8C162.5 276.8 163.7 276.4 164.7 276.2C168.6 275.5 172.6 274.8 176.6 274C177.3 273.8 178.2 273 177.5 272.7C172.4 273.6 167.3 274.6 162.1 275.5C162.8 274.2 164.1 273.8 165.2 273.6ZM180.2 271.8C179.4 272 178.5 272.3 178.3 273.1C181.9 272.6 185.5 271.9 189 271.1C188.3 270.3 186.9 270.4 185.8 270.6C184 271 182.1 271.4 180.2 271.8ZM192.8 270.3C192.2 269.4 190.7 269.3 190 270.1C190.8 270.8 192 270.9 192.8 270.3ZM199.9 268.6C199.4 267.8 197.9 268 197.6 268.9C198.5 269.5 199.8 269.3 200.5 268.6M194.5 269.8C195.2 270.1 196 270 196.6 269.4C195.8 268.8 194.7 268.7 193.9 269.2C193.8 269.6 194.1 269.9 194.5 269.8Z" fill="#393939"/>
<path d="M74.3001 71.8C72.1001 70.5 69.2001 70.9 67.4001 72.6C67.4001 71.8 67.8001 71 68.3001 70.4C64.7001 69.8 61.4001 67.9 59.0001 65.2C65.8001 70.3 75.2001 70.9 83.3001 68.4C91.4001 65.9 98.4001 60.7 104.7 55.1C111.8 48.8 118.2 41.8 124 34.3C122.4 38.4 119.9 42.2 116.7 45.2C106.6 54.7 106.7 71.4 97.4001 81.7C101.5 72.2 105.7 62.6 109.8 53.1C103.2 58.9 96.5001 64.7 88.4001 67.9C82.9001 70 76.7001 71 72.3001 75C72.6001 73.7 73.3001 72.6 74.3001 71.8Z" fill="#393939"/>
<path d="M91.7001 128.2C99.3001 127.9 107 127.7 114.6 127.9C114.6 116.8 114.6 105.7 114.6 94.6C107.3 94.4 100 94.1 92.7001 93.9C92.0001 93.3 93.4001 92.4 94.3001 92.5C105.8 92.6 117.3 92.7 128.8 92.8C132.9 92.8 137.3 92.8 140.9 90.8C139.7 91.3 140.2 93.2 141.2 93.9C133.7 94.2 126.2 94.5 118.8 94.7C118.8 105.7 118.8 116.8 118.8 127.8C126.4 127.8 134.1 128 141.7 128.2C141.4 129.5 139.6 129.9 138.2 129.9C123.4 129.9 108.7 129.9 93.9001 129.9C92.8001 129.8 91.3001 129.2 91.7001 128.2ZM116.1 96.1C116.1 106.2 116.1 116.2 116.1 126.3C116.1 127.1 116.5 128.2 117.2 128C117.2 116.9 117.2 105.8 117.2 94.6C116.5 94.3 116.1 95.3 116.1 96.1Z" fill="#393939"/>
<path d="M127.3 297.5C138.2 300.1 149.5 297.6 160.4 295.1C181.6 290.2 202.8 285.3 224 280.4C225.3 281.5 224.7 283.9 223.2 284.9C221.8 285.9 219.9 286 218.2 286.1C214.1 286.4 210 287.5 206.3 289.3C207.2 289.5 208.2 289.7 209.2 289.8C209.8 290.3 209 291.3 208.3 291.2C207.6 291.2 207 290.6 206.3 290.3C204.8 289.5 202.7 290.1 201.8 291.5C201.2 290.6 201.7 289.3 202.6 288.7C203.5 288.1 204.7 287.9 205.8 287.8C212.1 287 218.2 285.1 224 282.4C200 287.5 176.3 293.3 152.5 299.2C151.6 299.4 150.6 300.6 151.4 301C163.3 298.2 175.1 295.3 187 292.5C185.8 294.4 183.4 295.1 181.2 295.6C175.5 297 169.7 298.4 164 299.9C156.3 301.8 148.5 303.7 140.6 303.4C137.6 303.3 134.1 303 132.2 305.3C131.7 304 131 302.9 130 302C129.4 302.9 129.2 303.9 129.4 305C127.3 303 126.5 300 127.3 297.5ZM148.9 301.3C149.1 300.8 149.2 300.2 149.1 299.7C141.9 299.3 134.8 299.3 127.6 299.7C129.9 301.5 133.1 301.5 136 301.5C140.3 301.5 144.6 301.4 148.9 301.3Z" fill="#393939"/>
</svg>
