<svg width="296" height="300" viewBox="0 0 296 300" fill="none" xmlns="http://www.w3.org/2000/svg">
<path d="M88.5829 42.9639L247.785 22.1359C250.179 57.8068 254.249 93.358 259.755 129.029C265.381 164.939 272.683 201.089 281.661 237.478L55.0666 287.513C43.695 250.645 33.1613 208.271 25.5004 165.538C18.5578 126.994 13.7697 88.2109 12.6924 52.899L17.0017 52.3005C13.1712 51.4626 9.93929 49.0686 8.14378 45.5973L6.34826 42.1259L5.74976 42.2457C2.39812 42.6048 -0.115599 45.1185 0.00410205 48.111C0.84201 85.3381 5.74975 126.515 13.1712 167.333C21.3109 212.461 32.4431 257.109 44.6526 295.533V295.653C45.4905 298.765 48.8421 300.561 52.1938 299.842L290.399 247.294C290.519 247.294 290.519 247.294 290.638 247.294C293.99 246.575 296.145 243.463 295.307 240.471C285.85 202.765 278.189 165.059 272.324 127.473C266.459 90.0064 262.389 52.7794 259.995 15.7917C259.995 15.4326 259.995 15.1932 259.995 14.8341C259.516 11.7219 256.284 9.56725 252.933 10.0461L82.7176 32.1908L85.2313 34.5848C87.6253 36.8591 88.8223 39.9713 88.5829 42.9639Z" fill="#393939"/>
<path d="M205.411 180.5V169.488L214.03 167.692C218.937 166.735 222.05 165.897 223.366 165.418C225.282 164.7 226.718 163.503 227.676 161.947C228.633 160.391 228.873 158.475 228.274 156.321C227.795 154.406 226.957 152.969 225.641 151.892C224.324 150.815 222.648 150.096 220.613 149.977C218.578 149.737 214.508 150.336 208.284 151.652L205.411 152.251V141.358C209.72 140.401 212.474 139.802 213.551 139.443C215.825 138.725 217.501 137.647 218.578 136.091C219.656 134.535 219.895 132.859 219.416 130.824C218.937 128.909 217.98 127.473 216.543 126.515C215.107 125.558 213.192 125.199 210.798 125.438C209.96 125.558 208.164 125.797 205.411 126.396V115.503C209.122 114.785 212.114 114.425 214.269 114.306C217.022 114.186 219.536 114.545 221.93 115.383C224.324 116.221 226.479 117.657 228.394 119.453C230.309 121.368 231.626 123.642 232.224 126.276C232.942 129.149 232.703 132.021 231.626 134.775C230.548 137.528 228.633 139.802 226 141.717C230.429 141.957 234.02 143.154 236.893 145.428C239.765 147.583 241.681 150.575 242.519 154.046C243.237 156.8 243.237 159.792 242.399 162.665C241.561 165.658 240.244 168.171 238.09 170.206C236.055 172.361 233.182 173.917 229.591 174.994C227.316 175.712 221.93 176.909 213.192 178.825L205.411 180.5ZM205.411 115.263V126.156C203.616 126.515 201.581 126.874 199.067 127.473L191.167 129.149L194.758 143.513L203.735 141.717C204.334 141.598 204.932 141.478 205.411 141.358V152.251L197.272 153.927L201.341 170.565L205.411 169.727V180.74L190.209 183.852L174.887 121.607L202.06 115.982C203.257 115.742 204.334 115.503 205.411 115.263ZM138.857 194.625V183.373C140.533 183.493 142.329 183.254 144.244 182.894C149.75 181.817 153.7 179.064 156.334 174.755C158.967 170.446 159.326 164.7 157.65 157.518C155.855 150.455 152.862 145.428 148.673 142.675C145.8 140.76 142.329 139.802 138.857 139.682V128.55C145.561 128.311 151.785 129.867 157.172 133.099C164.593 137.528 169.501 144.829 172.015 154.884C174.528 164.939 173.451 173.318 168.902 180.261C164.354 187.084 157.052 191.633 147.117 193.668C144.124 194.146 141.371 194.505 138.857 194.625ZM72.9021 142.555L86.548 139.682L96.2438 178.944C97.5605 184.091 97.9196 188.161 97.6802 191.034C97.2014 194.984 95.5256 198.336 92.6528 201.209C89.6602 204.082 85.351 206.116 79.725 207.313C73.0218 208.75 67.3958 208.032 62.9669 205.398C58.5379 202.765 55.4257 198.096 53.7499 191.393L66.3185 187.323C67.3958 190.795 68.5928 193.189 69.9095 194.505C71.9445 196.421 74.4582 197.019 77.4507 196.421C80.5629 195.822 82.4782 194.505 83.3161 192.71C84.154 190.914 84.0343 187.443 82.7176 182.416L72.9021 142.555ZM138.857 128.55V139.682C137.182 139.682 135.506 139.802 133.71 140.161C128.084 141.358 123.895 143.992 121.381 148.301C118.748 152.49 118.388 158.236 120.184 165.418C121.86 172.48 124.972 177.388 129.401 180.261C132.394 182.176 135.506 183.254 138.857 183.373V194.625C132.154 194.865 126.049 193.308 120.783 190.196C113.481 185.767 108.573 178.705 106.179 168.77C104.623 162.426 104.383 156.919 105.341 152.251C106.059 148.78 107.496 145.548 109.531 142.435C111.566 139.443 114.079 136.929 116.952 135.014C120.783 132.5 125.451 130.705 130.957 129.508C133.591 128.909 136.344 128.67 138.857 128.55Z" fill="#393939"/>
<path d="M62.8472 227.902C59.4956 228.62 57.3409 231.972 58.0591 235.324C58.7773 238.675 62.129 240.83 65.4806 240.112L249.701 199.413C253.052 198.695 255.207 195.343 254.489 191.992C253.77 188.64 250.419 186.485 247.067 187.204L62.8472 227.902Z" fill="#393939"/>
<path d="M41.6601 111.313C38.3085 111.912 36.0341 115.144 36.6326 118.495C37.2311 121.847 40.4631 124.121 43.8147 123.523L228.274 91.3231C231.626 90.7246 233.9 87.4927 233.302 84.141C232.703 80.7894 229.471 78.5151 226.119 79.1136L41.6601 111.313Z" fill="#393939"/>
<path d="M42.3783 3.70189C44.892 5.0186 47.1663 6.81412 49.321 8.72934L57.1015 16.1508C58.897 17.9463 59.3759 20.46 58.2985 22.495C57.9394 23.5723 57.7 24.5299 57.8197 25.4875C57.9394 26.3254 58.1788 27.0436 58.6576 27.7618C59.2561 28.5997 60.3335 29.1982 61.5305 29.4376C63.0866 29.9164 65.0018 29.7967 66.917 29.4376C69.311 28.8391 71.7051 29.677 73.2612 31.2331L80.8023 38.4152C83.1964 40.6895 83.0767 44.2806 80.6826 46.4352C80.3235 46.7943 79.9644 47.0337 79.6053 47.2731L42.3783 70.8542V56.9689L66.5579 41.5274L66.0791 41.0486C63.2063 41.288 60.4532 41.0486 57.8197 40.4501C53.9893 39.3728 50.6377 37.3379 48.2436 34.2257C46.4481 31.8317 45.4905 29.0785 45.2511 26.3254C45.1314 24.7693 45.2511 23.2132 45.6102 21.6571L42.3783 18.6645V3.70189ZM15.6849 3.82159C21.0715 0.35026 27.1762 -0.607349 32.9219 0.35026C36.1538 0.829065 39.3858 2.02608 42.3783 3.70189V18.6645L40.3434 16.6296C37.5902 13.9962 34.2386 12.2007 30.7673 11.6022C28.0142 11.1234 25.261 11.6022 22.7473 13.1583C20.2336 14.7144 18.9169 16.9887 18.4381 19.5024C17.8396 22.6147 18.5578 26.086 20.2336 29.4376L23.5852 35.6621C25.261 35.9015 26.9368 36.3803 28.493 36.9788C31.3658 38.1758 33.7598 39.9713 35.675 42.3653C37.9493 45.4776 38.907 49.0686 38.6676 52.6597C38.4282 55.1734 37.7099 57.5674 36.5129 59.9614L36.7523 60.5599L42.3783 56.9689V70.8542L37.9493 73.727C35.0765 75.5226 31.2461 74.924 29.2112 72.2906C28.9718 71.9315 28.7324 71.4527 28.493 71.0936L23.8246 62.2357C22.7473 60.3205 23.1064 58.0462 24.4231 56.3704C25.5004 54.934 26.0989 53.3779 26.2186 51.9414C26.3383 50.7444 25.9792 49.6671 25.3807 48.8292C24.9019 48.2307 24.1837 47.7519 23.3458 47.3928C22.2685 46.914 21.0715 46.7943 19.7548 46.7943C17.0017 46.914 14.6076 45.3579 13.7697 43.0836L9.10139 34.3454C6.22856 28.9588 5.15125 22.9738 6.22856 17.4675C7.18617 12.2007 10.2984 7.29292 15.6849 3.82159Z" fill="#393939"/>
<path d="M69.0716 84.141C71.1066 86.8942 75.0567 87.373 77.8098 85.338C80.5629 83.3031 81.0417 79.353 79.0068 76.5999L60.8123 52.7794C58.7773 50.0262 54.8272 49.5474 52.0741 51.5823C49.321 53.6173 48.8422 57.5674 50.8771 60.3205L69.0716 84.141Z" fill="#393939"/>
</svg>
