<svg width="66" height="66" viewBox="0 0 66 66" fill="none" xmlns="http://www.w3.org/2000/svg">
<path d="M9.29953e-05 32.9367C9.29953e-05 31.0513 0.161551 29.1815 0.484468 27.3221C0.807384 25.4627 1.28655 23.645 1.92197 21.869C2.55738 20.0929 3.33864 18.3846 4.26572 16.7388C5.1928 15.0982 6.2553 13.5461 7.44801 12.0877C8.64593 10.6242 9.95322 9.28045 11.3803 8.04607C12.8074 6.8117 14.3282 5.70232 15.9428 4.72837C17.5574 3.75441 19.2449 2.92628 21.0053 2.24399C22.7605 1.5617 24.5678 1.03045 26.4168 0.655449C28.2657 0.280449 30.1303 0.0669075 32.0157 0.0148235C33.9011 -0.0424672 35.7761 0.0669065 37.6459 0.332532C39.5157 0.603364 41.3438 1.02524 43.1407 1.60857C44.9324 2.19191 46.6616 2.92628 48.3334 3.80128C50.0001 4.68149 51.5834 5.69712 53.0782 6.84816C54.573 8.00441 55.9584 9.27003 57.2345 10.6607C58.5105 12.0513 59.6563 13.5409 60.6772 15.1242C61.698 16.7127 62.5782 18.3742 63.3126 20.1086C63.7293 21.1034 64.0991 22.1138 64.4168 23.145C64.7345 24.1763 65.0001 25.2179 65.2188 26.2752C65.4324 27.3325 65.5991 28.395 65.7084 29.4679C65.8178 30.5409 65.8803 31.6138 65.8855 32.6919C65.8907 33.77 65.8438 34.8482 65.7449 35.9211C65.6407 36.994 65.4897 38.0617 65.2866 39.119C65.0834 40.1763 64.8282 41.2232 64.5209 42.2544C64.2136 43.2909 63.8543 44.3065 63.448 45.3065C63.0418 46.3013 62.5886 47.2804 62.0886 48.2336C61.5834 49.1867 61.0366 50.1138 60.4428 51.0148C59.8491 51.9159 59.2136 52.7804 58.5366 53.619C57.8543 54.4575 57.1407 55.2596 56.3803 56.0304C55.6251 56.7961 54.8282 57.5252 54.0001 58.2127C53.172 58.9002 52.3126 59.5513 51.422 60.1554C50.5261 60.7596 49.6095 61.3221 48.6616 61.8325C47.7136 62.3482 46.7449 62.8169 45.7501 63.2336C44.7553 63.6554 43.7449 64.0252 42.7188 64.3429C41.6876 64.6659 40.6459 64.9367 39.5886 65.1554C38.5313 65.369 37.4688 65.5357 36.3959 65.6502C35.3282 65.7648 34.2501 65.8273 33.172 65.8325C32.0938 65.8429 31.0209 65.7961 29.9428 65.6971C28.8699 65.6034 27.8074 65.4523 26.7449 65.2492C25.6876 65.0461 24.6407 64.7961 23.6043 64.4888C22.573 64.1867 21.5574 63.8325 20.5574 63.4263C19.5574 63.02 18.5782 62.5721 17.6251 62.0721C16.672 61.5669 15.7397 61.0252 14.8386 60.4315C13.9376 59.8429 13.0678 59.2075 12.2293 58.5304C11.3907 57.8534 10.5886 57.1346 9.8178 56.3794C9.04697 55.6242 8.3178 54.8325 7.6303 54.0044C6.93759 53.1815 6.28655 52.3221 5.68238 51.4315C5.07301 50.5357 4.51051 49.619 3.99488 48.6711C3.47926 47.7284 3.01051 46.7596 2.58863 45.7648C0.85426 41.6659 -0.010323 37.3898 9.29953e-05 32.9367ZM61.2188 32.9367C61.2188 32.0148 61.172 31.0877 61.0782 30.1711C60.9897 29.2492 60.8543 28.3325 60.672 27.4263C60.4897 26.52 60.2657 25.6242 60.0001 24.7388C59.7293 23.8534 59.4168 22.9836 59.0626 22.1242C58.7084 21.27 58.3126 20.4367 57.8751 19.619C57.4428 18.8065 56.9636 18.0096 56.4532 17.244C55.9376 16.4732 55.3855 15.7336 54.797 15.0148C54.2136 14.3013 53.5886 13.6138 52.9376 12.9627C52.2813 12.3065 51.5991 11.6867 50.8803 11.0982C50.1668 10.5148 49.422 9.96274 48.6563 9.44711C47.8855 8.9367 47.0938 8.46274 46.2761 8.02524C45.4584 7.58774 44.6251 7.19191 43.7709 6.83774C42.9168 6.48357 42.0418 6.17628 41.1563 5.90545C40.2709 5.63461 39.3751 5.41066 38.4688 5.23357C37.5626 5.05128 36.6459 4.91587 35.7241 4.82732C34.8074 4.73357 33.8803 4.69191 32.9584 4.69191C32.0313 4.69191 31.1095 4.73357 30.1876 4.82732C29.2657 4.91587 28.3543 5.05128 27.4428 5.23357C26.5366 5.41587 25.6407 5.63982 24.7553 5.90545C23.8699 6.17628 23.0001 6.48878 22.1459 6.84295C21.2918 7.19711 20.4532 7.59295 19.6407 8.02524C18.823 8.46274 18.0313 8.9367 17.2605 9.45232C16.4897 9.96795 15.7501 10.5148 15.0313 11.1034C14.3178 11.6919 13.6303 12.3117 12.9793 12.9679C12.323 13.619 11.7032 14.3065 11.1147 15.02C10.5313 15.7336 9.97926 16.4784 9.46363 17.2492C8.95322 18.0148 8.47405 18.8117 8.04176 19.6242C7.60426 20.4419 7.20843 21.2752 6.85426 22.1346C6.50009 22.9888 6.18759 23.8586 5.92197 24.744C5.65113 25.6294 5.42718 26.5252 5.24488 27.4315C5.06259 28.3377 4.92718 29.2544 4.83863 30.1763C4.75009 31.0982 4.70322 32.02 4.70322 32.9471C4.70322 33.869 4.74488 34.7909 4.83863 35.7127C4.92718 36.6346 5.06259 37.5513 5.24488 38.4575C5.42718 39.3638 5.65114 40.2596 5.91676 41.145C6.18759 42.0304 6.49488 42.9002 6.84905 43.7596C7.20322 44.6138 7.59905 45.4471 8.03655 46.2648C8.47405 47.0773 8.94801 47.8742 9.46363 48.6398C9.97405 49.4107 10.5261 50.1554 11.1147 50.869C11.698 51.5825 12.3178 52.27 12.9741 52.9263C13.6303 53.5773 14.3126 54.1971 15.0261 54.7857C15.7449 55.3742 16.4845 55.9263 17.2553 56.4367C18.0261 56.9523 18.8178 57.4263 19.6303 57.8638C20.448 58.3013 21.2866 58.6971 22.1407 59.0513C22.9949 59.4054 23.8647 59.7179 24.7501 59.9836C25.6355 60.2544 26.5313 60.4784 27.4376 60.6607C28.3438 60.8429 29.2605 60.9784 30.1824 61.0669C31.1043 61.1607 32.0261 61.2075 32.948 61.2075C33.8751 61.2023 34.797 61.1607 35.7188 61.0669C36.6407 60.9732 37.5574 60.8377 38.4636 60.6554C39.3699 60.4784 40.2657 60.2492 41.1511 59.9836C42.0366 59.7127 42.9063 59.4002 43.7657 59.0461C44.6199 58.6919 45.4532 58.2961 46.2709 57.8586C47.0886 57.4211 47.8803 56.9471 48.6511 56.4315C49.4168 55.9211 50.1616 55.369 50.8751 54.7804C51.5938 54.1919 52.2761 53.5721 52.9324 52.9211C53.5834 52.2648 54.2084 51.5773 54.7918 50.8638C55.3803 50.1502 55.9324 49.4054 56.448 48.6346C56.9584 47.869 57.4376 47.0721 57.8699 46.2596C58.3074 45.4419 58.7032 44.6086 59.0574 43.7492C59.4116 42.895 59.7241 42.0252 59.9949 41.1398C60.2657 40.2544 60.4897 39.3586 60.672 38.4523C60.8491 37.5461 60.9897 36.6294 61.0782 35.7075C61.172 34.7857 61.2188 33.8638 61.2188 32.9367Z" fill="#A4A3A4"/>
<path d="M49.0939 31.0095L35.0626 16.0407C34.8074 15.7699 34.5053 15.5564 34.1668 15.4001C33.823 15.2439 33.4689 15.1605 33.0939 15.1501C32.7189 15.1397 32.3543 15.197 32.0053 15.3324C31.6564 15.4626 31.3439 15.6553 31.073 15.9157C30.797 16.171 30.5835 16.4678 30.4324 16.8116C30.2762 17.1501 30.1928 17.5095 30.1824 17.8845C30.1668 18.2543 30.2293 18.6189 30.3595 18.9678C30.4897 19.3168 30.6876 19.6293 30.9428 19.9053L40.3387 29.9262H18.8595C17.297 29.9262 16.047 31.2751 16.047 32.9366C16.047 34.6032 17.297 35.9522 18.8595 35.9522H40.3387L30.9428 45.973C30.6876 46.2439 30.4897 46.5564 30.3595 46.9053C30.2241 47.2595 30.1668 47.6189 30.1772 47.9939C30.1876 48.3689 30.271 48.7282 30.4272 49.0668C30.5835 49.4105 30.797 49.7074 31.0678 49.9678C31.3439 50.223 31.6564 50.4157 32.0053 50.546C32.3543 50.6814 32.7189 50.7387 33.0939 50.7282C33.4689 50.7178 33.823 50.6345 34.1668 50.4782C34.5053 50.322 34.8074 50.1085 35.0626 49.8376L49.0939 34.8689C49.3387 34.6085 49.5262 34.3116 49.6616 33.9782C49.7918 33.6449 49.8595 33.296 49.8595 32.9366C49.8595 32.5772 49.7918 32.2335 49.6616 31.9001C49.5262 31.5668 49.3387 31.2699 49.0939 31.0095Z" fill="#A4A3A4"/>
</svg>
