<svg width="49" height="27" viewBox="0 0 49 27" fill="none" xmlns="http://www.w3.org/2000/svg">
<path d="M0 9.43408C0 4.46351 4.02944 0.434082 9 0.434082H28C31.3137 0.434082 34 3.12037 34 6.43408V20.5177C34 23.8314 31.3137 26.5177 28 26.5177H9C4.02944 26.5177 0 22.4882 0 17.5177V9.43408Z" fill="white"/>
<path d="M37 10.6099C37 9.89961 37.3768 9.24257 37.9898 8.88379L45.9898 4.20212C47.3231 3.42186 49 4.38344 49 5.92827V21.0236C49 22.5684 47.3231 23.53 45.9898 22.7497L37.9898 18.068C37.3768 17.7093 37 17.0522 37 16.3419V10.6099Z" fill="white"/>
</svg>
