<svg width="22" height="22" viewBox="0 0 22 22" fill="none" xmlns="http://www.w3.org/2000/svg">
<path d="M17.6 16.1996C18 16.5996 18 17.1996 17.6 17.5996C17.2 17.9996 16.6 17.9996 16.2 17.5996L11 12.3996L5.79998 17.5996C5.39998 17.9996 4.79998 17.9996 4.39998 17.5996C3.99998 17.1996 3.99998 16.5996 4.39998 16.1996L9.59998 10.9996L4.39998 5.79961C3.99998 5.39961 3.99998 4.79961 4.39998 4.39961C4.79998 3.99961 5.39998 3.99961 5.79998 4.39961L11 9.59961L16.2 4.39961C16.6 3.99961 17.2 3.99961 17.6 4.39961C18 4.79961 18 5.39961 17.6 5.79961L12.4 10.9996L17.6 16.1996Z" fill="#393939"/>
</svg>
