<svg xmlns="http://www.w3.org/2000/svg" width="10" height="14" viewBox="0 0 10 14" fill="none">
    <path
        d="M9.88634 5.26241C9.88634 5.06383 9.7727 5.06383 9.54543 5.06383H6.13634L9.43179 0.595745C9.54543 0.496454 9.54543 0.397163 9.43179 0.198582C9.31815 0 9.31816 0 9.20452 0H4.54543C4.31815 0 4.20452 0.0992908 4.20452 0.198582L0.113609 6.75177C-2.77404e-05 6.95036 -2.77404e-05 7.04965 0.113609 7.14894C0.227245 7.24823 0.340881 7.34752 0.454518 7.34752H3.86361L1.59088 13.5035C1.47724 13.7021 1.59088 13.8014 1.81815 13.9007C1.93179 13.9007 1.93179 13.9007 2.04543 13.9007C2.15906 13.9007 2.2727 13.9007 2.38634 13.8014L9.99997 5.56028C9.99997 5.46099 9.99997 5.3617 9.88634 5.26241ZM2.95452 12.0142L4.7727 7.14894C4.7727 7.04965 4.7727 6.95036 4.65906 6.85106C4.65906 6.65248 4.54543 6.65248 4.43179 6.65248H1.13634L4.7727 0.695035H8.5227L5.11361 5.16312C4.99997 5.26241 4.99997 5.3617 5.11361 5.56028C5.22724 5.65957 5.34088 5.75887 5.45452 5.75887H8.74997L2.95452 12.0142Z"
        fill="black" />
</svg>