<svg width="26" height="26" viewBox="0 0 26 26" fill="none" xmlns="http://www.w3.org/2000/svg">
<g clip-path="url(#clip0_81_2829)">
<path d="M13 0C5.77778 0 0 5.77778 0 13C0 20.2222 5.77778 26 13 26C20.119 26 26 20.2222 26 13C26 5.77778 20.119 0 13 0ZM20.2222 14.2381H14.2381V20.2222C14.2381 20.9444 13.7222 21.4603 13 21.4603C12.2778 21.4603 11.7619 20.9444 11.7619 20.2222V14.2381H5.6746C4.95238 14.2381 4.43651 13.7222 4.43651 13C4.43651 12.2778 4.95238 11.7619 5.6746 11.7619H11.7619V5.6746C11.7619 4.95238 12.2778 4.43651 13 4.43651C13.7222 4.43651 14.2381 4.95238 14.2381 5.6746V11.7619H20.2222C20.9444 11.7619 21.4603 12.2778 21.4603 13C21.4603 13.619 20.9444 14.2381 20.2222 14.2381Z" fill="#F7F7F7"/>
</g>
<defs>
<clipPath id="clip0_81_2829">
<rect width="26" height="26" fill="white"/>
</clipPath>
</defs>
</svg>
