<svg width="17" height="17" viewBox="0 0 17 17" fill="none" xmlns="http://www.w3.org/2000/svg">
<path d="M8.7 6C8.5 6.2 8.3 6.3 8.1 6.3C8 6.3 7.9 6.2 7.8 6C7.7 5.9 7.6 5.7 7.6 5.5C7.6 5.2 7.7 5 7.8 4.8C8 4.6 8.1 4.6 8.3 4.6C8.5 4.6 8.6 4.7 8.7 4.8C8.8 4.9 8.9 5 8.9 5.3C8.9 5.5 8.8 5.7 8.7 6ZM10.6 2.9C10 2.3 9.3 2 8.4 2C7.5 2 6.7 2.4 6 3C5.4 3.6 5 4.4 5 5.3C5 6.2 5.3 7 6 7.6C6.6 8.2 7.5 8.6 8.5 8.6C9.1 8.6 9.8 8.5 10.4 8.2C10.6 8.1 10.7 7.9 10.6 7.7C10.5 7.5 10.3 7.4 10.1 7.5C9.5 7.7 9 7.8 8.5 7.8C7.7 7.8 7.1 7.6 6.6 7.1C6.2 6.6 5.9 6 5.9 5.3C5.9 4.6 6.1 4 6.6 3.5C7.1 3 7.7 2.8 8.4 2.8C9 2.8 9.6 3 10 3.4C10.4 3.8 10.7 4.3 10.7 4.9C10.7 5.3 10.6 5.7 10.4 5.9C10.2 6.2 10 6.3 9.8 6.3C9.7 6.3 9.6 6.2 9.6 6.1C9.6 6 9.6 5.9 9.6 5.7L9.8 3.8C9.8 3.7 9.7 3.6 9.6 3.6H9.2C9.1 3.6 9 3.7 9 3.8V4C8.7 3.8 8.5 3.7 8.2 3.7C7.8 3.7 7.4 3.9 7.1 4.2C6.9 4.5 6.7 4.9 6.7 5.4C6.7 5.9 6.8 6.3 7.1 6.6C7.4 7 7.7 7.1 8.1 7.1C8.4 7.1 8.7 7 8.9 6.7C9.1 7 9.4 7.1 9.7 7.1C10.2 7.1 10.6 6.9 11 6.4C11.4 6 11.5 5.4 11.5 4.8C11.5 4.1 11.2 3.4 10.6 2.9Z" fill="#393939"/>
<path d="M5.9 11.3L1 15.1V8L5.9 11.3ZM14.6 15.6H2L8.3 10.7L14.6 15.6ZM8 9.6L6.7 10.6L3.5 8.4V1H13V8.4L9.8 10.6L8.5 9.6C8.4 9.5 8.2 9.5 8 9.6ZM15.6 15L10.7 11.2L15.6 7.8V15ZM14 7.7V6.2L15.2 7L14 7.7ZM1.4 7L2.6 6.2V7.8L1.4 7ZM16.6 6.9V6.8C16.6 6.7 16.5 6.6 16.4 6.5L14 5V0.6C14 0.2 13.8 0 13.5 0H3.1C2.8 0 2.5 0.2 2.5 0.5V4.9L0.2 6.5C0.1 6.6 0 6.8 0 6.9V16C0 16.1 0.1 16.3 0.1 16.4C0.1 16.5 0.3 16.5 0.4 16.5H16C16.3 16.5 16.5 16.3 16.5 16L16.6 6.9Z" fill="#393939"/>
</svg>
