<svg width="22" height="22" viewBox="0 0 22 22" fill="none" xmlns="http://www.w3.org/2000/svg">
<path d="M11 22C4.9355 22 0 17.0645 0 11C0 4.9355 4.9355 0 11 0C17.0645 0 22 4.9355 22 11C22 17.0645 17.0645 22 11 22ZM11 1.5951C5.81591 1.5951 1.5951 5.81073 1.5951 11C1.5951 16.1841 5.81591 20.4049 11 20.4049C16.1893 20.4049 20.4101 16.1841 20.4101 11C20.4101 5.81073 16.1893 1.5951 11 1.5951Z" fill="#737373"/>
<path d="M11.2278 16.7072C11.145 16.6761 11.0517 16.6244 11.0517 16.4017C11.0517 16.3084 11.0673 16.2049 11.0984 16.0754L12.4863 9.33764C12.5174 9.18227 12.5329 9.01654 12.5329 8.85082C12.5329 8.41579 12.3983 8.08434 12.1341 7.86683C11.5437 7.37483 10.5028 7.47323 8.77821 8.05845L8.6073 8.11541L8.53998 8.98029H8.83C9.71041 8.98029 9.92275 9.0528 9.96936 9.07351C10.0263 9.09941 10.0574 9.13566 10.0574 9.23406C10.0574 9.28585 10.0522 9.34799 10.0367 9.4205C10.0211 9.50854 10.0004 9.6173 9.97971 9.73123L8.7057 15.9148C8.64873 16.2256 8.61766 16.4949 8.61766 16.7072C8.61766 17.1992 8.75749 17.5825 9.03715 17.8414C9.30646 18.09 9.67934 18.2195 10.1454 18.2195C10.6892 18.2195 11.4143 18.0693 12.3724 17.7585L12.5381 17.7016L12.6106 16.8212H12.3206C11.668 16.8212 11.3677 16.759 11.2278 16.7072Z" fill="#737373"/>
<path d="M13.056 4.1587C12.797 3.91011 12.4552 3.78064 12.0565 3.78064C11.6421 3.78064 11.29 3.91529 11.0103 4.18459C10.7307 4.4539 10.5908 4.8216 10.5908 5.26699C10.5908 5.6813 10.7255 6.02311 10.9896 6.28723C11.2589 6.55653 11.6007 6.69119 12.0047 6.69119C12.4138 6.69119 12.766 6.54618 13.0404 6.26652C13.3201 5.98686 13.4599 5.62433 13.4599 5.18412C13.4599 4.75427 13.3253 4.41247 13.056 4.1587Z" fill="#737373"/>
</svg>
