<svg width="16" height="21" viewBox="0 0 16 21" fill="none" xmlns="http://www.w3.org/2000/svg">
<path d="M8 0C3.6 0 0 3.5 0 7.9C0 12.3 2.9 12.6 8 21C13.1 12.6 16 12.3 16 7.9C15.9 3.5 12.4 0 8 0ZM8 10.9C7.6 10.9 7.2 10.8 6.8 10.7C6.4 10.5 6.1 10.3 5.8 10C5.5 9.7 5.3 9.4 5.2 9C5 8.7 5 8.3 5 7.9C5 7.5 5 7.1 5.2 6.8C5.4 6.4 5.6 6.1 5.8 5.8C6.1 5.5 6.4 5.3 6.8 5.1C7.2 5 7.6 4.9 8 4.9C8.4 4.9 8.8 5 9.2 5.1C9.6 5.3 9.9 5.5 10.2 5.8C10.5 6.1 10.7 6.4 10.8 6.8C10.9 7.1 11 7.5 11 7.9C11 8.3 10.9 8.7 10.8 9C10.6 9.4 10.4 9.7 10.2 10C10 10.3 9.6 10.5 9.2 10.7C8.8 10.8 8.4 10.9 8 10.9Z" fill="#393939"/>
</svg>
