<svg width="81" height="83" viewBox="0 0 81 83" fill="none" xmlns="http://www.w3.org/2000/svg">
<g clip-path="url(#clip0_1595_735)">
<path d="M7.62939e-05 41.8847C7.62939e-05 42.6847 7.62939e-05 43.4847 0.100075 44.3847C0.200073 45.1847 0.200073 45.9847 0.300072 46.7847C0.40007 47.5847 0.500076 48.3847 0.700073 49.1847C0.800072 49.9847 1.00008 50.7847 1.20007 51.5847C1.40007 52.3847 1.60007 53.1847 1.90008 53.9847C2.20008 54.7847 2.40007 55.5847 2.70007 56.2847C3.00008 57.0847 3.30007 57.7847 3.70007 58.5847C4.00008 59.2847 4.40007 60.0847 4.80007 60.7847C5.20007 61.4847 5.60007 62.1847 6.00008 62.8847C6.40008 63.5847 6.90008 64.2847 7.40008 64.9847C7.90008 65.6847 8.40008 66.2847 8.90008 66.9847C9.40008 67.5847 9.90008 68.2847 10.5001 68.8847C11.1001 69.4847 11.6001 70.0847 12.2001 70.6847C12.8001 71.2847 13.4001 71.7847 14.0001 72.3847C14.6001 72.8847 15.3001 73.4847 15.9001 73.8847C16.6001 74.3847 17.2001 74.8847 17.9001 75.2847C18.6001 75.7847 19.3001 76.1847 20.0001 76.5847C20.7001 76.9847 21.4001 77.3847 22.2001 77.7847C22.9001 78.1847 23.7001 78.4847 24.4001 78.7847C25.2001 79.0847 25.9001 79.3847 26.7001 79.6847C27.5001 79.9847 28.3001 80.1847 29.0001 80.4847C29.8001 80.6847 30.6001 80.8847 31.4001 81.0847C32.2001 81.2847 33.0001 81.3847 33.8001 81.5847C34.6001 81.6847 35.4001 81.7847 36.2001 81.8847C37.0001 81.9847 37.8001 81.9847 38.7001 82.0847C39.5001 82.0847 40.3001 82.0847 41.2001 82.0847C42.0001 82.0847 42.8001 81.9847 43.7001 81.9847C44.5001 81.8847 45.3001 81.7847 46.1001 81.6847C46.9001 81.5847 47.7001 81.3847 48.5001 81.2847C49.3001 81.0847 50.1001 80.8847 50.9001 80.6847C51.7001 80.4847 52.5001 80.1847 53.3001 79.9847C54.1001 79.6847 54.8001 79.3847 55.6001 79.0847C56.4001 78.7847 57.1001 78.4847 57.8001 78.0847C58.5001 77.6847 59.3001 77.3847 60.0001 76.9847C60.7001 76.5847 61.4001 76.1847 62.1001 75.6847C62.8001 75.2847 63.5001 74.7847 64.1001 74.2847C64.8001 73.7847 65.4001 73.2847 66.0001 72.7847C66.6001 72.2847 67.2001 71.6847 67.8001 71.1847C68.4001 70.5847 69.0001 70.0847 69.5001 69.4847C70.1001 68.8847 70.6001 68.2847 71.1001 67.5847C71.6001 66.9847 72.1001 66.2847 72.6001 65.6847C73.1001 64.9847 73.5001 64.3847 74.0001 63.6847C74.4001 62.9847 74.9001 62.2847 75.3001 61.5847C75.6001 60.5847 76.0001 59.7847 76.3001 59.0847C76.7001 58.3847 77.0001 57.5847 77.3001 56.7847C77.6001 55.9847 77.9001 55.2847 78.1001 54.4847C78.4001 53.6847 78.6001 52.8847 78.8001 52.0847C79.0001 51.2847 79.2001 50.4847 79.4001 49.6847C79.6001 48.8847 79.7001 48.0847 79.8001 47.2847C79.9001 46.4847 80.0001 45.6847 80.1001 44.8847C80.2001 44.0847 80.2001 43.2847 80.2001 42.3847C80.2001 41.5847 80.2001 40.7847 80.2001 39.8847C80.2001 39.0847 80.1001 38.2847 80.0001 37.3847C79.9001 36.5847 79.8001 35.7847 79.7001 34.9847C79.6001 34.1847 79.4001 33.3847 79.2001 32.5847C79.0001 31.7847 78.8001 30.9847 78.6001 30.1847C78.4001 29.3847 78.1001 28.5847 77.8001 27.8847C77.5001 27.1847 77.2001 26.3847 76.9001 25.5847C76.6001 24.7847 76.2001 24.0847 75.8001 23.3847C75.4001 22.7847 75.0001 22.0847 74.6001 21.3847C74.2001 20.6847 73.7001 19.9847 73.3001 19.2847C72.8001 18.5847 72.4001 17.9847 71.9001 17.2847C71.4001 16.6847 70.9001 15.9847 70.3001 15.3847C69.8001 14.7847 69.2001 14.1847 68.6001 13.5847C68.0001 12.9847 67.4001 12.4847 66.8001 11.8847C66.2001 11.3847 65.6001 10.7847 64.9001 10.2847C64.3001 9.78467 63.6001 9.28467 62.9001 8.78467C62.2001 8.28467 61.5001 7.88467 60.8001 7.48467C60.1001 7.08467 59.4001 6.68467 58.7001 6.28467C58.0001 5.88467 57.2001 5.58467 56.5001 5.18467C55.8001 4.88467 55.0001 4.48467 54.2001 4.28467C53.4001 3.98467 52.7001 3.68467 51.9001 3.48467C51.1001 3.28467 50.3001 2.98467 49.5001 2.78467C48.7001 2.58467 47.9001 2.38467 47.1001 2.28467C46.3001 2.18467 45.5001 1.98467 44.7001 1.88467C43.9001 1.88467 43.1001 1.78467 42.3001 1.78467C41.5001 1.78467 40.7001 1.68467 39.8001 1.68467C39.0001 1.68467 38.2001 1.68467 37.3001 1.78467C36.5001 1.88467 35.7001 1.88467 34.9001 1.98467C34.1001 2.08467 33.3001 2.18467 32.5001 2.38467C31.7001 2.58467 30.9001 2.68467 30.1001 2.88467C29.3001 3.08467 28.5001 3.28467 27.7001 3.58467C26.9001 3.88467 26.1001 4.08467 25.4001 4.38467C24.6001 4.68467 23.9001 4.98467 23.1001 5.38467C22.4001 5.68467 21.6001 6.08467 20.9001 6.48467C20.3001 6.98467 19.6001 7.38467 18.9001 7.78467C18.2001 8.18467 17.5001 8.68467 16.9001 9.18467C16.2001 9.68467 15.6001 10.1847 14.9001 10.6847C14.3001 11.1847 13.6001 11.6847 13.0001 12.2847C12.4001 12.8847 11.8001 13.3847 11.2001 13.9847C10.6001 14.5847 10.1001 15.1847 9.60007 15.7847C9.10007 16.3847 8.60007 17.0847 8.10007 17.6847C7.60007 18.3847 7.10007 18.9847 6.70007 19.6847C6.30007 20.3847 5.80008 21.0847 5.40008 21.7847C5.00008 22.4847 4.60007 23.1847 4.20007 23.9847C3.80007 24.6847 3.50008 25.4847 3.20007 26.1847C1.10007 31.1847 7.62939e-05 36.4847 7.62939e-05 41.8847ZM74.8001 41.8847C74.8001 42.9847 74.7001 44.1847 74.6001 45.2847C74.5001 46.3847 74.3001 47.4847 74.1001 48.5847C73.9001 49.6847 73.6001 50.7847 73.3001 51.8847C73.0001 52.9847 72.6001 53.9847 72.2001 55.0847C71.8001 56.0847 71.3001 57.1847 70.8001 58.1847C70.3001 59.1847 69.7001 60.1847 69.1001 61.0847C68.5001 61.9847 67.8001 62.8847 67.1001 63.7847C66.4001 64.6847 65.6001 65.4847 64.8001 66.2847C64.0001 67.0847 63.2001 67.8847 62.3001 68.5847C61.4001 69.2847 60.5001 69.9847 59.6001 70.5847C58.7001 71.1847 57.7001 71.7847 56.7001 72.2847C55.7001 72.7847 54.7001 73.2847 53.6001 73.6847C52.6001 74.0847 51.5001 74.4847 50.4001 74.7847C49.3001 75.0847 48.2001 75.3847 47.1001 75.5847C46.0001 75.7847 44.9001 75.9847 43.7001 76.0847C42.5001 76.1847 41.4001 76.2847 40.3001 76.2847C39.2001 76.2847 38.0001 76.1847 36.9001 76.0847C35.8001 75.9847 34.7001 75.7847 33.5001 75.5847C32.3001 75.3847 31.3001 75.0847 30.2001 74.7847C29.1001 74.4847 28.1001 74.0847 27.0001 73.6847C26.0001 73.2847 24.9001 72.7847 23.9001 72.2847C22.9001 71.7847 21.9001 71.1847 21.0001 70.5847C20.1001 69.9847 19.2001 69.2847 18.3001 68.5847C17.4001 67.8847 16.6001 67.0847 15.8001 66.2847C15.0001 65.4847 14.2001 64.6847 13.5001 63.7847C12.8001 62.8847 12.1001 61.9847 11.5001 61.0847C10.9001 60.1847 10.3001 59.1847 9.80007 58.1847C9.30007 57.1847 8.80008 56.1847 8.40008 55.0847C8.00008 54.0847 7.60007 52.9847 7.30007 51.8847C7.00007 50.7847 6.70007 49.6847 6.50008 48.5847C6.30008 47.4847 6.10007 46.3847 6.00008 45.2847C5.90008 44.1847 5.80007 42.9847 5.80007 41.8847C5.80007 40.7847 5.90008 39.5847 6.00008 38.4847C6.10007 37.3847 6.30008 36.2847 6.50008 35.1847C6.70007 34.0847 7.00007 32.9847 7.30007 31.8847C7.60007 30.7847 8.00008 29.7847 8.40008 28.6847C8.80008 27.6847 9.30007 26.5847 9.80007 25.5847C10.3001 24.5847 10.9001 23.5847 11.5001 22.6847C12.1001 21.7847 12.8001 20.8847 13.5001 19.9847C14.2001 19.0847 15.0001 18.2847 15.8001 17.4847C16.6001 16.6847 17.4001 15.8847 18.3001 15.1847C19.2001 14.4847 20.1001 13.7847 21.0001 13.1847C21.9001 12.5847 22.9001 11.9847 23.9001 11.4847C24.9001 10.9847 25.9001 10.4847 27.0001 10.0847C28.0001 9.68467 29.1001 9.28467 30.2001 8.98467C31.3001 8.68467 32.4001 8.38467 33.5001 8.18467C34.6001 7.98467 35.7001 7.78467 36.9001 7.68467C38.0001 7.58467 39.2001 7.48467 40.3001 7.48467C41.4001 7.48467 42.6001 7.58467 43.7001 7.68467C44.8001 7.78467 45.9001 7.98467 47.0001 8.18467C48.1001 8.38467 49.2001 8.68467 50.3001 8.98467C51.4001 9.28467 52.4001 9.68467 53.5001 10.0847C54.6001 10.4847 55.6001 10.9847 56.6001 11.4847C57.6001 11.9847 58.6001 12.5847 59.5001 13.1847C60.4001 13.7847 61.3001 14.4847 62.2001 15.1847C63.1001 15.8847 63.9001 16.6847 64.7001 17.4847C65.5001 18.2847 66.3001 19.0847 67.0001 19.9847C67.7001 20.8847 68.4001 21.7847 69.0001 22.6847C69.6001 23.5847 70.2001 24.5847 70.7001 25.5847C71.2001 26.5847 71.7001 27.5847 72.1001 28.6847C72.5001 29.6847 72.9001 30.7847 73.2001 31.8847C73.5001 32.9847 73.8001 34.0847 74.0001 35.1847C74.2001 36.2847 74.5001 37.3847 74.6001 38.4847C74.7001 39.5847 74.8001 40.7847 74.8001 41.8847Z" fill="#C2BFBF"/>
<path d="M35.3001 23.3847C34.7001 23.3847 34.2001 23.5847 33.7001 23.8847C33.2001 24.1847 32.8001 24.6847 32.6001 25.1847C32.4001 25.6847 32.3001 26.2847 32.4001 26.8847C32.5001 27.4847 32.8001 27.9847 33.2001 28.3847L45.9001 41.8847L33.2001 55.4847C33.0001 55.7847 32.8001 56.0847 32.7001 56.4847C32.6001 56.8847 32.5001 57.1847 32.6001 57.5847C32.6001 57.9847 32.7001 58.2847 32.9001 58.6847C33.1001 59.0847 33.3001 59.2847 33.6001 59.5847C33.9001 59.8847 34.2001 60.0847 34.5001 60.1847C34.9001 60.2847 35.2001 60.3847 35.6001 60.3847C36.0001 60.3847 36.3001 60.2847 36.7001 60.1847C37.0001 60.0847 37.4001 59.8847 37.6001 59.5847L52.1001 43.8847C52.4001 43.5847 52.6001 43.2847 52.7001 42.9847C52.8001 42.6847 52.9001 42.2847 52.9001 41.8847C52.9001 41.4847 52.8001 41.1847 52.7001 40.7847C52.6001 40.3847 52.4001 40.0847 52.1001 39.8847L37.5001 24.2847C36.9001 23.6847 36.1001 23.3847 35.3001 23.3847Z" fill="#C2BFBF"/>
</g>
<defs>
<clipPath id="clip0_1595_735">
<rect width="80.6" height="82.1" fill="white" transform="matrix(-1 0 0 1 80.6001 0.68457)"/>
</clipPath>
</defs>
</svg>
