<svg width="14" height="14" viewBox="0 0 14 14" fill="none" xmlns="http://www.w3.org/2000/svg">
<path d="M13.828 10.2785C13.9322 10.5495 13.9896 10.8414 14 11.1489C14 11.1802 14 11.2063 14 11.2375C14 12.7647 12.7647 14 11.2427 14C5.035 14 0 8.965 0 2.75726C0 1.23529 1.23529 0 2.76247 0C2.79375 0 2.81981 0 2.85108 0C3.1586 0.0104238 3.45048 0.0677587 3.72673 0.172003L4.75875 4.65972C4.75875 4.65972 4.75875 4.65972 4.75875 4.66493L2.85629 5.51452L2.85108 5.51973C3.72152 8.17275 5.82204 10.2785 8.48027 11.1489V11.1437L9.34028 9.24125L13.828 10.2785Z" fill="#393939"/>
</svg>
