<svg width="81" height="83" viewBox="0 0 81 83" fill="none" xmlns="http://www.w3.org/2000/svg">
<g clip-path="url(#clip0_1595_733)">
<path d="M80.5999 41.8847C80.5999 42.6847 80.5999 43.4847 80.4999 44.3847C80.3999 45.1847 80.3999 45.9847 80.2999 46.7847C80.1999 47.5847 80.0999 48.3847 79.8999 49.1847C79.7999 49.9847 79.5999 50.7847 79.3999 51.5847C79.1999 52.3847 78.9999 53.1847 78.6999 53.9847C78.3999 54.7847 78.1999 55.5847 77.8999 56.2847C77.5999 57.0847 77.2999 57.7847 76.8999 58.5847C76.5999 59.2847 76.1999 60.0847 75.7999 60.7847C75.3999 61.4847 74.9999 62.1847 74.5999 62.8847C74.1999 63.5847 73.6999 64.2847 73.1999 64.9847C72.6999 65.6847 72.1999 66.2847 71.6999 66.9847C71.1999 67.5847 70.6999 68.2847 70.0999 68.8847C69.4999 69.4847 68.9999 70.0847 68.3999 70.6847C67.7999 71.2847 67.1999 71.7847 66.5999 72.3847C65.9999 72.8847 65.2999 73.4847 64.6999 73.8847C63.9999 74.3847 63.3999 74.8847 62.6999 75.2847C61.9999 75.7847 61.2999 76.1847 60.5999 76.5847C59.8999 76.9847 59.1999 77.3847 58.3999 77.7847C57.6999 78.1847 56.8999 78.4847 56.1999 78.7847C55.3999 79.0847 54.6999 79.3847 53.8999 79.6847C53.0999 79.9847 52.2999 80.1847 51.5999 80.4847C50.7999 80.6847 49.9999 80.8847 49.1999 81.0847C48.3999 81.2847 47.5999 81.3847 46.7999 81.5847C45.9999 81.6847 45.1999 81.7847 44.3999 81.8847C43.5999 81.9847 42.7999 81.9847 41.8999 82.0847C41.0999 82.0847 40.2999 82.0847 39.3999 82.0847C38.5999 82.0847 37.7999 81.9847 36.8999 81.9847C36.0999 81.8847 35.2999 81.7847 34.4999 81.6847C33.6999 81.5847 32.8999 81.3847 32.0999 81.2847C31.2999 81.0847 30.4999 80.8847 29.6999 80.6847C28.8999 80.4847 28.0999 80.1847 27.2999 79.9847C26.4999 79.6847 25.7999 79.3847 24.9999 79.0847C24.1999 78.7847 23.4999 78.4847 22.7999 78.0847C22.0999 77.6847 21.2999 77.3847 20.5999 76.9847C19.8999 76.5847 19.1999 76.1847 18.4999 75.6847C17.7999 75.2847 17.0999 74.7847 16.4999 74.2847C15.7999 73.7847 15.1999 73.2847 14.5999 72.7847C13.9999 72.2847 13.3999 71.6847 12.7999 71.1847C12.1999 70.5847 11.5999 70.0847 11.0999 69.4847C10.4999 68.8847 9.9999 68.2847 9.4999 67.5847C8.9999 66.9847 8.4999 66.2847 7.9999 65.6847C7.4999 64.9847 7.0999 64.3847 6.5999 63.6847C6.1999 62.9847 5.6999 62.2847 5.2999 61.5847C4.9999 60.5847 4.5999 59.7847 4.2999 59.0847C3.8999 58.3847 3.5999 57.5847 3.2999 56.7847C2.9999 55.9847 2.6999 55.2847 2.4999 54.4847C2.1999 53.6847 1.9999 52.8847 1.7999 52.0847C1.5999 51.2847 1.3999 50.4847 1.1999 49.6847C0.999902 48.8847 0.899902 48.0847 0.799902 47.2847C0.699902 46.4847 0.599902 45.6847 0.499902 44.8847C0.399902 44.0847 0.399902 43.2847 0.399902 42.3847C0.399902 41.5847 0.399902 40.7847 0.399902 39.8847C0.399902 39.0847 0.499902 38.2847 0.599902 37.3847C0.699902 36.5847 0.799902 35.7847 0.899902 34.9847C0.999902 34.1847 1.1999 33.3847 1.3999 32.5847C1.5999 31.7847 1.7999 30.9847 1.9999 30.1847C2.1999 29.3847 2.4999 28.5847 2.7999 27.8847C3.0999 27.1847 3.3999 26.3847 3.6999 25.5847C3.9999 24.7847 4.3999 24.0847 4.7999 23.3847C5.1999 22.7847 5.5999 22.0847 5.9999 21.3847C6.3999 20.6847 6.8999 19.9847 7.2999 19.2847C7.7999 18.5847 8.1999 17.9847 8.6999 17.2847C9.1999 16.6847 9.6999 15.9847 10.2999 15.3847C10.7999 14.7847 11.3999 14.1847 11.9999 13.5847C12.5999 12.9847 13.1999 12.4847 13.7999 11.8847C14.3999 11.3847 14.9999 10.7847 15.6999 10.2847C16.2999 9.78467 16.9999 9.28467 17.6999 8.78467C18.3999 8.28467 19.0999 7.88467 19.7999 7.48467C20.4999 7.08467 21.1999 6.68467 21.8999 6.28467C22.5999 5.88467 23.3999 5.58467 24.0999 5.18467C24.7999 4.88467 25.5999 4.48467 26.3999 4.28467C27.1999 3.98467 27.8999 3.68467 28.6999 3.48467C29.4999 3.28467 30.2999 2.98467 31.0999 2.78467C31.8999 2.58467 32.6999 2.38467 33.4999 2.28467C34.2999 2.18467 35.0999 1.98467 35.8999 1.88467C36.6999 1.88467 37.4999 1.78467 38.2999 1.78467C39.0999 1.78467 39.8999 1.68467 40.7999 1.68467C41.5999 1.68467 42.3999 1.68467 43.2999 1.78467C44.0999 1.88467 44.8999 1.88467 45.6999 1.98467C46.4999 2.08467 47.2999 2.18467 48.0999 2.38467C48.8999 2.58467 49.6999 2.68467 50.4999 2.88467C51.2999 3.08467 52.0999 3.28467 52.8999 3.58467C53.6999 3.88467 54.4999 4.08467 55.1999 4.38467C55.9999 4.68467 56.6999 4.98467 57.4999 5.38467C58.1999 5.68467 58.9999 6.08467 59.6999 6.48467C60.2999 6.98467 60.9999 7.38467 61.6999 7.78467C62.3999 8.18467 63.0999 8.68467 63.6999 9.18467C64.3999 9.68467 64.9999 10.1847 65.6999 10.6847C66.2999 11.1847 66.9999 11.6847 67.5999 12.2847C68.1999 12.8847 68.7999 13.3847 69.3999 13.9847C69.9999 14.5847 70.4999 15.1847 70.9999 15.7847C71.4999 16.3847 71.9999 17.0847 72.4999 17.6847C72.9999 18.3847 73.4999 18.9847 73.8999 19.6847C74.2999 20.3847 74.7999 21.0847 75.1999 21.7847C75.5999 22.4847 75.9999 23.1847 76.3999 23.9847C76.7999 24.6847 77.0999 25.4847 77.3999 26.1847C79.4999 31.1847 80.5999 36.4847 80.5999 41.8847ZM5.7999 41.8847C5.7999 42.9847 5.8999 44.1847 5.9999 45.2847C6.0999 46.3847 6.2999 47.4847 6.4999 48.5847C6.6999 49.6847 6.9999 50.7847 7.2999 51.8847C7.5999 52.9847 7.9999 53.9847 8.3999 55.0847C8.7999 56.0847 9.2999 57.1847 9.7999 58.1847C10.2999 59.1847 10.8999 60.1847 11.4999 61.0847C12.0999 61.9847 12.7999 62.8847 13.4999 63.7847C14.1999 64.6847 14.9999 65.4847 15.7999 66.2847C16.5999 67.0847 17.3999 67.8847 18.2999 68.5847C19.1999 69.2847 20.0999 69.9847 20.9999 70.5847C21.8999 71.1847 22.8999 71.7847 23.8999 72.2847C24.8999 72.7847 25.8999 73.2847 26.9999 73.6847C27.9999 74.0847 29.0999 74.4847 30.1999 74.7847C31.2999 75.0847 32.3999 75.3847 33.4999 75.5847C34.5999 75.7847 35.6999 75.9847 36.8999 76.0847C38.0999 76.1847 39.1999 76.2847 40.2999 76.2847C41.3999 76.2847 42.5999 76.1847 43.6999 76.0847C44.7999 75.9847 45.8999 75.7847 47.0999 75.5847C48.2999 75.3847 49.2999 75.0847 50.3999 74.7847C51.4999 74.4847 52.4999 74.0847 53.5999 73.6847C54.5999 73.2847 55.6999 72.7847 56.6999 72.2847C57.6999 71.7847 58.6999 71.1847 59.5999 70.5847C60.4999 69.9847 61.3999 69.2847 62.2999 68.5847C63.1999 67.8847 63.9999 67.0847 64.7999 66.2847C65.5999 65.4847 66.3999 64.6847 67.0999 63.7847C67.7999 62.8847 68.4999 61.9847 69.0999 61.0847C69.6999 60.1847 70.2999 59.1847 70.7999 58.1847C71.2999 57.1847 71.7999 56.1847 72.1999 55.0847C72.5999 54.0847 72.9999 52.9847 73.2999 51.8847C73.5999 50.7847 73.8999 49.6847 74.0999 48.5847C74.2999 47.4847 74.4999 46.3847 74.5999 45.2847C74.6999 44.1847 74.7999 42.9847 74.7999 41.8847C74.7999 40.7847 74.6999 39.5847 74.5999 38.4847C74.4999 37.3847 74.2999 36.2847 74.0999 35.1847C73.8999 34.0847 73.5999 32.9847 73.2999 31.8847C72.9999 30.7847 72.5999 29.7847 72.1999 28.6847C71.7999 27.6847 71.2999 26.5847 70.7999 25.5847C70.2999 24.5847 69.6999 23.5847 69.0999 22.6847C68.4999 21.7847 67.7999 20.8847 67.0999 19.9847C66.3999 19.0847 65.5999 18.2847 64.7999 17.4847C63.9999 16.6847 63.1999 15.8847 62.2999 15.1847C61.3999 14.4847 60.4999 13.7847 59.5999 13.1847C58.6999 12.5847 57.6999 11.9847 56.6999 11.4847C55.6999 10.9847 54.6999 10.4847 53.5999 10.0847C52.5999 9.68467 51.4999 9.28467 50.3999 8.98467C49.2999 8.68467 48.1999 8.38467 47.0999 8.18467C45.9999 7.98467 44.8999 7.78467 43.6999 7.68467C42.5999 7.58467 41.3999 7.48467 40.2999 7.48467C39.1999 7.48467 37.9999 7.58467 36.8999 7.68467C35.7999 7.78467 34.6999 7.98467 33.5999 8.18467C32.4999 8.38467 31.3999 8.68467 30.2999 8.98467C29.1999 9.28467 28.1999 9.68467 27.0999 10.0847C25.9999 10.4847 24.9999 10.9847 23.9999 11.4847C22.9999 11.9847 21.9999 12.5847 21.0999 13.1847C20.1999 13.7847 19.2999 14.4847 18.3999 15.1847C17.4999 15.8847 16.6999 16.6847 15.8999 17.4847C15.0999 18.2847 14.2999 19.0847 13.5999 19.9847C12.8999 20.8847 12.1999 21.7847 11.5999 22.6847C10.9999 23.5847 10.3999 24.5847 9.8999 25.5847C9.3999 26.5847 8.8999 27.5847 8.4999 28.6847C8.0999 29.6847 7.6999 30.7847 7.3999 31.8847C7.0999 32.9847 6.7999 34.0847 6.5999 35.1847C6.3999 36.2847 6.0999 37.3847 5.9999 38.4847C5.8999 39.5847 5.7999 40.7847 5.7999 41.8847Z" fill="#C2BFBF"/>
<path d="M45.2999 23.3847C45.8999 23.3847 46.3999 23.5847 46.8999 23.8847C47.3999 24.1847 47.7999 24.6847 47.9999 25.1847C48.1999 25.6847 48.2999 26.2847 48.1999 26.8847C48.0999 27.4847 47.7999 27.9847 47.3999 28.3847L34.6999 41.8847L47.3999 55.4847C47.5999 55.7847 47.7999 56.0847 47.8999 56.4847C47.9999 56.8847 48.0999 57.1847 47.9999 57.5847C47.9999 57.9847 47.8999 58.2847 47.6999 58.6847C47.4999 59.0847 47.2999 59.2847 46.9999 59.5847C46.6999 59.8847 46.3999 60.0847 46.0999 60.1847C45.6999 60.2847 45.3999 60.3847 44.9999 60.3847C44.5999 60.3847 44.2999 60.2847 43.8999 60.1847C43.5999 60.0847 43.1999 59.8847 42.9999 59.5847L28.4999 43.8847C28.1999 43.5847 27.9999 43.2847 27.8999 42.9847C27.7999 42.6847 27.6999 42.2847 27.6999 41.8847C27.6999 41.4847 27.7999 41.1847 27.8999 40.7847C27.9999 40.3847 28.1999 40.0847 28.4999 39.8847L43.0999 24.2847C43.6999 23.6847 44.4999 23.3847 45.2999 23.3847Z" fill="#C2BFBF"/>
</g>
<defs>
<clipPath id="clip0_1595_733">
<rect width="80.6" height="82.1" fill="white" transform="translate(0 0.68457)"/>
</clipPath>
</defs>
</svg>
