<svg width="54" height="56" viewBox="0 0 54 56" fill="none" xmlns="http://www.w3.org/2000/svg">
<path id="Vector" d="M27.6136 18.3133V36.0482C27.6136 36.4337 27.2407 36.8193 26.8677 36.8193C26.4947 36.8193 25.7488 36.4337 25.7488 36.0482V18.3133C25.7488 17.9277 26.1218 17.5422 26.4947 17.5422C26.8677 17.5422 27.6136 17.9277 27.6136 18.3133ZM22.0193 24.0964C22.7652 24.8675 23.1382 25.6386 23.1382 26.7952C23.1382 27.5663 22.7652 28.7229 22.0193 29.1084C21.6464 29.8795 20.5275 30.2651 19.7816 30.2651C19.0357 30.2651 18.2898 29.8795 17.5439 29.1084C16.798 28.3373 16.425 27.5663 16.425 26.7952C16.425 26.0241 16.798 24.8675 17.5439 24.4819C18.2898 23.7108 19.0357 23.3253 19.7816 23.3253C20.5275 23.3253 21.6464 23.7108 22.0193 24.0964ZM21.2734 26.7952C21.2734 26.4096 21.2734 26.0241 20.9005 25.6386C20.5275 25.253 20.1546 24.8675 19.7816 24.8675C19.4086 24.8675 19.0357 24.8675 18.6627 25.253C18.2898 26.0241 18.2898 26.4096 18.2898 26.7952C18.2898 27.1807 18.2898 27.5663 18.6627 27.9518C19.0357 28.3374 19.4086 28.3373 19.7816 28.3373C20.1546 28.3373 20.5275 28.3374 20.9005 27.9518C21.2734 27.5663 21.2734 27.1807 21.2734 26.7952ZM31.3431 30.2651C30.5972 29.494 30.2243 28.7229 30.2243 27.9518C30.2243 27.1807 30.5972 26.0241 31.3431 25.6386C32.089 24.8675 32.8349 24.4819 33.5808 24.4819C34.3268 24.4819 35.4456 24.8675 35.8186 25.6386C36.5645 26.0241 36.9374 26.7952 36.9374 27.9518C36.9374 28.7229 36.5645 29.8795 35.8186 30.2651C35.4456 31.0361 34.3268 31.4217 33.5808 31.4217C32.8349 31.4217 32.089 31.0361 31.3431 30.2651ZM32.089 27.9518C32.089 28.3374 32.089 28.7229 32.462 29.1084C32.8349 29.1084 33.2079 29.494 33.5808 29.494C33.9538 29.494 34.3267 29.494 34.6997 29.1084C35.0727 28.7229 35.0727 28.3374 35.0727 27.9518C35.0727 27.5663 35.0727 27.1807 34.6997 26.7952C34.3267 26.4096 33.9538 26.0241 33.5808 26.0241C33.2079 26.0241 32.8349 26.4096 32.462 26.7952C32.089 26.7952 32.089 27.5663 32.089 27.9518ZM53.7203 35.6627L34.3268 55.7108C33.9538 56.0964 33.5808 56.0964 33.2079 55.7108L9.33893 31.0361L8.96597 30.6506L5.98235 16C5.98235 15.6145 5.98235 15.2289 6.35531 15.2289L7.84712 13.6867C7.10121 12.9157 6.35531 12.1446 5.6094 11.3735C3.74464 9.44578 1.87987 7.13253 1.13397 5.20482C0.0151114 3.27711 -0.357841 1.3494 0.388064 0.578313C1.13397 -0.192771 2.62578 -0.192771 4.11759 0.578313C5.23645 0.963855 6.72826 2.12048 7.84712 3.27711C8.96597 4.04819 9.71188 4.81928 10.8307 5.9759C11.5766 6.36145 11.9496 6.74699 12.3225 7.51807C12.6955 7.51807 12.6955 7.90361 13.0685 7.90361L14.5603 6.36145C14.9332 5.9759 14.9332 5.9759 15.3062 5.9759L29.4784 9.44578C29.4784 9.44578 29.8513 9.44578 29.8513 9.83133L53.7203 34.506C54.0932 34.506 54.0932 35.2771 53.7203 35.6627ZM8.96597 12.1446L11.5766 9.44578C11.5766 9.06024 11.2037 8.6747 11.2037 8.6747C10.8307 8.28916 10.0848 7.51807 9.71188 7.13253C7.84712 5.20482 5.98235 3.66265 4.11759 2.89157L3.74464 2.50602L3.37168 2.12048C2.62578 2.12048 2.25283 1.73494 1.87987 1.73494C1.87987 2.12048 1.87987 2.89157 2.62578 4.43374C3.37169 5.9759 4.86349 8.28916 7.10121 10.2169C7.47416 10.988 8.22007 11.759 8.96597 12.1446ZM51.8555 34.8916L28.7325 10.988L15.3062 7.90361L13.4414 10.2169L10.4578 13.3012C11.2037 13.6867 11.9496 14.4578 12.6955 14.8434C12.6955 14.4578 13.0685 14.0723 13.4414 13.6867C13.8144 13.3012 14.5603 12.9157 15.3062 12.5301C15.6791 12.5301 15.6791 12.5301 16.0521 12.5301C16.798 12.5301 17.5439 12.9157 18.2898 13.6867C18.6627 14.4578 19.0357 15.2289 19.0357 16C19.0357 16.7711 18.6627 17.9277 17.9168 18.3133C17.1709 19.4699 16.425 19.4699 15.6791 19.4699C14.5603 19.4699 13.8144 19.4699 13.0685 18.6988C12.6955 17.9277 12.3225 17.1566 12.3225 16.7711C11.9496 16.7711 11.9496 16.3855 11.5766 16.3855C10.8307 16 10.0848 15.2289 8.96597 14.4578L7.84712 16L10.8307 29.8795L33.5808 53.7831L51.8555 34.8916ZM14.5603 14.8434L14.1873 15.2289C14.5603 15.2289 14.9332 15.2289 14.9332 15.2289C14.9332 15.2289 14.9332 15.2289 14.9332 14.8434V14.4578C14.5603 14.8434 14.5603 14.8434 14.5603 14.8434ZM14.1873 17.1566C14.5603 17.5422 15.3062 17.9277 15.6791 17.9277C16.0521 17.9277 16.425 17.9277 16.798 17.5422C17.1709 17.1566 17.1709 16.7711 17.1709 16.3855C17.1709 16 17.1709 15.6145 16.798 15.2289C16.798 16 16.798 16.3855 16.425 16.7711C15.6791 17.1566 14.9332 17.5422 14.1873 17.1566ZM33.2079 46.0723C33.5808 46.4578 33.9538 46.4578 34.3268 46.0723L44.3965 35.6627C44.7694 35.2771 44.7694 34.8916 44.3965 34.506C44.0235 34.1205 43.6506 34.1205 43.2776 34.506L33.2079 44.5301C32.8349 44.9157 32.8349 45.6867 33.2079 46.0723ZM30.9702 42.988L41.0399 32.5783C41.4129 32.1928 41.4129 31.8072 41.0399 31.4217C40.6669 31.0361 40.294 31.0361 39.921 31.4217L29.8513 41.8313C29.4784 42.2169 29.4784 42.6024 29.8513 42.988C30.2243 43.3735 30.9702 43.3735 30.9702 42.988Z" fill="#393939"/>
</svg>
