<svg width="19" height="11" viewBox="0 0 19 11" fill="none" xmlns="http://www.w3.org/2000/svg">
<path fill-rule="evenodd" clip-rule="evenodd" d="M10.2333 10.3047C10.2333 10.3047 10.5491 10.2686 10.7107 10.0887C10.8591 9.92352 10.8543 9.6132 10.8543 9.6132C10.8543 9.6132 10.8339 8.14488 11.4852 7.93099C12.1274 7.72002 12.952 9.33476 13.826 9.95566C14.487 10.4252 14.9892 10.3046 14.9892 10.3046L17.3263 10.3067C17.3263 10.3067 18.5487 10.2106 17.969 9.21589C17.9216 9.13464 17.6314 8.48007 16.2312 7.13522C14.7658 5.72762 14.9622 5.95542 16.7274 3.52062C17.8024 2.0377 18.2322 1.1325 18.0978 0.744821C17.9699 0.37551 17.185 0.439156 17.185 0.439156L14.5479 0.438072C14.5479 0.438072 14.3527 0.418557 14.208 0.508095C14.0667 0.595655 13.9759 0.822816 13.9759 0.822816C13.9759 0.822816 13.5593 1.9914 13.0039 2.96738C11.8323 5.0263 11.3637 5.13536 11.1722 5.0073C10.7266 4.70922 10.838 3.81034 10.838 3.17152C10.838 1.17606 11.1304 0.34407 10.2684 0.128707C9.98253 0.0572813 9.77178 0.0100253 9.04024 0.00230872C8.10122 -0.00763992 7.30671 0.00524228 6.8568 0.233359C6.55737 0.38514 6.32641 0.723138 6.46716 0.742589C6.64118 0.766631 7.03489 0.852598 7.24373 1.14666C7.5134 1.52643 7.50391 2.37888 7.50391 2.37888C7.50391 2.37888 7.65895 4.72784 7.14212 5.01954C6.78747 5.21973 6.3009 4.81107 5.25632 2.94309C4.72118 1.98623 4.31693 0.908463 4.31693 0.908463C4.31693 0.908463 4.2391 0.71083 4.10008 0.605094C3.93147 0.476909 3.69589 0.436286 3.69589 0.436286L1.19539 0.437179C1.19539 0.437179 0.820105 0.44802 0.682191 0.617019C0.559499 0.767333 0.672393 1.0781 0.672393 1.0781C0.672393 1.0781 2.62986 5.85363 4.84658 8.2422C6.87935 10.4325 9.18728 10.3047 9.18728 10.3047H10.2333Z" fill="white"/>
</svg>
