<svg width="22" height="22" viewBox="0 0 22 22" fill="none" xmlns="http://www.w3.org/2000/svg">
<g clip-path="url(#clip0_1218_167)">
<path d="M11 0C4.92147 0 0 4.9229 0 10.9999C0 12.7995 0.445026 14.5718 1.28272 16.1526L0.0209424 21.1958C-0.0837696 21.6061 0.230366 21.9999 0.649215 21.9999C0.801047 21.9999 0.544503 22.0382 5.84817 20.7199C7.42932 21.5568 9.20419 21.9999 11 21.9999C17.0785 21.9999 22 17.077 22 10.9999C22 4.91743 17.0785 0 11 0ZM11 20.7035C9.33508 20.7035 7.69634 20.2769 6.25131 19.4673C6.15707 19.4126 6.04712 19.3853 5.93717 19.3853C5.79058 19.3853 5.98953 19.3579 1.53927 20.4628L2.59686 16.2237C2.63874 16.0596 2.6178 15.89 2.53403 15.7478C1.72251 14.3038 1.29319 12.6628 1.29319 10.9999C1.29319 5.65039 5.64922 1.29089 11 1.29089C16.3508 1.29089 20.7068 5.65039 20.7068 10.9999C20.7068 16.3495 16.3508 20.7035 11 20.7035Z" fill="#A1A1A1"/>
<path d="M10.6127 4C10.274 4 10 4.24122 10 4.54161C10 4.83745 10.274 5.07867 10.6127 5.07867C14.005 5.07867 16.7696 7.49545 16.7696 10.4629C16.7696 10.7588 17.0436 11 17.3823 11C17.726 11 18 10.7588 18 10.4629C18 6.89922 14.6874 4 10.6127 4Z" fill="#A1A1A1"/>
<path d="M16.8526 13.8101C16.9419 14.0424 16.9911 14.2926 17 14.5562C17 14.583 17 14.6054 17 14.6322C17 15.9412 15.9412 17 14.6366 17C9.31571 17 5 12.6843 5 7.36337C5 6.05882 6.05882 5 7.36783 5C7.39464 5 7.41698 5 7.44378 5C7.70737 5.00893 7.95756 5.05808 8.19434 5.14743L9.07893 8.99404C9.07893 8.99404 9.07893 8.99404 9.07893 8.99851L7.44825 9.72673L7.44378 9.7312C8.18987 12.0052 9.99032 13.8101 12.2688 14.5562V14.5518L13.006 12.9211L16.8526 13.8101Z" fill="#A1A1A1"/>
</g>
<defs>
<clipPath id="clip0_1218_167">
<rect width="22" height="22" fill="white"/>
</clipPath>
</defs>
</svg>
