<svg width="290" height="311" viewBox="0 0 290 311" fill="none" xmlns="http://www.w3.org/2000/svg">
<circle cx="77.9575" cy="93.074" r="35.2619" fill="white" stroke="#393939" stroke-width="1.86538"/>
<circle cx="211.599" cy="93.074" r="35.2619" fill="#F70026" stroke="#393939" stroke-width="1.86538"/>
<path d="M126.088 52.4218L124.705 8.70007C137.609 -0.244332 164.217 -4.57912 183.871 14.9458C180.979 29.8912 178.279 38.1617 173.819 51.8218C173.152 53.8632 172.447 56.025 171.695 58.3475L126.088 52.4218Z" fill="white" stroke="#393939" stroke-width="1.78774"/>
<mask id="mask0_1116_384" style="mask-type:alpha" maskUnits="userSpaceOnUse" x="123" y="1" width="62" height="59">
<path d="M123.796 8.24683L125.219 53.2103L172.317 59.3298C178.293 40.8321 181.423 32.437 184.838 14.6499C164.576 -5.83983 135.701 1.84381 123.796 8.24683Z" fill="#DBCEB3"/>
</mask>
<g mask="url(#mask0_1116_384)">
<path d="M148.369 23.954L149.95 1.01202C155.411 0.635245 158.269 0.85183 163.028 2.30251L159.004 25.1011C168.592 26.8285 173.679 28.1096 181.423 31.8403L178.836 40.0134C171.567 36.3495 166.935 35.199 157.567 34.4213L154.405 54.0654L144.633 53.3484L147.076 32.9874C137.541 32.2745 132.458 32.7575 123.938 35.2816V26.3916C131.842 24.6835 137.077 24.1312 148.369 23.954Z" fill="#F60026"/>
<path d="M126.088 52.422L124.699 8.51529C126.245 6.38873 129.326 4.45239 133.547 3.06584C137.888 1.63987 143.31 0.837571 149.173 0.970087C160.775 1.23232 173.977 5.1491 183.871 14.9465C180.979 29.8916 178.279 38.1621 173.819 51.822C173.152 53.8635 172.447 56.0253 171.695 58.3477L126.088 52.422Z" stroke="#393939" stroke-width="1.78774"/>
</g>
<path d="M187.692 73.138C187.455 75.2323 186.235 77.1899 184.077 78.9335C181.915 80.6805 178.86 82.1695 175.093 83.3033C167.564 85.5699 157.364 86.3657 146.293 85.111C135.221 83.8563 125.458 80.7981 118.627 76.9041C115.21 74.9562 112.565 72.8213 110.849 70.6347C109.136 68.4525 108.385 66.2715 108.623 64.1771C108.86 62.0828 110.08 60.1252 112.238 58.3816C114.4 56.6346 117.455 55.1456 121.221 54.0118C128.751 51.7452 138.95 50.9494 150.022 52.2041C161.094 53.4589 170.857 56.517 177.688 60.411C181.105 62.3589 183.749 64.4938 185.466 66.6804C187.178 68.8627 187.93 71.0436 187.692 73.138Z" fill="#F70026" stroke="#393939" stroke-width="1.78774"/>
<path d="M186.399 75.0041C186.177 76.9603 184.958 78.7568 182.842 80.3252C180.725 81.8943 177.746 83.2064 174.1 84.1881C166.81 86.1506 156.946 86.7674 146.243 85.5544C135.539 84.3414 126.063 81.5329 119.398 77.9888C116.064 76.2161 113.454 74.2706 111.742 72.2676C110.031 70.2654 109.244 68.2416 109.466 66.2854C109.687 64.3293 110.907 62.5328 113.023 60.9643C115.14 59.3953 118.119 58.0831 121.765 57.1015C129.055 55.1389 138.919 54.5221 149.622 55.7351C160.325 56.9481 169.801 59.7567 176.467 63.3008C179.801 65.0735 182.411 67.019 184.123 69.0219C185.834 71.0242 186.621 73.048 186.399 75.0041Z" fill="#802120" stroke="#393939" stroke-width="0.893871"/>
<mask id="path-9-inside-1_1116_384" fill="white">
<path fill-rule="evenodd" clip-rule="evenodd" d="M120.229 68.3329C113.068 74.9458 108.584 84.4142 108.584 94.93C108.584 114.92 124.789 131.125 144.778 131.125C164.768 131.125 180.973 114.92 180.973 94.93C180.973 88.9105 179.503 83.2342 176.904 78.2402C167.766 63.133 134.512 58.2356 120.229 68.3329Z"/>
</mask>
<path fill-rule="evenodd" clip-rule="evenodd" d="M120.229 68.3329C113.068 74.9458 108.584 84.4142 108.584 94.93C108.584 114.92 124.789 131.125 144.778 131.125C164.768 131.125 180.973 114.92 180.973 94.93C180.973 88.9105 179.503 83.2342 176.904 78.2402C167.766 63.133 134.512 58.2356 120.229 68.3329Z" fill="#1F80C4"/>
<path d="M120.229 68.3329L119.152 66.8097L119.053 66.88L118.964 66.9625L120.229 68.3329ZM176.904 78.2402L178.558 77.3789L178.531 77.3259L178.5 77.2748L176.904 78.2402ZM110.449 94.93C110.449 84.9561 114.7 75.9779 121.495 69.7034L118.964 66.9625C111.436 73.9137 106.718 83.8722 106.718 94.93H110.449ZM144.778 129.259C125.819 129.259 110.449 113.889 110.449 94.93H106.718C106.718 115.95 123.758 132.99 144.778 132.99V129.259ZM179.108 94.93C179.108 113.889 163.738 129.259 144.778 129.259V132.99C165.798 132.99 182.838 115.95 182.838 94.93H179.108ZM175.249 79.1016C177.714 83.8358 179.108 89.2174 179.108 94.93H182.838C182.838 88.6035 181.293 82.6325 178.558 77.3789L175.249 79.1016ZM178.5 77.2748C173.51 69.0244 162.24 63.8777 150.799 61.9943C139.337 60.1073 126.869 61.3546 119.152 66.8097L121.306 69.8561C127.873 65.2139 139.173 63.8613 150.193 65.6755C161.235 67.4932 171.16 72.3489 175.308 79.2056L178.5 77.2748Z" fill="#393939" mask="url(#path-9-inside-1_1116_384)"/>
<path d="M41.7676 240.386C41.7676 215.55 24.3293 194.76 0.932692 189.352V119.995C29.0217 120.145 51.3546 127.068 69.0722 138.556C86.9901 150.174 100.242 166.496 109.949 185.322C129.226 222.705 134.483 269.872 134.564 309.309H68.6769C53.8153 309.309 41.7676 297.261 41.7676 282.399V240.386Z" fill="white" stroke="#393939" stroke-width="1.86538"/>
<path d="M247.789 240.386C247.789 215.55 265.227 194.76 288.624 189.352V119.995C260.535 120.145 238.202 127.068 220.484 138.556C202.567 150.174 189.315 166.496 179.607 185.322C160.33 222.705 155.074 269.872 154.993 309.309H220.88C235.741 309.309 247.789 297.261 247.789 282.399V240.386Z" fill="#F70026" stroke="#393939" stroke-width="1.86538"/>
<path d="M65.8975 188.187V118.136H89.0946C112.386 118.136 132.774 130.571 143.98 149.169L144.779 150.494L145.577 149.169C156.784 130.571 177.171 118.136 200.463 118.136H223.66V188.187C200.257 193.649 182.825 214.641 182.825 239.708V309.309H106.732V239.708C106.732 214.641 89.2999 193.649 65.8975 188.187Z" fill="#1F80C4" stroke="#393939" stroke-width="1.86538"/>
<circle cx="158.235" cy="87.9693" r="8.812" fill="#1F80C4" stroke="#393939" stroke-width="1.86538"/>
<path d="M144.314 101.041C134.13 94.215 132.761 113.734 124.362 107.238C124.208 118.689 140.945 111.833 144.314 106.804C147.683 111.848 164.42 118.704 164.267 107.238C155.867 113.734 154.498 94.215 144.314 101.041Z" fill="#393939"/>
</svg>
