<svg width="306" height="269" viewBox="0 0 306 269" fill="none" xmlns="http://www.w3.org/2000/svg">
<path d="M304.559 0.157228C302.291 0.983257 300.332 2.42881 298.064 3.35809C295.693 4.39063 293.013 4.9069 290.436 5.31991C285.9 6.14594 281.365 5.83618 276.829 7.28173C274.355 8.00451 272.19 9.1403 269.716 9.55331C267.242 9.96633 264.665 10.0696 262.191 10.5858C256.934 11.5151 252.295 14.1997 246.935 14.716C244.667 14.9225 242.605 15.542 240.44 16.1615C237.451 16.9876 234.461 17.1941 231.472 17.8136C229.204 18.2266 227.142 18.2266 224.874 18.4331C222.091 18.6396 219.411 19.4657 216.628 19.6722C214.257 19.7754 212.092 20.3949 209.824 20.9112C206.938 21.5307 204.258 21.221 201.371 21.5307C196.732 22.047 191.991 22.047 187.455 22.7698C177.249 24.3186 166.735 23.6991 156.426 23.6991C150.963 23.6991 145.706 24.4218 140.242 23.5958C135.088 22.873 130.243 22.3568 125.089 22.3568C119.831 22.3568 114.677 22.2535 109.42 21.9438C107.049 21.8405 104.678 21.5307 102.307 21.5307C99.6269 21.4275 96.8436 21.8405 94.1634 21.5307C89.5246 21.0145 84.5765 21.221 80.0408 20.2917C75.9174 19.4657 71.7941 18.8461 67.5676 18.5364C64.9905 18.4331 62.6195 17.2973 60.1455 16.3681C57.4653 15.3355 54.8882 15.129 52.1049 14.8193C46.3322 14.303 40.5595 12.9607 34.8898 11.5151C29.4264 10.1728 23.6536 10.1728 18.0871 9.1403C15.4069 8.62403 12.7267 8.83054 10.0465 8.00451C6.74777 7.17848 4.27374 5.62967 1.69663 3.87436C0.975042 3.35809 -0.468141 5.01015 0.150366 5.52642C0.356535 5.62967 0.45962 5.83618 0.665788 5.93943C0.665788 6.97197 0.975042 7.69475 1.49046 8.83054C2.31514 10.4826 2.52131 12.1347 3.2429 13.89C4.37683 16.8843 6.64469 19.3624 7.98479 22.1503C9.11871 24.6283 9.53105 27.2097 11.2835 29.378C12.4174 30.8236 13.6544 31.9594 14.5822 33.6114C15.4069 35.1602 15.9223 37.0188 16.3346 38.6708C16.3346 38.6708 16.3346 38.7741 16.4377 38.7741C16.4377 41.0457 19.7364 41.2522 21.3858 41.2522C25.4061 41.4587 29.3233 41.975 33.3436 42.0782C33.859 42.0782 34.2713 42.0782 34.7867 42.0782C34.9929 43.3173 36.0238 43.8335 36.6423 45.0726C37.3639 46.4149 37.6731 47.7572 38.4978 48.9962C40.5595 52.1971 41.5903 56.4305 44.0643 59.3216C44.2705 59.6313 44.6828 59.6313 44.9921 59.4248C48.2908 59.4248 51.3833 59.0118 54.682 59.1151C55.3006 59.1151 56.0221 59.1151 56.6406 59.2183C56.3314 60.3541 56.6406 61.4899 56.6406 62.6257C56.6406 63.0387 56.6406 63.4517 56.7437 63.8647C56.8468 64.4843 57.2592 65.0005 57.2592 65.6201C57.2592 66.0331 57.5684 66.1363 57.8777 66.1363H57.9807C59.9394 66.3428 61.898 66.6526 63.7535 66.8591C63.3411 67.3754 62.9288 67.8916 62.9288 68.3047C62.7226 71.6088 62.4134 75.1194 62.8257 78.4235C63.135 81.1081 63.0319 83.7927 63.4442 86.374C63.6504 87.3033 63.7535 88.3359 63.8566 89.3684C61.0733 89.0586 58.29 89.2652 55.5067 89.1619C52.1049 89.1619 49.2186 88.6456 45.8168 89.0586C45.1983 89.1619 44.1674 90.1944 44.0643 90.9172C43.4458 93.0855 44.3736 95.1506 44.3736 97.3189C44.3736 98.145 44.3736 98.971 44.3736 99.9003C44.4767 101.346 44.1674 102.585 44.1674 104.03C44.0643 105.373 45.7137 104.65 46.7445 103.617C49.1155 103.927 51.3833 104.34 53.7543 104.856C56.7437 105.579 59.527 104.65 62.5165 104.96C62.7226 104.96 62.8257 104.96 63.0319 104.856C63.0319 105.063 63.0319 105.373 63.0319 105.579C63.0319 108.883 63.0319 112.187 63.0319 115.388C63.0319 117.144 62.8257 119.002 63.135 120.758C63.3411 122.306 63.8566 123.752 63.9596 125.301C64.4751 132.425 64.2689 139.653 64.1658 146.777C64.0627 153.489 63.7535 160.407 63.135 167.015C62.8257 170.01 62.8257 173.314 63.3411 176.205C63.9596 179.612 63.7535 183.433 63.9596 186.943C64.5782 200.676 64.6812 214.409 64.0627 228.141C63.7535 234.337 63.3411 240.532 63.135 246.727C63.0319 253.645 63.135 260.46 63.135 267.274C63.135 268.514 64.2689 268.204 65.2997 267.378C69.5262 267.997 73.7527 268.101 77.9791 268.617C79.5254 268.823 81.3809 269.236 82.9272 268.823C84.8858 268.307 86.8444 267.378 88.9061 266.861C89.3184 266.758 90.7616 265.106 90.3493 264.59C90.6585 264.177 90.9678 263.764 90.9678 263.454C90.9678 258.808 91.7924 253.852 91.0709 249.308C90.3493 244.146 90.7616 238.88 90.6585 233.614C90.5554 230.826 90.1431 228.141 89.9369 225.353C89.6277 222.462 90.04 219.468 90.1431 216.474C90.3493 210.382 90.4523 204.29 90.5554 198.198C90.5554 195.307 90.5554 192.312 90.6585 189.421C90.6585 186.84 91.1739 184.155 90.8647 181.574C90.4523 177.134 89.7308 172.591 89.7308 168.151C89.6277 157.826 89.4215 147.603 89.3184 137.278C89.4215 136.968 89.4215 136.762 89.4215 136.555C89.4215 136.452 89.3184 136.246 89.3184 136.142V136.039V135.936C89.3184 135.833 89.3184 135.729 89.3184 135.626C89.3184 135.42 89.3184 135.213 89.3184 135.007C89.4215 134.387 89.3184 133.871 89.3184 133.354C89.2153 132.838 89.1122 132.322 89.1122 131.806C89.1122 131.496 88.9061 131.289 88.803 130.98C88.803 130.773 88.803 130.567 88.803 130.463C88.803 130.257 88.6999 130.05 88.5968 129.844C88.5968 130.05 88.6999 130.154 88.6999 130.463C88.6999 130.67 88.4937 130.36 88.4937 130.257C88.4937 130.257 88.5968 130.154 88.5968 130.05C88.5968 129.947 88.4937 129.844 88.4937 129.741C88.4937 129.741 88.5968 129.741 88.5968 129.637C88.5968 129.534 88.3907 129.431 88.3907 129.328L88.4937 129.121V129.018V128.915C88.3907 128.708 88.2876 128.502 88.1845 128.295C88.1845 128.398 88.1845 128.502 88.0814 128.605C88.0814 128.502 88.1845 128.605 88.1845 128.605L88.0814 128.708C87.9783 128.605 87.9783 128.502 88.0814 128.398C88.0814 128.398 88.0814 128.398 87.9783 128.295H88.0814C88.0814 128.295 88.0814 128.295 88.0814 128.192C87.9783 128.295 87.8752 128.398 87.8752 128.398C87.8752 128.708 87.8752 129.018 87.8752 129.224C87.8752 129.224 87.9783 129.224 87.9783 129.328C87.9783 129.328 87.9783 129.328 87.8752 129.431V129.534C87.8752 129.534 87.8752 129.534 87.9783 129.534C87.9783 129.534 87.9783 129.534 87.9783 129.637V129.947V130.05C87.9783 130.154 87.9783 130.154 87.9783 130.257V130.36V130.567C87.9783 130.67 87.9783 130.876 87.9783 130.98C87.9783 131.909 87.9783 132.735 87.9783 133.664C87.9783 133.974 87.9783 134.387 87.8752 134.697C87.566 135.007 87.3598 135.316 87.3598 135.523C87.3598 146.777 87.1536 158.032 86.6382 169.39C86.4321 173.727 86.7413 178.27 87.3598 182.606C88.1845 188.182 87.6691 194.171 87.7722 199.85C87.7722 205.529 87.9783 211.311 88.1845 217.093C88.1845 218.539 88.2876 219.881 88.3907 221.327C88.2876 221.327 88.1845 221.327 88.1845 221.327C84.1642 221.43 80.247 222.256 76.2267 222.359C74.2681 222.359 72.7218 222.049 70.8663 221.843C69.4231 221.636 68.4954 222.153 67.1553 222.669C67.1553 219.158 67.1553 215.544 67.1553 212.034C67.1553 208.523 67.1553 205.116 67.2583 201.605C67.2583 197.888 66.846 194.171 66.9491 190.351C67.0522 187.046 66.7429 183.846 66.7429 180.645C66.7429 177.444 66.5368 174.346 66.4337 171.249C66.3306 164.537 66.9491 157.929 66.3306 151.217C65.7121 144.196 66.0213 137.072 65.609 130.05C65.1967 123.236 65.7121 116.318 65.7121 109.503C65.7121 107.128 65.609 104.753 65.5059 102.378C65.609 102.172 65.609 101.965 65.5059 101.759C65.5059 100.52 65.5059 99.2808 65.609 97.9385C65.7121 96.1832 66.3306 94.6343 66.4337 92.879C66.5368 91.0205 66.5368 89.2652 66.6398 87.4066C66.7429 85.8578 66.4337 84.5155 66.3306 82.9667C66.2275 81.4179 66.5368 79.8691 66.5368 78.3203C66.5368 74.6031 66.3306 70.7827 66.1244 67.0656C71.5879 67.5819 77.1544 67.8916 82.721 67.6851C84.2673 67.6851 86.1228 67.7884 87.9783 67.7884C87.8752 67.8916 87.8752 67.9949 87.8752 68.0982C87.0506 72.125 87.566 75.9454 87.566 79.9723C87.566 82.3472 87.8752 84.5155 87.7722 86.7871C87.6691 89.1619 87.4629 91.5367 87.2567 93.9116C86.9475 97.9385 86.4321 102.378 87.1536 106.302C87.2567 106.818 87.2567 107.438 87.3598 108.057C87.1536 108.574 87.2567 109.09 87.3598 109.709C87.3598 110.742 87.2567 111.774 87.3598 112.704C87.1536 114.356 87.566 116.008 87.4629 117.866C87.4629 118.383 87.6691 118.899 87.8752 119.312C87.8752 119.622 87.7722 120.035 87.7722 120.241C87.7722 120.654 87.8752 121.067 87.9783 121.377C87.9783 120.964 87.8752 120.654 87.8752 120.241C87.8752 119.931 88.1845 120.448 88.2876 120.654C88.3907 120.758 87.9783 120.861 88.0814 120.964C88.0814 121.171 88.1845 121.274 88.2876 121.48C88.3907 121.584 88.0814 121.584 88.0814 121.584C88.1845 121.893 88.4937 122.1 88.3907 122.203C88.3907 122.306 88.2876 122.41 88.2876 122.513C88.2876 122.616 88.2876 122.616 88.2876 122.719L88.3907 122.823C88.5968 123.132 88.6999 123.545 88.803 123.958C88.803 123.752 88.803 123.545 89.0092 123.339C88.9061 123.442 88.9061 123.442 88.803 123.339L88.9061 123.236C89.0092 123.442 89.1123 123.649 88.803 123.752L88.9061 123.855C88.9061 123.958 88.803 123.958 88.6999 123.958V124.062C88.803 123.958 89.0092 123.649 89.0092 123.649C89.0092 123.132 89.0092 122.616 89.1122 122.1C89.0092 122.1 89.0092 121.997 89.0092 121.997L89.1122 121.893V121.687C89.1122 121.687 89.1122 121.687 89.1122 121.584H89.0092L89.1122 121.48V121.377C89.1122 121.377 89.1122 121.377 89.1122 121.48V121.584V121.067V120.964C89.1122 120.861 89.0092 120.758 89.2153 120.654V120.551V120.138C89.2153 119.931 89.3184 119.622 89.3184 119.415C89.4215 118.176 89.5246 117.144 89.5246 115.905C89.6277 115.698 89.7308 115.595 89.8338 115.492C90.2462 114.253 90.04 113.53 89.9369 112.291C89.9369 112.084 89.9369 111.981 90.04 111.774C90.2462 110.845 90.1431 109.916 90.1431 108.987C90.2462 108.264 90.3493 107.644 90.3493 107.025C90.3493 106.922 90.3493 106.818 90.4523 106.612C90.5554 106.405 90.5554 106.096 90.4523 105.786C94.1634 105.992 97.8744 106.509 101.585 106.405C106.327 106.302 111.069 106.095 115.811 106.095C117.976 106.095 120.141 105.889 122.305 105.786C124.47 105.682 126.532 106.199 128.697 106.199C133.026 106.405 137.356 105.992 141.685 106.199C145.809 106.405 149.829 106.405 153.849 105.992C155.911 105.786 157.973 105.889 160.034 105.889C162.405 105.992 164.673 106.922 166.941 106.922C169.518 106.922 172.095 106.509 174.775 106.715C177.146 106.922 179.414 106.922 181.888 106.922C184.156 106.922 186.115 107.231 188.28 107.438C190.547 107.644 192.815 107.231 194.98 107.335C197.145 107.438 198.794 106.199 201.062 106.405C203.433 106.612 205.907 107.025 208.278 107.025C210.958 107.025 213.535 106.509 216.112 106.405C218.793 106.405 221.473 106.199 224.05 106.095C224.05 106.302 224.05 106.509 224.153 106.715C224.256 107.438 224.462 108.161 224.565 108.883C224.978 110.742 224.462 112.291 224.359 114.149C223.947 119.622 223.741 125.094 223.637 130.67C223.534 136.452 223.947 142.131 224.359 147.913C224.565 150.701 224.153 153.489 224.256 156.277C224.256 159.065 224.565 161.852 224.771 164.64C224.978 166.292 225.287 167.635 225.184 169.287C225.081 170.423 225.081 171.558 225.081 172.694C225.081 175.379 224.874 177.857 224.565 180.438C224.05 185.291 224.874 190.144 224.771 194.997C224.771 198.404 224.668 201.915 224.256 205.219C223.947 207.387 224.565 209.246 224.771 211.414C225.39 216.68 225.184 222.049 225.699 227.315C225.699 228.038 225.905 228.658 225.802 229.38C225.802 229.587 225.905 229.793 226.008 230C226.008 230.103 225.905 230.31 225.905 230.413C225.905 230.619 225.905 230.723 226.008 230.929C226.008 230.723 226.008 230.619 226.008 230.413C226.008 230.31 226.112 230.516 226.215 230.619C226.215 230.619 226.215 230.619 226.215 230.723L226.111 230.826C226.111 230.929 226.215 231.032 226.215 231.032H226.111C226.111 231.136 226.318 231.239 226.318 231.342L226.215 231.549V231.652V231.755C226.318 231.962 226.318 232.065 226.421 232.271C226.421 232.168 226.421 232.065 226.524 231.962C226.524 232.065 226.627 232.168 226.524 232.168C226.524 232.168 226.524 232.168 226.524 232.271H226.421C226.421 232.271 226.421 232.271 226.421 232.375C226.524 232.375 226.627 232.271 226.627 232.271C226.627 232.065 226.73 231.755 226.73 231.549C226.73 231.549 226.627 231.549 226.73 231.445C226.73 231.445 226.73 231.445 226.833 231.445V231.342C226.833 231.342 226.833 231.342 226.73 231.342V231.136C226.73 231.032 226.73 231.032 226.73 231.032C227.039 230.826 227.245 230.516 227.245 230.31C227.142 229.484 227.142 228.554 227.039 227.625C227.039 227.522 227.039 227.522 227.039 227.419C228.586 227.522 230.029 227.832 231.678 227.728C233.946 227.522 235.905 227.625 238.172 227.935C240.131 228.245 241.986 228.864 244.048 228.864C246.522 228.864 248.996 229.174 251.47 229.277H251.573C251.676 231.239 251.78 233.098 251.78 235.059C251.78 239.086 252.192 243.01 252.192 246.934C252.192 250.754 252.604 254.471 252.707 258.188C252.81 260.563 252.707 262.835 253.017 265.106C251.264 265.106 249.512 265.003 247.759 265.003C245.388 265.003 243.12 265.726 240.749 265.932C238.894 266.035 236.935 266.552 234.977 266.655C233.121 266.655 231.369 266.035 229.513 265.829V265.726C228.586 263.97 229.41 261.596 229.204 259.737C229.101 257.569 228.792 255.297 228.586 253.129C228.276 250.341 227.864 247.45 227.555 244.662C227.555 244.455 227.555 244.249 227.555 244.042C227.452 243.216 227.452 242.39 227.452 241.564C227.452 241.461 227.452 241.358 227.452 241.255C227.452 240.738 227.452 240.222 227.452 239.706C227.452 239.603 227.452 239.603 227.452 239.603C227.452 239.396 227.452 239.189 227.452 238.88C227.452 238.467 227.245 238.26 227.142 238.054C227.142 237.847 227.142 237.641 227.142 237.537C227.142 237.434 227.142 237.331 227.142 237.124C227.142 237.228 227.142 237.331 227.142 237.434C227.142 237.641 226.936 237.331 226.936 237.228C226.936 237.228 227.039 237.124 227.039 237.021C227.039 236.918 226.936 236.711 226.833 236.608L226.936 236.505C226.833 236.298 226.627 236.298 226.627 236.195C226.627 236.092 226.627 236.092 226.627 235.989V235.885V235.782C226.524 235.576 226.421 235.369 226.318 235.163C226.318 235.266 226.318 235.369 226.215 235.576C226.215 235.472 226.318 235.472 226.318 235.576L226.215 235.679C226.112 235.576 226.112 235.472 226.215 235.369C226.215 235.369 226.215 235.369 226.111 235.266H226.215V235.163C226.112 235.266 226.008 235.369 226.008 235.369C226.008 235.679 226.111 235.989 226.111 236.298C226.111 236.298 226.215 236.298 226.215 236.402V236.505V236.608C226.215 236.608 226.215 236.608 226.318 236.608V236.711C226.318 236.815 226.318 236.918 226.318 237.021V237.124C226.318 237.228 226.318 237.228 226.318 237.331V237.434V237.641C226.318 237.744 226.318 237.95 226.318 238.054C226.318 238.26 226.318 238.57 226.318 238.776C226.318 238.983 226.318 239.189 226.318 239.499C226.318 239.706 226.318 240.016 226.318 240.222C226.318 240.429 226.215 240.738 226.215 240.945C226.215 241.461 226.111 241.977 226.008 242.597C226.008 242.907 226.008 243.113 226.008 243.32C225.802 247.14 225.905 250.96 226.111 254.678C226.215 257.052 225.905 259.324 226.008 261.699C226.008 263.557 225.39 265.726 226.318 267.481C226.524 267.791 226.627 267.894 227.039 267.894C227.349 267.894 227.658 267.791 227.967 267.688C229.616 268.101 231.369 268.617 233.018 268.72C235.08 268.927 237.038 268.204 239.1 268.101C241.368 267.997 243.636 267.584 245.904 267.688C248.275 267.688 250.646 268.204 253.017 268.307C253.635 268.307 254.46 267.584 254.872 266.758C255.181 266.448 255.491 265.932 255.387 265.726C254.975 263.041 255.181 260.46 255.284 257.775C255.284 254.265 255.181 250.857 255.181 247.45C255.181 243.939 254.872 240.429 254.872 236.918C254.872 232.994 255.181 228.967 254.872 225.147C254.357 218.849 255.181 212.55 255.078 206.252C254.975 199.643 253.635 193.138 253.738 186.633C253.841 183.123 253.429 179.819 253.017 176.411C252.604 173.004 252.81 169.39 252.604 165.983C252.398 162.472 252.707 159.168 252.707 155.761C252.707 152.043 252.604 148.326 252.501 144.609C252.501 138.001 252.707 131.393 252.192 124.888C251.883 121.584 251.573 118.383 251.573 114.975C251.573 112.187 251.367 109.296 250.955 106.509C250.955 106.199 250.852 105.786 250.852 105.476C252.089 105.476 253.326 105.579 254.46 105.579C255.284 105.579 256.212 105.682 257.037 105.579C257.758 105.476 258.377 105.269 259.202 105.269C259.717 105.269 260.439 104.547 260.954 103.824C261.469 103.617 262.088 102.895 262.088 102.482C262.088 98.3515 262.81 94.2213 262.294 89.9879C262.81 89.0586 262.913 88.0261 261.779 88.0261C259.614 88.0261 258.068 88.1294 256.109 88.9554C254.047 89.7814 252.089 89.5749 250.027 89.6782C249.924 88.3359 249.924 86.9936 249.821 85.7545C249.615 82.5537 248.893 79.5593 248.79 76.2552C248.79 74.6031 248.893 72.8478 248.687 71.1958C248.584 69.9567 248.172 68.7177 247.965 67.4786C249.512 67.6851 250.955 68.2014 252.398 67.5819C252.707 67.4786 253.223 66.9624 253.429 66.5493C253.944 65.9298 254.357 65.207 254.254 64.5875C253.944 63.6582 253.944 62.729 253.841 61.7997C253.738 60.9736 253.635 60.0444 253.532 59.2183C257.449 59.2183 261.469 59.2183 265.387 59.1151C265.49 59.1151 265.593 59.1151 265.696 59.0118C265.696 59.1151 265.696 59.3216 265.696 59.4248C265.696 60.8704 267.758 59.1151 267.964 58.5988C269.201 55.5012 270.129 52.3003 271.572 49.306C272.396 47.4474 272.603 45.8986 273.118 43.9368C273.53 42.4912 274.046 41.0457 273.943 39.6001C275.077 39.3936 276.211 39.1871 277.344 38.9806C281.468 38.2578 285.9 37.7416 289.818 36.1928C290.745 35.7797 291.776 35.057 292.292 34.0244C293.116 32.9919 293.426 31.5463 294.044 29.9975C295.075 27.1064 296.621 24.4218 297.446 21.4275C298.58 17.4006 300.848 14.0965 302.497 10.3793C303.528 8.10776 303.734 5.31991 304.971 3.15158C305.28 2.63532 305.59 2.11905 305.693 1.60278C306.414 0.466989 305.796 -0.35904 304.559 0.157228ZM88.3907 131.289C88.2876 131.186 88.3907 131.186 88.4937 131.083C88.4937 131.083 88.4937 131.186 88.3907 131.289ZM67.1553 231.445C67.3614 229.071 67.4645 226.593 67.5676 224.114C69.1139 224.011 70.3509 224.011 72.0002 224.321C73.3403 224.631 74.6804 224.631 76.0205 224.631C79.7316 224.631 83.4426 224.114 87.2567 224.321C87.8752 224.321 88.4937 223.701 88.9061 222.979C88.9061 223.908 88.9061 224.837 88.9061 225.767C88.6999 228.864 88.2876 231.858 88.1845 234.956C87.8752 244.972 88.6999 254.781 88.6999 264.796C87.3598 265.003 86.1228 265.622 84.7827 266.035C82.8241 266.758 81.0717 266.345 79.01 266.139C74.9897 265.726 71.0725 265.622 67.1553 265.932C67.2583 265.726 67.2583 265.622 67.2583 265.416C67.1553 253.955 66.0213 242.803 67.1553 231.445ZM227.039 238.157C226.936 238.054 227.039 237.95 227.142 237.95C227.142 237.95 227.142 238.054 227.039 238.157ZM64.0627 96.1831C63.6504 97.9385 63.5473 99.5905 63.4442 101.346C60.9702 101.449 58.5993 101.862 56.1252 101.243C53.2389 100.52 50.4556 100.21 47.4661 100.52C47.4661 100.417 47.363 100.417 47.26 100.313C46.3322 98.8677 46.4353 97.732 46.3322 96.0799C46.2291 94.9441 46.023 93.9116 46.126 92.7758C46.126 92.3628 46.2291 92.053 46.2291 91.7432C48.6001 91.9498 50.971 92.2595 53.445 92.2595C56.9499 92.2595 60.5579 91.8465 63.9596 92.5693C64.0627 92.5693 64.1658 92.5693 64.2689 92.5693C64.372 93.8083 64.2689 95.0474 64.0627 96.1831ZM89.3184 120.035C89.2153 119.931 89.3184 119.725 89.4215 119.622C89.6277 119.725 89.5246 119.828 89.3184 120.035ZM85.5043 65.207C83.7519 65.0005 81.7933 65.207 80.1439 65.207C73.3403 65.207 66.5368 63.2452 59.7332 63.968C59.6301 63.0387 59.0116 62.3159 59.0116 61.2834C59.0116 60.6639 58.9085 59.9411 58.7023 59.3216C61.4856 59.6313 64.1658 59.9411 66.9491 60.0444C74.4743 60.1476 81.9994 60.3541 89.4215 60.6639C90.7616 60.7671 92.2048 60.7671 93.5449 60.6639C93.5449 61.9029 93.5449 64.8973 93.1325 65.5168C93.2356 65.3103 90.3493 65.8266 89.7308 65.8266C88.2876 65.9298 86.9475 65.4136 85.5043 65.207ZM90.5554 89.8847C90.4523 86.5806 90.5554 83.2764 90.2462 79.9723C90.04 78.0105 90.2462 76.0487 89.9369 73.9836C89.6277 71.9185 89.8338 69.8535 89.6277 67.7884C90.9678 67.6851 92.3079 67.4786 93.3387 67.0656C95.4004 66.1363 95.7096 63.0387 95.9158 60.6639C100.761 60.4574 105.709 60.0444 110.554 60.3541C116.739 60.8704 122.924 61.1801 129.109 61.1801C133.129 61.1801 137.047 61.3867 140.964 61.4899C140.345 65.8266 141.17 70.3697 140.861 74.8096C140.551 79.3528 141.067 83.896 140.964 88.3359C139.108 88.4391 137.356 88.6456 135.5 88.6456C131.171 88.6456 127.047 89.1619 122.718 89.1619C117.564 89.1619 112.409 88.6456 107.255 88.5424C104.575 88.5424 102.41 89.1619 99.833 89.3684C96.9467 89.5749 94.0603 89.2652 91.1739 89.4717C90.9678 89.5749 90.7616 89.7814 90.5554 89.8847ZM224.153 100.52C224.256 101.759 224.256 102.998 224.359 104.237C220.236 104.237 215.906 104.134 211.886 104.753C209.309 105.166 206.629 104.65 204.051 104.237C202.505 104.03 201.371 103.617 199.825 104.134C196.114 105.269 191.372 104.237 187.558 103.927C185.084 103.721 182.61 104.03 180.239 104.03C177.765 104.03 175.394 103.617 172.92 103.721C170.24 103.824 167.972 103.721 165.292 103.204C163.333 102.791 161.271 102.895 159.313 102.895C154.88 102.895 150.447 103.617 146.118 103.308C141.995 102.998 137.871 102.998 133.748 102.998C129.728 102.998 125.81 102.172 121.687 102.482C116.43 102.895 111.069 102.895 105.812 102.791C100.761 102.688 95.7097 102.172 90.6585 101.965C90.6585 98.8677 90.8647 95.6669 90.6585 92.466C90.6585 92.2595 90.6585 92.053 90.6585 91.8465C92.6171 91.9498 94.5757 92.053 96.6374 92.1562C99.1114 92.3628 101.379 91.7432 103.75 91.8465C107.874 91.9498 111.894 92.3628 116.017 92.466C120.45 92.5693 124.883 92.6725 129.315 92.1562C133.542 91.64 137.871 91.8465 142.201 91.4335C146.736 90.9172 151.375 91.64 155.911 91.7432C160.344 91.7432 164.57 91.9498 168.9 92.2595C172.817 92.466 176.528 93.6018 180.445 93.6018C185.29 93.6018 190.032 93.4986 194.877 93.6018C199.619 93.7051 204.258 93.0855 208.999 92.5693C213.638 92.053 218.689 93.3953 223.431 93.4986C223.844 93.4986 224.256 93.292 224.668 92.9823C224.565 95.4604 224.05 98.0417 224.153 100.52ZM166.426 67.6851C166.426 70.3697 166.529 73.1576 166.632 75.8422C166.735 78.5268 167.147 81.2114 167.044 83.7927C167.044 85.2383 166.941 86.7871 167.044 88.3359C165.498 88.2326 163.952 88.2326 162.405 88.3359C157.457 88.4391 152.509 88.0261 147.561 88.0261C146.324 88.0261 145.087 88.1294 143.85 88.1294C143.953 88.0261 143.953 87.8196 143.953 87.7163C144.056 83.0699 143.232 78.63 143.232 73.9836C143.232 71.712 143.232 69.7502 142.819 67.4786C142.51 65.4136 142.922 63.4517 142.922 61.3867C145.706 61.2834 148.283 60.7671 151.066 60.5606C153.025 60.4574 154.983 60.8704 156.942 60.8704C158.9 60.8704 160.962 60.7671 162.921 60.7671C164.055 60.7671 165.189 60.8704 166.323 60.9736C166.116 63.3485 166.323 65.5168 166.426 67.6851ZM217.968 65.8266C218.586 66.9623 218.896 66.7559 220.339 66.7559C221.473 66.7559 222.607 66.8591 223.741 66.8591C223.225 69.0274 223.947 71.1958 223.947 73.3641C223.947 76.6682 224.05 79.9723 223.947 83.3797C223.947 85.4448 224.153 87.3033 224.359 89.2652C220.545 89.2652 216.731 88.8521 212.917 88.7489C208.69 88.6456 204.361 89.7814 200.134 89.9879C195.599 90.1944 191.063 89.8847 186.527 89.8847C182.198 89.8847 177.662 89.7814 173.332 88.9554C172.301 88.7489 171.374 88.6456 170.343 88.5424C170.343 88.3359 170.343 88.2326 170.24 88.0261C169.415 85.8578 169.724 83.1732 169.415 80.9016C169.106 78.5268 168.487 76.4617 168.59 73.9836C168.797 69.6469 168.797 65.3103 168.384 61.0769C168.487 61.0769 168.59 61.0769 168.59 61.0769C170.343 60.9736 172.095 60.5606 173.951 60.4574C177.559 60.2509 181.27 60.8704 184.878 60.7671C188.795 60.7671 192.609 60.6639 196.526 60.4574C203.536 60.2509 210.546 60.4574 217.555 60.4574C217.452 60.5606 217.452 60.6639 217.452 60.7671C217.349 62.3159 217.246 64.4843 217.968 65.8266ZM254.666 92.3628C255.697 92.053 256.521 91.64 257.552 91.4335C258.48 91.3302 259.511 91.4335 260.439 91.5367C259.717 94.8409 260.439 98.558 260.851 101.965C260.439 101.965 260.129 101.965 259.717 102.069C258.789 102.172 257.862 102.069 256.831 102.172C254.975 102.482 253.12 102.378 251.161 102.585C250.955 100.004 250.955 97.3189 250.852 94.8409C250.852 94.0148 250.749 93.292 250.749 92.466C252.089 92.6725 253.429 92.7758 254.666 92.3628ZM249.202 120.654C249.615 123.649 249.512 126.643 249.924 129.637C250.336 133.251 250.749 136.762 250.749 140.376C250.749 147.707 250.646 154.934 250.233 162.162C250.027 165.776 250.027 169.493 249.924 173.107C249.821 176.824 250.543 180.232 250.852 183.846C251.058 187.046 250.543 190.144 251.058 193.345C251.573 196.855 252.295 200.573 252.398 204.083C252.501 206.871 252.192 209.556 251.986 212.344C251.78 216.061 252.089 219.881 252.089 223.598C252.089 224.218 252.089 224.94 252.089 225.56C250.027 225.663 248.068 225.87 246.007 225.973C243.739 225.973 241.677 225.354 239.512 225.147C237.76 224.94 235.801 224.94 234.049 225.25C231.884 225.56 229.926 225.25 227.864 225.353C227.864 225.044 227.864 224.734 227.967 224.424C228.07 224.114 227.967 223.598 227.864 223.288C227.864 223.185 227.761 223.185 227.658 223.185C227.761 219.571 227.864 216.061 227.555 212.447C227.349 210.278 227.039 208.007 227.039 205.839C226.936 203.051 228.173 200.366 228.07 197.578C227.864 192.622 227.349 187.666 227.245 182.71C227.142 177.65 227.452 172.488 227.658 167.531C227.864 162.059 226.73 156.587 227.142 151.011C227.349 148.533 227.245 146.158 227.039 143.68C226.936 142.234 226.73 140.685 226.627 139.137C226.524 137.485 226.833 135.936 226.73 134.284C226.318 128.915 226.111 122.823 226.833 117.557C227.452 113.014 227.658 108.161 227.555 103.514C227.452 100.83 227.245 97.9385 226.936 95.2539C226.833 94.0148 226.215 92.879 225.905 91.7432C225.802 91.5367 225.802 91.3302 225.802 91.1237C226.215 90.2977 226.318 89.4717 225.493 89.2652C225.39 88.5424 225.39 87.7163 225.39 86.9936C225.39 83.4829 225.493 79.9723 225.699 76.4617C225.802 74.6031 225.905 72.8478 225.905 70.9893C225.905 69.6469 225.596 68.2014 225.596 66.8591C227.761 67.0656 230.029 67.3754 232.193 67.5819C235.389 67.7884 238.791 67.6851 241.986 67.4786C243.636 67.3754 245.182 67.0656 246.831 67.0656V67.1689C246.728 69.8535 247.244 72.4348 247.244 75.0161C247.244 78.0105 247.347 80.7983 247.656 83.7927C247.862 86.374 247.553 88.8521 247.553 91.4335C247.45 91.7432 247.45 92.053 247.553 92.1562C247.553 92.2595 247.553 92.3628 247.553 92.466C247.759 95.8734 247.347 99.1775 247.45 102.585C247.965 108.78 248.481 114.769 249.202 120.654ZM252.192 60.0444C252.089 61.5932 251.78 63.142 251.676 64.6908C250.13 64.381 248.275 64.4843 247.244 64.5875C243.945 64.794 240.749 65.5168 237.554 65.8266C233.74 66.2396 230.029 65.0005 226.215 64.794C225.081 64.794 221.885 64.794 220.854 64.1745C220.03 63.6582 219.72 61.9029 219.514 60.6639C223.225 60.6639 227.039 60.7671 230.75 60.4574C234.564 60.1476 238.379 59.6313 242.296 59.4248C245.801 59.2183 249.305 59.1151 252.913 59.1151C252.501 59.4248 252.192 59.7346 252.192 60.0444ZM271.366 40.8392C270.025 44.5563 269.613 48.3767 268.479 52.0938C268.17 53.1264 267.758 54.1589 267.345 55.1914C263.84 55.1914 260.439 54.9849 256.934 55.2947C253.532 55.6045 250.13 55.7077 246.728 55.7077C239.822 55.811 233.018 56.9468 226.111 57.05C218.793 57.1533 211.577 56.7402 204.258 56.8435C196.836 56.9467 189.517 57.5663 182.094 57.3598C178.28 57.2565 174.775 57.876 171.064 58.0825C167.147 58.289 162.921 58.1858 158.9 58.0825C156.942 58.0825 154.983 57.6695 153.025 57.7728C151.169 57.876 149.52 58.3923 147.664 58.5988C144.159 59.0118 140.758 58.3923 137.253 58.289C133.129 58.1858 129.109 58.7021 124.986 58.4956C122.099 58.3923 119.213 57.7728 116.327 57.9793C113.028 58.0825 109.832 57.876 106.534 57.9793C103.029 58.0825 99.4207 58.289 95.8127 58.289C91.8955 58.289 88.0814 57.463 84.2673 57.463C80.0408 57.463 76.0205 56.7402 71.8971 56.8435C67.2583 56.8435 62.6195 56.0175 57.9807 55.9142C54.2697 55.9142 50.5587 56.3272 46.8476 56.4305C46.8476 56.4305 46.8476 56.3272 46.7445 56.3272C44.5798 53.7459 43.8582 49.8222 42.0027 47.0344C41.0749 45.6921 40.3533 44.3498 39.6317 42.9042C39.5286 42.6977 39.4255 42.4912 39.2194 42.2847C41.178 42.388 43.0335 42.4912 44.9921 42.0782C49.1155 41.3554 52.8265 43.8335 56.9499 44.04C59.3208 44.1433 61.5887 44.1433 63.9596 44.6596C66.3306 45.1758 68.4954 45.4856 70.9694 45.4856C76.2267 45.4856 81.3809 45.7953 86.6382 45.7953C91.277 45.6921 95.8127 46.3116 100.452 46.5181C102.616 46.6214 104.781 46.8279 106.946 46.9311C109.008 47.0344 110.966 47.6539 113.028 47.7572C115.605 47.8604 118.079 47.5507 120.553 48.0669C122.718 48.5832 124.676 48.1702 126.841 47.8604C132.098 47.0344 137.665 47.3442 143.025 47.2409C148.386 47.2409 154.262 46.4149 159.622 47.1376C164.055 47.6539 168.281 46.4149 172.714 46.5181C182.404 46.6214 191.991 46.7246 201.68 46.6214C206.319 46.5181 210.855 45.5888 215.494 45.3823C219.926 45.1758 224.256 45.5888 228.586 44.2465C233.946 42.5945 239.719 42.9043 245.285 42.801C248.068 42.801 250.543 41.8717 253.326 41.562C256.006 41.2522 258.789 41.2522 261.573 41.2522C264.871 41.1489 268.376 40.6327 271.675 40.0131C271.572 40.4262 271.366 40.6327 271.366 40.8392ZM300.332 7.90125C299.817 9.1403 299.405 10.4826 299.405 11.8249C299.405 13.9932 298.889 15.2323 297.858 17.0908C296.415 19.6722 295.59 22.7698 294.353 25.5576C293.632 27.2097 292.91 28.7585 291.982 30.3073C291.776 30.7203 291.57 31.1333 291.364 31.4431C288.065 32.7854 284.251 33.3017 280.746 33.9212C275.901 34.7472 271.159 35.7797 266.314 36.709C261.469 37.5351 256.625 37.2253 251.883 38.3611C247.244 39.3936 242.605 39.4969 237.76 39.8066C235.698 39.9099 233.534 40.2197 231.472 40.7359C229.101 41.2522 226.936 42.388 224.359 42.5945C219.823 43.0075 215.185 41.975 210.752 42.5945C206.422 43.214 202.093 43.0075 197.763 43.1108C195.598 43.1108 193.434 43.214 191.269 43.214C188.898 43.214 186.63 42.801 184.259 42.9042C179.517 43.0075 174.672 42.6977 170.034 43.0075C167.663 43.214 165.395 44.04 163.024 43.7303C160.859 43.4205 158.9 43.4205 156.736 43.5238C146.427 44.04 136.222 43.627 126.016 45.0726C123.852 45.3823 121.79 44.5563 119.625 44.5563C117.048 44.6596 114.677 44.6596 112.1 44.2465C107.977 43.5238 103.853 43.7303 99.7299 43.3173C90.2462 42.4912 80.7624 42.6977 71.2786 42.5945C68.5984 42.5945 66.0213 41.7685 63.3411 41.4587C60.764 41.1489 58.1869 41.562 55.6098 41.1489C53.5481 40.7359 51.7957 39.6001 49.734 39.1871C47.7754 38.8774 45.9199 39.7034 43.9613 39.6001C39.7348 39.2904 35.5083 38.2578 31.1788 38.0513C28.9109 37.9481 26.9523 37.0188 24.6845 36.9155C24.066 36.9155 20.458 37.0188 20.5611 36.0895C20.5611 35.3667 20.1488 35.1602 19.6333 35.2635C19.221 34.3342 18.6025 33.5082 18.0871 32.6821C17.4686 31.4431 16.85 30.204 16.0254 29.0683C14.9945 27.726 13.8606 26.5902 13.0359 25.0414C12.2112 23.5958 12.0051 22.2535 11.3866 20.7047C10.8712 19.2592 10.0465 18.3299 9.2218 17.1941C8.39712 16.0583 7.8817 14.716 7.16011 13.5802C6.02618 11.8249 4.89225 10.0696 3.86141 8.21101C6.43852 9.96633 9.11871 11.4119 12.3143 11.7216C17.0562 12.3412 21.7981 13.5802 26.6431 13.9932C32.1065 14.5095 37.3639 16.1615 42.8273 17.1941C47.5692 18.1234 52.8265 18.0201 57.3622 19.7754C61.3825 21.3242 64.9905 22.5633 69.4231 22.7698C72.0002 22.873 74.4743 23.3893 77.0514 24.0088C79.7316 24.6283 82.3087 24.5251 84.9889 24.8349C89.3184 25.2479 93.648 25.6609 98.0806 25.5576C103.132 25.3511 108.183 26.2804 113.337 26.3837C119.11 26.5902 124.883 26.0739 130.552 26.4869C135.706 26.8999 140.758 28.139 145.912 28.0357C148.283 28.0357 150.551 27.6227 152.922 27.5195C155.911 27.5195 158.9 27.5195 161.787 27.5195C167.25 27.5195 172.92 28.0357 178.383 27.3129C183.022 26.6934 187.661 26.5902 192.3 26.1772C194.568 25.9706 196.836 25.8674 199 25.5576C201.68 25.2479 204.361 25.6609 207.041 25.1446C212.195 24.1121 217.246 23.1828 222.504 22.5633C224.874 22.2535 227.245 22.3568 229.616 21.9438C232.503 21.3242 235.492 21.0145 238.379 20.3949C241.265 19.7754 243.945 19.0527 246.935 18.6396C249.821 18.2266 252.501 17.2973 255.181 16.2648C260.748 14.1997 266.521 14.5095 272.087 12.8574C274.767 12.0314 277.241 10.8956 280.128 10.5858C282.808 10.2761 285.488 10.3793 288.168 9.96633C290.745 9.55331 293.323 9.24355 295.797 8.52078C297.858 7.90125 299.611 6.86872 301.466 5.93943C300.848 6.55896 300.642 7.28173 300.332 7.90125ZM89.4215 125.507C89.5246 125.507 89.5246 125.404 89.5246 125.404V125.61C89.4215 125.61 89.4215 125.61 89.4215 125.507ZM89.5246 124.991C89.5246 124.888 89.5246 124.888 89.5246 124.784C89.5246 124.888 89.5246 124.991 89.5246 124.991ZM89.5246 124.991V125.094H89.4215C89.4215 125.094 89.4215 125.094 89.5246 124.991ZM89.3184 125.197C89.3184 125.197 89.4215 125.197 89.4215 125.094C89.3184 125.197 89.3184 125.197 89.3184 125.197ZM88.2876 124.784C88.2876 124.371 88.1845 124.062 88.1845 123.649C88.1845 123.339 88.4937 123.855 88.5968 124.062C88.6999 124.165 88.2876 124.268 88.3907 124.371C88.3907 124.578 88.4937 124.681 88.5968 124.888C88.6999 124.991 88.3907 124.991 88.3907 124.991C88.4937 125.301 88.803 125.507 88.6999 125.61C88.6999 125.714 88.5968 125.817 88.5968 125.92C88.5968 125.817 88.5968 125.714 88.5968 125.61C88.4937 125.404 88.3907 125.094 88.2876 124.784ZM89.2153 127.263L89.3184 127.366C89.3184 127.469 89.2153 127.469 89.1122 127.469C89.1122 127.263 89.1123 127.056 89.3184 126.849C89.2153 126.953 89.2153 126.953 89.1122 126.849L89.2153 126.746C89.3184 126.849 89.4215 127.056 89.2153 127.263ZM88.1845 127.985C88.1845 128.089 88.1845 128.089 88.1845 127.985V127.985ZM88.6999 128.811C88.6999 128.811 88.803 128.708 88.803 128.605C88.803 128.502 88.6999 128.398 88.6999 128.295C88.6999 128.295 88.803 128.295 88.803 128.192C88.803 128.089 88.5968 127.985 88.5968 127.882L88.6999 127.676V127.779C88.803 127.985 88.9061 128.089 88.9061 128.295C88.9061 128.502 89.0092 128.605 89.0092 128.915C88.9061 129.121 88.6999 128.915 88.6999 128.811ZM88.2876 127.366C88.1845 127.263 88.0814 127.263 88.1845 127.056C88.1845 127.056 88.1845 127.056 88.0814 126.953H88.1845C88.2876 127.056 88.2876 127.263 88.2876 127.366C88.2876 127.263 88.1845 127.263 88.2876 127.366ZM226.73 234.646C226.73 234.543 226.73 234.543 226.73 234.646V234.646ZM226.73 234.956C226.73 234.853 226.73 234.853 226.73 234.956V234.956ZM227.142 234.44C227.245 234.646 227.245 234.853 227.349 235.059C227.349 235.266 227.452 235.472 227.452 235.679C227.452 235.885 227.245 235.576 227.245 235.472C227.245 235.472 227.349 235.369 227.349 235.266C227.349 235.163 227.245 235.059 227.245 234.956C227.245 234.956 227.349 234.956 227.349 234.853C227.245 234.75 227.039 234.646 227.142 234.44V234.233C227.142 234.337 227.142 234.44 227.142 234.44ZM226.833 233.924C226.73 233.82 226.627 233.717 226.73 233.614C226.73 233.614 226.73 233.614 226.627 233.511H226.73C226.833 233.614 226.833 233.717 226.833 233.924C226.833 233.82 226.73 233.82 226.833 233.924ZM226.833 233.511C226.73 233.407 226.73 233.407 226.833 233.511V233.511ZM226.73 232.581C226.73 232.685 226.833 232.788 226.833 232.788H226.73C226.73 232.891 226.936 232.994 226.936 233.098L226.833 233.304V233.201C226.73 233.098 226.73 232.891 226.627 232.788C226.627 232.581 226.627 232.478 226.627 232.271C226.627 232.168 226.833 232.375 226.833 232.478C226.833 232.478 226.627 232.478 226.73 232.581ZM227.039 233.924C227.039 233.82 227.039 233.717 227.142 233.614C227.142 233.717 227.245 233.82 227.039 233.924C227.142 233.82 227.142 233.924 227.142 233.924C227.142 233.924 227.142 233.924 227.039 233.924ZM227.039 233.924C227.039 234.027 227.039 234.027 227.039 233.924V233.924Z" fill="#393939"/>
</svg>
