<svg width="313" height="384" viewBox="0 0 313 384" fill="none" xmlns="http://www.w3.org/2000/svg">
<path d="M34.1308 305.663C31.5362 304.565 29.1412 303.168 27.8439 301.371C27.8439 301.371 28.6422 294.985 29.4405 289.396C32.1349 270.735 34.8293 252.274 37.5237 233.613C38.0227 229.821 38.0227 224.532 40.2181 221.438C40.6173 220.839 41.1162 220.34 41.6152 219.841C42.8127 218.644 44.11 217.746 45.5071 216.748C56.085 209.463 67.2617 204.573 79.0372 200.382C79.2368 199.584 90.4135 195.991 94.2056 194.793C97.1994 193.895 103.586 191.9 104.484 191.7C104.584 191.7 104.584 191.7 104.584 191.7C103.187 186.81 102.089 182.22 102.089 182.22C102.089 182.22 98.0975 180.922 94.4052 178.527C91.0123 176.132 87.7191 172.44 87.7191 172.44C87.7191 172.44 99.0954 164.357 105.782 147.292C110.771 134.918 108.476 121.047 118.156 112.665C121.848 109.671 129.532 107.675 136.218 105.979C142.206 104.282 147.894 99.8912 150.888 100.29C158.572 100.989 161.166 105.779 167.653 115.359C176.434 131.126 191.902 135.317 198.289 149.687C202.28 158.369 202.081 162.66 202.779 170.344C202.979 175.035 204.576 180.823 205.474 183.617C205.773 184.615 205.973 185.313 205.973 185.313L204.077 191.7C205.873 191.7 207.669 192.099 209.465 192.698C214.455 193.496 220.942 194.893 223.836 196.59C227.229 197.388 230.621 198.087 234.014 198.885C237.607 199.783 241.199 200.881 244.892 201.879C243.295 191.401 248.883 182.02 248.883 181.222C249.283 172.041 240.8 164.956 240.002 153.28C239.503 146.594 239.902 139.01 238.705 132.523C236.11 118.951 232.717 105.979 228.825 95.9993C226.43 89.7124 222.339 84.4234 220.143 80.9307C204.476 56.3818 183.12 49.596 163.661 46.5024C147.894 44.1074 136.418 45.6043 124.043 48.3985C117.357 49.8953 92.6089 57.6791 93.6069 95.9993C93.6069 95.9993 86.0227 94.8018 82.4301 99.8912C78.2389 105.779 72.0518 129.33 72.0518 129.33C72.0518 129.33 66.0642 146.793 60.6755 168.548C58.7794 175.733 46.8044 198.286 45.1079 200.981C34.1308 218.744 21.9561 226.727 13.374 242.394C0.401044 261.355 -3.29126 289.297 13.0746 307.459C8.08504 297.779 10.8792 286.203 14.0726 275.825C13.2742 283.01 15.5694 289.995 18.7628 296.182C23.8522 306.261 22.7545 313.047 22.0559 321.729C26.0476 318.935 31.5362 315.043 33.3324 310.053C33.8314 308.656 34.3304 307.359 34.9291 306.062C34.4302 305.762 34.2306 305.663 34.1308 305.663Z" fill="#EA4F39"/>
<path d="M13.4738 308.458C13.2742 308.458 13.0746 308.358 12.8751 308.258C-3.29126 290.795 -3.09168 267.743 13.6734 239.701C17.5653 233.215 22.5549 226.928 28.5424 220.84C50.1973 199.086 59.6776 169.647 66.0642 143.701C66.164 143.302 66.5632 143.003 66.9624 143.102C67.3615 143.202 67.6609 143.601 67.5611 144C61.0746 170.146 51.5944 199.884 29.6401 221.838C23.7524 227.726 18.7628 234.013 14.9707 240.4C-0.39729 266.146 -1.5948 287.601 11.3782 304.067C8.88337 295.684 9.28254 286.304 12.6755 276.824C12.7753 276.425 13.2742 276.225 13.6734 276.325C14.0726 276.425 14.2721 276.924 14.1724 277.323C10.48 288 10.48 298.379 14.2721 307.36C14.3719 307.66 14.2721 308.059 13.9728 308.258C13.7732 308.358 13.6734 308.458 13.4738 308.458Z" fill="black"/>
<path d="M198.089 149.489C191.702 135.019 176.235 130.828 167.453 115.161C160.967 105.581 158.372 100.791 150.688 100.092C147.694 99.7927 142.106 104.084 136.018 105.78C129.332 107.477 121.648 109.473 117.956 112.466C108.276 120.849 110.572 134.72 105.582 147.094C98.8958 164.159 87.5195 172.242 87.5195 172.242C87.5195 172.242 90.9125 175.934 94.2056 178.329C97.8979 180.724 101.89 182.021 101.89 182.021C101.89 182.021 102.987 186.712 104.384 191.502C104.384 191.502 104.384 191.502 104.285 191.502C104.285 191.601 104.384 191.801 104.384 191.901C105.183 194.595 106.28 197.489 107.578 200.383C111.569 209.464 116.858 215.053 116.858 215.053C116.858 215.053 115.96 224.034 116.659 237.805C116.659 238.204 119.453 251.077 121.549 254.77C122.147 255.868 122.746 256.766 123.245 257.963C127.337 266.745 136.018 272.333 138.613 273.431C141.108 274.429 143.902 275.028 146.596 275.327C148.692 275.527 173.939 277.522 182.921 258.362C183.52 257.165 184.717 256.865 185.815 254.271C189.108 246.387 189.407 239.502 190.006 237.905C190.904 225.83 190.305 216.649 190.305 216.649C190.305 216.649 194.397 211.56 199.087 202.479C200.983 198.886 202.28 194.994 203.278 191.601C204.376 187.909 204.975 184.915 205.274 183.319C204.476 180.524 202.879 174.737 202.58 170.046C201.981 162.462 202.181 158.271 198.089 149.489Z" fill="#FFDDC0"/>
<path d="M287.603 231.718C292.991 238.903 298.48 246.187 302.571 254.171C310.056 268.641 313.549 282.711 310.056 301.273C309.058 306.362 308.16 312.05 304.966 316.142C301.773 320.233 297.981 323.327 290.796 321.231C295.686 315.144 298.58 306.162 294.788 299.177C294.588 306.262 293.291 314.146 287.403 318.038C288.002 313.248 288.501 306.462 286.106 303.568C283.411 308.058 280.617 312.848 280.817 318.038C281.016 323.626 284.709 327.817 288.401 331.909C284.409 333.006 281.914 332.308 278.721 331.809C278.023 331.709 277.424 330.811 276.925 330.412C276.426 330.013 276.127 329.414 275.927 328.815C272.235 320.133 273.732 310.254 273.033 300.774C272.035 286.204 265.848 272.532 261.357 258.562C259.561 252.873 257.964 246.886 258.364 240.898C258.563 237.505 259.361 234.113 260.26 230.819C261.258 227.027 262.156 223.235 263.154 219.343C263.952 216.35 266.447 209.564 267.345 206.57C267.644 205.672 270.937 209.464 272.434 211.46C274.829 214.653 277.224 217.846 279.719 221.04C281.116 222.836 282.413 224.632 283.811 226.429C284.409 227.526 287.603 230.52 287.603 231.718Z" fill="#EA4F39"/>
<mask id="mask0_84_3696" style="mask-type:luminance" maskUnits="userSpaceOnUse" x="26" y="190" width="256" height="194">
<path d="M281.016 190.502H26.846V383.999H281.016V190.502Z" fill="white"/>
</mask>
<g mask="url(#mask0_84_3696)">
<path d="M271.237 229.92C270.838 226.726 270.339 223.234 268.044 220.839C267.145 219.841 265.748 218.643 264.351 217.446C262.655 216.049 260.858 214.851 259.362 214.452C244.692 210.56 236.709 203.974 223.636 196.39C220.642 194.693 214.256 193.296 209.266 192.498C208.867 192.398 208.368 192.398 207.969 192.298C205.973 191.999 204.276 191.799 203.378 191.6C202.38 194.993 200.983 198.884 199.187 202.477C194.497 211.558 190.405 216.647 190.405 216.647C190.405 216.647 191.004 225.928 190.106 237.903C189.507 239.6 189.208 246.485 185.915 254.269C184.817 256.864 183.619 257.163 183.021 258.361C174.039 277.521 148.792 275.525 146.696 275.325C144.002 275.026 141.308 274.427 138.713 273.429C136.118 272.331 127.436 266.743 123.345 257.961C122.846 256.864 122.247 255.866 121.648 254.768C119.553 251.076 116.759 238.203 116.759 237.803C116.06 224.032 116.958 215.051 116.958 215.051C116.958 215.051 111.769 209.462 107.678 200.381C106.38 197.487 105.382 194.593 104.484 191.899C101.989 192.498 99.4946 193.396 96.9998 194.194C95.4032 194.693 93.9063 195.292 92.4094 195.691C87.819 197.088 83.4281 198.585 79.0372 200.182C67.2618 204.373 56.1849 209.263 45.5071 216.548C44.11 217.546 42.7129 218.444 41.6152 219.641C41.1163 220.14 40.6173 220.639 40.2181 221.238C38.0227 224.331 38.0227 229.62 37.5237 233.412C34.8293 252.074 32.135 270.535 29.4406 289.196C28.6422 294.685 27.8439 301.171 27.8439 301.171C29.1412 302.968 31.636 304.365 34.1308 305.462C34.2306 305.562 34.4302 305.562 34.53 305.662C37.4239 306.76 40.3179 307.458 42.1142 307.857C50.5965 309.654 55.5861 318.236 59.478 326.02C59.478 326.119 59.5778 326.219 59.5778 326.319C67.5612 342.286 75.5445 358.153 83.5279 374.119C84.426 375.916 84.6256 378.011 85.3242 379.708C86.1225 379.808 87.0206 379.907 87.819 380.007C109.873 382.502 135.12 383.999 161.964 383.999C181.324 383.999 199.985 383.2 217.05 381.903C224.634 381.304 231.819 380.606 238.804 379.708C240.9 378.111 242.596 376.115 243.894 373.72C246.788 368.132 246.189 361.446 246.488 355.159C246.788 346.178 248.983 337.296 251.179 328.614C251.578 327.217 252.077 325.62 252.676 324.124C255.17 318.036 259.561 311.45 263.952 307.558H264.052L280.717 301.171C280.817 301.171 273.532 248.78 271.237 229.92Z" fill="#619F9C"/>
</g>
<path d="M154.181 235.509C153.682 235.509 142.405 235.01 125.94 223.933C114.962 216.648 111.071 208.764 108.775 204.174L108.576 203.875C105.183 197.089 102.389 188.107 99.794 175.534C99.6942 175.135 99.9936 174.735 100.393 174.636C100.792 174.536 101.191 174.835 101.291 175.234C103.885 187.708 106.58 196.59 109.973 203.276L110.172 203.575C112.567 208.365 116.16 215.65 126.838 222.735C142.804 233.513 154.081 234.012 154.28 234.012C154.68 234.012 155.079 234.411 154.979 234.81C154.979 235.209 154.58 235.509 154.181 235.509Z" fill="black"/>
<path d="M154.48 235.51C154.081 235.51 153.682 235.21 153.682 234.711C153.682 234.212 153.981 233.913 154.48 233.913C154.58 233.913 164.26 233.714 180.226 223.335C191.702 215.651 196.692 207.468 198.688 203.177C201.482 197.888 202.779 193.098 204.576 186.412L204.975 184.815C205.075 184.416 205.474 184.217 205.873 184.316C206.272 184.416 206.472 184.815 206.372 185.215L205.973 186.811C204.176 193.298 202.779 198.487 199.985 203.876C197.989 208.267 192.8 216.749 181.025 224.632C164.659 235.41 154.979 235.51 154.48 235.51Z" fill="black"/>
<path d="M100.991 182.919C100.892 182.919 100.892 182.919 100.991 182.919C96.9998 182.52 91.0123 179.327 87.32 173.14C87.1204 172.741 87.2202 172.341 87.6194 172.142C88.0185 171.942 88.4177 172.042 88.6173 172.441C92.11 178.229 97.4988 181.123 101.091 181.422C101.49 181.422 101.79 181.822 101.79 182.221C101.69 182.62 101.291 182.919 100.991 182.919Z" fill="black"/>
<path d="M155.578 190.303C155.378 190.303 155.278 190.204 155.079 190.104C154.779 189.805 154.68 189.405 154.979 189.006C158.971 184.017 157.673 182.819 155.578 180.923C154.28 179.726 152.684 178.229 152.085 175.634C150.688 169.846 154.081 160.466 155.378 157.671C155.578 157.272 155.977 157.173 156.376 157.272C156.775 157.472 156.875 157.871 156.775 158.27C155.179 161.663 152.384 170.245 153.582 175.235C154.081 177.43 155.378 178.528 156.576 179.726C159.27 182.22 160.667 184.216 156.077 189.904C155.977 190.204 155.777 190.303 155.578 190.303Z" fill="black"/>
<path d="M119.752 140.008C119.553 140.008 119.253 139.908 119.154 139.708C118.954 139.409 118.954 138.91 119.353 138.611C119.653 138.411 126.838 133.422 136.517 137.513C136.917 137.713 137.116 138.112 136.917 138.511C136.717 138.91 136.318 139.11 135.919 138.91C127.037 135.118 120.351 139.808 120.251 139.808C120.052 140.008 119.852 140.008 119.752 140.008Z" fill="black"/>
<path d="M186.314 139.708C186.114 139.708 186.014 139.708 185.915 139.608C185.615 139.409 179.129 134.918 170.247 139.01C169.848 139.209 169.449 139.01 169.249 138.61C169.05 138.211 169.249 137.812 169.648 137.612C179.328 133.122 186.513 138.111 186.813 138.311C187.112 138.511 187.212 139.01 187.012 139.409C186.813 139.608 186.613 139.708 186.314 139.708Z" fill="black"/>
<path fill-rule="evenodd" clip-rule="evenodd" d="M116.26 214.553C116.26 214.553 137.416 233.214 154.879 233.513C168.251 233.813 187.312 218.445 187.312 218.445C187.312 218.445 167.852 241.596 150.189 244.291C142.705 245.388 134.522 241.497 128.035 237.106C120.551 232.016 116.16 223.534 116.26 214.553Z" fill="black"/>
<path d="M80.8335 176.532C80.5341 176.532 80.2347 176.332 80.1349 176.133C79.9354 175.733 80.1349 175.334 80.5341 175.135C85.4239 172.939 90.4135 169.247 95.4031 164.158C101.989 157.272 106.38 148.291 107.877 138.212C109.873 124.44 114.264 106.178 130.131 107.675C130.53 107.675 130.829 108.074 130.829 108.474C130.829 108.873 130.43 109.172 130.031 109.172C118.854 108.174 112.468 117.156 109.374 138.411C107.777 148.79 103.287 157.971 96.401 165.156C91.3117 170.445 86.1225 174.237 81.1329 176.532C81.0331 176.432 80.9333 176.532 80.8335 176.532Z" fill="black"/>
<path d="M71.8522 129.829H71.7524C71.3532 129.729 71.0539 129.33 71.1536 128.931C77.3408 94.1036 86.821 94.8022 91.4114 95.2014C92.11 95.3011 92.7087 95.3011 93.0081 95.2014C93.4073 95.0018 93.8064 95.1016 94.006 95.5007C94.2056 95.8999 94.006 96.2991 93.7067 96.4986C93.1079 96.798 92.3096 96.798 91.3117 96.6982C87.2202 96.3989 78.6381 95.7003 72.5507 129.23C72.4509 129.63 72.1516 129.829 71.8522 129.829Z" fill="black"/>
<mask id="mask1_84_3696" style="mask-type:luminance" maskUnits="userSpaceOnUse" x="92" y="44" width="221" height="280">
<path d="M312.551 44.1084H92.2098V323.327H312.551V44.1084Z" fill="white"/>
</mask>
<g mask="url(#mask1_84_3696)">
<path d="M294.888 322.729C292.293 322.729 290.497 321.831 290.397 321.831C289.998 321.631 289.898 321.232 290.098 320.833C290.297 320.434 290.696 320.334 291.095 320.533C291.295 320.633 295.386 322.629 299.777 319.935C304.368 317.14 310.056 308.957 311.054 285.107C309.457 258.363 289 233.315 270.937 211.061C257.266 194.197 244.293 178.23 241.898 164.259C239.004 158.271 238.904 153.781 238.705 147.494C238.705 146.695 238.705 145.997 238.605 145.199C238.405 138.213 237.307 131.028 235.511 123.943C234.912 121.747 234.414 119.452 233.815 117.357C228.127 94.0053 223.137 73.8473 189.607 54.5874C167.453 44.5084 132.027 42.1134 111.47 55.6851C99.5944 63.4689 93.7067 75.6435 94.006 91.8098C94.006 92.209 93.7067 92.6082 93.3075 92.6082C92.9083 92.6082 92.5092 92.3088 92.5092 91.9096C92.2098 75.2443 98.2971 62.6705 110.671 54.4876C131.727 40.6165 167.752 43.0115 190.405 53.2901C224.534 72.9491 229.524 93.4065 235.411 117.057C235.91 119.253 236.509 121.448 237.108 123.644C238.904 130.829 240.002 138.113 240.201 145.199C240.201 145.997 240.201 146.795 240.301 147.494C240.501 153.781 240.601 157.972 243.395 163.66C243.395 163.76 243.495 163.76 243.495 163.86C245.79 177.531 258.663 193.398 272.235 210.063C290.397 232.417 311.054 257.764 312.651 285.007C311.852 304.766 307.86 316.941 300.675 321.232C298.48 322.33 296.584 322.729 294.888 322.729Z" fill="black"/>
</g>
<path fill-rule="evenodd" clip-rule="evenodd" d="M123.046 164.657C123.046 161.265 125.041 158.67 128.035 158.67C130.73 158.67 133.025 161.364 133.025 164.657C133.025 168.05 130.73 170.745 128.035 170.745C125.041 170.745 123.046 168.05 123.046 164.657Z" fill="black"/>
<path fill-rule="evenodd" clip-rule="evenodd" d="M172.243 164.657C172.243 161.265 174.538 158.67 177.233 158.67C179.927 158.67 182.222 161.364 182.222 164.657C182.222 168.05 179.827 170.745 177.233 170.745C174.638 170.745 172.243 168.05 172.243 164.657Z" fill="black"/>
<path d="M221.84 199.684C221.74 199.684 221.74 199.684 221.64 199.684C206.472 195.094 202.779 184.017 201.682 167.85C200.684 152.083 194.596 144.1 190.206 139.41C187.91 136.815 184.917 134.62 182.023 132.424C178.231 129.63 174.339 126.636 171.744 122.844C169.349 119.651 167.553 116.557 165.856 113.863C163.761 110.37 161.964 107.376 159.769 105.281C156.077 101.688 150.788 98.2954 142.705 104.383C142.405 104.682 141.906 104.582 141.607 104.183C141.307 103.884 141.407 103.385 141.806 103.085C150.987 96.2995 157.075 100.391 160.867 104.183C163.162 106.478 165.058 109.572 167.154 113.065C168.75 115.759 170.646 118.853 172.942 121.946C175.536 125.539 179.328 128.433 182.921 131.127C185.815 133.322 188.908 135.618 191.303 138.312C195.894 143.102 202.181 151.385 203.179 167.651C204.177 183.218 207.669 193.796 222.039 198.187C222.438 198.287 222.638 198.686 222.538 199.085C222.438 199.385 222.139 199.684 221.84 199.684Z" fill="black"/>
<path fill-rule="evenodd" clip-rule="evenodd" d="M154.879 202.978C145.199 202.978 135.819 201.281 135.819 201.281C135.819 201.281 140.21 219.044 154.879 219.743C168.95 220.441 173.94 201.281 173.94 201.281C173.94 201.281 164.26 202.978 154.879 202.978Z" fill="white"/>
<path d="M136.817 202.179C138.114 205.971 143.004 218.345 154.879 218.944C166.256 219.543 171.544 206.17 172.842 202.179C169.948 202.578 162.264 203.676 154.879 203.676C147.195 203.676 139.711 202.678 136.817 202.179ZM155.578 220.541C155.278 220.541 155.079 220.541 154.779 220.541C139.611 219.842 135.021 201.68 135.021 201.48C134.921 201.181 135.021 200.981 135.22 200.782C135.42 200.582 135.619 200.482 135.919 200.582C136.019 200.582 145.299 202.279 154.879 202.279C164.06 202.279 173.74 200.582 173.84 200.582C174.139 200.582 174.339 200.582 174.538 200.782C174.738 200.981 174.738 201.281 174.738 201.48C174.638 201.68 169.549 220.541 155.578 220.541Z" fill="black"/>
<path d="M280.817 301.971C280.418 301.971 280.118 301.672 280.018 301.272C279.919 300.574 270.339 231.817 268.742 224.233C265.748 209.963 204.476 192.499 203.777 192.299C203.378 192.2 203.179 191.801 203.278 191.401C203.378 191.002 203.777 190.803 204.176 190.902C206.771 191.601 267.046 208.765 270.139 224.033C271.736 231.618 281.016 298.279 281.416 301.173C281.515 301.572 281.216 301.971 280.817 302.071C280.917 301.971 280.917 301.971 280.817 301.971Z" fill="black"/>
<path d="M27.7441 301.971H27.6443C27.2451 301.871 26.9457 301.572 27.0455 301.073C27.4447 298.279 36.7254 231.618 38.322 223.934C41.4156 208.765 101.79 191.601 104.285 190.803C104.684 190.703 105.083 190.903 105.183 191.302C105.283 191.701 105.083 192.1 104.684 192.2C104.085 192.399 42.7129 209.863 39.7191 224.133C38.1224 231.718 28.5424 300.474 28.4426 301.173C28.4426 301.672 28.1432 301.971 27.7441 301.971Z" fill="black"/>
<path d="M148.892 162.661C147.894 162.96 146.796 163.659 146.596 164.657C146.397 165.555 146.896 166.553 146.696 167.551C147.594 166.752 148.193 165.754 149.191 165.255C149.69 164.956 150.289 164.956 150.788 164.856C153.682 164.557 156.675 165.255 159.07 166.852C159.07 166.852 159.37 164.457 159.17 163.958C158.671 163.16 157.274 162.761 156.376 162.561C153.981 161.763 151.287 161.862 148.892 162.661Z" fill="#276668"/>
<path d="M151.287 276.324C150.788 276.324 150.389 276.324 149.89 276.324C140.809 276.125 133.224 272.732 127.636 266.345C112.368 249.081 115.461 215.95 115.561 214.553C115.561 214.154 115.96 213.854 116.359 213.854C116.759 213.854 117.058 214.254 117.058 214.653C117.058 214.952 113.964 248.582 128.734 265.347C134.122 271.435 141.208 274.628 149.89 274.827C162.463 275.127 172.243 271.335 179.029 263.651C193.698 246.985 189.507 217.247 189.407 216.948C189.307 216.549 189.607 216.15 190.006 216.05C190.405 215.95 190.804 216.25 190.904 216.649C190.904 216.948 195.295 247.484 180.127 264.649C173.341 272.333 163.661 276.324 151.287 276.324Z" fill="black"/>
<path d="M146.696 159.967C146.596 159.967 146.596 159.967 146.696 159.967C146.197 159.967 145.898 159.567 145.898 159.168C145.998 158.17 145.698 157.172 145 156.374C144.601 155.975 143.403 155.676 142.605 155.676L104.085 152.183C103.985 152.183 103.885 152.083 103.786 152.083C103.486 152.283 102.788 152.981 102.389 153.68C102.189 154.079 101.69 154.079 101.291 153.879C100.991 153.68 100.892 153.181 101.091 152.782C101.391 152.382 102.688 150.486 103.885 150.486C104.185 150.486 104.384 150.586 104.584 150.686L142.804 154.179C143.204 154.179 145.399 154.278 146.297 155.376C147.195 156.474 147.594 157.871 147.495 159.268C147.395 159.667 146.996 159.967 146.696 159.967Z" fill="black"/>
<path d="M159.07 161.165C158.671 161.165 158.372 160.865 158.272 160.466C158.172 159.169 158.572 157.173 159.47 155.976C160.368 154.778 161.565 154.479 162.863 154.179H162.962L202.181 150.687C202.28 150.687 202.38 150.687 202.48 150.687C203.777 150.986 204.775 152.283 204.875 153.181C204.875 153.58 204.576 153.98 204.177 153.98C203.777 153.98 203.378 153.68 203.378 153.281C203.378 153.082 202.879 152.383 202.28 152.183L163.262 155.676C162.064 155.976 161.366 156.175 160.767 156.874C160.168 157.672 159.769 159.269 159.869 160.267C159.869 160.766 159.569 161.165 159.07 161.165C159.17 161.165 159.17 161.165 159.07 161.165Z" fill="black"/>
<path d="M137.815 179.027C140.809 179.326 143.403 177.031 143.703 173.838L144.8 160.565C144.9 159.867 144.7 159.268 144.201 158.769C143.802 158.27 143.204 157.971 142.505 157.871L103.486 154.378L102.788 162.861C102.488 166.353 103.586 169.647 105.682 172.341C107.877 175.035 110.871 176.632 114.164 176.931L137.815 179.027ZM138.613 181.123C138.314 181.123 138.014 181.123 137.615 181.123L113.964 179.027C106.081 178.328 100.193 171.044 100.792 162.761L101.59 153.281C101.59 152.682 102.089 152.283 102.688 152.382L142.705 155.975C143.902 156.075 144.9 156.674 145.698 157.572C146.497 158.47 146.796 159.667 146.696 160.865L145.599 174.137C145.399 177.929 142.305 180.923 138.613 181.123Z" fill="#276668"/>
<path d="M137.915 178.329C139.112 178.429 140.31 178.03 141.208 177.232C142.206 176.433 142.804 175.136 142.904 173.839L144.002 160.566C144.002 160.067 143.902 159.668 143.603 159.269C143.303 158.87 142.904 158.67 142.505 158.67L104.185 155.177L103.586 162.861C103.287 166.155 104.285 169.248 106.28 171.743C108.276 174.238 111.071 175.735 114.264 176.034L137.915 178.329ZM138.314 179.826C138.114 179.826 137.915 179.826 137.815 179.826L114.164 177.731C110.671 177.431 107.478 175.735 105.183 172.841C102.888 170.047 101.79 166.454 102.089 162.861L102.788 154.379C102.788 154.18 102.888 153.98 103.087 153.88C103.287 153.78 103.486 153.681 103.686 153.681L142.705 157.173C143.603 157.273 144.301 157.672 144.9 158.371C145.399 159.069 145.698 159.868 145.599 160.766L144.501 174.038C144.401 175.834 143.603 177.331 142.206 178.429C141.108 179.327 139.711 179.826 138.314 179.826ZM102.588 153.082H102.488C102.488 153.082 102.389 153.182 102.389 153.281L101.59 162.762C100.992 170.545 106.58 177.531 114.064 178.13L137.715 180.225C138.014 180.225 138.314 180.225 138.613 180.225C141.906 180.026 144.601 177.331 144.9 173.938L145.998 160.666C146.098 159.668 145.798 158.67 145.1 157.872C144.501 157.074 143.603 156.674 142.605 156.575L102.588 153.082ZM138.314 181.822C138.114 181.822 137.815 181.822 137.615 181.822L113.964 179.726C105.682 178.928 99.3948 171.344 100.093 162.662L100.892 153.182C100.892 152.683 101.191 152.284 101.49 151.984C101.79 151.685 102.289 151.585 102.788 151.585L142.804 155.177C144.201 155.277 145.399 155.976 146.297 157.074C147.195 158.171 147.594 159.568 147.495 160.965L146.397 174.238C146.098 178.429 142.705 181.722 138.713 181.922C138.613 181.822 138.414 181.822 138.314 181.822Z" fill="black"/>
<path d="M146.696 159.967C146.596 159.967 146.596 159.967 146.696 159.967C146.197 159.967 145.898 159.567 145.898 159.168C145.998 158.17 145.698 157.172 145 156.374C144.601 155.975 143.403 155.676 142.605 155.676L104.085 152.183C103.985 152.183 103.885 152.083 103.786 152.083C103.486 152.283 102.788 152.981 102.389 153.68C102.189 154.079 101.69 154.079 101.291 153.879C100.991 153.68 100.892 153.181 101.091 152.782C101.391 152.382 102.688 150.486 103.885 150.486C104.185 150.486 104.384 150.586 104.584 150.686L142.804 154.179C143.204 154.179 145.399 154.278 146.297 155.376C147.195 156.474 147.594 157.871 147.495 159.268C147.395 159.667 146.996 159.967 146.696 159.967Z" fill="black"/>
<path d="M191.603 176.931C194.896 176.632 197.89 175.035 200.085 172.341C202.28 169.646 203.278 166.353 202.979 162.86L202.28 154.378L163.262 157.871C162.563 157.971 162.064 158.27 161.565 158.769C161.166 159.268 160.967 159.966 160.967 160.565L162.064 173.837C162.364 176.931 164.958 179.226 167.952 179.027L191.603 176.931ZM160.068 174.037L158.971 160.765C158.871 159.567 159.27 158.37 159.969 157.472C160.767 156.573 161.765 155.975 162.962 155.875L202.979 152.282C203.478 152.183 203.977 152.682 204.077 153.18L204.875 162.661C205.574 170.844 199.586 178.129 191.702 178.927L168.052 181.022C167.752 181.022 167.353 181.022 167.054 181.022C163.461 180.923 160.468 177.929 160.068 174.037Z" fill="#276668"/>
<path d="M201.582 155.276L163.362 158.769C162.962 158.769 162.563 159.069 162.264 159.368C161.964 159.767 161.865 160.166 161.865 160.665L162.962 173.938C163.062 175.235 163.661 176.432 164.659 177.331C165.557 178.129 166.754 178.528 167.952 178.428L191.603 176.333C194.696 176.033 197.49 174.536 199.586 172.042C201.582 169.547 202.58 166.353 202.28 163.16L201.582 155.276ZM167.453 179.825C166.056 179.825 164.659 179.326 163.561 178.428C162.264 177.331 161.466 175.734 161.266 174.037L160.168 160.765C160.068 159.867 160.368 159.069 160.867 158.37C161.466 157.671 162.164 157.272 163.062 157.173L202.081 153.68C202.28 153.68 202.48 153.68 202.68 153.879C202.879 153.979 202.979 154.179 202.979 154.378L203.678 162.861C203.977 166.453 202.879 170.046 200.584 172.84C198.289 175.634 195.095 177.331 191.603 177.73L167.952 179.825C167.852 179.825 167.653 179.825 167.453 179.825ZM160.867 174.037C161.166 177.53 163.861 180.224 167.154 180.324C167.453 180.324 167.752 180.324 168.052 180.324L191.703 178.229C199.187 177.53 204.775 170.644 204.177 162.861L203.378 153.38C203.378 153.281 203.278 153.181 203.278 153.181C203.278 153.181 203.179 153.081 203.179 153.181L163.162 156.773C162.164 156.873 161.366 157.372 160.667 158.071C160.068 158.869 159.769 159.867 159.769 160.865L160.867 174.037ZM167.453 181.821C167.353 181.821 167.253 181.821 167.054 181.821C162.962 181.622 159.669 178.328 159.37 174.137L158.272 160.865C158.172 159.468 158.572 158.071 159.47 156.973C160.368 155.875 161.565 155.177 162.962 155.077L202.979 151.484C203.478 151.484 203.877 151.584 204.276 151.884C204.675 152.183 204.875 152.582 204.875 153.081L205.673 162.561C206.372 171.243 200.185 178.827 191.802 179.626L168.152 181.721C167.952 181.821 167.653 181.821 167.453 181.821Z" fill="black"/>
<path d="M159.07 161.165C158.671 161.165 158.372 160.865 158.272 160.466C158.172 159.169 158.572 157.173 159.47 155.976C160.368 154.778 161.565 154.479 162.863 154.179H162.962L202.181 150.687C202.28 150.687 202.38 150.687 202.48 150.687C203.777 150.986 204.775 152.283 204.875 153.181C204.875 153.58 204.576 153.98 204.177 153.98C203.777 153.98 203.378 153.68 203.378 153.281C203.378 153.082 202.879 152.383 202.28 152.183L163.262 155.676C162.064 155.976 161.366 156.175 160.767 156.874C160.168 157.672 159.769 159.269 159.869 160.267C159.869 160.766 159.569 161.165 159.07 161.165C159.17 161.165 159.17 161.165 159.07 161.165Z" fill="black"/>
<path d="M147.195 164.957C147.095 165.256 147.095 165.556 146.996 165.855L147.095 165.755C147.395 165.456 148.991 163.859 152.784 163.859C155.179 163.859 157.174 164.657 158.472 165.356C158.472 165.057 158.372 164.757 158.372 164.458C157.574 163.36 155.678 162.861 152.584 162.861C149.89 162.861 148.093 163.56 147.195 164.957ZM146.197 168.35C145.998 168.35 145.698 168.25 145.599 168.05C145.399 167.851 145.1 167.452 145.798 164.458C145.798 164.358 145.898 164.158 145.998 164.059C147.195 162.262 149.391 161.364 152.684 161.364C158.172 161.364 159.37 163.161 159.769 163.659C159.869 163.759 159.969 163.959 159.969 164.059C160.168 165.256 160.368 166.553 160.368 166.753C160.468 167.052 160.368 167.352 160.168 167.551C159.869 167.851 159.47 167.851 159.17 167.551C159.07 167.452 156.576 165.356 152.983 165.356C149.69 165.356 148.393 166.653 148.293 166.753C148.193 166.853 148.093 166.953 147.994 167.052C147.195 167.951 146.696 168.35 146.197 168.35Z" fill="black"/>
<path d="M80.7337 168.848C81.2326 168.848 81.7316 168.748 82.1308 168.648C82.1308 168.648 86.9208 166.154 90.6131 164.058C90.3137 164.657 89.5154 166.952 89.3158 167.651C88.2181 171.443 88.5175 174.536 88.2181 178.528C87.9187 182.52 85.9229 186.91 82.031 187.709C80.6339 184.715 79.4364 180.524 78.1391 177.53C77.9395 176.931 80.8335 168.848 80.7337 168.848ZM99.0954 160.066C98.7961 159.468 98.3969 158.769 97.7981 158.47C99.295 156.075 100.692 152.582 99.794 149.488C98.9956 146.395 83.1287 153.081 77.7399 155.476C76.5424 155.975 75.5445 156.773 74.6464 157.771C71.8522 161.064 65.2659 168.748 64.3678 170.445C64.268 170.445 64.268 170.445 64.1682 170.345C63.9686 170.245 63.6692 170.046 63.4696 169.946L56.584 143.9C56.584 143.9 59.1786 120.149 57.8813 113.863C56.584 107.576 53.2909 108.873 51.1952 110.769C49.4987 112.366 45.3075 133.422 43.8106 140.707C43.5112 142.403 43.4114 144.1 43.7108 145.696L45.7066 159.068C45.7066 159.068 45.7067 159.068 45.6069 159.068L39.4197 149.389C39.4197 149.389 30.0393 127.135 27.6443 121.646C24.8501 115.16 17.4655 113.763 17.0663 118.453C16.8667 122.046 23.952 146.994 23.952 146.994L24.9499 147.892C24.8501 147.892 24.7503 147.991 24.6505 148.091C24.4509 147.792 24.2513 147.393 23.952 147.093C19.3615 140.208 13.2742 137.314 12.6755 142.004C12.2763 144.798 17.2659 156.474 21.2576 162.96C23.0538 165.854 30.3387 177.43 31.636 185.713C31.9353 187.809 33.532 193.397 35.6276 200.283C35.7274 202.378 36.426 204.474 37.0247 206.47C38.2222 210.262 39.8189 214.952 41.3158 219.842C45.8064 233.513 50.8958 248.382 51.0954 248.881C51.295 249.48 44.9083 283.11 40.717 307.659C38.5216 306.96 35.927 306.062 33.8314 305.563C33.1328 305.364 32.4343 305.264 31.8355 305.264C31.4364 307.26 31.5362 309.156 31.137 311.152C30.7378 313.048 30.0393 323.326 29.5403 326.42C29.1412 328.815 28.9416 331.21 28.742 333.605C28.3428 337.996 28.1432 342.387 27.6443 346.777C26.9457 353.563 26.1474 360.349 25.4489 367.035C39.5195 372.324 60.1765 376.615 85.0247 379.609C85.8231 379.709 86.7212 379.809 87.5195 379.908C87.2202 368.233 87.5195 356.557 86.7212 344.782C86.2222 337.796 85.8231 330.012 85.5237 322.029C84.3262 291.992 84.2264 258.96 84.426 250.278C86.9208 245.788 88.9166 241.796 90.7129 237.006C91.9104 233.912 93.0081 231.617 93.7066 228.424C94.6048 224.632 94.8044 220.84 95.1037 217.048C95.7025 209.064 96.1017 201.979 96.8002 194.295C97.0996 190.703 97.4987 187.11 97.8979 183.118C98.0975 181.222 99.1952 173.538 99.4946 171.443C100.293 166.752 100.592 163.26 99.0954 160.066Z" fill="#FFDDC0"/>
<path d="M83.7274 192C83.4281 192 83.1287 191.8 83.0289 191.501L77.4405 177.73C77.241 177.33 77.4405 176.931 77.8397 176.732C78.2389 176.532 78.638 176.732 78.8376 177.131L84.426 190.902C84.6256 191.301 84.426 191.7 84.0268 191.9C83.927 192 83.8272 192 83.7274 192Z" fill="black"/>
<path d="M78.1391 178.13C78.0393 178.13 77.9395 178.13 77.9395 178.13C77.5403 178.03 77.3407 177.531 77.4405 177.132L80.1349 168.55C80.2347 168.151 80.7337 167.951 81.1328 168.051C81.532 168.151 81.7316 168.65 81.6318 168.949L78.8376 177.631C78.7378 177.93 78.4385 178.13 78.1391 178.13Z" fill="black"/>
<path d="M68.2597 211.36C68.1599 211.36 68.1599 211.36 68.0601 211.36C67.6609 211.261 67.4613 210.861 67.5611 210.462C67.6609 210.263 69.058 205.173 74.1474 198.487L79.636 191.202C79.9354 190.903 80.3345 190.803 80.7337 191.103C81.0331 191.402 81.1329 191.801 80.8335 192.2L75.3449 199.485C70.4551 205.872 69.058 210.861 69.058 210.961C68.8584 211.161 68.5591 211.36 68.2597 211.36Z" fill="black"/>
<path d="M82.1308 188.108C81.8314 188.108 81.6318 188.008 81.4322 187.709C81.2327 187.309 81.3325 186.91 81.7316 186.711C81.8314 186.711 87.1204 183.617 87.1204 180.324C87.1204 168.848 89.8148 163.958 90.0144 163.759C90.214 163.359 90.7129 163.26 91.0123 163.459C91.4115 163.659 91.5113 164.158 91.3117 164.457C91.3117 164.457 88.6173 169.247 88.6173 180.224C88.6173 184.515 82.7295 187.808 82.53 188.008C82.4302 188.008 82.3304 188.108 82.1308 188.108Z" fill="black"/>
<path d="M31.3366 369.929C31.2368 369.929 31.2368 369.929 31.2368 369.929C30.8376 369.83 30.5383 369.43 30.6381 369.031C32.3345 359.85 49.6983 254.071 50.4967 248.981C49.1994 244.99 32.2347 193.397 31.0372 185.713C30.2389 180.424 26.6464 172.64 20.7586 163.26C16.6672 156.773 11.5778 144.998 11.9769 141.805C12.2763 139.709 13.4738 139.11 14.1724 138.911C16.8667 138.312 21.1578 141.405 24.6505 146.595C29.241 153.48 32.3345 159.168 32.4343 159.268L43.1121 177.031C43.3116 177.43 43.2119 177.83 42.8127 178.029C42.4135 178.229 42.0144 178.129 41.8148 177.73L31.137 159.967C31.137 159.867 27.9437 154.279 23.453 147.393C20.1599 142.503 16.3678 139.909 14.5715 140.407C14.3719 140.507 13.6734 140.607 13.4738 142.004C13.1744 144.499 17.9645 155.975 21.9561 162.462C27.9437 172.042 31.5362 179.925 32.4343 185.414C33.6318 193.098 51.6942 248.083 51.8938 248.582C51.8938 248.682 51.8938 248.782 51.8938 248.981C51.6942 250.079 33.7316 359.85 31.9353 369.231C32.0351 369.63 31.7358 369.929 31.3366 369.929Z" fill="black"/>
<path d="M55.1869 174.536C54.8875 174.536 54.688 174.437 54.5882 174.237L38.9208 149.888C38.9208 149.888 38.9208 149.788 38.821 149.788C38.7212 149.588 29.4405 127.534 27.0455 122.046C25.3491 118.154 21.8563 116.158 19.6609 116.557C18.663 116.757 18.0642 117.455 17.9645 118.553C17.7649 121.347 22.8543 139.909 24.8501 146.794C24.9499 147.193 24.7503 147.593 24.3511 147.692C23.952 147.792 23.5528 147.593 23.453 147.193C23.1536 146.195 16.268 122.146 16.4676 118.453C16.5674 116.657 17.6651 115.36 19.4613 115.06C22.3553 114.561 26.4468 116.857 28.4426 121.447C30.7378 126.736 39.6193 147.892 40.2181 149.189L55.7857 173.439C55.9852 173.838 55.8855 174.237 55.5861 174.536C55.4863 174.536 55.2867 174.536 55.1869 174.536Z" fill="black"/>
<path d="M64.268 173.439C63.9686 173.439 63.6692 173.24 63.5694 172.84L55.8855 144.1C55.8855 144 55.8855 143.901 55.8855 143.801C55.8855 143.601 58.4801 120.05 57.2825 113.963C56.7836 111.668 56.085 110.271 55.0871 109.971C53.8896 109.572 52.4925 110.77 51.8938 111.269C50.8959 112.267 48.1017 123.942 44.7087 140.807C44.4094 142.404 44.4094 144 44.6089 145.597L46.6048 159.069C46.7046 159.468 46.4052 159.867 46.006 159.967C45.6069 160.067 45.2077 159.768 45.1079 159.368L43.1121 145.897C42.8127 144.1 42.9125 142.304 43.2119 140.608C45.8065 127.635 49.1994 111.867 50.7961 110.271C51.6942 109.373 53.5902 107.976 55.4863 108.574C57.083 109.073 58.1807 110.77 58.7794 113.664C60.0767 119.851 57.6817 141.605 57.4821 143.801L65.0663 172.541C65.1661 172.94 64.9665 173.339 64.5674 173.439C64.4676 173.439 64.3678 173.439 64.268 173.439Z" fill="black"/>
<path d="M63.9686 172.241C63.8688 172.241 63.6693 172.241 63.5695 172.141C63.3699 172.041 63.2701 171.842 63.1703 171.542C62.9707 170.145 73.5487 157.771 74.0476 157.272C74.9458 156.174 76.1433 155.376 77.4406 154.777C85.9229 150.985 96.7005 146.794 99.5944 148.191C100.193 148.49 100.393 148.89 100.493 149.289C101.49 152.981 99.5944 157.372 97.4988 160.166C95.8023 162.461 83.8273 168.549 82.4302 169.247C82.4302 169.247 82.3304 169.247 82.2306 169.347C79.3366 170.045 76.1433 169.347 74.2472 167.451C73.9478 167.152 73.9478 166.653 74.2472 166.353C74.5466 166.054 75.0456 166.054 75.3449 166.353C76.9416 167.85 79.4364 168.449 81.8314 167.85C87.0206 165.255 95.1038 160.765 96.3013 159.268C98.1973 156.773 99.8938 152.881 98.9957 149.688C98.9957 149.688 98.9957 149.588 98.8959 149.588C97.0996 148.79 88.9167 151.384 78.0393 156.174C76.9416 156.673 76.0435 157.372 75.2451 158.27C71.5528 162.561 65.4655 170.145 64.767 171.443C64.767 171.542 64.767 171.742 64.6672 171.842C64.4676 172.141 64.268 172.241 63.9686 172.241Z" fill="black"/>
<path d="M77.9395 177.729C77.8397 177.729 77.7399 177.729 77.6401 177.629C68.2597 173.538 58.979 172.74 51.5944 175.534C51.1952 175.634 50.7961 175.434 50.5965 175.135C50.4967 174.735 50.6963 174.336 50.9957 174.137C58.7794 171.243 68.4593 172.041 78.2389 176.232C78.6381 176.432 78.8377 176.831 78.6381 177.23C78.5383 177.53 78.2389 177.729 77.9395 177.729Z" fill="black"/>
<path d="M41.1162 308.458C41.0164 308.458 41.0164 308.458 41.1162 308.458C38.821 308.258 31.0372 305.664 29.5404 304.266C28.742 303.568 27.8439 302.77 27.2451 301.772C27.0455 301.373 27.1453 300.973 27.4447 300.774C27.8439 300.574 28.2431 300.674 28.4426 300.973C28.9416 301.772 29.7399 302.47 30.4385 303.169C31.5362 304.167 38.9208 306.761 41.1162 306.961C41.5154 306.961 41.8148 307.36 41.8148 307.759C41.8148 308.158 41.4156 308.458 41.1162 308.458Z" fill="black"/>
<path d="M92.3096 185.115C92.2098 185.115 92.0102 185.115 91.9104 185.015C91.8106 184.915 91.611 184.816 91.5112 184.816C90.0144 184.017 87.32 182.52 87.32 179.127C87.32 178.728 87.6194 178.329 88.1183 178.329C88.5175 178.329 88.9166 178.628 88.9166 179.127C88.9166 181.622 90.9125 182.72 92.3096 183.419C92.5092 183.518 92.609 183.618 92.8085 183.718C93.2077 183.917 93.3075 184.416 93.1079 184.716C92.8085 184.915 92.5092 185.115 92.3096 185.115Z" fill="black"/>
<path d="M101.291 156.474C99.794 154.678 98.7961 156.973 98.2971 158.171V158.27C97.6983 158.27 97.0996 158.67 96.5008 159.268C96.2015 159.568 96.2015 160.067 96.5008 160.366C96.8002 160.665 97.2992 160.665 97.5985 160.366C98.0975 159.867 98.3969 159.767 98.4967 159.867C99.5944 160.466 99.5944 167.551 98.3969 175.435C98.3969 175.634 95.8023 198.087 95.5029 202.578C95.4031 203.875 95.3033 205.871 95.3033 208.067C95.1037 213.555 94.9042 221.04 93.9062 226.628C92.4094 234.412 84.3262 249.979 84.2264 250.179C84.1266 250.279 84.1266 250.379 84.1266 250.478C84.1266 251.077 84.1266 308.058 85.4239 323.127C86.7212 338.096 87.32 379.709 87.32 380.108C87.32 380.507 87.6193 380.807 88.1183 380.807C88.5175 380.807 88.9166 380.507 88.9166 380.008C88.9166 379.609 88.3179 337.896 87.0206 322.927C85.8231 308.358 85.7233 254.27 85.7233 250.578C86.6214 248.782 94.006 234.412 95.5029 226.728C96.6006 220.94 96.8002 213.455 96.9998 207.867C97.0996 205.672 97.0996 203.776 97.1994 202.478C97.4988 197.888 100.093 175.534 100.093 175.335C100.493 172.84 101.291 166.354 100.892 162.063C100.991 162.063 101.091 161.963 101.091 161.963C101.291 161.763 101.291 161.564 101.391 161.364C101.291 160.366 102.089 157.472 101.291 156.474Z" fill="black"/>
<path d="M222.937 168.549C223.436 168.649 223.935 168.748 224.335 168.748C224.235 168.848 227.129 176.931 226.929 177.331C225.632 180.324 224.434 184.516 223.037 187.509C219.145 186.811 217.15 182.32 216.85 178.329C216.551 174.337 216.85 171.243 215.752 167.451C215.553 166.753 214.755 164.457 214.455 163.859C218.147 166.054 222.937 168.549 222.937 168.549ZM264.351 217.547C265.648 213.555 266.946 209.663 267.944 206.47C268.542 204.474 269.241 202.378 269.341 200.283C271.436 193.297 273.033 187.809 273.332 185.713C274.63 177.53 281.915 165.855 283.711 162.961C287.802 156.474 292.692 144.898 292.393 142.004C291.794 137.314 285.707 140.208 281.116 147.094C280.917 147.393 280.617 147.792 280.418 148.091C280.318 147.992 280.218 147.992 280.118 147.892L281.116 146.994C281.116 146.994 288.301 122.046 288.002 118.453C287.703 113.763 280.318 115.16 277.424 121.647C275.029 127.135 265.648 149.389 265.648 149.389L259.461 159.069C259.461 159.069 259.461 159.069 259.362 159.069L261.357 145.696C261.657 144 261.557 142.304 261.258 140.707C259.761 133.322 255.569 112.366 253.873 110.769C251.777 108.773 248.484 107.576 247.187 113.863C245.89 120.15 248.484 143.9 248.484 143.9L241.499 169.946C241.299 170.146 241.1 170.245 240.8 170.345C240.8 170.345 240.7 170.345 240.601 170.445C239.703 168.748 233.116 161.064 230.322 157.771C229.524 156.773 228.426 155.975 227.229 155.476C221.84 153.081 206.073 146.395 205.174 149.489C204.276 152.582 205.673 156.075 207.17 158.47C206.572 158.769 206.172 159.468 205.873 160.067C204.376 163.16 204.676 166.653 205.274 171.443C205.574 173.538 206.671 181.222 206.871 183.119C207.27 186.312 207.569 189.405 207.769 192.299C208.567 200.782 209.066 208.366 209.665 217.048C209.964 220.84 210.164 224.732 211.062 228.424C211.761 231.617 212.958 234.013 214.056 237.006C215.852 241.796 217.848 245.788 220.343 250.279C220.443 258.761 220.343 290.694 219.245 320.133C218.946 328.815 218.447 337.198 217.948 344.782C217.15 356.857 217.449 368.832 217.05 380.906C217.05 381.206 216.95 381.505 216.95 381.705C224.534 381.106 231.719 380.408 238.705 379.509C255.769 377.514 270.838 374.819 283.112 371.626C282.913 367.933 282.713 364.84 282.513 363.243C282.314 361.247 282.114 359.152 281.915 357.156C280.917 347.775 280.019 338.395 279.021 329.015C278.821 327.418 278.721 325.821 278.522 324.225C278.122 319.834 277.624 315.443 277.224 311.052C276.925 308.358 276.426 305.863 276.127 303.168C274.53 304.067 272.834 304.566 271.037 305.064C268.642 305.763 266.347 306.561 263.952 307.459V307.36C259.761 282.811 253.474 249.281 253.673 248.682C253.973 248.383 259.661 231.817 264.351 217.547Z" fill="#FFDDC0"/>
<path d="M221.64 191.301C221.54 191.301 221.441 191.301 221.341 191.202C220.942 191.002 220.742 190.603 220.942 190.204L226.33 177.031C226.53 176.632 226.929 176.432 227.328 176.632C227.727 176.832 227.927 177.231 227.727 177.63L222.339 190.802C222.239 191.202 221.94 191.301 221.64 191.301Z" fill="black"/>
<path d="M227.029 178.129C226.73 178.129 226.43 177.929 226.33 177.63L223.636 169.048C223.536 168.648 223.736 168.249 224.135 168.149C224.534 168.05 224.933 168.249 225.033 168.648L227.727 177.231C227.827 177.63 227.628 178.029 227.228 178.228C227.129 178.129 227.029 178.129 227.029 178.129Z" fill="black"/>
<path d="M236.908 211.36C236.609 211.36 236.31 211.16 236.21 210.761C236.21 210.761 234.813 205.771 229.923 199.285L224.434 192C224.135 191.701 224.235 191.202 224.534 190.902C224.833 190.603 225.332 190.703 225.632 191.002L231.12 198.287C236.21 204.973 237.607 210.063 237.607 210.262C237.707 210.661 237.507 211.06 237.108 211.16C237.008 211.36 236.908 211.36 236.908 211.36Z" fill="black"/>
<path d="M222.937 188.108C222.838 188.108 222.638 188.108 222.538 188.008C222.239 187.908 216.451 184.515 216.451 180.224C216.451 169.247 213.856 164.457 213.757 164.457C213.557 164.058 213.657 163.659 214.056 163.459C214.455 163.26 214.854 163.359 215.054 163.759C215.154 163.958 217.948 168.848 217.948 180.324C217.948 183.118 221.84 185.912 223.337 186.711C223.736 186.91 223.836 187.409 223.636 187.709C223.536 187.908 223.237 188.108 222.937 188.108Z" fill="black"/>
<path d="M276.027 374.32C275.628 374.32 275.328 374.02 275.328 373.721C273.532 364.341 253.374 250.178 253.174 249.081C253.174 248.981 253.174 248.781 253.174 248.682C253.374 248.083 271.436 193.197 272.634 185.513C273.532 180.025 277.125 172.041 283.112 162.561C287.204 156.074 291.994 144.598 291.594 142.104C291.395 140.707 290.796 140.507 290.497 140.507C288.7 140.108 284.908 142.603 281.615 147.492C277.125 154.278 273.931 159.966 273.931 160.066L263.253 177.829C263.054 178.228 262.555 178.328 262.256 178.129C261.856 177.929 261.757 177.43 261.956 177.131L272.634 159.368C272.634 159.368 275.727 153.679 280.318 146.794C283.711 141.605 288.002 138.511 290.796 139.11C291.495 139.309 292.792 139.908 292.991 142.004C293.391 145.197 288.301 156.973 284.21 163.459C276.825 175.334 274.53 182.22 273.931 185.912C272.734 193.596 255.869 245.089 254.472 249.181C255.37 254.469 274.929 364.44 276.626 373.621C276.725 374.02 276.426 374.42 276.027 374.519C276.127 374.32 276.027 374.32 276.027 374.32Z" fill="black"/>
<path d="M249.981 174.537C249.881 174.537 249.682 174.537 249.582 174.437C249.283 174.237 249.083 173.738 249.382 173.339L264.95 149.09C265.449 147.792 274.33 126.736 276.725 121.347C278.721 116.757 282.912 114.462 285.707 114.961C287.403 115.26 288.501 116.557 288.7 118.354C289 122.046 282.014 146.096 281.715 147.094C281.615 147.493 281.216 147.693 280.817 147.593C280.418 147.493 280.218 147.094 280.318 146.695C282.314 139.809 287.403 121.248 287.204 118.453C287.104 117.256 286.505 116.557 285.507 116.458C283.312 116.058 279.819 118.054 278.122 121.946C275.727 127.435 266.447 149.489 266.347 149.688C266.347 149.688 266.347 149.788 266.247 149.788L250.58 174.038C250.48 174.437 250.181 174.537 249.981 174.537Z" fill="black"/>
<path d="M240.8 173.439C240.7 173.439 240.7 173.439 240.601 173.439C240.201 173.339 240.002 172.94 240.102 172.541L247.686 143.801C247.486 141.605 245.091 119.851 246.389 113.664C246.987 110.77 248.085 109.073 249.682 108.574C251.578 107.976 253.374 109.373 254.372 110.271C256.068 111.867 259.461 127.635 261.956 140.608C262.256 142.404 262.355 144.1 262.056 145.897L260.06 159.368C259.96 159.768 259.561 160.067 259.162 159.967C258.763 159.867 258.463 159.568 258.563 159.069L260.559 145.597C260.759 144 260.759 142.404 260.459 140.807C257.166 123.942 254.272 112.267 253.274 111.269C252.775 110.77 251.278 109.572 250.081 109.971C249.083 110.271 248.285 111.668 247.786 113.963C246.588 120.05 249.083 143.502 249.183 143.801C249.183 143.901 249.183 144 249.183 144.1L241.499 172.94C241.499 173.24 241.199 173.439 240.8 173.439Z" fill="black"/>
<path d="M241.199 172.241C240.9 172.241 240.7 172.141 240.501 171.842C240.401 171.742 240.401 171.542 240.401 171.443C239.703 170.145 233.615 162.561 229.923 158.27C229.125 157.372 228.226 156.673 227.129 156.174C216.251 151.384 207.969 148.79 206.272 149.588C206.172 149.688 206.172 149.688 206.172 149.688C205.274 152.881 206.971 156.673 208.867 159.268C209.964 160.765 218.147 165.255 223.337 167.85C225.732 168.449 228.326 167.85 229.823 166.353C230.122 166.054 230.621 166.054 230.921 166.353C231.22 166.653 231.22 167.152 230.921 167.451C229.025 169.347 225.831 170.045 222.937 169.347C222.838 169.347 222.838 169.347 222.738 169.247C221.341 168.549 209.466 162.461 207.669 160.166C205.574 157.372 203.678 152.981 204.675 149.289C204.775 148.989 204.975 148.49 205.574 148.191C208.468 146.794 219.245 150.985 227.727 154.777C229.025 155.376 230.122 156.174 231.12 157.272C231.619 157.771 242.197 170.145 241.998 171.542C241.998 171.742 241.798 171.942 241.599 172.141C241.399 172.241 241.299 172.241 241.199 172.241Z" fill="black"/>
<path d="M227.229 177.73C226.929 177.73 226.63 177.53 226.53 177.231C226.33 176.832 226.53 176.432 226.929 176.233C236.709 171.942 246.289 171.143 254.172 174.137C254.572 174.237 254.771 174.736 254.572 175.135C254.472 175.534 253.973 175.734 253.574 175.534C246.089 172.74 236.908 173.538 227.528 177.63C227.428 177.63 227.328 177.73 227.229 177.73Z" fill="black"/>
<path d="M264.052 308.457C263.653 308.457 263.353 308.158 263.253 307.759C263.253 307.359 263.553 306.96 263.952 306.96C265.948 306.761 279.021 301.771 280.218 300.773C280.418 300.474 280.917 300.374 281.216 300.574C281.615 300.773 281.715 301.272 281.416 301.571C280.617 302.969 266.048 308.258 264.052 308.457Z" fill="black"/>
<path d="M212.858 185.115C212.559 185.115 212.359 185.015 212.16 184.716C211.96 184.317 212.06 183.917 212.459 183.718C212.559 183.618 212.759 183.518 212.958 183.419C214.355 182.62 216.351 181.622 216.351 179.127C216.351 178.728 216.65 178.329 217.149 178.329C217.648 178.329 217.948 178.628 217.948 179.127C217.948 182.52 215.253 184.017 213.757 184.816C213.557 184.915 213.457 185.015 213.357 185.015C213.058 185.015 212.958 185.115 212.858 185.115Z" fill="black"/>
<mask id="mask2_84_3696" style="mask-type:luminance" maskUnits="userSpaceOnUse" x="203" y="154" width="20" height="230">
<path d="M222.438 154.578H203.777V384H222.438V154.578Z" fill="white"/>
</mask>
<g mask="url(#mask2_84_3696)">
<path d="M221.141 250.079C221.041 249.879 212.858 234.312 211.461 226.528C210.364 220.94 210.164 213.355 210.064 207.967C209.964 205.771 209.964 203.875 209.865 202.478C209.565 197.888 206.971 175.534 206.971 175.235C205.773 167.351 205.773 160.266 206.871 159.667C206.971 159.667 207.27 159.667 207.769 160.166C208.068 160.466 208.567 160.466 208.867 160.166C209.166 159.867 209.166 159.368 208.867 159.068C208.268 158.47 207.769 158.17 207.17 158.071C207.17 157.871 207.07 157.771 206.971 157.572C206.571 156.673 205.574 154.079 204.675 155.576C204.276 156.274 204.975 158.27 205.174 159.468C203.777 163.06 204.975 172.241 205.474 175.335C205.474 175.534 208.068 197.888 208.368 202.478C208.468 203.775 208.468 205.671 208.567 207.867C208.767 213.355 208.967 220.94 210.064 226.728C211.461 234.412 218.846 248.682 219.844 250.578C219.844 254.17 219.844 308.357 218.547 322.927C217.249 337.896 216.551 382.403 216.551 382.802C216.551 383.202 216.85 383.601 217.349 383.601C217.748 383.601 218.147 383.301 218.147 382.902C218.147 382.503 218.846 338.096 220.143 323.127C221.441 308.158 221.441 251.077 221.441 250.478C221.241 250.378 221.241 250.179 221.141 250.079Z" fill="black"/>
</g>
<path d="M25.7483 367.933C25.2493 367.933 24.9499 367.534 24.9499 367.135C25.2493 364.341 29.0414 327.518 30.6381 311.751C30.9374 308.757 31.137 306.561 31.2368 305.663C31.2368 305.563 31.2368 305.563 31.2368 305.464C31.2368 305.264 31.2368 305.164 31.2368 305.164C31.3366 304.765 31.5362 304.366 32.0352 304.466C32.5341 304.565 32.7337 304.865 32.7337 305.264V305.563C32.7337 305.663 32.7337 305.663 32.7337 305.763L32.135 311.95C30.5383 327.717 26.6464 364.541 26.4468 367.335C26.4468 367.634 26.1474 367.933 25.7483 367.933Z" fill="black"/>
<path d="M283.312 372.624C282.912 372.624 282.613 372.325 282.513 371.926C282.314 370.03 280.318 349.572 278.522 331.61L275.727 304.067C275.727 303.967 275.727 303.768 275.727 303.668C275.727 303.568 275.727 303.468 275.727 303.468C275.727 302.969 275.827 302.67 276.426 302.57C277.025 302.47 277.224 302.87 277.224 303.269V303.369C277.224 303.468 277.224 303.568 277.224 303.668V303.768C277.524 306.362 278.721 318.537 280.018 331.31C281.815 349.273 283.91 369.73 284.01 371.626C284.11 372.225 283.811 372.524 283.312 372.624Z" fill="black"/>
<path d="M184.118 105.181C179.328 104.682 174.638 101.788 170.247 96.599C168.85 95.0023 167.653 93.4056 166.455 91.7092C164.459 89.1146 162.463 86.4202 160.068 84.2248C152.983 77.5387 142.305 74.6447 132.825 76.8401C123.345 79.0356 115.062 86.4202 111.669 95.6011C111.569 96.0002 111.07 96.1998 110.671 96.0002C110.272 95.9004 110.073 95.4015 110.272 95.0023C113.765 85.3225 122.547 77.6385 132.526 75.2435C142.505 72.8485 153.781 75.942 161.166 83.0272C163.661 85.3225 165.657 88.1166 167.653 90.7112C168.85 92.3079 170.147 94.0044 171.445 95.5013C175.636 100.391 179.927 103.085 184.318 103.584C184.717 103.584 185.016 103.984 185.016 104.383C184.817 104.882 184.517 105.181 184.118 105.181Z" fill="black"/>
<path d="M107.678 87.2185C107.378 87.2185 106.979 86.9192 106.979 86.6198C106.38 83.626 107.678 80.6323 108.675 78.5366C113.765 68.258 123.944 60.5741 135.22 58.4784C146.497 56.3828 158.771 59.9753 167.154 67.7591C167.453 68.0585 167.453 68.5574 167.154 68.8568C166.854 69.1562 166.355 69.1562 166.056 68.8568C157.973 61.3724 146.197 57.9795 135.42 59.9753C124.642 61.9711 114.863 69.3558 109.973 79.2352C109.075 81.0314 107.977 83.7258 108.476 86.3204C108.576 86.7196 108.276 87.1188 107.877 87.2185C107.777 87.2185 107.777 87.2185 107.678 87.2185Z" fill="black"/>
<path d="M86.2223 147.892C86.1225 147.892 85.9229 147.892 85.8231 147.792C85.4239 147.592 85.3241 147.094 85.5237 146.794C88.3179 142.304 89.216 136.915 90.0144 131.726L90.2139 130.229C90.9125 125.339 91.7108 120.349 93.7067 115.859C96.3013 110.071 100.792 106.079 105.782 104.981C106.181 104.881 106.58 105.181 106.68 105.58C106.779 105.979 106.48 106.378 106.081 106.478C101.59 107.476 97.4988 111.168 95.1038 116.457C93.1079 120.848 92.4094 125.738 91.7108 130.428L91.5112 131.925C90.7129 137.214 89.715 142.802 86.821 147.592C86.7212 147.692 86.5216 147.892 86.2223 147.892Z" fill="black"/>
<path d="M21.4572 322.328C21.2576 322.328 21.1578 322.228 20.9582 322.129C20.7586 321.929 20.6588 321.63 20.6588 321.33C22.4551 314.844 22.2555 307.758 20.1599 301.372C19.3615 298.877 18.2638 296.482 17.1661 294.187C15.5694 290.794 13.9728 287.301 13.1744 283.409C12.1765 278.619 12.6755 273.53 14.4717 268.939C14.6713 268.54 15.0705 268.341 15.4696 268.54C15.8688 268.74 16.0684 269.139 15.8688 269.538C14.1723 273.729 13.7732 278.619 14.6713 283.11C15.3699 286.802 16.9665 290.195 18.4634 293.488C19.5611 295.883 20.6588 298.278 21.557 300.873C23.5528 306.96 23.8522 313.646 22.5549 320.033C25.7482 318.137 28.5424 315.442 30.7378 312.249C30.9374 311.95 31.4364 311.85 31.8356 312.05C32.1349 312.249 32.2347 312.748 32.0351 313.147C29.3407 317.039 25.848 320.233 21.7565 322.228C21.6568 322.328 21.557 322.328 21.4572 322.328Z" fill="black"/>
<path d="M284.409 333.206C282.513 333.206 280.517 332.907 279.22 332.508C278.821 332.408 278.621 331.909 278.721 331.51C278.821 331.111 279.22 330.911 279.619 331.011C281.416 331.61 284.609 331.809 286.904 331.41C283.112 327.917 280.717 323.227 280.318 318.237C279.819 312.749 281.715 307.26 285.507 303.069C285.806 302.77 286.305 302.77 286.605 302.969C286.904 303.269 286.904 303.768 286.705 304.067C283.212 307.959 281.515 313.048 281.915 318.038C282.314 323.027 285.008 327.817 289.1 331.111C289.299 331.31 289.399 331.51 289.399 331.809C289.399 332.108 289.199 332.308 288.9 332.408C287.603 333.007 286.006 333.206 284.409 333.206Z" fill="black"/>
<path d="M286.705 318.636C286.505 318.636 286.305 318.536 286.206 318.436C286.006 318.236 285.906 317.837 286.006 317.538C289.499 309.654 284.11 300.573 282.314 297.579L282.014 297.08C281.815 296.681 281.915 296.282 282.314 296.083C282.713 295.883 283.112 295.983 283.312 296.382L283.611 296.881C285.307 299.775 290.297 308.058 288.201 316.041C290.596 314.045 292.493 311.251 293.391 307.958C294.389 304.465 294.389 300.473 293.391 296.083C293.291 295.683 293.59 295.284 293.989 295.184C294.389 295.085 294.788 295.384 294.888 295.783C295.885 300.374 295.885 304.565 294.788 308.357C293.49 312.748 290.696 316.44 287.004 318.636C287.004 318.636 286.904 318.636 286.705 318.636Z" fill="black"/>
<path d="M290.896 321.929C290.696 321.929 290.596 321.829 290.397 321.729C290.097 321.43 289.998 321.031 290.297 320.632C303.769 303.966 289.199 288.199 284.409 283.709C284.21 283.609 284.11 283.509 284.11 283.409C283.811 283.11 283.91 282.611 284.21 282.312C284.509 282.012 285.008 282.112 285.307 282.411C285.307 282.411 285.407 282.511 285.507 282.511C290.497 287.201 305.865 303.767 291.594 321.53C291.295 321.929 291.095 321.929 290.896 321.929Z" fill="black"/>
<path d="M229.224 152.582C228.825 152.582 228.526 152.282 228.426 151.883C226.829 134.919 218.946 118.253 206.771 106.278C206.472 105.979 206.472 105.48 206.771 105.181C207.07 104.881 207.569 104.881 207.869 105.181C220.243 117.355 228.326 134.32 229.923 151.684C230.023 152.183 229.723 152.582 229.224 152.582Z" fill="black"/>
<path d="M74.347 66.0617H74.2472L62.1724 64.1656C61.7732 64.0658 61.4738 63.6667 61.5736 63.2675C61.6734 62.8683 62.0726 62.569 62.4717 62.6688L74.5466 64.5648C74.9457 64.6646 75.2451 65.0638 75.1453 65.4629C75.0455 65.8621 74.7462 66.0617 74.347 66.0617Z" fill="black"/>
<path d="M95.9021 32.4321C95.7025 32.4321 95.5029 32.3323 95.3033 32.2325L84.3262 20.457C84.0268 20.1576 84.0268 19.6587 84.3262 19.3593C84.6256 19.0599 85.1246 19.0599 85.4239 19.3593L96.5009 31.1348C96.8002 31.4341 96.8002 31.9331 96.5009 32.2325C96.3013 32.3323 96.1017 32.4321 95.9021 32.4321Z" fill="black"/>
<mask id="mask3_84_3696" style="mask-type:luminance" maskUnits="userSpaceOnUse" x="130" y="0" width="8" height="17">
<path d="M137.316 0H130.63V16.1663H137.316V0Z" fill="white"/>
</mask>
<g mask="url(#mask3_84_3696)">
<path d="M135.52 15.2688C135.22 15.2688 134.821 15.0692 134.821 14.67L131.628 0.998525C131.528 0.599356 131.827 0.200188 132.226 0.100396C132.626 0.000603773 133.025 0.29998 133.125 0.699148L136.318 14.3707C136.418 14.7698 136.118 15.169 135.719 15.2688C135.719 15.2688 135.619 15.2688 135.52 15.2688Z" fill="black"/>
</g>
<path d="M178.729 16.1665C178.63 16.1665 178.53 16.1665 178.53 16.1665C178.131 16.0667 177.931 15.5677 178.031 15.1686L182.422 1.49705C182.522 1.09788 183.021 0.898295 183.42 0.998087C183.819 1.09788 184.018 1.59684 183.919 1.99601L179.528 15.6675C179.328 15.9669 179.029 16.1665 178.729 16.1665Z" fill="black"/>
<path d="M212.26 32.1332C212.06 32.1332 211.761 32.0334 211.661 31.8338C211.362 31.5344 211.461 31.0355 211.761 30.7361L223.536 21.8546C223.836 21.5552 224.335 21.655 224.634 21.9544C224.933 22.2538 224.833 22.7527 224.434 23.0521L212.759 31.9336C212.659 32.0334 212.459 32.1332 212.26 32.1332Z" fill="black"/>
<path d="M223.037 64.7658C222.738 64.7658 222.339 64.5662 222.339 64.167C222.239 63.7679 222.538 63.3687 222.937 63.2689L238.206 59.7762C238.605 59.6764 239.004 59.9758 239.104 60.3749C239.204 60.7741 238.904 61.1733 238.505 61.2731L223.237 64.7658C223.237 64.7658 223.137 64.7658 223.037 64.7658Z" fill="black"/>
<path d="M167.253 335.401L188.31 336.698L188.809 329.314L176.734 328.615L176.933 324.923L189.008 325.621L189.407 318.835L177.332 318.137L177.532 314.445L189.607 315.143L190.106 307.758L169.05 306.461L167.253 335.401ZM151.885 315.642L146.996 305.064L138.014 304.565L137.715 310.054C137.316 309.854 136.318 309.355 135.619 309.255L135.919 304.565L128.035 304.066C120.052 303.567 113.166 309.555 112.667 317.638C112.567 319.534 112.767 321.43 113.366 323.226C113.964 325.022 114.962 326.719 116.26 328.116C117.557 329.513 119.054 330.711 120.75 331.509C122.447 332.307 124.343 332.806 126.239 332.906L134.122 333.405L134.621 325.022C135.42 324.823 136.118 324.524 136.817 324.124L136.218 333.605L145.199 334.104L145.998 320.432L150.987 330.012L157.075 321.031L156.276 334.702L165.258 335.201L167.054 306.262L158.073 305.763L151.885 315.642ZM140.409 324.025C139.112 323.625 137.915 323.126 136.717 322.428C136.717 322.428 136.318 322.627 136.318 322.727C133.923 324.124 130.829 324.623 128.235 323.625C127.536 323.426 126.838 323.027 126.239 322.627C125.141 321.829 124.343 320.632 123.944 319.334C123.046 315.742 125.84 311.85 130.33 310.652C131.228 310.453 132.127 310.353 132.925 310.353C134.222 310.353 135.52 310.652 136.617 311.151C137.715 311.75 138.813 312.548 139.511 313.746C140.21 315.043 140.409 316.64 140.01 318.137C139.91 318.436 139.811 318.835 139.611 319.135C139.411 319.434 139.212 319.733 139.112 320.133C139.012 320.931 139.511 321.63 139.811 322.328C140.01 322.827 140.31 323.226 140.509 323.825L140.609 324.224C140.709 324.025 140.609 324.025 140.409 324.025Z" fill="white"/>
</svg>
