<svg width="155" height="41" viewBox="0 0 155 41" fill="none" xmlns="http://www.w3.org/2000/svg">
<path d="M98.5954 12.3776C99.4318 12.6657 100.352 12.6633 101.213 12.4912C101.604 12.4131 101.925 12.2836 102.177 12.1038L101.846 10.7854C101.663 10.896 101.451 10.9865 101.207 11.0581C100.962 11.1291 100.661 11.1645 100.307 11.1645C99.928 11.1645 99.595 11.0953 99.3076 10.9569C99.024 10.8223 98.776 10.623 98.5836 10.3749C98.3908 10.1259 98.2477 9.82487 98.1518 9.47354C98.0537 9.09164 98.0062 8.6985 98.0105 8.30421C98.0105 7.32296 98.2092 6.5996 98.6084 6.13293C99.0077 5.66567 99.5335 5.43263 100.191 5.43263C100.546 5.43263 100.847 5.45215 101.096 5.49178C101.345 5.53141 101.559 5.59469 101.742 5.68105L102.061 4.30707C101.799 4.20663 101.527 4.13137 101.25 4.08231C99.9558 3.83212 98.5162 3.99951 97.5184 4.92929C96.5939 5.79165 96.3047 7.08046 96.3047 8.29829C96.3035 9.93962 96.8944 11.7909 98.5954 12.3776ZM108.395 10.9978H105.044V8.97257H108.04V7.5282H105.044V5.59765H108.336V4.1527H103.421V12.4427H108.395V10.9978ZM111.38 8.12026L111.19 6.81785H111.249L111.9 8.12026L115.015 12.5019H116.2V4.1527H114.66V8.51122L114.85 9.77756H114.79L114.163 8.51122L111.024 4.09355H109.84V12.4427H111.38V8.12026ZM119.706 12.4427H121.328V5.59765H123.743V4.1527H117.277V5.59765H119.706V12.4427ZM129.795 10.9978H126.443V8.97257H129.44V7.5282H126.443V5.59765H129.735V4.1527H124.821V12.4427H129.795V10.9978ZM132.862 9.04354L133.715 9.19733L135.598 12.4427H137.469L135.575 9.28072L134.996 8.91342C135.524 8.74781 135.946 8.45148 136.262 8.02563C136.578 7.59859 136.737 7.04675 136.737 6.36715C136.737 5.90936 136.649 5.52845 136.47 5.22444C136.3 4.9278 136.055 4.68085 135.76 4.50817C135.448 4.32898 135.108 4.20493 134.754 4.14146C134.377 4.0698 133.994 4.03396 133.61 4.0344C133.445 4.0344 133.263 4.03854 133.066 4.04623C132.869 4.05451 132.664 4.06634 132.456 4.08231C132.246 4.09828 132.038 4.12017 131.827 4.14737C131.631 4.17306 131.436 4.20264 131.242 4.23609V12.4433H132.863L132.862 9.04354ZM132.862 5.53791C132.949 5.51485 133.073 5.49888 133.237 5.4906C133.397 5.48291 133.562 5.47877 133.727 5.47877C134.153 5.47877 134.478 5.57932 134.699 5.78101C134.92 5.98151 135.03 6.2601 135.03 6.61557C135.03 7.08933 134.896 7.42884 134.628 7.63408C134.36 7.83931 134 7.94223 133.551 7.94223H132.863L132.862 5.53791ZM142.284 11.4242C142.57 11.8025 142.947 12.1037 143.378 12.3008C143.82 12.5054 144.343 12.6089 144.943 12.6089C146.064 12.6089 146.93 12.2357 147.543 11.4899C148.155 10.744 148.461 9.67996 148.461 8.29829C148.461 7.65123 148.389 7.06272 148.249 6.53395C148.107 6.00517 147.89 5.55093 147.596 5.1718C147.306 4.79447 146.928 4.49376 146.495 4.29583C146.054 4.09059 145.537 3.98768 144.944 3.98768C143.815 3.98768 142.946 4.36089 142.339 5.10673C141.731 5.85257 141.427 6.91722 141.427 8.29829C141.427 8.94595 141.498 9.53387 141.64 10.0632C141.78 10.5914 141.994 11.0451 142.284 11.4242ZM143.603 6.12406C143.92 5.66212 144.366 5.43145 144.942 5.43145C145.275 5.43145 145.554 5.5042 145.783 5.65029C146.012 5.79698 146.197 5.99985 146.339 6.26069C146.481 6.52152 146.586 6.82554 146.653 7.17273C146.72 7.51992 146.753 7.89491 146.753 8.2977C146.753 9.30852 146.596 10.0384 146.28 10.4885C145.964 10.9386 145.518 11.164 144.941 11.164C144.626 11.164 144.353 11.0924 144.124 10.9504C143.89 10.8034 143.696 10.5998 143.562 10.3584C143.415 10.1058 143.307 9.80358 143.236 9.45225C143.162 9.07195 143.126 8.68516 143.129 8.2977C143.13 7.31054 143.288 6.58659 143.603 6.12406ZM151.479 9.09145H154.51V7.6465H151.479V5.59765H154.771V4.1527H149.857V12.4427H151.479V9.09145ZM104.853 24.4081H106.898V13.9604H105.047L102.406 18.7064L101.958 19.9307H101.898L101.406 18.7365L98.615 13.9604H96.7495V24.4081H98.6895V18.9755L98.3914 16.9154H98.4665L99.123 18.5721L101.466 22.4829H102.122L104.347 18.5869L104.988 16.9154H105.077L104.853 18.9903V24.4081ZM109.772 23.1246C110.134 23.6011 110.608 23.9804 111.152 24.2283C111.709 24.4874 112.367 24.6163 113.122 24.6163C114.536 24.6163 115.627 24.1455 116.398 23.2062C117.17 22.2652 117.556 20.9255 117.556 19.1837C117.556 18.368 117.466 17.6263 117.287 16.9597C117.107 16.2932 116.833 15.7212 116.465 15.2433C116.099 14.7676 115.623 14.3886 115.077 14.139C114.521 13.88 113.868 13.751 113.121 13.751C111.699 13.751 110.603 14.2207 109.837 15.1611C109.071 16.1015 108.689 17.443 108.689 19.1837C108.689 19.9993 108.778 20.741 108.957 21.407C109.137 22.0748 109.408 22.6473 109.772 23.1246ZM111.436 16.4458C111.834 15.8632 112.396 15.5722 113.122 15.5722C113.539 15.5722 113.894 15.6638 114.182 15.8478C114.478 16.0397 114.72 16.3042 114.884 16.6161C115.063 16.945 115.195 17.3282 115.28 17.7653C115.365 18.203 115.407 18.6756 115.407 19.1831C115.407 20.4565 115.207 21.3768 114.809 21.944C114.412 22.5113 113.849 22.7946 113.122 22.7946C112.724 22.7946 112.381 22.7059 112.093 22.5266C111.798 22.3407 111.555 22.0839 111.385 21.7796C111.2 21.4614 111.063 21.0805 110.974 20.6375C110.881 20.1582 110.836 19.6708 110.839 19.1825C110.839 17.9404 111.038 17.0278 111.436 16.4458ZM126.376 22.8857C126.796 22.3743 127.101 21.7789 127.272 21.1397C127.452 20.4729 127.542 19.7851 127.54 19.0944C127.54 18.3184 127.445 17.6068 127.257 16.9603C127.069 16.3133 126.77 15.7561 126.362 15.2883C125.954 14.821 125.421 14.4578 124.765 14.1994C124.108 13.9403 123.317 13.8108 122.39 13.8108C121.883 13.8123 121.376 13.8223 120.869 13.8409C120.59 13.851 120.318 13.8658 120.056 13.8853C119.792 13.9054 119.555 13.9303 119.347 13.9598V24.4223C119.477 24.4412 119.671 24.4596 119.929 24.4743C120.188 24.4891 120.458 24.5045 120.742 24.5193C121.026 24.5329 121.298 24.5459 121.563 24.5566C121.827 24.566 122.039 24.5713 122.197 24.5713C123.202 24.5713 124.046 24.4158 124.726 24.1082C125.408 23.8013 125.958 23.3931 126.376 22.8857ZM125.256 20.4606C125.177 20.8779 125.017 21.2758 124.786 21.6318C124.555 21.9746 124.242 22.2541 123.875 22.4444C123.493 22.6491 123.012 22.7508 122.435 22.7508C122.384 22.7508 122.31 22.7484 122.21 22.7437C122.106 22.7382 122.001 22.7334 121.897 22.7295L121.591 22.7141C121.523 22.7124 121.455 22.7049 121.389 22.6917V15.6916C121.498 15.6721 121.666 15.6573 121.889 15.6473C122.113 15.6372 122.335 15.6325 122.553 15.6325C123.12 15.6325 123.589 15.7372 123.956 15.9454C124.308 16.1398 124.608 16.4166 124.829 16.7521C125.044 17.0804 125.19 17.4513 125.269 17.8635C125.351 18.2764 125.391 18.6862 125.391 19.0949C125.391 19.5622 125.346 20.0176 125.256 20.4606ZM135.525 15.7815V13.9604H129.331V24.4081H135.599V22.587H131.375V20.0348H135.152V18.2143H131.375V15.7815H135.525ZM142.181 19.9603C142.848 19.7509 143.379 19.3783 143.777 18.8406C144.175 18.3036 144.376 17.6068 144.376 16.7516C144.376 16.1743 144.264 15.694 144.04 15.3107C143.825 14.937 143.516 14.6258 143.144 14.4076C142.751 14.1818 142.321 14.0253 141.875 13.945C141.4 13.8553 140.918 13.8104 140.434 13.8108C140.225 13.8108 139.996 13.8155 139.748 13.8256C139.5 13.8362 139.243 13.8504 138.98 13.8705C138.716 13.8906 138.451 13.9184 138.189 13.9527C137.924 13.9882 137.678 14.0255 137.45 14.0645V24.4075H139.494V20.1241L140.568 20.3187L142.941 24.4081H145.3L142.911 20.4234L142.181 19.9603ZM140.361 18.7365H139.495V15.7064C139.604 15.6769 139.76 15.6573 139.965 15.6473C140.169 15.6372 140.375 15.6325 140.584 15.6325C141.122 15.6325 141.529 15.7597 141.808 16.0134C142.087 16.2671 142.225 16.6173 142.225 17.065C142.225 17.6624 142.057 18.09 141.719 18.3485C141.379 18.607 140.928 18.7365 140.361 18.7365ZM149.36 18.9607L153.286 24.4826H154.778V13.9604H152.837V19.4528L153.077 21.0503H153.002L152.211 19.4528L148.256 13.8859H146.763V24.4081H148.703V18.9607L148.465 17.3182H148.54L149.36 18.9607ZM98.8793 32.2522H102.764V30.3784H98.8793V27.8765H103.148V26.0027H96.7743V36.752H103.224V34.8789H98.8793V32.2522ZM111.379 31.6542L111.625 33.2967H111.547L110.734 31.6542L106.664 25.9258H105.128V36.752H107.124V31.1473L106.879 29.4581H106.955L107.801 31.1473L111.839 36.8283H113.376V26.0027H111.379V31.6542ZM119.348 32.4207L121.667 32.6668V34.6937C121.474 34.8363 121.255 34.9385 121.022 34.9942C120.766 35.0601 120.503 35.0935 120.239 35.0936C119.863 35.096 119.49 35.0232 119.142 34.8795C118.793 34.7319 118.485 34.5027 118.243 34.2111C117.986 33.9094 117.787 33.525 117.644 33.0595C117.5 32.594 117.429 32.038 117.429 31.3939C117.429 30.7179 117.503 30.1453 117.651 29.6739C117.8 29.2037 118.009 28.8169 118.281 28.5141C118.552 28.2124 118.873 27.9954 119.24 27.8611C119.63 27.7246 120.041 27.6571 120.454 27.6618C120.945 27.6618 121.35 27.6908 121.667 27.7469C121.961 27.797 122.249 27.8764 122.527 27.9841L122.957 26.2186C122.68 26.1163 122.31 26.0187 121.844 25.9264C121.378 25.8359 120.838 25.7898 120.224 25.7898C119.608 25.7898 118.996 25.8909 118.413 26.0891C117.814 26.2917 117.266 26.6219 116.807 27.0567C116.331 27.5027 115.948 28.0805 115.656 28.7921C115.364 29.5036 115.218 30.3666 115.218 31.3803C115.218 32.3533 115.341 33.192 115.587 33.8988C115.833 34.605 116.17 35.1864 116.601 35.6413C117.024 36.0924 117.547 36.4368 118.128 36.6462C118.717 36.8615 119.354 36.9697 120.04 36.9697C120.623 36.9697 121.214 36.8869 121.814 36.7236C122.413 36.5604 122.927 36.2996 123.357 35.9405V31.1497H119.349L119.348 32.4207ZM127.349 26.0027H125.245V36.752H132.048V34.8789H127.349V26.0027ZM133.691 26.0027H135.795V36.752H133.691V26.0027ZM143.665 31.2313C143.295 30.9672 142.899 30.7434 142.482 30.5635C142.085 30.3917 141.69 30.2126 141.299 30.0265C140.936 29.852 140.633 29.6633 140.393 29.4581C140.153 29.2522 140.033 28.9973 140.033 28.6897C140.033 28.3615 140.164 28.1018 140.425 27.9066C140.685 27.7126 141.062 27.6156 141.553 27.6156C142.075 27.6156 142.561 27.6748 143.012 27.7925C143.464 27.9096 143.801 28.0397 144.025 28.1834L144.686 26.4179C144.328 26.2133 143.872 26.0577 143.319 25.9501C142.737 25.8397 142.145 25.7858 141.553 25.7892C141.01 25.7892 140.519 25.8507 140.079 25.9737C139.639 26.0962 139.257 26.2854 138.935 26.5421C138.613 26.7973 138.357 27.1266 138.189 27.5021C138.016 27.8853 137.929 28.3384 137.929 28.8607C137.929 29.4646 138.049 29.9608 138.29 30.3512C138.524 30.7332 138.831 31.0646 139.195 31.3259C139.558 31.5862 139.952 31.8068 140.378 31.9866C140.803 32.1646 141.197 32.3391 141.56 32.5077C141.923 32.6774 142.225 32.8637 142.465 33.0678C142.706 33.2736 142.826 33.5392 142.826 33.8674C142.826 34.2974 142.66 34.6174 142.326 34.8274C141.993 35.0368 141.516 35.1415 140.89 35.1415C140.625 35.1415 140.366 35.1208 140.115 35.08C139.874 35.0417 139.635 34.9902 139.4 34.9256C139.195 34.8707 138.992 34.8039 138.795 34.7257C138.645 34.6682 138.499 34.6019 138.357 34.5269L137.681 36.3232C137.958 36.4664 138.387 36.6095 138.971 36.7538C139.555 36.8964 140.231 36.9679 140.999 36.9679C141.582 36.9679 142.117 36.9017 142.604 36.768C143.089 36.6349 143.503 36.4309 143.847 36.1547C144.192 35.8784 144.456 35.5318 144.647 35.1172C144.836 34.7026 144.93 34.2093 144.93 33.635C144.93 33.0619 144.81 32.584 144.571 32.1995C144.335 31.8206 144.027 31.4917 143.665 31.2313ZM152.702 26.0027V30.3784H148.77V26.0027H146.666V36.752H148.77V32.2522H152.702V36.752H154.804V26.0027H152.702ZM62.4077 36.671H86.0664V28.3905H72.4626V24.2502H86.0664V16.5611H72.4626V12.4208H86.0664V4.14028H62.4077V36.671ZM90.6432 0H92.2519V40.7906H90.6432V0ZM43.8243 15.6396L37.566 4.14028H27.5111V10.2673C27.0296 10.0431 25.894 9.62732 25.1452 9.46349V4.14028H16.2732C7.24086 4.14028 0.000105979 11.3591 0.000105979 20.3903C-0.00762747 22.5298 0.407952 24.6497 1.22292 26.628C2.03788 28.6063 3.23613 30.4038 4.74866 31.917C6.26119 33.4303 8.05813 34.6294 10.036 35.4453C12.0139 36.2611 14.1336 36.6777 16.2732 36.671H25.1452V27.2075C25.9707 26.8919 26.7632 26.4957 27.5111 26.0246C27.5146 26.0258 27.5111 36.671 27.5111 36.671H37.566V21.2928L43.8243 31.7299L49.9868 21.2928V36.671H60.0418V4.14028H49.9868L43.8243 15.6396ZM31.5431 25.7182C30.0828 25.3976 28.6597 24.9061 27.3443 24.1887C27.3159 24.1733 26.9385 24.4797 26.8906 24.5122C24.3307 26.2399 20.899 26.9828 17.8985 26.1115C17.1018 25.8803 16.2649 25.5325 15.5622 25.0889C14.2775 24.2803 13.2567 23.0383 12.7841 21.5886C11.4852 17.6039 14.4219 13.0738 19.3429 11.4709C20.2925 11.1593 21.2791 10.9748 22.2772 10.922C23.7215 10.8481 25.1819 11.0622 26.5245 11.6099C27.8476 12.1505 29.1187 13.0584 29.8899 14.2816C30.8026 15.7387 31.1145 17.493 30.76 19.1754C30.6813 19.5427 30.5624 19.9289 30.3939 20.2655C30.2182 20.6144 29.9568 20.9675 29.913 21.3656C29.8184 22.2185 30.508 23.0536 30.8416 23.7362C31.1095 24.2827 31.5123 24.7559 31.7513 25.3172C31.7637 25.3468 31.9039 25.7939 31.898 25.7927C31.7791 25.7691 31.6614 25.7436 31.5431 25.7182Z" fill="#FF562D"/>
</svg>
