<svg width="244" height="41" viewBox="0 0 244 41" fill="none" xmlns="http://www.w3.org/2000/svg">
<g clip-path="url(#clip0_1653_110)">
<path d="M98.5954 12.3776C99.4318 12.6657 100.352 12.6633 101.213 12.4912C101.604 12.4131 101.925 12.2836 102.177 12.1038L101.846 10.7854C101.663 10.896 101.451 10.9865 101.207 11.0581C100.962 11.1291 100.661 11.1645 100.307 11.1645C99.928 11.1645 99.595 11.0953 99.3076 10.9569C99.024 10.8223 98.776 10.623 98.5836 10.3749C98.3908 10.1259 98.2477 9.82487 98.1518 9.47354C98.0537 9.09164 98.0062 8.6985 98.0105 8.30421C98.0105 7.32296 98.2092 6.5996 98.6084 6.13293C99.0077 5.66567 99.5335 5.43263 100.191 5.43263C100.546 5.43263 100.847 5.45215 101.096 5.49178C101.345 5.53141 101.559 5.59469 101.742 5.68105L102.061 4.30707C101.799 4.20663 101.527 4.13137 101.25 4.08231C99.9558 3.83212 98.5162 3.99951 97.5184 4.92929C96.5939 5.79165 96.3047 7.08046 96.3047 8.29829C96.3035 9.93962 96.8944 11.7909 98.5954 12.3776ZM108.395 10.9978H105.044V8.97257H108.04V7.5282H105.044V5.59765H108.336V4.1527H103.421V12.4427H108.395V10.9978ZM111.38 8.12026L111.19 6.81785H111.249L111.9 8.12026L115.015 12.5019H116.2V4.1527H114.66V8.51122L114.85 9.77756H114.79L114.163 8.51122L111.024 4.09355H109.84V12.4427H111.38V8.12026ZM119.706 12.4427H121.328V5.59765H123.743V4.1527H117.277V5.59765H119.706V12.4427ZM129.795 10.9978H126.443V8.97257H129.44V7.5282H126.443V5.59765H129.735V4.1527H124.821V12.4427H129.795V10.9978ZM132.862 9.04354L133.715 9.19733L135.598 12.4427H137.469L135.575 9.28072L134.996 8.91342C135.524 8.74781 135.946 8.45148 136.262 8.02563C136.578 7.59859 136.737 7.04675 136.737 6.36715C136.737 5.90936 136.649 5.52845 136.47 5.22444C136.3 4.9278 136.055 4.68085 135.76 4.50817C135.448 4.32898 135.108 4.20493 134.754 4.14146C134.377 4.0698 133.994 4.03396 133.61 4.0344C133.445 4.0344 133.263 4.03854 133.066 4.04623C132.869 4.05451 132.664 4.06634 132.456 4.08231C132.246 4.09828 132.038 4.12017 131.827 4.14737C131.631 4.17306 131.436 4.20264 131.242 4.23609V12.4433H132.863L132.862 9.04354ZM132.862 5.53791C132.949 5.51485 133.073 5.49888 133.237 5.4906C133.397 5.48291 133.562 5.47877 133.727 5.47877C134.153 5.47877 134.478 5.57932 134.699 5.78101C134.92 5.98151 135.03 6.2601 135.03 6.61557C135.03 7.08933 134.896 7.42884 134.628 7.63408C134.36 7.83931 134 7.94223 133.551 7.94223H132.863L132.862 5.53791ZM142.284 11.4242C142.57 11.8025 142.947 12.1037 143.378 12.3008C143.82 12.5054 144.343 12.6089 144.943 12.6089C146.064 12.6089 146.93 12.2357 147.543 11.4899C148.155 10.744 148.461 9.67996 148.461 8.29829C148.461 7.65123 148.389 7.06272 148.249 6.53395C148.107 6.00517 147.89 5.55093 147.596 5.1718C147.306 4.79447 146.928 4.49376 146.495 4.29583C146.054 4.09059 145.537 3.98768 144.944 3.98768C143.815 3.98768 142.946 4.36089 142.339 5.10673C141.731 5.85257 141.427 6.91722 141.427 8.29829C141.427 8.94595 141.498 9.53387 141.64 10.0632C141.78 10.5914 141.994 11.0451 142.284 11.4242ZM143.603 6.12406C143.92 5.66212 144.366 5.43145 144.942 5.43145C145.275 5.43145 145.554 5.5042 145.783 5.65029C146.012 5.79698 146.197 5.99985 146.339 6.26069C146.481 6.52152 146.586 6.82554 146.653 7.17273C146.72 7.51992 146.753 7.89491 146.753 8.2977C146.753 9.30852 146.596 10.0384 146.28 10.4885C145.964 10.9386 145.518 11.164 144.941 11.164C144.626 11.164 144.353 11.0924 144.124 10.9504C143.89 10.8034 143.696 10.5998 143.562 10.3584C143.415 10.1058 143.307 9.80358 143.236 9.45225C143.162 9.07195 143.126 8.68516 143.129 8.2977C143.13 7.31054 143.288 6.58659 143.603 6.12406ZM151.479 9.09145H154.51V7.6465H151.479V5.59765H154.771V4.1527H149.857V12.4427H151.479V9.09145ZM104.853 24.4081H106.898V13.9604H105.047L102.406 18.7064L101.958 19.9307H101.898L101.406 18.7365L98.615 13.9604H96.7495V24.4081H98.6895V18.9755L98.3914 16.9154H98.4665L99.123 18.5721L101.466 22.4829H102.122L104.347 18.5869L104.988 16.9154H105.077L104.853 18.9903V24.4081ZM109.772 23.1246C110.134 23.6011 110.608 23.9804 111.152 24.2283C111.709 24.4874 112.367 24.6163 113.122 24.6163C114.536 24.6163 115.627 24.1455 116.398 23.2062C117.17 22.2652 117.556 20.9255 117.556 19.1837C117.556 18.368 117.466 17.6263 117.287 16.9597C117.107 16.2932 116.833 15.7212 116.465 15.2433C116.099 14.7676 115.623 14.3886 115.077 14.139C114.521 13.88 113.868 13.751 113.121 13.751C111.699 13.751 110.603 14.2207 109.837 15.1611C109.071 16.1015 108.689 17.443 108.689 19.1837C108.689 19.9993 108.778 20.741 108.957 21.407C109.137 22.0748 109.408 22.6473 109.772 23.1246ZM111.436 16.4458C111.834 15.8632 112.396 15.5722 113.122 15.5722C113.539 15.5722 113.894 15.6638 114.182 15.8478C114.478 16.0397 114.72 16.3042 114.884 16.6161C115.063 16.945 115.195 17.3282 115.28 17.7653C115.365 18.203 115.407 18.6756 115.407 19.1831C115.407 20.4565 115.207 21.3768 114.809 21.944C114.412 22.5113 113.849 22.7946 113.122 22.7946C112.724 22.7946 112.381 22.7059 112.093 22.5266C111.798 22.3407 111.555 22.0839 111.385 21.7796C111.2 21.4614 111.063 21.0805 110.974 20.6375C110.881 20.1582 110.836 19.6708 110.839 19.1825C110.839 17.9404 111.038 17.0278 111.436 16.4458ZM126.376 22.8857C126.796 22.3743 127.101 21.7789 127.272 21.1397C127.452 20.4729 127.542 19.7851 127.54 19.0944C127.54 18.3184 127.445 17.6068 127.257 16.9603C127.069 16.3133 126.77 15.7561 126.362 15.2883C125.954 14.821 125.421 14.4578 124.765 14.1994C124.108 13.9403 123.317 13.8108 122.39 13.8108C121.883 13.8123 121.376 13.8223 120.869 13.8409C120.59 13.851 120.318 13.8658 120.056 13.8853C119.792 13.9054 119.555 13.9303 119.347 13.9598V24.4223C119.477 24.4412 119.671 24.4596 119.929 24.4743C120.188 24.4891 120.458 24.5045 120.742 24.5193C121.026 24.5329 121.298 24.5459 121.563 24.5566C121.827 24.566 122.039 24.5713 122.197 24.5713C123.202 24.5713 124.046 24.4158 124.726 24.1082C125.408 23.8013 125.958 23.3931 126.376 22.8857ZM125.256 20.4606C125.177 20.8779 125.017 21.2758 124.786 21.6318C124.555 21.9746 124.242 22.2541 123.875 22.4444C123.493 22.6491 123.012 22.7508 122.435 22.7508C122.384 22.7508 122.31 22.7484 122.21 22.7437C122.106 22.7382 122.001 22.7334 121.897 22.7295L121.591 22.7141C121.523 22.7124 121.455 22.7049 121.389 22.6917V15.6916C121.498 15.6721 121.666 15.6573 121.889 15.6473C122.113 15.6372 122.335 15.6325 122.553 15.6325C123.12 15.6325 123.589 15.7372 123.956 15.9454C124.308 16.1398 124.608 16.4166 124.829 16.7521C125.044 17.0804 125.19 17.4513 125.269 17.8635C125.351 18.2764 125.391 18.6862 125.391 19.0949C125.391 19.5622 125.346 20.0176 125.256 20.4606ZM135.525 15.7815V13.9604H129.331V24.4081H135.599V22.587H131.375V20.0348H135.152V18.2143H131.375V15.7815H135.525ZM142.181 19.9603C142.848 19.7509 143.379 19.3783 143.777 18.8406C144.175 18.3036 144.376 17.6068 144.376 16.7516C144.376 16.1743 144.264 15.694 144.04 15.3107C143.825 14.937 143.516 14.6258 143.144 14.4076C142.751 14.1818 142.321 14.0253 141.875 13.945C141.4 13.8553 140.918 13.8104 140.434 13.8108C140.225 13.8108 139.996 13.8155 139.748 13.8256C139.5 13.8362 139.243 13.8504 138.98 13.8705C138.716 13.8906 138.451 13.9184 138.189 13.9527C137.924 13.9882 137.678 14.0255 137.45 14.0645V24.4075H139.494V20.1241L140.568 20.3187L142.941 24.4081H145.3L142.911 20.4234L142.181 19.9603ZM140.361 18.7365H139.495V15.7064C139.604 15.6769 139.76 15.6573 139.965 15.6473C140.169 15.6372 140.375 15.6325 140.584 15.6325C141.122 15.6325 141.529 15.7597 141.808 16.0134C142.087 16.2671 142.225 16.6173 142.225 17.065C142.225 17.6624 142.057 18.09 141.719 18.3485C141.379 18.607 140.928 18.7365 140.361 18.7365ZM149.36 18.9607L153.286 24.4826H154.778V13.9604H152.837V19.4528L153.077 21.0503H153.002L152.211 19.4528L148.256 13.8859H146.763V24.4081H148.703V18.9607L148.465 17.3182H148.54L149.36 18.9607ZM98.8793 32.2522H102.764V30.3784H98.8793V27.8765H103.148V26.0027H96.7743V36.752H103.224V34.8789H98.8793V32.2522ZM111.379 31.6542L111.625 33.2967H111.547L110.734 31.6542L106.664 25.9258H105.128V36.752H107.124V31.1473L106.879 29.4581H106.955L107.801 31.1473L111.839 36.8283H113.376V26.0027H111.379V31.6542ZM119.348 32.4207L121.667 32.6668V34.6937C121.474 34.8363 121.255 34.9385 121.022 34.9942C120.766 35.0601 120.503 35.0935 120.239 35.0936C119.863 35.096 119.49 35.0232 119.142 34.8795C118.793 34.7319 118.485 34.5027 118.243 34.2111C117.986 33.9094 117.787 33.525 117.644 33.0595C117.5 32.594 117.429 32.038 117.429 31.3939C117.429 30.7179 117.503 30.1453 117.651 29.6739C117.8 29.2037 118.009 28.8169 118.281 28.5141C118.552 28.2124 118.873 27.9954 119.24 27.8611C119.63 27.7246 120.041 27.6571 120.454 27.6618C120.945 27.6618 121.35 27.6908 121.667 27.7469C121.961 27.797 122.249 27.8764 122.527 27.9841L122.957 26.2186C122.68 26.1163 122.31 26.0187 121.844 25.9264C121.378 25.8359 120.838 25.7898 120.224 25.7898C119.608 25.7898 118.996 25.8909 118.413 26.0891C117.814 26.2917 117.266 26.6219 116.807 27.0567C116.331 27.5027 115.948 28.0805 115.656 28.7921C115.364 29.5036 115.218 30.3666 115.218 31.3803C115.218 32.3533 115.341 33.192 115.587 33.8988C115.833 34.605 116.17 35.1864 116.601 35.6413C117.024 36.0924 117.547 36.4368 118.128 36.6462C118.717 36.8615 119.354 36.9697 120.04 36.9697C120.623 36.9697 121.214 36.8869 121.814 36.7236C122.413 36.5604 122.927 36.2996 123.357 35.9405V31.1497H119.349L119.348 32.4207ZM127.349 26.0027H125.245V36.752H132.048V34.8789H127.349V26.0027ZM133.691 26.0027H135.795V36.752H133.691V26.0027ZM143.665 31.2313C143.295 30.9672 142.899 30.7434 142.482 30.5635C142.085 30.3917 141.69 30.2126 141.299 30.0265C140.936 29.852 140.633 29.6633 140.393 29.4581C140.153 29.2522 140.033 28.9973 140.033 28.6897C140.033 28.3615 140.164 28.1018 140.425 27.9066C140.685 27.7126 141.062 27.6156 141.553 27.6156C142.075 27.6156 142.561 27.6748 143.012 27.7925C143.464 27.9096 143.801 28.0397 144.025 28.1834L144.686 26.4179C144.328 26.2133 143.872 26.0577 143.319 25.9501C142.737 25.8397 142.145 25.7858 141.553 25.7892C141.01 25.7892 140.519 25.8507 140.079 25.9737C139.639 26.0962 139.257 26.2854 138.935 26.5421C138.613 26.7973 138.357 27.1266 138.189 27.5021C138.016 27.8853 137.929 28.3384 137.929 28.8607C137.929 29.4646 138.049 29.9608 138.29 30.3512C138.524 30.7332 138.831 31.0646 139.195 31.3259C139.558 31.5862 139.952 31.8068 140.378 31.9866C140.803 32.1646 141.197 32.3391 141.56 32.5077C141.923 32.6774 142.225 32.8637 142.465 33.0678C142.706 33.2736 142.826 33.5392 142.826 33.8674C142.826 34.2974 142.66 34.6174 142.326 34.8274C141.993 35.0368 141.516 35.1415 140.89 35.1415C140.625 35.1415 140.366 35.1208 140.115 35.08C139.874 35.0417 139.635 34.9902 139.4 34.9256C139.195 34.8707 138.992 34.8039 138.795 34.7257C138.645 34.6682 138.499 34.6019 138.357 34.5269L137.681 36.3232C137.958 36.4664 138.387 36.6095 138.971 36.7538C139.555 36.8964 140.231 36.9679 140.999 36.9679C141.582 36.9679 142.117 36.9017 142.604 36.768C143.089 36.6349 143.503 36.4309 143.847 36.1547C144.192 35.8784 144.456 35.5318 144.647 35.1172C144.836 34.7026 144.93 34.2093 144.93 33.635C144.93 33.0619 144.81 32.584 144.571 32.1995C144.335 31.8206 144.027 31.4917 143.665 31.2313ZM152.702 26.0027V30.3784H148.77V26.0027H146.666V36.752H148.77V32.2522H152.702V36.752H154.804V26.0027H152.702ZM62.4077 36.671H86.0664V28.3905H72.4626V24.2502H86.0664V16.5611H72.4626V12.4208H86.0664V4.14028H62.4077V36.671ZM90.6432 0H92.2519V40.7906H90.6432V0ZM43.8243 15.6396L37.566 4.14028H27.5111V10.2673C27.0296 10.0431 25.894 9.62732 25.1452 9.46349V4.14028H16.2732C7.24086 4.14028 0.000105979 11.3591 0.000105979 20.3903C-0.00762747 22.5298 0.407952 24.6497 1.22292 26.628C2.03788 28.6063 3.23613 30.4038 4.74866 31.917C6.26119 33.4303 8.05813 34.6294 10.036 35.4453C12.0139 36.2611 14.1336 36.6777 16.2732 36.671H25.1452V27.2075C25.9707 26.8919 26.7632 26.4957 27.5111 26.0246C27.5146 26.0258 27.5111 36.671 27.5111 36.671H37.566V21.2928L43.8243 31.7299L49.9868 21.2928V36.671H60.0418V4.14028H49.9868L43.8243 15.6396ZM31.5431 25.7182C30.0828 25.3976 28.6597 24.9061 27.3443 24.1887C27.3159 24.1733 26.9385 24.4797 26.8906 24.5122C24.3307 26.2399 20.899 26.9828 17.8985 26.1115C17.1018 25.8803 16.2649 25.5325 15.5622 25.0889C14.2775 24.2803 13.2567 23.0383 12.7841 21.5886C11.4852 17.6039 14.4219 13.0738 19.3429 11.4709C20.2925 11.1593 21.2791 10.9748 22.2772 10.922C23.7215 10.8481 25.1819 11.0622 26.5245 11.6099C27.8476 12.1505 29.1187 13.0584 29.8899 14.2816C30.8026 15.7387 31.1145 17.493 30.76 19.1754C30.6813 19.5427 30.5624 19.9289 30.3939 20.2655C30.2182 20.6144 29.9568 20.9675 29.913 21.3656C29.8184 22.2185 30.508 23.0536 30.8416 23.7362C31.1095 24.2827 31.5123 24.7559 31.7513 25.3172C31.7637 25.3468 31.9039 25.7939 31.898 25.7927C31.7791 25.7691 31.6614 25.7436 31.5431 25.7182Z" fill="#E63C25"/>
<path d="M167.311 13.9215H166.165L165.987 12.4428H160.156V4.16224H161.776V10.9996H164.626V4.16224H166.247V10.9996H167.311V13.9215ZM168.459 4.16224H173.368V5.60542H170.079V7.53361H173.072V8.97679H170.079V10.9996H173.426V12.4428H168.459V4.16224ZM179.519 8.97679H176.492V12.4428H174.871V4.16224H176.492V7.53361H179.519V4.16224H181.14V12.4428H179.519V8.97679ZM188.686 5.60542H186.273V12.4428H184.653V5.60542H182.228V4.16224H188.686V5.60542ZM189.764 4.24504C190.095 4.18176 190.46 4.13267 190.858 4.09718C191.256 4.06169 191.653 4.04395 192.047 4.04395C192.457 4.04395 192.871 4.07766 193.284 4.14449C193.697 4.21133 194.071 4.34559 194.402 4.54669C194.734 4.74779 195.004 5.02756 195.213 5.38658C195.422 5.7456 195.526 6.21286 195.526 6.78836C195.526 7.30885 195.435 7.7489 195.254 8.10733C195.083 8.45237 194.836 8.75384 194.531 8.98862C194.226 9.21975 193.879 9.38857 193.509 9.48545C193.12 9.58862 192.72 9.64032 192.319 9.63923H192.131C191.947 9.63954 191.763 9.63164 191.579 9.61557C191.514 9.6109 191.449 9.603 191.385 9.59191V12.4428H189.765L189.764 4.24504ZM192.177 5.43981C192.018 5.43981 191.869 5.44572 191.727 5.45755C191.585 5.46938 191.471 5.48299 191.384 5.49896V8.18422C191.416 8.1925 191.463 8.20019 191.526 8.20788C191.661 8.22361 191.798 8.23151 191.935 8.23154H192.083C192.295 8.23154 192.507 8.21202 192.715 8.17239C192.924 8.13335 193.111 8.06001 193.276 7.95355C193.442 7.84708 193.574 7.69922 193.673 7.50995C193.771 7.32068 193.82 7.07226 193.82 6.7647C193.82 6.50445 193.774 6.28975 193.679 6.12C193.59 5.95563 193.462 5.81553 193.306 5.71188C193.146 5.60723 192.967 5.53489 192.779 5.49896C192.581 5.45923 192.379 5.43942 192.177 5.43981ZM164.982 19.8917L165.076 18.8153H165.016L164.461 19.9272L161.372 24.4815H160.154V16.201H161.775V20.708L161.656 21.8199H161.727L162.306 20.6725L165.394 16.201H166.6V24.4815H164.981L164.982 19.8917ZM172.918 21.0149H169.89V24.4809H168.27V16.2004H169.89V19.5718H172.918V16.2004H174.539V24.4809H172.918V21.0149ZM175.947 20.3412C175.947 18.9614 176.251 17.8985 176.858 17.1532C177.465 16.408 178.332 16.0354 179.46 16.0354C180.051 16.0354 180.567 16.1377 181.009 16.3429C181.45 16.5482 181.817 16.8398 182.109 17.2183C182.4 17.5968 182.617 18.0505 182.76 18.5787C182.901 19.1074 182.972 19.6948 182.972 20.3412C182.972 21.7211 182.667 22.784 182.056 23.5293C181.445 24.2751 180.579 24.6483 179.458 24.6483C178.859 24.6483 178.338 24.5454 177.896 24.3402C177.465 24.1431 177.089 23.8426 176.802 23.4654C176.514 23.0857 176.299 22.6338 176.157 22.1044C176.018 21.5756 175.947 20.9871 175.947 20.3412ZM177.65 20.3412C177.65 20.7594 177.686 21.1427 177.757 21.494C177.828 21.8459 177.937 22.147 178.083 22.3984C178.228 22.6515 178.416 22.8491 178.644 22.9898C178.873 23.1318 179.146 23.2028 179.46 23.2028C180.036 23.2028 180.482 22.978 180.797 22.5285C181.113 22.079 181.271 21.3497 181.271 20.3401C181.271 19.9379 181.237 19.5635 181.17 19.2163C181.113 18.8983 181.007 18.5911 180.857 18.3054C180.727 18.0583 180.536 17.8485 180.302 17.6962C180.072 17.5501 179.793 17.4774 179.461 17.4774C178.885 17.4774 178.439 17.708 178.125 18.1694C177.808 18.6313 177.65 19.3553 177.65 20.3412ZM189.976 24.142C189.723 24.3224 189.402 24.4502 189.012 24.5288C188.621 24.6075 188.221 24.6465 187.811 24.6465C187.314 24.6465 186.843 24.5691 186.397 24.4147C185.952 24.2609 185.559 24.0125 185.22 23.6694C184.882 23.3264 184.612 22.881 184.41 22.3327C184.209 21.7844 184.108 21.119 184.108 20.3395C184.108 19.5274 184.221 18.8472 184.446 18.2989C184.67 17.7512 184.962 17.3094 185.32 16.974C185.679 16.6393 186.079 16.3985 186.521 16.2524C186.963 16.1063 187.404 16.0336 187.846 16.0336C188.319 16.0336 188.72 16.0649 189.046 16.1282C189.374 16.1915 189.644 16.266 189.856 16.353L189.537 17.7252C189.332 17.6319 189.115 17.5681 188.892 17.5359C188.643 17.4969 188.342 17.4768 187.987 17.4768C187.333 17.4768 186.807 17.7098 186.408 18.1759C186.009 18.6426 185.81 19.3653 185.81 20.3448C185.81 20.7718 185.857 21.161 185.952 21.5124C186.047 21.8655 186.19 22.1653 186.383 22.4132C186.576 22.6628 186.816 22.8562 187.105 22.994C187.392 23.1318 187.727 23.2016 188.104 23.2016C188.46 23.2016 188.759 23.1661 189.003 23.0945C189.228 23.0328 189.442 22.9415 189.642 22.8231L189.976 24.142ZM197.026 17.6442H194.613V24.4815H192.994V17.6442H190.567V16.201H197.026V17.6442ZM198.103 16.2838C198.434 16.2205 198.799 16.1714 199.197 16.1359C199.596 16.1004 199.993 16.0827 200.387 16.0827C200.796 16.0827 201.21 16.1164 201.624 16.1832C202.037 16.2501 202.41 16.3843 202.742 16.5854C203.073 16.7865 203.344 17.0663 203.552 17.4253C203.76 17.7843 203.865 18.2516 203.865 18.8271C203.865 19.3476 203.774 19.7876 203.593 20.1461C203.423 20.4911 203.175 20.7926 202.87 21.0274C202.565 21.2585 202.218 21.4273 201.848 21.5242C201.46 21.6273 201.06 21.679 200.658 21.678H200.47C200.286 21.6782 200.102 21.6703 199.919 21.6543C199.854 21.6501 199.789 21.6424 199.724 21.6312V24.4815H198.104L198.103 16.2838ZM200.516 17.4785C200.357 17.4785 200.208 17.4845 200.066 17.4963C199.924 17.5081 199.81 17.5217 199.724 17.5377V20.223C199.755 20.2312 199.803 20.2389 199.865 20.2466C200 20.2624 200.137 20.2703 200.274 20.2703H200.422C200.635 20.2703 200.846 20.2508 201.055 20.2111C201.263 20.1721 201.451 20.0987 201.616 19.9923C201.781 19.8858 201.914 19.738 202.012 19.5487C202.111 19.3594 202.16 19.111 202.16 18.8034C202.16 18.5432 202.113 18.3285 202.019 18.1587C201.929 17.9946 201.801 17.8546 201.646 17.7506C201.486 17.646 201.307 17.5736 201.119 17.5377C200.92 17.498 200.719 17.4782 200.516 17.4785ZM208.276 22.6474H205.733L205.106 24.4821H203.485L206.466 16.1424H207.661L210.642 24.4821H208.939L208.276 22.6474ZM206.147 21.3462H207.921L207.306 19.5014L207.057 18.2001H206.998L206.749 19.5132L206.147 21.3462ZM216.237 21.0149H213.209V24.4809H211.589V16.2004H213.209V19.5718H216.237V16.2004H217.858V24.4809H216.237V21.0149ZM224.175 21.0149H221.147V24.4809H219.526V16.2004H221.147V19.5718H224.175V16.2004H225.795V24.4809H224.175V21.0149ZM227.463 16.201H229.084V19.1701C229.17 19.1548 229.308 19.1347 229.497 19.111C229.686 19.0873 229.872 19.0755 230.053 19.0755C230.446 19.0755 230.824 19.1151 231.182 19.1938C231.541 19.2725 231.855 19.4126 232.123 19.6137C232.391 19.8148 232.604 20.0869 232.761 20.43C232.92 20.7736 232.997 21.2048 232.997 21.7253C232.997 22.6876 232.718 23.4074 232.158 23.8841C231.598 24.3615 230.765 24.5992 229.661 24.5992C229.55 24.5992 229.408 24.5969 229.235 24.5933C229.048 24.5887 228.86 24.5787 228.673 24.5631C228.466 24.5472 228.259 24.5275 228.052 24.504C227.84 24.4803 227.643 24.4449 227.461 24.3975V16.201H227.463ZM229.782 23.156C230.232 23.156 230.596 23.0514 230.876 22.8426C231.157 22.6338 231.296 22.286 231.296 21.7957C231.296 21.536 231.257 21.3219 231.179 21.1569C231.108 21.0013 230.998 20.8668 230.859 20.7665C230.717 20.6686 230.556 20.6021 230.386 20.5713C230.191 20.5347 229.992 20.5168 229.794 20.5181C229.683 20.5181 229.554 20.5282 229.404 20.5477C229.254 20.5672 229.148 20.5891 229.085 20.6127V23.0851C229.171 23.1093 229.275 23.1265 229.398 23.1383C229.52 23.1507 229.648 23.156 229.782 23.156ZM233.851 16.201H235.472V24.4815H233.851V16.201ZM239.091 20.2703L236.784 16.201H238.737L240.014 18.5905L240.297 19.4304L240.569 18.5905L241.906 16.201H243.669L241.279 20.1875L243.787 24.4815H241.858L240.403 21.927L240.083 21.0522L239.776 21.927L238.309 24.4815H236.547L239.091 20.2703ZM165.584 36.7521H163.964V33.476L163.113 33.7001L161.386 36.7521H159.504L161.209 33.9959L161.917 33.4878C161.668 33.4265 161.429 33.3288 161.209 33.198C160.986 33.0674 160.79 32.8969 160.629 32.6952C160.463 32.49 160.333 32.2475 160.239 31.9677C160.14 31.6606 160.092 31.3393 160.097 31.0167C160.097 30.5198 160.183 30.1017 160.357 29.7627C160.53 29.4244 160.771 29.1506 161.079 28.9406C161.387 28.7312 161.754 28.5816 162.179 28.4905C162.604 28.3994 163.066 28.355 163.563 28.355C164.079 28.3602 164.594 28.3962 165.106 28.4627C165.284 28.4869 165.442 28.5183 165.586 28.5573L165.584 36.7521ZM163.36 29.7965C163.147 29.7965 162.946 29.816 162.757 29.8556C162.568 29.8946 162.402 29.9633 162.26 30.0573C162.118 30.1513 162.005 30.2821 161.924 30.4471C161.84 30.6133 161.8 30.8262 161.8 31.0859C161.8 31.3307 161.838 31.5377 161.917 31.7075C161.996 31.8772 162.106 32.0151 162.249 32.1209C162.391 32.228 162.557 32.3049 162.746 32.3522C162.935 32.3995 163.14 32.4232 163.361 32.4232H163.964V29.8556C163.876 29.8402 163.788 29.8268 163.699 29.8154C163.587 29.8014 163.474 29.7951 163.36 29.7965ZM167.963 33.0856V31.8193H168.506C168.608 31.8193 168.713 31.8169 168.818 31.8134C168.923 31.8093 169.028 31.8012 169.132 31.7891C169.215 31.7803 169.298 31.7669 169.38 31.7489C169.657 31.6856 169.893 31.5732 170.09 31.4118C170.287 31.2503 170.386 31.0303 170.386 30.7558C170.386 30.3767 170.266 30.1182 170.025 29.9804C169.786 29.8432 169.468 29.7734 169.074 29.7734C168.718 29.7734 168.388 29.8195 168.079 29.9142C167.772 30.0088 167.54 30.0993 167.381 30.1868L166.967 28.8146C167.054 28.7673 167.178 28.7164 167.34 28.6608C167.741 28.5253 168.156 28.4298 168.576 28.3757C168.823 28.3438 169.072 28.328 169.321 28.3284C169.668 28.3284 170.007 28.3616 170.339 28.4231C170.652 28.4788 170.953 28.5915 171.226 28.7555C171.486 28.914 171.695 29.1234 171.854 29.3878C172.011 29.6515 172.089 29.9893 172.089 30.3986C172.089 30.809 171.98 31.1876 171.764 31.5348C171.547 31.882 171.198 32.1345 170.716 32.2919V32.351C171.229 32.4545 171.63 32.6751 171.917 33.0135C172.204 33.3524 172.348 33.806 172.348 34.3744C172.348 34.8239 172.258 35.2078 172.076 35.5272C171.894 35.8466 171.656 36.108 171.361 36.3132C171.065 36.5197 170.724 36.6705 170.337 36.7693C169.951 36.8686 169.557 36.9171 169.154 36.9171C168.634 36.9171 168.161 36.8746 167.735 36.787C167.309 36.7007 166.983 36.5983 166.754 36.4795L167.169 35.0706C167.352 35.1569 167.612 35.2462 167.951 35.3373C168.291 35.4272 168.696 35.4728 169.162 35.4728C169.337 35.4728 169.513 35.4515 169.691 35.4083C169.869 35.3657 170.029 35.2941 170.172 35.196C170.314 35.0978 170.43 34.9694 170.516 34.8121C170.602 34.6548 170.647 34.4649 170.647 34.2437C170.647 33.8734 170.509 33.5925 170.231 33.4038C169.954 33.2151 169.458 33.1128 168.746 33.0957C168.675 33.0888 168.604 33.0849 168.532 33.0838H167.963V33.0856ZM173.711 28.4716H175.332V31.4413C175.418 31.4254 175.556 31.4052 175.745 31.381C175.929 31.3578 176.115 31.3457 176.301 31.3449C176.694 31.3449 177.072 31.3845 177.43 31.4632C177.789 31.5425 178.103 31.6821 178.371 31.8832C178.639 32.0843 178.852 32.3569 179.009 32.7C179.168 33.043 179.245 33.4754 179.245 33.9941C179.245 34.9564 178.965 35.6762 178.406 36.1524C177.846 36.6303 177.013 36.8686 175.909 36.8686C175.798 36.8686 175.656 36.8663 175.483 36.8627C175.309 36.858 175.122 36.8491 174.921 36.8326C174.72 36.816 174.513 36.7965 174.3 36.7734C174.101 36.7515 173.903 36.7155 173.709 36.6658V28.4716H173.711ZM176.03 35.4266C176.48 35.4266 176.844 35.3225 177.124 35.1143C177.405 34.905 177.544 34.5566 177.544 34.0669C177.544 33.8066 177.505 33.5925 177.427 33.4281C177.347 33.2625 177.242 33.1323 177.107 33.0377C176.965 32.9397 176.804 32.8732 176.634 32.8425C176.438 32.8058 176.24 32.788 176.041 32.7893C175.931 32.7893 175.802 32.7993 175.652 32.8189C175.544 32.8292 175.437 32.851 175.333 32.8839V35.3563C175.419 35.3799 175.523 35.3977 175.645 35.4101C175.768 35.4213 175.896 35.4266 176.03 35.4266ZM180.099 28.4716H181.72V36.7521H180.099V28.4716ZM185.434 33.2151H185.008V36.7515H183.388V28.471H185.008V32.1381L185.387 31.9725L187.67 28.471H189.514L187.102 31.9494L186.463 32.3989L187.124 32.8597L189.881 36.7515H187.881L185.434 33.2151ZM190.39 32.6118C190.39 31.2325 190.694 30.1697 191.301 29.4232C191.908 28.678 192.776 28.3054 193.904 28.3054C194.495 28.3054 195.011 28.4083 195.453 28.6135C195.894 28.8194 196.261 29.1104 196.552 29.4883C196.844 29.8662 197.061 30.3199 197.204 30.8487C197.345 31.378 197.416 31.9648 197.416 32.6107C197.416 33.9911 197.11 35.054 196.499 35.7993C195.888 36.5451 195.022 36.9171 193.903 36.9171C193.302 36.9171 192.782 36.8154 192.34 36.609C191.909 36.4119 191.533 36.1114 191.246 35.7342C190.958 35.3557 190.742 34.9032 190.601 34.3744C190.461 33.8468 190.39 33.2583 190.39 32.6118ZM192.093 32.6118C192.093 33.03 192.13 33.4145 192.2 33.7658C192.271 34.1165 192.38 34.4182 192.526 34.6702C192.671 34.9221 192.859 35.1197 193.088 35.2616C193.317 35.403 193.589 35.4734 193.904 35.4734C194.48 35.4734 194.926 35.2492 195.241 34.7991C195.556 34.3496 195.714 33.6203 195.714 32.6107C195.714 32.2079 195.681 31.8341 195.614 31.4875C195.547 31.1409 195.442 30.8363 195.3 30.5766C195.17 30.3298 194.979 30.1202 194.745 29.9674C194.517 29.8219 194.237 29.7491 193.906 29.7491C193.329 29.7491 192.883 29.9804 192.568 30.4412C192.251 30.9025 192.093 31.6265 192.093 32.6118ZM204.385 30.3992C204.385 30.6056 204.359 30.8096 204.308 31.0149C204.257 31.2201 204.172 31.407 204.055 31.5762C203.937 31.7453 203.784 31.8962 203.597 32.0257C203.39 32.1649 203.159 32.2632 202.915 32.3155V32.3865C203.15 32.4255 203.373 32.4936 203.586 32.5882C203.798 32.6822 203.982 32.8123 204.14 32.978C204.297 33.143 204.421 33.3441 204.511 33.5819C204.601 33.8196 204.646 34.0982 204.646 34.4217C204.646 34.8476 204.556 35.2173 204.374 35.5278C204.195 35.8357 203.946 36.0971 203.647 36.2908C203.329 36.4938 202.979 36.6418 202.612 36.7285C202.221 36.8232 201.819 36.8707 201.417 36.8698H200.903C200.694 36.8698 200.469 36.8639 200.228 36.8521C199.988 36.8397 199.743 36.8225 199.494 36.7983C199.246 36.7758 199.019 36.7391 198.815 36.6918V28.5295C199.192 28.4709 199.571 28.4275 199.951 28.3994C200.408 28.3664 200.865 28.3503 201.323 28.3509C201.708 28.3509 202.086 28.3805 202.452 28.439C202.818 28.4988 203.147 28.6023 203.434 28.7519C203.721 28.9022 203.952 29.1109 204.126 29.3795C204.298 29.6498 204.385 29.9899 204.385 30.3992ZM200.918 31.95C201.029 31.95 201.156 31.9459 201.302 31.9382C201.448 31.9293 201.569 31.9186 201.662 31.9015C201.947 31.816 202.211 31.6726 202.438 31.4804C202.655 31.2935 202.763 31.0486 202.763 30.7428C202.763 30.5399 202.724 30.372 202.645 30.2395C202.569 30.1094 202.462 30.0007 202.333 29.9236C202.196 29.8425 202.046 29.7869 201.889 29.7598C201.717 29.7279 201.543 29.7123 201.368 29.7131C201.162 29.7131 200.974 29.7178 200.8 29.7255C200.626 29.7332 200.492 29.7438 200.398 29.7604V31.9494L200.918 31.95ZM201.432 35.5106C201.625 35.5106 201.814 35.4876 201.995 35.4402C202.177 35.3941 202.338 35.3214 202.476 35.2244C202.615 35.1262 202.729 35.0037 202.812 34.8547C202.898 34.7068 202.94 34.5312 202.94 34.3277C202.94 34.0692 202.89 33.8669 202.789 33.7191C202.688 33.5712 202.557 33.4559 202.394 33.3737C202.232 33.2914 202.05 33.2382 201.848 33.2145C201.648 33.1917 201.446 33.1801 201.245 33.1797H200.396V35.4385C200.435 35.4544 200.497 35.4663 200.582 35.4751C200.667 35.4822 200.758 35.4881 200.855 35.4917C200.952 35.4958 201.052 35.5006 201.157 35.5041C201.263 35.5083 201.354 35.5106 201.432 35.5106Z" fill="white"/>
</g>
<defs>
<clipPath id="clip0_1653_110">
<rect width="244" height="40.7906" fill="white"/>
</clipPath>
</defs>
</svg>
