<svg width="162" height="162" viewBox="0 0 162 162" fill="none" xmlns="http://www.w3.org/2000/svg">
<g clip-path="url(#clip0_1218_172)">
<path d="M0 0.700195H161.3V162H0V0.700195Z" fill="#FF4500"/>
<path d="M32.2155 101.059C29.0582 101.059 26.3652 100.502 24.2294 99.2947C22.0936 98.0875 20.6078 96.5089 19.6792 94.4659L23.858 89.3586H24.508C25.158 91.0301 26.1795 92.3301 27.3867 93.2587C28.6867 94.1873 30.0796 94.6516 31.7511 94.6516C33.6084 94.6516 35.0013 94.0945 35.9299 93.073C36.8585 91.9587 37.3228 90.1943 37.3228 87.7799V63.0789H44.7517V87.8728C44.7517 92.423 43.7302 95.766 41.6873 97.9018C39.5515 99.9447 36.4871 101.059 32.2155 101.059Z" fill="white"/>
<path d="M65.8144 101.059C63.0286 101.059 60.6142 100.502 58.4784 99.3878C56.4354 98.2735 54.7639 96.602 53.6496 94.3733C52.5352 92.1446 51.8853 89.5445 51.8853 86.3873C51.8853 83.23 52.4424 80.6299 53.6496 78.4012C54.7639 76.1725 56.4354 74.501 58.4784 73.3867C60.6142 72.2724 63.0286 71.6223 65.8144 71.6223C68.6003 71.6223 71.0146 72.1795 73.1504 73.3867C75.2862 74.501 76.8649 76.1725 78.0721 78.4012C79.2792 80.6299 79.8364 83.23 79.8364 86.3873C79.8364 89.5445 79.2792 92.1446 78.0721 94.3733C76.9577 96.602 75.2862 98.2735 73.1504 99.3878C71.0146 100.502 68.6003 101.059 65.8144 101.059ZM65.8144 95.0233C70.1789 95.0233 72.4075 92.1446 72.4075 86.3873C72.4075 83.4157 71.8504 81.187 70.7361 79.7941C69.6217 78.4012 67.9502 77.6583 65.8144 77.6583C61.45 77.6583 59.2213 80.537 59.2213 86.2944C59.2213 92.1446 61.45 95.0233 65.8144 95.0233Z" fill="white"/>
<path d="M102.028 101.059C98.4068 101.059 95.7138 99.6665 93.9494 96.9736L93.3923 97.0664V100.502H86.2419V60.8506H93.3923V75.5226L93.9494 75.6155C94.9709 74.2226 96.0852 73.294 97.3853 72.6439C98.6853 71.9939 100.264 71.6225 102.121 71.6225C104.443 71.6225 106.393 72.1796 108.157 73.2011C109.829 74.3154 111.222 75.8941 112.15 78.1227C113.079 80.3514 113.543 83.0444 113.543 86.2945C113.543 89.5447 113.079 92.2376 112.057 94.4663C111.036 96.695 109.736 98.2736 107.971 99.388C106.3 100.502 104.257 101.059 102.028 101.059ZM99.8925 95.0235C101.935 95.0235 103.607 94.3734 104.628 92.9805C105.743 91.5876 106.3 89.359 106.3 86.3874C106.3 83.4158 105.743 81.1872 104.628 79.7943C103.514 78.4013 101.935 77.6584 99.8925 77.6584C97.8496 77.6584 96.271 78.4013 95.1566 79.7943C93.9495 81.1872 93.3923 83.4158 93.3923 86.2945C93.3923 89.1732 93.9495 91.4019 95.1566 92.7948C96.271 94.2806 97.8496 95.0235 99.8925 95.0235Z" fill="white"/>
<path d="M129.336 101.059C127.386 101.059 125.622 100.873 124.043 100.409C122.465 99.9445 121.072 99.2945 119.957 98.5516C118.843 97.7159 118.007 96.8801 117.45 95.7658L121.443 91.4942H122C122.929 92.7943 124.043 93.7228 125.343 94.3729C126.643 95.0229 128.036 95.3015 129.522 95.3015C130.915 95.3015 131.937 95.0229 132.679 94.5586C133.329 94.0943 133.701 93.3514 133.701 92.4228C133.701 91.6799 133.422 91.1228 132.958 90.5656C132.494 90.1013 131.658 89.7298 130.544 89.4512L126.829 88.5226C124.043 87.8726 122 86.8511 120.7 85.4582C119.4 84.0653 118.75 82.3009 118.75 80.1651C118.75 78.4008 119.215 76.915 120.143 75.5221C121.072 74.222 122.279 73.2005 123.95 72.5505C125.622 71.9005 127.479 71.5291 129.708 71.5291C132.215 71.5291 134.351 71.9005 136.022 72.6434C137.694 73.3863 138.994 74.4077 139.923 75.6149L136.115 79.7008H135.558C134.815 78.7722 133.887 78.1222 132.865 77.7507C131.844 77.3793 130.822 77.1007 129.615 77.1007C126.829 77.1007 125.436 77.9365 125.436 79.7008C125.436 80.4437 125.715 81.0009 126.179 81.4652C126.736 81.9295 127.665 82.3009 128.965 82.5795L132.494 83.3224C135.372 83.9724 137.508 84.9011 138.808 86.294C140.108 87.6869 140.758 89.4512 140.758 91.7728C140.758 93.5371 140.294 95.2086 139.458 96.5087C138.53 97.9016 137.322 98.9231 135.651 99.666C133.701 100.687 131.658 101.059 129.336 101.059Z" fill="white"/>
</g>
<defs>
<clipPath id="clip0_1218_172">
<rect width="161.3" height="161.3" fill="white" transform="translate(0 0.700195)"/>
</clipPath>
</defs>
</svg>
