<svg width="106" height="99" viewBox="0 0 106 99" fill="none" xmlns="http://www.w3.org/2000/svg">
<mask id="mask0_70_8718" style="mask-type:luminance" maskUnits="userSpaceOnUse" x="0" y="82" width="106" height="17">
<path d="M106 82.8325H0V98.7335H106V82.8325Z" fill="white"/>
</mask>
<g mask="url(#mask0_70_8718)">
<path d="M102.422 99.0716H3.80169C1.67722 99.0716 0 97.38 0 95.2373V88.0198C0 85.8771 1.78903 84.1855 3.80169 84.1855H102.31C104.435 84.1855 106.112 85.8771 106.112 88.0198V95.2373C106.224 97.2672 104.435 99.0716 102.422 99.0716ZM3.80169 87.5687C3.57806 87.5687 3.35443 87.7943 3.35443 88.0198V95.2373C3.35443 95.4629 3.57806 95.6884 3.80169 95.6884H102.31C102.534 95.6884 102.757 95.4629 102.757 95.2373V88.0198C102.757 87.7943 102.534 87.5687 102.31 87.5687H3.80169Z" fill="#393939"/>
</g>
<path d="M78.8291 56.4434C71.0021 56.4434 64.5169 50.0154 64.5169 42.0085C64.5169 34.0016 70.8903 27.5735 78.8291 27.5735C86.6561 27.5735 93.1414 34.0016 93.1414 42.0085C93.1414 50.0154 86.6561 56.4434 78.8291 56.4434ZM78.8291 31.0695C72.7911 31.0695 67.9831 36.0315 67.9831 42.1212C67.9831 48.211 72.903 53.0602 78.8291 53.0602C84.8671 53.0602 89.7869 48.0982 89.7869 42.1212C89.7869 36.1443 84.7553 31.0695 78.8291 31.0695Z" fill="#393939"/>
<path d="M21.3565 63.7736C15.2068 63.7736 10.0633 58.6988 10.0633 52.3835C10.0633 46.0682 15.0949 40.9934 21.3565 40.9934C27.6181 40.9934 32.6498 46.0682 32.6498 52.3835C32.6498 58.6988 27.6181 63.7736 21.3565 63.7736ZM21.3565 44.3766C16.9958 44.3766 13.4177 47.9853 13.4177 52.3835C13.4177 56.7817 16.9958 60.3904 21.3565 60.3904C25.7173 60.3904 29.2954 56.7817 29.2954 52.3835C29.2954 47.9853 25.7173 44.3766 21.3565 44.3766Z" fill="#393939"/>
<path d="M101.304 87.5688C100.409 87.5688 99.6266 86.7794 99.6266 85.8772V71.7806C99.6266 63.7737 95.154 56.4434 87.9979 52.9474C85.4262 55.2029 82.1835 56.4434 78.7173 56.4434C75.2511 56.4434 72.0084 55.2029 69.4367 52.9474C62.3924 56.4434 57.808 63.7737 57.808 71.7806V75.2765C57.808 76.1787 57.0253 76.9681 56.1308 76.9681C55.2363 76.9681 54.4536 76.1787 54.4536 75.2765V71.7806C54.4536 62.0821 60.1561 53.2857 69.1013 49.3387C69.7721 49.0004 70.443 49.2259 71.0021 49.677C73.0148 51.8197 75.8101 52.9474 78.7173 52.9474C81.6245 52.9474 84.4198 51.8197 86.4325 49.677C86.8797 49.2259 87.6624 49.0004 88.3333 49.3387C97.2785 53.2857 102.981 62.0821 102.981 71.7806V85.7644C102.981 86.7794 102.198 87.5688 101.304 87.5688Z" fill="#393939"/>
<path d="M5.03165 87.5688C4.13713 87.5688 3.35443 86.7794 3.35443 85.8772V75.7276C3.35443 68.1718 8.05063 61.2927 15.0949 58.6989C15.654 58.4733 16.2131 58.5861 16.6603 58.9244C19.4557 60.9543 23.2574 60.9543 26.0527 58.9244C26.5 58.5861 27.0591 58.4733 27.6181 58.6989C34.6624 61.2927 39.3587 68.1718 39.3587 75.7276V77.7576C39.3587 78.6598 38.576 79.4492 37.6814 79.4492C36.7869 79.4492 36.0042 78.6598 36.0042 77.7576V75.7276C36.0042 69.8634 32.538 64.5631 27.1709 62.1949C23.5928 64.4503 18.8966 64.4503 15.4304 62.1949C10.1751 64.4503 6.70886 69.7507 6.70886 75.6149V85.7645C6.70886 86.7794 5.92616 87.5688 5.03165 87.5688Z" fill="#393939"/>
<path d="M67.6477 76.5171C66.7532 76.5171 65.9705 75.7277 65.9705 74.8255V68.3974C65.9705 67.4952 66.7532 66.7058 67.6477 66.7058C68.5422 66.7058 69.3249 67.4952 69.3249 68.3974V74.8255C69.3249 75.7277 68.5422 76.5171 67.6477 76.5171Z" fill="#393939"/>
<path d="M85.6498 87.5689H58.5907C54.6772 87.5689 51.4346 84.2984 51.4346 80.3514C51.4346 76.4043 54.6772 73.1339 58.5907 73.1339H88.3333V68.3974C88.3333 67.4952 89.116 66.7058 90.0105 66.7058C90.9051 66.7058 91.6878 67.4952 91.6878 68.3974V74.8255C91.6878 75.7277 90.9051 76.5171 90.0105 76.5171H58.5907C56.4662 76.5171 54.789 78.2087 54.789 80.3514C54.789 82.4941 56.4662 84.1857 58.5907 84.1857H85.6498C86.5443 84.1857 87.327 84.9751 87.327 85.8773C87.327 86.7794 86.5443 87.5689 85.6498 87.5689Z" fill="#393939"/>
<path d="M43.1603 87.569H13.7532C12.8587 87.569 12.076 86.7796 12.076 85.8774V81.141C12.076 78.3216 14.3122 76.0662 17.1076 76.0662H39.8059C42.6013 76.0662 44.8376 78.3216 44.8376 81.141V85.8774C44.8376 86.7796 44.0549 87.569 43.1603 87.569ZM15.4304 84.1858H41.4831V81.141C41.4831 80.2388 40.7004 79.4494 39.8059 79.4494H16.9958C16.1013 79.4494 15.3186 80.2388 15.3186 81.141L15.4304 84.1858Z" fill="#393939"/>
<path d="M28.4008 79.3365C27.5063 79.3365 26.7236 78.5471 26.7236 77.6449V71.5551C26.7236 70.6529 27.5063 69.8635 28.4008 69.8635C29.2954 69.8635 30.0781 70.6529 30.0781 71.5551V77.6449C30.0781 78.6598 29.2954 79.3365 28.4008 79.3365Z" fill="#393939"/>
<path d="M14.424 80.6898C13.5295 80.6898 12.7468 79.9003 12.7468 78.9982V71.5551C12.7468 70.6529 13.5295 69.8635 14.424 69.8635C15.3186 69.8635 16.1013 70.6529 16.1013 71.5551V78.9982C16.1013 80.0131 15.3186 80.6898 14.424 80.6898Z" fill="#393939"/>
<path d="M53.8945 17.1984H33.3207C32.4262 17.1984 31.6435 16.409 31.6435 15.5068C31.6435 14.6046 32.4262 13.8152 33.3207 13.8152H53.8945C54.789 13.8152 55.5717 14.6046 55.5717 15.5068C55.5717 16.409 54.789 17.1984 53.8945 17.1984Z" fill="#393939"/>
<path d="M51.9937 24.5287H35.2215C34.327 24.5287 33.5443 23.7393 33.5443 22.8371C33.5443 21.9349 34.327 21.1455 35.2215 21.1455H51.8819C52.7764 21.1455 53.5591 21.9349 53.5591 22.8371C53.6709 23.7393 52.8882 24.5287 51.9937 24.5287Z" fill="#393939"/>
<mask id="mask1_70_8718" style="mask-type:luminance" maskUnits="userSpaceOnUse" x="20" y="0" width="48" height="46">
<path d="M67.8713 0.733398H20.1266V45.1661H67.8713V0.733398Z" fill="white"/>
</mask>
<g mask="url(#mask1_70_8718)">
<path d="M51.7701 43.7C51.4346 43.7 50.9874 43.5872 50.6519 43.3617L41.7068 35.9187C29.9663 35.242 20.7975 27.5734 20.7975 18.4388C20.7975 8.62753 31.0844 0.733398 43.6076 0.733398C56.1308 0.733398 66.4177 8.62753 66.4177 18.326C66.4177 23.8519 62.9515 29.1523 57.249 32.4227L53.4473 42.5723C53.2236 43.1361 52.7764 43.4745 52.3291 43.5872C52.1055 43.7 51.9937 43.7 51.7701 43.7ZM43.6076 4.1166C32.8734 4.1166 24.1519 10.5447 24.1519 18.326C24.1519 25.8818 32.2025 32.0844 42.3777 32.5355C42.7131 32.5355 43.0485 32.6482 43.384 32.8738L50.9874 39.1891L54.1182 30.6183C54.23 30.28 54.5654 29.9417 54.9009 29.7161C59.9325 27.0096 62.8397 22.7242 62.8397 18.326C62.9515 10.5447 54.3418 4.1166 43.6076 4.1166Z" fill="#393939"/>
</g>
</svg>
