<svg width="130" height="120" viewBox="0 0 130 120" fill="none" xmlns="http://www.w3.org/2000/svg">
<g id="Frame">
<g id="Vector">
<path d="M22.1 61.9H107.4C107.6 61.9 107.8 61.9 108.1 61.8C108.3 61.7 108.5 61.6 108.7 61.4C108.9 61.2 109 61.1 109.1 60.8C109.2 60.6 109.2 60.4 109.2 60.1V53.3C109.2 53.1 109.2 52.9 109.1 52.6C109 52.4 108.9 52.2 108.7 52C108.5 51.8 108.4 51.7 108.1 51.6C107.9 51.5 107.7 51.5 107.4 51.5H104V10.7C104 10.5 104 10.3 103.9 10C103.8 9.80001 103.7 9.60001 103.5 9.40001C103.3 9.20001 103.2 9.10001 102.9 9.00001C102.6 8.90001 102.6 9.00001 102.3 9.00001H27.3C27 9.00001 26.8 9.00001 26.6 9.10001C26.4 9.20001 26.2 9.30001 26.1 9.50001C26 9.70001 25.8 9.80001 25.7 10.1C25.6 10.3 25.6 10.5 25.6 10.7V51.6H22.1C21.9 51.6 21.7 51.6 21.4 51.7C21.2 51.8 21 51.9 20.8 52.1C20.6 52.3 20.5 52.4 20.4 52.7C20.3 52.9 20.3 53.1 20.3 53.4V60.2C20.3 60.4 20.3 60.6 20.4 60.9C20.5 61.1 20.6 61.3 20.8 61.5C21 61.7 21.1 61.8 21.4 61.9C21.7 61.8 21.9 61.9 22.1 61.9ZM29 12.4H100.7V51.6H56.3V44.8C56.3 44.6 56.3 44.4 56.2 44.1C56.1 43.9 56 43.7 55.8 43.5C55.6 43.3 55.5 43.2 55.2 43.1C55 43 54.8 43 54.5 43H40.9C40.7 43 40.5 43 40.2 43.1C40 43.2 39.8 43.3 39.6 43.5C39.4 43.7 39.3 43.8 39.2 44.1C39.1 44.3 39.1 44.5 39.1 44.8V51.6H29V12.4ZM52.9 51.7H42.6V46.6H52.8V51.7H52.9ZM23.8 55.1H105.7V58.5H23.8V55.1Z" fill="#393939"/>
<path d="M44.3 72.1H51.1V75.5H44.3V72.1Z" fill="#393939"/>
<path d="M78.4 72.1H85.2V75.5H78.4V72.1Z" fill="#393939"/>
<path d="M110.9 68.7H92.7L92 66.5C91.9 66.1 91.7 65.8 91.4 65.6C91.1 65.4 90.8 65.3 90.4 65.3H73.3C72.9 65.3 72.6 65.4 72.3 65.6C72 65.8 71.8 66.1 71.7 66.5L71 68.7H58.6L57.9 66.5C57.8 66.1 57.6 65.8 57.3 65.6C57 65.4 56.7 65.3 56.3 65.3H39.2C38.8 65.3 38.5 65.4 38.2 65.6C37.9 65.8 37.7 66.1 37.6 66.5L36.9 68.7H18.7C18.5 68.7 18.3 68.7 18 68.8C17.8 68.9 17.6 69 17.4 69.2C17.2 69.4 17.1 69.5 17 69.8C17.1 70 17 70.2 17 70.4V77.2C17 77.4 17 77.6 17.1 77.9C17.2 78.1 17.3 78.3 17.5 78.5C17.7 78.7 17.8 78.8 18.1 78.9C18.3 78.9 18.5 79 18.7 79H20.4V109.7C20.4 109.9 20.4 110.1 20.5 110.4C20.6 110.6 20.7 110.8 20.9 111C21.1 111.2 21.2 111.3 21.5 111.4C21.7 111.5 21.9 111.5 22.2 111.5H25.6C26 111.5 26.4 111.4 26.7 111.1C27 110.8 27.2 110.4 27.3 110L30.5 79H33.8L32.4 83.6C32.4 83.8 32.3 83.9 32.3 84.1V89.2C32.3 89.7 32.4 90.3 32.6 90.8C32.8 91.3 33 91.8 33.3 92.2C33.6 92.6 34 93 34.4 93.3C34.8 93.6 35.3 93.9 35.8 94L37.4 109.8C37.4 110.2 37.6 110.6 38 110.9C38.3 111.2 38.7 111.3 39.1 111.3H42.5C42.9 111.3 43.3 111.1 43.6 110.9C43.9 110.6 44.1 110.2 44.2 109.8L45.8 94.3H49.5L51.1 109.8C51.1 110.2 51.3 110.6 51.7 110.9C52 111.2 52.4 111.3 52.8 111.3H56.2C56.6 111.3 57 111.1 57.3 110.9C57.6 110.6 57.8 110.2 57.9 109.8L59.5 94C60 93.8 60.5 93.6 60.9 93.3C61.3 93 61.7 92.6 62 92.2C62.3 91.8 62.6 91.3 62.7 90.8C62.9 90.3 63 89.8 63 89.2V84.1C63 83.9 63 83.8 62.9 83.6L61.6 79H68L66.6 83.6C66.6 83.8 66.5 83.9 66.5 84.1V89.2C66.5 89.7 66.6 90.3 66.8 90.8C67 91.3 67.2 91.8 67.5 92.2C67.8 92.6 68.2 93 68.6 93.3C69 93.6 69.5 93.9 70 94L71.6 109.8C71.6 110.2 71.8 110.6 72.2 110.9C72.5 111.2 72.9 111.3 73.3 111.3H76.7C77.1 111.3 77.5 111.1 77.8 110.9C78.1 110.6 78.3 110.2 78.4 109.8L80 94.3H83.7L85.3 109.8C85.3 110.2 85.5 110.6 85.9 110.9C86.2 111.2 86.6 111.3 87 111.3H90.4C90.8 111.3 91.2 111.1 91.5 110.9C91.8 110.6 92 110.2 92.1 109.8L93.7 94C94.2 93.8 94.7 93.6 95.1 93.3C95.5 93 95.9 92.6 96.2 92.2C96.5 91.8 96.8 91.3 96.9 90.8C97.1 90.3 97.2 89.8 97.2 89.2V84.1C97.2 83.9 97.2 83.8 97.1 83.6L95.8 79H99.1L102.4 109.9C102.4 110.3 102.6 110.7 103 111C103.3 111.3 103.7 111.4 104.1 111.4H107.5C107.7 111.4 107.9 111.4 108.2 111.3C108.4 111.2 108.6 111.1 108.8 110.9C109 110.7 109.1 110.6 109.2 110.3C109.3 110.1 109.3 109.9 109.3 109.6V79H111C111.2 79 111.4 79 111.7 78.9C111.9 78.8 112.1 78.7 112.3 78.5C112.5 78.3 112.6 78.2 112.7 77.9C112.8 77.7 112.8 77.5 112.8 77.2V70.4C112.8 70.2 112.8 70 112.7 69.7C112.6 69.5 112.5 69.3 112.3 69.1C112.1 68.9 112 68.8 111.7 68.7C111.3 68.8 111.1 68.7 110.9 68.7ZM24 108H23.8V79H27L24 108ZM20.4 75.5V72.1H35.9L34.9 75.5H20.4ZM41.1 108H40.8L39.4 94.4H42.5L41.1 108ZM54.4 108L53 94.3H56.1L54.7 108H54.4ZM59.7 89.2C59.7 89.4 59.7 89.6 59.6 89.9C59.5 90.1 59.4 90.3 59.2 90.5C59 90.7 58.9 90.8 58.6 90.9C58.4 91 58.2 91 57.9 91H37.5C37.3 91 37.1 91 36.8 90.9C36.6 90.8 36.4 90.7 36.2 90.5C36 90.3 35.9 90.2 35.8 89.9C35.7 89.7 35.7 89.5 35.7 89.2V84.3L40.4 68.7H55L59.7 84.3V89.2ZM60.6 75.5L59.6 72.1H70L69 75.5H60.6ZM75.2 108H74.9L73.5 94.4H76.6L75.2 108ZM88.5 108L87.1 94.4H90.2L88.8 108H88.5ZM93.8 89.2C93.8 89.4 93.8 89.6 93.7 89.9C93.6 90.1 93.5 90.3 93.3 90.5C93.1 90.7 93 90.8 92.7 90.9C92.5 91 92.3 91 92 91H71.6C71.4 91 71.2 91 70.9 90.9C70.7 90.8 70.5 90.7 70.3 90.5C70.1 90.3 70 90.2 69.9 89.9C69.8 89.7 69.8 89.5 69.8 89.2V84.3L74.5 68.7H89L93.7 84.3V89.2H93.8ZM105.8 108H105.6L102.5 79H105.7V108H105.8ZM109.2 75.5H94.7L93.7 72.1H109.2V75.5Z" fill="#393939"/>
</g>
</g>
</svg>
