<svg width="130" height="120" viewBox="0 0 130 120" fill="none" xmlns="http://www.w3.org/2000/svg">
<g id="Frame">
<path id="Vector" d="M112 42.9C111.6 39.6 111.5 33.8 114.6 31.9C114.7 31.9 114.7 31.8 114.8 31.8C117.3 31 119.1 29.8 117.7 28.3L80.3 17L19.7 25.4C19.7 25.4 12.8 26.4 13.4 37.2C13.7 43.1 15.6 45.9 17.2 47.4L12.2 48.9C10.8 50.4 12.6 51.6 15.1 52.4C15.2 52.4 15.2 52.5 15.2 52.5C18.3 54.4 18.2 60.2 17.8 63.5C6.69998 66.7 10.7 67.7 10.7 67.7L13.1 68.3C11.4 69.8 9.69998 72.8 9.99998 78.4C10.6 89.2 16.3 89.9 16.3 89.9L56 102.8L115.8 88.3C115.8 88.3 119.8 87.3 108.7 84.1C108.2 80.8 108.2 75 111.3 73.1C111.4 73.1 111.4 73 111.4 73C113.9 72.2 115.7 71.1 114.3 69.5L111.7 68.7C113.4 67.7 116 64.9 116.4 57.8C116.7 52.9 115.4 50.1 113.9 48.4L119 47.2C119.2 47.1 123.2 46.1 112 42.9ZM62 42.8L72 40.7L106 33.7L111.1 32.7C109.5 35.7 109.5 39.7 109.8 42.3C109.9 42.9 109.9 43.4 110 43.8L104.5 45.2L61.6 55.9L62 42.8ZM18.8 53.3L23.9 54.3L56.5 61L59.4 61.6L68 63.4L68.4 76.5L24.3 65.5L20 64.4C20.1 64 20.1 63.4 20.2 62.9C20.3 60.3 20.4 56.2 18.8 53.3ZM16.8 36.7C16.7 33.8 17.2 31.8 18.3 30.7C19 30 19.7 29.9 20.3 29.9C20.6 29.9 20.8 29.9 20.8 29.9L46.9 38.4L59.9 42.6L59.5 55.8L22.9 45.6L21 45.1C20.9 45.1 20.8 45.1 20.8 45.1C20.6 45 17 44.7 16.8 36.7ZM56.1 97.1L17.6 86.3C17.5 86.3 17.4 86.3 17.4 86.3C17.2 86.3 13.6 86 13.5 77.9C13.4 75 13.9 73 15 71.9C15.7 71.2 16.4 71.1 17 71.1C17.3 71.1 17.5 71.1 17.5 71.1L56.6 83.9L56.1 97.1ZM106.5 83.5C106.6 84.1 106.6 84.6 106.7 85L58.2 97.1L58.6 84L69 81.8L70.5 82.2L76.2 80.3L102.6 74.9L107.7 73.9C106.2 76.8 106.2 80.9 106.5 83.5ZM109.2 65.6C109.1 65.6 109 65.6 108.9 65.6L105.2 66.6L70.4 76.4L70 63.3L81.4 59.6L109.1 50.6C109.1 50.6 110.6 50.3 111.6 51.4C112.6 52.5 113.2 54.5 113.1 57.4C112.9 65.3 109.3 65.6 109.2 65.6Z" fill="#393939"/>
</g>
</svg>
