<svg width="32" height="33" viewBox="0 0 32 33" fill="none" xmlns="http://www.w3.org/2000/svg">
<g clip-path="url(#clip0_1233_2359)">
<mask id="mask0_1233_2359" style="mask-type:luminance" maskUnits="userSpaceOnUse" x="0" y="0" width="14" height="16">
<path d="M14 0H0V15.1H14V0Z" fill="white"/>
</mask>
<g mask="url(#mask0_1233_2359)">
<path d="M13.2 0.300049C12.7 0.400049 12.2 0.500049 11.7 0.600049V11L3.59995 6.20005C3.19995 6.70005 2.89995 7.20005 2.49995 7.70005C2.39995 7.90005 2.29995 8.10005 2.19995 8.30005L11.1 13.6H8.29995L1.49995 9.60005C1.39995 9.90005 1.19995 10.2 1.09995 10.5L6.29995 13.6H0.299951C0.199951 13.9 0.199951 14.3 0.199951 14.6H13.3V0.300049" fill="white"/>
</g>
<mask id="mask1_1233_2359" style="mask-type:luminance" maskUnits="userSpaceOnUse" x="18" y="17" width="14" height="16">
<path d="M32 17.8H18V33H32V17.8Z" fill="white"/>
</mask>
<g mask="url(#mask1_1233_2359)">
<path d="M18.8 32.6001C19.3 32.5001 19.8 32.4001 20.3 32.3001V22.1001L28.4 26.9001C28.8 26.4001 29.2 25.9001 29.5 25.3001C29.6 25.1001 29.7 24.9001 29.8 24.8001L20.8 19.4001H23.5L30.4 23.5001C30.5 23.2001 30.7 22.9001 30.8 22.6001L25.4 19.4001H31.6C31.7001 19.1001 31.7001 18.7001 31.7001 18.4001H18.8V32.6001Z" fill="white"/>
</g>
<mask id="mask2_1233_2359" style="mask-type:luminance" maskUnits="userSpaceOnUse" x="0" y="17" width="14" height="16">
<path d="M14 17.8H0V33H14V17.8Z" fill="white"/>
</mask>
<g mask="url(#mask2_1233_2359)">
<path d="M0.199951 18.4001C0.199951 18.7001 0.299951 19.1001 0.299951 19.4001H5.99995L1.09995 22.3001C1.39995 23.1001 1.79995 23.9001 2.19995 24.7001L11.1 19.4001H11.8V20.6001L2.89995 25.9001C3.09995 26.2001 3.29995 26.4001 3.49995 26.7001L11.8 21.8001V32.4001C12.3 32.5001 12.8 32.7001 13.3 32.7001V18.4001H0.199951Z" fill="white"/>
</g>
<mask id="mask3_1233_2359" style="mask-type:luminance" maskUnits="userSpaceOnUse" x="18" y="0" width="14" height="16">
<path d="M32 0H18V15.1H32V0Z" fill="white"/>
</mask>
<g mask="url(#mask3_1233_2359)">
<path d="M31.7999 14.5999C31.7999 14.2999 31.7 13.8999 31.7 13.5999H25.9L30.9 10.5999C30.5999 9.7999 30.1999 8.9999 29.7999 8.1999L20.7999 13.5999H20.2999V12.2999L29 7.0999C28.8 6.7999 28.5999 6.5999 28.4 6.2999L20.2 11.1999V0.699902C19.7 0.599902 19.2 0.399902 18.7 0.399902V14.6999H31.7999" fill="white"/>
</g>
<mask id="mask4_1233_2359" style="mask-type:luminance" maskUnits="userSpaceOnUse" x="0" y="9" width="8" height="5">
<path d="M7.3 9.80005H0V13.8H7.3V9.80005Z" fill="white"/>
</mask>
<g mask="url(#mask4_1233_2359)">
<path d="M1.10005 10.5C0.700049 11.5 0.400049 12.5 0.300049 13.6H6.30005L1.10005 10.5Z" fill="#202149"/>
</g>
<mask id="mask5_1233_2359" style="mask-type:luminance" maskUnits="userSpaceOnUse" x="0" y="19" width="6" height="5">
<path d="M6 19.1001H0V23.1001H6V19.1001Z" fill="white"/>
</mask>
<g mask="url(#mask5_1233_2359)">
<path d="M0.300049 19.4001C0.500049 20.4001 0.700049 21.4001 1.10005 22.3001L6.00005 19.4001H0.300049Z" fill="#202149"/>
</g>
<path d="M3.5 26.7C4.6 28.1 5.9 29.4 7.5 30.4C8.9 31.2999 10.3 31.9 11.8 32.4V21.7L3.5 26.7Z" fill="#202149"/>
<path d="M20.2 32.3001C23.3 31.4001 26.0999 29.6001 28.2999 26.9001L20.2 22.1001V32.3001Z" fill="#202149"/>
<path d="M28.5 6.29995C27.4 4.89995 26.1 3.69995 24.6 2.69995C23.2 1.79995 21.8 1.19995 20.3 0.699951V11.2L28.5 6.29995Z" fill="#202149"/>
<path d="M11.8001 0.699951C8.7001 1.59995 5.8001 3.49995 3.6001 6.19995L11.8001 11V0.699951Z" fill="#202149"/>
<mask id="mask6_1233_2359" style="mask-type:luminance" maskUnits="userSpaceOnUse" x="24" y="19" width="8" height="5">
<path d="M32 19.1001H24.7V23.1001H32V19.1001Z" fill="white"/>
</mask>
<g mask="url(#mask6_1233_2359)">
<path d="M30.8 22.6001C31.2 21.6001 31.5 20.5001 31.7 19.4001H25.5L30.8 22.6001Z" fill="#202149"/>
</g>
<mask id="mask7_1233_2359" style="mask-type:luminance" maskUnits="userSpaceOnUse" x="24" y="9" width="8" height="5">
<path d="M32 9.80005H24.7V13.8H32V9.80005Z" fill="white"/>
</mask>
<g mask="url(#mask7_1233_2359)">
<path d="M31.6999 13.6001C31.4999 12.6001 31.2999 11.6001 30.8999 10.6001L25.8999 13.6001H31.6999Z" fill="#202149"/>
</g>
<path d="M20.8 19.3999L29.8 24.7999C30 24.3999 30.2 23.9999 30.4 23.5999L23.5 19.4999H20.8" fill="#E52C33"/>
<path d="M20.2 13.6H20.7L29.7 8.2C29.5 7.8 29.2 7.4 29 7L20.2 12.2V13.6Z" fill="#E52C33"/>
<path d="M11 13.6L2.2 8.30005C1.9 8.70005 1.7 9.20005 1.5 9.60005L8.3 13.6H11Z" fill="#E52C33"/>
<path d="M11.8001 19.3999H11.0001L2.1001 24.6999C2.3001 25.0999 2.6001 25.4999 2.8001 25.8999L11.7001 20.5999V19.3999" fill="#E52C33"/>
<path d="M31.8 14.6H18.8V0.299951C16.9 -4.88311e-05 15 -4.88311e-05 13.2 0.299951V14.6H0.2C0.1 15.9 0.1 17.1 0.2 18.4H13.3V32.7C15.2 33 17 33 18.9 32.7V18.4H32C32 17.1 32 15.8 31.8 14.6Z" fill="#E52C33"/>
</g>
<defs>
<clipPath id="clip0_1233_2359">
<rect width="32" height="33" fill="white"/>
</clipPath>
</defs>
</svg>
