<svg width="78" height="78" viewBox="0 0 78 78" fill="none" xmlns="http://www.w3.org/2000/svg">
<g id="Frame">
<g id="Vector">
<path d="M63.0435 7.78005H59.4527V2.39386C59.4527 1.09719 58.3555 0 57.0588 0C55.7621 0 54.665 1.09719 54.665 2.39386V7.78005H22.4476V2.39386C22.4476 1.09719 21.3504 0 20.0537 0C18.757 0 17.6598 1.09719 17.6598 2.39386V7.78005H15.3657C7.98465 7.78005 2 13.8644 2 21.2455V64.5345C2 72.0153 7.98465 78 15.4655 78H63.0435C70.5243 78 76.5089 72.0153 76.5089 64.5345V21.2455C76.5089 13.8644 70.5243 7.78005 63.0435 7.78005ZM54.7647 10.2737V15.1611C54.7647 16.4578 55.8619 17.555 57.1586 17.555C58.4552 17.555 59.5524 16.4578 59.5524 15.1611V10.4731C61.0486 11.3708 62.046 12.9668 62.046 14.8619C62.046 17.6547 59.7519 19.9488 56.9591 19.9488C54.1662 19.9488 51.8721 17.6547 51.8721 14.8619C51.8721 12.867 53.0691 11.0716 54.7647 10.2737ZM17.7596 10.3734V15.1611C17.7596 16.4578 18.8568 17.555 20.1535 17.555C21.4501 17.555 22.5473 16.4578 22.5473 15.1611V10.3734C24.1432 11.1714 25.2404 12.867 25.2404 14.8619C25.2404 17.6547 22.9463 19.9488 20.1535 19.9488C17.3606 19.9488 15.0665 17.6547 15.0665 14.8619C15.0665 12.867 16.1637 11.2711 17.7596 10.3734ZM71.821 64.5345C71.821 69.3223 67.9309 73.312 63.0435 73.312H15.4655C10.6777 73.312 6.68798 69.422 6.68798 64.5345V28.7263H71.821V64.5345Z" fill="#393939"/>
<path d="M22.5473 42.2916H15.9642C15.4655 42.2916 14.9668 41.8926 14.9668 41.2941V34.8107C14.9668 34.312 15.3657 33.8133 15.9642 33.8133H22.4476C22.9463 33.8133 23.445 34.2123 23.445 34.8107V41.2941C23.445 41.7928 23.046 42.2916 22.5473 42.2916Z" fill="#393939"/>
<path d="M22.5473 55.6573H15.9642C15.4655 55.6573 14.9668 55.2583 14.9668 54.6598V48.1765C14.9668 47.6777 15.3657 47.179 15.9642 47.179H22.4476C22.9463 47.179 23.445 47.578 23.445 48.1765V54.6598C23.445 55.2583 23.046 55.6573 22.5473 55.6573Z" fill="#393939"/>
<path d="M22.5473 69.023H15.9642C15.4655 69.023 14.9668 68.624 14.9668 68.0256V61.5422C14.9668 61.0435 15.3657 60.5448 15.9642 60.5448H22.4476C22.9463 60.5448 23.445 60.9437 23.445 61.5422V68.0256C23.445 68.624 23.046 69.023 22.5473 69.023Z" fill="#393939"/>
<path d="M35.913 42.2916H29.4297C28.9309 42.2916 28.4322 41.8926 28.4322 41.2941V34.8107C28.4322 34.312 28.8312 33.8133 29.4297 33.8133H35.913C36.4118 33.8133 36.9105 34.2123 36.9105 34.8107V41.2941C36.8107 41.7928 36.4118 42.2916 35.913 42.2916Z" fill="#393939"/>
<path d="M35.913 55.6573H29.4297C28.9309 55.6573 28.4322 55.2583 28.4322 54.6598V48.1765C28.4322 47.6777 28.8312 47.179 29.4297 47.179H35.913C36.4118 47.179 36.9105 47.578 36.9105 48.1765V54.6598C36.8107 55.2583 36.4118 55.6573 35.913 55.6573Z" fill="#393939"/>
<path d="M35.913 69.023H29.4297C28.9309 69.023 28.4322 68.624 28.4322 68.0256V61.5422C28.4322 61.0435 28.8312 60.5448 29.4297 60.5448H35.913C36.4118 60.5448 36.9105 60.9437 36.9105 61.5422V68.0256C36.8107 68.624 36.4118 69.023 35.913 69.023Z" fill="#393939"/>
<path d="M49.2788 42.2916H42.7954C42.2967 42.2916 41.798 41.8926 41.798 41.2941V34.8107C41.798 34.312 42.1969 33.8133 42.7954 33.8133H49.2788C49.7775 33.8133 50.2762 34.2123 50.2762 34.8107V41.2941C50.1765 41.7928 49.7775 42.2916 49.2788 42.2916Z" fill="#393939"/>
<path d="M49.2788 55.6573H42.7954C42.2967 55.6573 41.798 55.2583 41.798 54.6598V48.1765C41.798 47.6777 42.1969 47.179 42.7954 47.179H49.2788C49.7775 47.179 50.2762 47.578 50.2762 48.1765V54.6598C50.1765 55.2583 49.7775 55.6573 49.2788 55.6573Z" fill="#393939"/>
<path d="M49.2788 69.023H42.7954C42.2967 69.023 41.798 68.624 41.798 68.0256V61.5422C41.798 61.0435 42.1969 60.5448 42.7954 60.5448H49.2788C49.7775 60.5448 50.2762 60.9437 50.2762 61.5422V68.0256C50.1765 68.624 49.7775 69.023 49.2788 69.023Z" fill="#393939"/>
<path d="M62.6445 42.2916H56.1611C55.6624 42.2916 55.1637 41.8926 55.1637 41.2941V34.8107C55.1637 34.312 55.5627 33.8133 56.1611 33.8133H62.6445C63.1432 33.8133 63.6419 34.2123 63.6419 34.8107V41.2941C63.5422 41.7928 63.1432 42.2916 62.6445 42.2916Z" fill="#393939"/>
<path d="M62.6445 55.6573H56.1611C55.6624 55.6573 55.1637 55.2583 55.1637 54.6598V48.1765C55.1637 47.6777 55.5627 47.179 56.1611 47.179H62.6445C63.1432 47.179 63.6419 47.578 63.6419 48.1765V54.6598C63.5422 55.2583 63.1432 55.6573 62.6445 55.6573Z" fill="#393939"/>
</g>
</g>
</svg>
