<svg width="72" height="53" viewBox="0 0 72 53" fill="none" xmlns="http://www.w3.org/2000/svg">
<path d="M45.6513 28.1598C45.6513 28.3184 45.7798 28.4469 45.9384 28.4469H59.7729C59.9315 28.4469 60.06 28.3184 60.06 28.1598V15.8921C60.06 15.7335 59.9315 15.605 59.7729 15.605H52.0621C51.9035 15.605 51.775 15.4764 51.775 15.3179V13.7814C51.775 13.6228 51.9035 13.4943 52.0621 13.4943H59.7729C59.9315 13.4943 60.06 13.3657 60.06 13.2072V8.34262C60.06 8.18406 59.9315 8.05552 59.7729 8.05552H52.0621C51.9035 8.05552 51.775 7.92698 51.775 7.76842V5.94455C51.775 5.78599 51.9035 5.65745 52.0621 5.65745H59.7729C59.9315 5.65745 60.06 5.52891 60.06 5.37035V0.861074C60.06 0.702513 59.9315 0.573975 59.7729 0.573975H45.9384C45.7798 0.573975 45.6513 0.702513 45.6513 0.861074V28.1598ZM34.5845 7.08671C34.4765 7.28747 34.1889 7.2884 34.0796 7.08834L30.6037 0.723469C30.5534 0.631306 30.4567 0.573975 30.3517 0.573975H24.6854C24.5269 0.573975 24.3983 0.702513 24.3983 0.861074V5.29245C24.3983 5.5207 24.1397 5.66569 23.9373 5.56021C23.6915 5.43211 23.4068 5.29861 23.1576 5.2043C23.0398 5.15969 22.9575 5.04901 22.9575 4.92299V0.861073C22.9575 0.702513 22.8289 0.573975 22.6704 0.573975H17.5542C12.0533 0.573975 5.06559 6.75924 5.06559 14.4973C5.03908 24.8151 13.0861 29.5139 22.7026 28.4757C22.8473 28.4601 22.9575 28.3373 22.9575 28.1918V20.51C22.9575 20.4043 23.0157 20.3076 23.1075 20.2553C23.5046 20.029 23.8885 19.7593 24.2556 19.4485C24.3431 19.3745 24.3987 19.3944 24.3988 19.509C24.4 20.6518 24.3987 26.7717 24.3984 28.1646C24.3984 28.3232 24.5269 28.4469 24.6855 28.4469H30.235C30.3935 28.4469 30.5221 28.3184 30.5221 28.1598V12.8998C30.5221 12.6057 30.9118 12.5018 31.0582 12.757L34.0826 18.0288C34.1933 18.2219 34.4721 18.2209 34.5816 18.0272L37.5496 12.7731C37.6948 12.5162 38.0867 12.6192 38.0867 12.9144V28.1598C38.0867 28.3184 38.2152 28.4469 38.3738 28.4469H43.9233C44.0819 28.4469 44.2104 28.3184 44.2104 28.1598V0.861075C44.2104 0.702515 44.0819 0.573975 43.9233 0.573975H38.2583C38.1526 0.573975 38.0554 0.632028 38.0054 0.7251L34.5845 7.08671ZM26.8539 19.0624C25.9646 18.7877 25.0979 18.3665 24.2967 17.7518C24.282 17.7406 24.1131 17.9294 24.0453 18.0028C24.029 18.0205 24.0089 18.0355 23.9879 18.0473C15.9348 22.5296 10.3754 12.6369 18.5277 8.33244C25.2143 5.8403 29.0744 11.5605 25.925 15.2594C25.8846 15.3068 25.8579 15.3665 25.8557 15.4287C25.8157 16.5723 26.6594 17.6567 26.9807 18.7188C26.9883 18.7441 27.0737 19.1272 27.0701 19.1262C26.9977 19.1059 26.926 19.0842 26.8539 19.0624Z" fill="#241815"/>
<path d="M45.0788 27.5859C45.0788 27.7444 45.2074 27.873 45.3659 27.873H59.2005C59.3591 27.873 59.4876 27.7444 59.4876 27.5859V15.3181C59.4876 15.1595 59.3591 15.031 59.2005 15.031H51.4896C51.3311 15.031 51.2025 14.9025 51.2025 14.7439V13.2074C51.2025 13.0488 51.3311 12.9203 51.4896 12.9203H59.2005C59.3591 12.9203 59.4876 12.7918 59.4876 12.6332V7.76864C59.4876 7.61008 59.3591 7.48154 59.2005 7.48154H51.4896C51.3311 7.48154 51.2025 7.353 51.2025 7.19444V5.37058C51.2025 5.21202 51.3311 5.08348 51.4896 5.08348H59.2005C59.3591 5.08348 59.4876 4.95494 59.4876 4.79638V0.287099C59.4876 0.128539 59.3591 0 59.2005 0H45.3659C45.2074 0 45.0788 0.128539 45.0788 0.287099V27.5859ZM34.012 6.51273C33.904 6.7135 33.6164 6.71443 33.5072 6.51437L30.0313 0.149494C29.9809 0.0573316 29.8843 0 29.7793 0H24.113C23.9544 0 23.8259 0.128539 23.8259 0.287099V4.71847C23.8259 4.94673 23.5672 5.09172 23.3648 4.98624C23.119 4.85814 22.8343 4.72464 22.5852 4.63033C22.4673 4.58571 22.385 4.47504 22.385 4.34901V0.287099C22.385 0.128538 22.2565 0 22.0979 0H16.9817C11.4808 0 4.49314 6.18526 4.49314 13.9233C4.46663 24.2411 12.5137 28.94 22.1301 27.9018C22.2748 27.8862 22.385 27.7633 22.385 27.6178V19.936C22.385 19.8304 22.4433 19.7337 22.5351 19.6813C22.9322 19.4551 23.316 19.1853 23.6831 18.8745C23.7706 18.8005 23.8262 18.8204 23.8263 18.935C23.8275 20.0778 23.8263 26.1977 23.8259 27.5907C23.8259 27.7493 23.9545 27.873 24.1131 27.873H29.6625C29.8211 27.873 29.9496 27.7444 29.9496 27.5859V12.3258C29.9496 12.0317 30.3394 11.9278 30.4857 12.183L33.5101 17.4549C33.6209 17.6479 33.8997 17.647 34.0091 17.4532L36.9771 12.1992C37.1223 11.9422 37.5142 12.0452 37.5142 12.3404V27.5859C37.5142 27.7444 37.6428 27.873 37.8013 27.873H43.3508C43.5094 27.873 43.6379 27.7444 43.6379 27.5859V0.287101C43.6379 0.12854 43.5094 0 43.3508 0H37.6858C37.5801 0 37.483 0.0580532 37.4329 0.151125L34.012 6.51273ZM26.2815 18.4884C25.3921 18.2137 24.5254 17.7926 23.7243 17.1778C23.7096 17.1666 23.5407 17.3554 23.4729 17.4288C23.4566 17.4465 23.4364 17.4616 23.4154 17.4733C15.3624 21.9556 9.803 12.0629 17.9552 7.75847C24.6419 5.26633 28.5019 10.9865 25.3525 14.6854C25.3122 14.7328 25.2855 14.7926 25.2833 14.8548C25.2432 15.9983 26.0869 17.0827 26.4083 18.1448C26.4159 18.1701 26.5012 18.5533 26.4976 18.5522C26.4252 18.532 26.3535 18.5102 26.2815 18.4884Z" fill="url(#paint0_linear_385_2657)"/>
<g filter="url(#filter0_d_385_2657)">
<g filter="url(#filter1_i_385_2657)">
<path d="M1.91467 33.7069C1.91467 33.4371 2.10244 33.2038 2.36593 33.146L14.1069 30.5725C14.465 30.494 14.804 30.7667 14.804 31.1334V46.9985C14.804 47.2682 14.6162 47.5016 14.3528 47.5594L2.61181 50.1329C2.25365 50.2114 1.91467 49.9387 1.91467 49.572V33.7069Z" fill="url(#paint1_radial_385_2657)"/>
</g>
<path d="M2.05822 33.7069C2.05822 33.5046 2.19905 33.3295 2.39667 33.2862L14.1376 30.7127C14.4062 30.6538 14.6605 30.8584 14.6605 31.1334V46.9985C14.6605 47.2008 14.5196 47.3758 14.322 47.4192L2.58108 49.9927C2.31246 50.0516 2.05822 49.847 2.05822 49.572V33.7069Z" stroke="#FBBF28" stroke-width="0.287099"/>
<g filter="url(#filter2_i_385_2657)">
<path d="M70.0853 19.3327C70.0853 18.9694 69.7522 18.6975 69.3963 18.7701L56.2232 21.4576C55.9558 21.5121 55.7638 21.7473 55.7638 22.0202V37.8889C55.7638 38.2522 56.0968 38.5241 56.4528 38.4515L69.6258 35.7641C69.8932 35.7095 70.0853 35.4743 70.0853 35.2014V19.3327Z" fill="url(#paint2_radial_385_2657)"/>
</g>
<path d="M69.9417 19.3327C69.9417 19.0602 69.6919 18.8563 69.425 18.9107L56.2519 21.5982C56.0514 21.6391 55.9073 21.8155 55.9073 22.0202V37.8889C55.9073 38.1613 56.1571 38.3653 56.4241 38.3109L69.5972 35.6234C69.7977 35.5825 69.9417 35.4061 69.9417 35.2014V19.3327Z" stroke="#FBBF28" stroke-width="0.287099"/>
<path d="M55.9704 38.4914L63.6185 32.6707C63.7275 32.5877 63.6486 32.4144 63.5144 32.4423L55.8663 34.0297C55.8066 34.0421 55.7637 34.0947 55.7637 34.1557V38.3889C55.7637 38.4954 55.8856 38.5558 55.9704 38.4914Z" fill="#886900"/>
<path d="M14.4973 47.3588L7.22046 44.9696C7.09681 44.929 7.10466 44.7515 7.23142 44.722L14.6406 42.9965C14.723 42.9773 14.8011 43.0415 14.7984 43.126L14.6661 47.2407C14.6634 47.3265 14.5789 47.3856 14.4973 47.3588Z" fill="#886900"/>
<g filter="url(#filter3_i_385_2657)">
<path d="M6.78378 28.2473C6.78378 27.9776 6.97155 27.7442 7.23504 27.6865L63.3726 15.3818C63.7308 15.3033 64.0697 15.576 64.0697 15.9427V31.8078C64.0697 32.0775 63.882 32.3109 63.6185 32.3687L7.48092 44.6733C7.12276 44.7518 6.78378 44.4791 6.78378 44.1124V28.2473Z" fill="url(#paint3_radial_385_2657)"/>
</g>
<path d="M6.92733 28.2473C6.92733 28.045 7.06816 27.87 7.26578 27.8267L63.4033 15.522C63.672 15.4632 63.9262 15.6677 63.9262 15.9427V31.8078C63.9262 32.0101 63.7854 32.1851 63.5877 32.2285L7.45019 44.5331C7.18157 44.592 6.92733 44.3874 6.92733 44.1124V28.2473Z" stroke="#FBBF28" stroke-width="0.287099"/>
</g>
<path d="M39.5893 52.0002H38.6982L38.5603 50.8518H34.0311V44.4207H35.2897V49.7309H37.5038V44.4207H38.7625V49.7309H39.5893V52.0002Z" fill="url(#paint4_linear_385_2657)"/>
<path d="M40.2934 44.4207H44.1061V45.5416H41.5521V47.0391H43.8764V48.1599H41.5521V49.7309H44.152V50.8518H40.2934V44.4207Z" fill="url(#paint5_linear_385_2657)"/>
<path d="M48.7039 48.1599H46.352V50.8518H45.0934V44.4207H46.352V47.0391H48.7039V44.4207H49.9626V50.8518H48.7039V48.1599Z" fill="url(#paint6_linear_385_2657)"/>
<path d="M55.6436 45.5416H53.7694V50.8518H52.5108V45.5416H50.6274V44.4207H55.6436V45.5416Z" fill="url(#paint7_linear_385_2657)"/>
<path d="M56.2992 44.485C56.5565 44.436 56.8382 44.3993 57.1444 44.3748C57.4568 44.3442 57.7661 44.3289 58.0723 44.3289C58.3908 44.3289 58.7093 44.3564 59.0278 44.4115C59.3524 44.4605 59.6433 44.5647 59.9006 44.7239C60.1578 44.877 60.3661 45.0945 60.5253 45.3762C60.6907 45.6518 60.7734 46.0132 60.7734 46.4603C60.7734 46.8645 60.7029 47.2075 60.5621 47.4892C60.4212 47.7649 60.2344 47.9915 60.0016 48.1691C59.7689 48.3467 59.5025 48.4753 59.2024 48.555C58.9084 48.6346 58.6021 48.6744 58.2836 48.6744C58.253 48.6744 58.204 48.6744 58.1366 48.6744C58.0693 48.6744 57.9988 48.6744 57.9253 48.6744C57.8518 48.6683 57.7783 48.6621 57.7048 48.656C57.6375 48.6499 57.5885 48.6438 57.5579 48.6376V50.8518H56.2992V44.485ZM58.1734 45.4129C58.0509 45.4129 57.9345 45.4191 57.8243 45.4313C57.714 45.4374 57.6252 45.4466 57.5579 45.4589V47.5444C57.5824 47.5505 57.6191 47.5566 57.6681 47.5627C57.7171 47.5689 57.7692 47.575 57.8243 47.5811C57.8794 47.5811 57.9315 47.5811 57.9805 47.5811C58.0356 47.5811 58.0754 47.5811 58.0999 47.5811C58.2653 47.5811 58.4276 47.5658 58.5868 47.5352C58.7522 47.5046 58.8992 47.4494 59.0278 47.3698C59.1564 47.2841 59.2575 47.1677 59.331 47.0207C59.4106 46.8737 59.4504 46.6808 59.4504 46.4419C59.4504 46.2398 59.4137 46.0744 59.3402 45.9458C59.2667 45.8111 59.1687 45.7039 59.0462 45.6243C58.9298 45.5446 58.7951 45.4895 58.6419 45.4589C58.4888 45.4283 58.3326 45.4129 58.1734 45.4129Z" fill="url(#paint8_linear_385_2657)"/>
<path d="M66.5178 44.4207H67.7764V50.8518H66.5178V44.4207ZM61.5567 44.4207H62.8154V46.7267C62.8827 46.7145 62.9899 46.6992 63.1369 46.6808C63.2839 46.6624 63.4278 46.6532 63.5687 46.6532C63.8749 46.6532 64.1659 46.6838 64.4415 46.7451C64.7232 46.8063 64.9682 46.9166 65.1765 47.0758C65.3847 47.2289 65.5501 47.4402 65.6726 47.7097C65.7951 47.9731 65.8563 48.3069 65.8563 48.7111C65.8563 49.4584 65.6389 50.0188 65.204 50.3924C64.7692 50.7599 64.123 50.9436 63.2655 50.9436C63.1798 50.9436 63.0695 50.9406 62.9348 50.9344C62.8 50.9344 62.6531 50.9283 62.4938 50.9161C62.3407 50.9038 62.1814 50.8885 62.0161 50.8701C61.8507 50.8518 61.6976 50.8242 61.5567 50.7874V44.4207ZM63.3574 49.8228C63.7065 49.8228 63.9883 49.7432 64.2026 49.5839C64.4231 49.4186 64.5334 49.146 64.5334 48.7663C64.5334 48.5641 64.5027 48.3988 64.4415 48.2702C64.3802 48.1415 64.2976 48.0405 64.1934 47.967C64.0893 47.8935 63.9668 47.8445 63.8259 47.82C63.6851 47.7894 63.532 47.7741 63.3666 47.7741C63.2808 47.7741 63.1798 47.7832 63.0634 47.8016C62.947 47.8139 62.8644 47.8292 62.8154 47.8475V49.7677C62.8827 49.786 62.9624 49.8014 63.0542 49.8136C63.1522 49.8197 63.2533 49.8228 63.3574 49.8228Z" fill="url(#paint9_linear_385_2657)"/>
<mask id="path-12-outside-1_385_2657" maskUnits="userSpaceOnUse" x="8.44098" y="20.2313" width="54" height="20" fill="black">
<rect fill="white" x="8.44098" y="20.2313" width="54" height="20"/>
<path d="M13.2734 38.4454L13.3273 35.3469L12.6135 35.6875L11.062 38.879L9.44098 39.1968L10.9246 36.2862L11.5411 35.6748C11.4011 35.6428 11.2498 35.5907 11.0871 35.5186C10.9316 35.445 10.782 35.3443 10.6382 35.2164C10.4944 35.0886 10.3665 34.9279 10.2545 34.7343C10.1424 34.5407 10.0592 34.3044 10.0048 34.0252C9.90025 33.4883 9.91755 33.0241 10.0568 32.6327C10.196 32.2412 10.4099 31.9094 10.6987 31.6373C10.9932 31.3566 11.3432 31.1319 11.7488 30.9632C12.1614 30.7931 12.586 30.6652 13.0226 30.5796C13.1299 30.5586 13.238 30.5411 13.3467 30.5272C13.3539 30.5258 13.4047 30.5196 13.4991 30.5085C13.5993 30.4888 13.7295 30.4707 13.8898 30.4542C14.0571 30.4362 14.2181 30.4233 14.3726 30.4153C14.527 30.4073 14.665 30.4099 14.7865 30.4233L14.6582 38.1738L13.2734 38.4454ZM13.3849 31.9244C13.3034 31.9255 13.219 31.9309 13.1317 31.9406C13.043 31.9431 12.9379 31.9563 12.8162 31.9801C12.623 32.018 12.4339 32.0774 12.2491 32.1582C12.0628 32.2319 11.9007 32.3343 11.7628 32.4654C11.632 32.5951 11.534 32.7592 11.4687 32.9578C11.4091 33.1479 11.4051 33.3753 11.4567 33.6402C11.5237 33.9838 11.6783 34.2247 11.9207 34.363C12.1689 34.4927 12.4648 34.5238 12.8083 34.4565L13.3343 34.3533L13.3849 31.9244Z"/>
<path d="M16.6058 34.3473L16.6268 33.1392L16.8737 33.0908C16.9381 33.0782 17.0132 33.0634 17.0991 33.0466C17.1836 33.0226 17.2681 32.9986 17.3526 32.9746C17.4442 32.9492 17.5323 32.9245 17.6167 32.9005C17.7012 32.8765 17.7714 32.8553 17.8273 32.8369C17.9662 32.7874 18.1031 32.7271 18.2378 32.6561C18.3712 32.5779 18.4832 32.4853 18.5738 32.3784C18.6716 32.27 18.7444 32.148 18.7922 32.0123C18.8401 31.8766 18.8473 31.7228 18.8138 31.551C18.7692 31.3219 18.6449 31.1605 18.4409 31.0667C18.2426 30.9644 17.9717 30.9469 17.6282 31.0143C17.3276 31.0732 17.0461 31.173 16.7838 31.3136C16.5285 31.4529 16.3191 31.5794 16.1556 31.6932L15.8163 30.4666C15.8938 30.4068 15.9992 30.3378 16.1326 30.2597C16.2731 30.1801 16.4287 30.1013 16.5992 30.0232C16.7769 29.9438 16.9703 29.8687 17.1795 29.798C17.3872 29.7201 17.5984 29.6601 17.8131 29.618C18.1137 29.5591 18.3962 29.5408 18.6606 29.5633C18.9236 29.5786 19.1615 29.636 19.374 29.7355C19.5866 29.8351 19.7632 29.9788 19.9038 30.1667C20.0502 30.3461 20.1492 30.5682 20.2008 30.8331C20.2971 31.327 20.2455 31.7868 20.046 32.2123C19.8538 32.6365 19.5047 32.9613 18.9988 33.1869L19.0093 33.2406C19.1536 33.2569 19.2979 33.2917 19.442 33.3452C19.5848 33.3915 19.7146 33.4664 19.8313 33.5699C19.9552 33.6719 20.0625 33.8032 20.1532 33.9638C20.2511 34.123 20.3231 34.3207 20.3691 34.5569C20.4542 34.9936 20.4422 35.3898 20.3332 35.7456C20.2228 36.0943 20.0382 36.4054 19.7795 36.6791C19.5265 36.9442 19.2101 37.1698 18.8303 37.3557C18.449 37.5346 18.0329 37.6682 17.5821 37.7566C17.1312 37.845 16.7192 37.8849 16.346 37.8763C15.98 37.8663 15.7006 37.8245 15.508 37.7508L15.8816 36.3509C16.0401 36.4016 16.2637 36.4432 16.5524 36.4758C16.8397 36.5012 17.1837 36.4747 17.5845 36.3961C17.7563 36.3624 17.931 36.3058 18.1087 36.2264C18.2864 36.147 18.4413 36.046 18.5735 35.9234C18.7043 35.7938 18.8008 35.6411 18.8632 35.4653C18.9327 35.2882 18.9451 35.0851 18.9005 34.856C18.8335 34.5124 18.6623 34.3008 18.3867 34.221C18.1183 34.1399 17.7536 34.1371 17.2928 34.2126L16.6058 34.3473Z"/>
<path d="M27.0256 27.9453L28.4212 27.6717L28.2968 35.4995L26.9012 35.7732L27.0256 27.9453ZM21.5078 29.0273L22.9034 28.7536L22.8595 31.5603C22.9497 31.5278 23.0643 31.4867 23.2033 31.4372C23.3422 31.3876 23.494 31.3467 23.6586 31.3145C24.0021 31.2471 24.3161 31.2376 24.6004 31.2859C24.8905 31.3256 25.1424 31.4174 25.3562 31.5613C25.5757 31.6966 25.7557 31.8768 25.8962 32.102C26.0353 32.3199 26.1327 32.5721 26.1885 32.8584C26.2805 33.3309 26.2848 33.7722 26.2012 34.1825C26.1163 34.5856 25.9494 34.9491 25.7004 35.2729C25.4514 35.5967 25.1226 35.873 24.7139 36.1017C24.3039 36.3233 23.8197 36.4889 23.2615 36.5983C23.1685 36.6166 23.0754 36.6348 22.9824 36.6531C22.8894 36.6713 22.8314 36.6789 22.8085 36.676C22.6797 36.7013 22.5388 36.7215 22.3857 36.7366C22.2326 36.7518 22.0645 36.7661 21.8814 36.7798C21.7055 36.792 21.5382 36.7913 21.3795 36.7778L21.5078 29.0273ZM22.7898 35.2639C22.9484 35.2774 23.1458 35.261 23.382 35.2147C23.6182 35.1684 23.8302 35.0933 24.018 34.9896C24.213 34.8845 24.3738 34.7564 24.5004 34.6052C24.6256 34.4469 24.7137 34.2698 24.7647 34.074C24.8157 33.8782 24.8182 33.6622 24.7722 33.426C24.6508 32.8032 24.2108 32.5662 23.4522 32.7149C23.3592 32.7332 23.2468 32.7664 23.115 32.8145C22.9818 32.8555 22.8887 32.8923 22.8356 32.925L22.7898 35.2639Z"/>
<path d="M31.5536 31.5277L31.049 31.6267L30.9982 34.9698L29.6027 35.2434L29.7271 27.4156L31.1226 27.142L31.0626 30.6095L31.3724 30.4262L33.2911 26.7168L34.9657 26.3884L32.8818 30.1079L32.311 30.61L32.8649 30.9362L35.1849 34.1489L33.6283 34.4541L31.5536 31.5277Z"/>
<path d="M35.5534 31.1559C35.4237 30.4902 35.3911 29.8463 35.4556 29.2242C35.526 28.5936 35.6868 28.0269 35.938 27.5243C36.1879 27.0145 36.5247 26.5881 36.9482 26.2449C37.3775 25.8932 37.8855 25.6598 38.4724 25.5447C38.8588 25.4689 39.2171 25.4582 39.5472 25.5123C39.8844 25.5651 40.184 25.6922 40.4461 25.8935C40.714 26.0862 40.9444 26.3531 41.1372 26.6944C41.3299 27.0356 41.4752 27.4567 41.5728 27.9578C41.7039 28.6307 41.7343 29.2825 41.6639 29.9131C41.6008 30.5423 41.445 31.1154 41.1965 31.6323C40.9537 32.1407 40.6249 32.5694 40.2099 32.9183C39.8021 33.2658 39.3191 33.4943 38.7608 33.6037C37.9163 33.7693 37.2205 33.6494 36.6734 33.2438C36.1249 32.8312 35.7516 32.1352 35.5534 31.1559ZM37.0157 30.8246C37.1161 31.34 37.2929 31.7326 37.5461 32.0025C37.8065 32.2711 38.1621 32.3611 38.613 32.2727C38.9422 32.2082 39.2203 32.0533 39.4475 31.8081C39.6804 31.5543 39.8614 31.2438 39.9904 30.8767C40.1181 30.5023 40.1902 30.0906 40.2067 29.6415C40.2304 29.1909 40.1969 28.733 40.1063 28.2677C39.9961 27.7022 39.805 27.3123 39.5329 27.0981C39.2608 26.8839 38.9316 26.8147 38.5451 26.8905C38.2231 26.9536 37.9442 27.1049 37.7085 27.3444C37.48 27.5824 37.2969 27.8822 37.1593 28.2436C37.0274 28.5964 36.946 28.9988 36.9152 29.4508C36.8902 29.8942 36.9236 30.3521 37.0157 30.8246Z"/>
<path d="M42.7155 24.9245C42.8473 24.8764 42.997 24.8247 43.1645 24.7696C43.3321 24.7144 43.5111 24.6608 43.7016 24.6085C43.892 24.5563 44.0867 24.507 44.2857 24.4606C44.4919 24.4127 44.6915 24.3698 44.8848 24.3319C45.214 24.2674 45.5251 24.2435 45.8182 24.2604C46.117 24.2687 46.3805 24.3248 46.6088 24.4286C46.8443 24.5311 47.0415 24.6857 47.2007 24.8923C47.3656 25.0903 47.4787 25.3468 47.5401 25.6618C47.5861 25.898 47.5914 26.1348 47.5559 26.3722C47.519 26.6024 47.4421 26.8181 47.3253 27.0194C47.2157 27.2192 47.0682 27.3968 46.883 27.552C46.7049 27.7058 46.4905 27.8259 46.2399 27.9122L46.2503 27.9659C46.3919 27.9679 46.5383 27.9949 46.6896 28.047C46.8396 28.0919 46.9801 28.1647 47.1111 28.2653C47.2408 28.3588 47.3539 28.4815 47.4504 28.6336C47.5454 28.7784 47.6125 28.9511 47.6516 29.1515C47.7408 29.6096 47.7281 30.0209 47.6133 30.3852C47.4972 30.7425 47.309 31.0543 47.0489 31.3209C46.7873 31.5802 46.466 31.7993 46.0847 31.9781C45.7021 32.1498 45.2889 32.2791 44.8452 32.3661C44.7307 32.3885 44.5804 32.418 44.3943 32.4545C44.2154 32.4896 44.0208 32.5203 43.8104 32.5467C43.6015 32.5802 43.3912 32.6066 43.1794 32.6258C42.9677 32.6451 42.7718 32.65 42.5916 32.6408L42.7155 24.9245ZM43.9521 31.2146C43.9835 31.2233 44.0357 31.2242 44.1087 31.2174C44.1888 31.2091 44.2725 31.2001 44.3598 31.1904C44.4528 31.1722 44.5465 31.1575 44.641 31.1464C44.734 31.1282 44.8127 31.1128 44.8771 31.1001C45.0561 31.065 45.2344 31.0078 45.4121 30.9283C45.5969 30.8475 45.7548 30.7422 45.8855 30.6126C46.0234 30.4815 46.1272 30.3274 46.1967 30.1502C46.2662 29.9731 46.2786 29.77 46.234 29.5409C46.1991 29.362 46.1312 29.2229 46.0301 29.1238C45.9291 29.0247 45.8079 28.9556 45.6665 28.9165C45.5238 28.8701 45.3644 28.8531 45.1885 28.8653C45.0183 28.8689 44.8437 28.8883 44.6648 28.9234L43.9778 29.0581L43.9521 31.2146ZM44.0071 27.893L44.4687 27.8024C44.5689 27.7828 44.687 27.7596 44.823 27.733C44.9575 27.6992 45.07 27.666 45.1602 27.6334C45.2848 27.5867 45.4138 27.5242 45.5472 27.446C45.6877 27.3665 45.8062 27.2689 45.9026 27.1534C46.0061 27.0365 46.0833 26.8987 46.1341 26.7401C46.1849 26.5815 46.1894 26.3949 46.1476 26.1801C46.0876 25.8723 45.9427 25.6815 45.7129 25.6076C45.4902 25.5324 45.2214 25.5256 44.9065 25.5874C44.7204 25.6239 44.5493 25.6611 44.3933 25.6992C44.2372 25.7372 44.1177 25.7718 44.0346 25.8029L44.0071 27.893Z"/>
<path d="M54.3349 22.5904L55.7304 22.3167L55.6061 30.1446L54.2105 30.4182L54.3349 22.5904ZM48.8171 23.6724L50.2126 23.3987L50.1688 26.2054C50.259 26.1728 50.3736 26.1318 50.5126 26.0822C50.6515 26.0327 50.8033 25.9918 50.9679 25.9595C51.3114 25.8922 51.6254 25.8826 51.9097 25.9309C52.1998 25.9707 52.4517 26.0625 52.6655 26.2063C52.885 26.3416 53.065 26.5219 53.2055 26.747C53.3445 26.965 53.442 27.2172 53.4977 27.5035C53.5898 27.9759 53.5941 28.4173 53.5105 28.8276C53.4256 29.2307 53.2586 29.5941 53.0097 29.9179C52.7607 30.2417 52.4319 30.518 52.0232 30.7468C51.6131 30.9684 51.129 31.1339 50.5708 31.2434C50.4777 31.2616 50.3847 31.2799 50.2917 31.2981C50.1986 31.3164 50.1407 31.324 50.1178 31.3211C49.989 31.3463 49.8481 31.3665 49.695 31.3817C49.5419 31.3968 49.3738 31.4112 49.1907 31.4248C49.0148 31.437 48.8475 31.4364 48.6888 31.4229L48.8171 23.6724ZM50.099 29.909C50.2577 29.9225 50.4551 29.906 50.6913 29.8597C50.9275 29.8134 51.1395 29.7384 51.3273 29.6347C51.5223 29.5296 51.6831 29.4014 51.8097 29.2503C51.9348 29.0919 52.0229 28.9149 52.074 28.7191C52.125 28.5233 52.1275 28.3073 52.0814 28.0711C51.9601 27.4483 51.5201 27.2113 50.7615 27.36C50.6685 27.3783 50.5561 27.4114 50.4243 27.4596C50.2911 27.5006 50.198 27.5374 50.1449 27.5701L50.099 29.909Z"/>
<path d="M57.0363 22.0607L61.2659 21.2313L61.242 22.596L58.408 23.1517L58.3733 24.9756L60.9604 24.4683L60.9258 25.8352L58.3601 26.3382L58.3207 28.2523L61.2084 27.686L61.1952 29.0486L56.912 29.8885L57.0363 22.0607Z"/>
</mask>
<path d="M13.2734 38.4454L13.3273 35.3469L12.6135 35.6875L11.062 38.879L9.44098 39.1968L10.9246 36.2862L11.5411 35.6748C11.4011 35.6428 11.2498 35.5907 11.0871 35.5186C10.9316 35.445 10.782 35.3443 10.6382 35.2164C10.4944 35.0886 10.3665 34.9279 10.2545 34.7343C10.1424 34.5407 10.0592 34.3044 10.0048 34.0252C9.90025 33.4883 9.91755 33.0241 10.0568 32.6327C10.196 32.2412 10.4099 31.9094 10.6987 31.6373C10.9932 31.3566 11.3432 31.1319 11.7488 30.9632C12.1614 30.7931 12.586 30.6652 13.0226 30.5796C13.1299 30.5586 13.238 30.5411 13.3467 30.5272C13.3539 30.5258 13.4047 30.5196 13.4991 30.5085C13.5993 30.4888 13.7295 30.4707 13.8898 30.4542C14.0571 30.4362 14.2181 30.4233 14.3726 30.4153C14.527 30.4073 14.665 30.4099 14.7865 30.4233L14.6582 38.1738L13.2734 38.4454ZM13.3849 31.9244C13.3034 31.9255 13.219 31.9309 13.1317 31.9406C13.043 31.9431 12.9379 31.9563 12.8162 31.9801C12.623 32.018 12.4339 32.0774 12.2491 32.1582C12.0628 32.2319 11.9007 32.3343 11.7628 32.4654C11.632 32.5951 11.534 32.7592 11.4687 32.9578C11.4091 33.1479 11.4051 33.3753 11.4567 33.6402C11.5237 33.9838 11.6783 34.2247 11.9207 34.363C12.1689 34.4927 12.4648 34.5238 12.8083 34.4565L13.3343 34.3533L13.3849 31.9244Z" fill="url(#paint10_linear_385_2657)"/>
<path d="M16.6058 34.3473L16.6268 33.1392L16.8737 33.0908C16.9381 33.0782 17.0132 33.0634 17.0991 33.0466C17.1836 33.0226 17.2681 32.9986 17.3526 32.9746C17.4442 32.9492 17.5323 32.9245 17.6167 32.9005C17.7012 32.8765 17.7714 32.8553 17.8273 32.8369C17.9662 32.7874 18.1031 32.7271 18.2378 32.6561C18.3712 32.5779 18.4832 32.4853 18.5738 32.3784C18.6716 32.27 18.7444 32.148 18.7922 32.0123C18.8401 31.8766 18.8473 31.7228 18.8138 31.551C18.7692 31.3219 18.6449 31.1605 18.4409 31.0667C18.2426 30.9644 17.9717 30.9469 17.6282 31.0143C17.3276 31.0732 17.0461 31.173 16.7838 31.3136C16.5285 31.4529 16.3191 31.5794 16.1556 31.6932L15.8163 30.4666C15.8938 30.4068 15.9992 30.3378 16.1326 30.2597C16.2731 30.1801 16.4287 30.1013 16.5992 30.0232C16.7769 29.9438 16.9703 29.8687 17.1795 29.798C17.3872 29.7201 17.5984 29.6601 17.8131 29.618C18.1137 29.5591 18.3962 29.5408 18.6606 29.5633C18.9236 29.5786 19.1615 29.636 19.374 29.7355C19.5866 29.8351 19.7632 29.9788 19.9038 30.1667C20.0502 30.3461 20.1492 30.5682 20.2008 30.8331C20.2971 31.327 20.2455 31.7868 20.046 32.2123C19.8538 32.6365 19.5047 32.9613 18.9988 33.1869L19.0093 33.2406C19.1536 33.2569 19.2979 33.2917 19.442 33.3452C19.5848 33.3915 19.7146 33.4664 19.8313 33.5699C19.9552 33.6719 20.0625 33.8032 20.1532 33.9638C20.2511 34.123 20.3231 34.3207 20.3691 34.5569C20.4542 34.9936 20.4422 35.3898 20.3332 35.7456C20.2228 36.0943 20.0382 36.4054 19.7795 36.6791C19.5265 36.9442 19.2101 37.1698 18.8303 37.3557C18.449 37.5346 18.0329 37.6682 17.5821 37.7566C17.1312 37.845 16.7192 37.8849 16.346 37.8763C15.98 37.8663 15.7006 37.8245 15.508 37.7508L15.8816 36.3509C16.0401 36.4016 16.2637 36.4432 16.5524 36.4758C16.8397 36.5012 17.1837 36.4747 17.5845 36.3961C17.7563 36.3624 17.931 36.3058 18.1087 36.2264C18.2864 36.147 18.4413 36.046 18.5735 35.9234C18.7043 35.7938 18.8008 35.6411 18.8632 35.4653C18.9327 35.2882 18.9451 35.0851 18.9005 34.856C18.8335 34.5124 18.6623 34.3008 18.3867 34.221C18.1183 34.1399 17.7536 34.1371 17.2928 34.2126L16.6058 34.3473Z" fill="url(#paint11_linear_385_2657)"/>
<path d="M27.0256 27.9453L28.4212 27.6717L28.2968 35.4995L26.9012 35.7732L27.0256 27.9453ZM21.5078 29.0273L22.9034 28.7536L22.8595 31.5603C22.9497 31.5278 23.0643 31.4867 23.2033 31.4372C23.3422 31.3876 23.494 31.3467 23.6586 31.3145C24.0021 31.2471 24.3161 31.2376 24.6004 31.2859C24.8905 31.3256 25.1424 31.4174 25.3562 31.5613C25.5757 31.6966 25.7557 31.8768 25.8962 32.102C26.0353 32.3199 26.1327 32.5721 26.1885 32.8584C26.2805 33.3309 26.2848 33.7722 26.2012 34.1825C26.1163 34.5856 25.9494 34.9491 25.7004 35.2729C25.4514 35.5967 25.1226 35.873 24.7139 36.1017C24.3039 36.3233 23.8197 36.4889 23.2615 36.5983C23.1685 36.6166 23.0754 36.6348 22.9824 36.6531C22.8894 36.6713 22.8314 36.6789 22.8085 36.676C22.6797 36.7013 22.5388 36.7215 22.3857 36.7366C22.2326 36.7518 22.0645 36.7661 21.8814 36.7798C21.7055 36.792 21.5382 36.7913 21.3795 36.7778L21.5078 29.0273ZM22.7898 35.2639C22.9484 35.2774 23.1458 35.261 23.382 35.2147C23.6182 35.1684 23.8302 35.0933 24.018 34.9896C24.213 34.8845 24.3738 34.7564 24.5004 34.6052C24.6256 34.4469 24.7137 34.2698 24.7647 34.074C24.8157 33.8782 24.8182 33.6622 24.7722 33.426C24.6508 32.8032 24.2108 32.5662 23.4522 32.7149C23.3592 32.7332 23.2468 32.7664 23.115 32.8145C22.9818 32.8555 22.8887 32.8923 22.8356 32.925L22.7898 35.2639Z" fill="url(#paint12_linear_385_2657)"/>
<path d="M31.5536 31.5277L31.049 31.6267L30.9982 34.9698L29.6027 35.2434L29.7271 27.4156L31.1226 27.142L31.0626 30.6095L31.3724 30.4262L33.2911 26.7168L34.9657 26.3884L32.8818 30.1079L32.311 30.61L32.8649 30.9362L35.1849 34.1489L33.6283 34.4541L31.5536 31.5277Z" fill="url(#paint13_linear_385_2657)"/>
<path d="M35.5534 31.1559C35.4237 30.4902 35.3911 29.8463 35.4556 29.2242C35.526 28.5936 35.6868 28.0269 35.938 27.5243C36.1879 27.0145 36.5247 26.5881 36.9482 26.2449C37.3775 25.8932 37.8855 25.6598 38.4724 25.5447C38.8588 25.4689 39.2171 25.4582 39.5472 25.5123C39.8844 25.5651 40.184 25.6922 40.4461 25.8935C40.714 26.0862 40.9444 26.3531 41.1372 26.6944C41.3299 27.0356 41.4752 27.4567 41.5728 27.9578C41.7039 28.6307 41.7343 29.2825 41.6639 29.9131C41.6008 30.5423 41.445 31.1154 41.1965 31.6323C40.9537 32.1407 40.6249 32.5694 40.2099 32.9183C39.8021 33.2658 39.3191 33.4943 38.7608 33.6037C37.9163 33.7693 37.2205 33.6494 36.6734 33.2438C36.1249 32.8312 35.7516 32.1352 35.5534 31.1559ZM37.0157 30.8246C37.1161 31.34 37.2929 31.7326 37.5461 32.0025C37.8065 32.2711 38.1621 32.3611 38.613 32.2727C38.9422 32.2082 39.2203 32.0533 39.4475 31.8081C39.6804 31.5543 39.8614 31.2438 39.9904 30.8767C40.1181 30.5023 40.1902 30.0906 40.2067 29.6415C40.2304 29.1909 40.1969 28.733 40.1063 28.2677C39.9961 27.7022 39.805 27.3123 39.5329 27.0981C39.2608 26.8839 38.9316 26.8147 38.5451 26.8905C38.2231 26.9536 37.9442 27.1049 37.7085 27.3444C37.48 27.5824 37.2969 27.8822 37.1593 28.2436C37.0274 28.5964 36.946 28.9988 36.9152 29.4508C36.8902 29.8942 36.9236 30.3521 37.0157 30.8246Z" fill="url(#paint14_linear_385_2657)"/>
<path d="M42.7155 24.9245C42.8473 24.8764 42.997 24.8247 43.1645 24.7696C43.3321 24.7144 43.5111 24.6608 43.7016 24.6085C43.892 24.5563 44.0867 24.507 44.2857 24.4606C44.4919 24.4127 44.6915 24.3698 44.8848 24.3319C45.214 24.2674 45.5251 24.2435 45.8182 24.2604C46.117 24.2687 46.3805 24.3248 46.6088 24.4286C46.8443 24.5311 47.0415 24.6857 47.2007 24.8923C47.3656 25.0903 47.4787 25.3468 47.5401 25.6618C47.5861 25.898 47.5914 26.1348 47.5559 26.3722C47.519 26.6024 47.4421 26.8181 47.3253 27.0194C47.2157 27.2192 47.0682 27.3968 46.883 27.552C46.7049 27.7058 46.4905 27.8259 46.2399 27.9122L46.2503 27.9659C46.3919 27.9679 46.5383 27.9949 46.6896 28.047C46.8396 28.0919 46.9801 28.1647 47.1111 28.2653C47.2408 28.3588 47.3539 28.4815 47.4504 28.6336C47.5454 28.7784 47.6125 28.9511 47.6516 29.1515C47.7408 29.6096 47.7281 30.0209 47.6133 30.3852C47.4972 30.7425 47.309 31.0543 47.0489 31.3209C46.7873 31.5802 46.466 31.7993 46.0847 31.9781C45.7021 32.1498 45.2889 32.2791 44.8452 32.3661C44.7307 32.3885 44.5804 32.418 44.3943 32.4545C44.2154 32.4896 44.0208 32.5203 43.8104 32.5467C43.6015 32.5802 43.3912 32.6066 43.1794 32.6258C42.9677 32.6451 42.7718 32.65 42.5916 32.6408L42.7155 24.9245ZM43.9521 31.2146C43.9835 31.2233 44.0357 31.2242 44.1087 31.2174C44.1888 31.2091 44.2725 31.2001 44.3598 31.1904C44.4528 31.1722 44.5465 31.1575 44.641 31.1464C44.734 31.1282 44.8127 31.1128 44.8771 31.1001C45.0561 31.065 45.2344 31.0078 45.4121 30.9283C45.5969 30.8475 45.7548 30.7422 45.8855 30.6126C46.0234 30.4815 46.1272 30.3274 46.1967 30.1502C46.2662 29.9731 46.2786 29.77 46.234 29.5409C46.1991 29.362 46.1312 29.2229 46.0301 29.1238C45.9291 29.0247 45.8079 28.9556 45.6665 28.9165C45.5238 28.8701 45.3644 28.8531 45.1885 28.8653C45.0183 28.8689 44.8437 28.8883 44.6648 28.9234L43.9778 29.0581L43.9521 31.2146ZM44.0071 27.893L44.4687 27.8024C44.5689 27.7828 44.687 27.7596 44.823 27.733C44.9575 27.6992 45.07 27.666 45.1602 27.6334C45.2848 27.5867 45.4138 27.5242 45.5472 27.446C45.6877 27.3665 45.8062 27.2689 45.9026 27.1534C46.0061 27.0365 46.0833 26.8987 46.1341 26.7401C46.1849 26.5815 46.1894 26.3949 46.1476 26.1801C46.0876 25.8723 45.9427 25.6815 45.7129 25.6076C45.4902 25.5324 45.2214 25.5256 44.9065 25.5874C44.7204 25.6239 44.5493 25.6611 44.3933 25.6992C44.2372 25.7372 44.1177 25.7718 44.0346 25.8029L44.0071 27.893Z" fill="url(#paint15_linear_385_2657)"/>
<path d="M54.3349 22.5904L55.7304 22.3167L55.6061 30.1446L54.2105 30.4182L54.3349 22.5904ZM48.8171 23.6724L50.2126 23.3987L50.1688 26.2054C50.259 26.1728 50.3736 26.1318 50.5126 26.0822C50.6515 26.0327 50.8033 25.9918 50.9679 25.9595C51.3114 25.8922 51.6254 25.8826 51.9097 25.9309C52.1998 25.9707 52.4517 26.0625 52.6655 26.2063C52.885 26.3416 53.065 26.5219 53.2055 26.747C53.3445 26.965 53.442 27.2172 53.4977 27.5035C53.5898 27.9759 53.5941 28.4173 53.5105 28.8276C53.4256 29.2307 53.2586 29.5941 53.0097 29.9179C52.7607 30.2417 52.4319 30.518 52.0232 30.7468C51.6131 30.9684 51.129 31.1339 50.5708 31.2434C50.4777 31.2616 50.3847 31.2799 50.2917 31.2981C50.1986 31.3164 50.1407 31.324 50.1178 31.3211C49.989 31.3463 49.8481 31.3665 49.695 31.3817C49.5419 31.3968 49.3738 31.4112 49.1907 31.4248C49.0148 31.437 48.8475 31.4364 48.6888 31.4229L48.8171 23.6724ZM50.099 29.909C50.2577 29.9225 50.4551 29.906 50.6913 29.8597C50.9275 29.8134 51.1395 29.7384 51.3273 29.6347C51.5223 29.5296 51.6831 29.4014 51.8097 29.2503C51.9348 29.0919 52.0229 28.9149 52.074 28.7191C52.125 28.5233 52.1275 28.3073 52.0814 28.0711C51.9601 27.4483 51.5201 27.2113 50.7615 27.36C50.6685 27.3783 50.5561 27.4114 50.4243 27.4596C50.2911 27.5006 50.198 27.5374 50.1449 27.5701L50.099 29.909Z" fill="url(#paint16_linear_385_2657)"/>
<path d="M57.0363 22.0607L61.2659 21.2313L61.242 22.596L58.408 23.1517L58.3733 24.9756L60.9604 24.4683L60.9258 25.8352L58.3601 26.3382L58.3207 28.2523L61.2084 27.686L61.1952 29.0486L56.912 29.8885L57.0363 22.0607Z" fill="url(#paint17_linear_385_2657)"/>
<path d="M13.2734 38.4454L13.3273 35.3469L12.6135 35.6875L11.062 38.879L9.44098 39.1968L10.9246 36.2862L11.5411 35.6748C11.4011 35.6428 11.2498 35.5907 11.0871 35.5186C10.9316 35.445 10.782 35.3443 10.6382 35.2164C10.4944 35.0886 10.3665 34.9279 10.2545 34.7343C10.1424 34.5407 10.0592 34.3044 10.0048 34.0252C9.90025 33.4883 9.91755 33.0241 10.0568 32.6327C10.196 32.2412 10.4099 31.9094 10.6987 31.6373C10.9932 31.3566 11.3432 31.1319 11.7488 30.9632C12.1614 30.7931 12.586 30.6652 13.0226 30.5796C13.1299 30.5586 13.238 30.5411 13.3467 30.5272C13.3539 30.5258 13.4047 30.5196 13.4991 30.5085C13.5993 30.4888 13.7295 30.4707 13.8898 30.4542C14.0571 30.4362 14.2181 30.4233 14.3726 30.4153C14.527 30.4073 14.665 30.4099 14.7865 30.4233L14.6582 38.1738L13.2734 38.4454ZM13.3849 31.9244C13.3034 31.9255 13.219 31.9309 13.1317 31.9406C13.043 31.9431 12.9379 31.9563 12.8162 31.9801C12.623 32.018 12.4339 32.0774 12.2491 32.1582C12.0628 32.2319 11.9007 32.3343 11.7628 32.4654C11.632 32.5951 11.534 32.7592 11.4687 32.9578C11.4091 33.1479 11.4051 33.3753 11.4567 33.6402C11.5237 33.9838 11.6783 34.2247 11.9207 34.363C12.1689 34.4927 12.4648 34.5238 12.8083 34.4565L13.3343 34.3533L13.3849 31.9244Z" stroke="#FAD07D" stroke-width="0.803296" mask="url(#path-12-outside-1_385_2657)"/>
<path d="M16.6058 34.3473L16.6268 33.1392L16.8737 33.0908C16.9381 33.0782 17.0132 33.0634 17.0991 33.0466C17.1836 33.0226 17.2681 32.9986 17.3526 32.9746C17.4442 32.9492 17.5323 32.9245 17.6167 32.9005C17.7012 32.8765 17.7714 32.8553 17.8273 32.8369C17.9662 32.7874 18.1031 32.7271 18.2378 32.6561C18.3712 32.5779 18.4832 32.4853 18.5738 32.3784C18.6716 32.27 18.7444 32.148 18.7922 32.0123C18.8401 31.8766 18.8473 31.7228 18.8138 31.551C18.7692 31.3219 18.6449 31.1605 18.4409 31.0667C18.2426 30.9644 17.9717 30.9469 17.6282 31.0143C17.3276 31.0732 17.0461 31.173 16.7838 31.3136C16.5285 31.4529 16.3191 31.5794 16.1556 31.6932L15.8163 30.4666C15.8938 30.4068 15.9992 30.3378 16.1326 30.2597C16.2731 30.1801 16.4287 30.1013 16.5992 30.0232C16.7769 29.9438 16.9703 29.8687 17.1795 29.798C17.3872 29.7201 17.5984 29.6601 17.8131 29.618C18.1137 29.5591 18.3962 29.5408 18.6606 29.5633C18.9236 29.5786 19.1615 29.636 19.374 29.7355C19.5866 29.8351 19.7632 29.9788 19.9038 30.1667C20.0502 30.3461 20.1492 30.5682 20.2008 30.8331C20.2971 31.327 20.2455 31.7868 20.046 32.2123C19.8538 32.6365 19.5047 32.9613 18.9988 33.1869L19.0093 33.2406C19.1536 33.2569 19.2979 33.2917 19.442 33.3452C19.5848 33.3915 19.7146 33.4664 19.8313 33.5699C19.9552 33.6719 20.0625 33.8032 20.1532 33.9638C20.2511 34.123 20.3231 34.3207 20.3691 34.5569C20.4542 34.9936 20.4422 35.3898 20.3332 35.7456C20.2228 36.0943 20.0382 36.4054 19.7795 36.6791C19.5265 36.9442 19.2101 37.1698 18.8303 37.3557C18.449 37.5346 18.0329 37.6682 17.5821 37.7566C17.1312 37.845 16.7192 37.8849 16.346 37.8763C15.98 37.8663 15.7006 37.8245 15.508 37.7508L15.8816 36.3509C16.0401 36.4016 16.2637 36.4432 16.5524 36.4758C16.8397 36.5012 17.1837 36.4747 17.5845 36.3961C17.7563 36.3624 17.931 36.3058 18.1087 36.2264C18.2864 36.147 18.4413 36.046 18.5735 35.9234C18.7043 35.7938 18.8008 35.6411 18.8632 35.4653C18.9327 35.2882 18.9451 35.0851 18.9005 34.856C18.8335 34.5124 18.6623 34.3008 18.3867 34.221C18.1183 34.1399 17.7536 34.1371 17.2928 34.2126L16.6058 34.3473Z" stroke="#FAD07D" stroke-width="0.803296" mask="url(#path-12-outside-1_385_2657)"/>
<path d="M27.0256 27.9453L28.4212 27.6717L28.2968 35.4995L26.9012 35.7732L27.0256 27.9453ZM21.5078 29.0273L22.9034 28.7536L22.8595 31.5603C22.9497 31.5278 23.0643 31.4867 23.2033 31.4372C23.3422 31.3876 23.494 31.3467 23.6586 31.3145C24.0021 31.2471 24.3161 31.2376 24.6004 31.2859C24.8905 31.3256 25.1424 31.4174 25.3562 31.5613C25.5757 31.6966 25.7557 31.8768 25.8962 32.102C26.0353 32.3199 26.1327 32.5721 26.1885 32.8584C26.2805 33.3309 26.2848 33.7722 26.2012 34.1825C26.1163 34.5856 25.9494 34.9491 25.7004 35.2729C25.4514 35.5967 25.1226 35.873 24.7139 36.1017C24.3039 36.3233 23.8197 36.4889 23.2615 36.5983C23.1685 36.6166 23.0754 36.6348 22.9824 36.6531C22.8894 36.6713 22.8314 36.6789 22.8085 36.676C22.6797 36.7013 22.5388 36.7215 22.3857 36.7366C22.2326 36.7518 22.0645 36.7661 21.8814 36.7798C21.7055 36.792 21.5382 36.7913 21.3795 36.7778L21.5078 29.0273ZM22.7898 35.2639C22.9484 35.2774 23.1458 35.261 23.382 35.2147C23.6182 35.1684 23.8302 35.0933 24.018 34.9896C24.213 34.8845 24.3738 34.7564 24.5004 34.6052C24.6256 34.4469 24.7137 34.2698 24.7647 34.074C24.8157 33.8782 24.8182 33.6622 24.7722 33.426C24.6508 32.8032 24.2108 32.5662 23.4522 32.7149C23.3592 32.7332 23.2468 32.7664 23.115 32.8145C22.9818 32.8555 22.8887 32.8923 22.8356 32.925L22.7898 35.2639Z" stroke="#FAD07D" stroke-width="0.803296" mask="url(#path-12-outside-1_385_2657)"/>
<path d="M31.5536 31.5277L31.049 31.6267L30.9982 34.9698L29.6027 35.2434L29.7271 27.4156L31.1226 27.142L31.0626 30.6095L31.3724 30.4262L33.2911 26.7168L34.9657 26.3884L32.8818 30.1079L32.311 30.61L32.8649 30.9362L35.1849 34.1489L33.6283 34.4541L31.5536 31.5277Z" stroke="#FAD07D" stroke-width="0.803296" mask="url(#path-12-outside-1_385_2657)"/>
<path d="M35.5534 31.1559C35.4237 30.4902 35.3911 29.8463 35.4556 29.2242C35.526 28.5936 35.6868 28.0269 35.938 27.5243C36.1879 27.0145 36.5247 26.5881 36.9482 26.2449C37.3775 25.8932 37.8855 25.6598 38.4724 25.5447C38.8588 25.4689 39.2171 25.4582 39.5472 25.5123C39.8844 25.5651 40.184 25.6922 40.4461 25.8935C40.714 26.0862 40.9444 26.3531 41.1372 26.6944C41.3299 27.0356 41.4752 27.4567 41.5728 27.9578C41.7039 28.6307 41.7343 29.2825 41.6639 29.9131C41.6008 30.5423 41.445 31.1154 41.1965 31.6323C40.9537 32.1407 40.6249 32.5694 40.2099 32.9183C39.8021 33.2658 39.3191 33.4943 38.7608 33.6037C37.9163 33.7693 37.2205 33.6494 36.6734 33.2438C36.1249 32.8312 35.7516 32.1352 35.5534 31.1559ZM37.0157 30.8246C37.1161 31.34 37.2929 31.7326 37.5461 32.0025C37.8065 32.2711 38.1621 32.3611 38.613 32.2727C38.9422 32.2082 39.2203 32.0533 39.4475 31.8081C39.6804 31.5543 39.8614 31.2438 39.9904 30.8767C40.1181 30.5023 40.1902 30.0906 40.2067 29.6415C40.2304 29.1909 40.1969 28.733 40.1063 28.2677C39.9961 27.7022 39.805 27.3123 39.5329 27.0981C39.2608 26.8839 38.9316 26.8147 38.5451 26.8905C38.2231 26.9536 37.9442 27.1049 37.7085 27.3444C37.48 27.5824 37.2969 27.8822 37.1593 28.2436C37.0274 28.5964 36.946 28.9988 36.9152 29.4508C36.8902 29.8942 36.9236 30.3521 37.0157 30.8246Z" stroke="#FAD07D" stroke-width="0.803296" mask="url(#path-12-outside-1_385_2657)"/>
<path d="M42.7155 24.9245C42.8473 24.8764 42.997 24.8247 43.1645 24.7696C43.3321 24.7144 43.5111 24.6608 43.7016 24.6085C43.892 24.5563 44.0867 24.507 44.2857 24.4606C44.4919 24.4127 44.6915 24.3698 44.8848 24.3319C45.214 24.2674 45.5251 24.2435 45.8182 24.2604C46.117 24.2687 46.3805 24.3248 46.6088 24.4286C46.8443 24.5311 47.0415 24.6857 47.2007 24.8923C47.3656 25.0903 47.4787 25.3468 47.5401 25.6618C47.5861 25.898 47.5914 26.1348 47.5559 26.3722C47.519 26.6024 47.4421 26.8181 47.3253 27.0194C47.2157 27.2192 47.0682 27.3968 46.883 27.552C46.7049 27.7058 46.4905 27.8259 46.2399 27.9122L46.2503 27.9659C46.3919 27.9679 46.5383 27.9949 46.6896 28.047C46.8396 28.0919 46.9801 28.1647 47.1111 28.2653C47.2408 28.3588 47.3539 28.4815 47.4504 28.6336C47.5454 28.7784 47.6125 28.9511 47.6516 29.1515C47.7408 29.6096 47.7281 30.0209 47.6133 30.3852C47.4972 30.7425 47.309 31.0543 47.0489 31.3209C46.7873 31.5802 46.466 31.7993 46.0847 31.9781C45.7021 32.1498 45.2889 32.2791 44.8452 32.3661C44.7307 32.3885 44.5804 32.418 44.3943 32.4545C44.2154 32.4896 44.0208 32.5203 43.8104 32.5467C43.6015 32.5802 43.3912 32.6066 43.1794 32.6258C42.9677 32.6451 42.7718 32.65 42.5916 32.6408L42.7155 24.9245ZM43.9521 31.2146C43.9835 31.2233 44.0357 31.2242 44.1087 31.2174C44.1888 31.2091 44.2725 31.2001 44.3598 31.1904C44.4528 31.1722 44.5465 31.1575 44.641 31.1464C44.734 31.1282 44.8127 31.1128 44.8771 31.1001C45.0561 31.065 45.2344 31.0078 45.4121 30.9283C45.5969 30.8475 45.7548 30.7422 45.8855 30.6126C46.0234 30.4815 46.1272 30.3274 46.1967 30.1502C46.2662 29.9731 46.2786 29.77 46.234 29.5409C46.1991 29.362 46.1312 29.2229 46.0301 29.1238C45.9291 29.0247 45.8079 28.9556 45.6665 28.9165C45.5238 28.8701 45.3644 28.8531 45.1885 28.8653C45.0183 28.8689 44.8437 28.8883 44.6648 28.9234L43.9778 29.0581L43.9521 31.2146ZM44.0071 27.893L44.4687 27.8024C44.5689 27.7828 44.687 27.7596 44.823 27.733C44.9575 27.6992 45.07 27.666 45.1602 27.6334C45.2848 27.5867 45.4138 27.5242 45.5472 27.446C45.6877 27.3665 45.8062 27.2689 45.9026 27.1534C46.0061 27.0365 46.0833 26.8987 46.1341 26.7401C46.1849 26.5815 46.1894 26.3949 46.1476 26.1801C46.0876 25.8723 45.9427 25.6815 45.7129 25.6076C45.4902 25.5324 45.2214 25.5256 44.9065 25.5874C44.7204 25.6239 44.5493 25.6611 44.3933 25.6992C44.2372 25.7372 44.1177 25.7718 44.0346 25.8029L44.0071 27.893Z" stroke="#FAD07D" stroke-width="0.803296" mask="url(#path-12-outside-1_385_2657)"/>
<path d="M54.3349 22.5904L55.7304 22.3167L55.6061 30.1446L54.2105 30.4182L54.3349 22.5904ZM48.8171 23.6724L50.2126 23.3987L50.1688 26.2054C50.259 26.1728 50.3736 26.1318 50.5126 26.0822C50.6515 26.0327 50.8033 25.9918 50.9679 25.9595C51.3114 25.8922 51.6254 25.8826 51.9097 25.9309C52.1998 25.9707 52.4517 26.0625 52.6655 26.2063C52.885 26.3416 53.065 26.5219 53.2055 26.747C53.3445 26.965 53.442 27.2172 53.4977 27.5035C53.5898 27.9759 53.5941 28.4173 53.5105 28.8276C53.4256 29.2307 53.2586 29.5941 53.0097 29.9179C52.7607 30.2417 52.4319 30.518 52.0232 30.7468C51.6131 30.9684 51.129 31.1339 50.5708 31.2434C50.4777 31.2616 50.3847 31.2799 50.2917 31.2981C50.1986 31.3164 50.1407 31.324 50.1178 31.3211C49.989 31.3463 49.8481 31.3665 49.695 31.3817C49.5419 31.3968 49.3738 31.4112 49.1907 31.4248C49.0148 31.437 48.8475 31.4364 48.6888 31.4229L48.8171 23.6724ZM50.099 29.909C50.2577 29.9225 50.4551 29.906 50.6913 29.8597C50.9275 29.8134 51.1395 29.7384 51.3273 29.6347C51.5223 29.5296 51.6831 29.4014 51.8097 29.2503C51.9348 29.0919 52.0229 28.9149 52.074 28.7191C52.125 28.5233 52.1275 28.3073 52.0814 28.0711C51.9601 27.4483 51.5201 27.2113 50.7615 27.36C50.6685 27.3783 50.5561 27.4114 50.4243 27.4596C50.2911 27.5006 50.198 27.5374 50.1449 27.5701L50.099 29.909Z" stroke="#FAD07D" stroke-width="0.803296" mask="url(#path-12-outside-1_385_2657)"/>
<path d="M57.0363 22.0607L61.2659 21.2313L61.242 22.596L58.408 23.1517L58.3733 24.9756L60.9604 24.4683L60.9258 25.8352L58.3601 26.3382L58.3207 28.2523L61.2084 27.686L61.1952 29.0486L56.912 29.8885L57.0363 22.0607Z" stroke="#FAD07D" stroke-width="0.803296" mask="url(#path-12-outside-1_385_2657)"/>
<defs>
<filter id="filter0_d_385_2657" x="0.766276" y="15.3683" width="70.4674" height="37.075" filterUnits="userSpaceOnUse" color-interpolation-filters="sRGB">
<feFlood flood-opacity="0" result="BackgroundImageFix"/>
<feColorMatrix in="SourceAlpha" type="matrix" values="0 0 0 0 0 0 0 0 0 0 0 0 0 0 0 0 0 0 127 0" result="hardAlpha"/>
<feOffset dy="1.1484"/>
<feGaussianBlur stdDeviation="0.574199"/>
<feComposite in2="hardAlpha" operator="out"/>
<feColorMatrix type="matrix" values="0 0 0 0 0 0 0 0 0 0 0 0 0 0 0 0 0 0 0.25 0"/>
<feBlend mode="normal" in2="BackgroundImageFix" result="effect1_dropShadow_385_2657"/>
<feBlend mode="normal" in="SourceGraphic" in2="effect1_dropShadow_385_2657" result="shape"/>
</filter>
<filter id="filter1_i_385_2657" x="1.05337" y="30.559" width="13.7506" height="20.7359" filterUnits="userSpaceOnUse" color-interpolation-filters="sRGB">
<feFlood flood-opacity="0" result="BackgroundImageFix"/>
<feBlend mode="normal" in="SourceGraphic" in2="BackgroundImageFix" result="shape"/>
<feColorMatrix in="SourceAlpha" type="matrix" values="0 0 0 0 0 0 0 0 0 0 0 0 0 0 0 0 0 0 127 0" result="hardAlpha"/>
<feOffset dx="-0.861298" dy="1.1484"/>
<feGaussianBlur stdDeviation="0.574199"/>
<feComposite in2="hardAlpha" operator="arithmetic" k2="-1" k3="1"/>
<feColorMatrix type="matrix" values="0 0 0 0 0.984314 0 0 0 0 0.74902 0 0 0 0 0.156863 0 0 0 0.85 0"/>
<feBlend mode="normal" in2="shape" result="effect1_innerShadow_385_2657"/>
</filter>
<filter id="filter2_i_385_2657" x="54.9025" y="18.7583" width="15.1828" height="20.8534" filterUnits="userSpaceOnUse" color-interpolation-filters="sRGB">
<feFlood flood-opacity="0" result="BackgroundImageFix"/>
<feBlend mode="normal" in="SourceGraphic" in2="BackgroundImageFix" result="shape"/>
<feColorMatrix in="SourceAlpha" type="matrix" values="0 0 0 0 0 0 0 0 0 0 0 0 0 0 0 0 0 0 127 0" result="hardAlpha"/>
<feOffset dx="-0.861298" dy="1.1484"/>
<feGaussianBlur stdDeviation="0.574199"/>
<feComposite in2="hardAlpha" operator="arithmetic" k2="-1" k3="1"/>
<feColorMatrix type="matrix" values="0 0 0 0 0.984314 0 0 0 0 0.74902 0 0 0 0 0.156863 0 0 0 0.85 0"/>
<feBlend mode="normal" in2="shape" result="effect1_innerShadow_385_2657"/>
</filter>
<filter id="filter3_i_385_2657" x="5.92248" y="15.3683" width="58.1472" height="30.467" filterUnits="userSpaceOnUse" color-interpolation-filters="sRGB">
<feFlood flood-opacity="0" result="BackgroundImageFix"/>
<feBlend mode="normal" in="SourceGraphic" in2="BackgroundImageFix" result="shape"/>
<feColorMatrix in="SourceAlpha" type="matrix" values="0 0 0 0 0 0 0 0 0 0 0 0 0 0 0 0 0 0 127 0" result="hardAlpha"/>
<feOffset dx="-0.861298" dy="1.1484"/>
<feGaussianBlur stdDeviation="0.574199"/>
<feComposite in2="hardAlpha" operator="arithmetic" k2="-1" k3="1"/>
<feColorMatrix type="matrix" values="0 0 0 0 0.984314 0 0 0 0 0.74902 0 0 0 0 0.156863 0 0 0 0.85 0"/>
<feBlend mode="normal" in2="shape" result="effect1_innerShadow_385_2657"/>
</filter>
<linearGradient id="paint0_linear_385_2657" x1="33.2792" y1="6.48915e-06" x2="46.8599" y2="30.1925" gradientUnits="userSpaceOnUse">
<stop stop-color="#FE623C"/>
<stop offset="1" stop-color="#BE320C"/>
</linearGradient>
<radialGradient id="paint1_radial_385_2657" cx="0" cy="0" r="1" gradientUnits="userSpaceOnUse" gradientTransform="translate(8.35934 40.3527) rotate(90) scale(9.93302 6.44467)">
<stop stop-color="#FFBC00"/>
<stop offset="0.57" stop-color="#FD9E00"/>
<stop offset="1" stop-color="#F79500"/>
</radialGradient>
<radialGradient id="paint2_radial_385_2657" cx="0" cy="0" r="1" gradientUnits="userSpaceOnUse" gradientTransform="translate(62.9245 28.6108) rotate(90) scale(9.98128 7.16074)">
<stop stop-color="#FFBC00"/>
<stop offset="0.57" stop-color="#FD9E00"/>
<stop offset="1" stop-color="#F79500"/>
</radialGradient>
<radialGradient id="paint3_radial_385_2657" cx="0" cy="0" r="1" gradientUnits="userSpaceOnUse" gradientTransform="translate(35.4268 30.0276) rotate(90) scale(14.7986 28.643)">
<stop stop-color="#FFBC00"/>
<stop offset="0.57" stop-color="#FD9E00"/>
<stop offset="1" stop-color="#F79500"/>
</radialGradient>
<linearGradient id="paint4_linear_385_2657" x1="49.6117" y1="44.6233" x2="49.6117" y2="52.0042" gradientUnits="userSpaceOnUse">
<stop stop-color="#404040"/>
<stop offset="1" stop-color="#828282"/>
</linearGradient>
<linearGradient id="paint5_linear_385_2657" x1="49.6117" y1="44.6233" x2="49.6117" y2="52.0042" gradientUnits="userSpaceOnUse">
<stop stop-color="#404040"/>
<stop offset="1" stop-color="#828282"/>
</linearGradient>
<linearGradient id="paint6_linear_385_2657" x1="49.6117" y1="44.6233" x2="49.6117" y2="52.0042" gradientUnits="userSpaceOnUse">
<stop stop-color="#404040"/>
<stop offset="1" stop-color="#828282"/>
</linearGradient>
<linearGradient id="paint7_linear_385_2657" x1="49.6117" y1="44.6233" x2="49.6117" y2="52.0042" gradientUnits="userSpaceOnUse">
<stop stop-color="#404040"/>
<stop offset="1" stop-color="#828282"/>
</linearGradient>
<linearGradient id="paint8_linear_385_2657" x1="49.6117" y1="44.6233" x2="49.6117" y2="52.0042" gradientUnits="userSpaceOnUse">
<stop stop-color="#404040"/>
<stop offset="1" stop-color="#828282"/>
</linearGradient>
<linearGradient id="paint9_linear_385_2657" x1="49.6117" y1="44.6233" x2="49.6117" y2="52.0042" gradientUnits="userSpaceOnUse">
<stop stop-color="#404040"/>
<stop offset="1" stop-color="#828282"/>
</linearGradient>
<linearGradient id="paint10_linear_385_2657" x1="33.2786" y1="26.5695" x2="34.9178" y2="34.9294" gradientUnits="userSpaceOnUse">
<stop stop-color="#753000"/>
<stop offset="1" stop-color="#99480D"/>
</linearGradient>
<linearGradient id="paint11_linear_385_2657" x1="33.2786" y1="26.5695" x2="34.9178" y2="34.9294" gradientUnits="userSpaceOnUse">
<stop stop-color="#753000"/>
<stop offset="1" stop-color="#99480D"/>
</linearGradient>
<linearGradient id="paint12_linear_385_2657" x1="33.2786" y1="26.5695" x2="34.9178" y2="34.9294" gradientUnits="userSpaceOnUse">
<stop stop-color="#753000"/>
<stop offset="1" stop-color="#99480D"/>
</linearGradient>
<linearGradient id="paint13_linear_385_2657" x1="33.2786" y1="26.5695" x2="34.9178" y2="34.9294" gradientUnits="userSpaceOnUse">
<stop stop-color="#753000"/>
<stop offset="1" stop-color="#99480D"/>
</linearGradient>
<linearGradient id="paint14_linear_385_2657" x1="33.2786" y1="26.5695" x2="34.9178" y2="34.9294" gradientUnits="userSpaceOnUse">
<stop stop-color="#753000"/>
<stop offset="1" stop-color="#99480D"/>
</linearGradient>
<linearGradient id="paint15_linear_385_2657" x1="33.2786" y1="26.5695" x2="34.9178" y2="34.9294" gradientUnits="userSpaceOnUse">
<stop stop-color="#753000"/>
<stop offset="1" stop-color="#99480D"/>
</linearGradient>
<linearGradient id="paint16_linear_385_2657" x1="33.2786" y1="26.5695" x2="34.9178" y2="34.9294" gradientUnits="userSpaceOnUse">
<stop stop-color="#753000"/>
<stop offset="1" stop-color="#99480D"/>
</linearGradient>
<linearGradient id="paint17_linear_385_2657" x1="33.2786" y1="26.5695" x2="34.9178" y2="34.9294" gradientUnits="userSpaceOnUse">
<stop stop-color="#753000"/>
<stop offset="1" stop-color="#99480D"/>
</linearGradient>
</defs>
</svg>
