<svg width="71" height="52" viewBox="0 0 71 52" fill="none" xmlns="http://www.w3.org/2000/svg">
<path d="M45.3572 27.9156C45.3572 28.0731 45.4849 28.2008 45.6424 28.2008H59.3556C59.5131 28.2008 59.6409 28.0731 59.6409 27.9156V15.7556C59.6409 15.5981 59.5131 15.4704 59.3556 15.4704H51.713C51.5554 15.4704 51.4277 15.3426 51.4277 15.1851V13.6632C51.4277 13.5057 51.5554 13.378 51.713 13.378H59.3556C59.5131 13.378 59.6409 13.2503 59.6409 13.0927V8.27167C59.6409 8.11413 59.5131 7.98642 59.3556 7.98642H51.713C51.5554 7.98642 51.4277 7.85871 51.4277 7.70118V5.89442C51.4277 5.73689 51.5554 5.60918 51.713 5.60918H59.3556C59.5131 5.60918 59.6409 5.48147 59.6409 5.32393V0.855071C59.6409 0.697533 59.5131 0.569824 59.3556 0.569824H45.6424C45.4849 0.569824 45.3572 0.697533 45.3572 0.855071V27.9156ZM34.387 7.02499C34.2797 7.22445 33.9939 7.22538 33.8854 7.02661L30.4404 0.718353C30.3904 0.626785 30.2944 0.569824 30.19 0.569824H24.574C24.4164 0.569824 24.2887 0.697533 24.2887 0.855071V5.24616C24.2887 5.47294 24.0317 5.617 23.8306 5.51223C23.5873 5.38548 23.3057 5.25347 23.0592 5.16013C22.9421 5.11579 22.8603 5.00582 22.8603 4.88061V0.85507C22.8603 0.697533 22.7326 0.569824 22.5751 0.569824H17.504C12.0508 0.569824 5.12378 6.7014 5.12378 14.3723C5.09751 24.6003 13.0744 29.2584 22.6071 28.2295C22.7509 28.2139 22.8603 28.0919 22.8603 27.9473V20.3332C22.8603 20.2282 22.9182 20.1321 23.0095 20.0801C23.4029 19.8559 23.7832 19.5887 24.1469 19.2808C24.2338 19.2072 24.289 19.2271 24.2892 19.341C24.2904 20.4748 24.2891 26.5385 24.2888 27.9204C24.2887 28.0779 24.4165 28.2008 24.574 28.2008H30.074C30.2316 28.2008 30.3593 28.0731 30.3593 27.9156V12.7911C30.3593 12.4988 30.7465 12.3956 30.892 12.6491L33.8883 17.8722C33.9984 18.064 34.2754 18.0631 34.3841 17.8705L37.3246 12.6652C37.4689 12.4099 37.8582 12.5123 37.8582 12.8055V27.9156C37.8582 28.0731 37.9859 28.2008 38.1435 28.2008H43.6435C43.8011 28.2008 43.9288 28.0731 43.9288 27.9156V0.85507C43.9288 0.697533 43.8011 0.569824 43.6435 0.569824H38.0287C37.9237 0.569824 37.8272 0.627503 37.7775 0.719974L34.387 7.02499ZM26.723 18.8977C25.8414 18.6254 24.9822 18.208 24.188 17.5986C24.1734 17.5874 24.0061 17.7744 23.9388 17.8473C23.9226 17.8649 23.9026 17.8798 23.8817 17.8915C15.8986 22.3348 10.3876 12.528 18.469 8.26095C25.0975 5.79047 28.924 11.4608 25.8023 15.1276C25.7622 15.1747 25.7356 15.2341 25.7335 15.2959C25.6938 16.4294 26.5301 17.5043 26.8487 18.5571C26.8562 18.5822 26.9408 18.962 26.9373 18.961C26.8655 18.9409 26.7944 18.9193 26.723 18.8977Z" fill="#241815"/>
<path d="M44.789 27.3458C44.789 27.5033 44.9167 27.631 45.0742 27.631H58.7874C58.945 27.631 59.0727 27.5033 59.0727 27.3458V15.1858C59.0727 15.0282 58.945 14.9005 58.7874 14.9005H51.1448C50.9873 14.9005 50.8596 14.7728 50.8596 14.6153V13.0934C50.8596 12.9358 50.9873 12.8081 51.1448 12.8081H58.7874C58.945 12.8081 59.0727 12.6804 59.0727 12.5229V7.70185C59.0727 7.54431 58.945 7.4166 58.7874 7.4166H51.1448C50.9873 7.4166 50.8596 7.28889 50.8596 7.13135V5.3246C50.8596 5.16706 50.9873 5.03935 51.1448 5.03935H58.7874C58.945 5.03935 59.0727 4.91164 59.0727 4.75411V0.285246C59.0727 0.127709 58.945 0 58.7874 0H45.0742C44.9167 0 44.789 0.127709 44.789 0.285247V27.3458ZM33.8188 6.45516C33.7115 6.65463 33.4258 6.65555 33.3172 6.45678L29.8722 0.148529C29.8222 0.056961 29.7262 0 29.6219 0H24.0058C23.8482 0 23.7205 0.127709 23.7205 0.285247V4.67633C23.7205 4.90311 23.4635 5.04718 23.2624 4.9424C23.0191 4.81566 22.7376 4.68365 22.4911 4.5903C22.374 4.54596 22.2922 4.436 22.2922 4.31079V0.285246C22.2922 0.127709 22.1645 0 22.0069 0H16.9358C11.4826 0 4.55561 6.13157 4.55561 13.8024C4.52933 24.0305 12.5062 28.6886 22.0389 27.6596C22.1827 27.6441 22.2922 27.5221 22.2922 27.3775V19.7634C22.2922 19.6584 22.3501 19.5623 22.4413 19.5103C22.8347 19.2861 23.215 19.0188 23.5787 18.711C23.6656 18.6374 23.7209 18.6573 23.721 18.7711C23.7222 19.905 23.7209 25.9687 23.7206 27.3506C23.7206 27.5081 23.8483 27.631 24.0058 27.631H29.5059C29.6634 27.631 29.7911 27.5033 29.7911 27.3458V12.2212C29.7911 11.929 30.1783 11.8258 30.3238 12.0793L33.3202 17.3024C33.4302 17.4942 33.7072 17.4932 33.8159 17.3007L36.7564 12.0954C36.9007 11.8401 37.29 11.9424 37.29 12.2357V27.3458C37.29 27.5033 37.4178 27.631 37.5753 27.631H43.0754C43.2329 27.631 43.3606 27.5033 43.3606 27.3458V0.285246C43.3606 0.127709 43.2329 0 43.0754 0H37.4605C37.3555 0 37.259 0.0576786 37.2093 0.15015L33.8188 6.45516ZM26.1548 18.3279C25.2732 18.0556 24.414 17.6381 23.6198 17.0287C23.6052 17.0176 23.4379 17.2046 23.3707 17.2775C23.3544 17.2951 23.3345 17.31 23.3135 17.3216C15.3304 21.765 9.8194 11.9582 17.9009 7.69112C24.5293 5.22065 28.3559 10.891 25.2341 14.5578C25.194 14.6049 25.1674 14.6642 25.1653 14.726C25.1257 15.8596 25.962 16.9345 26.2805 17.9873C26.288 18.0124 26.3727 18.3922 26.3691 18.3912C26.2973 18.3711 26.2263 18.3495 26.1548 18.3279Z" fill="url(#paint0_linear_76_11634)"/>
<g filter="url(#filter0_d_76_11634)">
<g filter="url(#filter1_i_76_11634)">
<path d="M2 33.4155C2 33.1475 2.18655 32.9156 2.44835 32.8582L14.0848 30.3076C14.4407 30.2296 14.7775 30.5006 14.7775 30.8649V46.5896C14.7775 46.8576 14.5909 47.0895 14.3291 47.1469L2.69264 49.6975C2.33679 49.7755 2 49.5046 2 49.1403V33.4155Z" fill="url(#paint1_radial_76_11634)"/>
</g>
<path d="M2.14262 33.4155C2.14262 33.2145 2.28254 33.0406 2.47888 32.9975L14.1154 30.4469C14.3822 30.3884 14.6348 30.5916 14.6348 30.8649V46.5896C14.6348 46.7906 14.4949 46.9645 14.2986 47.0076L2.66211 49.5582C2.39522 49.6167 2.14262 49.4135 2.14262 49.1403V33.4155Z" stroke="#FBBF28" stroke-width="0.285247"/>
<g filter="url(#filter2_i_76_11634)">
<path d="M69.5787 19.1664C69.5787 18.8055 69.2478 18.5353 68.8941 18.6074L55.838 21.2711C55.5723 21.3253 55.3815 21.5589 55.3815 21.8301V37.5584C55.3815 37.9193 55.7124 38.1895 56.066 38.1174L69.1222 35.4538C69.3879 35.3996 69.5787 35.1659 69.5787 34.8948V19.1664Z" fill="url(#paint2_radial_76_11634)"/>
</g>
<path d="M69.4361 19.1664C69.4361 18.8957 69.1879 18.6931 68.9227 18.7472L55.8665 21.4108C55.6672 21.4515 55.5241 21.6267 55.5241 21.8301V37.5584C55.5241 37.8291 55.7723 38.0318 56.0375 37.9777L69.0937 35.314C69.2929 35.2734 69.4361 35.0981 69.4361 34.8948V19.1664Z" stroke="#FBBF28" stroke-width="0.285247"/>
<path d="M55.5867 38.157L63.1669 32.388C63.2753 32.3055 63.1968 32.1333 63.0635 32.161L55.4833 33.7344C55.424 33.7467 55.3814 33.799 55.3814 33.8596V38.0552C55.3814 38.161 55.5025 38.221 55.5867 38.157Z" fill="#886900"/>
<path d="M14.473 46.948L7.26061 44.58C7.13776 44.5396 7.14556 44.3633 7.2715 44.3339L14.615 42.6237C14.6969 42.6046 14.7745 42.6684 14.7718 42.7523L14.6407 46.8306C14.6379 46.9158 14.554 46.9746 14.473 46.948Z" fill="#886900"/>
<g filter="url(#filter3_i_76_11634)">
<path d="M6.82675 28.004C6.82675 27.736 7.01331 27.5041 7.2751 27.4467L62.9228 15.2495C63.2787 15.1715 63.6154 15.4424 63.6154 15.8067V31.5315C63.6154 31.7995 63.4289 32.0314 63.1671 32.0888L7.51939 44.2861C7.16354 44.364 6.82675 44.0931 6.82675 43.7288V28.004Z" fill="url(#paint3_radial_76_11634)"/>
</g>
<path d="M6.96937 28.004C6.96937 27.803 7.10929 27.6291 7.30564 27.5861L62.9533 15.3888C63.2202 15.3303 63.4728 15.5335 63.4728 15.8067V31.5315C63.4728 31.7325 63.3329 31.9064 63.1366 31.9495L7.48885 44.1467C7.22197 44.2052 6.96937 44.002 6.96937 43.7288V28.004Z" stroke="#FBBF28" stroke-width="0.285247"/>
</g>
<path d="M38.9205 47.1292L39.0574 45.8604H39.0027L38.6102 46.8827L37.2501 49.2651H36.8485L35.4154 46.8736L35.0138 45.8604H34.9681L35.1507 47.1201V50.4426H33.9641V44.0531H35.1051L36.812 46.974L37.1132 47.7042H37.1497L37.4236 46.9558L39.0392 44.0531H40.171V50.4426H38.9205V47.1292Z" fill="url(#paint4_linear_76_11634)"/>
<path d="M41.3924 44.0531H42.6429V50.4426H41.3924V44.0531Z" fill="url(#paint5_linear_76_11634)"/>
<path d="M46.6241 48.7266C46.6241 48.5318 46.5511 48.3736 46.405 48.2519C46.2651 48.1302 46.0856 48.0207 45.8665 47.9233C45.6535 47.8199 45.4192 47.7164 45.1636 47.613C44.9142 47.5034 44.6799 47.3726 44.4608 47.2205C44.2478 47.0622 44.0683 46.8675 43.9223 46.6363C43.7823 46.405 43.7123 46.1099 43.7123 45.7509C43.7123 45.4405 43.764 45.1728 43.8675 44.9476C43.9709 44.7164 44.117 44.5247 44.3056 44.3726C44.5004 44.2204 44.7285 44.1079 44.9902 44.0348C45.2519 43.9618 45.544 43.9253 45.8665 43.9253C46.2377 43.9253 46.5876 43.9588 46.9162 44.0257C47.2448 44.0866 47.5156 44.1778 47.7286 44.2995L47.3361 45.3492C47.2022 45.2641 47.0014 45.188 46.7336 45.121C46.4659 45.048 46.1768 45.0115 45.8665 45.0115C45.5744 45.0115 45.3492 45.0693 45.191 45.1849C45.0389 45.3006 44.9628 45.4557 44.9628 45.6505C44.9628 45.833 45.0328 45.9852 45.1728 46.1069C45.3188 46.2286 45.4983 46.3411 45.7113 46.4446C45.9304 46.548 46.1647 46.6545 46.4142 46.7641C46.6697 46.8736 46.904 47.0075 47.117 47.1657C47.3361 47.3178 47.5156 47.5095 47.6556 47.7408C47.8016 47.9659 47.8746 48.2489 47.8746 48.5896C47.8746 48.9304 47.8168 49.2256 47.7012 49.4751C47.5917 49.7185 47.4334 49.9223 47.2265 50.0866C47.0257 50.2509 46.7793 50.3726 46.4872 50.4517C46.2012 50.5308 45.8847 50.5704 45.5379 50.5704C45.0815 50.5704 44.6799 50.5278 44.333 50.4426C43.9861 50.3574 43.7306 50.2722 43.5663 50.187L43.9679 49.1191C44.0348 49.1556 44.12 49.1951 44.2235 49.2377C44.333 49.2803 44.4547 49.3199 44.5886 49.3564C44.7225 49.3929 44.8624 49.4233 45.0085 49.4477C45.1606 49.472 45.3158 49.4842 45.474 49.4842C45.8452 49.4842 46.1282 49.4233 46.3229 49.3016C46.5237 49.1738 46.6241 48.9821 46.6241 48.7266Z" fill="url(#paint6_linear_76_11634)"/>
<path d="M51.4644 48.7266C51.4644 48.5318 51.3914 48.3736 51.2453 48.2519C51.1054 48.1302 50.9258 48.0207 50.7068 47.9233C50.4938 47.8199 50.2595 47.7164 50.0039 47.613C49.7544 47.5034 49.5201 47.3726 49.3011 47.2205C49.0881 47.0622 48.9086 46.8675 48.7625 46.6363C48.6226 46.405 48.5526 46.1099 48.5526 45.7509C48.5526 45.4405 48.6043 45.1728 48.7078 44.9476C48.8112 44.7164 48.9573 44.5247 49.1459 44.3726C49.3406 44.2204 49.5688 44.1079 49.8305 44.0348C50.0922 43.9618 50.3843 43.9253 50.7068 43.9253C51.078 43.9253 51.4279 43.9588 51.7565 44.0257C52.0851 44.0866 52.3559 44.1778 52.5689 44.2995L52.1764 45.3492C52.0425 45.2641 51.8417 45.188 51.5739 45.121C51.3062 45.048 51.0171 45.0115 50.7068 45.0115C50.4147 45.0115 50.1895 45.0693 50.0313 45.1849C49.8792 45.3006 49.8031 45.4557 49.8031 45.6505C49.8031 45.833 49.8731 45.9852 50.0131 46.1069C50.1591 46.2286 50.3386 46.3411 50.5516 46.4446C50.7707 46.548 51.0049 46.6545 51.2544 46.7641C51.51 46.8736 51.7443 47.0075 51.9573 47.1657C52.1764 47.3178 52.3559 47.5095 52.4958 47.7408C52.6419 47.9659 52.7149 48.2489 52.7149 48.5896C52.7149 48.9304 52.6571 49.2256 52.5415 49.4751C52.4319 49.7185 52.2737 49.9223 52.0668 50.0866C51.866 50.2509 51.6196 50.3726 51.3275 50.4517C51.0415 50.5308 50.725 50.5704 50.3782 50.5704C49.9218 50.5704 49.5201 50.5278 49.1733 50.4426C48.8264 50.3574 48.5708 50.2722 48.4065 50.187L48.8082 49.1191C48.8751 49.1556 48.9603 49.1951 49.0638 49.2377C49.1733 49.2803 49.295 49.3199 49.4289 49.3564C49.5627 49.3929 49.7027 49.4233 49.8488 49.4477C50.0009 49.472 50.1561 49.4842 50.3143 49.4842C50.6855 49.4842 50.9684 49.4233 51.1632 49.3016C51.364 49.1738 51.4644 48.9821 51.4644 48.7266Z" fill="url(#paint7_linear_76_11634)"/>
<path d="M53.6758 44.0531H54.9264V50.4426H53.6758V44.0531Z" fill="url(#paint8_linear_76_11634)"/>
<path d="M55.9501 47.2478C55.9501 46.1829 56.1844 45.3645 56.653 44.7924C57.1215 44.2143 57.7909 43.9253 58.6611 43.9253C59.1175 43.9253 59.5161 44.0044 59.8568 44.1626C60.1976 44.3208 60.4806 44.546 60.7057 44.8381C60.9309 45.1302 61.0982 45.4801 61.2078 45.8878C61.3173 46.2955 61.3721 46.7489 61.3721 47.2478C61.3721 48.3128 61.1347 49.1343 60.6601 49.7124C60.1915 50.2844 59.5252 50.5704 58.6611 50.5704C58.1986 50.5704 57.797 50.4913 57.4562 50.3331C57.1154 50.1749 56.8325 49.9497 56.6073 49.6576C56.3882 49.3655 56.2239 49.0156 56.1144 48.6079C56.0049 48.2002 55.9501 47.7468 55.9501 47.2478ZM57.2645 47.2478C57.2645 47.5704 57.2919 47.8685 57.3467 48.1424C57.4014 48.4101 57.4836 48.6414 57.5931 48.8361C57.7087 49.0308 57.8548 49.183 58.0313 49.2925C58.2077 49.402 58.4177 49.4568 58.6611 49.4568C59.1053 49.4568 59.4491 49.2834 59.6925 48.9365C59.9359 48.5896 60.0577 48.0268 60.0577 47.2478C60.0577 46.9375 60.0303 46.6484 59.9755 46.3807C59.9268 46.1129 59.8477 45.8787 59.7382 45.6778C59.6286 45.477 59.4856 45.3219 59.3092 45.2123C59.1327 45.0967 58.9167 45.0389 58.6611 45.0389C58.2169 45.0389 57.873 45.2184 57.6296 45.5774C57.3862 45.9304 57.2645 46.4872 57.2645 47.2478Z" fill="url(#paint9_linear_76_11634)"/>
<path d="M63.8541 47.1109L63.3521 46.1069H63.3065L63.4525 47.1109V50.4426H62.2659V44.0074H63.1787L65.5976 47.4121L66.0813 48.3888H66.127L65.9809 47.4121V44.0531H67.1676V50.4882H66.2548L63.8541 47.1109Z" fill="url(#paint10_linear_76_11634)"/>
<mask id="path-12-outside-1_76_11634" maskUnits="userSpaceOnUse" x="12.2649" y="19.6577" width="46" height="20" fill="black">
<rect fill="white" x="12.2649" y="19.6577" width="46" height="20"/>
<path d="M19.8094 32.3643L20.0238 30.5265L19.9486 30.5412L19.3975 32.1197L17.5613 35.8501L17.0475 35.9509L15.2298 32.8979L14.7356 31.5634L14.673 31.5757L14.8822 33.3174L14.8062 38.069L13.2649 38.3713L13.4101 29.2337L14.8511 28.9511L16.9484 32.7041L17.3066 33.6749L17.3693 33.6626L17.7455 32.5217L19.9263 27.956L21.4927 27.6488L21.3475 36.7864L19.7309 37.1034L19.8094 32.3643Z"/>
<path d="M27.7929 30.5646L27.939 29.3778L27.8638 29.3925L27.2962 30.7531L24.1244 36.2419L22.8713 36.4876L23.0165 27.3501L24.6455 27.0306L24.5689 31.9125L24.4176 33.1394L24.4928 33.1246L25.0781 31.7216L28.242 26.3254L29.4951 26.0797L29.3499 35.2172L27.7208 35.5367L27.7929 30.5646Z"/>
<path d="M36.5934 33.4195C36.1037 33.8886 35.4537 34.2026 34.6433 34.3615C34.092 34.4696 33.5937 34.4718 33.1485 34.3683C32.7034 34.2647 32.3112 34.077 31.972 33.8052C31.6412 33.5317 31.3666 33.1908 31.1483 32.7825C30.93 32.3742 30.772 31.9194 30.6743 31.418C30.4822 30.432 30.4564 29.5652 30.597 28.8176C30.7359 28.0616 30.9878 27.418 31.3526 26.8866C31.7158 26.3469 32.1653 25.9161 32.701 25.5942C33.2451 25.2706 33.8221 25.0491 34.4319 24.9295C34.9081 24.8361 35.3206 24.7943 35.6694 24.8039C36.025 24.8036 36.3078 24.8306 36.5178 24.8848L36.162 26.4641C35.977 26.4049 35.7635 26.3774 35.5215 26.3815C35.2778 26.3772 34.9763 26.4103 34.6171 26.4807C34.191 26.5643 33.8113 26.7298 33.4779 26.9774C33.1445 27.2249 32.8759 27.5379 32.6721 27.9162C32.4682 28.2945 32.3325 28.7332 32.265 29.2322C32.2058 29.7297 32.234 30.275 32.3495 30.8683C32.4879 31.5786 32.7716 32.0999 33.2006 32.4321C33.638 32.7628 34.1533 32.87 34.7464 32.7537C35.1223 32.6799 35.4241 32.5817 35.6517 32.459C35.8861 32.3263 36.1005 32.1802 36.2949 32.0206L36.5934 33.4195Z"/>
<path d="M42.9324 32.1765C42.4427 32.6456 41.7927 32.9596 40.9823 33.1185C40.431 33.2266 39.9327 33.2289 39.4875 33.1253C39.0424 33.0217 38.6502 32.834 38.311 32.5622C37.9802 32.2887 37.7056 31.9478 37.4873 31.5395C37.269 31.1312 37.111 30.6764 37.0133 30.175C36.8212 29.189 36.7954 28.3222 36.936 27.5746C37.0749 26.8186 37.3268 26.175 37.6916 25.6436C38.0548 25.104 38.5043 24.6731 39.04 24.3512C39.5841 24.0276 40.1611 23.8061 40.7709 23.6865C41.2471 23.5931 41.6596 23.5513 42.0084 23.5609C42.364 23.5606 42.6468 23.5876 42.8568 23.6418L42.501 25.2211C42.316 25.162 42.1025 25.1344 41.8605 25.1385C41.6168 25.1342 41.3153 25.1673 40.9561 25.2378C40.53 25.3213 40.1503 25.4869 39.8169 25.7344C39.4835 25.982 39.2149 26.2949 39.0111 26.6732C38.8072 27.0515 38.6715 27.4902 38.604 27.9893C38.5448 28.4867 38.573 29.032 38.6885 29.6253C38.8269 30.3356 39.1106 30.8569 39.5396 31.1892C39.977 31.5198 40.4923 31.627 41.0854 31.5107C41.4613 31.437 41.7631 31.3388 41.9907 31.216C42.2251 31.0833 42.4395 30.9372 42.6339 30.7776L42.9324 32.1765Z"/>
<path d="M48.8536 26.4349L48.9996 25.2481L48.9245 25.2629L48.3569 26.6234L45.1851 32.1122L43.9319 32.3579L44.0771 23.2204L45.7062 22.9009L45.6295 27.7828L45.4783 29.0097L45.5535 28.9949L46.1388 27.5919L49.3026 22.1957L50.5557 21.95L50.4105 31.0876L48.7815 31.407L48.8536 26.4349Z"/>
<path d="M55.7701 30.0366L55.833 26.4197L54.9997 26.8173L53.1886 30.5428L51.2964 30.9139L53.0283 27.5162L53.7479 26.8025C53.5845 26.7652 53.4079 26.7044 53.218 26.6202C53.0365 26.5343 52.8618 26.4167 52.6939 26.2675C52.5261 26.1182 52.3768 25.9306 52.246 25.7046C52.1153 25.4787 52.0182 25.2028 51.9547 24.8769C51.8326 24.2502 51.8528 23.7084 52.0153 23.2514C52.1777 22.7945 52.4275 22.4071 52.7646 22.0895C53.1084 21.7618 53.517 21.4995 53.9903 21.3026C54.4721 21.104 54.9677 20.9548 55.4773 20.8548C55.6026 20.8303 55.7288 20.8099 55.8557 20.7937C55.864 20.792 55.9233 20.7847 56.0336 20.7718C56.1505 20.7489 56.3025 20.7277 56.4896 20.7084C56.685 20.6874 56.8728 20.6723 57.0532 20.663C57.2335 20.6536 57.3945 20.6567 57.5363 20.6723L57.3866 29.7197L55.7701 30.0366ZM55.9002 22.4246C55.8051 22.4259 55.7066 22.4322 55.6047 22.4435C55.5012 22.4464 55.3784 22.4618 55.2364 22.4897C55.0108 22.5339 54.7902 22.6032 54.5744 22.6976C54.3569 22.7836 54.1677 22.9031 54.0067 23.0561C53.8541 23.2075 53.7396 23.3991 53.6634 23.6309C53.5939 23.8528 53.5892 24.1183 53.6494 24.4275C53.7276 24.8286 53.9081 25.1098 54.1911 25.2712C54.4808 25.4226 54.8262 25.459 55.2272 25.3804L55.8412 25.26L55.9002 22.4246Z"/>
</mask>
<path d="M19.8094 32.3643L20.0238 30.5265L19.9486 30.5412L19.3975 32.1197L17.5613 35.8501L17.0475 35.9509L15.2298 32.8979L14.7356 31.5634L14.673 31.5757L14.8822 33.3174L14.8062 38.069L13.2649 38.3713L13.4101 29.2337L14.8511 28.9511L16.9484 32.7041L17.3066 33.6749L17.3693 33.6626L17.7455 32.5217L19.9263 27.956L21.4927 27.6488L21.3475 36.7864L19.7309 37.1034L19.8094 32.3643Z" fill="url(#paint11_linear_76_11634)"/>
<path d="M27.7929 30.5646L27.939 29.3778L27.8638 29.3925L27.2962 30.7531L24.1244 36.2419L22.8713 36.4876L23.0165 27.3501L24.6455 27.0306L24.5689 31.9125L24.4176 33.1394L24.4928 33.1246L25.0781 31.7216L28.242 26.3254L29.4951 26.0797L29.3499 35.2172L27.7208 35.5367L27.7929 30.5646Z" fill="url(#paint12_linear_76_11634)"/>
<path d="M36.5934 33.4195C36.1037 33.8886 35.4537 34.2026 34.6433 34.3615C34.092 34.4696 33.5937 34.4718 33.1485 34.3683C32.7034 34.2647 32.3112 34.077 31.972 33.8052C31.6412 33.5317 31.3666 33.1908 31.1483 32.7825C30.93 32.3742 30.772 31.9194 30.6743 31.418C30.4822 30.432 30.4564 29.5652 30.597 28.8176C30.7359 28.0616 30.9878 27.418 31.3526 26.8866C31.7158 26.3469 32.1653 25.9161 32.701 25.5942C33.2451 25.2706 33.8221 25.0491 34.4319 24.9295C34.9081 24.8361 35.3206 24.7943 35.6694 24.8039C36.025 24.8036 36.3078 24.8306 36.5178 24.8848L36.162 26.4641C35.977 26.4049 35.7635 26.3774 35.5215 26.3815C35.2778 26.3772 34.9763 26.4103 34.6171 26.4807C34.191 26.5643 33.8113 26.7298 33.4779 26.9774C33.1445 27.2249 32.8759 27.5379 32.6721 27.9162C32.4682 28.2945 32.3325 28.7332 32.265 29.2322C32.2058 29.7297 32.234 30.275 32.3495 30.8683C32.4879 31.5786 32.7716 32.0999 33.2006 32.4321C33.638 32.7628 34.1533 32.87 34.7464 32.7537C35.1223 32.6799 35.4241 32.5817 35.6517 32.459C35.8861 32.3263 36.1005 32.1802 36.2949 32.0206L36.5934 33.4195Z" fill="url(#paint13_linear_76_11634)"/>
<path d="M42.9324 32.1765C42.4427 32.6456 41.7927 32.9596 40.9823 33.1185C40.431 33.2266 39.9327 33.2289 39.4875 33.1253C39.0424 33.0217 38.6502 32.834 38.311 32.5622C37.9802 32.2887 37.7056 31.9478 37.4873 31.5395C37.269 31.1312 37.111 30.6764 37.0133 30.175C36.8212 29.189 36.7954 28.3222 36.936 27.5746C37.0749 26.8186 37.3268 26.175 37.6916 25.6436C38.0548 25.104 38.5043 24.6731 39.04 24.3512C39.5841 24.0276 40.1611 23.8061 40.7709 23.6865C41.2471 23.5931 41.6596 23.5513 42.0084 23.5609C42.364 23.5606 42.6468 23.5876 42.8568 23.6418L42.501 25.2211C42.316 25.162 42.1025 25.1344 41.8605 25.1385C41.6168 25.1342 41.3153 25.1673 40.9561 25.2378C40.53 25.3213 40.1503 25.4869 39.8169 25.7344C39.4835 25.982 39.2149 26.2949 39.0111 26.6732C38.8072 27.0515 38.6715 27.4902 38.604 27.9893C38.5448 28.4867 38.573 29.032 38.6885 29.6253C38.8269 30.3356 39.1106 30.8569 39.5396 31.1892C39.977 31.5198 40.4923 31.627 41.0854 31.5107C41.4613 31.437 41.7631 31.3388 41.9907 31.216C42.2251 31.0833 42.4395 30.9372 42.6339 30.7776L42.9324 32.1765Z" fill="url(#paint14_linear_76_11634)"/>
<path d="M48.8536 26.4349L48.9996 25.2481L48.9245 25.2629L48.3569 26.6234L45.1851 32.1122L43.9319 32.3579L44.0771 23.2204L45.7062 22.9009L45.6295 27.7828L45.4783 29.0097L45.5535 28.9949L46.1388 27.5919L49.3026 22.1957L50.5557 21.95L50.4105 31.0876L48.7815 31.407L48.8536 26.4349Z" fill="url(#paint15_linear_76_11634)"/>
<path d="M55.7701 30.0366L55.833 26.4197L54.9997 26.8173L53.1886 30.5428L51.2964 30.9139L53.0283 27.5162L53.7479 26.8025C53.5845 26.7652 53.4079 26.7044 53.218 26.6202C53.0365 26.5343 52.8618 26.4167 52.6939 26.2675C52.5261 26.1182 52.3768 25.9306 52.246 25.7046C52.1153 25.4787 52.0182 25.2028 51.9547 24.8769C51.8326 24.2502 51.8528 23.7084 52.0153 23.2514C52.1777 22.7945 52.4275 22.4071 52.7646 22.0895C53.1084 21.7618 53.517 21.4995 53.9903 21.3026C54.4721 21.104 54.9677 20.9548 55.4773 20.8548C55.6026 20.8303 55.7288 20.8099 55.8557 20.7937C55.864 20.792 55.9233 20.7847 56.0336 20.7718C56.1505 20.7489 56.3025 20.7277 56.4896 20.7084C56.685 20.6874 56.8728 20.6723 57.0532 20.663C57.2335 20.6536 57.3945 20.6567 57.5363 20.6723L57.3866 29.7197L55.7701 30.0366ZM55.9002 22.4246C55.8051 22.4259 55.7066 22.4322 55.6047 22.4435C55.5012 22.4464 55.3784 22.4618 55.2364 22.4897C55.0108 22.5339 54.7902 22.6032 54.5744 22.6976C54.3569 22.7836 54.1677 22.9031 54.0067 23.0561C53.8541 23.2075 53.7396 23.3991 53.6634 23.6309C53.5939 23.8528 53.5892 24.1183 53.6494 24.4275C53.7276 24.8286 53.9081 25.1098 54.1911 25.2712C54.4808 25.4226 54.8262 25.459 55.2272 25.3804L55.8412 25.26L55.9002 22.4246Z" fill="url(#paint16_linear_76_11634)"/>
<path d="M19.8094 32.3643L20.0238 30.5265L19.9486 30.5412L19.3975 32.1197L17.5613 35.8501L17.0475 35.9509L15.2298 32.8979L14.7356 31.5634L14.673 31.5757L14.8822 33.3174L14.8062 38.069L13.2649 38.3713L13.4101 29.2337L14.8511 28.9511L16.9484 32.7041L17.3066 33.6749L17.3693 33.6626L17.7455 32.5217L19.9263 27.956L21.4927 27.6488L21.3475 36.7864L19.7309 37.1034L19.8094 32.3643Z" stroke="#FAD07D" stroke-width="0.798112" mask="url(#path-12-outside-1_76_11634)"/>
<path d="M27.7929 30.5646L27.939 29.3778L27.8638 29.3925L27.2962 30.7531L24.1244 36.2419L22.8713 36.4876L23.0165 27.3501L24.6455 27.0306L24.5689 31.9125L24.4176 33.1394L24.4928 33.1246L25.0781 31.7216L28.242 26.3254L29.4951 26.0797L29.3499 35.2172L27.7208 35.5367L27.7929 30.5646Z" stroke="#FAD07D" stroke-width="0.798112" mask="url(#path-12-outside-1_76_11634)"/>
<path d="M36.5934 33.4195C36.1037 33.8886 35.4537 34.2026 34.6433 34.3615C34.092 34.4696 33.5937 34.4718 33.1485 34.3683C32.7034 34.2647 32.3112 34.077 31.972 33.8052C31.6412 33.5317 31.3666 33.1908 31.1483 32.7825C30.93 32.3742 30.772 31.9194 30.6743 31.418C30.4822 30.432 30.4564 29.5652 30.597 28.8176C30.7359 28.0616 30.9878 27.418 31.3526 26.8866C31.7158 26.3469 32.1653 25.9161 32.701 25.5942C33.2451 25.2706 33.8221 25.0491 34.4319 24.9295C34.9081 24.8361 35.3206 24.7943 35.6694 24.8039C36.025 24.8036 36.3078 24.8306 36.5178 24.8848L36.162 26.4641C35.977 26.4049 35.7635 26.3774 35.5215 26.3815C35.2778 26.3772 34.9763 26.4103 34.6171 26.4807C34.191 26.5643 33.8113 26.7298 33.4779 26.9774C33.1445 27.2249 32.8759 27.5379 32.6721 27.9162C32.4682 28.2945 32.3325 28.7332 32.265 29.2322C32.2058 29.7297 32.234 30.275 32.3495 30.8683C32.4879 31.5786 32.7716 32.0999 33.2006 32.4321C33.638 32.7628 34.1533 32.87 34.7464 32.7537C35.1223 32.6799 35.4241 32.5817 35.6517 32.459C35.8861 32.3263 36.1005 32.1802 36.2949 32.0206L36.5934 33.4195Z" stroke="#FAD07D" stroke-width="0.798112" mask="url(#path-12-outside-1_76_11634)"/>
<path d="M42.9324 32.1765C42.4427 32.6456 41.7927 32.9596 40.9823 33.1185C40.431 33.2266 39.9327 33.2289 39.4875 33.1253C39.0424 33.0217 38.6502 32.834 38.311 32.5622C37.9802 32.2887 37.7056 31.9478 37.4873 31.5395C37.269 31.1312 37.111 30.6764 37.0133 30.175C36.8212 29.189 36.7954 28.3222 36.936 27.5746C37.0749 26.8186 37.3268 26.175 37.6916 25.6436C38.0548 25.104 38.5043 24.6731 39.04 24.3512C39.5841 24.0276 40.1611 23.8061 40.7709 23.6865C41.2471 23.5931 41.6596 23.5513 42.0084 23.5609C42.364 23.5606 42.6468 23.5876 42.8568 23.6418L42.501 25.2211C42.316 25.162 42.1025 25.1344 41.8605 25.1385C41.6168 25.1342 41.3153 25.1673 40.9561 25.2378C40.53 25.3213 40.1503 25.4869 39.8169 25.7344C39.4835 25.982 39.2149 26.2949 39.0111 26.6732C38.8072 27.0515 38.6715 27.4902 38.604 27.9893C38.5448 28.4867 38.573 29.032 38.6885 29.6253C38.8269 30.3356 39.1106 30.8569 39.5396 31.1892C39.977 31.5198 40.4923 31.627 41.0854 31.5107C41.4613 31.437 41.7631 31.3388 41.9907 31.216C42.2251 31.0833 42.4395 30.9372 42.6339 30.7776L42.9324 32.1765Z" stroke="#FAD07D" stroke-width="0.798112" mask="url(#path-12-outside-1_76_11634)"/>
<path d="M48.8536 26.4349L48.9996 25.2481L48.9245 25.2629L48.3569 26.6234L45.1851 32.1122L43.9319 32.3579L44.0771 23.2204L45.7062 22.9009L45.6295 27.7828L45.4783 29.0097L45.5535 28.9949L46.1388 27.5919L49.3026 22.1957L50.5557 21.95L50.4105 31.0876L48.7815 31.407L48.8536 26.4349Z" stroke="#FAD07D" stroke-width="0.798112" mask="url(#path-12-outside-1_76_11634)"/>
<path d="M55.7701 30.0366L55.833 26.4197L54.9997 26.8173L53.1886 30.5428L51.2964 30.9139L53.0283 27.5162L53.7479 26.8025C53.5845 26.7652 53.4079 26.7044 53.218 26.6202C53.0365 26.5343 52.8618 26.4167 52.6939 26.2675C52.5261 26.1182 52.3768 25.9306 52.246 25.7046C52.1153 25.4787 52.0182 25.2028 51.9547 24.8769C51.8326 24.2502 51.8528 23.7084 52.0153 23.2514C52.1777 22.7945 52.4275 22.4071 52.7646 22.0895C53.1084 21.7618 53.517 21.4995 53.9903 21.3026C54.4721 21.104 54.9677 20.9548 55.4773 20.8548C55.6026 20.8303 55.7288 20.8099 55.8557 20.7937C55.864 20.792 55.9233 20.7847 56.0336 20.7718C56.1505 20.7489 56.3025 20.7277 56.4896 20.7084C56.685 20.6874 56.8728 20.6723 57.0532 20.663C57.2335 20.6536 57.3945 20.6567 57.5363 20.6723L57.3866 29.7197L55.7701 30.0366ZM55.9002 22.4246C55.8051 22.4259 55.7066 22.4322 55.6047 22.4435C55.5012 22.4464 55.3784 22.4618 55.2364 22.4897C55.0108 22.5339 54.7902 22.6032 54.5744 22.6976C54.3569 22.7836 54.1677 22.9031 54.0067 23.0561C53.8541 23.2075 53.7396 23.3991 53.6634 23.6309C53.5939 23.8528 53.5892 24.1183 53.6494 24.4275C53.7276 24.8286 53.9081 25.1098 54.1911 25.2712C54.4808 25.4226 54.8262 25.459 55.2272 25.3804L55.8412 25.26L55.9002 22.4246Z" stroke="#FAD07D" stroke-width="0.798112" mask="url(#path-12-outside-1_76_11634)"/>
<defs>
<filter id="filter0_d_76_11634" x="0.859014" y="15.2358" width="69.8606" height="36.7571" filterUnits="userSpaceOnUse" color-interpolation-filters="sRGB">
<feFlood flood-opacity="0" result="BackgroundImageFix"/>
<feColorMatrix in="SourceAlpha" type="matrix" values="0 0 0 0 0 0 0 0 0 0 0 0 0 0 0 0 0 0 127 0" result="hardAlpha"/>
<feOffset dy="1.14099"/>
<feGaussianBlur stdDeviation="0.570493"/>
<feComposite in2="hardAlpha" operator="out"/>
<feColorMatrix type="matrix" values="0 0 0 0 0 0 0 0 0 0 0 0 0 0 0 0 0 0 0.25 0"/>
<feBlend mode="normal" in2="BackgroundImageFix" result="effect1_dropShadow_76_11634"/>
<feBlend mode="normal" in="SourceGraphic" in2="effect1_dropShadow_76_11634" result="shape"/>
</filter>
<filter id="filter1_i_76_11634" x="1.14426" y="30.2939" width="13.6332" height="20.558" filterUnits="userSpaceOnUse" color-interpolation-filters="sRGB">
<feFlood flood-opacity="0" result="BackgroundImageFix"/>
<feBlend mode="normal" in="SourceGraphic" in2="BackgroundImageFix" result="shape"/>
<feColorMatrix in="SourceAlpha" type="matrix" values="0 0 0 0 0 0 0 0 0 0 0 0 0 0 0 0 0 0 127 0" result="hardAlpha"/>
<feOffset dx="-0.85574" dy="1.14099"/>
<feGaussianBlur stdDeviation="0.570493"/>
<feComposite in2="hardAlpha" operator="arithmetic" k2="-1" k3="1"/>
<feColorMatrix type="matrix" values="0 0 0 0 0.984314 0 0 0 0 0.74902 0 0 0 0 0.156863 0 0 0 0.85 0"/>
<feBlend mode="normal" in2="shape" result="effect1_innerShadow_76_11634"/>
</filter>
<filter id="filter2_i_76_11634" x="54.5258" y="18.5957" width="15.0529" height="20.6742" filterUnits="userSpaceOnUse" color-interpolation-filters="sRGB">
<feFlood flood-opacity="0" result="BackgroundImageFix"/>
<feBlend mode="normal" in="SourceGraphic" in2="BackgroundImageFix" result="shape"/>
<feColorMatrix in="SourceAlpha" type="matrix" values="0 0 0 0 0 0 0 0 0 0 0 0 0 0 0 0 0 0 127 0" result="hardAlpha"/>
<feOffset dx="-0.85574" dy="1.14099"/>
<feGaussianBlur stdDeviation="0.570493"/>
<feComposite in2="hardAlpha" operator="arithmetic" k2="-1" k3="1"/>
<feColorMatrix type="matrix" values="0 0 0 0 0.984314 0 0 0 0 0.74902 0 0 0 0 0.156863 0 0 0 0.85 0"/>
<feBlend mode="normal" in2="shape" result="effect1_innerShadow_76_11634"/>
</filter>
<filter id="filter3_i_76_11634" x="5.97101" y="15.2358" width="57.6444" height="30.2045" filterUnits="userSpaceOnUse" color-interpolation-filters="sRGB">
<feFlood flood-opacity="0" result="BackgroundImageFix"/>
<feBlend mode="normal" in="SourceGraphic" in2="BackgroundImageFix" result="shape"/>
<feColorMatrix in="SourceAlpha" type="matrix" values="0 0 0 0 0 0 0 0 0 0 0 0 0 0 0 0 0 0 127 0" result="hardAlpha"/>
<feOffset dx="-0.85574" dy="1.14099"/>
<feGaussianBlur stdDeviation="0.570493"/>
<feComposite in2="hardAlpha" operator="arithmetic" k2="-1" k3="1"/>
<feColorMatrix type="matrix" values="0 0 0 0 0.984314 0 0 0 0 0.74902 0 0 0 0 0.156863 0 0 0 0.85 0"/>
<feBlend mode="normal" in2="shape" result="effect1_innerShadow_76_11634"/>
</filter>
<linearGradient id="paint0_linear_76_11634" x1="33.0918" y1="6.43282e-06" x2="46.5546" y2="29.9304" gradientUnits="userSpaceOnUse">
<stop stop-color="#FE623C"/>
<stop offset="1" stop-color="#BE320C"/>
</linearGradient>
<radialGradient id="paint1_radial_76_11634" cx="0" cy="0" r="1" gradientUnits="userSpaceOnUse" gradientTransform="translate(8.38873 40.0026) rotate(90) scale(9.8468 6.38873)">
<stop stop-color="#FFBC00"/>
<stop offset="0.57" stop-color="#FD9E00"/>
<stop offset="1" stop-color="#F79500"/>
</radialGradient>
<radialGradient id="paint2_radial_76_11634" cx="0" cy="0" r="1" gradientUnits="userSpaceOnUse" gradientTransform="translate(62.4801 28.3624) rotate(90) scale(9.89464 7.09859)">
<stop stop-color="#FFBC00"/>
<stop offset="0.57" stop-color="#FD9E00"/>
<stop offset="1" stop-color="#F79500"/>
</radialGradient>
<radialGradient id="paint3_radial_76_11634" cx="0" cy="0" r="1" gradientUnits="userSpaceOnUse" gradientTransform="translate(35.2211 29.7678) rotate(90) scale(14.6701 28.3943)">
<stop stop-color="#FFBC00"/>
<stop offset="0.57" stop-color="#FD9E00"/>
<stop offset="1" stop-color="#F79500"/>
</radialGradient>
<linearGradient id="paint4_linear_76_11634" x1="49.2823" y1="44.2347" x2="49.2823" y2="51.5516" gradientUnits="userSpaceOnUse">
<stop stop-color="#404040"/>
<stop offset="1" stop-color="#828282"/>
</linearGradient>
<linearGradient id="paint5_linear_76_11634" x1="49.2823" y1="44.2347" x2="49.2823" y2="51.5516" gradientUnits="userSpaceOnUse">
<stop stop-color="#404040"/>
<stop offset="1" stop-color="#828282"/>
</linearGradient>
<linearGradient id="paint6_linear_76_11634" x1="49.2823" y1="44.2347" x2="49.2823" y2="51.5516" gradientUnits="userSpaceOnUse">
<stop stop-color="#404040"/>
<stop offset="1" stop-color="#828282"/>
</linearGradient>
<linearGradient id="paint7_linear_76_11634" x1="49.2823" y1="44.2347" x2="49.2823" y2="51.5516" gradientUnits="userSpaceOnUse">
<stop stop-color="#404040"/>
<stop offset="1" stop-color="#828282"/>
</linearGradient>
<linearGradient id="paint8_linear_76_11634" x1="49.2823" y1="44.2347" x2="49.2823" y2="51.5516" gradientUnits="userSpaceOnUse">
<stop stop-color="#404040"/>
<stop offset="1" stop-color="#828282"/>
</linearGradient>
<linearGradient id="paint9_linear_76_11634" x1="49.2823" y1="44.2347" x2="49.2823" y2="51.5516" gradientUnits="userSpaceOnUse">
<stop stop-color="#404040"/>
<stop offset="1" stop-color="#828282"/>
</linearGradient>
<linearGradient id="paint10_linear_76_11634" x1="49.2823" y1="44.2347" x2="49.2823" y2="51.5516" gradientUnits="userSpaceOnUse">
<stop stop-color="#404040"/>
<stop offset="1" stop-color="#828282"/>
</linearGradient>
<linearGradient id="paint11_linear_76_11634" x1="33.1867" y1="25.7339" x2="35.0976" y2="35.4792" gradientUnits="userSpaceOnUse">
<stop stop-color="#753000"/>
<stop offset="1" stop-color="#99480D"/>
</linearGradient>
<linearGradient id="paint12_linear_76_11634" x1="33.1867" y1="25.7339" x2="35.0976" y2="35.4792" gradientUnits="userSpaceOnUse">
<stop stop-color="#753000"/>
<stop offset="1" stop-color="#99480D"/>
</linearGradient>
<linearGradient id="paint13_linear_76_11634" x1="33.1867" y1="25.7339" x2="35.0976" y2="35.4792" gradientUnits="userSpaceOnUse">
<stop stop-color="#753000"/>
<stop offset="1" stop-color="#99480D"/>
</linearGradient>
<linearGradient id="paint14_linear_76_11634" x1="33.1867" y1="25.7339" x2="35.0976" y2="35.4792" gradientUnits="userSpaceOnUse">
<stop stop-color="#753000"/>
<stop offset="1" stop-color="#99480D"/>
</linearGradient>
<linearGradient id="paint15_linear_76_11634" x1="33.1867" y1="25.7339" x2="35.0976" y2="35.4792" gradientUnits="userSpaceOnUse">
<stop stop-color="#753000"/>
<stop offset="1" stop-color="#99480D"/>
</linearGradient>
<linearGradient id="paint16_linear_76_11634" x1="33.1867" y1="25.7339" x2="35.0976" y2="35.4792" gradientUnits="userSpaceOnUse">
<stop stop-color="#753000"/>
<stop offset="1" stop-color="#99480D"/>
</linearGradient>
</defs>
</svg>
