<svg width="71" height="52" viewBox="0 0 71 52" fill="none" xmlns="http://www.w3.org/2000/svg">
<path d="M45.3571 27.9148C45.3571 28.0719 45.4845 28.1994 45.6417 28.1994H59.3562C59.5134 28.1994 59.6408 28.0719 59.6408 27.9148V15.7535C59.6408 15.5963 59.5134 15.4689 59.3562 15.4689H51.7123C51.5551 15.4689 51.4277 15.3415 51.4277 15.1843V13.6611C51.4277 13.5039 51.5551 13.3765 51.7123 13.3765H59.3562C59.5134 13.3765 59.6408 13.2491 59.6408 13.0919V8.26957C59.6408 8.11238 59.5134 7.98496 59.3562 7.98496H51.7123C51.5551 7.98496 51.4277 7.85754 51.4277 7.70035V5.89232C51.4277 5.73514 51.5551 5.60771 51.7123 5.60771H59.3562C59.5134 5.60771 59.6408 5.48029 59.6408 5.3231V0.852967C59.6408 0.695783 59.5134 0.568359 59.3562 0.568359H45.6417C45.4845 0.568359 45.3571 0.695782 45.3571 0.852967V27.9148ZM34.3863 7.02456C34.2793 7.22358 33.9942 7.2245 33.8859 7.02618L30.4401 0.716556C30.3902 0.625193 30.2944 0.568359 30.1903 0.568359H24.5732C24.4161 0.568359 24.2886 0.695782 24.2886 0.852967V5.24587C24.2886 5.47215 24.0322 5.61588 23.8316 5.51131C23.5879 5.38433 23.3057 5.25198 23.0587 5.1585C22.9419 5.11427 22.8603 5.00455 22.8603 4.87962V0.852967C22.8603 0.695782 22.7328 0.568359 22.5757 0.568359H17.5039C12.0507 0.568359 5.1237 6.69993 5.1237 14.3708C5.09742 24.599 13.0746 29.2571 22.6076 28.2279C22.751 28.2125 22.8603 28.0907 22.8603 27.9464V20.3313C22.8603 20.2266 22.918 20.1307 23.009 20.0789C23.4027 19.8545 23.7832 19.5871 24.1471 19.2791C24.2338 19.2057 24.289 19.2254 24.2891 19.339C24.2903 20.4719 24.289 26.5387 24.2887 27.9195C24.2887 28.0767 24.4161 28.1994 24.5733 28.1994H30.0746C30.2318 28.1994 30.3592 28.0719 30.3592 27.9148V12.7872C30.3592 12.4956 30.7456 12.3927 30.8907 12.6456L33.8888 17.8717C33.9986 18.0631 34.275 18.0622 34.3835 17.8701L37.3257 12.6616C37.4697 12.4069 37.8581 12.509 37.8581 12.8016V27.9148C37.8581 28.0719 37.9856 28.1994 38.1428 28.1994H43.6441C43.8013 28.1994 43.9287 28.0719 43.9287 27.9148V0.852966C43.9287 0.695782 43.8013 0.568359 43.6441 0.568359H38.0282C37.9235 0.568359 37.8272 0.625909 37.7776 0.718173L34.3863 7.02456ZM26.7229 18.8963C25.8413 18.624 24.9821 18.2065 24.1879 17.5971C24.1733 17.586 24.0059 17.7731 23.9387 17.8459C23.9225 17.8635 23.9026 17.8784 23.8817 17.89C15.8986 22.3334 10.3875 12.5266 18.469 8.25948C25.0975 5.78897 28.9241 11.4595 25.802 15.1263C25.762 15.1733 25.7355 15.2325 25.7334 15.2942C25.6937 16.4278 26.53 17.5028 26.8486 18.5556C26.8561 18.5808 26.9408 18.9606 26.9372 18.9596C26.8654 18.9395 26.7944 18.9179 26.7229 18.8963Z" fill="#241815"/>
<path d="M44.7889 27.3464C44.7889 27.5036 44.9164 27.631 45.0736 27.631H58.788C58.9452 27.631 59.0726 27.5036 59.0726 27.3464V15.1851C59.0726 15.028 58.9452 14.9005 58.788 14.9005H51.1441C50.9869 14.9005 50.8595 14.7731 50.8595 14.6159V13.0928C50.8595 12.9356 50.9869 12.8081 51.1441 12.8081H58.788C58.9452 12.8081 59.0726 12.6807 59.0726 12.5235V7.70121C59.0726 7.54402 58.9452 7.4166 58.788 7.4166H51.1441C50.9869 7.4166 50.8595 7.28918 50.8595 7.13199V5.32396C50.8595 5.16678 50.9869 5.03935 51.1441 5.03935H58.788C58.9452 5.03935 59.0726 4.91193 59.0726 4.75475V0.284608C59.0726 0.127423 58.9452 0 58.788 0H45.0736C44.9164 0 44.7889 0.127423 44.7889 0.284607V27.3464ZM33.8182 6.4562C33.7112 6.65522 33.4261 6.65614 33.3177 6.45782L29.872 0.148197C29.8221 0.0568339 29.7263 0 29.6222 0H24.0051C23.8479 0 23.7205 0.127423 23.7205 0.284607V4.67752C23.7205 4.90379 23.4641 5.04752 23.2634 4.94296C23.0198 4.81597 22.7376 4.68362 22.4906 4.59014C22.3737 4.54591 22.2921 4.43619 22.2921 4.31126V0.284607C22.2921 0.127423 22.1647 0 22.0075 0H16.9357C11.4826 0 4.55556 6.13157 4.55556 13.8024C4.52928 24.0307 12.5065 28.6887 22.0395 27.6596C22.1829 27.6441 22.2921 27.5223 22.2921 27.378V19.763C22.2921 19.6582 22.3499 19.5624 22.4409 19.5105C22.8345 19.2862 23.2151 19.0188 23.579 18.7107C23.6657 18.6373 23.7208 18.6571 23.7209 18.7707C23.7221 19.9035 23.7209 25.9703 23.7206 27.3512C23.7205 27.5084 23.848 27.631 24.0052 27.631H29.5065C29.6636 27.631 29.7911 27.5036 29.7911 27.3464V12.2189C29.7911 11.9273 30.1774 11.8243 30.3225 12.0772L33.3207 17.3033C33.4305 17.4947 33.7068 17.4938 33.8154 17.3017L36.7576 12.0933C36.9015 11.8385 37.29 11.9407 37.29 12.2333V27.3464C37.29 27.5036 37.4174 27.631 37.5746 27.631H43.076C43.2332 27.631 43.3606 27.5036 43.3606 27.3464V0.284607C43.3606 0.127423 43.2332 0 43.076 0H37.4601C37.3554 0 37.2591 0.0575493 37.2094 0.149814L33.8182 6.4562ZM26.1548 18.3279C25.2731 18.0556 24.414 17.6381 23.6198 17.0287C23.6052 17.0176 23.4378 17.2047 23.3706 17.2775C23.3544 17.2951 23.3344 17.31 23.3136 17.3216C15.3304 21.765 9.81933 11.9582 17.9008 7.69112C24.5294 5.22061 28.3559 10.8911 25.2339 14.5579C25.1939 14.6049 25.1674 14.6642 25.1653 14.7258C25.1255 15.8594 25.9619 16.9344 26.2805 17.9873C26.288 18.0124 26.3726 18.3922 26.369 18.3912C26.2973 18.3711 26.2262 18.3495 26.1548 18.3279Z" fill="url(#paint0_linear_361_598)"/>
<g filter="url(#filter0_d_361_598)">
<g filter="url(#filter1_i_361_598)">
<path d="M1.9999 33.4149C1.9999 33.1475 2.18604 32.9162 2.44724 32.8589L14.0863 30.3077C14.4413 30.2299 14.7774 30.5003 14.7774 30.8638V46.5912C14.7774 46.8586 14.5912 47.0899 14.33 47.1472L2.69099 49.6984C2.33594 49.7762 1.9999 49.5058 1.9999 49.1424V33.4149Z" fill="url(#paint1_radial_361_598)"/>
</g>
<path d="M2.1422 33.4149C2.1422 33.2144 2.28181 33.0409 2.47771 32.9979L14.1167 30.4467C14.383 30.3884 14.6351 30.5911 14.6351 30.8638V46.5912C14.6351 46.7917 14.4955 46.9652 14.2995 47.0082L2.66052 49.5594C2.39423 49.6177 2.1422 49.415 2.1422 49.1424V33.4149Z" stroke="#FBBF28" stroke-width="0.284607"/>
<g filter="url(#filter2_i_361_598)">
<path d="M69.5786 19.1639C69.5786 18.8038 69.2484 18.5342 68.8956 18.6061L55.8368 21.2703C55.5718 21.3244 55.3814 21.5575 55.3814 21.828V37.559C55.3814 37.9191 55.7115 38.1887 56.0644 38.1167L69.1231 35.4526C69.3882 35.3985 69.5786 35.1654 69.5786 34.8949V19.1639Z" fill="url(#paint2_radial_361_598)"/>
</g>
<path d="M69.4362 19.1639C69.4362 18.8938 69.1886 18.6916 68.924 18.7456L55.8653 21.4097C55.6665 21.4503 55.5237 21.6252 55.5237 21.828V37.559C55.5237 37.8291 55.7713 38.0313 56.0359 37.9773L69.0947 35.3132C69.2935 35.2726 69.4362 35.0978 69.4362 34.8949V19.1639Z" stroke="#FBBF28" stroke-width="0.284607"/>
<path d="M55.5862 38.1578L63.1679 32.3877C63.276 32.3054 63.1977 32.1336 63.0647 32.1612L55.483 33.7349C55.4238 33.7472 55.3813 33.7994 55.3813 33.8598V38.0563C55.3813 38.1618 55.5022 38.2217 55.5862 38.1578Z" fill="#886900"/>
<path d="M14.4733 46.9481L7.25956 44.5796C7.13698 44.5394 7.14477 44.3634 7.27043 44.3342L14.6153 42.6236C14.697 42.6046 14.7744 42.6682 14.7718 42.752L14.6406 46.831C14.6379 46.916 14.5542 46.9746 14.4733 46.9481Z" fill="#886900"/>
<g filter="url(#filter3_i_361_598)">
<path d="M6.82668 28.003C6.82668 27.7356 7.01281 27.5042 7.27402 27.447L62.9243 15.2491C63.2793 15.1713 63.6154 15.4417 63.6154 15.8051V31.5325C63.6154 31.8 63.4292 32.0313 63.168 32.0886L7.51776 44.2864C7.16271 44.3642 6.82668 44.0939 6.82668 43.7304V28.003Z" fill="url(#paint3_radial_361_598)"/>
</g>
<path d="M6.96898 28.003C6.96898 27.8024 7.10858 27.6289 7.30449 27.586L62.9548 15.3881C63.221 15.3298 63.4731 15.5325 63.4731 15.8051V31.5325C63.4731 31.7331 63.3335 31.9066 63.1376 31.9496L7.48729 44.1474C7.22101 44.2058 6.96898 44.003 6.96898 43.7304V28.003Z" stroke="#FBBF28" stroke-width="0.284607"/>
</g>
<path d="M35.639 48.4437H32.5304V43.5318H33.4918V47.5877H35.639V48.4437Z" fill="url(#paint4_linear_361_598)"/>
<path d="M38.638 47.3561H37.1293L36.7574 48.4437H35.7961L37.5644 43.4967H38.2731L40.0414 48.4437H39.0309L38.638 47.3561ZM37.3749 46.5842H38.4275L38.0626 45.4896L37.9152 44.7177H37.8801L37.7328 45.4966L37.3749 46.5842Z" fill="url(#paint5_linear_361_598)"/>
<path d="M41.6867 45.8825L41.3007 45.1107H41.2656L41.3779 45.8825V48.4437H40.4657V43.4967H41.1674L43.0269 46.1141L43.3988 46.8649H43.4339L43.3216 46.1141V43.5318H44.2338V48.4788H43.5321L41.6867 45.8825Z" fill="url(#paint6_linear_361_598)"/>
<path d="M46.8107 45.8825H48.6421V48.0718C48.4456 48.2356 48.2094 48.3549 47.9334 48.4297C47.6621 48.5046 47.3931 48.542 47.1264 48.542C46.813 48.542 46.5206 48.4929 46.2493 48.3946C45.9827 48.2964 45.7511 48.1444 45.5546 47.9385C45.3582 47.728 45.2038 47.4614 45.0915 47.1386C44.9792 46.8158 44.9231 46.4322 44.9231 45.9878C44.9231 45.5247 44.9886 45.1317 45.1196 44.8089C45.2552 44.4815 45.4307 44.2172 45.6458 44.016C45.8657 43.8102 46.1113 43.6628 46.3826 43.5739C46.654 43.4804 46.93 43.4336 47.2106 43.4336C47.4913 43.4336 47.7369 43.4546 47.9474 43.4967C48.1626 43.5388 48.3334 43.5833 48.4597 43.6301L48.2632 44.437C48.1462 44.3902 48.0153 44.3552 47.8702 44.3318C47.7252 44.3037 47.5404 44.2897 47.3159 44.2897C47.1147 44.2897 46.93 44.3201 46.7616 44.3809C46.5931 44.4417 46.4458 44.5423 46.3195 44.6826C46.1979 44.8183 46.102 44.9937 46.0318 45.2089C45.9663 45.4241 45.9335 45.6861 45.9335 45.9948C45.9335 46.2895 45.9663 46.5445 46.0318 46.7597C46.0973 46.9702 46.1885 47.1456 46.3054 47.2859C46.4224 47.4216 46.5581 47.5222 46.7124 47.5877C46.8715 47.6532 47.0399 47.6859 47.2177 47.6859C47.3393 47.6859 47.4586 47.6719 47.5755 47.6438C47.6925 47.6111 47.7907 47.5643 47.8702 47.5035V46.5772L46.8107 46.4649V45.8825Z" fill="url(#paint7_linear_361_598)"/>
<path d="M52.0199 43.5318H52.9321V46.7035C52.9321 47.0216 52.89 47.2953 52.8058 47.5245C52.7216 47.7537 52.6047 47.9432 52.455 48.0929C52.3053 48.2426 52.1229 48.3525 51.9077 48.4227C51.6925 48.4929 51.4562 48.528 51.1989 48.528C49.9546 48.528 49.3324 47.9596 49.3324 46.8228V43.5318H50.2937V46.6334C50.2937 46.8252 50.3101 46.9889 50.3429 47.1245C50.3803 47.2555 50.4364 47.3631 50.5113 47.4473C50.5861 47.5269 50.6797 47.5853 50.792 47.6228C50.9042 47.6555 51.0352 47.6719 51.1849 47.6719C51.4796 47.6719 51.6925 47.59 51.8235 47.4263C51.9544 47.2625 52.0199 46.9982 52.0199 46.6334V43.5318Z" fill="url(#paint8_linear_361_598)"/>
<path d="M56.1737 47.3561H54.665L54.2931 48.4437H53.3318L55.1001 43.4967H55.8088L57.5771 48.4437H56.5666L56.1737 47.3561ZM54.9106 46.5842H55.9632L55.5983 45.4896L55.4509 44.7177H55.4158L55.2685 45.4966L54.9106 46.5842Z" fill="url(#paint9_linear_361_598)"/>
<path d="M59.5153 45.8825H61.3468V48.0718C61.1503 48.2356 60.914 48.3549 60.638 48.4297C60.3667 48.5046 60.0977 48.542 59.8311 48.542C59.5177 48.542 59.2253 48.4929 58.954 48.3946C58.6873 48.2964 58.4557 48.1444 58.2593 47.9385C58.0628 47.728 57.9084 47.4614 57.7962 47.1386C57.6839 46.8158 57.6277 46.4322 57.6277 45.9878C57.6277 45.5247 57.6932 45.1317 57.8242 44.8089C57.9599 44.4815 58.1353 44.2172 58.3505 44.016C58.5704 43.8102 58.816 43.6628 59.0873 43.5739C59.3586 43.4804 59.6346 43.4336 59.9153 43.4336C60.196 43.4336 60.4416 43.4546 60.6521 43.4967C60.8673 43.5388 61.038 43.5833 61.1643 43.6301L60.9678 44.437C60.8509 44.3902 60.7199 44.3552 60.5749 44.3318C60.4299 44.3037 60.2451 44.2897 60.0205 44.2897C59.8194 44.2897 59.6346 44.3201 59.4662 44.3809C59.2978 44.4417 59.1504 44.5423 59.0241 44.6826C58.9025 44.8183 58.8066 44.9937 58.7364 45.2089C58.6709 45.4241 58.6382 45.6861 58.6382 45.9948C58.6382 46.2895 58.6709 46.5445 58.7364 46.7597C58.8019 46.9702 58.8931 47.1456 59.0101 47.2859C59.127 47.4216 59.2627 47.5222 59.4171 47.5877C59.5761 47.6532 59.7445 47.6859 59.9223 47.6859C60.0439 47.6859 60.1632 47.6719 60.2802 47.6438C60.3971 47.6111 60.4954 47.5643 60.5749 47.5035V46.5772L59.5153 46.4649V45.8825Z" fill="url(#paint10_linear_361_598)"/>
<path d="M62.0581 43.5318H64.9702V44.3879H63.0194V45.5317H64.7948V46.3878H63.0194V47.5877H65.0053V48.4437H62.0581V43.5318Z" fill="url(#paint11_linear_361_598)"/>
<path d="M67.8434 47.1245C67.8434 46.9749 67.7872 46.8532 67.675 46.7597C67.5674 46.6661 67.4294 46.5819 67.261 46.507C67.0972 46.4275 66.9171 46.348 66.7206 46.2685C66.5289 46.1843 66.3487 46.0837 66.1803 45.9667C66.0166 45.8451 65.8786 45.6954 65.7663 45.5176C65.6587 45.3399 65.6049 45.113 65.6049 44.837C65.6049 44.5984 65.6447 44.3926 65.7242 44.2195C65.8038 44.0417 65.916 43.8944 66.0611 43.7774C66.2107 43.6605 66.3862 43.5739 66.5873 43.5178C66.7885 43.4617 67.013 43.4336 67.261 43.4336C67.5463 43.4336 67.8153 43.4593 68.0679 43.5108C68.3205 43.5576 68.5287 43.6277 68.6924 43.7213L68.3907 44.5282C68.2878 44.4628 68.1334 44.4043 67.9276 44.3528C67.7217 44.2967 67.4995 44.2686 67.261 44.2686C67.0364 44.2686 66.8633 44.3131 66.7417 44.4019C66.6247 44.4908 66.5663 44.6101 66.5663 44.7598C66.5663 44.9002 66.6201 45.0171 66.7277 45.1107C66.8399 45.2042 66.9779 45.2908 67.1417 45.3703C67.3101 45.4498 67.4902 45.5317 67.682 45.6159C67.8785 45.7001 68.0586 45.803 68.2223 45.9246C68.3907 46.0416 68.5287 46.1889 68.6363 46.3667C68.7486 46.5398 68.8047 46.7573 68.8047 47.0193C68.8047 47.2813 68.7603 47.5081 68.6714 47.6999C68.5872 47.8871 68.4655 48.0438 68.3065 48.1701C68.1521 48.2964 67.9627 48.3899 67.7381 48.4508C67.5182 48.5116 67.275 48.542 67.0083 48.542C66.6575 48.542 66.3487 48.5092 66.0821 48.4437C65.8155 48.3783 65.619 48.3128 65.4927 48.2473L65.8014 47.4263C65.8529 47.4543 65.9184 47.4848 65.9979 47.5175C66.0821 47.5502 66.1757 47.5807 66.2786 47.6087C66.3815 47.6368 66.4891 47.6602 66.6014 47.6789C66.7183 47.6976 66.8376 47.707 66.9592 47.707C67.2446 47.707 67.4621 47.6602 67.6118 47.5666C67.7662 47.4684 67.8434 47.321 67.8434 47.1245Z" fill="url(#paint12_linear_361_598)"/>
<mask id="path-12-outside-1_361_598" maskUnits="userSpaceOnUse" x="16.0901" y="20.8887" width="39" height="18" fill="black">
<rect fill="white" x="16.0901" y="20.8887" width="39" height="18"/>
<path d="M21.448 37.0869L21.5092 33.5636L20.6976 33.951L18.9334 37.58L17.0901 37.9414L18.7772 34.6318L19.4781 33.9366C19.319 33.9002 19.1469 33.8409 18.962 33.7589C18.7851 33.6753 18.615 33.5607 18.4515 33.4153C18.2879 33.2699 18.1425 33.0872 18.0151 32.8671C17.8878 32.647 17.7932 32.3782 17.7313 32.0608C17.6124 31.4503 17.632 30.9225 17.7903 30.4773C17.9486 30.0322 18.1919 29.6549 18.5203 29.3455C18.8552 29.0263 19.2532 28.7708 19.7143 28.5789C20.1836 28.3855 20.6664 28.2401 21.1628 28.1428C21.2849 28.1189 21.4077 28.099 21.5314 28.0832C21.5395 28.0816 21.5973 28.0745 21.7046 28.0619C21.8186 28.0396 21.9666 28.019 22.1488 28.0002C22.3392 27.9797 22.5222 27.965 22.6978 27.9559C22.8735 27.9468 23.0304 27.9498 23.1685 27.965L23.0226 36.7782L21.448 37.0869ZM21.5748 29.6719C21.4821 29.6732 21.3861 29.6793 21.2869 29.6903C21.186 29.6932 21.0665 29.7082 20.9281 29.7353C20.7084 29.7784 20.4934 29.8459 20.2832 29.9378C20.0714 30.0216 19.8871 30.138 19.7303 30.2871C19.5816 30.4346 19.4701 30.6212 19.3958 30.847C19.3281 31.0631 19.3236 31.3218 19.3822 31.6229C19.4584 32.0137 19.6342 32.2876 19.9099 32.4448C20.1921 32.5923 20.5285 32.6278 20.9191 32.5512L21.5172 32.4339L21.5748 29.6719Z"/>
<path d="M25.2372 32.427L25.2611 31.0533L25.5419 30.9982C25.6151 30.9839 25.7005 30.9671 25.7982 30.948C25.8943 30.9207 25.9903 30.8934 26.0864 30.8661C26.1906 30.8372 26.2907 30.8091 26.3868 30.7819C26.4829 30.7546 26.5627 30.7305 26.6262 30.7096C26.7842 30.6532 26.9398 30.5847 27.0931 30.5039C27.2447 30.415 27.3721 30.3098 27.4751 30.1882C27.5863 30.065 27.6691 29.9262 27.7235 29.7719C27.7779 29.6175 27.7861 29.4427 27.748 29.2473C27.6973 28.9869 27.5559 28.8033 27.3239 28.6967C27.0985 28.5803 26.7904 28.5604 26.3998 28.637C26.058 28.7041 25.738 28.8175 25.4396 28.9774C25.1494 29.1357 24.9113 29.2796 24.7253 29.409L24.3395 28.0143C24.4276 27.9463 24.5475 27.8678 24.6992 27.7789C24.859 27.6885 25.0358 27.5988 25.2298 27.5101C25.4318 27.4198 25.6518 27.3344 25.8896 27.254C26.1258 27.1654 26.366 27.0972 26.6101 27.0493C26.9519 26.9823 27.2731 26.9616 27.5738 26.9871C27.8729 27.0045 28.1433 27.0698 28.385 27.183C28.6267 27.2961 28.8276 27.4596 28.9875 27.6733C29.1539 27.8773 29.2665 28.1298 29.3252 28.431C29.4346 28.9927 29.376 29.5154 29.1492 29.9993C28.9305 30.4817 28.5336 30.851 27.9584 31.1075L27.9703 31.1686C28.1344 31.1871 28.2984 31.2267 28.4623 31.2876C28.6247 31.3402 28.7722 31.4254 28.905 31.543C29.0459 31.6591 29.1679 31.8084 29.2711 31.991C29.3824 32.1719 29.4642 32.3968 29.5165 32.6654C29.6133 33.1619 29.5997 33.6125 29.4757 34.017C29.3502 34.4135 29.1403 34.7673 28.8461 35.0785C28.5584 35.38 28.1986 35.6365 27.7667 35.8479C27.3332 36.0513 26.8601 36.2032 26.3474 36.3037C25.8347 36.4042 25.3662 36.4496 24.9419 36.4399C24.5257 36.4285 24.208 36.3809 23.9889 36.2971L24.4138 34.7054C24.594 34.763 24.8483 34.8103 25.1765 34.8474C25.5032 34.8763 25.8944 34.846 26.3501 34.7567C26.5455 34.7184 26.7441 34.6541 26.9462 34.5637C27.1483 34.4734 27.3245 34.3586 27.4747 34.2193C27.6234 34.0718 27.7332 33.8981 27.8041 33.6983C27.8832 33.4969 27.8973 33.266 27.8466 33.0055C27.7704 32.6148 27.5757 32.3741 27.2623 32.2834C26.9571 32.1912 26.5425 32.188 26.0185 32.2738L25.2372 32.427Z"/>
<path d="M37.0857 25.1473L38.6725 24.8362L38.5311 33.7372L36.9442 34.0484L37.0857 25.1473ZM30.8114 26.3776L32.3982 26.0665L32.3484 29.258C32.451 29.2209 32.5813 29.1743 32.7393 29.1179C32.8973 29.0616 33.0699 29.0151 33.2571 28.9784C33.6477 28.9018 34.0046 28.8909 34.3279 28.9458C34.6578 28.991 34.9443 29.0954 35.1874 29.259C35.437 29.4129 35.6417 29.6178 35.8014 29.8738C35.9595 30.1217 36.0703 30.4084 36.1337 30.734C36.2384 31.2712 36.2432 31.7731 36.1483 32.2396C36.0517 32.698 35.8619 33.1113 35.5787 33.4795C35.2956 33.8477 34.9217 34.1618 34.457 34.422C33.9908 34.674 33.4402 34.8622 32.8055 34.9867C32.6997 35.0074 32.5939 35.0282 32.4881 35.0489C32.3823 35.0696 32.3164 35.0783 32.2904 35.075C32.1439 35.1037 31.9837 35.1267 31.8096 35.1439C31.6355 35.1611 31.4444 35.1775 31.2362 35.193C31.0361 35.2069 30.8459 35.2061 30.6655 35.1908L30.8114 26.3776ZM32.2691 33.4693C32.4495 33.4846 32.674 33.466 32.9425 33.4133C33.2111 33.3607 33.4521 33.2754 33.6657 33.1574C33.8874 33.0379 34.0703 32.8922 34.2142 32.7203C34.3566 32.5403 34.4567 32.3389 34.5147 32.1163C34.5728 31.8936 34.5756 31.648 34.5233 31.3794C34.3853 30.6712 33.885 30.4017 33.0224 30.5709C32.9166 30.5916 32.7888 30.6294 32.6389 30.6841C32.4874 30.7307 32.3815 30.7726 32.3212 30.8098L32.2691 33.4693Z"/>
<path d="M42.2344 29.2209L41.6607 29.3334L41.6029 33.1349L40.016 33.446L40.1575 24.545L41.7444 24.2338L41.6761 28.1768L42.0284 27.9683L44.2101 23.7503L46.1144 23.3769L43.7448 27.6064L43.0956 28.1773L43.7255 28.5482L46.3636 32.2014L44.5936 32.5484L42.2344 29.2209Z"/>
<path d="M52.0462 26.2575L52.1884 25.1014L52.1152 25.1158L51.5623 26.4411L48.4726 31.7878L47.2519 32.0272L47.3934 23.1261L48.9802 22.815L48.9056 27.5705L48.7582 28.7656L48.8315 28.7512L49.4016 27.3845L52.4836 22.128L53.7043 21.8887L53.5628 30.7897L51.9759 31.1009L52.0462 26.2575Z"/>
</mask>
<path d="M21.448 37.0869L21.5092 33.5636L20.6976 33.951L18.9334 37.58L17.0901 37.9414L18.7772 34.6318L19.4781 33.9366C19.319 33.9002 19.1469 33.8409 18.962 33.7589C18.7851 33.6753 18.615 33.5607 18.4515 33.4153C18.2879 33.2699 18.1425 33.0872 18.0151 32.8671C17.8878 32.647 17.7932 32.3782 17.7313 32.0608C17.6124 31.4503 17.632 30.9225 17.7903 30.4773C17.9486 30.0322 18.1919 29.6549 18.5203 29.3455C18.8552 29.0263 19.2532 28.7708 19.7143 28.5789C20.1836 28.3855 20.6664 28.2401 21.1628 28.1428C21.2849 28.1189 21.4077 28.099 21.5314 28.0832C21.5395 28.0816 21.5973 28.0745 21.7046 28.0619C21.8186 28.0396 21.9666 28.019 22.1488 28.0002C22.3392 27.9797 22.5222 27.965 22.6978 27.9559C22.8735 27.9468 23.0304 27.9498 23.1685 27.965L23.0226 36.7782L21.448 37.0869ZM21.5748 29.6719C21.4821 29.6732 21.3861 29.6793 21.2869 29.6903C21.186 29.6932 21.0665 29.7082 20.9281 29.7353C20.7084 29.7784 20.4934 29.8459 20.2832 29.9378C20.0714 30.0216 19.8871 30.138 19.7303 30.2871C19.5816 30.4346 19.4701 30.6212 19.3958 30.847C19.3281 31.0631 19.3236 31.3218 19.3822 31.6229C19.4584 32.0137 19.6342 32.2876 19.9099 32.4448C20.1921 32.5923 20.5285 32.6278 20.9191 32.5512L21.5172 32.4339L21.5748 29.6719Z" fill="url(#paint13_linear_361_598)"/>
<path d="M25.2372 32.427L25.2611 31.0533L25.5419 30.9982C25.6151 30.9839 25.7005 30.9671 25.7982 30.948C25.8943 30.9207 25.9903 30.8934 26.0864 30.8661C26.1906 30.8372 26.2907 30.8091 26.3868 30.7819C26.4829 30.7546 26.5627 30.7305 26.6262 30.7096C26.7842 30.6532 26.9398 30.5847 27.0931 30.5039C27.2447 30.415 27.3721 30.3098 27.4751 30.1882C27.5863 30.065 27.6691 29.9262 27.7235 29.7719C27.7779 29.6175 27.7861 29.4427 27.748 29.2473C27.6973 28.9869 27.5559 28.8033 27.3239 28.6967C27.0985 28.5803 26.7904 28.5604 26.3998 28.637C26.058 28.7041 25.738 28.8175 25.4396 28.9774C25.1494 29.1357 24.9113 29.2796 24.7253 29.409L24.3395 28.0143C24.4276 27.9463 24.5475 27.8678 24.6992 27.7789C24.859 27.6885 25.0358 27.5988 25.2298 27.5101C25.4318 27.4198 25.6518 27.3344 25.8896 27.254C26.1258 27.1654 26.366 27.0972 26.6101 27.0493C26.9519 26.9823 27.2731 26.9616 27.5738 26.9871C27.8729 27.0045 28.1433 27.0698 28.385 27.183C28.6267 27.2961 28.8276 27.4596 28.9875 27.6733C29.1539 27.8773 29.2665 28.1298 29.3252 28.431C29.4346 28.9927 29.376 29.5154 29.1492 29.9993C28.9305 30.4817 28.5336 30.851 27.9584 31.1075L27.9703 31.1686C28.1344 31.1871 28.2984 31.2267 28.4623 31.2876C28.6247 31.3402 28.7722 31.4254 28.905 31.543C29.0459 31.6591 29.1679 31.8084 29.2711 31.991C29.3824 32.1719 29.4642 32.3968 29.5165 32.6654C29.6133 33.1619 29.5997 33.6125 29.4757 34.017C29.3502 34.4135 29.1403 34.7673 28.8461 35.0785C28.5584 35.38 28.1986 35.6365 27.7667 35.8479C27.3332 36.0513 26.8601 36.2032 26.3474 36.3037C25.8347 36.4042 25.3662 36.4496 24.9419 36.4399C24.5257 36.4285 24.208 36.3809 23.9889 36.2971L24.4138 34.7054C24.594 34.763 24.8483 34.8103 25.1765 34.8474C25.5032 34.8763 25.8944 34.846 26.3501 34.7567C26.5455 34.7184 26.7441 34.6541 26.9462 34.5637C27.1483 34.4734 27.3245 34.3586 27.4747 34.2193C27.6234 34.0718 27.7332 33.8981 27.8041 33.6983C27.8832 33.4969 27.8973 33.266 27.8466 33.0055C27.7704 32.6148 27.5757 32.3741 27.2623 32.2834C26.9571 32.1912 26.5425 32.188 26.0185 32.2738L25.2372 32.427Z" fill="url(#paint14_linear_361_598)"/>
<path d="M37.0857 25.1473L38.6725 24.8362L38.5311 33.7372L36.9442 34.0484L37.0857 25.1473ZM30.8114 26.3776L32.3982 26.0665L32.3484 29.258C32.451 29.2209 32.5813 29.1743 32.7393 29.1179C32.8973 29.0616 33.0699 29.0151 33.2571 28.9784C33.6477 28.9018 34.0046 28.8909 34.3279 28.9458C34.6578 28.991 34.9443 29.0954 35.1874 29.259C35.437 29.4129 35.6417 29.6178 35.8014 29.8738C35.9595 30.1217 36.0703 30.4084 36.1337 30.734C36.2384 31.2712 36.2432 31.7731 36.1483 32.2396C36.0517 32.698 35.8619 33.1113 35.5787 33.4795C35.2956 33.8477 34.9217 34.1618 34.457 34.422C33.9908 34.674 33.4402 34.8622 32.8055 34.9867C32.6997 35.0074 32.5939 35.0282 32.4881 35.0489C32.3823 35.0696 32.3164 35.0783 32.2904 35.075C32.1439 35.1037 31.9837 35.1267 31.8096 35.1439C31.6355 35.1611 31.4444 35.1775 31.2362 35.193C31.0361 35.2069 30.8459 35.2061 30.6655 35.1908L30.8114 26.3776ZM32.2691 33.4693C32.4495 33.4846 32.674 33.466 32.9425 33.4133C33.2111 33.3607 33.4521 33.2754 33.6657 33.1574C33.8874 33.0379 34.0703 32.8922 34.2142 32.7203C34.3566 32.5403 34.4567 32.3389 34.5147 32.1163C34.5728 31.8936 34.5756 31.648 34.5233 31.3794C34.3853 30.6712 33.885 30.4017 33.0224 30.5709C32.9166 30.5916 32.7888 30.6294 32.6389 30.6841C32.4874 30.7307 32.3815 30.7726 32.3212 30.8098L32.2691 33.4693Z" fill="url(#paint15_linear_361_598)"/>
<path d="M42.2344 29.2209L41.6607 29.3334L41.6029 33.1349L40.016 33.446L40.1575 24.545L41.7444 24.2338L41.6761 28.1768L42.0284 27.9683L44.2101 23.7503L46.1144 23.3769L43.7448 27.6064L43.0956 28.1773L43.7255 28.5482L46.3636 32.2014L44.5936 32.5484L42.2344 29.2209Z" fill="url(#paint16_linear_361_598)"/>
<path d="M52.0462 26.2575L52.1884 25.1014L52.1152 25.1158L51.5623 26.4411L48.4726 31.7878L47.2519 32.0272L47.3934 23.1261L48.9802 22.815L48.9056 27.5705L48.7582 28.7656L48.8315 28.7512L49.4016 27.3845L52.4836 22.128L53.7043 21.8887L53.5628 30.7897L51.9759 31.1009L52.0462 26.2575Z" fill="url(#paint17_linear_361_598)"/>
<path d="M21.448 37.0869L21.5092 33.5636L20.6976 33.951L18.9334 37.58L17.0901 37.9414L18.7772 34.6318L19.4781 33.9366C19.319 33.9002 19.1469 33.8409 18.962 33.7589C18.7851 33.6753 18.615 33.5607 18.4515 33.4153C18.2879 33.2699 18.1425 33.0872 18.0151 32.8671C17.8878 32.647 17.7932 32.3782 17.7313 32.0608C17.6124 31.4503 17.632 30.9225 17.7903 30.4773C17.9486 30.0322 18.1919 29.6549 18.5203 29.3455C18.8552 29.0263 19.2532 28.7708 19.7143 28.5789C20.1836 28.3855 20.6664 28.2401 21.1628 28.1428C21.2849 28.1189 21.4077 28.099 21.5314 28.0832C21.5395 28.0816 21.5973 28.0745 21.7046 28.0619C21.8186 28.0396 21.9666 28.019 22.1488 28.0002C22.3392 27.9797 22.5222 27.965 22.6978 27.9559C22.8735 27.9468 23.0304 27.9498 23.1685 27.965L23.0226 36.7782L21.448 37.0869ZM21.5748 29.6719C21.4821 29.6732 21.3861 29.6793 21.2869 29.6903C21.186 29.6932 21.0665 29.7082 20.9281 29.7353C20.7084 29.7784 20.4934 29.8459 20.2832 29.9378C20.0714 30.0216 19.8871 30.138 19.7303 30.2871C19.5816 30.4346 19.4701 30.6212 19.3958 30.847C19.3281 31.0631 19.3236 31.3218 19.3822 31.6229C19.4584 32.0137 19.6342 32.2876 19.9099 32.4448C20.1921 32.5923 20.5285 32.6278 20.9191 32.5512L21.5172 32.4339L21.5748 29.6719Z" stroke="#FAD07D" stroke-width="0.796324" mask="url(#path-12-outside-1_361_598)"/>
<path d="M25.2372 32.427L25.2611 31.0533L25.5419 30.9982C25.6151 30.9839 25.7005 30.9671 25.7982 30.948C25.8943 30.9207 25.9903 30.8934 26.0864 30.8661C26.1906 30.8372 26.2907 30.8091 26.3868 30.7819C26.4829 30.7546 26.5627 30.7305 26.6262 30.7096C26.7842 30.6532 26.9398 30.5847 27.0931 30.5039C27.2447 30.415 27.3721 30.3098 27.4751 30.1882C27.5863 30.065 27.6691 29.9262 27.7235 29.7719C27.7779 29.6175 27.7861 29.4427 27.748 29.2473C27.6973 28.9869 27.5559 28.8033 27.3239 28.6967C27.0985 28.5803 26.7904 28.5604 26.3998 28.637C26.058 28.7041 25.738 28.8175 25.4396 28.9774C25.1494 29.1357 24.9113 29.2796 24.7253 29.409L24.3395 28.0143C24.4276 27.9463 24.5475 27.8678 24.6992 27.7789C24.859 27.6885 25.0358 27.5988 25.2298 27.5101C25.4318 27.4198 25.6518 27.3344 25.8896 27.254C26.1258 27.1654 26.366 27.0972 26.6101 27.0493C26.9519 26.9823 27.2731 26.9616 27.5738 26.9871C27.8729 27.0045 28.1433 27.0698 28.385 27.183C28.6267 27.2961 28.8276 27.4596 28.9875 27.6733C29.1539 27.8773 29.2665 28.1298 29.3252 28.431C29.4346 28.9927 29.376 29.5154 29.1492 29.9993C28.9305 30.4817 28.5336 30.851 27.9584 31.1075L27.9703 31.1686C28.1344 31.1871 28.2984 31.2267 28.4623 31.2876C28.6247 31.3402 28.7722 31.4254 28.905 31.543C29.0459 31.6591 29.1679 31.8084 29.2711 31.991C29.3824 32.1719 29.4642 32.3968 29.5165 32.6654C29.6133 33.1619 29.5997 33.6125 29.4757 34.017C29.3502 34.4135 29.1403 34.7673 28.8461 35.0785C28.5584 35.38 28.1986 35.6365 27.7667 35.8479C27.3332 36.0513 26.8601 36.2032 26.3474 36.3037C25.8347 36.4042 25.3662 36.4496 24.9419 36.4399C24.5257 36.4285 24.208 36.3809 23.9889 36.2971L24.4138 34.7054C24.594 34.763 24.8483 34.8103 25.1765 34.8474C25.5032 34.8763 25.8944 34.846 26.3501 34.7567C26.5455 34.7184 26.7441 34.6541 26.9462 34.5637C27.1483 34.4734 27.3245 34.3586 27.4747 34.2193C27.6234 34.0718 27.7332 33.8981 27.8041 33.6983C27.8832 33.4969 27.8973 33.266 27.8466 33.0055C27.7704 32.6148 27.5757 32.3741 27.2623 32.2834C26.9571 32.1912 26.5425 32.188 26.0185 32.2738L25.2372 32.427Z" stroke="#FAD07D" stroke-width="0.796324" mask="url(#path-12-outside-1_361_598)"/>
<path d="M37.0857 25.1473L38.6725 24.8362L38.5311 33.7372L36.9442 34.0484L37.0857 25.1473ZM30.8114 26.3776L32.3982 26.0665L32.3484 29.258C32.451 29.2209 32.5813 29.1743 32.7393 29.1179C32.8973 29.0616 33.0699 29.0151 33.2571 28.9784C33.6477 28.9018 34.0046 28.8909 34.3279 28.9458C34.6578 28.991 34.9443 29.0954 35.1874 29.259C35.437 29.4129 35.6417 29.6178 35.8014 29.8738C35.9595 30.1217 36.0703 30.4084 36.1337 30.734C36.2384 31.2712 36.2432 31.7731 36.1483 32.2396C36.0517 32.698 35.8619 33.1113 35.5787 33.4795C35.2956 33.8477 34.9217 34.1618 34.457 34.422C33.9908 34.674 33.4402 34.8622 32.8055 34.9867C32.6997 35.0074 32.5939 35.0282 32.4881 35.0489C32.3823 35.0696 32.3164 35.0783 32.2904 35.075C32.1439 35.1037 31.9837 35.1267 31.8096 35.1439C31.6355 35.1611 31.4444 35.1775 31.2362 35.193C31.0361 35.2069 30.8459 35.2061 30.6655 35.1908L30.8114 26.3776ZM32.2691 33.4693C32.4495 33.4846 32.674 33.466 32.9425 33.4133C33.2111 33.3607 33.4521 33.2754 33.6657 33.1574C33.8874 33.0379 34.0703 32.8922 34.2142 32.7203C34.3566 32.5403 34.4567 32.3389 34.5147 32.1163C34.5728 31.8936 34.5756 31.648 34.5233 31.3794C34.3853 30.6712 33.885 30.4017 33.0224 30.5709C32.9166 30.5916 32.7888 30.6294 32.6389 30.6841C32.4874 30.7307 32.3815 30.7726 32.3212 30.8098L32.2691 33.4693Z" stroke="#FAD07D" stroke-width="0.796324" mask="url(#path-12-outside-1_361_598)"/>
<path d="M42.2344 29.2209L41.6607 29.3334L41.6029 33.1349L40.016 33.446L40.1575 24.545L41.7444 24.2338L41.6761 28.1768L42.0284 27.9683L44.2101 23.7503L46.1144 23.3769L43.7448 27.6064L43.0956 28.1773L43.7255 28.5482L46.3636 32.2014L44.5936 32.5484L42.2344 29.2209Z" stroke="#FAD07D" stroke-width="0.796324" mask="url(#path-12-outside-1_361_598)"/>
<path d="M52.0462 26.2575L52.1884 25.1014L52.1152 25.1158L51.5623 26.4411L48.4726 31.7878L47.2519 32.0272L47.3934 23.1261L48.9802 22.815L48.9056 27.5705L48.7582 28.7656L48.8315 28.7512L49.4016 27.3845L52.4836 22.128L53.7043 21.8887L53.5628 30.7897L51.9759 31.1009L52.0462 26.2575Z" stroke="#FAD07D" stroke-width="0.796324" mask="url(#path-12-outside-1_361_598)"/>
<defs>
<filter id="filter0_d_361_598" x="0.861472" y="15.2363" width="69.8555" height="36.7515" filterUnits="userSpaceOnUse" color-interpolation-filters="sRGB">
<feFlood flood-opacity="0" result="BackgroundImageFix"/>
<feColorMatrix in="SourceAlpha" type="matrix" values="0 0 0 0 0 0 0 0 0 0 0 0 0 0 0 0 0 0 127 0" result="hardAlpha"/>
<feOffset dy="1.13843"/>
<feGaussianBlur stdDeviation="0.569215"/>
<feComposite in2="hardAlpha" operator="out"/>
<feColorMatrix type="matrix" values="0 0 0 0 0 0 0 0 0 0 0 0 0 0 0 0 0 0 0.25 0"/>
<feBlend mode="normal" in2="BackgroundImageFix" result="effect1_dropShadow_361_598"/>
<feBlend mode="normal" in="SourceGraphic" in2="effect1_dropShadow_361_598" result="shape"/>
</filter>
<filter id="filter1_i_361_598" x="1.14608" y="30.2949" width="13.6313" height="20.5544" filterUnits="userSpaceOnUse" color-interpolation-filters="sRGB">
<feFlood flood-opacity="0" result="BackgroundImageFix"/>
<feBlend mode="normal" in="SourceGraphic" in2="BackgroundImageFix" result="shape"/>
<feColorMatrix in="SourceAlpha" type="matrix" values="0 0 0 0 0 0 0 0 0 0 0 0 0 0 0 0 0 0 127 0" result="hardAlpha"/>
<feOffset dx="-0.853822" dy="1.13843"/>
<feGaussianBlur stdDeviation="0.569215"/>
<feComposite in2="hardAlpha" operator="arithmetic" k2="-1" k3="1"/>
<feColorMatrix type="matrix" values="0 0 0 0 0.984314 0 0 0 0 0.74902 0 0 0 0 0.156863 0 0 0 0.85 0"/>
<feBlend mode="normal" in2="shape" result="effect1_innerShadow_361_598"/>
</filter>
<filter id="filter2_i_361_598" x="54.5276" y="18.5938" width="15.051" height="20.6736" filterUnits="userSpaceOnUse" color-interpolation-filters="sRGB">
<feFlood flood-opacity="0" result="BackgroundImageFix"/>
<feBlend mode="normal" in="SourceGraphic" in2="BackgroundImageFix" result="shape"/>
<feColorMatrix in="SourceAlpha" type="matrix" values="0 0 0 0 0 0 0 0 0 0 0 0 0 0 0 0 0 0 127 0" result="hardAlpha"/>
<feOffset dx="-0.853822" dy="1.13843"/>
<feGaussianBlur stdDeviation="0.569215"/>
<feComposite in2="hardAlpha" operator="arithmetic" k2="-1" k3="1"/>
<feColorMatrix type="matrix" values="0 0 0 0 0.984314 0 0 0 0 0.74902 0 0 0 0 0.156863 0 0 0 0.85 0"/>
<feBlend mode="normal" in2="shape" result="effect1_innerShadow_361_598"/>
</filter>
<filter id="filter3_i_361_598" x="5.97285" y="15.2363" width="57.6425" height="30.2029" filterUnits="userSpaceOnUse" color-interpolation-filters="sRGB">
<feFlood flood-opacity="0" result="BackgroundImageFix"/>
<feBlend mode="normal" in="SourceGraphic" in2="BackgroundImageFix" result="shape"/>
<feColorMatrix in="SourceAlpha" type="matrix" values="0 0 0 0 0 0 0 0 0 0 0 0 0 0 0 0 0 0 127 0" result="hardAlpha"/>
<feOffset dx="-0.853822" dy="1.13843"/>
<feGaussianBlur stdDeviation="0.569215"/>
<feComposite in2="hardAlpha" operator="arithmetic" k2="-1" k3="1"/>
<feColorMatrix type="matrix" values="0 0 0 0 0.984314 0 0 0 0 0.74902 0 0 0 0 0.156863 0 0 0 0.85 0"/>
<feBlend mode="normal" in2="shape" result="effect1_innerShadow_361_598"/>
</filter>
<linearGradient id="paint0_linear_361_598" x1="33.0918" y1="6.43282e-06" x2="46.5545" y2="29.9304" gradientUnits="userSpaceOnUse">
<stop stop-color="#FE623C"/>
<stop offset="1" stop-color="#BE320C"/>
</linearGradient>
<radialGradient id="paint1_radial_361_598" cx="0" cy="0" r="1" gradientUnits="userSpaceOnUse" gradientTransform="translate(8.38863 40.0031) rotate(90) scale(9.8468 6.38873)">
<stop stop-color="#FFBC00"/>
<stop offset="0.57" stop-color="#FD9E00"/>
<stop offset="1" stop-color="#F79500"/>
</radialGradient>
<radialGradient id="paint2_radial_361_598" cx="0" cy="0" r="1" gradientUnits="userSpaceOnUse" gradientTransform="translate(62.48 28.3614) rotate(90) scale(9.89464 7.09859)">
<stop stop-color="#FFBC00"/>
<stop offset="0.57" stop-color="#FD9E00"/>
<stop offset="1" stop-color="#F79500"/>
</radialGradient>
<radialGradient id="paint3_radial_361_598" cx="0" cy="0" r="1" gradientUnits="userSpaceOnUse" gradientTransform="translate(35.221 29.7678) rotate(90) scale(14.6701 28.3943)">
<stop stop-color="#FFBC00"/>
<stop offset="0.57" stop-color="#FD9E00"/>
<stop offset="1" stop-color="#F79500"/>
</radialGradient>
<linearGradient id="paint4_linear_361_598" x1="49.2823" y1="44.2333" x2="49.2823" y2="51.5501" gradientUnits="userSpaceOnUse">
<stop stop-color="#404040"/>
<stop offset="1" stop-color="#828282"/>
</linearGradient>
<linearGradient id="paint5_linear_361_598" x1="49.2823" y1="44.2333" x2="49.2823" y2="51.5501" gradientUnits="userSpaceOnUse">
<stop stop-color="#404040"/>
<stop offset="1" stop-color="#828282"/>
</linearGradient>
<linearGradient id="paint6_linear_361_598" x1="49.2823" y1="44.2333" x2="49.2823" y2="51.5501" gradientUnits="userSpaceOnUse">
<stop stop-color="#404040"/>
<stop offset="1" stop-color="#828282"/>
</linearGradient>
<linearGradient id="paint7_linear_361_598" x1="49.2823" y1="44.2333" x2="49.2823" y2="51.5501" gradientUnits="userSpaceOnUse">
<stop stop-color="#404040"/>
<stop offset="1" stop-color="#828282"/>
</linearGradient>
<linearGradient id="paint8_linear_361_598" x1="49.2823" y1="44.2333" x2="49.2823" y2="51.5501" gradientUnits="userSpaceOnUse">
<stop stop-color="#404040"/>
<stop offset="1" stop-color="#828282"/>
</linearGradient>
<linearGradient id="paint9_linear_361_598" x1="49.2823" y1="44.2333" x2="49.2823" y2="51.5501" gradientUnits="userSpaceOnUse">
<stop stop-color="#404040"/>
<stop offset="1" stop-color="#828282"/>
</linearGradient>
<linearGradient id="paint10_linear_361_598" x1="49.2823" y1="44.2333" x2="49.2823" y2="51.5501" gradientUnits="userSpaceOnUse">
<stop stop-color="#404040"/>
<stop offset="1" stop-color="#828282"/>
</linearGradient>
<linearGradient id="paint11_linear_361_598" x1="49.2823" y1="44.2333" x2="49.2823" y2="51.5501" gradientUnits="userSpaceOnUse">
<stop stop-color="#404040"/>
<stop offset="1" stop-color="#828282"/>
</linearGradient>
<linearGradient id="paint12_linear_361_598" x1="49.2823" y1="44.2333" x2="49.2823" y2="51.5501" gradientUnits="userSpaceOnUse">
<stop stop-color="#404040"/>
<stop offset="1" stop-color="#828282"/>
</linearGradient>
<linearGradient id="paint13_linear_361_598" x1="33.6108" y1="25.787" x2="35.3786" y2="34.8028" gradientUnits="userSpaceOnUse">
<stop stop-color="#753000"/>
<stop offset="1" stop-color="#99480D"/>
</linearGradient>
<linearGradient id="paint14_linear_361_598" x1="33.6108" y1="25.787" x2="35.3786" y2="34.8028" gradientUnits="userSpaceOnUse">
<stop stop-color="#753000"/>
<stop offset="1" stop-color="#99480D"/>
</linearGradient>
<linearGradient id="paint15_linear_361_598" x1="33.6108" y1="25.787" x2="35.3786" y2="34.8028" gradientUnits="userSpaceOnUse">
<stop stop-color="#753000"/>
<stop offset="1" stop-color="#99480D"/>
</linearGradient>
<linearGradient id="paint16_linear_361_598" x1="33.6108" y1="25.787" x2="35.3786" y2="34.8028" gradientUnits="userSpaceOnUse">
<stop stop-color="#753000"/>
<stop offset="1" stop-color="#99480D"/>
</linearGradient>
<linearGradient id="paint17_linear_361_598" x1="33.6108" y1="25.787" x2="35.3786" y2="34.8028" gradientUnits="userSpaceOnUse">
<stop stop-color="#753000"/>
<stop offset="1" stop-color="#99480D"/>
</linearGradient>
</defs>
</svg>
