<svg width="64" height="64" viewBox="0 0 64 64" fill="none" xmlns="http://www.w3.org/2000/svg">
<g id="Frame">
<g id="Vector">
<path fill-rule="evenodd" clip-rule="evenodd" d="M24 47.1002C23.7 47.1002 23.4 46.8002 23.4 46.5002C22.7 37.0002 16 40.0002 16 28.8002C16 20.0002 23.0999 12.9002 31.7999 12.9002C40.5 12.9002 47.5999 20.0002 47.5999 28.7002C47.5999 39.9002 40.8999 36.9002 40.2999 46.4002C40.2 47.4002 39.1 46.8002 38.9 46.8002H24.7C24.3 46.9002 24.2999 47.1002 24 47.1002ZM31.7999 14.2002C23.7999 14.2002 17.3 20.7002 17.3 28.8002C17.3 39.1002 23.6 36.4002 24.6 45.7002H39C40 36.5002 46.2999 39.2002 46.2999 28.8002C46.2999 20.7002 39.7999 14.2002 31.7999 14.2002Z" fill="#393939"/>
<path fill-rule="evenodd" clip-rule="evenodd" d="M31.7999 46.9002C31.4 46.9002 31.2 46.6002 31.2 46.3002V13.6002C31.2 12.8002 32.5 12.8002 32.5 13.6002V46.3002C32.4 46.6002 32.0999 46.9002 31.7999 46.9002Z" fill="#393939"/>
<path fill-rule="evenodd" clip-rule="evenodd" d="M40.0999 43.8002H35.2999C34.9 43.8002 34.7 43.5002 34.7 43.2002V26.0002C34.7 25.2002 36 25.2002 36 26.0002V42.6002H40.2C41 42.6002 41 43.8002 40.0999 43.8002Z" fill="#393939"/>
<path fill-rule="evenodd" clip-rule="evenodd" d="M38.4 36.7002C38.1 36.7002 37.7999 36.4002 37.7999 36.1002V15.1002C37.7999 14.3002 39.0999 14.3002 39.0999 15.1002V36.0002C38.9999 36.4002 38.6999 36.7002 38.4 36.7002Z" fill="#393939"/>
<path fill-rule="evenodd" clip-rule="evenodd" d="M42.7999 32.3002C42.5 32.3002 42.2 32.0002 42.2 31.7002V27.0002H38.4C37.6 27.0002 37.6 25.7002 38.4 25.7002H42.7999C43.0999 25.7002 43.4 26.0002 43.4 26.3002V31.6002C43.4 32.0002 43.2 32.3002 42.7999 32.3002Z" fill="#393939"/>
<path fill-rule="evenodd" clip-rule="evenodd" d="M31.7999 38.2002H26C25.2 38.2002 25.2 36.9002 26 36.9002H31.7999C32.5999 36.9002 32.5999 38.2002 31.7999 38.2002Z" fill="#393939"/>
<path fill-rule="evenodd" clip-rule="evenodd" d="M28.4 19.8002H20C19.2 19.8002 19.2 18.5002 20 18.5002H28.2999C29.1999 18.6002 29.1999 19.8002 28.4 19.8002Z" fill="#393939"/>
<path fill-rule="evenodd" clip-rule="evenodd" d="M25.7999 27.4002C25.5 27.4002 25.2 27.1002 25.2 26.8002V24.0002H17.7C16.9 24.0002 16.9 22.7002 17.7 22.7002H25.9C26.1999 22.7002 26.5 23.0002 26.5 23.3002V26.7002C26.5 27.1002 26.1999 27.4002 25.7999 27.4002Z" fill="#393939"/>
<path fill-rule="evenodd" clip-rule="evenodd" d="M22.1 41.0002C21.8 41.0002 21.5 40.7002 21.5 40.4002V26.7002C21.5 25.9002 22.8 25.9002 22.8 26.7002V40.4002C22.8 40.7002 22.5 41.0002 22.1 41.0002Z" fill="#393939"/>
<path fill-rule="evenodd" clip-rule="evenodd" d="M28.4 33.7002H24.7C23.9 33.7002 23.9 32.4002 24.7 32.4002H27.7999V30.0002H22.1C21.3 30.0002 21.3 28.7002 22.1 28.7002H28.4C28.7999 28.7002 29 29.0002 29 29.3002V33.0002C29.1 33.4002 28.7999 33.7002 28.4 33.7002Z" fill="#393939"/>
<path fill-rule="evenodd" clip-rule="evenodd" d="M38.9 51.9002H24.7C23.5 51.9002 22.6 50.9002 22.6 49.8002V47.8002C22.6 46.6002 23.5 45.7002 24.7 45.7002H38.9C40.0999 45.7002 41 46.7002 41 47.8002V49.8002C41 50.9002 40 51.9002 38.9 51.9002ZM24.7 46.9002C23.6 46.9002 23.9 48.4002 23.9 49.7002C23.9 50.2002 24.3 50.5002 24.7 50.5002H38.9C40 50.5002 39.7 49.0002 39.7 47.7002C39.7 47.2002 39.2999 46.9002 38.9 46.9002H24.7Z" fill="#393939"/>
<path fill-rule="evenodd" clip-rule="evenodd" d="M37.6 55.8002H26C24.7 55.8002 23.6 54.7002 23.6 53.4002V51.1002C23.6 50.3002 24.9 50.3002 24.9 51.1002C24.9 52.6002 24.6 54.5002 26 54.5002H37.6C39.7999 54.5002 37.7999 50.5002 39.2999 50.5002C39.5999 50.5002 39.9 50.8002 39.9 51.1002V53.4002C40 54.7002 38.9 55.8002 37.6 55.8002Z" fill="#393939"/>
<path fill-rule="evenodd" clip-rule="evenodd" d="M33.2999 59.3002H30.2999C26.5 59.3002 25.1 54.5002 26.7 54.5002C27.1 54.5002 27.2999 54.8002 27.2999 55.1002C27.2999 56.7002 28.6 58.0002 30.2 58.0002H33.2C34.8 58.0002 36.1 56.7002 36.1 55.1002C36.1 54.3002 37.4 54.3002 37.4 55.1002C37.5 57.5002 35.5999 59.3002 33.2999 59.3002Z" fill="#393939"/>
<path fill-rule="evenodd" clip-rule="evenodd" d="M31.7999 11.0002C31.4 11.0002 31.2 10.7002 31.2 10.4002V5.8002C31.2 5.0002 32.5 5.0002 32.5 5.8002V10.3002C32.4 10.7002 32.0999 11.0002 31.7999 11.0002Z" fill="#393939"/>
<path fill-rule="evenodd" clip-rule="evenodd" d="M41.5 13.6002C41 13.6002 40.7 13.1002 41 12.7002L43.2999 8.8002C43.7 8.1002 44.8 8.7002 44.4 9.4002L42.0999 13.3002C42 13.5002 41.7 13.6002 41.5 13.6002Z" fill="#393939"/>
<path fill-rule="evenodd" clip-rule="evenodd" d="M48.5999 20.8002C48 20.8002 47.7 19.9002 48.2999 19.6002L52.2 17.3002C52.9 16.9002 53.5999 18.0002 52.7999 18.4002C52.2999 18.8002 49 20.8002 48.5999 20.8002Z" fill="#393939"/>
<path fill-rule="evenodd" clip-rule="evenodd" d="M55.8 30.6002H51.3C50.5 30.6002 50.5 29.3002 51.3 29.3002H55.8C56.6 29.3002 56.6 30.6002 55.8 30.6002Z" fill="#393939"/>
<path fill-rule="evenodd" clip-rule="evenodd" d="M31.7999 11.0002C31.4 11.0002 31.2 10.7002 31.2 10.4002V5.8002C31.2 5.0002 32.5 5.0002 32.5 5.8002V10.3002C32.4 10.7002 32.0999 11.0002 31.7999 11.0002Z" fill="#393939"/>
<path fill-rule="evenodd" clip-rule="evenodd" d="M22.1 13.6002C21.9 13.6002 21.7 13.5002 21.6 13.3002L19.3 9.4002C18.9 8.7002 20 8.0002 20.4 8.8002L22.7 12.7002C22.9 13.1002 22.5 13.6002 22.1 13.6002Z" fill="#393939"/>
<path fill-rule="evenodd" clip-rule="evenodd" d="M14.9 20.8002C14.5 20.8002 11.3 18.8002 10.7 18.5002C9.99995 18.0002 10.6 16.9002 11.4 17.3002L15.3 19.6002C15.8 19.9002 15.6 20.8002 14.9 20.8002Z" fill="#393939"/>
<path fill-rule="evenodd" clip-rule="evenodd" d="M12.3 30.6002H7.79995C6.99995 30.6002 6.99995 29.3002 7.79995 29.3002H12.3C13.2 29.3002 13.2 30.6002 12.3 30.6002Z" fill="#393939"/>
</g>
</g>
</svg>
