<svg width="86" height="64" viewBox="0 0 86 64" fill="none" xmlns="http://www.w3.org/2000/svg">
<path d="M76.6331 59C73.0431 56.4709 69.3995 54.0061 65.8738 51.3806C64.3842 50.2661 62.8946 49.7946 61.03 49.8375C56.5612 49.9553 52.0818 49.8803 47.6023 49.8803C46.7236 49.8803 46.3699 49.5267 46.3592 48.6479C46.3592 45.6902 46.3485 42.7325 46.3592 39.7748C46.3592 39.2818 46.2949 38.8424 45.7591 38.6495C45.234 38.4459 44.8911 38.7245 44.5481 39.0889C42.8764 40.8893 40.8188 41.5644 38.4398 40.9536C36.0393 40.332 34.5604 38.7245 33.9925 36.3134C33.3602 33.645 34.6783 30.8158 37.1109 29.5299C39.565 28.2439 42.5763 28.7583 44.4517 30.7944C44.5481 30.9016 44.6339 31.0194 44.741 31.1159C45.0411 31.3945 45.384 31.5017 45.7698 31.3517C46.1556 31.1909 46.3485 30.9016 46.3485 30.4836C46.3485 29.7549 46.3485 29.0262 46.3485 28.2868C46.3485 26.0042 46.3485 23.7216 46.3485 21.439C46.3485 20.4102 46.67 20.078 47.6773 20.078C57.8258 20.078 67.9742 20.078 78.1226 20.078C82.3878 20.078 85.592 23.2929 85.592 27.558C85.6027 32.4983 85.6027 37.4279 85.592 42.3681C85.592 46.6118 82.4306 49.8053 78.1869 49.8696C77.3939 49.8803 76.5902 49.8696 75.7436 49.8696C76.2794 51.8522 76.7938 53.749 77.2975 55.6565C77.4582 56.2352 77.619 56.8246 77.769 57.4033C78.0048 58.2713 77.8976 58.5178 77.1475 58.9893C76.9867 59 76.8152 59 76.6331 59ZM75.2828 55.6458C74.747 53.6525 74.2969 51.7771 73.7289 49.9446C73.2788 48.4765 73.536 47.8121 75.2935 47.8871C76.5366 47.9407 77.8012 47.9942 79.0335 47.8335C81.852 47.4584 83.6416 45.2294 83.6523 42.2502C83.663 37.4064 83.663 32.5519 83.6523 27.7081C83.6523 27.2687 83.6416 26.8079 83.5452 26.3792C82.9879 23.7216 80.8768 22.0605 78.0262 22.0605C68.3278 22.0498 58.6188 22.0605 48.9204 22.0605C48.749 22.0605 48.5775 22.082 48.3525 22.0927C48.3525 22.3284 48.3525 22.5213 48.3525 22.7142C48.3525 25.2433 48.3525 27.7724 48.3525 30.3122C48.3525 31.4695 47.9238 32.3911 46.9057 33.002C45.8019 33.6557 44.1409 33.4842 43.0693 32.1983C41.944 30.8587 40.1651 30.4729 38.5469 31.073C36.9931 31.6517 35.9107 33.1199 35.8571 34.7273C35.7928 36.6241 36.693 38.1459 38.3005 38.8746C40.0044 39.6354 41.8583 39.2068 43.1979 37.7386C44.098 36.7527 45.2876 36.4098 46.4342 36.817C47.6345 37.235 48.3525 38.3173 48.3632 39.7319C48.3739 42.2502 48.3632 44.7579 48.3632 47.2762C48.3632 47.4799 48.3632 47.6835 48.3632 47.9299C48.6525 47.9299 48.8668 47.9299 49.0812 47.9299C53.9143 47.9299 58.7474 47.9192 63.5805 47.9514C63.9984 47.9514 64.4699 48.1014 64.8129 48.3372C66.6025 49.5481 68.3493 50.8019 70.1175 52.0343C71.7892 53.1917 73.4717 54.3812 75.2828 55.6458Z" fill="#393939"/>
<path d="M0 11.4084C0.0857313 11.0441 0.171463 10.6797 0.26791 10.3261C1.15737 7.18615 4.01865 5.01072 7.28716 5C17.5321 5 27.7662 5 38.0111 5C38.9006 5 39.2435 5.34293 39.2435 6.23239C39.2435 9.2437 39.2542 12.255 39.2435 15.2663C39.2328 16.6059 38.5362 17.6239 37.3896 18.0633C36.2215 18.5134 35.0105 18.2026 34.0996 17.1953C32.9315 15.8986 31.5063 15.3735 29.8131 15.8236C28.2163 16.2522 27.209 17.3132 26.8339 18.9313C26.3838 20.8281 27.2733 22.7464 28.9665 23.6251C30.6704 24.5039 32.7065 24.1717 33.971 22.6714C35.182 21.2354 37.2181 21.1496 38.4076 22.3713C38.9113 22.8964 39.1792 23.518 39.2221 24.236C39.2649 24.8254 38.8899 25.2754 38.354 25.329C37.7968 25.3826 37.3467 25.0504 37.2824 24.461C37.2288 24.0109 37.0788 23.6573 36.6287 23.518C36.1465 23.3679 35.7928 23.6037 35.4606 23.968C33.6388 26.0256 30.7775 26.6364 28.3449 25.5112C25.8051 24.3431 24.4549 21.8033 24.8299 18.8778C25.1514 16.4023 27.2304 14.2375 29.8238 13.8196C31.9992 13.466 33.8746 14.1089 35.3963 15.7271C35.5785 15.92 35.7714 16.1236 36.0071 16.2308C36.5858 16.488 37.2395 16.1022 37.2502 15.4699C37.2717 12.6515 37.261 9.84382 37.261 6.93967C37.0466 6.93967 36.8537 6.93967 36.6716 6.93967C27.0054 6.93967 17.3392 6.93967 7.67295 6.93967C4.82239 6.93967 2.66839 8.57928 2.0897 11.2048C1.98254 11.6656 1.9611 12.1586 1.9611 12.6408C1.95039 17.4739 1.95039 22.2963 1.9611 27.1294C1.9611 30.5372 4.25442 32.8091 7.68367 32.8091C8.77674 32.8091 9.8591 32.8091 10.9522 32.8091C11.9059 32.8198 12.3132 33.3771 12.0131 34.288C11.3594 36.2491 10.7057 38.1994 10.0413 40.1605C9.9877 40.3213 9.94483 40.4928 9.8591 40.75C11.3915 39.689 12.849 38.6924 14.2957 37.6851C16.4818 36.174 18.6573 34.6523 20.8541 33.1734C21.1649 32.9591 21.6043 32.8305 21.9901 32.8198C24.2727 32.7877 26.5553 32.7984 28.8379 32.8091C29.513 32.8091 29.9524 33.1949 29.9631 33.7628C29.9738 34.3308 29.5451 34.7273 28.87 34.7595C28.7093 34.7702 28.5485 34.7595 28.3878 34.7595C26.4588 34.7595 24.5299 34.7702 22.6116 34.7488C22.1615 34.7488 21.7972 34.8666 21.4328 35.1238C17.3177 37.9744 13.1919 40.8142 9.0768 43.6648C8.9482 43.7613 8.80889 43.847 8.68029 43.9434C8.25164 44.2649 7.81226 44.3721 7.36217 44.0077C6.93352 43.6755 6.9228 43.2362 7.09426 42.7539C7.93014 40.2999 8.75531 37.8351 9.58047 35.3703C9.63406 35.1988 9.68764 35.0381 9.78408 34.7595C9.49474 34.7595 9.25898 34.7702 9.02322 34.7595C7.7694 34.663 6.45128 34.7702 5.26176 34.4165C2.41119 33.6021 0.707283 31.6196 0.107164 28.7047C0.0857313 28.6083 0.0321492 28.5118 0 28.4154C0 22.7464 0 17.0774 0 11.4084Z" fill="#393939"/>
<path d="M15.3995 21.9962C14.2957 21.9962 13.3848 21.0746 13.4062 19.9815C13.4277 18.8778 14.3386 18.0097 15.4531 18.0204C16.5354 18.0419 17.4249 18.9313 17.4249 20.003C17.4142 21.1068 16.5033 22.0069 15.3995 21.9962Z" fill="#393939"/>
<path d="M59.7118 37.0635C58.6188 37.0635 57.6972 36.1419 57.7079 35.0488C57.7186 33.9557 58.6509 33.0341 59.744 33.0556C60.8264 33.077 61.7158 33.9772 61.7265 35.0488C61.7373 36.1419 60.8156 37.0635 59.7118 37.0635Z" fill="#393939"/>
<path d="M72.8823 34.9631C72.8716 36.0669 71.95 36.9778 70.8569 36.9563C69.7746 36.9349 68.8958 36.0454 68.8958 34.9631C68.8958 33.8593 69.796 32.9484 70.8891 32.9484C71.9821 32.9377 72.8823 33.8593 72.8823 34.9631Z" fill="#393939"/>
</svg>
