<svg width="69" height="64" viewBox="0 0 69 64" fill="none" xmlns="http://www.w3.org/2000/svg">
<g clip-path="url(#clip0_673_297)">
<path d="M0.213137 20.3C0.513137 26.4 1.51314 32.5 2.81314 38.5C3.81314 43 6.31314 47.2 9.91314 50C13.1131 52.3 17.2131 52.3 20.9131 52.4C24.6131 52.7 28.3131 52.3 32.1131 52.3C33.0131 55.2 34.0131 58.6 37.0131 60C39.7131 58.2 40.3131 54.6 41.5131 51.8C46.8131 51.2 52.2131 53.6 57.3131 51.3C60.4131 50.3 62.6131 47.5 63.2131 44.4C65.3131 35 64.2131 25.2 62.8131 15.8C62.2131 12.7 61.9131 9.00003 59.2131 6.90003C56.6131 5.00003 53.3131 4.50003 50.2131 3.90003C43.9131 2.90003 37.5131 3.20003 31.2131 4.10003C26.3131 4.90003 21.3131 4.20003 16.5131 5.60003C13.3131 6.60003 10.1131 7.70003 6.81314 8.40003C4.21314 8.90003 2.31314 10.8 0.913137 12.9C-0.486863 15.1 0.113137 17.9 0.213137 20.3ZM2.81314 17.3C2.41314 14.6 4.91314 12.4 7.31314 11.6C13.2131 10 18.9131 7.40003 25.1131 7.20003C34.3131 5.40003 43.8131 4.80003 53.0131 6.90003C55.7131 7.60003 59.4131 8.60003 59.7131 12C61.6131 22.2 62.5131 32.8 60.3131 42.9C59.7131 46.8 55.7131 49.2 52.0131 49.1C48.0131 49 43.9131 48.1 40.0131 49.2C38.4131 51 37.8131 53.5 36.5131 55.5C35.7131 53.6 35.2131 51.5 33.9131 49.8C30.3131 49.3 26.6131 50.4 22.9131 50C18.7131 49.6 13.8131 50 10.4131 47.1C6.21314 43.4 5.01314 37.7 4.31314 32.4C3.31314 27.4 3.01314 22.4 2.81314 17.3Z" fill="#393939"/>
<path d="M38.5131 15C36.3131 17.4 35.4131 20.7 34.8131 23.9C33.0131 20.3 29.7131 17.2 25.7131 16.4C23.5131 15.9 20.9131 16.6 19.6131 18.6C17.6131 21.7 18.1131 25.7 19.6131 28.9C21.5131 33.2 25.5131 36 29.3131 38.5C30.2131 39.7 31.7131 40.3 32.8131 41.2C33.5131 41.8 34.4131 41.5 35.2131 41.5C38.5131 38.1 41.6131 34.4 43.9131 30.2C45.3131 27.6 45.7131 24.6 46.0131 21.7C46.1131 19.5 46.1131 17.1 44.7131 15.3C43.2131 13.2 40.0131 13.2 38.5131 15Z" fill="#393939"/>
</g>
<defs>
<clipPath id="clip0_673_297">
<rect width="69" height="64" fill="white"/>
</clipPath>
</defs>
</svg>
