<svg width="248" height="372" viewBox="0 0 248 372" fill="none" xmlns="http://www.w3.org/2000/svg">
<g clip-path="url(#clip0_987_172)">
<path fill-rule="evenodd" clip-rule="evenodd" d="M71.0334 293.024C71.0334 293.024 66.2238 267.437 60.4277 258.702C38.5998 226.595 1.35662 180.956 43.7793 122.401C76.5829 77.2541 164.388 92.139 194.602 140.73C214.21 172.222 211.127 211.218 183.996 238.651C170.184 252.675 137.38 277.77 134.914 300.651L71.0334 293.024Z" fill="#FFBC36"/>
<path fill-rule="evenodd" clip-rule="evenodd" d="M49.6987 288.964C48.8354 289.087 48.0955 289.456 47.4789 290.071C46.6157 290.933 45.9991 292.163 45.9991 293.393C46.1224 298.683 44.5192 301.266 44.0259 305.694C43.0393 314.306 46.4923 322.548 52.6584 328.329C52.4118 329.437 51.9185 330.544 51.7952 331.897C51.3019 335.956 52.7817 340.016 55.7415 343.46C56.4814 344.198 57.2213 345.06 58.0846 345.798C57.8379 346.659 57.7146 347.643 57.5913 348.627C56.6047 358.099 64.4973 367.079 75.8429 368.31C86.0786 369.417 99.3974 370.893 109.633 372C120.732 373.23 129.611 366.341 131.584 357.238C131.831 356.008 131.954 354.901 131.954 353.548C136.641 350.841 139.847 346.782 140.957 342.353C141.203 341.123 141.327 340.016 141.203 338.663C141.203 338.417 141.08 338.048 141.08 337.679C147.739 333.373 152.549 326.484 154.276 318.242C154.645 316.274 154.645 314.552 154.645 312.583C154.522 310.492 154.399 308.278 154.892 305.079C155.139 303.849 154.769 302.742 154.029 301.758C153.536 301.02 152.796 300.528 151.932 300.282C152.796 297.452 154.276 294.131 156.372 290.071C161.428 280.23 171.787 273.71 183.009 264.607C201.138 249.845 221.363 229.425 228.269 183.663C237.641 121.048 190.285 59.7857 127.515 52.8968C65.1139 45.8849 9.12585 95.7063 1.10994 158.444C-4.19289 200.147 11.2223 225.488 26.1443 245.171C35.3934 257.349 44.5192 267.19 47.3556 277.893C48.5888 282.567 49.3287 286.135 49.6987 288.964ZM73.2532 351.825C70.91 351.456 68.5669 350.964 66.4705 350.226C66.4705 354.901 71.1567 358.837 76.9528 359.452L110.743 363.143C116.416 363.758 121.225 360.806 122.828 356.377C121.595 356.5 120.239 356.623 119.006 356.623H118.389C118.266 356.623 118.142 356.623 118.019 356.623H115.552L73.8698 352.071H73.6231L73.2532 351.825ZM60.6743 333.496C60.7977 335.464 62.0309 337.31 63.8807 338.909C64.374 339.278 64.8673 339.77 65.4839 340.139C65.6072 340.139 65.6072 340.139 65.6072 340.262C68.0736 341.738 71.0334 342.845 74.4864 343.214H74.8563C87.4352 344.567 103.96 346.413 116.539 347.766H116.786C120.239 348.135 123.322 347.643 125.912 346.659C126.158 346.536 126.281 346.536 126.528 346.413C129.118 345.306 131.091 343.46 132.078 341.246C129.241 341.861 126.281 342.107 123.198 341.738H122.459C106.55 340.016 85.832 337.679 69.8001 335.956L69.4302 335.833H68.9369L68.5669 335.71H68.4436C65.8539 335.464 63.1408 334.603 60.6743 333.496ZM146.013 308.155L54.5083 298.19C54.015 301.143 53.275 303.48 52.9051 306.679C52.1651 313.075 55.1249 319.103 60.181 323.04L60.3044 323.163C61.0443 323.655 61.7842 324.147 62.5242 324.639L62.7708 324.885C64.8673 326.115 67.2104 326.853 69.6768 327.345L70.0468 327.468C70.1701 327.468 70.4168 327.468 70.5401 327.591H71.0334L123.692 333.373H123.938C135.037 334.48 143.793 326.853 146.013 316.643C146.383 315.044 146.136 313.567 146.136 311.968C146.013 310.615 145.89 309.385 146.013 308.155ZM58.2079 286.258L144.533 295.73C145.52 292.901 147 289.702 148.973 285.889C154.522 275.186 165.621 267.683 177.83 257.718C194.725 244.063 213.593 224.996 220.006 182.186C228.762 124.369 184.983 67.7817 127.021 61.3849C69.0602 54.9881 17.3884 101.365 9.98911 159.429C5.05624 198.056 19.4849 221.552 33.4202 239.881C43.4093 253.044 53.0284 263.992 56.1114 275.679C56.9747 279.861 57.7146 283.306 58.2079 286.258Z" fill="#8C52FF"/>
<path fill-rule="evenodd" clip-rule="evenodd" d="M116.292 222.536C112.469 223.889 108.277 224.135 104.33 221.921C106.057 219.829 107.537 217.246 108.646 214.294C109.88 210.849 109.88 206.052 108.277 202.361C106.427 197.81 102.604 194.611 96.4376 195.472C93.3546 195.964 90.5182 198.179 89.0383 202.115C87.1885 206.913 87.4351 214.663 91.5048 221.306C91.0115 221.552 90.3949 221.798 89.9016 222.167C89.5316 222.29 89.285 222.413 88.915 222.536C88.2984 220.813 87.5585 219.091 86.9419 217.738C84.8454 213.556 82.5023 208.881 79.4192 205.806C76.7062 203.099 73.3765 201.5 69.5535 201.623C66.2238 201.746 63.2641 203.837 61.4143 207.036C59.1945 210.849 58.8245 216.508 60.7977 220.813C62.6475 224.627 66.7171 229.302 71.1567 231.885C74.733 233.976 78.6793 234.591 82.1323 233.484C82.379 233.361 82.6256 233.361 83.1189 233.238C89.4083 256.242 93.4779 294.5 93.4779 294.5C93.7246 296.837 95.9443 298.683 98.2875 298.436C100.754 298.19 102.48 295.976 102.234 293.639C102.234 293.639 98.0408 255.012 91.5048 231.024C92.1214 230.778 92.8613 230.532 93.4779 230.163C94.8345 229.548 96.191 228.809 97.5475 228.071C105.193 233.976 114.073 233.361 121.349 230.163C122.212 231.024 123.075 231.762 124.062 232.377C125.172 233.238 126.281 233.853 127.515 234.468C115.922 258.333 105.933 294.746 105.933 294.746C105.317 297.083 106.673 299.421 109.016 300.036C111.36 300.651 113.703 299.298 114.319 296.96C114.319 296.96 124.062 260.425 135.284 237.667C138.984 238.774 141.943 239.266 142.683 239.389C151.069 240.742 160.688 237.298 163.401 229.548C166.361 220.69 164.018 212.694 157.235 210.234C148.603 207.036 141.697 213.186 137.01 218.476C135.161 220.567 133.188 223.397 131.338 226.718C130.474 226.226 129.734 225.734 128.995 225.242L128.871 225.119C132.941 221.675 135.901 217.369 137.38 213.433C138.86 209.496 138.737 205.929 137.38 203.222C136.271 201.131 134.421 199.409 131.461 198.548C125.912 197.071 121.965 199.409 119.252 203.345C117.279 206.298 116.046 210.357 115.552 213.802C115.059 217 115.306 219.952 116.292 222.536ZM80.2825 224.75C79.7892 223.52 79.2959 222.413 78.8026 221.429C77.4461 218.599 75.8429 215.278 73.9931 212.94C72.8832 211.464 71.5266 210.111 69.8001 210.234C69.5535 210.234 69.4302 210.48 69.3069 210.603C68.9369 210.972 68.8136 211.464 68.5669 211.956C68.0736 213.433 67.9503 215.278 68.6902 216.877C69.9235 219.46 72.5132 222.413 75.4729 224.012C76.8295 224.75 78.0627 225.365 79.2959 224.996C79.4192 224.873 79.7892 224.75 80.2825 224.75ZM139.6 229.671C141.82 230.286 143.547 230.532 144.04 230.655C146.383 231.024 149.096 230.901 151.316 230.04C152.919 229.425 154.522 228.44 155.015 226.718C155.755 224.381 156.125 222.167 155.632 220.444C155.385 219.46 155.015 218.722 154.029 218.353C152.056 217.615 150.453 218.107 148.973 219.091C146.753 220.444 145.026 222.413 143.423 224.135C142.313 225.611 140.957 227.579 139.6 229.671ZM98.1641 215.278C99.0274 214.171 99.644 212.817 100.261 211.341C100.754 209.742 100.754 207.405 100.014 205.56C99.644 204.575 98.9041 203.837 97.7942 203.96C97.6709 204.206 97.0542 205.067 96.9309 205.683C96.4376 207.774 96.4376 210.48 97.3009 213.186C97.5475 213.925 97.7942 214.663 98.1641 215.278ZM124.185 217.492C126.528 215.278 128.378 212.694 129.241 210.234C129.611 209.373 129.734 208.635 129.734 207.897C129.734 207.405 129.611 207.036 129.241 206.913C128.008 206.544 127.145 207.282 126.528 208.266C125.172 210.234 124.555 212.94 124.185 215.155C124.062 215.893 124.062 216.754 124.185 217.492Z" fill="#8C52FF"/>
<path fill-rule="evenodd" clip-rule="evenodd" d="M129.488 30.0158L132.201 4.79759C132.448 2.46029 130.721 0.246001 128.378 -3.05306e-05C126.035 -0.246062 123.815 1.47616 123.568 3.81346L120.855 29.1547C120.609 31.492 122.335 33.7063 124.678 33.9524C127.145 34.1984 129.241 32.4762 129.488 30.0158Z" fill="#8C52FF"/>
<path fill-rule="evenodd" clip-rule="evenodd" d="M190.779 53.7579L207.427 34.9365C209.03 33.0912 208.907 30.3849 207.057 28.7857C205.207 27.1865 202.494 27.3095 200.891 29.1547L184.243 47.9762C182.64 49.8214 182.763 52.5278 184.613 54.127C186.462 55.7262 189.176 55.6031 190.779 53.7579Z" fill="#8C52FF"/>
<path fill-rule="evenodd" clip-rule="evenodd" d="M222.719 93.9841L245.41 83.1587C247.63 82.0516 248.493 79.4682 247.507 77.377C246.52 75.1627 243.807 74.3016 241.711 75.2857L219.019 86.1111C216.8 87.0952 215.936 89.8016 216.923 91.8928C217.91 94.1071 220.623 94.9682 222.719 93.9841Z" fill="#8C52FF"/>
<path fill-rule="evenodd" clip-rule="evenodd" d="M73.7464 36.4127L63.8807 13.2857C63.0174 11.0714 60.4277 10.0873 58.2079 10.9484C55.9881 11.9325 55.0015 14.3928 55.8648 16.7301L65.6072 39.8571C66.5938 42.0714 69.1835 43.0555 71.4033 42.1944C73.6231 41.2103 74.733 38.627 73.7464 36.4127Z" fill="#8C52FF"/>
<path fill-rule="evenodd" clip-rule="evenodd" d="M29.2273 62.9841L9.49582 47.4841C7.52267 46.0079 4.80959 46.377 3.32973 48.2222C1.84987 50.1904 2.21984 52.8968 4.06966 54.373L23.8011 69.873C25.7743 71.3492 28.4874 70.9801 29.9672 69.1349C31.4471 67.2897 31.0771 64.4603 29.2273 62.9841Z" fill="#8C52FF"/>
</g>
<defs>
<clipPath id="clip0_987_172">
<rect width="248" height="372" fill="white"/>
</clipPath>
</defs>
</svg>
