<svg width="130" height="120" viewBox="0 0 130 120" fill="none" xmlns="http://www.w3.org/2000/svg">
<g id="Frame">
<g id="Vector">
<path d="M115.6 23.1002C115.6 23.1002 108 16.9002 107.8 16.8002C103.8 16.1002 74.5 13.7002 64.6 23.4002C55.1 13.8002 25.6 16.3002 22 16.7002C21.6 16.7002 21.3 16.9002 21 17.1002L13.7 23.1002C13.3 23.5002 13 24.0002 13 24.6002C13 24.6002 13 90.6002 13.1 90.8002C17.9 96.8002 56.9 95.1002 64.6 94.9002C65.4 94.9002 72.1 95.2002 80.2 95.3002C82.6 95.3002 82.6 91.7001 80.2 91.6002C75.6 91.6002 71.5 91.5002 68.7 91.4002C68.7 91.4002 73.9 87.3001 77 86.6002C78 86.4002 78.6 85.4002 78.4 84.4002C77.3 80.3002 68 86.5002 66.4 88.5002V80.2001C66.4 77.8001 62.7 77.8001 62.7 80.2001V88.5002C59.1 84.8002 54.2 82.7001 49.1 82.6002L24 82.0002V20.2002C34.5 19.4002 57.5 19.3002 62.7 27.0002V32.7002C62.7 33.7002 63.5 34.5002 64.5 34.5002C65.5 34.5002 66.3 33.7002 66.3 32.7002V27.0002C71.5 19.4002 94.5 19.4002 105 20.2002V81.9002L95 82.1002C92.6 82.2001 92.7 85.8002 95.1 85.8002L106.3 85.5002L110.7 89.4002C108.2 90.0002 104.4 90.6002 98.5 91.0002C97.5 91.1002 96.7 91.9002 96.8 93.0002C96.9 94.0002 97.8 94.8001 98.8 94.7001C106.6 94.2001 112 93.2002 115.1 91.8002C115.7 91.5002 116.2 90.8001 116.2 90.1002V24.6002C116.3 24.0002 116 23.5002 115.6 23.1002ZM16.7 25.4002L20.4 22.4002V82.9002L16.7 86.2001V25.4002ZM60.3 91.1002C52.5 92.1002 28.4 91.8002 18.5 89.5002L23 85.6002L49.2 86.2001C53.3 86.3001 57.4 88.1002 60.3 91.1002ZM108.9 22.4002L112.6 25.4002V86.1002L108.9 82.8002V22.4002Z" fill="#393939"/>
<path d="M69.5 46.3002C68.9 44.8002 66.6 44.8002 66.1 46.3002L60.1 61.0002C59.7 61.9002 60.2 63.0002 61.1 63.4002C62 63.8002 63.1 63.3002 63.5 62.4002L64.6 59.7002H70.9L72 62.4002C72.4 63.4002 73.5 63.8002 74.4 63.4002C75.3 63.0002 75.8 61.9002 75.4 61.0002L69.5 46.3002ZM66.1 56.0002L67.8 51.9002L69.5 56.0002H66.1Z" fill="#393939"/>
<path d="M83.9 62.9002C84.9 64.2002 87.2 63.3002 87.1 61.7002V53.9002C87.2 52.2002 84.9 51.4002 83.9 52.7002C83.1 52.3002 82.3 52.1002 81.3 52.1002C78.1 52.1002 75.5 54.7002 75.5 57.9002C75.5 62.0002 80.2 64.9002 83.9 62.9002ZM79.3 57.8002C79.4 55.1002 83.4 55.1002 83.5 57.8002C83.4 60.5002 79.3 60.5002 79.3 57.8002Z" fill="#393939"/>
<path d="M87.1 74.2002C95.3 68.6002 98.6 57.1002 94.6 48.0002C82.4 21.6002 44.1 37.4002 54.1 64.7002C57.7 74.0002 68.1 79.8002 77.9 78.0002L87.5 101.2C90.1 107.2 99 103.5 96.7 97.4002L87.1 74.2002ZM67.3 73.2002C52.4 67.2002 52.4 45.5002 67.3 39.5002C76.4 35.7002 87.3 40.0002 91.1 49.4002C97.5 64.2002 82.1 79.5002 67.3 73.2002ZM92.6 100.5C92 100.8 91.2 100.4 90.9 99.8002L81.5 77.0002C82.3 76.7002 83.1 76.4002 83.8 76.0002L93.2 98.8002C93.5 99.5002 93.2 100.2 92.6 100.5Z" fill="#393939"/>
</g>
</g>
</svg>
