<svg width="63" height="54" viewBox="0 0 63 54" fill="none" xmlns="http://www.w3.org/2000/svg">
<g clip-path="url(#clip0_1221_4016)">
<path d="M35.9168 7.72809C34.4608 7.53488 32.9076 7.34168 31.4515 7.34168C27.5686 7.24508 23.6857 8.01789 19.8999 8.5975C18.5409 8.7907 17.8614 9.37031 17.2789 10.6261C15.1433 14.6834 12.8136 18.644 10.5809 22.6047C10.4839 22.8945 10.2897 23.1843 10.2897 23.4741C10.4839 24.7299 10.7751 25.9857 11.0663 27.3381C11.4546 27.0483 11.7458 26.8551 12.037 26.6619C13.6873 25.5027 15.6287 25.6959 16.5994 27.2415C17.376 28.3041 17.2789 29.5599 16.3082 30.5259C14.4638 32.5546 12.6195 34.4866 10.678 36.5152C9.80436 37.4812 8.2512 37.6744 7.08633 36.9982C6.01853 36.322 5.4361 35.0662 5.82439 33.8104C6.01853 33.2308 6.30975 32.7478 6.60097 32.2648C7.28048 31.3953 8.05705 30.6225 8.73656 29.7531C8.93071 29.5599 9.02778 29.1735 9.02778 28.8837C8.83363 27.9177 8.63949 27.0483 8.34827 26.0823C8.34827 25.8891 8.15413 25.6959 7.95998 25.5993C7.28048 25.3095 6.60097 25.2129 6.01853 24.8265C4.85366 23.9571 3.59172 23.1843 2.32978 22.4115C1.94149 22.2182 1.65028 22.025 1.26199 21.9284C0.291261 21.542 4.40329e-05 21.059 0.388334 20.093C0.873696 19.0304 1.35906 17.8712 1.84442 16.8086C3.98001 12.5581 6.40682 8.40429 9.02778 4.44365C9.51314 3.76744 9.9985 3.18784 10.5809 2.60823C11.4546 1.64222 12.2312 1.54562 13.299 2.31843C14.658 3.38104 16.017 4.54025 17.376 5.69946C17.8614 6.27907 18.4438 6.56887 19.4145 6.37567C23.2004 5.60286 26.9862 5.02326 30.8691 5.02326C34.0725 5.02326 37.2759 5.31306 40.188 7.14848C40.8675 7.63149 41.6441 7.34168 42.1295 6.66548C43.6826 4.63685 45.2358 2.70483 46.886 0.676209C47.5655 -0.0965995 48.148 -0.0965994 48.9245 0.579608C53.4869 4.44365 57.9523 8.30769 62.5147 12.2683C63.0971 12.8479 63.1942 13.4275 62.6118 14.0072C61.4469 15.263 60.282 16.6154 59.0201 17.8712C58.4376 18.4508 57.9523 19.0304 57.8552 19.8998C57.564 22.1216 56.8845 24.2469 55.4284 26.0823C55.8167 26.4687 56.205 26.7585 56.5933 27.0483C58.2435 28.1109 58.4376 29.5599 58.0493 31.2021C57.4669 33.5206 56.0108 35.0662 53.6811 35.6458C53.2928 35.7424 53.0987 35.9356 53.0016 36.4186C52.6133 39.0268 51.5455 41.2487 48.9245 42.5045C48.7304 42.6011 48.5363 42.9875 48.5363 43.2773C48.4392 44.7263 48.148 46.0787 47.1772 47.1413C46.4007 48.1073 45.3329 48.6869 43.9738 48.7835C43.3914 48.7835 43.1973 49.0733 43.0031 49.5563C42.3236 51.9714 39.7027 54 37.2759 53.8068C36.4993 53.8068 35.6256 53.4204 34.9461 52.9374C32.3252 51.102 29.8013 49.1699 27.2774 47.3345C27.1803 47.3345 27.1803 47.2379 26.9862 47.2379C26.5008 47.8175 26.0155 48.3971 25.433 48.8801C23.9769 50.4258 21.5501 49.9428 20.6765 48.1073C20.2882 47.2379 20.2882 46.3685 20.9677 45.5957C22.715 43.5671 24.5594 41.5385 26.2096 39.5098C27.2774 38.1574 29.1218 38.3506 29.9954 39.0268C31.1603 39.8962 31.5486 41.6351 30.6749 42.8909C30.1896 43.5671 29.5101 44.2433 28.9276 44.8229C28.7335 45.0161 28.5393 45.2093 28.3452 45.4991C29.1218 46.0787 29.8013 46.6583 30.4808 47.1413C32.3252 48.4937 34.2666 49.8462 36.111 51.1986C36.6934 51.585 37.3729 51.6816 37.9554 51.3918C39.2173 50.9088 40.2851 50.2326 40.6734 48.7835C40.7705 48.3971 40.7705 48.1073 40.3822 47.8175C37.9554 45.8855 35.5285 43.9535 33.1017 42.0215C32.6164 41.6351 32.0339 41.2487 32.131 40.4758C32.2281 39.7996 32.6164 39.4132 33.2959 39.6064C33.8783 39.7996 34.4608 39.9928 34.849 40.3792C36.8876 42.0215 38.9261 43.6637 40.9646 45.3059C41.1587 45.4991 41.3529 45.5957 41.547 45.7889C43.1002 47.0447 45.2358 46.2719 45.7211 44.4365C45.7211 44.2433 45.8182 44.0501 45.8182 43.9535C46.1094 42.8909 45.9153 42.0215 44.8475 41.2487C42.6148 39.6064 40.3822 37.771 38.1495 36.0322C37.8583 35.7424 37.47 35.4526 37.3729 35.0662C37.2759 34.6798 37.3729 34.1002 37.5671 33.907C37.7612 33.7138 38.3436 33.7138 38.7319 33.7138C39.0232 33.7138 39.2173 34.0036 39.4114 34.1002C41.7412 35.9356 43.9738 37.771 46.3036 39.6064C47.4685 40.5724 47.9538 40.4758 48.9245 39.3166C49.7011 38.3506 50.2836 37.288 50.2836 35.9356C50.2836 35.5492 50.0894 35.1628 49.7982 34.9696C47.7597 33.2308 45.7211 31.5886 43.7797 29.8497C43.3914 29.5599 43.0031 29.0769 42.7119 28.6905C42.4207 28.3041 42.5178 27.7245 42.9061 27.4347C43.1973 27.2415 43.7797 27.1449 44.0709 27.2415C44.5563 27.4347 45.0416 27.8211 45.4299 28.2075C47.2743 29.7531 49.1187 31.2987 50.866 32.941C51.5455 33.5206 52.225 33.7138 52.9045 33.2308C53.4869 32.8444 54.1665 32.458 54.6518 31.8784C55.7196 30.6225 55.5255 29.3667 54.2635 28.3041C49.2158 23.8605 44.168 19.5134 39.1202 15.0698C38.829 14.78 38.2466 14.6834 37.8583 14.6834C35.6256 14.9732 33.393 15.263 31.2574 15.6494C30.5779 15.746 29.8983 16.1324 29.2188 16.4222C27.1803 17.2916 25.2389 16.9052 23.5886 15.6494C22.4238 14.78 22.3267 13.7174 23.2974 12.6547C24.2681 11.6887 25.433 11.0125 26.4037 10.0465C27.6657 8.7907 29.3159 8.30769 31.0632 8.21109C32.6164 8.11449 34.0725 7.82469 35.5285 7.63149C35.9168 7.92129 35.9168 7.82469 35.9168 7.72809ZM12.1341 4.15385C8.34827 9.1771 5.53317 14.5868 2.81514 20.093C4.56245 21.059 6.11561 22.025 7.76584 22.9911C10.2897 18.3542 12.8136 13.814 15.3375 9.2737C15.6287 8.7907 16.1141 8.30769 16.017 7.82469C15.9199 7.34168 15.2404 7.05188 14.8521 6.66548C14.0755 5.89267 13.2019 5.02326 12.1341 4.15385ZM60.0879 13.2343C59.6025 12.8479 59.2142 12.4615 58.7289 12.1717C56.9816 10.6261 55.2342 8.9839 53.3899 7.43828C51.7396 5.98927 49.9923 4.63685 48.3421 3.28444C48.148 3.18784 47.7597 3.09124 47.6626 3.18784C46.4977 4.54025 45.4299 5.89267 44.2651 7.24508C48.3421 10.6261 52.3221 13.9106 56.3991 17.195C57.6611 15.9392 58.8259 14.5868 60.0879 13.2343Z" fill="#393939"/>
<path d="M23.7828 34.6798C25.3359 34.6798 26.5008 35.7424 26.5979 37.1914C26.5979 37.6744 26.4037 38.254 26.1125 38.6404C23.9769 41.1521 21.8413 43.6637 19.7057 46.1753C18.4438 47.6243 16.9877 47.8175 15.6287 46.8515C14.2697 45.7889 14.0755 43.9535 15.2404 42.5045C16.7936 40.6691 18.3467 38.9302 19.8999 37.1914C20.2882 36.7084 20.7735 36.2254 21.1618 35.7424C22.0355 34.9696 22.715 34.6798 23.7828 34.6798Z" fill="#393939"/>
<path d="M13.1048 42.8909C10.7751 42.6977 9.41607 40.3792 10.5809 38.3506C11.2604 37.1914 12.2312 36.0322 13.1048 35.0662C14.2697 33.7138 15.5316 32.458 16.7936 31.1055C17.5702 30.2361 19.2204 30.0429 20.1911 30.5259C21.2589 31.1055 21.9384 32.458 21.5501 33.7138C21.453 34.0036 21.2589 34.2934 21.0648 34.5832C18.735 37.1914 16.5024 39.7996 14.1726 42.3113C13.9785 42.6011 13.4931 42.6977 13.1048 42.8909Z" fill="#393939"/>
</g>
<defs>
<clipPath id="clip0_1221_4016">
<rect width="63" height="54" fill="white"/>
</clipPath>
</defs>
</svg>
