<svg width="64" height="64" viewBox="0 0 64 64" fill="none" xmlns="http://www.w3.org/2000/svg">
<mask id="path-1-outside-1_950_489" maskUnits="userSpaceOnUse" x="0" y="4" width="63" height="56" fill="black">
<rect fill="white" y="4" width="63" height="56"/>
<path d="M62.3014 17.169C62.3014 11.2366 57.5859 6.52113 51.6535 6.52113C49.9803 6.52113 48.307 6.97746 46.7859 7.73803C45.1127 6.52113 43.1352 5.76056 41.1577 5.76056C36.7465 5.76056 32.9437 8.6507 31.7268 12.7577L28.3803 9.56338C25.338 6.67324 21.5352 5 17.2761 5H16.5155C7.99718 5 1 11.9972 1 20.6676C1 22.9493 1.45634 25.0789 2.36901 27.0563C7.84507 39.0732 16.5155 49.4169 27.6197 56.5662L31.4225 59C31.5746 59 31.5747 59 31.7268 59C31.8789 59 31.8789 59 31.8789 59C32.031 59 32.031 58.8479 32.031 58.6958C35.2254 58.3915 38.1155 56.1099 39.1803 53.0676C41.3099 52.4592 43.2873 51.2423 44.8085 49.569C46.3296 47.8958 47.2423 45.7662 47.5465 43.4845C51.6535 42.8761 54.6958 39.3775 54.6958 35.1183C54.6958 34.9662 54.6958 34.8141 54.6958 34.662C58.0423 33.293 60.3239 29.7944 60.3239 26.1437C60.3239 25.231 60.1718 24.3183 59.8676 23.5577C61.5409 21.7324 62.3014 19.4507 62.3014 17.169ZM31.2704 57.7831L28.2282 55.8056C17.2761 48.6563 8.60563 38.6169 3.28169 26.7521C2.36901 24.7746 1.91268 22.7972 1.91268 20.6676C1.91268 12.6056 8.60563 5.91268 16.6676 5.91268H17.4282C21.3831 5.91268 25.0338 7.4338 27.7718 10.1718L31.2704 13.6704V57.7831ZM54.2394 33.9014C53.631 34.2056 53.0225 34.3577 52.4141 34.3577C52.1099 34.3577 51.9577 34.662 51.9577 34.9662C51.9577 35.2704 52.262 35.4225 52.4141 35.4225C52.8704 35.4225 53.4789 35.2704 53.9352 35.1183V35.2704C53.9352 38.9211 51.3493 41.9634 47.8507 42.7239C47.8507 42.4197 47.8507 42.1155 47.8507 41.9634C47.8507 40.7465 47.6986 39.3775 47.2423 38.1606C47.0901 37.8563 46.938 37.8563 46.6338 37.8563C46.3296 38.0084 46.1775 38.1606 46.3296 38.4648C46.6338 39.5296 46.938 40.7465 46.938 41.9634C46.938 42.4197 46.938 42.8761 46.938 43.1803C46.3296 47.5915 43.1352 51.2423 38.8761 52.4592C37.2028 52.9155 35.5296 52.9155 33.8563 52.6113C33.5521 52.6113 33.4 52.7634 33.2479 52.9155C33.2479 53.2197 33.4 53.3718 33.5521 53.5239C34.3127 53.6761 35.2254 53.8282 35.9859 53.8282C36.7465 53.8282 37.3549 53.8282 38.1155 53.6761C37.0507 56.1099 34.769 57.7831 32.1831 58.0873V23.7099L32.9437 23.2535C34.3127 22.3408 35.5296 21.2761 36.4423 19.907C37.507 21.1239 38.1155 22.6451 37.9634 24.3183V24.6225C37.9634 24.9268 38.1155 25.0789 38.4197 25.0789C38.7239 25.0789 38.8761 24.9268 38.8761 24.6225V24.3183C39.0282 22.3408 38.4197 20.3634 36.8986 18.9944C37.6592 17.7775 38.2676 16.4085 38.5718 14.8873C38.5718 14.5831 38.4197 14.431 38.2676 14.2789C37.9634 14.2789 37.8113 14.431 37.6592 14.5831C37.0507 17.7775 35.0732 20.5155 32.3352 22.3408L32.031 22.493V15.6479C32.031 10.7803 35.9859 6.67324 41.0056 6.67324C42.6789 6.67324 44.3521 7.12958 45.7211 8.04225C44.5042 8.80282 43.4394 9.86761 42.6789 11.0845C42.5268 11.2366 42.5268 11.5408 42.831 11.693C42.9831 11.693 42.9831 11.8451 43.1352 11.8451C43.2873 11.8451 43.4394 11.8451 43.5916 11.693C44.5042 10.4761 45.569 9.25916 46.938 8.6507C48.307 7.89014 49.9803 7.4338 51.6535 7.4338C56.9775 7.4338 61.3887 11.8451 61.3887 17.169C61.3887 19.4507 60.6282 21.4282 59.2592 23.2535C59.107 23.4056 59.107 23.5577 59.107 23.7099C59.4113 24.4704 59.5634 25.3831 59.5634 26.2958C59.5634 29.6423 57.4338 32.6845 54.2394 33.9014ZM50.4366 22.7972C50.4366 23.1014 50.2845 23.2535 49.9803 23.4056L45.1127 24.1662C44.3521 25.8394 43.1352 27.5127 41.7662 28.8817L40.093 30.5549C39.9408 30.707 39.9408 30.707 39.7887 30.707C39.6366 30.707 39.4845 30.707 39.4845 30.5549C39.3324 30.4028 39.3324 30.0986 39.4845 29.9465L41.1577 28.2732C44.0479 25.3831 45.7211 21.4282 45.7211 17.3211C45.7211 17.0169 45.8732 16.8648 46.1775 16.8648C46.4817 16.8648 46.6338 17.0169 46.6338 17.169C46.6338 19.1465 46.3296 21.1239 45.569 23.1014L49.9803 22.3408C50.1324 22.3408 50.4366 22.493 50.4366 22.7972ZM40.2451 37.5521V38.1606C40.2451 40.8986 37.9634 43.0282 35.3775 43.0282C35.0732 43.0282 34.9211 42.8761 34.9211 42.5718C34.9211 42.2676 35.0732 42.1155 35.3775 42.1155C37.507 42.1155 39.3324 40.2901 39.3324 38.1606V37.5521C39.3324 37.2479 39.4845 37.0958 39.7887 37.0958C40.093 37.0958 40.2451 37.2479 40.2451 37.5521ZM27.3155 51.6986C27.1634 51.8507 27.0113 51.8507 26.8592 51.8507C26.707 51.8507 26.707 51.8507 26.5549 51.6986C25.7944 51.0901 24.8817 50.6338 24.1211 50.0254C23.969 49.8732 23.8169 49.569 23.969 49.4169C24.1211 49.2648 24.4254 49.1127 24.5775 49.2648C25.338 49.8732 26.0986 50.4817 27.0113 50.938C27.3155 51.2423 27.4676 51.5465 27.3155 51.6986ZM21.5352 46.6789C21.6873 46.831 21.6873 47.1352 21.5352 47.2873C21.3831 47.4394 21.3831 47.4394 21.231 47.4394C21.0789 47.4394 20.9268 47.4394 20.9268 47.2873C10.7352 38.1606 5.25916 26.4479 5.25916 25.0789C5.25916 24.7746 5.41127 24.7746 5.41127 24.6225C5.56338 24.4704 5.86761 24.4704 6.01972 24.6225C6.17183 24.7746 6.17183 24.9268 6.17183 25.0789C6.32394 25.6873 7.54085 28.7296 9.97465 32.8366C12.4085 36.4873 16.2113 41.8113 21.5352 46.6789Z"/>
</mask>
<path d="M62.3014 17.169C62.3014 11.2366 57.5859 6.52113 51.6535 6.52113C49.9803 6.52113 48.307 6.97746 46.7859 7.73803C45.1127 6.52113 43.1352 5.76056 41.1577 5.76056C36.7465 5.76056 32.9437 8.6507 31.7268 12.7577L28.3803 9.56338C25.338 6.67324 21.5352 5 17.2761 5H16.5155C7.99718 5 1 11.9972 1 20.6676C1 22.9493 1.45634 25.0789 2.36901 27.0563C7.84507 39.0732 16.5155 49.4169 27.6197 56.5662L31.4225 59C31.5746 59 31.5747 59 31.7268 59C31.8789 59 31.8789 59 31.8789 59C32.031 59 32.031 58.8479 32.031 58.6958C35.2254 58.3915 38.1155 56.1099 39.1803 53.0676C41.3099 52.4592 43.2873 51.2423 44.8085 49.569C46.3296 47.8958 47.2423 45.7662 47.5465 43.4845C51.6535 42.8761 54.6958 39.3775 54.6958 35.1183C54.6958 34.9662 54.6958 34.8141 54.6958 34.662C58.0423 33.293 60.3239 29.7944 60.3239 26.1437C60.3239 25.231 60.1718 24.3183 59.8676 23.5577C61.5409 21.7324 62.3014 19.4507 62.3014 17.169ZM31.2704 57.7831L28.2282 55.8056C17.2761 48.6563 8.60563 38.6169 3.28169 26.7521C2.36901 24.7746 1.91268 22.7972 1.91268 20.6676C1.91268 12.6056 8.60563 5.91268 16.6676 5.91268H17.4282C21.3831 5.91268 25.0338 7.4338 27.7718 10.1718L31.2704 13.6704V57.7831ZM54.2394 33.9014C53.631 34.2056 53.0225 34.3577 52.4141 34.3577C52.1099 34.3577 51.9577 34.662 51.9577 34.9662C51.9577 35.2704 52.262 35.4225 52.4141 35.4225C52.8704 35.4225 53.4789 35.2704 53.9352 35.1183V35.2704C53.9352 38.9211 51.3493 41.9634 47.8507 42.7239C47.8507 42.4197 47.8507 42.1155 47.8507 41.9634C47.8507 40.7465 47.6986 39.3775 47.2423 38.1606C47.0901 37.8563 46.938 37.8563 46.6338 37.8563C46.3296 38.0084 46.1775 38.1606 46.3296 38.4648C46.6338 39.5296 46.938 40.7465 46.938 41.9634C46.938 42.4197 46.938 42.8761 46.938 43.1803C46.3296 47.5915 43.1352 51.2423 38.8761 52.4592C37.2028 52.9155 35.5296 52.9155 33.8563 52.6113C33.5521 52.6113 33.4 52.7634 33.2479 52.9155C33.2479 53.2197 33.4 53.3718 33.5521 53.5239C34.3127 53.6761 35.2254 53.8282 35.9859 53.8282C36.7465 53.8282 37.3549 53.8282 38.1155 53.6761C37.0507 56.1099 34.769 57.7831 32.1831 58.0873V23.7099L32.9437 23.2535C34.3127 22.3408 35.5296 21.2761 36.4423 19.907C37.507 21.1239 38.1155 22.6451 37.9634 24.3183V24.6225C37.9634 24.9268 38.1155 25.0789 38.4197 25.0789C38.7239 25.0789 38.8761 24.9268 38.8761 24.6225V24.3183C39.0282 22.3408 38.4197 20.3634 36.8986 18.9944C37.6592 17.7775 38.2676 16.4085 38.5718 14.8873C38.5718 14.5831 38.4197 14.431 38.2676 14.2789C37.9634 14.2789 37.8113 14.431 37.6592 14.5831C37.0507 17.7775 35.0732 20.5155 32.3352 22.3408L32.031 22.493V15.6479C32.031 10.7803 35.9859 6.67324 41.0056 6.67324C42.6789 6.67324 44.3521 7.12958 45.7211 8.04225C44.5042 8.80282 43.4394 9.86761 42.6789 11.0845C42.5268 11.2366 42.5268 11.5408 42.831 11.693C42.9831 11.693 42.9831 11.8451 43.1352 11.8451C43.2873 11.8451 43.4394 11.8451 43.5916 11.693C44.5042 10.4761 45.569 9.25916 46.938 8.6507C48.307 7.89014 49.9803 7.4338 51.6535 7.4338C56.9775 7.4338 61.3887 11.8451 61.3887 17.169C61.3887 19.4507 60.6282 21.4282 59.2592 23.2535C59.107 23.4056 59.107 23.5577 59.107 23.7099C59.4113 24.4704 59.5634 25.3831 59.5634 26.2958C59.5634 29.6423 57.4338 32.6845 54.2394 33.9014ZM50.4366 22.7972C50.4366 23.1014 50.2845 23.2535 49.9803 23.4056L45.1127 24.1662C44.3521 25.8394 43.1352 27.5127 41.7662 28.8817L40.093 30.5549C39.9408 30.707 39.9408 30.707 39.7887 30.707C39.6366 30.707 39.4845 30.707 39.4845 30.5549C39.3324 30.4028 39.3324 30.0986 39.4845 29.9465L41.1577 28.2732C44.0479 25.3831 45.7211 21.4282 45.7211 17.3211C45.7211 17.0169 45.8732 16.8648 46.1775 16.8648C46.4817 16.8648 46.6338 17.0169 46.6338 17.169C46.6338 19.1465 46.3296 21.1239 45.569 23.1014L49.9803 22.3408C50.1324 22.3408 50.4366 22.493 50.4366 22.7972ZM40.2451 37.5521V38.1606C40.2451 40.8986 37.9634 43.0282 35.3775 43.0282C35.0732 43.0282 34.9211 42.8761 34.9211 42.5718C34.9211 42.2676 35.0732 42.1155 35.3775 42.1155C37.507 42.1155 39.3324 40.2901 39.3324 38.1606V37.5521C39.3324 37.2479 39.4845 37.0958 39.7887 37.0958C40.093 37.0958 40.2451 37.2479 40.2451 37.5521ZM27.3155 51.6986C27.1634 51.8507 27.0113 51.8507 26.8592 51.8507C26.707 51.8507 26.707 51.8507 26.5549 51.6986C25.7944 51.0901 24.8817 50.6338 24.1211 50.0254C23.969 49.8732 23.8169 49.569 23.969 49.4169C24.1211 49.2648 24.4254 49.1127 24.5775 49.2648C25.338 49.8732 26.0986 50.4817 27.0113 50.938C27.3155 51.2423 27.4676 51.5465 27.3155 51.6986ZM21.5352 46.6789C21.6873 46.831 21.6873 47.1352 21.5352 47.2873C21.3831 47.4394 21.3831 47.4394 21.231 47.4394C21.0789 47.4394 20.9268 47.4394 20.9268 47.2873C10.7352 38.1606 5.25916 26.4479 5.25916 25.0789C5.25916 24.7746 5.41127 24.7746 5.41127 24.6225C5.56338 24.4704 5.86761 24.4704 6.01972 24.6225C6.17183 24.7746 6.17183 24.9268 6.17183 25.0789C6.32394 25.6873 7.54085 28.7296 9.97465 32.8366C12.4085 36.4873 16.2113 41.8113 21.5352 46.6789Z" fill="#393939"/>
<path d="M62.3014 17.169C62.3014 11.2366 57.5859 6.52113 51.6535 6.52113C49.9803 6.52113 48.307 6.97746 46.7859 7.73803C45.1127 6.52113 43.1352 5.76056 41.1577 5.76056C36.7465 5.76056 32.9437 8.6507 31.7268 12.7577L28.3803 9.56338C25.338 6.67324 21.5352 5 17.2761 5H16.5155C7.99718 5 1 11.9972 1 20.6676C1 22.9493 1.45634 25.0789 2.36901 27.0563C7.84507 39.0732 16.5155 49.4169 27.6197 56.5662L31.4225 59C31.5746 59 31.5747 59 31.7268 59C31.8789 59 31.8789 59 31.8789 59C32.031 59 32.031 58.8479 32.031 58.6958C35.2254 58.3915 38.1155 56.1099 39.1803 53.0676C41.3099 52.4592 43.2873 51.2423 44.8085 49.569C46.3296 47.8958 47.2423 45.7662 47.5465 43.4845C51.6535 42.8761 54.6958 39.3775 54.6958 35.1183C54.6958 34.9662 54.6958 34.8141 54.6958 34.662C58.0423 33.293 60.3239 29.7944 60.3239 26.1437C60.3239 25.231 60.1718 24.3183 59.8676 23.5577C61.5409 21.7324 62.3014 19.4507 62.3014 17.169ZM31.2704 57.7831L28.2282 55.8056C17.2761 48.6563 8.60563 38.6169 3.28169 26.7521C2.36901 24.7746 1.91268 22.7972 1.91268 20.6676C1.91268 12.6056 8.60563 5.91268 16.6676 5.91268H17.4282C21.3831 5.91268 25.0338 7.4338 27.7718 10.1718L31.2704 13.6704V57.7831ZM54.2394 33.9014C53.631 34.2056 53.0225 34.3577 52.4141 34.3577C52.1099 34.3577 51.9577 34.662 51.9577 34.9662C51.9577 35.2704 52.262 35.4225 52.4141 35.4225C52.8704 35.4225 53.4789 35.2704 53.9352 35.1183V35.2704C53.9352 38.9211 51.3493 41.9634 47.8507 42.7239C47.8507 42.4197 47.8507 42.1155 47.8507 41.9634C47.8507 40.7465 47.6986 39.3775 47.2423 38.1606C47.0901 37.8563 46.938 37.8563 46.6338 37.8563C46.3296 38.0084 46.1775 38.1606 46.3296 38.4648C46.6338 39.5296 46.938 40.7465 46.938 41.9634C46.938 42.4197 46.938 42.8761 46.938 43.1803C46.3296 47.5915 43.1352 51.2423 38.8761 52.4592C37.2028 52.9155 35.5296 52.9155 33.8563 52.6113C33.5521 52.6113 33.4 52.7634 33.2479 52.9155C33.2479 53.2197 33.4 53.3718 33.5521 53.5239C34.3127 53.6761 35.2254 53.8282 35.9859 53.8282C36.7465 53.8282 37.3549 53.8282 38.1155 53.6761C37.0507 56.1099 34.769 57.7831 32.1831 58.0873V23.7099L32.9437 23.2535C34.3127 22.3408 35.5296 21.2761 36.4423 19.907C37.507 21.1239 38.1155 22.6451 37.9634 24.3183V24.6225C37.9634 24.9268 38.1155 25.0789 38.4197 25.0789C38.7239 25.0789 38.8761 24.9268 38.8761 24.6225V24.3183C39.0282 22.3408 38.4197 20.3634 36.8986 18.9944C37.6592 17.7775 38.2676 16.4085 38.5718 14.8873C38.5718 14.5831 38.4197 14.431 38.2676 14.2789C37.9634 14.2789 37.8113 14.431 37.6592 14.5831C37.0507 17.7775 35.0732 20.5155 32.3352 22.3408L32.031 22.493V15.6479C32.031 10.7803 35.9859 6.67324 41.0056 6.67324C42.6789 6.67324 44.3521 7.12958 45.7211 8.04225C44.5042 8.80282 43.4394 9.86761 42.6789 11.0845C42.5268 11.2366 42.5268 11.5408 42.831 11.693C42.9831 11.693 42.9831 11.8451 43.1352 11.8451C43.2873 11.8451 43.4394 11.8451 43.5916 11.693C44.5042 10.4761 45.569 9.25916 46.938 8.6507C48.307 7.89014 49.9803 7.4338 51.6535 7.4338C56.9775 7.4338 61.3887 11.8451 61.3887 17.169C61.3887 19.4507 60.6282 21.4282 59.2592 23.2535C59.107 23.4056 59.107 23.5577 59.107 23.7099C59.4113 24.4704 59.5634 25.3831 59.5634 26.2958C59.5634 29.6423 57.4338 32.6845 54.2394 33.9014ZM50.4366 22.7972C50.4366 23.1014 50.2845 23.2535 49.9803 23.4056L45.1127 24.1662C44.3521 25.8394 43.1352 27.5127 41.7662 28.8817L40.093 30.5549C39.9408 30.707 39.9408 30.707 39.7887 30.707C39.6366 30.707 39.4845 30.707 39.4845 30.5549C39.3324 30.4028 39.3324 30.0986 39.4845 29.9465L41.1577 28.2732C44.0479 25.3831 45.7211 21.4282 45.7211 17.3211C45.7211 17.0169 45.8732 16.8648 46.1775 16.8648C46.4817 16.8648 46.6338 17.0169 46.6338 17.169C46.6338 19.1465 46.3296 21.1239 45.569 23.1014L49.9803 22.3408C50.1324 22.3408 50.4366 22.493 50.4366 22.7972ZM40.2451 37.5521V38.1606C40.2451 40.8986 37.9634 43.0282 35.3775 43.0282C35.0732 43.0282 34.9211 42.8761 34.9211 42.5718C34.9211 42.2676 35.0732 42.1155 35.3775 42.1155C37.507 42.1155 39.3324 40.2901 39.3324 38.1606V37.5521C39.3324 37.2479 39.4845 37.0958 39.7887 37.0958C40.093 37.0958 40.2451 37.2479 40.2451 37.5521ZM27.3155 51.6986C27.1634 51.8507 27.0113 51.8507 26.8592 51.8507C26.707 51.8507 26.707 51.8507 26.5549 51.6986C25.7944 51.0901 24.8817 50.6338 24.1211 50.0254C23.969 49.8732 23.8169 49.569 23.969 49.4169C24.1211 49.2648 24.4254 49.1127 24.5775 49.2648C25.338 49.8732 26.0986 50.4817 27.0113 50.938C27.3155 51.2423 27.4676 51.5465 27.3155 51.6986ZM21.5352 46.6789C21.6873 46.831 21.6873 47.1352 21.5352 47.2873C21.3831 47.4394 21.3831 47.4394 21.231 47.4394C21.0789 47.4394 20.9268 47.4394 20.9268 47.2873C10.7352 38.1606 5.25916 26.4479 5.25916 25.0789C5.25916 24.7746 5.41127 24.7746 5.41127 24.6225C5.56338 24.4704 5.86761 24.4704 6.01972 24.6225C6.17183 24.7746 6.17183 24.9268 6.17183 25.0789C6.32394 25.6873 7.54085 28.7296 9.97465 32.8366C12.4085 36.4873 16.2113 41.8113 21.5352 46.6789Z" stroke="#393939" stroke-width="0.3" mask="url(#path-1-outside-1_950_489)"/>
</svg>
