<svg width="64" height="64" viewBox="0 0 64 64" fill="none" xmlns="http://www.w3.org/2000/svg">
<g clip-path="url(#clip0_593_340)">
<path d="M58.0089 45.2334C57.4447 45.2334 56.8966 45.2334 56.3163 45.2334C56.1228 46.2006 55.9375 47.2001 55.7198 48.1915C55.1234 50.9238 54.3577 53.6078 53.326 56.2193C52.0686 59.395 49.8199 61.4987 46.6764 62.7399C45.1853 63.3283 43.6539 63.7313 42.0741 63.9731C41.8887 63.9973 41.6953 63.9812 41.5099 63.9973C41.2036 64.0215 41.0182 63.8844 40.986 63.5782C40.9618 63.2558 41.123 63.0784 41.4374 63.022C42.1466 62.8931 42.8801 62.8286 43.5652 62.619C44.7662 62.2563 45.9752 61.8855 47.1278 61.3939C49.6586 60.3058 51.3352 58.3955 52.3588 55.8485C53.5194 52.955 54.3013 49.9566 54.9219 46.9099C55.0428 46.3296 55.1395 45.7492 55.2443 45.177C55.2524 45.1447 55.2282 45.1044 55.2201 45.0641C54.7849 44.9271 54.3416 44.8062 53.9144 44.6692C52.5845 44.2178 51.6334 43.307 50.8274 42.1947C49.6909 40.623 48.7962 38.9143 47.9983 37.1572C47.9338 37.0121 47.8693 36.8751 47.7726 36.6736C47.6678 36.8912 47.5872 37.0524 47.5066 37.2217C46.5152 39.2206 44.9596 40.5344 42.7753 41.0663C42.1386 41.2195 41.518 41.429 40.8812 41.5983C38.834 42.1383 37.6572 43.5085 37.1252 45.4994C37.0285 45.846 36.956 46.2006 36.8834 46.5553C36.8189 46.8857 36.6255 47.0469 36.295 47.0147C36.0049 46.9824 35.8195 46.7165 35.8678 46.3941C36.0774 45.0803 36.5046 43.8551 37.2784 42.759C38.165 41.5016 39.4868 40.9293 40.8893 40.5021C41.3729 40.349 41.8645 40.212 42.3562 40.0991C44.5083 39.6316 45.9107 38.3017 46.7893 36.3189C47.0875 35.65 47.1278 35.0696 46.8699 34.3442C46.2573 32.6355 45.7898 30.8784 45.2417 29.1374C45.1853 28.952 45.0483 28.7505 44.8871 28.6538C42.8237 27.3803 40.5669 26.671 38.173 26.397C34.9732 26.0343 31.9023 26.5743 28.9281 27.7511C28.5573 27.8961 28.2591 27.8155 28.1382 27.5334C28.0012 27.2191 28.1382 26.9692 28.5493 26.7919C28.8072 26.6791 29.0651 26.5421 29.3311 26.4937C29.7825 26.405 29.8953 26.131 29.9679 25.7199C30.8061 21.0128 31.6605 16.3138 32.5068 11.6148C32.676 10.6798 32.8695 9.74483 33.0065 8.80986C33.2161 7.3671 32.2569 6.00495 30.8625 5.71478C29.4117 5.41656 28.0254 6.24675 27.6304 7.68951C27.1549 9.43048 26.6955 11.1795 26.2602 12.9286C24.761 18.9494 23.2296 24.9623 21.803 31.0073C20.9244 34.7311 20.2313 38.4952 19.4253 42.235C18.7885 45.177 19.2882 47.9496 20.5698 50.6256C20.9728 51.4558 21.3436 52.3021 21.7546 53.1323C22.7138 55.0909 22.875 57.1543 22.4317 59.2499C22.1254 60.7007 21.666 62.1112 21.2468 63.5379C21.1985 63.7071 21.0131 63.9247 20.8438 63.965C20.3602 64.094 20.1023 63.7474 20.2635 63.2396C20.5617 62.2805 20.9083 61.3375 21.134 60.3622C21.3516 59.4433 21.4806 58.4922 21.5854 57.5492C21.7385 56.1387 21.3919 54.8168 20.8116 53.5353C20.1265 52.0281 19.4172 50.5208 18.8288 48.9733C18.055 46.9421 17.9664 44.8385 18.3291 42.6864C19.53 35.5694 21.2791 28.5732 23.012 21.577C24.1727 16.9022 25.3897 12.2435 26.5907 7.58472C27.0501 5.80344 28.4767 4.64279 30.2258 4.61861C31.9668 4.59443 33.474 5.73896 33.9495 7.43158C34.1752 8.25371 34.0221 9.05166 33.877 9.85767C33.4337 12.2918 32.9904 14.726 32.5471 17.1682C32.539 17.2327 32.539 17.2971 32.6035 17.3858C32.6357 17.273 32.676 17.1682 32.7083 17.0553C34.0221 12.7432 35.3359 8.43103 36.6577 4.12695C37.1413 2.54717 38.5277 1.51548 40.0994 1.53966C41.7033 1.56384 43.0736 2.61971 43.5249 4.15919C43.7909 5.06998 43.5572 5.94047 43.3718 6.81096C43.0091 8.48745 42.6464 10.1559 42.2917 11.8324C42.2837 11.8808 42.2917 11.9372 42.3482 12.0097C42.3804 11.8969 42.4207 11.784 42.4529 11.6712C43.3395 8.6809 44.2262 5.69866 45.1208 2.70837C45.6205 1.04799 47.0311 -0.0159395 48.6834 0.000180651C50.2873 0.0163008 51.6898 1.08829 52.125 2.65195C52.2218 3.00659 52.254 3.37736 52.3185 3.76424C52.9472 3.49826 53.6081 3.35318 54.3013 3.51438C56.0906 3.90932 57.1142 5.58582 56.6468 7.35904C56.2921 8.68896 55.9213 10.0189 55.5425 11.3407C55.478 11.5745 55.4942 11.6712 55.736 11.7921C56.3969 12.1145 57.0256 12.4853 57.6704 12.8399C57.751 12.8802 57.8235 12.9286 57.9767 13.0092C57.9767 12.316 57.9605 11.6873 57.9767 11.0667C58.0976 7.46382 58.7343 3.96574 60.1448 0.628868C60.1851 0.540207 60.2093 0.451546 60.2577 0.370945C60.4028 0.0888416 60.6043 -0.0804202 60.9347 0.0485412C61.2329 0.161382 61.3216 0.435425 61.2007 0.782009C60.7977 1.92654 60.3302 3.06301 59.9997 4.22367C59.1696 7.18978 58.9278 10.2284 59.0003 13.2993C59.0084 13.5411 59.0084 13.7829 59.0245 14.0247C59.0406 14.3068 59.0084 14.5809 58.7182 14.7018C58.428 14.8227 58.2185 14.6776 58.0089 14.468C57.2916 13.7426 56.4614 13.1865 55.5183 12.8077C52.794 11.6954 49.6587 12.6384 47.8451 15.1128C46.6845 16.7007 46.1203 18.5142 45.8301 20.4325C45.1853 24.7124 46.0074 28.8069 47.3857 32.8209C48.3771 35.7144 49.6184 38.5032 51.311 41.0663C52.1089 42.2753 53.0278 43.3312 54.4786 43.7745C55.7118 44.1533 56.9692 44.2662 58.2507 44.1695C58.8069 44.1292 58.9842 44.2662 59.0245 44.8062C59.3227 48.8685 60.1045 52.8179 61.918 56.5014C62.442 57.5653 63.0948 58.5728 63.6913 59.6045C63.7557 59.7174 63.8444 59.8222 63.917 59.935C64.0862 60.209 64.0943 60.467 63.8202 60.6846C63.5865 60.87 63.256 60.8055 63.0626 60.4992C62.3775 59.3789 61.6521 58.2827 61.0637 57.1059C59.5806 54.1479 58.7343 50.9883 58.2991 47.7159C58.2023 46.9099 58.1137 46.1039 58.0089 45.2334ZM38.3181 25.3572C38.3584 25.2363 38.3906 25.1477 38.4148 25.059C39.8012 18.5867 41.1875 12.1145 42.5658 5.63418C42.7431 4.79593 42.5416 4.03023 41.9532 3.40154C41.2923 2.69225 40.454 2.42627 39.5029 2.65195C38.5035 2.89375 37.907 3.56274 37.6169 4.53801C35.6422 11.0264 33.6594 17.5067 31.6847 23.987C31.4912 24.6157 31.3058 25.2444 31.1043 25.9295C33.4982 25.3089 35.8759 25.0912 38.3181 25.3572ZM44.8548 27.3964C44.8629 27.2916 44.871 27.2352 44.871 27.1869C44.8629 27.1063 44.8548 27.0257 44.8468 26.9451C44.4357 24.1885 44.4438 21.44 45.1208 18.7238C45.6286 16.6765 46.4749 14.7904 48.0708 13.3477C48.4819 12.9769 48.7076 12.5739 48.8607 12.0581C49.6184 9.43855 50.4244 6.83514 51.1659 4.20755C51.448 3.19198 51.1014 2.28925 50.2793 1.62026C48.7801 0.403185 46.6764 1.12053 46.0961 3.04689C43.8957 10.4299 41.7033 17.813 39.511 25.196C39.4788 25.2927 39.4707 25.3975 39.4546 25.5265C41.3568 25.8811 43.1461 26.4776 44.8548 27.3964ZM54.4463 11.4133C54.6237 10.7846 54.801 10.172 54.9703 9.55139C55.204 8.69702 55.4539 7.85071 55.6634 6.99634C55.9294 5.92435 55.3249 4.87653 54.2851 4.57025C53.2454 4.26397 52.125 4.80399 51.7865 5.83569C51.4077 6.98022 51.0853 8.14087 50.7387 9.29346C50.4727 10.1801 50.2148 11.0747 49.9246 12.05C51.4158 11.381 52.8827 11.1312 54.4463 11.4133Z" fill="#393939"/>
<path d="M52.1492 17.2085C54.0675 17.3132 55.3088 18.3369 56.2115 19.9005C57.2351 21.6738 57.3883 23.5356 56.808 25.4781C56.5903 26.2035 56.4211 26.9531 56.284 27.7027C56.1309 28.541 56.3566 29.3308 56.7999 30.0401C57.1384 30.5882 57.5253 31.1041 57.8558 31.6602C58.8552 33.3206 59.3308 35.1019 58.9358 37.0443C58.6618 38.3984 57.759 39.2528 56.4694 39.4704C55.2685 39.6719 54.0514 38.8256 53.5356 38.1244C53.3744 37.9068 53.3985 37.6569 53.6 37.4715C53.8177 37.27 54.0595 37.2781 54.2932 37.4635C54.5431 37.665 54.7607 37.9068 55.0267 38.0922C56.1309 38.8337 57.3641 38.4307 57.8316 37.1894C58.1782 36.2625 58.0734 35.3195 57.8799 34.3765C57.6784 33.4334 57.2513 32.5871 56.7274 31.7892C56.3324 31.1847 55.9133 30.5882 55.607 29.9353C55.0186 28.7183 55.204 27.4609 55.5425 26.2035C55.7601 25.4056 55.9939 24.5996 56.0825 23.7774C56.284 21.9236 55.6151 20.3438 54.2529 19.0945C53.2696 18.1999 52.0847 18.1434 50.8515 18.5384C50.7871 18.5545 50.7306 18.5867 50.6662 18.6109C50.2954 18.7399 50.0052 18.6432 49.9085 18.3369C49.7957 17.9822 49.9891 17.7485 50.3035 17.6598C50.8999 17.4745 51.5286 17.3535 52.1492 17.2085Z" fill="#393939"/>
<path d="M20.9809 8.89852C20.8438 9.02748 20.6907 9.22898 20.4892 9.34182C18.6837 10.3574 16.8622 11.3649 15.0486 12.3724C10.3899 14.9597 5.73117 17.5389 1.07244 20.1262C0.532411 20.4244 0.242248 20.4083 0.064926 20.0698C-0.0962758 19.7474 0.0326856 19.5217 0.564651 19.2235C7.0369 15.6287 13.5092 12.042 19.9814 8.45521C20.1184 8.38267 20.2716 8.31013 20.4247 8.30207C20.7713 8.26983 20.9003 8.49551 20.9809 8.89852Z" fill="#393939"/>
<path d="M0.49211 37.8181C0.709732 37.9632 0.895114 38.0438 1.03214 38.1728C3.76451 40.7278 6.48882 43.2909 9.21313 45.846C11.615 48.1028 14.025 50.3596 16.4269 52.6164C16.4833 52.6729 16.5478 52.7293 16.6042 52.7776C16.9589 53.1162 17.0072 53.3821 16.7735 53.6401C16.5397 53.8899 16.2496 53.8577 15.903 53.5353C11.7359 49.6261 7.57693 45.7251 3.40986 41.8159C2.36205 40.8326 1.30618 39.8654 0.282548 38.8579C0.137466 38.7208 0.0568652 38.4387 0.0729854 38.2292C0.0810455 38.0922 0.322848 37.9713 0.49211 37.8181Z" fill="#393939"/>
<path d="M9.08417 29.6291C6.33568 29.6291 3.58719 29.6291 0.830636 29.6291C0.709735 29.6291 0.556593 29.6694 0.475992 29.6129C0.30673 29.5001 0.0971679 29.355 0.0407473 29.1777C-0.0479137 28.9198 0.121348 28.7102 0.387331 28.6377C0.524353 28.5974 0.677494 28.5974 0.822576 28.5974C6.31956 28.5974 11.8246 28.5974 17.3216 28.5974C17.4183 28.5974 17.507 28.5893 17.6037 28.6054C17.918 28.6457 18.1437 28.7908 18.1276 29.1374C18.1115 29.484 17.8938 29.6291 17.5714 29.6291C15.9514 29.6291 14.3232 29.6291 12.7031 29.6291C11.5022 29.6291 10.2932 29.6291 9.08417 29.6291Z" fill="#393939"/>
<path d="M58.0089 45.2334C57.4447 45.2334 56.8966 45.2334 56.3163 45.2334C56.1228 46.2006 55.9375 47.2001 55.7198 48.1915C55.1234 50.9238 54.3577 53.6078 53.326 56.2193C52.0686 59.395 49.8199 61.4987 46.6764 62.7399C45.1853 63.3283 43.6539 63.7313 42.0741 63.9731C41.8887 63.9973 41.6953 63.9812 41.5099 63.9973C41.2036 64.0215 41.0182 63.8844 40.986 63.5782C40.9618 63.2558 41.123 63.0784 41.4374 63.022C42.1466 62.8931 42.8801 62.8286 43.5652 62.619C44.7662 62.2563 45.9752 61.8855 47.1278 61.3939C49.6586 60.3058 51.3352 58.3955 52.3588 55.8485C53.5194 52.955 54.3013 49.9566 54.9219 46.9099C55.0428 46.3296 55.1395 45.7492 55.2443 45.177C55.2524 45.1447 55.2282 45.1044 55.2201 45.0641C54.7849 44.9271 54.3416 44.8062 53.9144 44.6692C52.5845 44.2178 51.6334 43.307 50.8274 42.1947C49.6909 40.623 48.7962 38.9143 47.9983 37.1572C47.9338 37.0121 47.8693 36.8751 47.7726 36.6736C47.6678 36.8912 47.5872 37.0524 47.5066 37.2217C46.5152 39.2206 44.9596 40.5344 42.7753 41.0663C42.1386 41.2195 41.518 41.429 40.8812 41.5983C38.834 42.1383 37.6572 43.5085 37.1252 45.4994C37.0285 45.846 36.956 46.2006 36.8834 46.5553C36.8189 46.8857 36.6255 47.0469 36.295 47.0147C36.0049 46.9824 35.8195 46.7165 35.8678 46.3941C36.0774 45.0803 36.5046 43.8551 37.2784 42.759C38.165 41.5016 39.4868 40.9293 40.8893 40.5021C41.3729 40.349 41.8645 40.212 42.3562 40.0991C44.5083 39.6316 45.9107 38.3017 46.7893 36.3189C47.0875 35.65 47.1278 35.0696 46.8699 34.3442C46.2573 32.6355 45.7898 30.8784 45.2417 29.1374C45.1853 28.952 45.0483 28.7505 44.8871 28.6538C42.8237 27.3803 40.5669 26.671 38.173 26.397C34.9732 26.0343 31.9023 26.5743 28.9281 27.7511C28.5573 27.8961 28.2591 27.8155 28.1382 27.5334C28.0012 27.2191 28.1382 26.9692 28.5493 26.7919C28.8072 26.6791 29.0651 26.5421 29.3311 26.4937C29.7825 26.405 29.8953 26.131 29.9679 25.7199C30.8061 21.0128 31.6605 16.3138 32.5068 11.6148C32.676 10.6798 32.8695 9.74483 33.0065 8.80986C33.2161 7.3671 32.2569 6.00495 30.8625 5.71478C29.4117 5.41656 28.0254 6.24675 27.6304 7.68951C27.1549 9.43048 26.6955 11.1795 26.2602 12.9286C24.761 18.9494 23.2296 24.9623 21.803 31.0073C20.9244 34.7311 20.2313 38.4952 19.4253 42.235C18.7885 45.177 19.2882 47.9496 20.5698 50.6256C20.9728 51.4558 21.3436 52.3021 21.7546 53.1323C22.7138 55.0909 22.875 57.1543 22.4317 59.2499C22.1254 60.7007 21.666 62.1112 21.2468 63.5379C21.1985 63.7071 21.0131 63.9247 20.8438 63.965C20.3602 64.094 20.1023 63.7474 20.2635 63.2396C20.5617 62.2805 20.9083 61.3375 21.134 60.3622C21.3516 59.4433 21.4806 58.4922 21.5854 57.5492C21.7385 56.1387 21.3919 54.8168 20.8116 53.5353C20.1265 52.0281 19.4172 50.5208 18.8288 48.9733C18.055 46.9421 17.9664 44.8385 18.3291 42.6864C19.53 35.5694 21.2791 28.5732 23.012 21.577C24.1727 16.9022 25.3897 12.2435 26.5907 7.58472C27.0501 5.80344 28.4767 4.64279 30.2258 4.61861C31.9668 4.59443 33.474 5.73896 33.9495 7.43158C34.1752 8.25371 34.0221 9.05166 33.877 9.85767C33.4337 12.2918 32.9904 14.726 32.5471 17.1682C32.539 17.2327 32.539 17.2971 32.6035 17.3858C32.6357 17.273 32.676 17.1682 32.7083 17.0553C34.0221 12.7432 35.3359 8.43103 36.6577 4.12695C37.1413 2.54717 38.5277 1.51548 40.0994 1.53966C41.7033 1.56384 43.0736 2.61971 43.5249 4.15919C43.7909 5.06998 43.5572 5.94047 43.3718 6.81096C43.0091 8.48745 42.6464 10.1559 42.2917 11.8324C42.2837 11.8808 42.2917 11.9372 42.3482 12.0097C42.3804 11.8969 42.4207 11.784 42.4529 11.6712C43.3395 8.6809 44.2262 5.69866 45.1208 2.70837C45.6205 1.04799 47.0311 -0.0159395 48.6834 0.000180651C50.2873 0.0163008 51.6898 1.08829 52.125 2.65195C52.2218 3.00659 52.254 3.37736 52.3185 3.76424C52.9472 3.49826 53.6081 3.35318 54.3013 3.51438C56.0906 3.90932 57.1142 5.58582 56.6468 7.35904C56.2921 8.68896 55.9213 10.0189 55.5425 11.3407C55.478 11.5745 55.4942 11.6712 55.736 11.7921C56.3969 12.1145 57.0256 12.4853 57.6704 12.8399C57.751 12.8802 57.8235 12.9286 57.9767 13.0092C57.9767 12.316 57.9605 11.6873 57.9767 11.0667C58.0976 7.46382 58.7343 3.96574 60.1448 0.628868C60.1851 0.540207 60.2093 0.451546 60.2577 0.370945C60.4028 0.0888416 60.6043 -0.0804202 60.9347 0.0485412C61.2329 0.161382 61.3216 0.435425 61.2007 0.782009C60.7977 1.92654 60.3302 3.06301 59.9997 4.22367C59.1696 7.18978 58.9278 10.2284 59.0003 13.2993C59.0084 13.5411 59.0084 13.7829 59.0245 14.0247C59.0406 14.3068 59.0084 14.5809 58.7182 14.7018C58.428 14.8227 58.2185 14.6776 58.0089 14.468C57.2916 13.7426 56.4614 13.1865 55.5183 12.8077C52.794 11.6954 49.6587 12.6384 47.8451 15.1128C46.6845 16.7007 46.1203 18.5142 45.8301 20.4325C45.1853 24.7124 46.0074 28.8069 47.3857 32.8209C48.3771 35.7144 49.6184 38.5032 51.311 41.0663C52.1089 42.2753 53.0278 43.3312 54.4786 43.7745C55.7118 44.1533 56.9692 44.2662 58.2507 44.1695C58.8069 44.1292 58.9842 44.2662 59.0245 44.8062C59.3227 48.8685 60.1045 52.8179 61.918 56.5014C62.442 57.5653 63.0948 58.5728 63.6913 59.6045C63.7557 59.7174 63.8444 59.8222 63.917 59.935C64.0862 60.209 64.0943 60.467 63.8202 60.6846C63.5865 60.87 63.256 60.8055 63.0626 60.4992C62.3775 59.3789 61.6521 58.2827 61.0637 57.1059C59.5806 54.1479 58.7343 50.9883 58.2991 47.7159C58.2023 46.9099 58.1137 46.1039 58.0089 45.2334ZM38.3181 25.3572C38.3584 25.2363 38.3906 25.1477 38.4148 25.059C39.8012 18.5867 41.1875 12.1145 42.5658 5.63418C42.7431 4.79593 42.5416 4.03023 41.9532 3.40154C41.2923 2.69225 40.454 2.42627 39.5029 2.65195C38.5035 2.89375 37.907 3.56274 37.6169 4.53801C35.6422 11.0264 33.6594 17.5067 31.6847 23.987C31.4912 24.6157 31.3058 25.2444 31.1043 25.9295C33.4982 25.3089 35.8759 25.0912 38.3181 25.3572ZM44.8548 27.3964C44.8629 27.2916 44.871 27.2352 44.871 27.1869C44.8629 27.1063 44.8548 27.0257 44.8468 26.9451C44.4357 24.1885 44.4438 21.44 45.1208 18.7238C45.6286 16.6765 46.4749 14.7904 48.0708 13.3477C48.4819 12.9769 48.7076 12.5739 48.8607 12.0581C49.6184 9.43855 50.4244 6.83514 51.1659 4.20755C51.448 3.19198 51.1014 2.28925 50.2793 1.62026C48.7801 0.403185 46.6764 1.12053 46.0961 3.04689C43.8957 10.4299 41.7033 17.813 39.511 25.196C39.4788 25.2927 39.4707 25.3975 39.4546 25.5265C41.3568 25.8811 43.1461 26.4776 44.8548 27.3964ZM54.4463 11.4133C54.6237 10.7846 54.801 10.172 54.9703 9.55139C55.204 8.69702 55.4539 7.85071 55.6634 6.99634C55.9294 5.92435 55.3249 4.87653 54.2851 4.57025C53.2454 4.26397 52.125 4.80399 51.7865 5.83569C51.4077 6.98022 51.0853 8.14087 50.7387 9.29346C50.4727 10.1801 50.2148 11.0747 49.9246 12.05C51.4158 11.381 52.8827 11.1312 54.4463 11.4133Z" stroke="#393939" stroke-width="0.5" stroke-linejoin="round"/>
<path d="M52.1492 17.2085C54.0675 17.3132 55.3088 18.3369 56.2115 19.9005C57.2351 21.6738 57.3883 23.5356 56.808 25.4781C56.5903 26.2035 56.4211 26.9531 56.284 27.7027C56.1309 28.541 56.3566 29.3308 56.7999 30.0401C57.1384 30.5882 57.5253 31.1041 57.8558 31.6602C58.8552 33.3206 59.3308 35.1019 58.9358 37.0443C58.6618 38.3984 57.759 39.2528 56.4694 39.4704C55.2685 39.6719 54.0514 38.8256 53.5356 38.1244C53.3744 37.9068 53.3985 37.6569 53.6 37.4715C53.8177 37.27 54.0595 37.2781 54.2932 37.4635C54.5431 37.665 54.7607 37.9068 55.0267 38.0922C56.1309 38.8337 57.3641 38.4307 57.8316 37.1894C58.1782 36.2625 58.0734 35.3195 57.8799 34.3765C57.6784 33.4334 57.2513 32.5871 56.7274 31.7892C56.3324 31.1847 55.9133 30.5882 55.607 29.9353C55.0186 28.7183 55.204 27.4609 55.5425 26.2035C55.7601 25.4056 55.9939 24.5996 56.0825 23.7774C56.284 21.9236 55.6151 20.3438 54.2529 19.0945C53.2696 18.1999 52.0847 18.1434 50.8515 18.5384C50.7871 18.5545 50.7306 18.5867 50.6662 18.6109C50.2954 18.7399 50.0052 18.6432 49.9085 18.3369C49.7957 17.9822 49.9891 17.7485 50.3035 17.6598C50.8999 17.4745 51.5286 17.3535 52.1492 17.2085Z" stroke="#393939" stroke-width="0.5" stroke-linejoin="round"/>
<path d="M20.9809 8.89852C20.8438 9.02748 20.6907 9.22898 20.4892 9.34182C18.6837 10.3574 16.8622 11.3649 15.0486 12.3724C10.3899 14.9597 5.73117 17.5389 1.07244 20.1262C0.532411 20.4244 0.242248 20.4083 0.064926 20.0698C-0.0962758 19.7474 0.0326856 19.5217 0.564651 19.2235C7.0369 15.6287 13.5092 12.042 19.9814 8.45521C20.1184 8.38267 20.2716 8.31013 20.4247 8.30207C20.7713 8.26983 20.9003 8.49551 20.9809 8.89852Z" stroke="#393939" stroke-width="0.5" stroke-linejoin="round"/>
<path d="M0.49211 37.8181C0.709732 37.9632 0.895114 38.0438 1.03214 38.1728C3.76451 40.7278 6.48882 43.2909 9.21313 45.846C11.615 48.1028 14.025 50.3596 16.4269 52.6164C16.4833 52.6729 16.5478 52.7293 16.6042 52.7776C16.9589 53.1162 17.0072 53.3821 16.7735 53.6401C16.5397 53.8899 16.2496 53.8577 15.903 53.5353C11.7359 49.6261 7.57693 45.7251 3.40986 41.8159C2.36205 40.8326 1.30618 39.8654 0.282548 38.8579C0.137466 38.7208 0.0568652 38.4387 0.0729854 38.2292C0.0810455 38.0922 0.322848 37.9713 0.49211 37.8181Z" stroke="#393939" stroke-width="0.5" stroke-linejoin="round"/>
<path d="M9.08417 29.6291C6.33568 29.6291 3.58719 29.6291 0.830636 29.6291C0.709735 29.6291 0.556593 29.6694 0.475992 29.6129C0.30673 29.5001 0.0971679 29.355 0.0407473 29.1777C-0.0479137 28.9198 0.121348 28.7102 0.387331 28.6377C0.524353 28.5974 0.677494 28.5974 0.822576 28.5974C6.31956 28.5974 11.8246 28.5974 17.3216 28.5974C17.4183 28.5974 17.507 28.5893 17.6037 28.6054C17.918 28.6457 18.1437 28.7908 18.1276 29.1374C18.1115 29.484 17.8938 29.6291 17.5714 29.6291C15.9514 29.6291 14.3232 29.6291 12.7031 29.6291C11.5022 29.6291 10.2932 29.6291 9.08417 29.6291Z" stroke="#393939" stroke-width="0.5" stroke-linejoin="round"/>
</g>
<defs>
<clipPath id="clip0_593_340">
<rect width="64" height="64" fill="white"/>
</clipPath>
</defs>
</svg>
