<svg width="130" height="120" viewBox="0 0 130 120" fill="none" xmlns="http://www.w3.org/2000/svg">
<g id="Frame">
<g id="Vector">
<path d="M98 24C84.8 24 74 34.7 74 48.1C74 49.5 75.2 50.7 76.6 50.7C78 50.7 79.2 49.5 79.2 48.1C79.2 37.9 87.5 29.4 97.9 29.4C109.1 29.4 116 36.2 116 47C116 51.4 113.4 54.9 110.6 58.6C107.9 62.2 105.1 66 104.5 70.9C103.4 80.1 99.9 90 93.3 90C86.7 90 83.8 84.6 83.8 79.3C83.8 77.9 82.6 76.7 81.2 76.7C79.8 76.7 78.6 77.9 78.6 79.3C78.6 87.3 83.7 95.4 93.5 95.4C102.1 95.4 108.3 86.5 110.1 71.6C110.5 68.1 112.7 65.2 115.1 62C118.1 57.9 121.5 53.4 121.5 47.3C121.5 33.3 112.1 24 98 24Z" fill="#393939"/>
<path d="M98 39.6C101.7 39.6 105.5 41.4 105.5 45.2C105.5 46.6 106.7 47.8 108.1 47.8C109.5 47.8 110.7 46.6 110.7 45.2C110.7 38.8 105.3 34.2 97.8 34.2C94 34.2 90.1 36.1 87.2 39.2C84.7 41.9 83.5 45.3 83.7 48.5C83.9 51.1 85.5 53.4 87.2 55.9C90.1 60.2 90.1 65.6 88.5 69.1C86 74.7 92.3 77.8 96.2 75.2C99.2 73.2 97.9 66 96 60.9C95.6 59.7 95 58.6 94.6 57.6C94.5 57.4 94.4 57.1 94.2 56.9C93.4 55.5 92.5 54.2 91.7 53.1C90.4 51.2 89.2 49.4 89.1 48.1C89 46.4 89.7 44.5 91.1 43C93.3 40.8 95.8 39.6 98 39.6Z" fill="#393939"/>
<path d="M50.9 78.4C51.7 78.3 52.3 77.8 52.7 77.1C54 74.8 54.6 72.2 54.6 69.5C54.6 66.8 54 64.4 52.8 62C52.4 61.3 51.7 60.8 51 60.7C50.9 60.7 50.8 60.7 50.5 60.7C49.9 60.7 49.3 60.9 48.8 61.4L48.7 61.5C47.9 62.2 47.6 63.6 48.2 64.7C49 66.3 49.5 67.9 49.5 69.7C49.5 71.4 49 73.2 48.2 74.7C47.6 75.8 47.8 77.2 48.7 77.9L48.8 78C49.3 78.3 50.2 78.5 50.9 78.4Z" fill="#393939"/>
<path d="M60.3 84.4C63.3 80.1 64.9 75 64.9 69.6C64.9 64.2 63.4 59.2 60.3 54.8C59.8 54.2 59.2 53.7 58.5 53.7C58.4 53.7 58.3 53.7 58.3 53.7C57.7 53.7 57.1 53.9 56.6 54.4C55.5 55.4 55.4 56.8 56.1 57.9C58.5 61.4 59.8 65.4 59.8 69.6C59.8 73.8 58.5 77.8 56.1 81.3C55.4 82.4 55.5 83.8 56.5 84.8C57.1 85.4 57.8 85.6 58.5 85.5C59.2 85.4 59.9 85 60.3 84.4Z" fill="#393939"/>
<path d="M64.1 91.6C64.6 92.1 65.3 92.3 66 92.2C66.7 92.1 67.3 91.7 67.8 91.2C72.5 85 75 77.5 75 69.5C75 61.5 72.5 54 67.8 47.7C67.3 47.1 66.7 46.7 66 46.7C65.3 46.6 64.6 46.8 64.1 47.3L64 47.5C63 48.3 62.9 49.9 63.6 51C67.7 56.4 69.8 62.8 69.8 69.6C69.8 76.4 67.7 82.8 63.6 88.2C62.9 89.3 63 90.7 64.1 91.6Z" fill="#393939"/>
<path d="M9.90001 87.4L16.8 84.3C19.5 86.1 22.8 87 26.2 87C35.8 87 43.6 79.3 43.6 69.6C43.6 59.9 35.9 52.2 26.2 52.2C16.5 52.2 8.80001 60 8.80001 69.6C8.80001 73.1 9.90001 76.3 11.5 79L8.40001 85.8C8.00001 86.8 9.00001 87.8 9.90001 87.4ZM32.3 69.6C32.3 67.9 33.6 66.6 35.3 66.6C37 66.6 38.3 67.9 38.3 69.6C38.3 71.3 37 72.6 35.3 72.6C33.6 72.6 32.3 71.3 32.3 69.6ZM23.2 69.6C23.2 67.9 24.5 66.6 26.2 66.6C27.9 66.6 29.2 67.9 29.2 69.6C29.2 71.3 27.9 72.6 26.2 72.6C24.5 72.6 23.2 71.3 23.2 69.6ZM14.3 69.6C14.3 67.9 15.6 66.6 17.3 66.6C19 66.6 20.3 67.9 20.3 69.6C20.3 71.3 19 72.6 17.3 72.6C15.6 72.6 14.3 71.3 14.3 69.6Z" fill="#393939"/>
</g>
</g>
</svg>
