<svg width="56" height="56" viewBox="0 0 56 56" fill="none" xmlns="http://www.w3.org/2000/svg">
<path d="M28.1 45.2L39 24.9C39.2 24.3 39.4 23.7 39.5 23.1C39.6 22.5 39.7 21.8 39.7 21.2C39.7 18 38.4 15.1 36.3 13.1C34.2 11 31.3 9.7 28.2 9.7C24.9 9.6 22 10.9 20 13C17.9 15.1 16.6 18 16.6 21.1C16.6 21.8 16.7 22.4 16.8 23C16.9 23.6 17.1 24.2 17.3 24.8L28.1 45.2ZM28.1 13.9C30.1 13.9 31.9 14.7 33.2 16C34.5 17.3 35.3 19.1 35.3 21.1C35.3 21.5 35.3 21.9 35.2 22.3C35.1 22.7 35 23.1 34.9 23.5C34.4 24.9 33.5 26.2 32.2 27C31 27.8 29.6 28.3 28 28.3C26.4 28.3 25 27.8 23.8 27C22.6 26.1 21.6 24.9 21.1 23.5C21 23.1 20.9 22.7 20.8 22.3C20.7 21.9 20.7 21.5 20.7 21.1C20.7 19.1 21.5 17.3 22.8 16C24.3 14.8 26.1 13.9 28.1 13.9ZM32.1 17.2C31.1 16.2 29.6 15.5 28.1 15.5C26.6 15.5 25.1 16.1 24.1 17.2C23.1 18.2 22.4 19.7 22.4 21.2C22.4 21.5 22.4 21.9 22.5 22.2C22.6 22.5 22.6 22.8 22.7 23.1C23.1 24.2 23.8 25.2 24.8 25.9C25.7 26.6 26.9 26.9 28.1 26.9C29.3 26.9 30.5 26.5 31.4 25.9C32.4 25.2 33.1 24.3 33.5 23.1C33.6 22.8 33.7 22.5 33.7 22.2C33.8 21.9 33.8 21.6 33.8 21.2C33.8 19.6 33.1 18.2 32.1 17.2ZM40.4 25.5L28.8 47.2C28.7 47.3 28.6 47.5 28.5 47.5C28.1 47.7 27.6 47.6 27.4 47.2L15.8 25.6C15.8 25.5 15.7 25.5 15.7 25.4C15.5 24.7 15.3 24 15.1 23.3C15.1 22.6 15 21.8 15 21.1C15 17.5 16.5 14.2 18.8 11.8C21.2 9.5 24.5 8 28.1 8C31.7 8 35 9.5 37.3 11.8C39.7 14.2 41.1 17.4 41.1 21.1C41.1 21.8 41 22.6 40.9 23.3C40.8 24 40.6 24.7 40.3 25.4C40.4 25.5 40.4 25.5 40.4 25.5Z" fill="#393939"/>
</svg>
