<svg width="64" height="64" viewBox="0 0 64 64" fill="none" xmlns="http://www.w3.org/2000/svg">
<path fill-rule="evenodd" clip-rule="evenodd" d="M16.8583 10.5051C15.5638 9.21212 13.6219 9.21212 12.3274 10.5051L12.1655 10.6667C10.871 11.9596 10.871 14.2222 12.1655 15.5152C13.2983 16.6465 14.7547 18.101 15.5638 18.9091C16.211 19.5556 17.3438 19.5556 18.1529 18.9091C18.962 18.101 20.4183 16.6465 21.5511 15.5152C22.8456 14.2222 22.8456 11.9596 21.5511 10.6667L21.3892 10.5051C20.0947 9.21212 18.1529 9.21212 16.8583 10.5051ZM12.9746 11.4747L13.1365 11.3131C13.9456 10.5051 15.2401 10.5051 16.0492 11.3131C16.211 11.4747 16.3728 11.6364 16.5347 11.798C16.6965 11.9596 16.8583 11.9596 16.8583 11.9596C16.8583 11.9596 17.0201 11.9596 17.1819 11.798C17.1819 11.798 17.3438 11.6364 17.6674 11.3131C18.4765 10.5051 19.7711 10.5051 20.5802 11.3131L20.742 11.4747C21.7129 12.4444 21.7129 13.899 20.742 14.7071C19.6092 15.8384 18.1529 17.2929 17.3438 18.101C17.0201 18.4242 16.6965 18.4242 16.3728 18.101C15.5638 17.2929 14.1074 15.8384 12.9746 14.7071C12.0037 13.7374 12.0037 12.2828 12.9746 11.4747Z" fill="#393939"/>
<path fill-rule="evenodd" clip-rule="evenodd" d="M56.5041 12.7677C56.9895 8.88889 54.4004 5.33333 50.5168 4.84848C45.5004 4.0404 38.2185 3.07071 33.2021 2.26263C29.3184 1.77778 25.9202 4.36364 25.2729 8.24242C24.4638 13.4141 23.4929 20.5253 22.6838 25.697C22.1983 29.5758 24.7875 33.1313 28.6711 33.6162C33.8493 34.4242 40.9694 35.3939 46.1476 36.202C50.0313 36.6869 53.5913 34.101 54.0768 30.2222C54.7241 25.0505 55.695 17.9394 56.5041 12.7677ZM55.3713 12.6061L52.7822 30.0606C52.2968 33.2929 49.384 35.5556 46.1476 35.0707C40.9694 34.2626 33.8493 33.2929 28.6711 32.4849C25.4347 32 23.1693 29.0909 23.6547 25.8586C24.4638 20.6869 25.4347 13.5758 26.2438 8.40404C26.7293 5.17172 29.642 2.90909 32.8784 3.39394C38.0567 4.20202 45.1767 5.17172 50.3549 5.9798C53.5913 6.46465 55.8568 9.37374 55.3713 12.6061Z" fill="#393939"/>
<path fill-rule="evenodd" clip-rule="evenodd" d="M63.9478 42.1818C63.9478 38.7879 61.1968 35.8788 57.6368 35.8788H42.1021C38.7039 35.8788 35.7912 38.6263 35.7912 42.1818V57.697C35.7912 61.0909 38.5421 64 42.1021 64H57.6368C61.035 64 63.9478 61.2525 63.9478 57.697C63.9478 53.1717 63.9478 46.7071 63.9478 42.1818ZM62.815 42.1818V57.697C62.815 60.4444 60.5495 62.8687 57.6368 62.8687H42.1021C39.1894 62.8687 36.9239 60.6061 36.9239 57.697C36.9239 53.1717 36.9239 46.7071 36.9239 42.1818C36.9239 39.4343 39.1894 37.0101 42.1021 37.0101H57.6368C60.3877 37.0101 62.815 39.4343 62.815 42.1818Z" fill="#393939"/>
<path fill-rule="evenodd" clip-rule="evenodd" d="M34.6584 40.2424C34.6584 36.5253 31.5839 33.4545 27.862 33.4545H10.7092C6.98732 33.4545 3.91275 36.5253 3.91275 40.2424V57.2121C3.91275 60.9293 6.98732 64 10.7092 64H27.862C31.5839 64 34.6584 60.9293 34.6584 57.2121C34.6584 52.202 34.6584 45.2525 34.6584 40.2424ZM33.5257 40.2424V57.2121C33.5257 60.2828 30.9366 62.8687 27.862 62.8687C22.8456 62.8687 15.7256 62.8687 10.7092 62.8687C7.6346 62.8687 5.04549 60.2828 5.04549 57.2121V40.2424C5.04549 37.1717 7.6346 34.5859 10.7092 34.5859C15.7256 34.5859 22.8456 34.5859 27.862 34.5859C30.9366 34.5859 33.5257 37.0101 33.5257 40.2424Z" fill="#393939"/>
<path fill-rule="evenodd" clip-rule="evenodd" d="M40.3221 10.3434L35.6294 13.4141C34.8203 13.899 34.3348 14.5455 34.3348 15.1919C34.3348 15.6768 34.4966 16.4848 34.9821 17.2929C35.4675 18.101 36.1148 18.5859 36.7621 18.5859C37.2476 18.5859 37.733 18.5859 38.3803 18.2626L37.0857 25.8586C37.0857 26.3434 36.9239 26.6667 36.9239 26.8283C36.9239 27.1515 36.9239 27.4747 37.0857 27.798C37.2476 28.4444 38.0567 28.9293 39.3512 29.0909C40.6458 29.2525 41.4549 28.9293 41.9403 28.4444C42.1021 28.1212 42.264 27.9596 42.4258 27.6364C42.4258 27.4748 42.5876 27.1515 42.5876 26.6667L44.5294 12.9293C44.6912 12.2828 44.6912 11.798 44.5294 11.4747C44.5294 11.1515 44.3676 10.8283 44.044 10.6667C43.8822 10.505 43.5585 10.3434 43.2349 10.1818C42.9112 10.0202 42.4258 9.85859 41.9403 9.85859C41.4549 9.69697 40.8076 9.85859 40.3221 10.3434ZM38.2185 16.9697C37.5712 17.2929 37.0857 17.4545 36.7621 17.4545C36.4385 17.4545 36.1148 17.1313 35.7912 16.6465C35.4675 16.1616 35.3057 15.6768 35.3057 15.3535C35.3057 15.0303 35.6294 14.7071 36.1148 14.3838L40.8076 11.3131C41.1312 10.9899 41.4549 10.9899 41.9403 10.9899C42.4258 10.9899 42.7494 11.1515 42.9112 11.3131C43.0731 11.3131 43.2349 11.3131 43.3967 11.4747C43.3967 11.4747 43.3967 11.6364 43.5585 11.798C43.5585 12.1212 43.5585 12.4444 43.5585 12.9293L41.4549 26.505C41.4549 26.8283 41.293 27.1515 41.293 27.3131C41.293 27.4747 41.1312 27.6364 40.9694 27.798C40.9694 27.9596 40.8076 27.9596 40.6458 27.9596C40.3221 27.9596 39.9985 27.9596 39.513 27.9596C39.0276 27.9596 38.7039 27.798 38.5421 27.6364C38.3803 27.6364 38.2185 27.4747 38.2185 27.3131C38.2185 27.1515 38.0567 26.9899 38.0567 26.8283C38.0567 26.6667 38.0566 26.3434 38.2185 26.0202C38.2185 26.0202 39.3512 18.2626 39.513 17.2929C39.6748 16.1616 38.7039 16.8081 38.7039 16.8081L38.2185 16.9697Z" fill="#393939"/>
<path fill-rule="evenodd" clip-rule="evenodd" d="M48.5749 46.7071L48.7367 46.3838C48.7367 46.2222 48.8986 46.2222 49.0604 46.0606C49.2222 45.899 49.5458 45.899 50.0313 45.899C50.3549 45.899 50.6786 45.899 50.8404 46.2222C51.0022 46.3838 51.164 46.5455 51.164 46.7071C51.164 46.8687 51.0022 46.8687 51.0022 46.8687C50.8404 46.8687 50.5168 47.0303 50.1931 47.0303C49.5458 47.0303 49.2222 47.0303 48.8986 47.1919C48.2513 47.5152 47.7658 48.1616 47.7658 49.6162C47.7658 50.2626 47.9276 50.7475 48.0895 51.0707C48.2513 51.3939 48.4131 51.5556 48.7367 51.7172C49.0604 51.8788 49.2222 51.8788 49.5458 52.0404C49.7076 52.0404 50.0313 52.0404 50.6786 52.0404C51.2211 52.0404 51.9731 52.3889 51.9731 53.0101C51.9731 53.3333 51.8113 53.495 51.6495 53.6566C51.1077 54.1977 48.7367 54.1605 48.7367 53.1717C48.5749 52.5253 48.2513 52.0404 47.9276 51.7172C47.604 51.5556 47.1185 51.3939 46.4713 51.3939C44.5294 51.3939 43.7203 52.0404 43.7203 53.1717C43.7203 53.9468 44.024 54.748 44.3676 55.4343C45.5119 57.72 47.8411 58.8283 50.3549 58.8283C52.2968 58.8283 53.915 58.3434 55.2095 57.2121C56.5041 56.0808 57.1513 54.6263 57.1513 52.8485C57.1513 51.4286 56.4622 50.544 55.5332 49.6162L55.3713 49.4545C56.3423 48.8081 56.6659 47.8384 56.6659 46.5455C56.6659 45.0909 56.0186 43.798 54.8859 42.6667C53.7531 41.5354 52.1349 40.8889 50.1931 40.8889C49.384 40.8889 48.5749 41.0505 47.9276 41.2121C47.2804 41.3737 46.6331 41.697 46.3094 42.0202C45.9858 42.3434 45.6622 42.6667 45.3385 42.9899C45.0149 43.3131 44.8531 43.6364 44.8531 43.798C44.5294 44.6061 44.3676 45.2525 44.3676 45.5758C44.3676 46.2222 44.8531 47.0303 45.6622 47.5152C46.1476 47.8384 46.6331 48 47.1185 48C47.4422 48.1616 48.2513 47.6768 48.5749 46.7071ZM44.8531 52.8485C45.4156 52.5676 46.1835 52.6869 46.7949 52.6869C47.1185 53.0101 47.5289 54.4935 48.8986 54.9495C49.8009 55.4001 51.4405 55.1582 52.1349 54.4647C52.6204 53.9798 52.944 53.4949 52.944 53.0101C52.944 52.5253 52.7822 52.0404 52.1349 51.5556C51.6495 51.2323 51.164 50.9091 50.5168 50.9091C50.0313 50.9091 49.7076 50.9091 49.5458 50.9091C49.384 50.9091 49.2222 50.9091 49.2222 50.7475C49.2222 50.7475 49.0604 50.5859 49.0604 50.4242C48.8986 50.2626 48.8986 49.9394 48.8986 49.4545C48.8986 48.9697 48.8986 48.6465 49.0604 48.4849C49.0604 48.3232 49.2222 48.1616 49.384 48.1616C49.5458 48.1616 49.8695 48 50.3549 48C51.9731 48 52.6204 47.3535 52.6204 46.5455C52.6204 46.0606 52.4586 45.7374 51.9731 45.2525C51.6495 44.9293 51.0022 44.6061 50.3549 44.6061C49.7077 44.6061 49.2222 44.7677 48.8986 44.9293C48.4131 45.2525 48.2513 45.4141 48.0895 45.7374C48.0895 45.7374 47.9276 46.2222 47.9276 46.0606C47.7658 46.5455 47.4422 46.8687 46.9567 46.8687C46.6331 46.8687 46.3094 46.7071 45.9858 46.5455C45.5003 46.2222 45.1767 45.899 45.1767 45.5758C45.1767 45.4141 45.3385 44.9293 45.6622 44.2828C45.6622 44.1212 45.824 43.9596 46.1476 43.6364C46.3094 43.3131 46.6331 43.1515 46.9567 42.8283C47.2804 42.5051 47.7658 42.3434 48.2513 42.1818C48.8986 42.0202 49.384 41.8586 50.1931 41.8586C51.8113 41.8586 53.1059 42.3434 54.0768 43.1515C56.6659 45.7374 55.2095 48.1616 54.0768 48.4849C53.7531 48.6465 53.7531 48.9697 53.7531 48.9697C53.7531 49.2034 53.7564 49.6162 54.0768 49.6162C54.2386 49.6162 54.4004 49.7778 54.5622 49.9394C54.8859 50.101 55.0477 50.4242 55.2095 50.5859C55.5332 51.0707 55.8568 51.7172 55.8568 52.3636C56 58 48.7367 59.4683 45.6622 55.4343C45.4641 55.1745 44.3676 53.4949 44.8531 52.8485Z" fill="#393939"/>
<path fill-rule="evenodd" clip-rule="evenodd" d="M17.1819 46.3838L17.3438 45.7374C17.3438 45.4141 17.5056 45.2525 17.8292 44.9293C18.1529 44.6061 18.4765 44.6061 18.8001 44.6061C19.2856 44.6061 19.4474 44.6061 19.7711 44.7677C19.9329 44.9293 20.0947 44.9293 20.2565 45.0909C20.4183 45.2525 20.4183 45.4141 20.5802 45.5758C20.5802 45.7374 20.742 45.899 20.742 45.899C20.742 46.5455 20.4183 47.0303 19.9329 47.5152C19.2856 48.1616 18.6383 48.6465 17.8292 49.1313C17.0201 49.6162 16.0492 50.101 15.2401 50.7475C14.2692 51.2323 13.6219 52.0404 12.9746 52.6869C12.3274 53.4949 12.0037 54.4646 12.0037 55.4343C12.0037 56.0808 12.3274 56.7273 12.8128 57.3737C13.1365 58.0202 13.7837 58.1818 14.5928 58.1818H23.9784C24.7875 58.1818 25.2729 58.0202 25.7584 57.8586C26.082 57.697 26.4057 57.3737 26.5675 56.8889C26.7293 56.5657 26.7293 56.0808 26.7293 55.4343C26.7293 54.7879 26.7293 54.4646 26.5675 53.9798C26.4057 53.4949 26.082 53.1717 25.7584 53.0101C25.4347 52.8485 24.9493 52.6869 24.1402 52.6869H21.8747C22.522 52.3636 23.1693 51.7172 23.8165 51.2323C24.4638 50.7475 24.9493 49.9394 25.4347 49.1313C25.9202 48.1616 26.082 47.3535 26.082 46.2222C26.082 44.4444 25.4347 42.6667 24.1402 41.2121C22.8456 39.7576 21.0656 38.9495 18.962 38.9495C16.8583 38.9495 15.0783 39.596 13.7837 41.0505C12.4892 42.505 11.8419 44.1212 11.8419 45.899C11.8419 46.5455 11.8419 47.0303 12.0037 47.3535C12.3274 48.4848 13.1365 48.9697 14.5928 48.9697C15.2401 48.9697 15.8874 48.8081 16.211 48.6465C16.5347 48.4848 16.8583 48.3232 17.0201 48C17.1819 47.6768 17.3438 47.3535 17.3438 47.1919C17.1819 47.0303 17.1819 46.8687 17.1819 46.3838ZM16.211 45.5758L16.0492 46.0606C16.0492 46.0606 16.0492 46.8687 16.0492 47.0303C16.0492 47.1919 16.0492 47.1919 15.8874 47.3535C15.8874 47.5152 15.7256 47.5152 15.5638 47.5152C15.2401 47.5152 14.9165 47.6768 14.431 47.6768C13.9456 47.6768 13.6219 47.6768 13.2983 47.5152C13.1365 47.5152 12.9746 47.3535 12.9746 47.1919C12.9746 47.0303 12.8128 46.5455 12.8128 46.2222C12.8128 44.7677 13.2983 43.3131 14.431 42.1818C15.7256 40.8889 17.1819 40.404 18.962 40.404C20.742 40.404 22.1983 41.0505 23.1693 42.1818C24.302 43.4747 24.7875 44.7677 24.7875 46.3838C24.7875 47.1919 24.6256 48 24.302 48.8081C23.9784 49.6162 23.4929 50.101 23.0074 50.5859C21.8747 51.5555 20.9038 52.202 19.9329 52.6869C19.9329 52.6869 19.6092 52.6869 19.2856 52.8485C18.962 53.0101 18.6383 53.9798 19.4474 53.9798H23.8165C24.302 53.9798 24.7875 53.9798 24.9493 54.1414C25.1111 54.1414 25.2729 54.303 25.2729 54.4646C25.4347 54.7879 25.4347 55.1111 25.4347 55.596C25.4347 56.0808 25.4347 56.404 25.2729 56.5657C25.2729 56.7273 25.1111 56.8889 25.1111 56.8889C24.7875 57.0505 24.4638 57.0505 23.8165 57.0505H14.5928C14.1074 57.0505 13.7837 56.8889 13.4601 56.5657C13.1365 56.2424 12.9746 55.9192 12.9746 55.4343C12.9746 54.6263 13.2983 53.9798 13.7837 53.3333C14.2692 52.6869 15.0783 52.0404 15.8874 51.5556C16.6965 51.0707 17.5056 50.5859 18.4765 50.101C19.4474 49.6162 20.0947 48.9697 20.742 48.3232C21.3892 47.5152 21.8747 46.7071 21.8747 45.899C21.8747 45.7374 21.8747 45.4141 21.7129 45.0909C21.5511 44.7677 21.3893 44.4444 21.2274 44.2828C21.0656 44.1212 20.742 43.798 20.4183 43.6364C20.0947 43.4747 19.6092 43.3131 18.962 43.3131C18.3147 43.3131 17.6674 43.4747 17.1819 43.9596C16.5347 44.6061 16.3728 45.0909 16.211 45.5758Z" fill="#393939"/>
<path fill-rule="evenodd" clip-rule="evenodd" d="M5.04549 0.808081L4.07457 3.07071C4.07457 3.07071 4.07457 3.07071 3.91275 3.23232L1.8091 4.0404C1.32364 4.20202 1 4.68687 1 5.33333C1 5.81818 1.32364 6.30303 1.8091 6.46465L4.07457 7.27273C4.07457 7.27273 4.07457 7.27273 4.23639 7.43434L5.04549 9.69697C5.20731 10.1818 5.69276 10.5051 6.17822 10.5051C6.66368 10.5051 7.14914 10.1818 7.31096 9.69697L8.12006 7.43434C8.12006 7.43434 8.12006 7.43434 8.28188 7.27273L10.5473 6.46465C11.0328 6.30303 11.3564 5.81818 11.3564 5.33333C11.3564 4.84848 11.0328 4.36364 10.5473 4.20202L8.28188 3.23232C8.28188 3.23232 8.28188 3.23232 8.12006 3.07071L7.31096 0.808081C7.14914 0.323232 6.66368 0 6.17822 0C5.69276 0 5.20731 0.323232 5.04549 0.808081ZM6.0164 1.29293C6.17822 1.13131 6.34004 1.29293 6.34004 1.29293L7.14914 3.55556C7.31096 3.87879 7.47278 4.20202 7.79642 4.20202L10.0619 5.0101L10.2237 5.17172C10.2237 5.17172 10.2237 5.33333 10.0619 5.33333L7.95824 6.30303C7.6346 6.46465 7.31096 6.62626 7.14914 6.94949L6.34004 9.21212L6.17822 9.37374C6.17822 9.37374 6.0164 9.37374 6.0164 9.21212L5.20731 6.94949C5.04549 6.62626 4.72185 6.46465 4.39821 6.30303L2.29456 5.33333L2.13274 5.17172C2.13274 5.17172 2.13274 5.0101 2.29456 5.0101L4.56003 4.20202C4.88367 4.0404 5.20731 3.87879 5.20731 3.55556L6.0164 1.29293Z" fill="#393939"/>
<path fill-rule="evenodd" clip-rule="evenodd" d="M7.79642 18.5859L6.98732 20.8485C6.98732 20.8485 6.98732 20.8485 6.8255 21.0101L4.56003 21.8182C4.07457 21.9798 3.75093 22.4646 3.75093 22.9495C3.75093 23.4343 4.23639 23.9192 4.72185 24.2424L6.98732 25.0505C6.98732 25.0505 6.98732 25.0505 7.14914 25.2121L7.95824 27.4747C8.12006 27.9596 8.60551 28.2828 9.09097 28.2828C9.57643 28.2828 10.0619 27.9596 10.2237 27.4747L11.0328 25.2121C11.0328 25.2121 11.0328 25.2121 11.1946 25.0505L13.2983 24.2424C13.7837 24.0808 14.1074 23.596 14.1074 23.1111C14.1074 22.6263 13.9456 21.9798 13.2983 21.8182L11.0328 21.0101C11.0328 21.0101 11.0328 21.0101 10.871 20.8485L10.0619 18.5859C10.0619 18.101 9.57643 17.7778 9.09097 17.7778C8.44369 17.7778 7.95824 18.101 7.79642 18.5859ZM8.92915 19.0707C8.92915 18.9091 8.92915 18.9091 8.92915 19.0707C9.09097 18.9091 9.25279 19.0707 9.25279 19.0707L10.0619 21.3333C10.2237 21.6566 10.3855 21.9798 10.7092 21.9798L12.9746 22.7879L13.1365 22.9495C13.1365 22.9495 13.1365 23.1111 12.9746 23.1111L10.7092 24.0808C10.3855 24.2424 10.0619 24.404 10.0619 24.7273L9.09097 26.9899C9.09097 26.9899 9.09097 27.1515 8.92915 27.1515C8.92915 27.1515 8.76733 27.1515 8.76733 26.9899L7.95824 24.7273C7.79642 24.404 7.6346 24.0808 7.31096 24.0808L5.04549 23.2727L4.88367 23.1111C4.88367 23.1111 4.88367 22.9495 5.04549 22.9495L7.31096 22.1414C7.6346 21.9798 7.95824 21.8182 7.95824 21.495L8.92915 19.0707Z" fill="#393939"/>
</svg>
