<svg width="74" height="64" viewBox="0 0 74 64" fill="none" xmlns="http://www.w3.org/2000/svg">
<g id="Frame 435" clip-path="url(#clip0_975_346)">
<path id="Vector" d="M-0.075 44.5243L-0.0701787 44.5115C0.193116 43.8131 0.463712 43.1074 0.734217 42.402L0.734309 42.4018C1.00479 41.6964 1.27517 40.9913 1.53824 40.2935C1.79864 39.5941 2.05654 38.8946 2.3142 38.1956C2.9243 36.5407 3.5331 34.8892 4.17068 33.2525L4.17098 33.2518C4.23496 33.0927 4.35998 32.9384 4.51227 32.8164L30.1282 7.33569L37.1471 0.353869C37.3945 0.107773 37.5973 -0.0388672 37.8105 -0.0388672C38.0246 -0.0388672 38.2199 0.108726 38.4528 0.354675C38.453 0.354948 38.4533 0.355222 38.4535 0.355495L45.3246 7.19023C45.5579 7.4223 45.6976 7.61665 45.6976 7.82159C45.6976 8.02748 45.5569 8.21442 45.3237 8.43204C34.4155 19.2245 23.5073 30.046 12.6284 40.8675C12.4726 41.0224 12.2582 41.1433 12.0492 41.2324L12.0461 41.2337L12.0461 41.2336C10.8031 41.6991 9.55281 42.1646 8.30258 42.6301L8.29615 42.6324C7.20414 43.039 6.11221 43.4455 5.02517 43.852H5.02821H5.03392H5.03963H5.04534H5.05106H5.05677H5.06248H5.0682H5.07391H5.07963H5.08534H5.09106H5.09678H5.1025H5.10821H5.11393H5.11965H5.12537H5.1311H5.13682H5.14254H5.14826H5.15399H5.15971H5.16544H5.17116H5.17689H5.18262H5.18835H5.19408H5.19981H5.20554H5.21127H5.217H5.22273H5.22846H5.2342H5.23993H5.24567H5.2514H5.25714H5.26287H5.26861H5.27435H5.28009H5.28583H5.29157H5.29731H5.30305H5.30879H5.31454H5.32028H5.32602H5.33177H5.33751H5.34326H5.34901H5.35475H5.3605H5.36625H5.372H5.37775H5.3835H5.38925H5.39501H5.40076H5.40651H5.41227H5.41802H5.42378H5.42953H5.43529H5.44105H5.44681H5.45257H5.45833H5.46409H5.46985H5.47561H5.48137H5.48713H5.4929H5.49866H5.50443H5.51019H5.51596H5.52173H5.52749H5.53326H5.53903H5.5448H5.55057H5.55634H5.56211H5.56789H5.57366H5.57943H5.58521H5.59098H5.59676H5.60253H5.60831H5.61409H5.61987H5.62565H5.63142H5.63721H5.64299H5.64877H5.65455H5.66033H5.66612H5.6719H5.67769H5.68347H5.68926H5.69505H5.70083H5.70662H5.71241H5.7182H5.72399H5.72978H5.73557H5.74137H5.74716H5.75295H5.75875H5.76454H5.77034H5.77613H5.78193H5.78773H5.79353H5.79933H5.80513H5.81093H5.81673H5.82253H5.82833H5.83414H5.83994H5.84574H5.85155H5.85735H5.86316H5.86897H5.87478H5.88058H5.88639H5.8922H5.89801H5.90383H5.90964H5.91545H5.92126H5.92708H5.93289H5.93871H5.94452H5.95034H5.95616H5.96197H5.96779H5.97361H5.97943H5.98525H5.99107H5.99689H6.00272H6.00854H6.01436H6.02019H6.02601H6.03184H6.03767H6.04349H6.04932H6.05515H6.06098H6.06681H6.07264H6.07847H6.0843H6.09014H6.09597H6.1018H6.10764H6.11347H6.11931H6.12514H6.13098H6.13682H6.14266H6.1485H6.15434H6.16018H6.16602H6.17186H6.1777H6.18355H6.18939H6.19524H6.20108H6.20693H6.21277H6.21862H6.22447H6.23032H6.23617H6.24202H6.24787H6.25372H6.25957H6.26542H6.27128H6.27713H6.28299H6.28884H6.2947H6.30055H6.30641H6.31227H6.31813H6.32399H6.32985H6.33571H6.34157H6.34743H6.35329H6.35916H6.36502H6.37089H6.37675H6.38262H6.38848H6.39435H6.40022H6.40609H6.41196H6.41783H6.4237H6.42957H6.43544H6.44131H6.44719H6.45306H6.45894H6.46481H6.47069H6.47656H6.48244H6.48832H6.4942H6.50008H6.50596H6.51184H6.51772H6.5236H6.52949H6.53537H6.54125H6.54714H6.55302H6.55891H6.5648H6.57068H6.57657H6.58246H6.58835H6.59424H6.60013H6.60602H6.61191H6.61781H6.6237H6.6296H6.63549H6.64139H6.64728H6.65318H6.65908H6.66497H6.67087H6.67677H6.68267H6.68857H6.69448H6.70038H6.70628H6.71218H6.71809H6.72399H6.7299H6.7358H6.74171H6.74762H6.75353H6.75944H6.76535H6.77126H6.77717H6.78308H6.78899H6.7949H6.80082H6.80673H6.81265H6.81856H6.82448H6.83039H6.83631H6.84223H6.84815H6.85407H6.85999H6.86591H6.87183H6.87775H6.88368H6.8896H6.89552H6.90145H6.90738H6.9133H6.91923H6.92516H6.93108H6.93701H6.94294H6.94887H6.9548H6.96074H6.96667H6.9726H6.97853H6.98447H6.9904H6.99634H7.00228H7.00821H7.01415H7.02009H7.02603H7.03197H7.03791H7.04385H7.04979H7.05573H7.06168H7.06762H7.07356H7.07951H7.08545H7.0914H7.09735H7.1033H7.10924H7.11519H7.12114H7.12709H7.13304H7.139H7.14495H7.1509H7.15686H7.16281H7.16876H7.17472H7.18068H7.18663H7.19259H7.19855H7.20451H7.21047H7.21643H7.22239H7.22835H7.23431H7.24028H7.24624H7.25221H7.25817H7.26414H7.2701H7.27607H7.28204H7.28801H7.29398H7.29995H7.30592H7.31189H7.31786H7.32383H7.3298H7.33578H7.34175H7.34773H7.3537H7.35968H7.36566H7.37164H7.37761H7.38359H7.38957H7.39555H7.40153H7.40752H7.4135H7.41948H7.42547H7.43145H7.43744H7.44342H7.44941H7.4554H7.46138H7.46737H7.47336H7.47935H7.48534H7.49133H7.49732H7.50332H7.50931H7.5153H7.5213H7.52729H7.53329H7.53929H7.54528C8.63146 43.852 9.71794 43.8473 10.8039 43.8425C13.5176 43.8307 16.2282 43.8188 18.9234 43.8812L18.9236 43.8812C21.2369 43.9394 23.5204 44.1433 25.8311 44.3761L25.8319 44.3761C28.4352 44.6671 31.0482 45.0461 33.487 46.1276L33.4875 46.1278C34.1367 46.4213 34.756 46.8027 35.3161 47.2426L35.3182 47.2442L35.3182 47.2443C36.0046 47.8232 36.3467 48.5269 36.3391 49.2406C36.3316 49.9537 35.9749 50.6638 35.2896 51.2565L35.2889 51.2571C34.3116 52.0819 33.1293 52.5219 31.9292 52.9004C29.5542 53.6587 27.0923 54.0667 24.6359 54.4448L24.6358 54.4448C22.9101 54.7067 21.1772 54.954 19.4446 55.2012L19.4441 55.2013C17.7113 55.4486 15.9789 55.6958 14.2539 55.9575C13.7702 56.0345 13.2895 56.1621 12.8045 56.2908C12.5785 56.3507 12.3516 56.4109 12.123 56.4664C12.1223 56.4781 12.1213 56.4899 12.1196 56.5013C12.1189 56.5067 12.1179 56.5123 12.1167 56.5182C12.1691 56.5463 12.2224 56.5768 12.275 56.6069C12.321 56.6332 12.3664 56.6592 12.4102 56.6829C12.5289 56.7473 12.6458 56.8015 12.7671 56.8284L12.7737 56.8298L12.7736 56.8301C13.1668 56.9549 13.557 57.0819 13.9459 57.2085C14.9192 57.5253 15.8842 57.8394 16.865 58.1092C20.6041 59.1262 24.4318 59.7948 28.2913 60.3765C28.2913 60.3765 28.2914 60.3765 28.2914 60.3765L28.2802 60.4507C33.8953 61.2943 39.5396 61.8761 45.2132 62.1961L-0.075 44.5243ZM-0.075 44.5243V44.538L-0.0750001 44.5444C-0.0750037 44.7432 -0.0750075 44.9526 -0.0442832 45.1055L-0.0346519 45.1534L0.0130574 45.1639C0.101154 45.1834 0.190881 45.2125 0.286673 45.2435C0.329875 45.2575 0.374309 45.2719 0.420385 45.286C0.564548 45.3302 0.719547 45.3693 0.877359 45.3694L0.880263 45.3693C1.78724 45.3341 2.68821 45.2896 3.58779 45.2452C4.92511 45.1791 6.25936 45.1132 7.60571 45.0784L7.60582 45.0784C12.9269 44.933 18.2759 44.9621 23.5948 45.3982L23.5949 45.3982C26.1085 45.6017 28.5892 45.8922 31.0395 46.5305M-0.075 44.5243L7.60377 45.0034M7.60377 45.0034C12.9264 44.8579 18.2783 44.887 23.6009 45.3234C26.116 45.527 28.6019 45.8179 31.0585 46.4579M7.60377 45.0034C6.25703 45.0382 4.92074 45.1042 3.5824 45.1703M7.60377 45.0034L3.5824 45.1703M31.0585 46.4579L31.0392 46.5304C31.0393 46.5304 31.0394 46.5305 31.0395 46.5305M31.0585 46.4579C32.2575 46.778 33.4274 47.127 34.3925 47.9125L31.0585 46.4579ZM31.0395 46.5305C32.2391 46.8507 33.394 47.1966 34.3451 47.9707L34.346 47.9713C34.8318 48.3551 35.0627 48.7859 35.0559 49.1949C35.0491 49.6027 34.8055 50.0116 34.2925 50.3518C33.597 50.813 32.7843 51.1885 32 51.4486L31.9992 51.4488C29.5497 52.29 26.9821 52.7256 24.4089 53.1037L24.4083 53.1038C22.7664 53.3595 21.1245 53.5943 19.4855 53.8287L19.368 53.8455C17.6902 54.0855 16.0154 54.3256 14.3478 54.5875L14.3468 54.5877C13.3177 54.7631 12.3176 55.0557 11.376 55.4654M31.0395 46.5305L11.376 55.4654M11.376 55.4654C10.9439 55.6497 10.711 55.9854 10.691 56.3557C10.6712 56.723 10.8615 57.1082 11.2414 57.3962C11.4825 57.6056 11.7522 57.7542 12.0187 57.872L12.0196 57.8724C12.6356 58.135 13.2517 58.3685 13.8679 58.5728L13.8691 58.5732C18.9929 60.175 24.2618 61.1066 29.5568 61.8341C32.7459 62.2706 35.9641 62.6198 39.1819 62.9108L11.376 55.4654ZM3.5824 45.1703C2.68291 45.2148 1.7825 45.2592 0.877359 45.2943L3.5824 45.1703ZM35.2698 47.3016C36.6151 48.4361 36.5858 50.0361 35.2406 51.1998L18.9217 43.9561C21.2321 44.0143 23.5132 44.2179 25.8236 44.4507C28.4264 44.7416 31.0292 45.1198 33.4566 46.1961C34.1 46.487 34.7142 46.8652 35.2698 47.3016ZM3.56317 39.0747L3.56233 39.0739C3.532 39.0437 3.50764 38.9932 3.49489 38.9361C3.48206 38.8787 3.48405 38.8286 3.49262 38.8024C3.97662 37.443 4.48832 36.0561 5.00072 34.7223C6.27799 35.9749 7.54296 37.2395 8.81236 38.5086C9.43501 39.131 10.0587 39.7546 10.6855 40.3783C9.80366 40.7135 8.89901 41.0486 7.99401 41.3839C7.52333 41.5582 7.05255 41.7326 6.58484 41.9071C6.5636 41.9136 6.51733 41.912 6.45757 41.8922C6.39953 41.873 6.34488 41.8417 6.31138 41.8084C6.00963 41.5083 5.70495 41.2084 5.39935 40.9076C4.78558 40.3036 4.16809 39.6959 3.56317 39.0747ZM5.80918 33.4252C16.4775 22.8132 27.1458 12.2013 37.8141 1.61821C38.6578 2.45744 39.5269 3.32251 40.37 4.18801L8.3934 35.9958L5.80918 33.4252ZM42.7044 6.46815C43.1392 6.89373 43.5739 7.31908 43.9955 7.73797L12.0198 39.5449C11.1767 38.7051 10.3076 37.8132 9.46397 36.9461C20.0744 26.3917 30.7428 15.7796 41.4113 5.19637C41.8337 5.61604 42.269 6.04209 42.7041 6.46792L42.7044 6.46815ZM3.90084 42.9019C3.17245 43.1775 2.42617 43.46 1.64782 43.743C1.84587 43.2119 2.03845 42.6874 2.22813 42.1708C2.45318 41.5579 2.67416 40.956 2.89537 40.3675C3.60066 41.069 4.30734 41.771 5.03836 42.4731C4.66276 42.6135 4.28428 42.7568 3.90084 42.9019Z" fill="#393939" stroke="#393939" stroke-width="0.15"/>
</g>
<defs>
<clipPath id="clip0_975_346">
<rect width="74" height="64" fill="white"/>
</clipPath>
</defs>
</svg>
