<svg width="56" height="56" viewBox="0 0 56 56" fill="none" xmlns="http://www.w3.org/2000/svg">
<path d="M17.9676 5.5958C17.7345 5.71237 17.6179 5.71237 17.5013 5.94553C17.7345 5.94553 17.8511 5.71237 17.9676 5.5958ZM19.5997 28.795C19.7163 28.4453 19.7163 28.4453 19.4832 28.3287C19.4832 28.5619 19.5997 28.6785 19.5997 28.795ZM17.6179 6.52843C17.3847 6.41185 17.035 6.41185 16.5687 6.29527C16.9184 6.64501 17.2682 6.64501 17.6179 6.52843ZM12.4884 18.8858C12.3718 18.8858 12.3718 19.0024 12.4884 19.119C12.7216 19.2355 12.9547 19.5853 13.1879 19.8184C13.1879 19.8184 13.3045 19.935 13.3045 19.8184V19.7019C13.0713 19.3521 12.8382 19.119 12.605 18.7692C12.605 18.8858 12.4884 18.7692 12.4884 18.8858ZM20.0661 4.08027C20.1826 4.08027 20.2992 3.96369 20.2992 3.96369C21.2319 3.38079 22.1645 2.7979 23.0971 2.09842C23.68 1.74869 24.3795 1.28237 24.9624 0.816053C25.079 0.816053 25.1955 0.699474 25.1955 0.582895C25.079 0.466316 24.8458 0.466316 24.7292 0.582895C24.1463 0.932633 23.4469 1.39895 22.864 1.74869C21.9313 2.44816 21.1153 3.03106 20.1826 3.73053C20.1826 3.96369 20.0661 3.96369 20.0661 4.08027ZM18.6671 6.17869C19.1334 6.17869 19.25 5.82895 19.5997 5.5958C19.9495 5.36264 20.1826 5.12948 20.5324 4.89632C20.8821 4.66316 21.2319 4.43 21.5816 4.19685C21.9313 3.96369 22.2811 3.73053 22.5142 3.61395C22.864 3.38079 23.2137 3.14763 23.5634 2.91448C23.9132 2.68132 24.2629 2.44816 24.6126 2.215C24.9624 1.98184 25.3121 1.86527 25.5453 1.63211C25.895 1.39895 26.2448 1.28237 26.5945 1.04921C26.1282 0.816053 26.1282 0.816053 25.895 1.04921C23.9132 2.33158 22.0479 3.61395 20.1826 4.89632C19.5997 5.47922 19.1334 5.82895 18.6671 6.17869ZM24.7292 0.466316C24.3795 0.349737 24.3795 0.349737 24.2629 0.466316C23.0971 1.28237 21.9313 1.86527 20.8821 2.68132C19.4832 3.49737 18.2008 4.43 17.035 5.47922C16.9184 5.5958 16.8019 5.71237 16.6853 5.82895C16.8019 5.94553 16.9184 5.82895 17.035 5.82895C17.9676 5.0129 18.9003 4.43 19.9495 3.73053C20.649 3.26421 21.3484 2.7979 22.0479 2.33158C22.864 1.74869 23.68 1.16579 24.6126 0.699474C24.6126 0.582895 24.6126 0.582895 24.7292 0.466316ZM14.2371 17.6034C14.7034 17.2537 15.1697 17.0205 15.5195 16.6708C15.7526 16.5542 15.9858 16.3211 16.1024 16.0879C16.3355 15.8548 16.3355 15.8548 16.1024 15.6216C15.6361 15.2719 15.0532 14.9221 14.5868 14.5724C14.4703 14.4558 14.3537 14.4558 14.3537 14.5724C14.2371 14.689 14.1205 14.8055 13.8874 14.8055C13.6542 14.8055 13.6542 14.9221 13.6542 15.1553C13.8874 16.0879 14.004 16.7874 14.2371 17.6034ZM20.4158 22.8495C20.7655 22.15 20.649 22.15 20.2992 21.5671C19.5997 20.6345 18.9003 19.8184 18.3174 18.8858C17.8511 18.1863 17.3847 17.3703 16.9184 16.5542C16.8018 16.4376 16.8019 16.3211 16.6853 16.3211C16.5687 16.4376 16.4521 16.5542 16.4521 16.5542C16.3355 16.6708 16.3355 16.7874 16.4521 16.904C17.3847 18.3029 18.3174 19.7019 19.25 21.1008C19.5997 21.6837 20.0661 22.2666 20.4158 22.8495ZM14.4703 17.9532C16.3355 20.5179 18.0842 23.0827 19.9495 25.6474C20.0661 25.4142 20.0661 25.1811 20.0661 24.9479C20.0661 24.8313 20.0661 24.7148 19.9495 24.5982C19.5997 24.2484 19.25 23.7821 19.0169 23.3158C17.6179 21.5671 16.3355 19.8184 15.1697 17.8366C15.1697 17.72 15.0532 17.6034 14.9366 17.6034C14.7034 17.8366 14.5868 17.8366 14.4703 17.9532ZM46.6461 41.5021C47.3456 41.5021 47.9285 40.9193 47.9285 40.3364C47.9285 39.6369 47.3456 39.054 46.7627 39.054C46.0632 39.054 45.4803 39.6369 45.4803 40.3364C45.4803 40.9193 45.9466 41.5021 46.6461 41.5021ZM41.9829 18.5361C41.2835 18.5361 40.7006 19.119 40.7006 19.8184C40.7006 20.5179 41.2835 21.1008 41.9829 21.1008C42.6824 21.1008 43.2653 20.5179 43.2653 19.8184C43.2653 19.0024 42.6824 18.4195 41.9829 18.5361ZM20.1826 24.2484C20.2992 24.0153 20.2992 23.7821 20.4158 23.549C20.4158 23.4324 20.4158 23.4324 20.2992 23.3158C20.0661 23.0827 19.8329 22.7329 19.5997 22.3832C18.434 20.6345 17.1516 18.8858 16.1024 17.0205L15.9858 16.904C15.7526 17.1371 15.5195 17.3703 15.2863 17.4869C16.8019 19.8184 18.5505 21.9169 20.1826 24.2484ZM41.0503 27.1629C41.0503 27.2795 41.0503 27.3961 41.2835 27.3961C41.9829 27.2795 42.5658 27.2795 43.2653 27.2795C43.615 27.2795 43.615 27.2795 43.4985 26.9298C43.2653 25.4142 42.9156 23.8987 42.6824 22.3832C42.6824 22.15 42.5658 21.9169 42.5658 21.6837C42.5658 21.5671 42.4492 21.4505 42.3327 21.5671C42.2161 21.5671 41.9829 21.5671 41.8663 21.6837C41.7498 21.8003 41.8663 22.0334 41.7498 22.2666V22.3832C41.6332 23.6656 41.5166 24.9479 41.2835 26.2303C41.1669 26.3469 41.0503 26.8132 41.0503 27.1629ZM46.2964 47.4477C46.2964 47.5643 46.2964 47.5643 46.2964 47.6808C46.2964 48.0306 46.2964 48.0306 46.6461 47.914C47.229 47.7974 47.9285 47.7974 48.5114 47.6808C48.8611 47.6808 48.8611 47.6808 48.7445 47.3311C48.3948 46.0487 48.1616 44.8829 47.8119 43.6006C47.6953 43.1343 47.5787 42.6679 47.4621 42.2016C47.4621 42.085 47.4621 41.9685 47.3456 41.9685C47.1124 41.9685 46.9958 41.9685 46.7627 42.085C46.6461 42.085 46.6461 42.2016 46.6461 42.3182C46.6461 42.6679 46.6461 42.9011 46.6461 43.2508C46.4129 44.5332 46.4129 46.0487 46.2964 47.4477ZM11.4392 16.0879C12.0221 16.5542 12.1387 17.2537 12.3718 18.0698C12.605 17.6034 12.605 17.1371 12.4884 16.6708C12.1387 15.2719 11.2061 14.3392 9.80711 13.9895C9.57395 13.8729 9.22421 13.8729 8.99105 13.7563C8.87447 13.7563 8.87447 13.6398 8.75789 13.7563C9.10763 14.4558 9.22421 15.1553 8.99105 15.9713C8.99105 16.2045 8.87447 16.3211 8.87447 16.5542C8.75789 17.4869 9.10763 18.1863 9.69053 18.7692C10.1568 19.2355 10.7397 19.3521 11.4392 19.0024C11.0895 18.7692 10.7397 18.6527 10.5066 18.4195C10.2734 18.1863 10.0403 17.8366 9.92368 17.4869C9.69053 16.904 9.57395 16.6708 9.69053 16.4376C10.0403 17.6034 10.8563 18.3029 12.0221 18.7692C11.9055 18.5361 11.6724 18.3029 11.5558 18.0698C11.4392 17.8366 11.3226 17.6034 11.3226 17.2537C11.3226 17.1371 11.3226 17.1371 11.4392 17.1371C11.4392 17.1371 11.5558 17.1371 11.5558 17.2537C11.5558 17.2537 11.5558 17.3703 11.6724 17.3703C11.7889 17.6034 12.0221 17.8366 12.1387 18.0698C11.7889 17.3703 11.5558 16.7874 11.4392 16.0879ZM19.7163 27.8624C19.7163 27.3961 19.8329 26.9298 19.8329 26.58C19.8329 26.4634 19.8329 26.3469 19.7163 26.2303C19.25 25.5308 18.6671 24.9479 18.2008 24.2484C17.7345 23.6656 17.2682 23.0827 16.8019 22.6163C15.9858 21.9169 15.1697 21.334 14.3537 20.8677C14.2371 20.7511 14.004 20.6345 13.8874 20.6345C13.7708 20.6345 13.6542 20.8677 13.5376 20.9842C13.4211 21.1008 13.4211 21.2174 13.4211 21.334C13.4211 21.4505 13.5376 21.4505 13.5376 21.5671C14.1205 22.4998 14.7034 23.549 15.4029 24.4816C16.1024 25.4142 17.035 26.3469 17.9676 26.9298C18.434 27.1629 19.0169 27.5127 19.7163 27.8624ZM16.4521 6.99474C16.6853 8.04396 21.2319 18.5361 21.6982 19.119C21.9313 18.5361 22.2811 17.8366 22.6308 17.2537C22.6308 17.1371 22.6308 17.1371 22.6308 17.0205C22.1645 16.3211 21.9313 15.505 21.5816 14.689C20.7655 12.9403 20.0661 11.1916 19.3666 9.32633C19.1334 8.62685 18.9003 7.92738 18.6671 7.2279C18.6671 7.11132 18.5505 6.99474 18.434 7.11132C17.6179 7.46106 17.035 7.46106 16.4521 6.99474ZM15.6361 14.2226C15.7526 14.2226 15.7526 14.1061 15.8692 14.1061C16.1024 13.9895 16.3355 13.8729 16.6853 13.8729C16.8019 13.8729 16.9184 13.7563 17.035 13.9895C17.1516 14.1061 16.9184 14.2226 16.9184 14.2226C16.6853 14.3392 16.4521 14.4558 16.1024 14.5724C15.7526 14.689 15.8692 14.8055 15.9858 15.0387C16.1024 15.1553 16.1024 15.1553 16.219 15.2719C16.4521 15.3884 16.6853 15.505 16.8019 15.7382C17.2682 16.2045 17.6179 16.6708 17.9676 17.2537C18.2008 17.6034 18.434 18.0698 18.6671 18.4195C19.25 19.3521 19.9495 20.1682 20.5324 21.1008C20.649 21.2174 20.7655 21.4505 20.8821 21.5671C20.9987 21.1008 21.1153 20.7511 21.3484 20.4013C21.3484 20.2848 21.3484 20.1682 21.2319 20.1682C20.9987 19.8184 20.8821 19.5853 20.649 19.2355C20.1826 18.3029 19.7163 17.2537 19.25 16.3211C18.2008 13.9895 17.1516 11.5413 16.3355 9.09317C16.3355 8.39369 16.219 8.04396 16.1024 7.69422C15.8692 7.8108 15.6361 7.92738 15.4029 8.04396C14.9366 8.27711 14.3537 8.62685 13.8874 8.86001C13.6542 8.86001 13.6542 8.97659 13.7708 9.20975C13.7708 9.32633 13.8874 9.4429 13.8874 9.55948C14.004 9.79264 14.004 9.79264 14.2371 9.67606C14.3537 9.67606 14.3537 9.67606 14.4703 9.67606C14.5868 9.67606 14.7034 9.67606 14.7034 9.79264C14.7034 9.90922 14.7034 10.0258 14.5868 10.0258C14.4703 10.1424 14.4703 10.259 14.3537 10.259C14.2371 10.259 14.1205 10.3755 14.2371 10.4921C14.2371 10.6087 14.3537 10.6087 14.4703 10.6087C14.7034 10.4921 15.0532 10.3755 15.2863 10.259C15.4029 10.259 15.5195 10.259 15.5195 10.3755C15.5195 10.4921 15.5195 10.6087 15.4029 10.7253C15.0532 10.8419 14.82 10.9584 14.4703 11.075C14.4703 11.3082 14.5868 11.4247 14.5868 11.5413C14.7034 11.5413 14.82 11.4247 15.0532 11.4247C15.1697 11.4247 15.2863 11.4247 15.2863 11.5413C15.2863 11.6579 15.4029 11.7745 15.1697 11.8911C15.0532 12.0076 14.9366 12.0076 14.7034 12.1242C14.7034 12.2408 14.82 12.3574 14.82 12.3574C14.82 12.5905 14.9366 12.5905 15.1697 12.474C15.4029 12.3574 15.6361 12.2408 15.8692 12.1242C15.9858 12.0076 16.1024 12.1242 16.1024 12.2408C16.219 12.3574 16.1024 12.474 15.9858 12.474C15.6361 12.5905 15.4029 12.7071 15.0532 12.8237C15.1697 12.9403 15.0532 13.1734 15.2863 13.29C15.4029 13.29 15.5195 13.1734 15.6361 13.1734C15.6361 13.1734 15.6361 13.1734 15.7526 13.1734C15.8692 13.1734 15.9858 13.1734 15.9858 13.29C15.9858 13.4066 15.9858 13.5232 15.8692 13.5232C15.7526 13.5232 15.6361 13.6398 15.5195 13.6398C15.4029 13.8729 15.5195 13.9895 15.6361 14.2226ZM23.2137 16.3211C25.1955 13.29 27.9934 10.9584 31.2577 9.55948C29.8587 6.87816 28.8095 4.19685 27.294 1.63211C27.1774 1.63211 27.0608 1.74869 27.0608 1.74869C26.2448 2.33158 25.3121 2.7979 24.4961 3.38079C22.7474 4.43 20.9987 5.5958 19.25 6.64501C19.0169 6.87816 19.0169 6.87816 19.1334 6.99474C19.25 7.2279 19.3666 7.46106 19.4832 7.69422C20.0661 8.86001 20.5324 10.0258 21.1153 11.1916C21.8147 12.8237 22.5142 14.5724 23.2137 16.3211C23.0971 16.3211 23.0971 16.3211 23.2137 16.3211ZM15.4029 25.2977C15.1697 25.5308 14.82 25.764 14.5868 25.9971C14.4703 26.1137 14.3537 26.3469 14.1205 26.58C13.8874 26.9298 13.5376 27.2795 13.3045 27.6292C12.4884 28.5619 11.6724 29.6111 10.9729 30.7769C9.45737 33.225 8.40816 35.9064 8.05842 38.8208C7.94184 39.6369 7.94184 40.5695 8.05842 41.3856C8.175 42.3182 8.64131 42.9011 9.45737 43.1343C9.57395 43.1343 9.80711 43.2508 9.92368 43.3674C10.2734 43.484 10.5066 43.6006 10.8563 43.8337C11.5558 44.3 12.0221 44.8829 12.2553 45.5824C12.4884 46.1653 12.605 46.7482 12.605 47.3311C12.7216 48.3803 13.0713 49.4295 13.6542 50.3622C13.7708 50.5953 14.004 50.8285 14.3537 50.9451C14.3537 50.4787 14.2371 50.129 14.2371 49.7793C14.004 47.914 13.8874 46.0487 13.8874 44.1835C13.8874 42.9011 14.004 41.6187 14.1205 40.3364C14.2371 39.6369 14.5868 39.054 15.0532 38.5877L15.1697 38.4711C15.4029 38.4711 15.4029 38.2379 15.4029 38.0048C15.4029 35.44 15.4029 32.8753 15.5195 30.4271C15.5195 29.1448 15.6361 27.8624 15.8692 26.6966C15.8692 26.4634 16.1024 26.2303 15.9858 25.9971C15.8692 25.764 15.6361 25.5308 15.4029 25.2977ZM17.035 40.3364C16.5687 40.3364 16.1024 40.3364 15.6361 40.3364C15.2863 40.3364 15.2863 40.3364 15.2863 40.5695C15.1697 41.269 15.1697 41.9685 15.1697 42.6679C15.0532 44.8829 15.1697 47.0979 15.4029 49.3129C15.5195 50.4787 15.7526 51.5279 16.219 52.5772C16.5687 53.3932 17.1516 54.0927 18.0842 54.3258C19.1334 54.559 20.1826 54.6756 21.3484 54.559C22.0479 54.4424 22.6308 54.2093 23.2137 54.0927C23.4469 54.0927 23.4469 53.9761 23.4469 53.7429C23.4469 53.2766 23.3303 52.9269 23.3303 52.4606C23.3303 51.2948 23.2137 50.129 23.0971 48.8466C22.9805 47.0979 22.864 45.2327 22.864 43.484C22.864 42.5514 22.7474 41.6187 22.7474 40.6861C22.7474 40.3364 22.7474 40.3364 22.3976 40.4529C21.465 40.4529 20.5324 40.4529 19.4832 40.4529C18.6671 40.4529 17.8511 40.3364 17.035 40.3364ZM39.5348 12.474C39.0685 11.8911 38.4856 11.3082 37.7861 10.8419C36.7369 10.259 35.6877 9.90922 34.4053 10.0258C33.5892 10.1424 32.6566 10.259 31.8405 10.6087C30.4416 11.075 29.2758 11.8911 28.11 12.7071C26.1282 14.2226 24.6126 16.0879 23.4469 18.3029C22.0479 21.2174 21.1153 24.365 20.7655 27.5127C20.649 28.6785 20.4158 29.8442 20.2992 31.1266C20.1826 31.7095 20.1826 32.2924 20.2992 32.7587C20.2992 32.8753 20.2992 33.1085 20.1826 33.225C20.0661 33.3416 19.9495 33.3416 19.8329 33.225C19.7163 33.1085 19.7163 33.1085 19.7163 32.9919C19.4832 32.409 19.3666 31.9427 19.1334 31.4763C18.9003 30.6603 18.7837 29.7277 18.5505 28.9116C18.5505 28.5619 18.434 28.2121 18.434 27.7458C17.6179 27.2795 17.1516 26.9298 16.4521 26.4634C16.6853 27.5127 16.6853 28.4453 16.6853 29.3779C16.6853 32.409 16.5687 35.44 16.6853 38.5877C16.6853 38.9374 16.6853 38.9374 17.035 38.9374C17.7345 38.9374 18.3174 39.054 19.0169 39.054C20.1826 39.1706 21.2319 39.1706 22.3976 39.4037C22.7474 39.4037 22.7474 39.4037 22.7474 39.054C22.7474 38.3545 22.7474 37.655 22.7474 36.9556C22.7474 36.0229 22.7474 35.0903 22.7474 34.0411C22.7474 32.8753 22.864 31.8261 22.9805 30.6603C23.0971 29.1448 23.2137 27.6292 23.4469 25.9971C23.68 24.2484 24.0298 22.3832 24.6126 20.6345C25.3121 18.4195 26.4779 16.3211 28.11 14.5724C29.7421 12.9403 31.6074 11.8911 33.939 11.5413C35.3379 11.3082 36.7369 11.4247 38.1358 11.7745C38.6021 12.1242 39.0685 12.2408 39.5348 12.474ZM42.9156 18.3029C42.5658 17.6034 42.4492 16.904 41.9829 16.3211C41.6332 15.8548 41.2835 15.3884 40.9337 14.9221C40.584 14.4558 40.1177 13.9895 39.5348 13.7563C38.0192 12.9403 36.3871 12.5905 34.6384 12.7071C32.7732 12.8237 31.0245 13.6398 29.6255 14.8055C27.9934 16.0879 26.9442 17.72 26.1282 19.5853C25.3121 21.6837 24.7292 23.8987 24.4961 26.1137C24.4961 26.2303 24.4961 26.2303 24.4961 26.3469C24.6126 26.3469 24.6126 26.3469 24.6126 26.2303C25.4287 25.6474 26.3613 24.9479 27.294 24.4816C30.2084 22.8495 33.3561 21.4505 36.5037 20.4013C37.5529 20.0516 38.7187 19.7019 39.8845 19.5853C40.2342 19.5853 40.2342 19.5853 40.2342 19.2355C40.4674 18.4195 41.2835 17.8366 42.2161 18.0698C42.4492 18.1863 42.5658 18.1863 42.9156 18.3029ZM43.615 20.2848C43.4985 20.5179 43.3819 20.7511 43.2653 20.8677C42.9156 21.1008 43.0321 21.334 43.0321 21.6837C43.2653 22.9661 43.4985 24.365 43.8482 25.6474C43.9648 26.2303 44.0813 26.6966 44.1979 27.2795C44.3145 27.6292 44.1979 27.8624 43.7316 27.8624H43.615C42.799 27.979 41.9829 27.979 41.1669 28.0956C40.584 28.2121 40.4674 28.0956 40.584 27.5127C40.7006 26.9298 40.7006 26.3469 40.8171 25.764C40.9337 24.365 41.1669 23.0827 41.4 21.6837C41.4 21.4505 41.4 21.4505 41.2835 21.334C41.0503 21.2174 40.8171 21.1008 40.7006 20.8677C40.584 20.6345 40.4674 20.6345 40.2342 20.7511C39.8845 20.8677 39.5348 20.9842 39.0685 21.1008C37.4363 21.4505 35.9208 22.0334 34.4053 22.6163C32.3069 23.4324 30.0919 24.365 28.11 25.4142C26.9442 25.9971 25.895 26.58 24.7292 27.1629C24.3795 27.2795 24.2629 27.5127 24.2629 27.8624C24.1463 29.7277 24.0298 31.4763 24.0298 33.3416C24.0298 35.0903 24.0298 36.7224 24.0298 38.4711C24.0298 38.5877 24.0298 38.7043 24.0298 38.7043C24.0298 38.7043 24.1463 38.7043 24.1463 38.5877C24.9624 37.4219 25.895 36.4893 26.9442 35.6732C29.1592 33.9245 31.6074 32.6421 34.2887 31.8261C36.8535 31.01 39.4182 30.6603 42.0995 30.8935C43.4985 31.01 44.8974 31.4763 46.1798 32.2924H46.2964C45.83 28.0956 44.8974 24.1319 43.615 20.2848ZM45.83 48.6135C45.5969 48.4969 45.5969 48.2637 45.5969 48.0306C45.5969 47.4477 45.7135 46.8648 45.7135 46.2819C45.83 44.8829 45.83 43.6006 46.0632 42.2016C46.0632 41.9685 46.0632 41.8519 45.83 41.8519C45.4803 41.7353 45.2471 41.3856 45.014 41.0358C44.7808 40.6861 44.7808 40.5695 44.4311 40.8027C44.3145 40.8027 44.3145 40.9193 44.1979 40.9193C43.4985 41.269 42.799 41.6187 42.0995 41.8519C40.8171 42.4348 39.5348 43.0177 38.1358 43.3674C35.9208 43.9503 33.7058 44.5332 31.4908 44.8829C30.4416 45.1161 29.3924 45.3493 28.3432 45.4658C27.0608 45.699 25.7784 45.9322 24.3795 45.9322C24.0298 45.9322 24.0298 45.9322 24.0298 46.2819C24.0298 47.0979 24.0298 47.914 24.0298 48.6135C24.0298 49.6627 24.0298 50.7119 24.1463 51.7611C24.1463 52.344 24.2629 53.0435 24.2629 53.7429C24.2629 54.0927 24.2629 54.0927 24.6126 54.0927C26.2448 54.3258 27.7603 54.0927 29.3924 53.9761C30.4416 53.8595 31.4908 53.6264 32.54 53.5098C34.6384 53.1601 36.6203 52.6937 38.6021 51.9943C40.2342 51.4114 41.7498 50.8285 43.2653 50.0124C44.3145 49.5461 45.1306 49.1964 45.83 48.6135ZM24.1463 45.3493C24.6126 45.2327 25.079 45.1161 25.5453 45.1161C27.1774 44.7664 28.6929 44.4166 30.325 44.0669C32.3069 43.6006 34.2887 43.1343 36.2706 42.6679C38.2524 42.2016 40.1177 41.5021 41.8663 40.5695C42.0995 40.4529 42.4492 40.2198 42.6824 40.2198C43.3819 39.9866 44.0813 39.6369 44.7808 39.4037C45.014 39.2871 45.1306 39.2871 45.2471 39.1706C45.5969 38.8208 45.9466 38.7043 46.2964 38.7043C46.7627 38.7043 46.7627 38.7043 46.7627 38.2379C46.6461 37.0721 46.5295 35.7898 46.5295 34.624C46.5295 34.2742 46.4129 34.0411 46.1798 33.8079C46.0632 33.8079 46.0632 33.6913 45.9466 33.6913C45.1306 32.9919 44.0814 32.5256 43.0321 32.2924C41.2835 31.8261 39.4182 31.9427 37.6695 32.2924C35.5711 32.6421 33.4727 33.3416 31.6074 34.2742C28.6929 35.6732 26.2448 37.5385 24.2629 39.9866C24.0298 40.2198 23.9132 40.5695 23.9132 40.9193C23.9132 41.9685 24.0298 43.0177 24.0298 44.1835C24.1463 44.4166 24.1463 44.8829 24.1463 45.3493ZM24.2629 1.74869C24.0298 1.98184 23.68 2.09842 23.3303 2.33158C21.6982 3.49737 20.0661 4.54658 18.434 5.82895C18.3174 5.94553 18.2008 5.94553 18.2008 6.06211C18.434 6.17869 18.6671 6.17869 18.7837 5.94553C18.9003 5.82895 19.0169 5.71237 19.1334 5.5958C20.4158 4.54658 21.8147 3.61395 23.0971 2.68132C23.5634 2.44816 23.9132 2.09842 24.2629 1.74869C24.8458 1.51553 25.3121 1.16579 25.7784 0.932633C25.6619 0.816054 25.5453 0.816053 25.4287 0.816053C25.079 1.16579 24.7292 1.39895 24.2629 1.74869ZM16.1024 21.334C16.1024 21.2174 15.9858 21.1008 15.9858 21.1008C15.5195 20.4013 15.0532 19.8184 14.5868 19.119C14.004 18.3029 13.7708 17.3703 13.5376 16.4376C13.3045 15.3884 12.9547 14.4558 12.7216 13.4066C12.7216 13.29 12.605 13.0569 12.7216 12.9403C12.9547 12.8237 13.0713 12.9403 13.1879 13.0569C13.7708 13.5232 14.4703 13.8729 15.0532 14.3392C15.1697 14.3392 15.1697 14.4558 15.2863 14.4558C15.4029 14.3392 15.2863 14.3392 15.2863 14.2226C14.5868 12.5905 13.8874 10.8419 13.4211 9.09317C13.4211 9.09317 13.4211 9.09317 13.4211 8.97659C13.4211 8.86001 13.1879 8.74343 13.3045 8.62685C13.4211 8.51027 13.5376 8.39369 13.6542 8.39369C14.1205 8.16053 14.7034 7.92738 15.2863 7.69422C15.5195 7.57764 15.6361 7.57764 15.8692 7.46106C15.9858 7.46106 16.1024 7.34448 15.9858 7.2279C15.8692 6.99474 15.8692 6.76159 15.7526 6.64501C15.6361 6.17869 15.6361 5.94553 15.9858 5.5958C16.3355 5.24606 16.6853 5.0129 17.035 4.66316C18.7837 3.26421 20.7655 2.09842 22.6308 1.04921C23.2137 0.699474 23.68 0.466316 24.2629 0.116579C24.3795 0 24.6126 0 24.7292 0C25.5453 0.116579 26.3613 0.349737 27.0608 0.816053C27.1774 0.816053 27.1774 0.932633 27.294 0.932633C27.7603 1.04921 27.8769 1.28237 28.11 1.63211C29.3924 3.61395 30.4416 5.82895 31.3742 8.04396C31.6074 8.51027 31.724 8.97659 31.8405 9.4429C32.3069 9.32633 32.6566 9.20975 33.1229 9.09317C33.7058 8.97659 34.2887 8.86001 34.8716 8.86001C35.9208 8.86001 36.8534 9.09317 37.6695 9.4429C39.0685 10.0258 40.1177 11.075 41.0503 12.2408C42.2161 13.7563 43.0321 15.3884 43.7316 17.1371C45.2471 20.8677 46.2963 24.7148 47.1124 28.6785C47.4621 30.7769 47.8119 32.8753 48.045 35.0903C48.2782 37.3053 48.3948 39.4037 48.5114 41.5021C48.6279 42.5514 48.6279 43.6006 48.6279 44.6498C48.6279 45.3493 48.7445 45.9322 48.8611 46.6316C48.9777 46.9814 49.0942 47.3311 49.2108 47.6808C49.3274 48.0306 49.2108 48.1472 48.8611 48.2637C48.7445 48.2637 48.7445 48.2637 48.6279 48.2637C48.2782 48.2637 48.045 48.3803 47.9285 48.73C47.8119 48.9632 47.5787 49.0798 47.4621 49.1964C45.2471 50.9451 42.799 52.1108 40.2342 53.1601C38.0192 53.9761 35.6877 54.559 33.3561 55.0253C32.4234 55.1419 31.4908 55.3751 30.5582 55.4916C29.2758 55.6082 27.8769 55.7248 26.5945 55.7248C26.0116 55.7248 25.3121 55.6082 24.7292 55.4916C24.6126 55.4916 24.3795 55.4916 24.2629 55.4916C24.0298 55.4916 23.7966 55.4916 23.5634 55.3751C23.3303 55.2585 23.0971 55.3751 22.864 55.3751C22.1645 55.6082 21.3484 55.8414 20.5324 55.958C19.3666 56.0745 18.2008 55.958 17.1516 55.4916C16.5687 55.2585 16.219 54.9087 15.8692 54.4424C15.4029 53.8595 15.0532 53.2766 14.82 52.5772C14.82 52.4606 14.7034 52.344 14.7034 52.2274C14.7034 52.1108 14.5868 51.9943 14.4703 51.9943C14.004 51.9943 13.5376 51.8777 13.0713 51.6445C12.9547 51.6445 12.9547 51.528 12.8382 51.528C12.1387 51.2948 11.7889 50.8285 11.4392 50.129C11.0895 49.3129 10.8563 48.3803 10.7397 47.5643C10.7397 47.2145 10.6232 46.7482 10.5066 46.3985C10.39 45.8156 10.0403 45.4658 9.45737 45.2327C9.22421 45.1161 8.99105 44.9995 8.64131 44.8829C7.12579 44.3 6.30973 43.2508 6.07658 41.6187C5.96 40.4529 5.96 39.4037 6.19315 38.2379C6.42631 36.3727 7.00921 34.624 7.5921 32.8753C8.175 31.01 9.22421 29.3779 10.2734 27.7458C10.8563 26.8132 11.5558 25.9971 12.2553 25.0645C12.7216 24.5982 13.1879 24.1319 13.7708 23.6656C13.8874 23.549 13.8874 23.4324 13.8874 23.3158C13.5376 22.7329 13.1879 22.0334 12.8382 21.334C12.8382 21.2174 12.7216 21.1008 12.605 20.9842C12.3718 20.8677 12.1387 20.6345 12.0221 20.5179C11.7889 20.1682 11.5558 19.935 11.3226 19.5853C11.2061 19.4687 11.2061 19.4687 11.0895 19.4687C10.1568 19.7019 9.45737 19.3521 8.99105 18.6527C8.40816 17.9532 8.29158 17.2537 8.52474 16.3211C8.64131 15.7382 8.64131 15.1553 8.52474 14.5724C8.40816 14.2226 8.29158 13.9895 8.175 13.7563C8.05842 13.6398 8.05842 13.5232 8.05842 13.5232C8.05842 13.4066 8.05842 13.4066 8.05842 13.29C8.175 13.1734 8.175 13.1734 8.29158 13.29C8.87447 13.6398 9.45737 13.6398 10.0403 13.6398C12.1387 13.8729 13.5376 16.0879 12.9547 18.0698C12.8382 18.3029 12.9547 18.4195 13.0713 18.5361C13.5376 19.0024 13.8874 19.4687 14.1205 20.1682C14.1205 20.2848 14.2371 20.2848 14.2371 20.2848C14.82 20.5179 15.4029 20.8677 16.1024 21.334Z" fill="#393939"/>
</svg>
