<svg width="130" height="120" viewBox="0 0 130 120" fill="none" xmlns="http://www.w3.org/2000/svg">
<g id="Frame">
<path id="Vector" d="M102.3 65.3V49.6L99 50.9L93.1 45.1L88.2 48.3C85.7 45 81.7 42.3 76.8 40.5C80.4 37.2 82.7 32.4 82.7 27.2C82.7 17.2 74.5 9 64.5 9C54.5 9 46.3 17.2 46.3 27.2C46.3 32.5 48.6 37.2 52.2 40.5C47.3 42.2 43.3 44.9 40.8 48.3L36 45.1L30.1 50.9L26.8 49.6V65.2C23.5 66.2 21 69.6 21 73.7C21 77.8 23.5 81.3 26.8 82.2V96.6L64.5 111.1L102.2 96.5V82.2C105.5 81.3 108.1 77.8 108.1 73.7C108.1 69.6 105.6 66.2 102.3 65.3ZM92.7 49.6L95.4 52.3L79 58.6L92.7 49.6ZM49.9 27.2C49.9 19.1 56.5 12.5 64.6 12.5C72.7 12.5 79.3 19.1 79.3 27.2C79.3 35.3 72.7 41.9 64.6 41.9C56.5 41.9 49.9 35.3 49.9 27.2ZM36.5 49.6L50.2 58.6L33.7 52.3L36.5 49.6ZM24.5 73.7C24.5 70.8 26.3 68.4 28.6 68.4C30.9 68.4 32.7 70.8 32.7 73.7C32.7 76.6 30.9 78.9 28.6 78.9C26.3 78.9 24.5 76.6 24.5 73.7ZM62.8 106.8L30.3 94.2V82.2H30.4C31.2 82 31.9 81.6 32.5 81.2C32.5 81.2 32.6 81.1 32.7 81.1C33 80.9 33.3 80.6 33.6 80.3C33.6 80.2 33.7 80.2 33.8 80.1C34.1 79.8 34.3 79.5 34.6 79.2C34.6 79.2 34.6 79.1 34.7 79.1C34.9 78.8 35.1 78.4 35.3 78.1C35.3 78.1 35.3 78 35.4 78C35.6 77.6 35.7 77.2 35.9 76.8C35.9 76.7 35.9 76.6 36 76.6C36.1 76.2 36.2 75.8 36.3 75.4C36.3 75.3 36.3 75.3 36.3 75.2C36.4 74.8 36.4 74.3 36.4 73.8C36.4 73.3 36.4 72.9 36.3 72.4C36.3 72.3 36.3 72.3 36.3 72.2C36.2 71.8 36.1 71.4 36 71C36 70.9 36 70.8 35.9 70.8C35.8 70.4 35.6 70 35.4 69.6C35.4 69.6 35.4 69.5 35.3 69.5C35.1 69.1 34.9 68.8 34.7 68.5C34.7 68.5 34.7 68.4 34.6 68.4C34.4 68.1 34.1 67.8 33.8 67.5C33.7 67.4 33.7 67.4 33.6 67.3C33.3 67 33 66.8 32.7 66.5C32.6 66.5 32.6 66.4 32.5 66.4C31.9 65.9 31.1 65.6 30.4 65.4H30.3V54.7L62.8 67.2V106.8ZM43.8 50.2C46.3 47 50.6 44.5 55.8 43.1C58.4 44.5 61.4 45.4 64.6 45.4C67.8 45.4 70.8 44.6 73.4 43.1C78.6 44.5 82.9 47 85.4 50.2L64.6 63.9L43.8 50.2ZM98.8 94.2L66.3 106.8V67.2L98.8 54.7V65.3C95.5 66.2 92.9 69.7 92.9 73.8C92.9 77.9 95.4 81.4 98.8 82.3V94.2ZM100.5 79C98.2 79 96.4 76.6 96.4 73.8C96.4 70.9 98.2 68.5 100.5 68.5C102.8 68.5 104.6 70.9 104.6 73.8C104.6 76.6 102.8 79 100.5 79Z" fill="#393939"/>
</g>
</svg>
