<svg width="56" height="64" viewBox="0 0 56 64" fill="none" xmlns="http://www.w3.org/2000/svg">
<path d="M28.6711 5C29.268 5.0964 29.8888 5.14459 30.4857 5.28919C36.7175 6.73513 40.6571 10.5669 42.2807 16.8085C42.806 18.8088 42.7583 20.8331 42.424 22.8574C42.4001 22.9779 42.3524 23.0743 42.3046 23.1948C42.2569 23.2912 42.1852 23.3635 42.1375 23.5081C42.2569 23.484 42.3762 23.4358 42.4956 23.4117C44.7878 22.6164 47.1038 21.8453 49.3959 21.05C49.6347 20.9536 49.8257 20.9777 50.0406 21.1464C50.4226 21.4115 50.7092 21.6525 50.8047 22.1826C50.924 22.9056 51.3777 23.1225 52.094 22.9297C52.1179 22.9297 52.1417 22.9297 52.1656 22.9056C52.7387 22.6164 53.2401 22.7369 53.6698 23.243C53.837 23.4358 53.9086 23.6045 53.8609 23.8696C53.5743 26.1831 53.3117 28.4725 53.0252 30.786C53.0252 30.8583 53.0252 30.9306 53.0252 31.0511C53.3356 31.0511 53.6221 31.0511 53.9325 31.0511C55.1024 31.0752 55.8426 31.8223 55.8426 33.0031C55.8426 33.4851 55.9381 33.9912 55.8187 34.4491C55.6755 35.0274 55.6516 35.5576 55.8187 36.1601C55.962 36.7144 55.8665 37.341 55.8426 37.9434C55.8426 38.1121 55.771 38.2567 55.7232 38.4254C55.4845 39.0279 55.5322 39.0279 55.58 39.7027C55.6516 40.5461 55.771 41.3896 55.4128 42.209C55.389 42.2813 55.389 42.4018 55.4367 42.45C55.7471 43.0765 55.6993 43.7272 55.5561 44.3538C55.4128 44.9804 54.9114 45.3178 54.2668 45.39C53.7892 45.4382 53.2878 45.39 52.7387 45.39C52.8819 46.4263 52.9774 47.3903 53.1446 48.3542C53.3356 49.3905 53.5743 50.4027 53.8131 51.4148C53.9325 51.945 53.5505 52.6198 53.0252 52.7644C48.8945 53.8729 44.7639 54.9815 40.6333 56.09C37.1712 57.0058 33.7091 57.9457 30.2708 58.8614C30.0798 58.9096 29.8888 58.9819 29.7217 58.8132C29.6978 58.7891 29.6023 58.7891 29.5307 58.8132C29.1248 58.8614 28.7189 58.9578 28.2891 58.9819C27.7399 59.006 27.1669 59.006 26.6177 58.9819C26.4506 58.9819 26.2596 58.9578 26.0925 58.9096C25.8537 58.8614 25.6388 58.6686 25.4 58.9096C25.3523 58.9578 25.1851 58.9096 25.0658 58.8614C18.4281 57.0781 11.7665 55.2948 5.12886 53.5114C4.14992 53.2463 3.14711 52.9813 2.16817 52.7162C1.78615 52.6198 1.35637 51.8968 1.45188 51.5112C1.97716 49.5833 2.26368 47.6072 2.47857 45.631C2.50244 45.4864 2.50244 45.3177 2.50244 45.1009C2.2398 45.1009 2.00104 45.125 1.76227 45.1009C0.831086 45.0286 0.281926 44.4261 0.281926 43.4862C0.281926 43.0042 0.234173 42.5223 0.520691 42.0885C0.544568 42.0403 0.496815 41.9439 0.472938 41.8716C0.162543 40.8835 0.162543 39.8955 0.449062 38.9074C0.472938 38.811 0.472938 38.6664 0.401309 38.57C0.138667 38.2085 0.0192842 37.7988 0.0431607 37.341C0.0670373 36.859 -0.0523454 36.3529 0.0670373 35.895C0.210296 35.2925 0.210296 34.7624 0.0670373 34.1599C-0.0523454 33.6056 0.0192842 32.979 0.0431607 32.4006C0.0909138 31.5572 0.854963 30.8342 1.71452 30.786C1.88165 30.786 2.02491 30.7619 2.2398 30.7619C2.16817 30.063 2.12042 29.4124 2.02491 28.7376C1.81002 27.0507 1.59514 25.3878 1.38025 23.7009C1.35637 23.6045 1.45188 23.4599 1.49963 23.3635C1.54738 23.2912 1.64289 23.243 1.69064 23.1707C2.00104 22.761 2.38306 22.6405 2.88447 22.8574C2.97997 22.9056 3.24262 22.8092 3.31424 22.6887C3.4575 22.4477 3.57689 22.1585 3.62464 21.8934C3.67239 21.6766 3.79178 21.5561 3.93503 21.4356C4.38869 21.0018 4.84234 21.0259 5.41538 21.2187C7.94629 22.1103 10.5011 22.9538 13.032 23.8214C13.1036 23.8455 13.1514 23.8696 13.1991 23.8696C12.6738 22.6646 12.6261 21.3874 12.65 20.1101C12.7455 14.8806 14.9421 10.7356 19.1683 7.6991C21.2933 6.18085 23.7048 5.33739 26.3073 5.0964C26.4267 5.0964 26.5222 5.0482 26.6416 5.0241C27.334 5 28.0026 5 28.6711 5ZM52.285 51.3907C52.285 51.3184 52.3089 51.2702 52.285 51.2461C51.8314 49.3905 51.521 47.5108 51.3538 45.5828C51.3299 45.39 51.2583 45.3178 51.0673 45.3178C50.6136 45.3178 50.1839 45.3419 49.7541 45.2696C48.9423 45.1732 48.4409 44.5948 48.4409 43.7754C48.4409 43.6067 48.4409 43.4139 48.4409 43.2452C48.4648 43.0283 48.3931 42.8837 48.2021 42.7632C47.7007 42.4259 47.4142 41.9439 47.4142 41.3173C47.4142 40.8594 47.4142 40.4256 47.4142 39.9678C47.4142 39.5099 47.5097 39.1002 47.7962 38.7387C47.844 38.6664 47.8917 38.5459 47.8678 38.4977C47.4858 37.7024 47.6052 36.859 47.7007 36.0637C47.7723 35.4612 47.844 34.931 47.7007 34.3286C47.5813 33.8466 47.653 33.2923 47.6768 32.7862C47.7007 31.75 48.4648 30.9788 49.4915 30.9547C50.0884 30.9306 50.7092 30.9306 51.3061 30.9547C51.5687 30.9547 51.6403 30.8583 51.6642 30.6173C51.8075 29.2196 51.9746 27.8218 52.1179 26.4241C52.1895 25.7493 52.285 25.0745 52.3805 24.3516C52.1656 24.3757 52.0224 24.3757 51.8552 24.4239C44.8833 26.3036 37.8875 28.1833 30.9155 30.0389C30.6051 30.1112 30.5335 30.2558 30.5335 30.5691C30.5335 39.3171 30.5335 48.0409 30.5335 56.7889C30.5335 56.9094 30.5335 57.054 30.5335 57.2227C37.7681 55.2948 45.0265 53.3427 52.285 51.3907ZM2.97997 51.3907C10.2623 53.3427 17.5447 55.2948 24.8509 57.2709C24.8509 57.0781 24.8509 56.9335 24.8509 56.7889C24.8509 48.0891 24.8509 39.3894 24.8509 30.7137C24.8509 30.3281 24.7315 30.1835 24.3495 30.0871C19.8129 28.8822 15.2525 27.6531 10.716 26.4241C8.28056 25.7734 5.84516 25.1227 3.40975 24.448C3.26649 24.3998 3.12323 24.3998 2.97997 24.3757C2.97997 24.5203 2.97997 24.6166 2.97997 24.713C3.19486 26.6169 3.43363 28.5448 3.64852 30.4486C3.67239 30.6896 3.79178 30.7378 3.98279 30.7378C4.81847 30.7378 5.65415 30.7137 6.48982 30.7378C7.49264 30.7619 8.23281 31.5572 8.25669 32.5452C8.25669 32.9549 8.28056 33.3646 8.25669 33.7743C8.23281 34.1117 8.11343 34.4491 8.0418 34.7865C8.01792 34.8829 7.97017 34.9792 7.99404 35.0515C8.4477 35.8227 8.20893 36.6903 8.25669 37.5097C8.25669 37.6783 8.20893 37.8952 8.1373 38.0639C8.0418 38.2808 8.0418 38.4254 8.18506 38.6423C8.35219 38.9074 8.4477 39.2207 8.49545 39.534C8.5432 40.0642 8.51933 40.6184 8.49545 41.1486C8.49545 41.6788 8.28056 42.1367 7.85079 42.4259C7.49264 42.6669 7.42101 42.9319 7.46876 43.2934C7.46876 43.3657 7.46876 43.4621 7.46876 43.5344C7.46876 44.3779 6.94348 44.9804 6.08392 45.0527C5.58252 45.1009 5.08111 45.0768 4.5797 45.0768C4.36481 45.0768 4.1738 45.0768 3.98279 45.0768C3.83953 46.1853 3.74402 47.2216 3.57689 48.2337C3.40975 49.27 3.17099 50.3063 2.97997 51.3907ZM41.2302 20.4475C41.2063 16.9772 40.2035 14.1095 38.2695 11.6272C33.8762 5.96396 25.6149 4.71081 19.8607 8.95225C15.3719 12.2779 13.5334 16.8085 14.2736 22.3754C14.3213 22.6405 14.4168 22.761 14.6795 22.8574C18.643 24.1829 22.5826 25.5565 26.5461 26.8579C26.952 27.0025 27.5012 27.0025 27.9071 26.8579C32.2287 25.4119 36.5265 23.9419 40.8243 22.4718C41.0153 22.3995 41.0869 22.3272 41.1108 22.1344C41.1347 21.4838 41.2063 20.809 41.2302 20.4475ZM29.0054 43.7513C29.0054 39.3412 29.0054 34.907 29.0054 30.4968C29.0054 30.0148 28.9815 30.0148 28.504 30.0148C27.9548 30.0148 27.3818 30.0389 26.8326 30.0148C26.3312 29.9907 26.2835 30.063 26.2835 30.5691C26.2835 34.9792 26.2835 39.3894 26.2835 43.7754C26.2835 48.1373 26.2835 52.5234 26.2835 56.8853C26.2835 57.4637 26.2835 57.4878 26.8565 57.4878C27.4057 57.4878 27.9548 57.4878 28.504 57.4878C29.0054 57.4878 29.0054 57.4878 29.0054 56.9817C29.0054 52.5716 29.0054 48.1614 29.0054 43.7513ZM4.36481 41.3655C4.36481 41.3896 4.36481 41.3896 4.36481 41.4137C5.10498 41.4137 5.84516 41.4137 6.58533 41.4137C6.89572 41.4137 7.06286 41.245 7.06286 40.9558C7.06286 40.5461 7.06286 40.1365 7.06286 39.7268C7.06286 39.4376 6.89572 39.2689 6.60921 39.2689C5.12886 39.2689 3.62464 39.2689 2.1443 39.2689C1.8339 39.2689 1.69064 39.4376 1.69064 39.7268C1.69064 40.1365 1.69064 40.522 1.69064 40.9317C1.69064 41.245 1.8339 41.3896 2.16817 41.3896C2.88447 41.3414 3.62464 41.3655 4.36481 41.3655ZM51.4732 41.6788V41.6547C52.2373 41.6547 52.9774 41.6547 53.7415 41.6547C54.028 41.6547 54.1712 41.5101 54.1712 41.2209C54.1712 40.8112 54.1712 40.4015 54.1712 39.9919C54.1712 39.6786 54.0041 39.534 53.6937 39.534C52.2373 39.534 50.7569 39.534 49.3004 39.534C48.9423 39.534 48.799 39.6786 48.799 40.0642C48.799 40.4256 48.799 40.7871 48.799 41.1486C48.799 41.5583 48.9423 41.6788 49.3482 41.6788C50.0645 41.6788 50.7808 41.6788 51.4732 41.6788ZM51.7358 34.4732C52.5238 34.4732 53.2878 34.4732 54.0757 34.4732C54.3145 34.4732 54.41 34.3768 54.41 34.1599C54.41 33.7502 54.41 33.3405 54.41 32.9308C54.41 32.6175 54.2429 32.4488 53.9325 32.4488C52.4521 32.4488 50.9718 32.4488 49.4915 32.4488C49.1811 32.4488 49.0378 32.6175 49.0378 32.9308C49.0378 33.3405 49.0378 33.7261 49.0378 34.1358C49.0378 34.3768 49.1333 34.4732 49.3959 34.4732C50.1839 34.4732 50.9479 34.4732 51.7358 34.4732ZM4.14992 34.184C4.93785 34.184 5.7019 34.184 6.48982 34.184C6.75247 34.184 6.82409 34.0876 6.82409 33.8466C6.82409 33.4369 6.82409 33.0272 6.82409 32.6175C6.82409 32.3043 6.68084 32.1356 6.39432 32.1356C4.91397 32.1356 3.40975 32.1356 1.92941 32.1356C1.64289 32.1356 1.47575 32.2802 1.47575 32.5934C1.47575 33.0031 1.47575 33.4128 1.47575 33.8225C1.47575 34.0635 1.57126 34.184 1.8339 34.1599C2.59795 34.184 3.38587 34.184 4.14992 34.184ZM4.1738 35.7745C3.362 35.7745 2.57407 35.7745 1.76227 35.7745C1.52351 35.7745 1.47575 35.895 1.47575 36.0637C1.47575 36.4975 1.47575 36.9313 1.47575 37.3651C1.47575 37.6301 1.61901 37.7988 1.88165 37.7988C3.38587 37.7988 4.91397 37.7988 6.41819 37.7988C6.65696 37.7988 6.82409 37.6542 6.82409 37.4133C6.82409 36.9554 6.82409 36.4975 6.82409 36.0396C6.82409 35.8709 6.75247 35.7745 6.53758 35.7745C5.74965 35.7745 4.96173 35.7745 4.1738 35.7745ZM51.7597 36.0637C50.9479 36.0637 50.16 36.0637 49.3482 36.0637C49.1094 36.0637 49.0617 36.1601 49.0617 36.3529C49.0617 36.7867 49.0617 37.2205 49.0617 37.6542C49.0617 37.9193 49.2049 38.088 49.4676 38.088C50.9718 38.088 52.4999 38.088 54.0041 38.088C54.2429 38.088 54.41 37.9434 54.41 37.7024C54.41 37.2446 54.41 36.7867 54.41 36.3288C54.41 36.1601 54.3384 36.0637 54.1235 36.0637C53.3356 36.0637 52.5476 36.0637 51.7597 36.0637ZM49.3721 22.5682C44.8117 24.1347 40.2512 25.677 35.7147 27.2193C35.7147 27.2434 35.7386 27.2675 35.7386 27.2916C40.4184 26.0385 45.0982 24.7853 49.8018 23.5081C49.6586 23.1948 49.5392 22.9056 49.3721 22.5682ZM15.3241 26.159C15.3241 26.1349 15.348 26.1108 15.348 26.0867C11.8859 24.9058 8.4477 23.725 4.9856 22.5682C4.86622 22.8333 4.77071 23.0502 4.67521 23.3153C8.23281 24.2552 11.7904 25.2191 15.3241 26.159ZM49.8735 43.1488C49.8735 43.2693 49.8496 43.3416 49.8496 43.438C49.8496 43.92 49.8496 43.9441 50.3271 43.9441C50.733 43.9441 51.1151 43.9441 51.521 43.9441C52.3089 43.9441 53.0729 43.9441 53.8609 43.9441C53.9802 43.9441 54.1474 43.8477 54.1951 43.7513C54.2429 43.5826 54.219 43.3657 54.219 43.1729C52.7148 43.1488 51.3061 43.1488 49.8735 43.1488ZM1.71452 42.8596C1.71452 42.9801 1.71452 43.0524 1.69064 43.1247C1.69064 43.6067 1.69064 43.6308 2.16817 43.6067C2.43081 43.6067 2.69346 43.5585 2.9561 43.5585C3.7679 43.5585 4.5797 43.6067 5.3915 43.6067C6.06005 43.6067 6.06005 43.6067 6.01229 42.9319C6.01229 42.9078 5.98842 42.8837 5.96454 42.8596C4.5797 42.8596 3.14711 42.8596 1.71452 42.8596Z" fill="#393939"/>
</svg>
