<svg width="130" height="120" viewBox="0 0 130 120" fill="none" xmlns="http://www.w3.org/2000/svg">
<path d="M106.5 47.0001C103.2 57.1001 92.4999 71.7001 80.1999 83.1001C79.9999 82.5001 79.6999 82.0001 79.2999 81.5001C78.2999 80.2001 76.8999 79.2001 75.2999 78.5001C72.9999 77.6001 69.9999 76.9001 66.8999 76.5001C67.8999 75.0001 68.7999 73.2001 69.7999 71.2001C70.8999 69.1001 71.9999 67.0001 72.9999 65.5001C74.4999 63.4001 75.7999 61.9001 77.2999 60.9001C79.9999 58.9001 83.2999 58.1001 86.7999 57.2001C89.9999 56.4001 93.3999 55.5001 96.2999 53.7001C93.1999 59.2001 89.1999 63.6001 84.5999 68.7001C84.2999 69.0001 84.2999 69.5001 84.5999 69.8001C84.7999 69.9001 84.8999 70.0001 85.0999 70.0001C85.2999 70.0001 85.4999 69.9001 85.6999 69.8001C92.5999 62.1001 97.9999 56.1001 101.4 45.9001C102.7 42.0001 103 40.3001 102.8 37.7001C102.6 35.5001 101.9 33.9001 100.5 32.5001C100.2 32.2001 99.6999 32.2001 99.3999 32.5001C99.0999 32.8001 99.0999 33.3001 99.3999 33.6001C100.2 34.4001 101.1 35.5001 101.2 37.8001C101.4 40.2001 101.1 41.7001 99.8999 45.4001C99.6999 45.9001 99.4999 46.4001 99.3999 46.9001C98.7999 45.4001 97.5999 44.1001 96.6999 43.4001C95.9999 42.9001 95.3999 42.4001 94.7999 41.9001C95.2999 39.1001 95.6999 36.1001 95.4999 33.1001C95.3999 31.7001 95.1999 30.0001 94.5999 28.3001C96.9999 28.8001 99.5999 29.4001 101.8 30.6001C104.8 32.2001 106.9 34.7001 107.6 37.4001C108.3 40.5001 107.4 44.0001 106.5 47.0001ZM77.4999 94.7001C77.2999 95.9001 77.0999 96.7001 76.5999 97.3001C75.9999 98.0001 74.6999 98.6001 73.2999 98.8001C64.5999 100.2 45.5999 99.7001 37.2999 98.8001C37.5999 98.1001 37.6999 97.3001 37.7999 96.6001C38.8999 95.8001 39.8999 94.6001 40.5999 93.6001L40.7999 93.3001C41.5999 92.2001 42.3999 91.2001 43.1999 90.1001C45.4999 87.0001 47.6999 84.0001 50.3999 81.5001C52.1999 81.9001 53.8999 82.2001 55.3999 82.2001C59.0999 82.2001 62.1999 81.1001 64.1999 79.5001C67.7999 79.8001 71.2999 80.5001 73.8999 81.5001C74.9999 81.9001 75.9999 82.6001 76.5999 83.4001C77.3999 84.5001 77.5999 86.1001 77.6999 87.7001C77.9999 90.1001 77.8999 92.2001 77.4999 94.7001ZM35.8999 94.2001C35.0999 94.7001 34.5999 94.9001 32.9999 94.3001C31.7999 93.9001 31.7999 93.4001 31.8999 93.0001C31.9999 92.2001 33.0999 90.1001 33.5999 89.2001L33.8999 88.6001C36.1999 84.3001 38.7999 80.9001 41.7999 77.1001C43.6999 78.5001 45.4999 79.5001 47.2999 80.3001C44.8999 82.7001 42.7999 85.5001 40.7999 88.2001C39.9999 89.3001 39.1999 90.3001 38.3999 91.4001L38.1999 91.7001C37.5999 92.6001 36.6999 93.8001 35.8999 94.2001ZM33.0999 99.6001C31.9999 100.3 30.4999 100.5 28.7999 100.3C26.8999 100.1 25.1999 99.6001 23.7999 98.9001C22.9999 98.5001 22.3999 98.1001 22.0999 97.8001C21.7999 97.5001 21.6999 97.2001 21.7999 97.1001C21.8999 96.8001 22.3999 96.4001 23.5999 96.1001C25.5999 95.6001 27.5999 95.4001 29.6999 95.6001C30.1999 96.3001 30.8999 96.9001 32.1999 97.3001C33.1999 97.6001 33.9999 97.8001 34.6999 97.8001C34.1999 98.6001 33.6999 99.2001 33.0999 99.6001ZM22.8999 83.2001C22.3999 82.3001 22.3999 81.6001 22.5999 81.4001C22.6999 81.2001 23.1999 81.1001 24.1999 81.2001C25.7999 81.4001 27.2999 81.9001 28.6999 82.7001C29.0999 84.2001 30.2999 85.5001 31.7999 86.2001C31.5999 86.5001 31.3999 86.8001 31.1999 87.2001L30.8999 87.8001C30.6999 88.2001 30.4999 88.6001 30.1999 89.0001C27.0999 88.2001 24.2999 86.0001 22.8999 83.2001ZM36.4999 70.7001C37.3999 69.4001 38.6999 68.3001 39.7999 67.9001C40.5999 67.6001 42.4999 67.7001 44.1999 68.3001L46.0999 68.9001C52.1999 70.8001 56.9999 72.4001 62.9999 76.7001C62.8999 76.8001 62.8999 76.8001 62.7999 76.9001C57.4999 81.6001 47.6999 78.6001 41.4999 73.0001C40.8999 72.4001 39.8999 72.5001 39.2999 73.1001C38.6999 73.7001 38.7999 74.7001 39.3999 75.2001C37.1999 78.0001 35.1999 80.6001 33.2999 83.5001C32.2999 83.2001 31.3999 82.2001 31.4999 81.3001C31.6999 78.1001 34.7999 73.1001 36.4999 70.7001ZM54.9999 58.9001C54.9999 59.4001 54.9999 59.9001 55.0999 60.4001C55.0999 61.4001 55.1999 62.3001 54.9999 63.1001C54.5999 64.7001 53.1999 66.1001 51.9999 67.3001C51.9999 67.4001 51.8999 67.4001 51.8999 67.5001C51.4999 67.3001 50.9999 67.2001 50.4999 67.0001C51.8999 64.3001 53.4999 61.6001 54.9999 58.9001ZM54.3999 44.2001C54.0999 43.4001 53.8999 42.5001 53.9999 41.7001C54.0999 40.9001 54.6999 40.0001 55.5999 39.4001C55.8999 39.1001 56.2999 38.9001 56.5999 38.7001C56.4999 41.0001 56.8999 43.3001 57.8999 45.1001C57.9999 45.4001 58.1999 45.6001 58.2999 45.9001C57.2999 46.4001 56.4999 47.1001 55.6999 47.9001C55.2999 46.6001 54.7999 45.4001 54.3999 44.2001ZM60.4999 48.3001C61.5999 49.3001 62.8999 50.1001 64.2999 50.6001C65.8999 51.2001 67.4999 51.5001 69.2999 51.5001C70.3999 51.5001 71.4999 51.4001 72.5999 51.2001C72.6999 51.2001 72.6999 51.2001 72.6999 51.2001L75.3999 51.0001C76.5999 50.9001 77.6999 50.8001 78.7999 50.7001C78.3999 52.6001 78.5999 54.6001 79.1999 56.5001C77.8999 57.1001 76.5999 57.8001 75.3999 58.6001C73.1999 60.2001 71.4999 62.4001 70.3999 63.9001C69.1999 65.6001 68.0999 67.8001 66.9999 70.0001C66.1999 71.5001 65.4999 72.9001 64.6999 74.2001C61.1999 71.7001 58.0999 70.0001 54.8999 68.7001C56.1999 67.4001 57.4999 65.9001 57.8999 63.8001C58.1999 62.6001 58.0999 61.4001 58.0999 60.3001C57.9999 59.7001 57.9999 59.1001 57.9999 58.5001C58.0999 56.4001 59.6999 54.7001 62.7999 53.4001C63.5999 53.1001 63.8999 52.2001 63.5999 51.4001C63.2999 50.6001 62.3999 50.3001 61.5999 50.6001C60.1999 51.2001 58.9999 51.9001 57.9999 52.8001C57.6999 52.3001 57.3999 51.8001 57.1999 51.3001C57.1999 51.3001 57.1999 51.3001 57.1999 51.2001C57.8999 49.8001 59.0999 48.8001 60.4999 48.3001ZM59.9999 36.6001C60.4999 34.3001 61.5999 32.2001 62.5999 30.4001C62.6999 30.4001 62.8999 30.5001 62.9999 30.5001C67.1999 31.4001 71.5999 31.2001 75.6999 30.0001C75.7999 31.7001 76.2999 33.3001 77.1999 35.0001C77.8999 36.2001 78.6999 37.5001 80.3999 38.4001C81.2999 38.9001 83.2999 39.5001 85.0999 39.5001C85.0999 39.9001 84.9999 40.2001 84.7999 40.5001C84.4999 40.9001 83.9999 41.0001 83.6999 41.1001C82.9999 41.2001 82.2999 40.8001 81.9999 40.2001C81.5999 39.4001 80.6999 39.1001 79.8999 39.5001C79.0999 39.9001 78.7999 40.8001 79.1999 41.6001C79.3999 42.1001 79.7999 42.6001 80.1999 43.0001C78.0999 45.6001 75.1999 47.5001 71.8999 48.1001C69.5999 48.6001 67.2999 48.4001 65.2999 47.7001C63.1999 46.9001 61.4999 45.4001 60.4999 43.6001C59.5999 41.7001 59.3999 39.2001 59.9999 36.6001ZM71.5999 23.0001H71.4999C68.3999 23.0001 65.2999 23.8001 62.5999 25.3001C64.8999 22.1001 68.7999 20.1001 72.7999 20.1001H72.8999C76.9999 20.1001 81.5999 22.4001 83.7999 25.6001C85.6999 28.3001 86.4999 31.7001 86.1999 34.8001C85.6999 32.3001 84.7999 29.9001 83.3999 27.7001C83.1999 27.3001 82.6999 27.3001 82.2999 27.5001C81.8999 27.8001 81.7999 28.2001 82.0999 28.6001C83.6999 31.0001 84.5999 33.7001 84.8999 36.5001C83.8999 36.4001 82.7999 36.2001 82.0999 35.8001C81.2999 35.4001 80.7999 34.8001 80.0999 33.6001C79.0999 31.7001 78.7999 30.1001 78.9999 28.1001C79.0999 27.5001 78.8999 27.0001 78.3999 26.7001C78.0999 26.5001 77.7999 26.4001 77.3999 26.4001C77.1999 26.4001 76.9999 26.4001 76.7999 26.5001C72.6999 28.2001 67.9999 28.6001 63.6999 27.6001C63.0999 27.5001 62.6999 27.3001 62.4999 27.2001C65.1999 25.5001 68.2999 24.6001 71.4999 24.6001H71.5999C71.9999 24.6001 72.3999 24.3001 72.3999 23.8001C72.3999 23.4001 71.9999 23.0001 71.5999 23.0001ZM89.7999 25.7001C91.7999 28.1001 92.3999 31.2001 92.4999 33.3001C92.5999 35.4001 92.3999 37.6001 92.0999 39.7001C90.9999 38.9001 89.8999 38.1001 88.7999 37.3001C89.9999 33.0001 89.0999 27.7001 86.2999 23.7001C86.0999 23.5001 85.8999 23.2001 85.6999 23.0001C87.1999 23.5001 88.6999 24.4001 89.7999 25.7001ZM80.2999 47.4001C81.2999 46.6001 82.0999 45.7001 82.8999 44.7001C83.6999 45.5001 84.6999 46.4001 85.5999 47.2001C83.6999 47.3001 81.9999 47.3001 80.2999 47.4001ZM82.0999 50.4001C84.2999 50.3001 86.4999 50.2001 89.2999 50.2001C89.5999 50.4001 89.8999 50.7001 90.0999 50.9001C90.3999 51.2001 90.7999 51.3001 91.0999 51.3001C91.4999 51.3001 91.8999 51.1001 92.1999 50.8001C92.7999 50.2001 92.6999 49.2001 92.0999 48.6001C91.1999 47.8001 90.1999 47.0001 89.0999 46.1001C88.0999 45.3001 86.9999 44.4001 86.0999 43.5001C86.5999 43.2001 86.9999 42.8001 87.3999 42.3001C87.6999 41.9001 87.9999 41.4001 88.0999 40.7001C90.1999 42.2001 92.2999 43.9001 94.6999 45.8001C95.7999 46.7001 96.5999 48.0001 96.4999 48.7001C96.3999 49.6001 95.7999 50.3001 94.7999 51.0001C92.1999 52.7001 89.0999 53.5001 85.8999 54.3001C84.6999 54.6001 83.3999 54.9001 82.1999 55.3001C81.6999 53.8001 81.6999 52.0001 82.0999 50.4001ZM110.6 36.7001C109.8 33.1001 107.1 29.9001 103.3 27.9001C99.9999 26.1001 96.2999 25.4001 92.9999 24.9001C92.6999 24.5001 92.3999 24.1001 92.0999 23.7001C89.5999 20.8001 85.7999 19.3001 82.3999 20.0001C82.2999 20.0001 82.2999 20.0001 82.1999 20.1001C79.3999 18.2001 75.9999 17.1001 72.7999 17.1001C67.8999 17.0001 62.8999 19.5001 59.9999 23.5001C59.5999 24.0001 58.4999 25.7001 58.9999 27.5001C59.1999 28.1001 59.4999 28.6001 59.8999 29.0001C58.8999 30.7001 57.8999 32.7001 57.2999 34.9001C56.0999 35.4001 54.8999 35.9001 53.6999 36.8001C52.0999 38.0001 51.0999 39.6001 50.8999 41.2001C50.6999 42.6001 51.0999 43.9001 51.4999 45.1001C52.3999 47.9001 53.5999 50.6001 54.9999 53.3001C52.3999 57.4001 49.8999 61.7001 47.5999 66.1001C47.3999 66.0001 47.1999 66.0001 46.9999 65.9001L45.0999 65.3001C44.3999 65.1001 40.8999 64.0001 38.5999 65.0001C36.6999 65.8001 34.8999 67.6001 33.9999 68.8001C33.1999 69.9001 29.7999 74.8001 28.6999 79.2001C27.3999 78.6001 25.8999 78.2001 24.4999 78.0001C22.5999 77.8001 21.0999 78.2001 20.1999 79.3001C19.0999 80.6001 19.0999 82.4001 20.0999 84.5001C21.8999 88.0001 25.1999 90.7001 28.8999 91.8001C28.7999 92.0001 28.7999 92.2001 28.7999 92.4001C26.6999 92.3001 24.5999 92.5001 22.5999 93.0001C19.7999 93.7001 18.8999 95.2001 18.5999 96.2001C18.2999 97.4001 18.6999 98.7001 19.6999 99.8001C20.2999 100.4 21.0999 101 22.2999 101.6C24.0999 102.5 26.0999 103 28.2999 103.3C28.7999 103.4 29.3999 103.4 29.8999 103.4C31.6999 103.4 33.3999 102.9 34.6999 102.1C34.9999 101.9 35.1999 101.8 35.3999 101.6C39.6999 102.2 48.5999 102.7 57.2999 102.7C63.5999 102.7 69.5999 102.4 73.7999 101.8C74.5999 101.7 77.2999 101.1 78.8999 99.2001C80.0999 97.9001 80.3999 96.2001 80.5999 95.0001C80.8999 92.7001 81.0999 90.3001 80.9999 87.5001C80.9999 87.2001 80.9999 86.9001 80.8999 86.6001C94.3999 74.5001 105.8 59.0001 109.4 48.0001C110.5 44.6001 111.5 40.5001 110.6 36.7001Z" fill="#393939"/>
<path d="M68.4999 89.0001C68.4999 89.4001 68.1999 89.8001 67.7999 89.8001C65.4999 89.9001 63.1999 90.0001 60.9999 90.0001C56.5999 90.0001 52.2999 89.8001 47.8999 89.4001C47.4999 89.4001 47.1999 89.0001 47.1999 88.6001C47.1999 88.2001 47.5999 87.9001 47.9999 87.9001C54.4999 88.5001 61.0999 88.7001 67.6999 88.3001C68.0999 88.2001 68.3999 88.5001 68.4999 89.0001Z" fill="#393939"/>
<path d="M72.9999 88.8001C72.9999 89.2001 72.6999 89.6001 72.2999 89.6001L70.5999 89.7001H70.4999C70.0999 89.7001 69.7999 89.4001 69.6999 89.0001C69.6999 88.6001 69.9999 88.2001 70.3999 88.2001L72.0999 88.1001C72.5999 88.1001 72.8999 88.4001 72.9999 88.8001Z" fill="#393939"/>
<path d="M83.9999 71.6001L83.1999 72.4001C82.9999 72.6001 82.7999 72.6001 82.6999 72.6001C82.4999 72.6001 82.2999 72.5001 82.0999 72.4001C81.7999 72.1001 81.7999 71.6001 82.0999 71.3001L82.8999 70.5001C83.1999 70.2001 83.6999 70.2001 83.9999 70.5001C84.2999 70.8001 84.2999 71.3001 83.9999 71.6001Z" fill="#393939"/>
<path d="M65.3999 39.7001C65.3999 39.9001 65.3999 40.0001 65.6999 40.4001C65.9999 40.7001 65.9999 41.2001 65.5999 41.5001C65.3999 41.6001 65.2999 41.7001 65.0999 41.7001C64.8999 41.7001 64.6999 41.6001 64.4999 41.4001C64.0999 40.9001 63.6999 40.4001 63.7999 39.5001C63.9999 38.5001 65.0999 37.4001 65.1999 37.3001C65.4999 37.0001 65.9999 37.0001 66.2999 37.4001C66.5999 37.7001 66.5999 38.2001 66.1999 38.5001C65.7999 38.9001 65.4999 39.5001 65.3999 39.7001Z" fill="#393939"/>
<path d="M81.5999 74.1001L77.9999 77.4001C77.7999 77.5001 77.6999 77.6001 77.4999 77.6001C77.2999 77.6001 77.0999 77.5001 76.8999 77.4001C76.5999 77.1001 76.5999 76.6001 76.8999 76.3001L80.3999 72.9001C80.6999 72.6001 81.1999 72.6001 81.4999 72.9001C81.8999 73.3001 81.8999 73.8001 81.5999 74.1001Z" fill="#393939"/>
<path d="M64.6999 63.9001C64.4999 64.0001 64.3999 64.0001 64.2999 64.0001C63.9999 64.0001 63.7999 63.9001 63.5999 63.6001C62.5999 61.9001 62.1999 60.0001 62.1999 58.1001C62.1999 57.7001 62.4999 57.3001 62.9999 57.3001C63.3999 57.3001 63.7999 57.7001 63.7999 58.1001C63.7999 59.7001 64.1999 61.4001 64.9999 62.8001C65.0999 63.2001 64.9999 63.7001 64.6999 63.9001Z" fill="#393939"/>
<path d="M66.6999 33.6001C66.4999 34.2001 66.1999 35.0001 65.6999 35.6001C65.1999 36.1001 64.4999 36.5001 63.6999 36.5001C63.4999 36.5001 63.2999 36.5001 63.0999 36.4001C62.2999 36.2001 61.6999 35.5001 61.4999 34.6001C61.3999 34.0001 61.4999 33.2001 61.6999 32.6001V32.4001C61.7999 32.0001 62.1999 31.7001 62.5999 31.8001C62.9999 31.9001 63.2999 32.3001 63.1999 32.7001V32.8001C63.0999 33.2001 62.9999 33.8001 62.9999 34.2001C62.9999 34.4001 63.1999 34.7001 63.4999 34.8001C63.7999 34.9001 64.2999 34.7001 64.5999 34.4001C64.8999 34.0001 65.0999 33.5001 65.2999 33.0001C65.3999 32.6001 65.8999 32.4001 66.2999 32.5001C66.5999 32.8001 66.7999 33.2001 66.6999 33.6001Z" fill="#393939"/>
<path d="M73.7999 34.6001C73.5999 36.1001 72.8999 37.2001 71.8999 37.6001C71.4999 37.8001 71.0999 37.8001 70.6999 37.8001C69.8999 37.8001 69.0999 37.5001 68.4999 36.9001C67.5999 35.9001 67.7999 34.4001 67.8999 33.7001C67.9999 33.3001 68.3999 33.0001 68.7999 33.1001C69.1999 33.2001 69.4999 33.5001 69.3999 34.0001C69.2999 34.7001 69.1999 35.5001 69.5999 35.9001C69.9999 36.3001 70.6999 36.5001 71.2999 36.2001C71.8999 35.9001 72.1999 34.9001 72.1999 34.4001C72.2999 34.0001 72.6999 33.7001 73.0999 33.7001C73.5999 33.8001 73.8999 34.2001 73.7999 34.6001Z" fill="#393939"/>
<path d="M67.6999 43.8001C67.0999 44.5001 66.1999 45.0001 65.2999 45.0001C64.9999 45.0001 64.7999 45.0001 64.5999 44.9001C63.4999 44.6001 62.5999 43.6001 62.3999 42.4001C62.2999 42.0001 62.5999 41.6001 63.0999 41.5001C63.4999 41.4001 63.8999 41.7001 63.9999 42.2001C64.0999 42.7001 64.4999 43.2001 64.9999 43.4001C65.4999 43.5001 66.1999 43.3001 66.4999 42.9001C66.7999 42.6001 67.1999 42.5001 67.5999 42.8001C67.8999 43.0001 67.8999 43.4001 67.6999 43.8001Z" fill="#393939"/>
</svg>
