<svg width="60" height="64" viewBox="0 0 60 64" fill="none" xmlns="http://www.w3.org/2000/svg">
<g clip-path="url(#clip0_593_338)">
<mask id="path-1-outside-1_593_338" maskUnits="userSpaceOnUse" x="-1" y="3" width="62" height="57" fill="black">
<rect fill="white" x="-1" y="3" width="62" height="57"/>
<path d="M25.4708 49.1619C24.4908 49.0782 23.5639 49.0249 22.6371 48.9259C20.3123 48.6824 17.98 48.4768 15.6629 48.1647C13.2698 47.8451 10.8919 47.4188 8.51399 47.0306C7.42 46.8555 6.64509 46.1552 5.95375 45.3712C3.9633 43.1105 2.60341 40.4996 1.91208 37.569C1.41066 35.4529 0.924448 33.3369 0.529397 31.2055C0.0735685 28.7621 -0.0555828 26.2807 0.0203886 23.7916C0.141943 19.6812 0.901656 15.6926 2.17038 11.7953C2.93009 9.45085 4.5103 7.85236 6.58431 6.6573C7.61752 6.06358 8.77229 5.87328 9.91186 5.69059C12.2214 5.31761 14.5309 4.93702 16.848 4.64777C18.7701 4.4118 20.6998 4.24434 22.6295 4.16061C25.1441 4.04643 27.6664 3.95509 30.181 4.0236C33.0527 4.09972 35.9169 4.30524 38.781 4.5412C41.9718 4.80762 45.1246 5.33284 48.2622 5.97223C50.0703 6.34521 51.4986 7.3652 52.7293 8.68205C53.132 9.11593 53.4435 9.62592 53.8157 10.0902C54.036 10.3719 54.2639 10.6687 54.545 10.8819C56.1632 12.1074 57.318 13.6298 57.9334 15.6012C59.2249 19.7345 59.9846 23.9514 59.9998 28.2902C60.015 33.0552 59.278 37.7137 57.5763 42.159C56.4595 45.0743 54.1728 46.8936 51.0731 47.4492C48.0799 47.9897 45.0562 48.4083 42.0401 48.7965C41.2804 48.8955 40.8094 49.1315 40.3612 49.748C37.4591 53.7519 33.5086 56.18 28.7452 57.3523C26.6028 57.8775 24.4376 58.2428 22.242 58.4179C20.0996 58.5854 17.9496 58.6843 15.7996 58.8214C15.5337 58.8366 15.2754 58.8975 15.0171 58.9584C14.7512 59.0193 14.4929 59.0573 14.379 58.7452C14.2726 58.4636 14.4625 58.3114 14.6981 58.1819C16.6505 57.0706 18.5042 55.8299 20.2668 54.4293C22.1129 52.9602 23.845 51.3617 25.2733 49.474C25.3265 49.3826 25.3796 49.2913 25.4708 49.1619ZM32.9236 55.0383C32.7109 54.9621 32.4222 54.9469 32.3006 54.7947C31.8372 54.2238 31.427 53.6148 30.9711 52.9754C30.69 53.1505 30.333 53.3636 29.9683 53.5844C30.0063 53.6757 30.0291 53.7366 30.0595 53.7899C30.3178 54.2542 30.5913 54.7109 30.8496 55.1753C30.9939 55.4341 30.9787 55.6777 30.69 55.8223C30.4089 55.9593 30.295 55.7385 30.181 55.5254C29.8999 55.0078 29.596 54.4978 29.2922 53.965C28.8819 54.1781 28.4869 54.376 28.0842 54.5892C28.2817 55.2438 28.768 55.7994 28.6692 56.553C30.1582 56.18 31.5637 55.6777 32.9236 55.0306C33.4098 54.7718 33.9036 54.513 34.443 54.2238C33.8276 53.3941 33.2503 52.6025 32.6577 51.8032C32.3462 52.0316 32.0651 52.2371 31.7992 52.4274C31.8068 53.1734 32.2626 53.6529 32.7109 54.1324C32.954 54.4065 33.1135 54.6729 32.9236 55.0383ZM17.4102 57.4664C17.4178 57.4893 17.4254 57.5045 17.4406 57.5273C18.094 57.3447 18.7473 57.1696 19.4007 56.9793C22.6674 56.0202 25.8734 54.9012 28.8819 53.2875C32.4905 51.3541 35.4382 48.7813 37.1172 44.9373C37.1856 44.7775 37.4591 44.6328 37.649 44.61C41.0525 44.2903 44.4332 43.8184 47.776 43.1333C50.5413 42.5624 52.5774 40.9335 53.5802 38.3378C55.0312 34.5624 55.7378 30.5966 55.9049 26.5471C56.0948 21.98 55.4795 17.5118 54.1576 13.135C53.7321 11.7192 53.2763 10.3414 52.2051 9.24533C51.0048 8.01982 49.6829 7.00744 47.9431 6.71058C45.626 6.31477 43.3165 5.8885 40.9841 5.59164C38.6518 5.29478 36.3043 5.03597 33.9568 4.93702C30.8724 4.80762 27.7803 4.75434 24.6959 4.8609C21.7634 4.95986 18.8385 5.23388 15.9212 5.56119C13.6041 5.82 11.2945 6.23104 9.0002 6.67252C6.21205 7.20535 4.16083 8.84951 3.15041 11.4604C1.71455 15.1597 1.01561 19.0494 0.833282 23.0228C0.612965 27.666 1.21314 32.2103 2.56543 36.6632C2.96808 37.9877 3.36313 39.3046 4.33556 40.355C5.51312 41.6414 6.82742 42.7451 8.58236 43.0572C11.682 43.5976 14.7892 44.1 17.9116 44.4882C21.1252 44.8917 24.3692 45.0287 27.6056 45.0515C28.2286 45.0591 28.3577 45.2342 28.1602 45.8203C27.6816 47.2361 26.9522 48.5149 26.0634 49.71C24.1793 52.2447 21.8318 54.2999 19.2867 56.142C18.6714 56.5911 18.0332 57.025 17.4102 57.4664ZM51.5138 42.2884C51.9468 42.7908 52.4178 43.2703 52.7901 43.8108C53.1624 44.3512 53.4435 44.9525 53.8005 45.5843C54.3247 45.1352 54.8337 44.709 55.3123 44.2979C54.9401 43.727 54.6362 43.1866 54.2487 42.7071C53.8461 42.2123 53.3751 41.7708 52.9116 41.3293C52.8509 41.2684 52.6382 41.2684 52.5698 41.3293C52.1823 41.649 51.8177 42.0068 51.5138 42.2884ZM53.1396 45.9878C52.4862 44.7546 52.0076 43.4911 50.7541 42.8212C50.2678 43.0724 49.7892 43.3236 49.3334 43.5596C49.9944 44.5111 50.6325 45.4473 51.2935 46.376C51.3542 46.4673 51.529 46.5739 51.6125 46.5434C52.1215 46.3836 52.623 46.1857 53.1396 45.9878ZM56.1252 18.0294C56.3 18.8134 56.1252 19.6431 56.9761 20.0542C57.0749 20.0998 57.1433 20.2064 57.2192 20.2977C57.6143 20.7545 58.0093 21.2188 58.412 21.6679C58.5791 21.8506 58.6779 22.0256 58.4803 22.2235C58.2828 22.4215 58.0625 22.391 57.8802 22.2007C57.6751 21.98 57.4775 21.7516 57.28 21.5156C57.0521 21.2416 56.8242 20.96 56.5963 20.6859C56.5659 20.7012 56.5355 20.7164 56.5127 20.7316C56.5659 21.3558 56.6191 21.98 56.6646 22.5509C56.8318 22.6498 56.9989 22.6955 57.0673 22.802C57.4927 23.5176 58.2524 23.7002 58.921 24.0504C58.9362 23.9971 58.9514 23.9743 58.9514 23.9514C58.7007 22.4976 58.4576 21.0437 58.1993 19.5898C58.1841 19.5137 58.1385 19.4148 58.0701 19.3691C57.4471 18.92 56.8166 18.5013 56.1252 18.0294ZM9.45603 44.1685C9.44084 44.1229 9.42564 44.0772 9.41045 44.0315C9.0078 43.9478 8.60515 43.8564 8.19491 43.7803C8.13413 43.7727 8.05056 43.8108 7.99738 43.8412C7.49597 44.1457 6.99456 44.4578 6.49315 44.7699C6.48555 44.7546 6.53113 44.8155 6.57672 44.8688C7.4048 45.904 8.53678 46.3227 9.8131 46.4749C10.3677 46.5434 10.6488 46.4064 10.7931 45.8584C10.9223 45.3636 10.9907 44.8536 11.0894 44.3512C10.6412 44.1837 10.3221 44.1837 9.95744 44.5948C9.532 45.0743 8.95462 45.4321 8.41522 45.8051C8.30886 45.8812 8.06575 45.8507 7.9442 45.7746C7.86063 45.7213 7.82265 45.493 7.86063 45.3712C7.89102 45.2646 8.05056 45.1809 8.15692 45.0972C8.58236 44.8003 9.0154 44.4882 9.45603 44.1685ZM37.3907 46.1781C38.2416 47.1448 39.0697 48.0962 39.9053 49.0477C40.2548 48.7128 40.3612 48.0962 41.0145 48.1039C40.3992 47.2209 39.8142 46.3607 39.2216 45.5158C39.1532 45.4169 39.0317 45.2951 38.9177 45.2799C38.0668 45.1733 37.7402 45.3788 37.3907 46.1781ZM56.9761 41.4815C57.6067 40.1342 57.5915 40.0125 56.657 39.0077C56.5051 38.8402 56.3531 38.6652 56.1784 38.5205C55.7226 38.1704 55.2516 37.8355 54.7426 37.4625C54.583 37.9192 54.4919 38.2846 54.3323 38.6271C54.1956 38.9163 54.2411 39.1371 54.4691 39.335C55.2971 40.0505 56.1328 40.7584 56.9761 41.4815ZM59.0957 27.7421C59.1337 27.7117 59.1717 27.6812 59.2097 27.6432C59.1641 26.8363 59.1337 26.0295 59.0729 25.2226C59.0653 25.1008 58.9514 24.9334 58.845 24.8725C58.1461 24.4614 57.4319 24.0732 56.7102 23.6622C56.7102 24.4005 56.7026 25.1237 56.7178 25.8392C56.7178 25.9229 56.7938 26.0371 56.8698 26.0904C57.1584 26.3035 57.4699 26.4938 57.7586 26.7069C58.2144 27.0571 58.6475 27.3996 59.0957 27.7421ZM38.5531 50.7452C38.8873 50.3493 39.2292 49.9231 39.5483 49.5425C39.3432 49.3979 39.1456 49.3065 39.0165 49.1543C38.5227 48.6138 38.0517 48.0582 37.5654 47.5025C37.3907 47.3046 37.2008 47.1067 37.0032 46.9012C36.6614 47.434 36.3499 47.9059 36.046 48.3703C36.8817 49.1619 37.7022 49.9383 38.5531 50.7452ZM42.4352 44.8384C42.9898 45.8355 43.5216 46.787 44.0838 47.7918C44.5624 47.7233 45.1474 47.6395 45.8463 47.5482C45.6184 47.0915 45.4665 46.6728 45.2233 46.3227C44.8511 45.7822 44.4256 45.2799 44.0078 44.7775C43.947 44.7014 43.7951 44.6633 43.6887 44.6709C43.2785 44.709 42.8758 44.7775 42.4352 44.8384ZM48.9839 47.0534C49.455 46.9621 50.0171 46.8631 50.6857 46.7413C49.9488 45.7518 49.2726 44.8384 48.5889 43.9326C48.5433 43.8717 48.4141 43.826 48.3382 43.8412C47.9203 43.9097 47.5101 44.0011 47.153 44.0772C47.7456 45.0515 48.3382 46.0182 48.9839 47.0534ZM39.9053 45.1657C40.0041 45.3179 40.0649 45.4245 40.1333 45.5234C40.5511 46.14 40.9917 46.7413 41.3944 47.3655C41.5159 47.5482 41.5235 47.807 41.5995 48.0658C42.0477 48.0125 42.6099 47.9516 43.2405 47.8831C43.081 47.533 42.967 47.2285 42.8075 46.9469C42.4504 46.3227 42.0781 45.7061 41.6983 45.1048C41.6527 45.0287 41.5008 44.9678 41.402 44.9754C40.931 45.0287 40.4599 45.0972 39.9053 45.1657ZM34.0404 50.6158C33.7745 50.8517 33.4858 51.1105 33.2275 51.3465C33.8504 52.1838 34.4506 52.9831 35.0736 53.8127C35.537 53.4702 35.9928 53.1353 36.4259 52.808C35.6813 52.0087 35.1723 50.9888 34.0404 50.6158ZM48.171 47.1904C47.5785 46.2009 47.1302 45.1885 46.3021 44.4273C46.2338 44.3664 46.1426 44.2675 46.0666 44.2751C45.6336 44.3284 45.2082 44.4121 44.7295 44.4882C45.4361 45.4549 46.3249 46.2237 46.5073 47.4492C47.0695 47.3655 47.5937 47.2818 48.171 47.1904ZM55.8138 43.7346C56.0797 43.3312 56.3076 42.9582 56.5583 42.6005C56.7254 42.3569 56.7026 42.1818 56.4671 41.9915C55.5706 41.2684 54.6818 40.5301 53.7853 39.7917C53.6106 40.0429 53.4207 40.3169 53.2155 40.6138C54.3931 41.3674 55.054 42.5396 55.8138 43.7346ZM55.3655 35.2855C55.2212 35.8031 55.0768 36.3055 54.9249 36.8383C56.11 37.257 56.9001 38.1552 57.7434 39.0914C57.8802 38.5738 58.0017 38.1399 58.1005 37.6984C58.1157 37.6223 58.0625 37.5005 57.9941 37.4473C57.1357 36.7317 56.262 36.0238 55.3655 35.2855ZM55.8441 33.2836C55.7758 33.5728 55.7378 33.8392 55.6542 34.0828C55.5706 34.3188 55.6466 34.4558 55.8214 34.608C56.2468 34.981 56.657 35.3844 57.0825 35.7574C57.4699 36.0923 57.8802 36.412 58.3132 36.7698C58.3968 36.3664 58.4652 36.0315 58.5183 35.6965C58.5335 35.6128 58.5563 35.4986 58.5107 35.4453C58.1993 35.0724 57.9106 34.6537 57.5307 34.3568C57.0217 33.9534 56.4367 33.6489 55.8441 33.2836ZM38.0137 51.2628C37.2008 50.494 36.4031 49.7404 35.5902 48.964C35.2483 49.3522 34.952 49.6871 34.6481 50.0373C35.6965 50.5549 36.3043 51.4531 36.9501 52.3817C37.2691 52.0392 37.5958 51.689 38.0137 51.2628ZM12.7304 46.8555C12.7456 46.8936 12.7532 46.9316 12.7684 46.9773C13.5357 47.0915 14.2954 47.198 14.9716 47.297C15.2071 46.3607 16.1567 45.9649 16.4606 45.1276C15.868 45.0515 15.3058 44.983 14.7284 44.9069C14.6297 45.5539 14.1739 45.8888 13.68 46.1933C13.3458 46.3836 13.0419 46.6348 12.7304 46.8555ZM58.9894 32.6061C59.0349 32.0352 59.0805 31.5633 59.0957 31.0914C59.0957 31.0229 59.0046 30.9239 58.9362 30.8706C58.45 30.5052 57.9561 30.1627 57.4699 29.7973C57.1584 29.5614 56.8622 29.3102 56.4899 29.0133C56.5203 29.5462 56.3456 29.9115 56.6115 30.4291C57.1433 31.4643 58.1081 31.8754 58.9894 32.6061ZM27.3701 45.8051C26.8079 45.8051 26.3825 45.8203 25.957 45.7975C25.7291 45.7898 25.6227 45.8736 25.5392 46.0791C25.2353 46.8251 25.0757 47.6471 24.392 48.2865C24.7719 48.3094 25.0833 48.2865 25.3644 48.355C25.8886 48.4844 26.2001 48.3018 26.39 47.8222C26.4508 47.67 26.5572 47.5406 26.6256 47.3883C26.8611 46.8936 27.089 46.3912 27.3701 45.8051ZM18.8233 45.3788C18.3523 45.3331 17.9268 45.2799 17.5014 45.2494C17.4026 45.2418 17.2735 45.3103 17.2051 45.394C16.8177 45.8736 16.453 46.3684 16.0731 46.8555C15.944 47.023 15.7996 47.1752 15.6173 47.3807C16.2707 47.4645 16.848 47.533 17.2887 47.5862C17.4938 47.3274 17.6078 47.1295 17.7749 46.9849C18.2763 46.5586 18.6941 46.0867 18.8233 45.3788ZM24.901 45.7213C24.3692 45.7213 23.9438 45.7137 23.5183 45.729C23.45 45.729 23.3588 45.7975 23.3284 45.8584C22.903 46.5967 22.4927 47.3427 22.0749 48.0886C22.1129 48.0886 22.1964 48.1039 22.28 48.1115C22.7434 48.1419 23.2448 48.3703 23.5943 47.8451C23.6095 47.8146 23.6703 47.8222 23.6931 47.7918C23.921 47.571 24.2173 47.3807 24.3692 47.1067C24.5819 46.7109 24.6959 46.2694 24.901 45.7213ZM56.6874 26.8059C56.6494 27.2626 56.6115 27.6508 56.6039 28.039C56.6039 28.1303 56.6798 28.2445 56.7558 28.3054C57.242 28.7012 57.7434 29.0894 58.2372 29.4776C58.5183 29.6984 58.8146 29.9039 59.1945 30.1779C59.1945 29.6756 59.1869 29.2873 59.2021 28.8991C59.2097 28.686 59.1261 28.5794 58.9438 28.4577C58.3208 28.039 57.713 27.5823 57.1053 27.1408C56.9837 27.0418 56.8622 26.9429 56.6874 26.8059ZM14.0219 44.9145C13.9991 44.8764 13.9763 44.8308 13.9459 44.7927C13.2394 44.6861 12.5405 44.5796 11.8187 44.4654C11.6516 45.2418 11.4921 45.9725 11.3249 46.7337C11.6212 46.7794 11.9631 46.8327 12.3733 46.9012C12.0998 46.4901 12.2746 46.2389 12.5481 46.041C12.8671 45.8127 13.209 45.6224 13.5281 45.3864C13.7104 45.257 13.8548 45.0743 14.0219 44.9145ZM19.583 45.4473C19.4387 46.3988 18.8461 47.061 18.1092 47.6852C18.7017 47.7537 19.2032 47.807 19.6438 47.8603C20.168 47.1371 20.791 46.513 20.791 45.5539C20.4035 45.5158 20.0312 45.4854 19.583 45.4473ZM56.186 31.4567C56.1556 31.5937 56.1252 31.8145 56.0645 32.0352C55.9733 32.3397 56.0569 32.5452 56.3304 32.7279C57.1357 33.2379 57.9334 33.7707 58.7538 34.3112C58.769 34.2198 58.7614 34.0752 58.807 33.9534C58.959 33.55 58.7614 33.3369 58.4576 33.1237C57.6902 32.5833 56.9381 32.0124 56.186 31.4567ZM25.3113 55.8071C24.5363 56.0963 23.807 56.3703 23.0245 56.6596C23.1309 56.8575 23.1992 57.0249 23.3132 57.1772C23.3968 57.2914 23.5259 57.4664 23.6247 57.4588C24.354 57.3827 25.0833 57.2761 25.8507 57.1696C25.6607 56.6824 25.4936 56.2638 25.3113 55.8071ZM28.183 56.6824C27.9171 56.0887 27.6664 55.5102 27.4005 54.9089C26.9294 55.122 26.4888 55.3123 26.0254 55.5178C26.2153 56.0278 26.3976 56.4997 26.5876 57.0173C27.1346 56.9032 27.6816 56.789 28.183 56.6824ZM54.6134 11.9475C54.8109 12.625 54.9781 13.1883 55.1528 13.7592C55.1756 13.8277 55.2516 13.881 55.3123 13.9342C55.4491 14.0636 55.639 14.1626 55.7226 14.3148C56.0341 14.8781 56.4595 15.312 57.0901 15.6773C56.695 14.1093 55.7986 12.998 54.6134 11.9475ZM57.8802 18.273C57.7282 17.7554 57.5915 17.2606 57.4471 16.7735C57.4319 16.7202 57.3864 16.6593 57.3408 16.6288C56.7634 16.2863 56.186 15.9514 55.639 15.6241C55.7226 16.0275 55.8138 16.4842 55.9125 16.9333C55.9277 17.0018 55.9505 17.0932 56.0037 17.1312C56.6115 17.5042 57.2268 17.8696 57.8802 18.273ZM5.93856 44.199C6.43237 43.9402 6.82742 43.727 7.1617 43.552C6.21205 42.905 5.26241 42.2579 4.32037 41.6109C4.30517 41.6186 4.28998 41.6186 4.26719 41.6262C4.83697 42.5015 5.40676 43.3845 5.93856 44.199ZM21.5811 45.6072C21.4975 46.4978 21.1024 47.2285 20.5403 47.944C20.9353 47.9745 21.2544 48.0049 21.6722 48.043C21.3759 47.7309 21.4823 47.5101 21.6342 47.297C21.847 47.0001 22.0673 46.7033 22.2572 46.3912C22.394 46.1781 22.4851 45.9345 22.6219 45.6757C22.2344 45.6452 21.9305 45.63 21.5811 45.6072ZM22.2952 56.9108C21.3987 57.2076 20.5403 57.4893 19.6818 57.7709C19.6894 57.8014 19.6894 57.8242 19.697 57.8546C20.677 57.7709 21.6494 57.6872 22.6826 57.5958C22.5307 57.3218 22.4167 57.1315 22.2952 56.9108Z"/>
</mask>
<path d="M25.4708 49.1619C24.4908 49.0782 23.5639 49.0249 22.6371 48.9259C20.3123 48.6824 17.98 48.4768 15.6629 48.1647C13.2698 47.8451 10.8919 47.4188 8.51399 47.0306C7.42 46.8555 6.64509 46.1552 5.95375 45.3712C3.9633 43.1105 2.60341 40.4996 1.91208 37.569C1.41066 35.4529 0.924448 33.3369 0.529397 31.2055C0.0735685 28.7621 -0.0555828 26.2807 0.0203886 23.7916C0.141943 19.6812 0.901656 15.6926 2.17038 11.7953C2.93009 9.45085 4.5103 7.85236 6.58431 6.6573C7.61752 6.06358 8.77229 5.87328 9.91186 5.69059C12.2214 5.31761 14.5309 4.93702 16.848 4.64777C18.7701 4.4118 20.6998 4.24434 22.6295 4.16061C25.1441 4.04643 27.6664 3.95509 30.181 4.0236C33.0527 4.09972 35.9169 4.30524 38.781 4.5412C41.9718 4.80762 45.1246 5.33284 48.2622 5.97223C50.0703 6.34521 51.4986 7.3652 52.7293 8.68205C53.132 9.11593 53.4435 9.62592 53.8157 10.0902C54.036 10.3719 54.2639 10.6687 54.545 10.8819C56.1632 12.1074 57.318 13.6298 57.9334 15.6012C59.2249 19.7345 59.9846 23.9514 59.9998 28.2902C60.015 33.0552 59.278 37.7137 57.5763 42.159C56.4595 45.0743 54.1728 46.8936 51.0731 47.4492C48.0799 47.9897 45.0562 48.4083 42.0401 48.7965C41.2804 48.8955 40.8094 49.1315 40.3612 49.748C37.4591 53.7519 33.5086 56.18 28.7452 57.3523C26.6028 57.8775 24.4376 58.2428 22.242 58.4179C20.0996 58.5854 17.9496 58.6843 15.7996 58.8214C15.5337 58.8366 15.2754 58.8975 15.0171 58.9584C14.7512 59.0193 14.4929 59.0573 14.379 58.7452C14.2726 58.4636 14.4625 58.3114 14.6981 58.1819C16.6505 57.0706 18.5042 55.8299 20.2668 54.4293C22.1129 52.9602 23.845 51.3617 25.2733 49.474C25.3265 49.3826 25.3796 49.2913 25.4708 49.1619ZM32.9236 55.0383C32.7109 54.9621 32.4222 54.9469 32.3006 54.7947C31.8372 54.2238 31.427 53.6148 30.9711 52.9754C30.69 53.1505 30.333 53.3636 29.9683 53.5844C30.0063 53.6757 30.0291 53.7366 30.0595 53.7899C30.3178 54.2542 30.5913 54.7109 30.8496 55.1753C30.9939 55.4341 30.9787 55.6777 30.69 55.8223C30.4089 55.9593 30.295 55.7385 30.181 55.5254C29.8999 55.0078 29.596 54.4978 29.2922 53.965C28.8819 54.1781 28.4869 54.376 28.0842 54.5892C28.2817 55.2438 28.768 55.7994 28.6692 56.553C30.1582 56.18 31.5637 55.6777 32.9236 55.0306C33.4098 54.7718 33.9036 54.513 34.443 54.2238C33.8276 53.3941 33.2503 52.6025 32.6577 51.8032C32.3462 52.0316 32.0651 52.2371 31.7992 52.4274C31.8068 53.1734 32.2626 53.6529 32.7109 54.1324C32.954 54.4065 33.1135 54.6729 32.9236 55.0383ZM17.4102 57.4664C17.4178 57.4893 17.4254 57.5045 17.4406 57.5273C18.094 57.3447 18.7473 57.1696 19.4007 56.9793C22.6674 56.0202 25.8734 54.9012 28.8819 53.2875C32.4905 51.3541 35.4382 48.7813 37.1172 44.9373C37.1856 44.7775 37.4591 44.6328 37.649 44.61C41.0525 44.2903 44.4332 43.8184 47.776 43.1333C50.5413 42.5624 52.5774 40.9335 53.5802 38.3378C55.0312 34.5624 55.7378 30.5966 55.9049 26.5471C56.0948 21.98 55.4795 17.5118 54.1576 13.135C53.7321 11.7192 53.2763 10.3414 52.2051 9.24533C51.0048 8.01982 49.6829 7.00744 47.9431 6.71058C45.626 6.31477 43.3165 5.8885 40.9841 5.59164C38.6518 5.29478 36.3043 5.03597 33.9568 4.93702C30.8724 4.80762 27.7803 4.75434 24.6959 4.8609C21.7634 4.95986 18.8385 5.23388 15.9212 5.56119C13.6041 5.82 11.2945 6.23104 9.0002 6.67252C6.21205 7.20535 4.16083 8.84951 3.15041 11.4604C1.71455 15.1597 1.01561 19.0494 0.833282 23.0228C0.612965 27.666 1.21314 32.2103 2.56543 36.6632C2.96808 37.9877 3.36313 39.3046 4.33556 40.355C5.51312 41.6414 6.82742 42.7451 8.58236 43.0572C11.682 43.5976 14.7892 44.1 17.9116 44.4882C21.1252 44.8917 24.3692 45.0287 27.6056 45.0515C28.2286 45.0591 28.3577 45.2342 28.1602 45.8203C27.6816 47.2361 26.9522 48.5149 26.0634 49.71C24.1793 52.2447 21.8318 54.2999 19.2867 56.142C18.6714 56.5911 18.0332 57.025 17.4102 57.4664ZM51.5138 42.2884C51.9468 42.7908 52.4178 43.2703 52.7901 43.8108C53.1624 44.3512 53.4435 44.9525 53.8005 45.5843C54.3247 45.1352 54.8337 44.709 55.3123 44.2979C54.9401 43.727 54.6362 43.1866 54.2487 42.7071C53.8461 42.2123 53.3751 41.7708 52.9116 41.3293C52.8509 41.2684 52.6382 41.2684 52.5698 41.3293C52.1823 41.649 51.8177 42.0068 51.5138 42.2884ZM53.1396 45.9878C52.4862 44.7546 52.0076 43.4911 50.7541 42.8212C50.2678 43.0724 49.7892 43.3236 49.3334 43.5596C49.9944 44.5111 50.6325 45.4473 51.2935 46.376C51.3542 46.4673 51.529 46.5739 51.6125 46.5434C52.1215 46.3836 52.623 46.1857 53.1396 45.9878ZM56.1252 18.0294C56.3 18.8134 56.1252 19.6431 56.9761 20.0542C57.0749 20.0998 57.1433 20.2064 57.2192 20.2977C57.6143 20.7545 58.0093 21.2188 58.412 21.6679C58.5791 21.8506 58.6779 22.0256 58.4803 22.2235C58.2828 22.4215 58.0625 22.391 57.8802 22.2007C57.6751 21.98 57.4775 21.7516 57.28 21.5156C57.0521 21.2416 56.8242 20.96 56.5963 20.6859C56.5659 20.7012 56.5355 20.7164 56.5127 20.7316C56.5659 21.3558 56.6191 21.98 56.6646 22.5509C56.8318 22.6498 56.9989 22.6955 57.0673 22.802C57.4927 23.5176 58.2524 23.7002 58.921 24.0504C58.9362 23.9971 58.9514 23.9743 58.9514 23.9514C58.7007 22.4976 58.4576 21.0437 58.1993 19.5898C58.1841 19.5137 58.1385 19.4148 58.0701 19.3691C57.4471 18.92 56.8166 18.5013 56.1252 18.0294ZM9.45603 44.1685C9.44084 44.1229 9.42564 44.0772 9.41045 44.0315C9.0078 43.9478 8.60515 43.8564 8.19491 43.7803C8.13413 43.7727 8.05056 43.8108 7.99738 43.8412C7.49597 44.1457 6.99456 44.4578 6.49315 44.7699C6.48555 44.7546 6.53113 44.8155 6.57672 44.8688C7.4048 45.904 8.53678 46.3227 9.8131 46.4749C10.3677 46.5434 10.6488 46.4064 10.7931 45.8584C10.9223 45.3636 10.9907 44.8536 11.0894 44.3512C10.6412 44.1837 10.3221 44.1837 9.95744 44.5948C9.532 45.0743 8.95462 45.4321 8.41522 45.8051C8.30886 45.8812 8.06575 45.8507 7.9442 45.7746C7.86063 45.7213 7.82265 45.493 7.86063 45.3712C7.89102 45.2646 8.05056 45.1809 8.15692 45.0972C8.58236 44.8003 9.0154 44.4882 9.45603 44.1685ZM37.3907 46.1781C38.2416 47.1448 39.0697 48.0962 39.9053 49.0477C40.2548 48.7128 40.3612 48.0962 41.0145 48.1039C40.3992 47.2209 39.8142 46.3607 39.2216 45.5158C39.1532 45.4169 39.0317 45.2951 38.9177 45.2799C38.0668 45.1733 37.7402 45.3788 37.3907 46.1781ZM56.9761 41.4815C57.6067 40.1342 57.5915 40.0125 56.657 39.0077C56.5051 38.8402 56.3531 38.6652 56.1784 38.5205C55.7226 38.1704 55.2516 37.8355 54.7426 37.4625C54.583 37.9192 54.4919 38.2846 54.3323 38.6271C54.1956 38.9163 54.2411 39.1371 54.4691 39.335C55.2971 40.0505 56.1328 40.7584 56.9761 41.4815ZM59.0957 27.7421C59.1337 27.7117 59.1717 27.6812 59.2097 27.6432C59.1641 26.8363 59.1337 26.0295 59.0729 25.2226C59.0653 25.1008 58.9514 24.9334 58.845 24.8725C58.1461 24.4614 57.4319 24.0732 56.7102 23.6622C56.7102 24.4005 56.7026 25.1237 56.7178 25.8392C56.7178 25.9229 56.7938 26.0371 56.8698 26.0904C57.1584 26.3035 57.4699 26.4938 57.7586 26.7069C58.2144 27.0571 58.6475 27.3996 59.0957 27.7421ZM38.5531 50.7452C38.8873 50.3493 39.2292 49.9231 39.5483 49.5425C39.3432 49.3979 39.1456 49.3065 39.0165 49.1543C38.5227 48.6138 38.0517 48.0582 37.5654 47.5025C37.3907 47.3046 37.2008 47.1067 37.0032 46.9012C36.6614 47.434 36.3499 47.9059 36.046 48.3703C36.8817 49.1619 37.7022 49.9383 38.5531 50.7452ZM42.4352 44.8384C42.9898 45.8355 43.5216 46.787 44.0838 47.7918C44.5624 47.7233 45.1474 47.6395 45.8463 47.5482C45.6184 47.0915 45.4665 46.6728 45.2233 46.3227C44.8511 45.7822 44.4256 45.2799 44.0078 44.7775C43.947 44.7014 43.7951 44.6633 43.6887 44.6709C43.2785 44.709 42.8758 44.7775 42.4352 44.8384ZM48.9839 47.0534C49.455 46.9621 50.0171 46.8631 50.6857 46.7413C49.9488 45.7518 49.2726 44.8384 48.5889 43.9326C48.5433 43.8717 48.4141 43.826 48.3382 43.8412C47.9203 43.9097 47.5101 44.0011 47.153 44.0772C47.7456 45.0515 48.3382 46.0182 48.9839 47.0534ZM39.9053 45.1657C40.0041 45.3179 40.0649 45.4245 40.1333 45.5234C40.5511 46.14 40.9917 46.7413 41.3944 47.3655C41.5159 47.5482 41.5235 47.807 41.5995 48.0658C42.0477 48.0125 42.6099 47.9516 43.2405 47.8831C43.081 47.533 42.967 47.2285 42.8075 46.9469C42.4504 46.3227 42.0781 45.7061 41.6983 45.1048C41.6527 45.0287 41.5008 44.9678 41.402 44.9754C40.931 45.0287 40.4599 45.0972 39.9053 45.1657ZM34.0404 50.6158C33.7745 50.8517 33.4858 51.1105 33.2275 51.3465C33.8504 52.1838 34.4506 52.9831 35.0736 53.8127C35.537 53.4702 35.9928 53.1353 36.4259 52.808C35.6813 52.0087 35.1723 50.9888 34.0404 50.6158ZM48.171 47.1904C47.5785 46.2009 47.1302 45.1885 46.3021 44.4273C46.2338 44.3664 46.1426 44.2675 46.0666 44.2751C45.6336 44.3284 45.2082 44.4121 44.7295 44.4882C45.4361 45.4549 46.3249 46.2237 46.5073 47.4492C47.0695 47.3655 47.5937 47.2818 48.171 47.1904ZM55.8138 43.7346C56.0797 43.3312 56.3076 42.9582 56.5583 42.6005C56.7254 42.3569 56.7026 42.1818 56.4671 41.9915C55.5706 41.2684 54.6818 40.5301 53.7853 39.7917C53.6106 40.0429 53.4207 40.3169 53.2155 40.6138C54.3931 41.3674 55.054 42.5396 55.8138 43.7346ZM55.3655 35.2855C55.2212 35.8031 55.0768 36.3055 54.9249 36.8383C56.11 37.257 56.9001 38.1552 57.7434 39.0914C57.8802 38.5738 58.0017 38.1399 58.1005 37.6984C58.1157 37.6223 58.0625 37.5005 57.9941 37.4473C57.1357 36.7317 56.262 36.0238 55.3655 35.2855ZM55.8441 33.2836C55.7758 33.5728 55.7378 33.8392 55.6542 34.0828C55.5706 34.3188 55.6466 34.4558 55.8214 34.608C56.2468 34.981 56.657 35.3844 57.0825 35.7574C57.4699 36.0923 57.8802 36.412 58.3132 36.7698C58.3968 36.3664 58.4652 36.0315 58.5183 35.6965C58.5335 35.6128 58.5563 35.4986 58.5107 35.4453C58.1993 35.0724 57.9106 34.6537 57.5307 34.3568C57.0217 33.9534 56.4367 33.6489 55.8441 33.2836ZM38.0137 51.2628C37.2008 50.494 36.4031 49.7404 35.5902 48.964C35.2483 49.3522 34.952 49.6871 34.6481 50.0373C35.6965 50.5549 36.3043 51.4531 36.9501 52.3817C37.2691 52.0392 37.5958 51.689 38.0137 51.2628ZM12.7304 46.8555C12.7456 46.8936 12.7532 46.9316 12.7684 46.9773C13.5357 47.0915 14.2954 47.198 14.9716 47.297C15.2071 46.3607 16.1567 45.9649 16.4606 45.1276C15.868 45.0515 15.3058 44.983 14.7284 44.9069C14.6297 45.5539 14.1739 45.8888 13.68 46.1933C13.3458 46.3836 13.0419 46.6348 12.7304 46.8555ZM58.9894 32.6061C59.0349 32.0352 59.0805 31.5633 59.0957 31.0914C59.0957 31.0229 59.0046 30.9239 58.9362 30.8706C58.45 30.5052 57.9561 30.1627 57.4699 29.7973C57.1584 29.5614 56.8622 29.3102 56.4899 29.0133C56.5203 29.5462 56.3456 29.9115 56.6115 30.4291C57.1433 31.4643 58.1081 31.8754 58.9894 32.6061ZM27.3701 45.8051C26.8079 45.8051 26.3825 45.8203 25.957 45.7975C25.7291 45.7898 25.6227 45.8736 25.5392 46.0791C25.2353 46.8251 25.0757 47.6471 24.392 48.2865C24.7719 48.3094 25.0833 48.2865 25.3644 48.355C25.8886 48.4844 26.2001 48.3018 26.39 47.8222C26.4508 47.67 26.5572 47.5406 26.6256 47.3883C26.8611 46.8936 27.089 46.3912 27.3701 45.8051ZM18.8233 45.3788C18.3523 45.3331 17.9268 45.2799 17.5014 45.2494C17.4026 45.2418 17.2735 45.3103 17.2051 45.394C16.8177 45.8736 16.453 46.3684 16.0731 46.8555C15.944 47.023 15.7996 47.1752 15.6173 47.3807C16.2707 47.4645 16.848 47.533 17.2887 47.5862C17.4938 47.3274 17.6078 47.1295 17.7749 46.9849C18.2763 46.5586 18.6941 46.0867 18.8233 45.3788ZM24.901 45.7213C24.3692 45.7213 23.9438 45.7137 23.5183 45.729C23.45 45.729 23.3588 45.7975 23.3284 45.8584C22.903 46.5967 22.4927 47.3427 22.0749 48.0886C22.1129 48.0886 22.1964 48.1039 22.28 48.1115C22.7434 48.1419 23.2448 48.3703 23.5943 47.8451C23.6095 47.8146 23.6703 47.8222 23.6931 47.7918C23.921 47.571 24.2173 47.3807 24.3692 47.1067C24.5819 46.7109 24.6959 46.2694 24.901 45.7213ZM56.6874 26.8059C56.6494 27.2626 56.6115 27.6508 56.6039 28.039C56.6039 28.1303 56.6798 28.2445 56.7558 28.3054C57.242 28.7012 57.7434 29.0894 58.2372 29.4776C58.5183 29.6984 58.8146 29.9039 59.1945 30.1779C59.1945 29.6756 59.1869 29.2873 59.2021 28.8991C59.2097 28.686 59.1261 28.5794 58.9438 28.4577C58.3208 28.039 57.713 27.5823 57.1053 27.1408C56.9837 27.0418 56.8622 26.9429 56.6874 26.8059ZM14.0219 44.9145C13.9991 44.8764 13.9763 44.8308 13.9459 44.7927C13.2394 44.6861 12.5405 44.5796 11.8187 44.4654C11.6516 45.2418 11.4921 45.9725 11.3249 46.7337C11.6212 46.7794 11.9631 46.8327 12.3733 46.9012C12.0998 46.4901 12.2746 46.2389 12.5481 46.041C12.8671 45.8127 13.209 45.6224 13.5281 45.3864C13.7104 45.257 13.8548 45.0743 14.0219 44.9145ZM19.583 45.4473C19.4387 46.3988 18.8461 47.061 18.1092 47.6852C18.7017 47.7537 19.2032 47.807 19.6438 47.8603C20.168 47.1371 20.791 46.513 20.791 45.5539C20.4035 45.5158 20.0312 45.4854 19.583 45.4473ZM56.186 31.4567C56.1556 31.5937 56.1252 31.8145 56.0645 32.0352C55.9733 32.3397 56.0569 32.5452 56.3304 32.7279C57.1357 33.2379 57.9334 33.7707 58.7538 34.3112C58.769 34.2198 58.7614 34.0752 58.807 33.9534C58.959 33.55 58.7614 33.3369 58.4576 33.1237C57.6902 32.5833 56.9381 32.0124 56.186 31.4567ZM25.3113 55.8071C24.5363 56.0963 23.807 56.3703 23.0245 56.6596C23.1309 56.8575 23.1992 57.0249 23.3132 57.1772C23.3968 57.2914 23.5259 57.4664 23.6247 57.4588C24.354 57.3827 25.0833 57.2761 25.8507 57.1696C25.6607 56.6824 25.4936 56.2638 25.3113 55.8071ZM28.183 56.6824C27.9171 56.0887 27.6664 55.5102 27.4005 54.9089C26.9294 55.122 26.4888 55.3123 26.0254 55.5178C26.2153 56.0278 26.3976 56.4997 26.5876 57.0173C27.1346 56.9032 27.6816 56.789 28.183 56.6824ZM54.6134 11.9475C54.8109 12.625 54.9781 13.1883 55.1528 13.7592C55.1756 13.8277 55.2516 13.881 55.3123 13.9342C55.4491 14.0636 55.639 14.1626 55.7226 14.3148C56.0341 14.8781 56.4595 15.312 57.0901 15.6773C56.695 14.1093 55.7986 12.998 54.6134 11.9475ZM57.8802 18.273C57.7282 17.7554 57.5915 17.2606 57.4471 16.7735C57.4319 16.7202 57.3864 16.6593 57.3408 16.6288C56.7634 16.2863 56.186 15.9514 55.639 15.6241C55.7226 16.0275 55.8138 16.4842 55.9125 16.9333C55.9277 17.0018 55.9505 17.0932 56.0037 17.1312C56.6115 17.5042 57.2268 17.8696 57.8802 18.273ZM5.93856 44.199C6.43237 43.9402 6.82742 43.727 7.1617 43.552C6.21205 42.905 5.26241 42.2579 4.32037 41.6109C4.30517 41.6186 4.28998 41.6186 4.26719 41.6262C4.83697 42.5015 5.40676 43.3845 5.93856 44.199ZM21.5811 45.6072C21.4975 46.4978 21.1024 47.2285 20.5403 47.944C20.9353 47.9745 21.2544 48.0049 21.6722 48.043C21.3759 47.7309 21.4823 47.5101 21.6342 47.297C21.847 47.0001 22.0673 46.7033 22.2572 46.3912C22.394 46.1781 22.4851 45.9345 22.6219 45.6757C22.2344 45.6452 21.9305 45.63 21.5811 45.6072ZM22.2952 56.9108C21.3987 57.2076 20.5403 57.4893 19.6818 57.7709C19.6894 57.8014 19.6894 57.8242 19.697 57.8546C20.677 57.7709 21.6494 57.6872 22.6826 57.5958C22.5307 57.3218 22.4167 57.1315 22.2952 56.9108Z" fill="#393939"/>
<path d="M25.4708 49.1619C24.4908 49.0782 23.5639 49.0249 22.6371 48.9259C20.3123 48.6824 17.98 48.4768 15.6629 48.1647C13.2698 47.8451 10.8919 47.4188 8.51399 47.0306C7.42 46.8555 6.64509 46.1552 5.95375 45.3712C3.9633 43.1105 2.60341 40.4996 1.91208 37.569C1.41066 35.4529 0.924448 33.3369 0.529397 31.2055C0.0735685 28.7621 -0.0555828 26.2807 0.0203886 23.7916C0.141943 19.6812 0.901656 15.6926 2.17038 11.7953C2.93009 9.45085 4.5103 7.85236 6.58431 6.6573C7.61752 6.06358 8.77229 5.87328 9.91186 5.69059C12.2214 5.31761 14.5309 4.93702 16.848 4.64777C18.7701 4.4118 20.6998 4.24434 22.6295 4.16061C25.1441 4.04643 27.6664 3.95509 30.181 4.0236C33.0527 4.09972 35.9169 4.30524 38.781 4.5412C41.9718 4.80762 45.1246 5.33284 48.2622 5.97223C50.0703 6.34521 51.4986 7.3652 52.7293 8.68205C53.132 9.11593 53.4435 9.62592 53.8157 10.0902C54.036 10.3719 54.2639 10.6687 54.545 10.8819C56.1632 12.1074 57.318 13.6298 57.9334 15.6012C59.2249 19.7345 59.9846 23.9514 59.9998 28.2902C60.015 33.0552 59.278 37.7137 57.5763 42.159C56.4595 45.0743 54.1728 46.8936 51.0731 47.4492C48.0799 47.9897 45.0562 48.4083 42.0401 48.7965C41.2804 48.8955 40.8094 49.1315 40.3612 49.748C37.4591 53.7519 33.5086 56.18 28.7452 57.3523C26.6028 57.8775 24.4376 58.2428 22.242 58.4179C20.0996 58.5854 17.9496 58.6843 15.7996 58.8214C15.5337 58.8366 15.2754 58.8975 15.0171 58.9584C14.7512 59.0193 14.4929 59.0573 14.379 58.7452C14.2726 58.4636 14.4625 58.3114 14.6981 58.1819C16.6505 57.0706 18.5042 55.8299 20.2668 54.4293C22.1129 52.9602 23.845 51.3617 25.2733 49.474C25.3265 49.3826 25.3796 49.2913 25.4708 49.1619ZM32.9236 55.0383C32.7109 54.9621 32.4222 54.9469 32.3006 54.7947C31.8372 54.2238 31.427 53.6148 30.9711 52.9754C30.69 53.1505 30.333 53.3636 29.9683 53.5844C30.0063 53.6757 30.0291 53.7366 30.0595 53.7899C30.3178 54.2542 30.5913 54.7109 30.8496 55.1753C30.9939 55.4341 30.9787 55.6777 30.69 55.8223C30.4089 55.9593 30.295 55.7385 30.181 55.5254C29.8999 55.0078 29.596 54.4978 29.2922 53.965C28.8819 54.1781 28.4869 54.376 28.0842 54.5892C28.2817 55.2438 28.768 55.7994 28.6692 56.553C30.1582 56.18 31.5637 55.6777 32.9236 55.0306C33.4098 54.7718 33.9036 54.513 34.443 54.2238C33.8276 53.3941 33.2503 52.6025 32.6577 51.8032C32.3462 52.0316 32.0651 52.2371 31.7992 52.4274C31.8068 53.1734 32.2626 53.6529 32.7109 54.1324C32.954 54.4065 33.1135 54.6729 32.9236 55.0383ZM17.4102 57.4664C17.4178 57.4893 17.4254 57.5045 17.4406 57.5273C18.094 57.3447 18.7473 57.1696 19.4007 56.9793C22.6674 56.0202 25.8734 54.9012 28.8819 53.2875C32.4905 51.3541 35.4382 48.7813 37.1172 44.9373C37.1856 44.7775 37.4591 44.6328 37.649 44.61C41.0525 44.2903 44.4332 43.8184 47.776 43.1333C50.5413 42.5624 52.5774 40.9335 53.5802 38.3378C55.0312 34.5624 55.7378 30.5966 55.9049 26.5471C56.0948 21.98 55.4795 17.5118 54.1576 13.135C53.7321 11.7192 53.2763 10.3414 52.2051 9.24533C51.0048 8.01982 49.6829 7.00744 47.9431 6.71058C45.626 6.31477 43.3165 5.8885 40.9841 5.59164C38.6518 5.29478 36.3043 5.03597 33.9568 4.93702C30.8724 4.80762 27.7803 4.75434 24.6959 4.8609C21.7634 4.95986 18.8385 5.23388 15.9212 5.56119C13.6041 5.82 11.2945 6.23104 9.0002 6.67252C6.21205 7.20535 4.16083 8.84951 3.15041 11.4604C1.71455 15.1597 1.01561 19.0494 0.833282 23.0228C0.612965 27.666 1.21314 32.2103 2.56543 36.6632C2.96808 37.9877 3.36313 39.3046 4.33556 40.355C5.51312 41.6414 6.82742 42.7451 8.58236 43.0572C11.682 43.5976 14.7892 44.1 17.9116 44.4882C21.1252 44.8917 24.3692 45.0287 27.6056 45.0515C28.2286 45.0591 28.3577 45.2342 28.1602 45.8203C27.6816 47.2361 26.9522 48.5149 26.0634 49.71C24.1793 52.2447 21.8318 54.2999 19.2867 56.142C18.6714 56.5911 18.0332 57.025 17.4102 57.4664ZM51.5138 42.2884C51.9468 42.7908 52.4178 43.2703 52.7901 43.8108C53.1624 44.3512 53.4435 44.9525 53.8005 45.5843C54.3247 45.1352 54.8337 44.709 55.3123 44.2979C54.9401 43.727 54.6362 43.1866 54.2487 42.7071C53.8461 42.2123 53.3751 41.7708 52.9116 41.3293C52.8509 41.2684 52.6382 41.2684 52.5698 41.3293C52.1823 41.649 51.8177 42.0068 51.5138 42.2884ZM53.1396 45.9878C52.4862 44.7546 52.0076 43.4911 50.7541 42.8212C50.2678 43.0724 49.7892 43.3236 49.3334 43.5596C49.9944 44.5111 50.6325 45.4473 51.2935 46.376C51.3542 46.4673 51.529 46.5739 51.6125 46.5434C52.1215 46.3836 52.623 46.1857 53.1396 45.9878ZM56.1252 18.0294C56.3 18.8134 56.1252 19.6431 56.9761 20.0542C57.0749 20.0998 57.1433 20.2064 57.2192 20.2977C57.6143 20.7545 58.0093 21.2188 58.412 21.6679C58.5791 21.8506 58.6779 22.0256 58.4803 22.2235C58.2828 22.4215 58.0625 22.391 57.8802 22.2007C57.6751 21.98 57.4775 21.7516 57.28 21.5156C57.0521 21.2416 56.8242 20.96 56.5963 20.6859C56.5659 20.7012 56.5355 20.7164 56.5127 20.7316C56.5659 21.3558 56.6191 21.98 56.6646 22.5509C56.8318 22.6498 56.9989 22.6955 57.0673 22.802C57.4927 23.5176 58.2524 23.7002 58.921 24.0504C58.9362 23.9971 58.9514 23.9743 58.9514 23.9514C58.7007 22.4976 58.4576 21.0437 58.1993 19.5898C58.1841 19.5137 58.1385 19.4148 58.0701 19.3691C57.4471 18.92 56.8166 18.5013 56.1252 18.0294ZM9.45603 44.1685C9.44084 44.1229 9.42564 44.0772 9.41045 44.0315C9.0078 43.9478 8.60515 43.8564 8.19491 43.7803C8.13413 43.7727 8.05056 43.8108 7.99738 43.8412C7.49597 44.1457 6.99456 44.4578 6.49315 44.7699C6.48555 44.7546 6.53113 44.8155 6.57672 44.8688C7.4048 45.904 8.53678 46.3227 9.8131 46.4749C10.3677 46.5434 10.6488 46.4064 10.7931 45.8584C10.9223 45.3636 10.9907 44.8536 11.0894 44.3512C10.6412 44.1837 10.3221 44.1837 9.95744 44.5948C9.532 45.0743 8.95462 45.4321 8.41522 45.8051C8.30886 45.8812 8.06575 45.8507 7.9442 45.7746C7.86063 45.7213 7.82265 45.493 7.86063 45.3712C7.89102 45.2646 8.05056 45.1809 8.15692 45.0972C8.58236 44.8003 9.0154 44.4882 9.45603 44.1685ZM37.3907 46.1781C38.2416 47.1448 39.0697 48.0962 39.9053 49.0477C40.2548 48.7128 40.3612 48.0962 41.0145 48.1039C40.3992 47.2209 39.8142 46.3607 39.2216 45.5158C39.1532 45.4169 39.0317 45.2951 38.9177 45.2799C38.0668 45.1733 37.7402 45.3788 37.3907 46.1781ZM56.9761 41.4815C57.6067 40.1342 57.5915 40.0125 56.657 39.0077C56.5051 38.8402 56.3531 38.6652 56.1784 38.5205C55.7226 38.1704 55.2516 37.8355 54.7426 37.4625C54.583 37.9192 54.4919 38.2846 54.3323 38.6271C54.1956 38.9163 54.2411 39.1371 54.4691 39.335C55.2971 40.0505 56.1328 40.7584 56.9761 41.4815ZM59.0957 27.7421C59.1337 27.7117 59.1717 27.6812 59.2097 27.6432C59.1641 26.8363 59.1337 26.0295 59.0729 25.2226C59.0653 25.1008 58.9514 24.9334 58.845 24.8725C58.1461 24.4614 57.4319 24.0732 56.7102 23.6622C56.7102 24.4005 56.7026 25.1237 56.7178 25.8392C56.7178 25.9229 56.7938 26.0371 56.8698 26.0904C57.1584 26.3035 57.4699 26.4938 57.7586 26.7069C58.2144 27.0571 58.6475 27.3996 59.0957 27.7421ZM38.5531 50.7452C38.8873 50.3493 39.2292 49.9231 39.5483 49.5425C39.3432 49.3979 39.1456 49.3065 39.0165 49.1543C38.5227 48.6138 38.0517 48.0582 37.5654 47.5025C37.3907 47.3046 37.2008 47.1067 37.0032 46.9012C36.6614 47.434 36.3499 47.9059 36.046 48.3703C36.8817 49.1619 37.7022 49.9383 38.5531 50.7452ZM42.4352 44.8384C42.9898 45.8355 43.5216 46.787 44.0838 47.7918C44.5624 47.7233 45.1474 47.6395 45.8463 47.5482C45.6184 47.0915 45.4665 46.6728 45.2233 46.3227C44.8511 45.7822 44.4256 45.2799 44.0078 44.7775C43.947 44.7014 43.7951 44.6633 43.6887 44.6709C43.2785 44.709 42.8758 44.7775 42.4352 44.8384ZM48.9839 47.0534C49.455 46.9621 50.0171 46.8631 50.6857 46.7413C49.9488 45.7518 49.2726 44.8384 48.5889 43.9326C48.5433 43.8717 48.4141 43.826 48.3382 43.8412C47.9203 43.9097 47.5101 44.0011 47.153 44.0772C47.7456 45.0515 48.3382 46.0182 48.9839 47.0534ZM39.9053 45.1657C40.0041 45.3179 40.0649 45.4245 40.1333 45.5234C40.5511 46.14 40.9917 46.7413 41.3944 47.3655C41.5159 47.5482 41.5235 47.807 41.5995 48.0658C42.0477 48.0125 42.6099 47.9516 43.2405 47.8831C43.081 47.533 42.967 47.2285 42.8075 46.9469C42.4504 46.3227 42.0781 45.7061 41.6983 45.1048C41.6527 45.0287 41.5008 44.9678 41.402 44.9754C40.931 45.0287 40.4599 45.0972 39.9053 45.1657ZM34.0404 50.6158C33.7745 50.8517 33.4858 51.1105 33.2275 51.3465C33.8504 52.1838 34.4506 52.9831 35.0736 53.8127C35.537 53.4702 35.9928 53.1353 36.4259 52.808C35.6813 52.0087 35.1723 50.9888 34.0404 50.6158ZM48.171 47.1904C47.5785 46.2009 47.1302 45.1885 46.3021 44.4273C46.2338 44.3664 46.1426 44.2675 46.0666 44.2751C45.6336 44.3284 45.2082 44.4121 44.7295 44.4882C45.4361 45.4549 46.3249 46.2237 46.5073 47.4492C47.0695 47.3655 47.5937 47.2818 48.171 47.1904ZM55.8138 43.7346C56.0797 43.3312 56.3076 42.9582 56.5583 42.6005C56.7254 42.3569 56.7026 42.1818 56.4671 41.9915C55.5706 41.2684 54.6818 40.5301 53.7853 39.7917C53.6106 40.0429 53.4207 40.3169 53.2155 40.6138C54.3931 41.3674 55.054 42.5396 55.8138 43.7346ZM55.3655 35.2855C55.2212 35.8031 55.0768 36.3055 54.9249 36.8383C56.11 37.257 56.9001 38.1552 57.7434 39.0914C57.8802 38.5738 58.0017 38.1399 58.1005 37.6984C58.1157 37.6223 58.0625 37.5005 57.9941 37.4473C57.1357 36.7317 56.262 36.0238 55.3655 35.2855ZM55.8441 33.2836C55.7758 33.5728 55.7378 33.8392 55.6542 34.0828C55.5706 34.3188 55.6466 34.4558 55.8214 34.608C56.2468 34.981 56.657 35.3844 57.0825 35.7574C57.4699 36.0923 57.8802 36.412 58.3132 36.7698C58.3968 36.3664 58.4652 36.0315 58.5183 35.6965C58.5335 35.6128 58.5563 35.4986 58.5107 35.4453C58.1993 35.0724 57.9106 34.6537 57.5307 34.3568C57.0217 33.9534 56.4367 33.6489 55.8441 33.2836ZM38.0137 51.2628C37.2008 50.494 36.4031 49.7404 35.5902 48.964C35.2483 49.3522 34.952 49.6871 34.6481 50.0373C35.6965 50.5549 36.3043 51.4531 36.9501 52.3817C37.2691 52.0392 37.5958 51.689 38.0137 51.2628ZM12.7304 46.8555C12.7456 46.8936 12.7532 46.9316 12.7684 46.9773C13.5357 47.0915 14.2954 47.198 14.9716 47.297C15.2071 46.3607 16.1567 45.9649 16.4606 45.1276C15.868 45.0515 15.3058 44.983 14.7284 44.9069C14.6297 45.5539 14.1739 45.8888 13.68 46.1933C13.3458 46.3836 13.0419 46.6348 12.7304 46.8555ZM58.9894 32.6061C59.0349 32.0352 59.0805 31.5633 59.0957 31.0914C59.0957 31.0229 59.0046 30.9239 58.9362 30.8706C58.45 30.5052 57.9561 30.1627 57.4699 29.7973C57.1584 29.5614 56.8622 29.3102 56.4899 29.0133C56.5203 29.5462 56.3456 29.9115 56.6115 30.4291C57.1433 31.4643 58.1081 31.8754 58.9894 32.6061ZM27.3701 45.8051C26.8079 45.8051 26.3825 45.8203 25.957 45.7975C25.7291 45.7898 25.6227 45.8736 25.5392 46.0791C25.2353 46.8251 25.0757 47.6471 24.392 48.2865C24.7719 48.3094 25.0833 48.2865 25.3644 48.355C25.8886 48.4844 26.2001 48.3018 26.39 47.8222C26.4508 47.67 26.5572 47.5406 26.6256 47.3883C26.8611 46.8936 27.089 46.3912 27.3701 45.8051ZM18.8233 45.3788C18.3523 45.3331 17.9268 45.2799 17.5014 45.2494C17.4026 45.2418 17.2735 45.3103 17.2051 45.394C16.8177 45.8736 16.453 46.3684 16.0731 46.8555C15.944 47.023 15.7996 47.1752 15.6173 47.3807C16.2707 47.4645 16.848 47.533 17.2887 47.5862C17.4938 47.3274 17.6078 47.1295 17.7749 46.9849C18.2763 46.5586 18.6941 46.0867 18.8233 45.3788ZM24.901 45.7213C24.3692 45.7213 23.9438 45.7137 23.5183 45.729C23.45 45.729 23.3588 45.7975 23.3284 45.8584C22.903 46.5967 22.4927 47.3427 22.0749 48.0886C22.1129 48.0886 22.1964 48.1039 22.28 48.1115C22.7434 48.1419 23.2448 48.3703 23.5943 47.8451C23.6095 47.8146 23.6703 47.8222 23.6931 47.7918C23.921 47.571 24.2173 47.3807 24.3692 47.1067C24.5819 46.7109 24.6959 46.2694 24.901 45.7213ZM56.6874 26.8059C56.6494 27.2626 56.6115 27.6508 56.6039 28.039C56.6039 28.1303 56.6798 28.2445 56.7558 28.3054C57.242 28.7012 57.7434 29.0894 58.2372 29.4776C58.5183 29.6984 58.8146 29.9039 59.1945 30.1779C59.1945 29.6756 59.1869 29.2873 59.2021 28.8991C59.2097 28.686 59.1261 28.5794 58.9438 28.4577C58.3208 28.039 57.713 27.5823 57.1053 27.1408C56.9837 27.0418 56.8622 26.9429 56.6874 26.8059ZM14.0219 44.9145C13.9991 44.8764 13.9763 44.8308 13.9459 44.7927C13.2394 44.6861 12.5405 44.5796 11.8187 44.4654C11.6516 45.2418 11.4921 45.9725 11.3249 46.7337C11.6212 46.7794 11.9631 46.8327 12.3733 46.9012C12.0998 46.4901 12.2746 46.2389 12.5481 46.041C12.8671 45.8127 13.209 45.6224 13.5281 45.3864C13.7104 45.257 13.8548 45.0743 14.0219 44.9145ZM19.583 45.4473C19.4387 46.3988 18.8461 47.061 18.1092 47.6852C18.7017 47.7537 19.2032 47.807 19.6438 47.8603C20.168 47.1371 20.791 46.513 20.791 45.5539C20.4035 45.5158 20.0312 45.4854 19.583 45.4473ZM56.186 31.4567C56.1556 31.5937 56.1252 31.8145 56.0645 32.0352C55.9733 32.3397 56.0569 32.5452 56.3304 32.7279C57.1357 33.2379 57.9334 33.7707 58.7538 34.3112C58.769 34.2198 58.7614 34.0752 58.807 33.9534C58.959 33.55 58.7614 33.3369 58.4576 33.1237C57.6902 32.5833 56.9381 32.0124 56.186 31.4567ZM25.3113 55.8071C24.5363 56.0963 23.807 56.3703 23.0245 56.6596C23.1309 56.8575 23.1992 57.0249 23.3132 57.1772C23.3968 57.2914 23.5259 57.4664 23.6247 57.4588C24.354 57.3827 25.0833 57.2761 25.8507 57.1696C25.6607 56.6824 25.4936 56.2638 25.3113 55.8071ZM28.183 56.6824C27.9171 56.0887 27.6664 55.5102 27.4005 54.9089C26.9294 55.122 26.4888 55.3123 26.0254 55.5178C26.2153 56.0278 26.3976 56.4997 26.5876 57.0173C27.1346 56.9032 27.6816 56.789 28.183 56.6824ZM54.6134 11.9475C54.8109 12.625 54.9781 13.1883 55.1528 13.7592C55.1756 13.8277 55.2516 13.881 55.3123 13.9342C55.4491 14.0636 55.639 14.1626 55.7226 14.3148C56.0341 14.8781 56.4595 15.312 57.0901 15.6773C56.695 14.1093 55.7986 12.998 54.6134 11.9475ZM57.8802 18.273C57.7282 17.7554 57.5915 17.2606 57.4471 16.7735C57.4319 16.7202 57.3864 16.6593 57.3408 16.6288C56.7634 16.2863 56.186 15.9514 55.639 15.6241C55.7226 16.0275 55.8138 16.4842 55.9125 16.9333C55.9277 17.0018 55.9505 17.0932 56.0037 17.1312C56.6115 17.5042 57.2268 17.8696 57.8802 18.273ZM5.93856 44.199C6.43237 43.9402 6.82742 43.727 7.1617 43.552C6.21205 42.905 5.26241 42.2579 4.32037 41.6109C4.30517 41.6186 4.28998 41.6186 4.26719 41.6262C4.83697 42.5015 5.40676 43.3845 5.93856 44.199ZM21.5811 45.6072C21.4975 46.4978 21.1024 47.2285 20.5403 47.944C20.9353 47.9745 21.2544 48.0049 21.6722 48.043C21.3759 47.7309 21.4823 47.5101 21.6342 47.297C21.847 47.0001 22.0673 46.7033 22.2572 46.3912C22.394 46.1781 22.4851 45.9345 22.6219 45.6757C22.2344 45.6452 21.9305 45.63 21.5811 45.6072ZM22.2952 56.9108C21.3987 57.2076 20.5403 57.4893 19.6818 57.7709C19.6894 57.8014 19.6894 57.8242 19.697 57.8546C20.677 57.7709 21.6494 57.6872 22.6826 57.5958C22.5307 57.3218 22.4167 57.1315 22.2952 56.9108Z" stroke="#393939" stroke-width="0.2" mask="url(#path-1-outside-1_593_338)"/>
</g>
<defs>
<clipPath id="clip0_593_338">
<rect width="60" height="64" fill="white"/>
</clipPath>
</defs>
</svg>
