<svg width="130" height="120" viewBox="0 0 130 120" fill="none" xmlns="http://www.w3.org/2000/svg">
<g id="Frame">
<path id="Vector" d="M116.6 89.1998C116.6 90.1998 115.8 90.9998 114.8 90.9998H109.3C108.3 90.9998 107.5 90.1998 107.5 89.1998V56.1998C107.5 55.1998 108.3 54.3998 109.3 54.3998H114.8C115.8 54.3998 116.6 55.1998 116.6 56.1998V89.1998ZM98.2999 88.0998C96.4999 88.9998 91.2999 90.9998 81.7999 90.9998C73.3999 90.9998 69.3999 88.5998 67.6999 87.1998C67.2999 86.7998 66.7999 86.4998 66.1999 86.2998C66.0999 86.1998 65.9999 86.1998 65.8999 86.0998C64.9999 85.6998 64.0999 85.4998 63.0999 85.4998H41.4999C38.5999 85.4998 35.9999 82.8998 35.9999 79.9998C35.9999 76.9998 38.4999 74.4998 41.4999 74.4998H65.2999C71.1999 74.4998 75.0999 72.5998 75.2999 72.4998C76.1999 71.9998 76.5999 70.9998 76.0999 69.9998C75.5999 69.0998 74.5999 68.6998 73.5999 69.1998C73.5999 69.1998 70.1999 70.7998 65.2999 70.7998H51.7999L76.6999 45.9998C85.3999 51.4998 96.9999 56.9998 103.8 57.8998V87.3998H101.5C100.4 87.2998 99.3999 87.5998 98.2999 88.0998ZM58.8999 94.6998C56.3999 94.6998 54.2999 92.5998 54.2999 90.0998V89.1998H62.9999C63.0999 89.1998 63.2999 89.1998 63.3999 89.1998V90.0998C63.4999 92.5998 61.3999 94.6998 58.8999 94.6998ZM46.0999 94.6998C43.5999 94.6998 41.4999 92.5998 41.4999 90.0998V89.1998H50.6999V90.0998C50.6999 92.5998 48.5999 94.6998 46.0999 94.6998ZM33.2999 94.6998C31.8999 94.6998 30.5999 94.0998 29.7999 92.9998L35.7999 86.9998C36.4999 87.4998 37.1999 87.9998 37.8999 88.3998V90.0998C37.7999 92.5998 35.7999 94.6998 33.2999 94.6998ZM14.1999 94.4998L16.4999 85.3998L23.2999 92.1998L14.1999 94.4998ZM22.1999 66.0998L46.1999 38.5998C49.5999 34.6998 54.9999 33.2998 59.7999 34.7998L20.1999 74.3998C19.4999 71.4998 20.1999 68.3998 22.1999 66.0998ZM74.5999 25.2998C74.7999 25.0998 74.9999 24.9998 75.1999 24.9998C75.2999 24.9998 75.5999 24.9998 75.7999 25.2998L83.3999 32.8998C83.5999 33.0998 83.6999 33.2998 83.6999 33.4998C83.6999 33.6998 83.5999 33.8998 83.3999 34.0998L78.5999 38.8998L69.7999 30.0998L74.5999 25.2998ZM46.6999 70.7998H41.4999C36.3999 70.7998 32.2999 74.8998 32.2999 79.9998C32.2999 81.4998 32.6999 82.8998 33.3999 84.0998L26.8999 90.5998L17.9999 81.7998L67.0999 32.6998L75.8999 41.4998L46.6999 70.7998ZM114.8 50.6998H109.3C107 50.6998 105 52.1998 104.2 54.1998C98.6999 53.4998 88.3999 48.9998 79.2999 43.2998L85.8999 36.6998C86.7999 35.7998 87.2999 34.6998 87.2999 33.4998C87.2999 32.2998 86.7999 31.1998 85.9999 30.2998L78.3999 22.6998C76.6999 20.9998 73.5999 20.9998 71.9999 22.6998L62.6999 31.9998C56.1999 29.0998 48.3999 30.6998 43.4999 36.1998L19.4999 63.6998C16.1999 67.4998 15.3999 72.7998 17.3999 77.2998L14.9999 79.6998C14.2999 80.3998 13.6999 81.3998 13.3999 82.4998L10.3999 94.2998C10.0999 95.3998 10.4999 96.5998 11.2999 97.3998C11.8999 97.9998 12.7999 98.3998 13.5999 98.3998C13.8999 98.3998 14.0999 98.3998 14.3999 98.2998L26.1999 95.2998C26.3999 95.2998 26.5999 95.1998 26.6999 95.0998C28.1999 97.0998 30.5999 98.2998 33.1999 98.2998C35.7999 98.2998 38.0999 97.0998 39.5999 95.1998C41.0999 97.0998 43.3999 98.2998 45.9999 98.2998C48.5999 98.2998 50.8999 97.0998 52.3999 95.1998C53.8999 97.0998 56.1999 98.2998 58.7999 98.2998C62.9999 98.2998 66.3999 95.1998 66.8999 91.1998C69.4999 92.7998 74.1999 94.6998 81.6999 94.6998C91.9999 94.6998 97.7999 92.3998 99.7999 91.3998C100.3 91.1998 100.8 90.9998 101.4 90.9998H104C104.8 93.0998 106.8 94.6998 109.2 94.6998H114.7C117.7 94.6998 120.2 92.1998 120.2 89.1998V56.1998C120.3 53.0998 117.8 50.6998 114.8 50.6998Z" fill="#393939"/>
</g>
</svg>
