<svg xmlns="http://www.w3.org/2000/svg" version="1.1" xmlns:xlink="http://www.w3.org/1999/xlink" xmlns:svgjs="http://svgjs.dev/svgjs" width="87" height="33"><svg width="87" height="33" viewBox="0 0 87 33" fill="none" xmlns="http://www.w3.org/2000/svg">
<path d="M62.4077 32.6714H86.0664V24.3908H72.4626V20.2505H86.0664V12.5615H72.4626V8.42118H86.0664V0.140625H62.4077V32.6714ZM43.8243 11.6399L37.566 0.140625H27.5111V6.26764C27.0296 6.04347 25.894 5.62767 25.1452 5.46384V0.140625H16.2732C7.24086 0.140625 0.000105979 7.35949 0.000105979 16.3906C-0.00762747 18.5302 0.407952 20.6501 1.22292 22.6283C2.03788 24.6066 3.23613 26.4041 4.74866 27.9174C6.26119 29.4306 8.05813 30.6297 10.036 31.4456C12.0139 32.2615 14.1336 32.6781 16.2732 32.6714H25.1452V23.2079C25.9707 22.8922 26.7632 22.496 27.5111 22.0249C27.5146 22.0261 27.5111 32.6714 27.5111 32.6714H37.566V17.2932L43.8243 27.7302L49.9868 17.2932V32.6714H60.0418V0.140625H49.9868L43.8243 11.6399ZM31.5431 21.7186C30.0828 21.398 28.6597 20.9065 27.3443 20.189C27.3159 20.1736 26.9385 20.48 26.8906 20.5126C24.3307 22.2402 20.899 22.9831 17.8985 22.1119C17.1018 21.8806 16.2649 21.5328 15.5622 21.0892C14.2775 20.2807 13.2567 19.0386 12.7841 17.5889C11.4852 13.6042 14.4219 9.07416 19.3429 7.47128C20.2925 7.15969 21.2791 6.97513 22.2772 6.92239C23.7215 6.84846 25.1819 7.06257 26.5245 7.61027C27.8476 8.15087 29.1187 9.05878 29.8899 10.2819C30.8026 11.7391 31.1145 13.4933 30.76 15.1757C30.6813 15.543 30.5624 15.9293 30.3939 16.2658C30.2182 16.6148 29.9568 16.9679 29.913 17.3659C29.8184 18.2188 30.508 19.054 30.8416 19.7365C31.1095 20.2831 31.5123 20.7562 31.7513 21.3175C31.7637 21.3471 31.9039 21.7943 31.898 21.7931C31.7791 21.7694 31.6614 21.744 31.5431 21.7186Z" fill="#FF562D"></path>
</svg><style>@media (prefers-color-scheme: light) { :root { filter: contrast(1) brightness(1); } }
@media (prefers-color-scheme: dark) { :root { filter: none; } }
</style></svg>