<svg width="74" height="64" viewBox="0 0 74 64" fill="none" xmlns="http://www.w3.org/2000/svg">
<path d="M27.0357 20.954C28.9287 18.7906 30.957 17.0328 33.2556 15.5454C33.1204 15.5454 32.9852 15.5454 32.7147 15.4102C35.5543 19.3314 36.9064 24.74 36.3656 29.8782C36.0951 32.5825 35.2838 35.1516 33.6613 37.1798C32.3091 38.9376 30.4161 40.425 28.3879 41.2363C23.5201 43.2645 18.2467 42.318 13.379 40.425C11.2155 39.6137 9.0521 38.532 7.42952 36.639C5.80694 34.8812 4.99565 32.5825 4.59 30.2839C4.04914 27.5796 4.04914 24.8753 4.04914 22.171C4.18436 19.4667 4.59 16.7624 6.21259 14.5989C5.94216 14.5989 5.67173 14.5989 5.26608 14.5989C7.15909 17.0328 8.91689 19.6019 10.6747 22.0357C11.2155 22.7118 12.0268 21.7653 11.486 21.0892C9.86339 18.5202 8.1056 16.0863 6.48302 13.6524C6.21259 13.2468 5.80694 13.1115 5.4013 13.5172C3.77871 15.4102 3.10264 17.9793 2.96742 20.5484C2.69699 23.2527 2.83221 25.957 3.10264 28.6613C3.37307 31.2304 4.04914 33.9347 5.4013 36.0981C6.88866 38.3968 8.91689 39.8841 11.2155 40.9659C16.2185 43.3997 22.0328 44.7519 27.4414 43.1293C29.74 42.4532 32.0387 41.1011 33.7965 39.3433C35.6895 37.4503 36.9064 35.0164 37.4473 32.1769C38.6642 25.957 36.9064 19.6019 33.3908 14.7341C33.1204 14.5989 32.9852 14.5989 32.7147 14.7341C30.4161 16.2215 28.2526 18.1145 26.4949 20.4132C26.2244 20.8188 26.6301 21.3597 27.0357 20.954Z" fill="#393939"/>
<path d="M11.486 21.9005C13.7846 20.1427 16.4889 19.6019 19.3284 19.3314C21.7623 19.1962 24.1962 19.4667 26.2244 21.0892C26.9005 21.6301 27.5766 20.2779 26.9005 19.7371C24.6018 18.1145 21.8975 17.8441 19.3284 18.1145C16.4889 18.3849 13.5142 19.061 11.0803 21.0892C10.5395 21.3597 10.9451 22.3062 11.486 21.9005Z" fill="#393939"/>
<path d="M10.1338 28.2556C10.9451 29.3374 12.0268 30.0134 13.2438 30.2839C13.9198 30.4191 14.5959 30.2839 15.272 30.1486C15.8129 30.0134 16.7594 29.6078 17.0298 28.9317C17.165 28.5261 16.8946 28.2556 16.6241 28.2556C16.3537 28.2556 16.0833 28.3909 15.8129 28.6613C15.5424 28.7965 15.4072 28.9317 15.1368 28.9317C14.5959 29.0669 14.0551 29.2021 13.5142 29.0669C12.5677 28.9317 11.6212 28.3909 10.9451 27.4443C10.8099 27.1739 10.4043 27.3091 10.269 27.4443C9.86339 27.7148 9.99861 27.9852 10.1338 28.2556Z" fill="#393939"/>
<path d="M24.061 28.9317C25.1427 29.6078 26.3596 30.0134 27.5766 30.0134C28.7935 30.0134 30.1457 29.6078 31.0922 28.6613C31.633 28.1204 30.957 27.3091 30.4161 27.7148C30.0104 27.9852 29.6048 28.2556 29.0639 28.3909C28.5231 28.5261 28.1174 28.6613 27.5766 28.6613C26.4949 28.6613 25.5483 28.5261 24.6018 27.85C24.061 27.7148 23.5201 28.5261 24.061 28.9317Z" fill="#393939"/>
<path d="M20.6806 30.2839C20.5454 30.2839 20.8158 30.2839 20.8158 30.2839H20.6806C20.5454 30.0134 20.4102 29.743 20.275 29.6078C19.8693 29.2021 19.1932 28.7965 18.6524 29.0669C18.2467 29.2021 18.1115 29.6078 18.1115 30.1486C18.1115 30.5543 18.3819 30.9599 18.5172 31.2304C18.7876 31.7712 19.1932 32.3121 19.4637 32.7177C19.5989 32.853 19.8693 33.1234 20.0045 33.2586C20.275 33.3938 20.5454 33.529 20.951 33.529C21.6271 33.529 22.0328 33.1234 22.4384 32.5825C22.9793 31.636 23.2497 30.4191 22.844 29.3374C22.7088 29.0669 22.5736 28.7965 22.4384 28.6613C22.0328 28.2556 21.4919 28.3909 21.0862 28.7965C20.8158 29.2021 20.6806 29.6078 20.4102 30.0134C20.4102 30.1486 20.275 30.2839 20.275 30.4191V30.5543L20.4102 30.4191C20.0045 30.6895 20.1397 31.5008 20.6806 31.5008C21.2215 31.5008 21.4919 30.8247 21.6271 30.2839C21.6271 30.4191 21.6271 30.1486 21.6271 30.1486C21.6271 30.1486 21.6271 30.0134 21.7623 30.0134C21.7623 29.8782 21.8975 29.743 21.8975 29.743C21.8975 29.743 21.6271 29.743 21.6271 29.6078C21.6271 29.6078 21.6271 29.743 21.7623 29.743C21.7623 29.8782 21.8975 29.8782 21.8975 30.0134C21.8975 30.0134 21.8975 30.1486 21.8975 30.2839V30.4191C21.8975 30.2839 21.8975 30.4191 21.8975 30.5543V30.6895C21.8975 30.6895 21.8975 30.6895 21.8975 30.8247C21.8975 30.9599 21.7623 31.0952 21.7623 31.3656V31.5008C21.7623 31.636 21.6271 31.636 21.6271 31.7712C21.6271 31.9064 21.4919 31.9064 21.4919 32.0417V32.1769C21.4919 32.1769 21.4919 32.3121 21.3567 32.3121C21.3567 32.3121 21.3567 32.3121 21.2215 32.3121H21.0862C20.951 32.3121 21.2215 32.3121 21.0862 32.3121C21.0862 32.3121 21.0862 32.3121 20.951 32.3121C20.8158 32.3121 21.0862 32.3121 20.951 32.3121H20.8158C20.8158 32.3121 20.6806 32.3121 20.6806 32.1769L20.5454 32.0417C20.4102 31.9064 20.4102 31.7712 20.275 31.7712C20.1397 31.636 20.0045 31.3656 19.8693 31.2304C19.8693 31.0952 19.7341 30.9599 19.5989 30.8247C19.4637 30.6895 19.4637 30.5543 19.3285 30.4191C19.3285 30.4191 19.3285 30.2839 19.1932 30.2839V30.1486C19.1932 30.1486 19.1932 30.2839 19.058 30.2839H19.1932C19.1932 30.2839 19.1932 30.2839 19.3285 30.2839H19.4637C19.4637 30.2839 19.4637 30.2839 19.5989 30.2839L19.7341 30.4191C19.8693 30.5543 19.8693 30.5543 20.0045 30.6895C20.275 31.0952 20.5454 31.3656 20.951 31.3656C21.2215 31.3656 21.3567 30.9599 21.2215 30.8247C21.0862 30.5543 20.951 30.2839 20.6806 30.2839Z" fill="#393939"/>
<path d="M20.5454 33.3938C20.4102 35.0164 19.3285 36.7742 17.8411 37.0446C17.3002 37.1798 16.6241 36.9094 16.0833 36.639C15.8129 36.5038 15.6776 36.2333 15.4072 35.9629C15.272 35.8277 15.272 35.6925 15.1368 35.5573C15.1368 35.422 15.0016 35.2868 14.8664 35.1516C14.7311 34.746 14.1903 34.746 14.1903 35.2868C14.1903 35.5573 14.1903 35.6925 14.1903 35.9629C14.1903 36.0981 14.3255 36.3685 14.4607 36.5038C14.7311 36.9094 15.0016 37.1798 15.4072 37.4503C16.0833 37.9911 16.8946 38.1263 17.7059 37.9911C19.5989 37.7207 20.8158 35.5573 20.951 33.529C21.0862 32.9882 20.5454 32.9882 20.5454 33.3938Z" fill="#393939"/>
<path d="M20.8158 33.2586C20.8158 34.3403 21.2215 35.5573 22.0328 36.3685C23.2497 37.5855 25.1427 37.7207 26.4949 36.5038C27.0357 36.0981 27.4414 35.422 27.5766 34.746C27.5766 34.4755 27.5766 34.3403 27.4414 34.2051L27.5766 34.3403C27.5766 34.2051 27.3061 34.0699 27.1709 34.2051C27.3061 34.2051 27.3061 34.2051 27.4414 34.2051C27.3061 34.2051 27.0357 34.2051 26.9005 34.4755C26.3596 35.5573 25.5483 36.5038 24.4666 36.5038C24.1962 36.5038 23.7906 36.3685 23.5201 36.3685H23.3849C23.5201 36.3685 23.2497 36.3685 23.2497 36.3685C23.1145 36.2333 22.9793 36.2333 22.844 36.0981C22.4384 35.6925 22.168 35.1516 21.8975 34.6107C21.7623 34.3403 21.7623 34.2051 21.6271 33.9347C21.6271 33.7995 21.6271 33.7995 21.6271 33.6642C21.3567 32.853 20.8158 32.7177 20.8158 33.2586Z" fill="#393939"/>
<path d="M33.7965 16.4919C38.3938 13.9228 43.2615 12.5707 48.3997 12.3003C53.9435 12.0298 59.7578 13.1115 64.2199 17.4384C68.0059 21.0892 70.4398 26.2274 70.575 31.9064C70.7102 35.0164 70.0341 38.2616 68.5467 40.8306C66.9242 43.3997 64.4903 45.2927 61.9212 46.6449C56.783 49.4844 50.9688 50.2957 45.2897 50.7013C41.7742 50.9718 38.2586 51.3774 34.743 51.5126C31.3626 51.6479 27.847 51.6479 24.4666 51.6479C20.951 51.6479 17.4354 51.5126 13.9198 51.2422C12.2973 51.107 10.8099 50.9718 9.18732 50.7013C7.83517 50.4309 6.21259 49.8901 4.99565 48.9435C4.45479 48.5379 4.04914 47.997 4.18436 47.1858C4.31957 46.2392 5.13087 45.6984 5.80694 45.428C7.29431 44.7519 9.18732 44.7519 10.8099 44.6167C14.1903 44.3462 17.5707 44.4814 20.951 44.6167C32.4443 44.7519 43.9376 44.3462 54.89 40.2898C56.5126 39.7489 58 39.0728 59.4873 38.3968C60.2986 37.9911 59.893 36.639 59.0817 36.9094C53.6731 39.3433 47.9941 41.3715 42.1798 42.318C35.8247 43.3997 29.4696 43.5349 23.1145 43.5349C19.4637 43.5349 15.8129 43.3997 12.2973 43.5349C10.5395 43.5349 8.64646 43.6702 6.88866 43.9406C5.53651 44.211 4.04914 44.6167 3.23785 45.9688C1.34484 49.3492 6.21259 51.107 8.24081 51.5126C11.6212 52.3239 15.1368 52.3239 18.5172 52.5944C22.168 52.8648 25.8188 53 29.4696 53C33.1204 53 36.7712 52.8648 40.422 52.7296C43.6672 52.5944 47.0475 52.3239 50.2927 51.9183C53.2674 51.5126 56.2422 50.8366 59.0817 49.6196C61.786 48.5379 64.4903 47.0505 66.6537 44.8871C69.0876 42.5884 70.7102 39.4785 71.3863 35.8277C72.3328 29.8782 70.575 24.064 67.1946 19.4667C63.4086 14.1933 57.7295 11.489 51.9153 11.0833C46.9123 10.6777 41.0981 11.7594 35.9599 14.1933C35.0134 14.5989 34.2021 15.1398 33.3908 15.6806C32.9852 15.9511 33.2556 16.6271 33.7965 16.4919Z" fill="#393939"/>
<path d="M55.1605 21.0892C54.0787 20.954 52.997 20.6836 51.7801 20.6836C50.6984 20.6836 49.6166 20.8188 48.6701 21.2245C46.7771 21.7653 44.8841 22.9822 43.6672 24.6048C42.315 26.2274 41.5037 28.3909 41.6389 30.6895C41.7742 32.9882 42.5854 35.0164 43.532 36.9094C44.4785 38.8024 45.9658 40.9659 47.5884 42.1828C48.2645 42.7237 49.0758 41.5067 48.3997 40.9659C47.318 39.7489 46.2363 38.6672 45.2897 37.1798C44.3432 35.5573 43.3967 33.7995 43.1263 31.7712C42.315 27.5796 45.1545 24.1992 48.3997 22.7118C49.4814 22.3062 50.5631 22.0357 51.6449 21.9005C52.8618 21.7653 53.9435 21.6301 55.1605 21.7653C55.2957 21.6301 55.4309 21.0892 55.1605 21.0892Z" fill="#393939"/>
<path d="M29.74 21.0892C30.1457 20.5484 30.4161 20.0075 30.8217 19.4667C30.9569 19.1962 31.2274 18.9258 31.3626 18.6554C31.4978 18.5202 31.7682 18.2497 32.0387 18.2497C32.3091 18.2497 32.3091 18.5202 32.4443 18.6554C32.5795 18.9258 32.5795 19.1962 32.5795 19.6019C32.7147 20.2779 32.85 21.0892 33.1204 21.7653C33.2556 22.171 33.7965 22.0357 33.7965 21.4949C33.7965 21.0892 33.6613 20.6836 33.526 20.2779C33.3908 19.8723 33.2556 19.4667 33.1204 19.061C32.9852 18.5202 32.7147 17.8441 32.0387 17.7089C31.3626 17.7089 30.957 18.3849 30.5513 18.9258C30.2809 19.1962 30.1457 19.4667 30.0104 19.8723C29.8752 20.1427 29.6048 20.5484 29.4696 20.954C29.4696 21.2245 29.6048 21.3597 29.74 21.0892Z" fill="#393939"/>
<path d="M8.24081 21.2245C7.83517 20.6836 7.56474 20.0075 7.02388 19.6019C6.75345 19.1962 5.94216 18.2497 5.53651 19.061C5.53651 19.1962 5.40129 19.6019 5.40129 20.0075C5.40129 20.4132 5.40129 20.8188 5.26608 21.0892C5.26608 21.4949 5.26608 21.9005 5.13086 22.171C5.13086 22.3062 5.13086 22.5766 5.13086 22.7118C5.13086 22.9822 5.13086 23.1175 5.26608 23.3879C5.40129 23.5231 5.53651 23.5231 5.67173 23.3879C5.80694 23.3879 5.80694 23.1175 5.94216 22.9823C5.94216 22.847 5.94216 22.5766 5.94216 22.4414C5.94216 22.0357 5.94216 21.7653 5.94216 21.3597C5.94216 20.954 5.94216 20.6836 5.94216 20.2779C5.94216 20.1427 5.94216 19.8723 5.94216 19.7371C5.94216 19.6019 5.94216 19.6019 5.94216 19.4667V19.3314H5.80694C5.80694 19.3314 5.80694 19.3314 5.94216 19.4667C6.07737 19.6019 6.07737 19.6019 6.21259 19.7371C6.61823 20.0075 6.75345 20.1427 6.88866 20.4132C7.15909 20.8188 7.56474 21.0892 7.83517 21.4949C7.97038 21.7653 8.37603 21.6301 8.24081 21.2245Z" fill="#393939"/>
<path d="M29.74 32.0417C31.0922 30.6895 32.7147 29.6078 34.3373 28.7965C35.1486 28.3909 35.9599 27.9852 36.9064 27.5796C37.3121 27.4443 37.7177 27.1739 38.2586 27.0387C38.6642 26.9035 39.2051 26.7683 39.4755 26.4978C39.6107 26.3626 39.6107 26.0922 39.3403 26.0922C38.9346 26.0922 38.3938 26.3626 37.9881 26.4978C37.5825 26.6331 37.0416 26.7683 36.636 27.0387C35.8247 27.4443 34.8782 27.85 34.0669 28.2556C32.4443 29.2021 30.957 30.4191 29.74 32.0417C29.6048 32.0417 29.6048 32.0417 29.74 32.0417Z" fill="#393939"/>
<path d="M30.9569 32.9882C32.0387 32.1769 33.2556 31.5008 34.4725 30.9599C35.1486 30.6895 35.6895 30.5543 36.3656 30.2839C36.636 30.1486 37.0416 30.1486 37.3121 30.0134C37.5825 29.8782 37.9881 29.8782 38.2586 29.743C38.3938 29.6078 38.3938 29.3374 38.2586 29.3374C37.9881 29.3374 37.7177 29.3374 37.4473 29.4726C37.0416 29.4726 36.7712 29.6078 36.3656 29.743C35.6895 30.0134 35.0134 30.1486 34.3373 30.5543C33.1204 31.0952 31.9035 31.9064 30.8217 32.853L30.9569 32.9882Z" fill="#393939"/>
<path d="M31.2274 34.6107C32.4443 33.9347 33.7965 33.529 35.1486 33.1234C36.5008 32.7177 37.8529 32.7177 39.0699 32.4473C39.3403 32.4473 39.2051 31.9064 39.0699 31.9064C37.7177 31.7712 36.2303 32.0417 34.8782 32.4473C33.526 32.853 32.3091 33.529 31.0922 34.3403C30.957 34.4755 31.0922 34.746 31.2274 34.6107Z" fill="#393939"/>
<path d="M10.9451 31.636C9.99861 30.5543 8.64646 30.1486 7.29431 29.8782C6.48302 29.743 5.80694 29.6078 4.99565 29.4726C4.59 29.4726 4.18436 29.3374 3.77871 29.3374C3.37307 29.3374 2.96742 29.2021 2.56178 29.2021C2.42656 29.2021 2.29135 29.4726 2.56178 29.6078C3.23785 29.8782 4.18436 30.0134 4.99565 30.1486C5.67173 30.2839 6.48302 30.4191 7.15909 30.5543C8.51124 30.8247 9.86339 31.0952 10.9451 31.9064C10.9451 31.7712 11.0803 31.636 10.9451 31.636Z" fill="#393939"/>
<path d="M10.5395 33.3938C9.59296 32.3121 8.37603 31.9064 7.15909 31.7712C6.3478 31.636 5.67173 31.636 4.86044 31.636C4.18436 31.636 3.23785 31.636 2.56178 31.9064C2.42656 32.0417 2.42656 32.4473 2.56178 32.4473C2.83221 32.4473 3.23785 32.4473 3.50828 32.4473C3.91393 32.4473 4.18436 32.4473 4.59001 32.4473C5.26608 32.4473 6.07737 32.4473 6.75345 32.4473C8.1056 32.4473 9.45775 32.5825 10.5395 33.3938C10.6747 33.3938 10.5395 33.529 10.5395 33.3938Z" fill="#393939"/>
<path d="M10.1338 34.6107C8.78167 34.0699 7.56474 33.7995 6.21259 33.6642C5.53651 33.6642 4.86044 33.6642 4.18436 33.6642C3.50828 33.6642 2.83221 33.6642 2.15613 34.0699C1.8857 34.2051 2.02092 34.4755 2.15613 34.4755C2.83221 34.4755 3.50828 34.3403 4.04914 34.3403C4.72522 34.3403 5.4013 34.3403 6.07737 34.3403C7.42952 34.4755 8.78167 34.6107 9.99861 35.0164C10.269 35.1516 10.4043 34.746 10.1338 34.6107Z" fill="#393939"/>
<path d="M51.6449 22.4414C49.211 22.171 46.6419 23.5231 45.2897 25.957C43.6672 28.6613 44.0728 31.9064 45.5602 34.4755C45.6954 34.8812 46.2363 34.6107 46.101 34.2051C45.6954 32.853 45.1545 31.5008 45.0193 30.1486C45.0193 28.9317 45.2897 27.5796 45.8306 26.4978C47.0475 24.1992 49.3462 22.9822 51.6449 22.7118C51.7801 22.7118 51.7801 22.4414 51.6449 22.4414Z" fill="#393939"/>
</svg>
