<svg xmlns="http://www.w3.org/2000/svg" width="63" height="54" viewBox="0 0 63 54" fill="none">
    <g clip-path="url(#clip0_86_3853)">
        <path
            d="M32.6058 51.3212C32.6058 51.7299 32.4015 52.0365 32.0949 52.2409C31.9927 52.4453 31.7883 52.5475 31.3796 52.5475C31.3796 52.5475 31.3796 52.5475 31.2774 52.5475C30.562 52.5475 30.0511 52.0365 30.0511 51.3212V40.7956C30.0511 40.4891 30.1533 40.1825 30.3577 39.9781C30.562 39.7737 30.8686 39.5693 31.1752 39.5693C31.8905 39.5693 32.4015 40.0803 32.4015 40.7956V51.3212H32.6058ZM46.0949 48.3577C45.6861 48.1533 45.4818 47.8467 45.2774 47.5401C44.562 46.6204 44.0511 45.3942 44.0511 44.0657C44.0511 40.8978 46.6058 38.3431 49.7737 38.3431C49.8759 38.3431 50.0803 38.3431 50.1825 38.3431C50.2847 36.9124 50.4891 35.4818 50.4891 34.0511C50.4891 33.2336 49.9781 32.8248 49.1606 33.0292C43.8467 34.1533 38.635 35.3796 33.3212 36.5037C32.9124 36.6058 32.6058 36.708 32.4015 37.1168C31.8905 38.0365 30.7664 38.0365 30.1533 37.1168C29.8467 36.708 29.5401 36.5037 29.1314 36.4015C26.2701 35.7883 23.3066 35.073 20.4453 34.4599C18.1971 33.9489 15.8467 33.438 13.5985 33.0292C12.3723 32.8248 12.0657 33.0292 12.1679 34.3577C12.2701 35.6861 12.1679 36.9124 12.4745 38.2409C12.5766 38.2409 12.6788 38.2409 12.781 38.2409C15.6423 38.1387 18.1971 40.2847 18.6058 43.0438C18.9124 44.781 18.2993 46.4161 17.3796 47.5401C17.1752 47.8467 16.9708 48.0511 16.7664 48.2555C15.8467 49.073 14.7226 49.5839 13.3942 49.6861C13.1898 51.0146 13.4964 51.3212 14.927 51.5256C19.3212 52.3431 23.6131 53.0584 28.0073 53.7737C28.7226 53.8759 29.2336 54.2847 29.7445 54.5912C30.1533 54.7956 30.562 55 31.073 55H31.6861C32.1971 55 32.708 54.7956 33.1168 54.5912C34.7518 53.4672 36.7956 53.5693 38.635 53.2628C41.8029 52.5474 45.073 52.0365 48.3431 51.5256C49.4672 51.3212 49.4672 50.6058 49.4672 49.6861C48.2409 49.6861 47.0146 49.1752 46.0949 48.3577Z"
            fill="#393939" />
        <path
            d="M17.9927 30.8832C17.7883 31.7007 18.0949 32.1095 18.8102 32.2117C22.2847 32.7226 25.7591 33.5401 29.2336 34.4599C30.7664 34.8686 32.1971 34.7664 33.7299 34.3577C37.4088 33.438 41.0876 32.7226 44.7664 31.9051C44.8686 31.9051 44.8686 31.8029 44.9708 31.7007C44.9708 30.3723 44.3577 29.3504 43.2336 28.7372C41.1898 27.6131 38.8394 27 36.4891 26.3869C36.4891 28.1241 36.6934 29.4526 36.6934 31.1898C35.2628 30.6788 33.8321 30.1679 32.4015 29.5547C31.7883 29.2482 31.2774 29.3504 30.562 29.5547C29.2336 30.0657 27.8029 30.5766 26.2701 31.1898C26.3723 29.3504 26.4745 28.2263 26.3723 26.3869C23.6131 27.1022 20.9562 27.6131 18.708 29.4526C18.2993 29.8613 18.0949 30.3723 17.9927 30.8832Z"
            fill="#393939" />
        <path
            d="M49.8759 40.1825C47.7299 40.1825 45.9927 41.9197 45.9927 44.0657C45.9927 46.2117 47.7299 47.9489 49.8759 47.9489C52.0219 47.9489 53.7591 46.2117 53.7591 44.0657C53.7591 41.9197 52.0219 40.1825 49.8759 40.1825Z"
            fill="#393939" />
        <path
            d="M16.7664 44.0657C16.7664 41.9197 15.0292 40.1825 12.8832 40.1825C10.7372 40.1825 9 41.9197 9 44.0657C9 46.2117 10.7372 47.9489 12.8832 47.9489C15.0292 47.9489 16.7664 46.2117 16.7664 44.0657Z"
            fill="#393939" />
        <path
            d="M30.9708 13.3066L38.4307 9.83212L47.5256 5.64234L31.4818 -1L14.927 5.64234L24.2263 10.0365L30.9708 13.3066Z"
            fill="#393939" />
        <path
            d="M46.6058 18.927V7.07299L45.1752 7.78832V18.927C45.3796 18.8248 45.6861 18.8248 45.8905 18.8248C46.0949 18.8248 46.2993 18.8248 46.6058 18.927Z"
            fill="#393939" />
        <path
            d="M48.1387 22.0949C48.1387 21.073 47.5256 20.2555 46.6058 19.9489C46.4015 19.8467 46.0949 19.8467 45.8905 19.8467C45.5839 19.8467 45.3796 19.8467 45.1752 19.9489C44.2555 20.2555 43.6423 21.073 43.6423 22.0949C43.6423 23.3212 44.6642 24.3431 45.8905 24.3431C47.1168 24.3431 48.1387 23.3212 48.1387 22.0949Z"
            fill="#393939" />
        <path
            d="M31.3796 25.365C35.2628 25.365 38.4307 21.4818 38.4307 16.6788C38.4307 15.2482 38.1241 13.8175 37.6131 12.5912L31.073 15.5547L25.146 12.6934C24.635 13.9197 24.4307 15.2482 24.4307 16.5766C24.4307 21.4818 27.4964 25.365 31.3796 25.365Z"
            fill="#393939" />
    </g>
    <defs>
        <clipPath id="clip0_86_3853">
            <rect width="63" height="54" fill="white" />
        </clipPath>
    </defs>
</svg>