<svg width="102" height="102" viewBox="0 0 102 102" fill="none" xmlns="http://www.w3.org/2000/svg">
<path d="M50.9 101.8C37.3 101.8 24.5 96.5 14.9 86.9C5.3 77.3 0 64.5 0 50.9C0 37.3 5.3 24.5 14.9 14.9C24.5 5.3 37.3 0 50.9 0C64.5 0 77.3 5.3 86.9 14.9C96.5 24.5 101.8 37.3 101.8 50.9C101.8 64.5 96.5 77.3 86.9 86.9C77.3 96.5 64.5 101.8 50.9 101.8ZM50.9 7.8C27.1 7.8 7.8 27.1 7.8 50.9C7.8 74.7 27.1 94 50.9 94C74.7 94 94 74.7 94 50.9C94 27.1 74.7 7.8 50.9 7.8Z" fill="white"/>
<path d="M67.8 70.6C67 70.6 66.3 70.4 65.6 69.9L46.7 56.9C45.6 56.2 45 55 45 53.7V21.9C45 19.8 46.7 18 48.9 18C51 18 52.8 19.7 52.8 21.9V51.6L70 63.5C71.8 64.7 72.2 67.1 71 68.9C70.3 70 69 70.6 67.8 70.6Z" fill="white"/>
</svg>
