<svg width="113" height="84" viewBox="0 0 113 84" fill="none" xmlns="http://www.w3.org/2000/svg">
<path d="M71.5802 44.8C71.5802 45.0523 71.7847 45.2567 72.037 45.2567H94.0462C94.2984 45.2567 94.5029 45.0523 94.5029 44.8V25.2834C94.5029 25.0312 94.2984 24.8267 94.0462 24.8267H81.7791C81.5269 24.8267 81.3224 24.6222 81.3224 24.3699V21.9255C81.3224 21.6733 81.5269 21.4688 81.7791 21.4688H94.0462C94.2984 21.4688 94.5029 21.2643 94.5029 21.012V13.2731C94.5029 13.0208 94.2984 12.8163 94.0462 12.8163H81.7791C81.5269 12.8163 81.3224 12.6119 81.3224 12.3596V9.45804C81.3224 9.20579 81.5269 9.0013 81.7791 9.0013H94.0462C94.2984 9.0013 94.5029 8.79681 94.5029 8.54455V1.37081C94.5029 1.11855 94.2984 0.914062 94.0462 0.914062H72.037C71.7847 0.914062 71.5802 1.11855 71.5802 1.3708V44.8ZM53.9742 11.2751C53.8024 11.5945 53.3449 11.5959 53.1711 11.2777L47.6413 1.15189C47.5612 1.00527 47.4075 0.914062 47.2404 0.914062H38.226C37.9737 0.914062 37.7692 1.11855 37.7692 1.3708V8.42061C37.7692 8.78374 37.3578 9.01441 37.0357 8.84659C36.6447 8.6428 36.1918 8.43042 35.7954 8.28039C35.6079 8.20941 35.477 8.03333 35.477 7.83284V1.3708C35.477 1.11855 35.2725 0.914062 35.0202 0.914062H26.8809C18.1296 0.914062 7.01304 10.7541 7.01304 23.0644C6.97087 39.4789 19.7728 46.9542 35.0715 45.3026C35.3017 45.2777 35.477 45.0823 35.477 44.8508V32.63C35.477 32.4619 35.5697 32.3081 35.7157 32.2248C36.3474 31.8648 36.9581 31.4357 37.5421 30.9413C37.6813 30.8235 37.7698 30.8552 37.77 31.0375C37.7719 32.8556 37.7698 42.5916 37.7693 44.8077C37.7693 45.06 37.9738 45.2567 38.2261 45.2567H47.0546C47.3069 45.2567 47.5114 45.0523 47.5114 44.8V20.5231C47.5114 20.0551 48.1314 19.8899 48.3643 20.2958L53.1758 28.6827C53.352 28.9899 53.7955 28.9884 53.9696 28.6801L58.6914 20.3216C58.9223 19.9127 59.5458 20.0766 59.5458 20.5462V44.8C59.5458 45.0523 59.7503 45.2567 60.0025 45.2567H68.8312C69.0835 45.2567 69.2879 45.0523 69.2879 44.8V1.3708C69.2879 1.11855 69.0835 0.914062 68.8312 0.914062H59.8188C59.6507 0.914062 59.4961 1.00642 59.4165 1.15449L53.9742 11.2751ZM41.6758 30.327C40.2609 29.89 38.8821 29.22 37.6076 28.2421C37.5842 28.2242 37.3155 28.5245 37.2077 28.6413C37.1817 28.6695 37.1497 28.6934 37.1162 28.7121C24.3047 35.843 15.4604 20.1048 28.4297 13.2569C39.0673 9.29219 45.2082 18.3924 40.198 24.2769C40.1338 24.3523 40.0913 24.4473 40.0878 24.5463C40.024 26.3655 41.3663 28.0907 41.8776 29.7803C41.8896 29.8207 42.0254 30.4302 42.0197 30.4286C41.9045 30.3963 41.7905 30.3616 41.6758 30.327Z" fill="#241815"/>
<path d="M70.6686 43.8859C70.6686 44.1382 70.8731 44.3427 71.1253 44.3427H93.1346C93.3868 44.3427 93.5913 44.1382 93.5913 43.8859V24.3694C93.5913 24.1171 93.3868 23.9126 93.1346 23.9126H80.8675C80.6152 23.9126 80.4108 23.7081 80.4108 23.4559V21.0115C80.4108 20.7592 80.6152 20.5547 80.8675 20.5547H93.1346C93.3868 20.5547 93.5913 20.3502 93.5913 20.098V12.359C93.5913 12.1068 93.3868 11.9023 93.1346 11.9023H80.8675C80.6152 11.9023 80.4108 11.6978 80.4108 11.4455V8.54397C80.4108 8.29172 80.6152 8.08723 80.8675 8.08723H93.1346C93.3868 8.08723 93.5913 7.88274 93.5913 7.63049V0.456743C93.5913 0.204491 93.3868 0 93.1346 0H71.1253C70.8731 0 70.6686 0.204491 70.6686 0.456742V43.8859ZM53.0626 10.361C52.8908 10.6804 52.4332 10.6819 52.2594 10.3636L46.7296 0.237828C46.6496 0.0912079 46.4958 0 46.3288 0H37.3144C37.0621 0 36.8576 0.204491 36.8576 0.456742V7.50655C36.8576 7.86968 36.4461 8.10034 36.1241 7.93253C35.733 7.72874 35.2802 7.51636 34.8838 7.36632C34.6963 7.29535 34.5653 7.11927 34.5653 6.91878V0.456742C34.5653 0.204491 34.3608 0 34.1086 0H25.9693C17.218 0 6.10142 9.84005 6.10142 22.1504C6.05925 38.5648 18.8612 46.0402 34.1599 44.3885C34.3901 44.3637 34.5653 44.1683 34.5653 43.9367V31.7159C34.5653 31.5478 34.6581 31.394 34.8041 31.3108C35.4358 30.9508 36.0465 30.5216 36.6305 30.0273C36.7697 29.9094 36.8581 29.9411 36.8583 30.1235C36.8602 31.9415 36.8582 41.6776 36.8577 43.8936C36.8577 44.1459 37.0622 44.3427 37.3145 44.3427H46.143C46.3953 44.3427 46.5998 44.1382 46.5998 43.8859V19.609C46.5998 19.141 47.2198 18.9758 47.4527 19.3817L52.2641 27.7687C52.4403 28.0758 52.8839 28.0743 53.058 27.766L57.7798 19.4075C58.0107 18.9986 58.6342 19.1626 58.6342 19.6321V43.8859C58.6342 44.1382 58.8387 44.3427 59.0909 44.3427H67.9196C68.1718 44.3427 68.3763 44.1382 68.3763 43.8859V0.456742C68.3763 0.20449 68.1718 0 67.9196 0H58.9072C58.739 0 58.5845 0.0923561 58.5049 0.240423L53.0626 10.361ZM40.7642 29.4129C39.3493 28.9759 37.9705 28.306 36.696 27.328C36.6726 27.3101 36.4039 27.6104 36.296 27.7273C36.2701 27.7554 36.2381 27.7794 36.2046 27.798C23.3931 34.9289 14.5488 19.1907 27.5181 12.3428C38.1557 8.37812 44.2966 17.4783 39.2863 23.3628C39.2221 23.4382 39.1796 23.5333 39.1762 23.6322C39.1124 25.4515 40.4547 27.1766 40.9659 28.8663C40.978 28.9066 41.1138 29.5161 41.1081 29.5145C40.9929 29.4822 40.8788 29.4476 40.7642 29.4129Z" fill="url(#paint0_linear_1319_3728)"/>
<g filter="url(#filter0_d_1319_3728)">
<g filter="url(#filter1_i_1319_3728)">
<path d="M2 53.6246C2 53.1954 2.29871 52.8242 2.7179 52.7323L21.3964 48.6381C21.9662 48.5132 22.5055 48.9471 22.5055 49.5304V74.77C22.5055 75.1992 22.2068 75.5704 21.7876 75.6623L3.10907 79.7565C2.53928 79.8814 2 79.4475 2 78.8642V53.6246Z" fill="url(#paint1_radial_1319_3728)"/>
</g>
<path d="M2.22837 53.6246C2.22837 53.3027 2.45241 53.0243 2.7668 52.9554L21.4453 48.8612C21.8726 48.7675 22.2771 49.0929 22.2771 49.5304V74.77C22.2771 75.0919 22.0531 75.3703 21.7387 75.4392L3.06017 79.5335C2.63283 79.6271 2.22837 79.3017 2.22837 78.8642V53.6246Z" stroke="#FBBF28" stroke-width="0.456742"/>
<g filter="url(#filter2_i_1319_3728)">
<path d="M110.451 30.7559C110.451 30.178 109.922 29.7453 109.355 29.8608L88.3984 34.1363C87.9731 34.2231 87.6676 34.5973 87.6676 35.0314V60.2767C87.6676 60.8546 88.1974 61.2873 88.7637 61.1717L109.721 56.8963C110.146 56.8095 110.451 56.4354 110.451 56.0013V30.7559Z" fill="url(#paint2_radial_1319_3728)"/>
</g>
<path d="M110.223 30.7559C110.223 30.3225 109.826 29.9979 109.401 30.0846L88.4441 34.3601C88.1251 34.4252 87.8959 34.7058 87.8959 35.0314V60.2767C87.8959 60.7101 88.2933 61.0346 88.718 60.948L109.675 56.6725C109.994 56.6075 110.223 56.3268 110.223 56.0013V30.7559Z" stroke="#FBBF28" stroke-width="0.456742"/>
<path d="M87.996 61.2356L100.163 51.9757C100.337 51.8436 100.211 51.5679 99.9976 51.6123L87.8304 54.1377C87.7354 54.1574 87.6672 54.2411 87.6672 54.3382V61.0727C87.6672 61.2421 87.8612 61.3382 87.996 61.2356Z" fill="#886900"/>
<path d="M22.0175 75.3432L10.4408 71.5423C10.2441 71.4777 10.2566 71.1953 10.4582 71.1483L22.2454 68.4032C22.3764 68.3727 22.5008 68.4747 22.4965 68.6092L22.286 75.1553C22.2816 75.2918 22.1473 75.3858 22.0175 75.3432Z" fill="#886900"/>
<g filter="url(#filter3_i_1319_3728)">
<path d="M9.74609 44.9392C9.74609 44.51 10.0448 44.1388 10.464 44.0469L99.7724 24.4716C100.342 24.3467 100.881 24.7806 100.881 25.3639V50.6035C100.881 51.0326 100.583 51.4039 100.164 51.4958L10.8552 71.0711C10.2854 71.196 9.74609 70.7621 9.74609 70.1788V44.9392Z" fill="url(#paint3_radial_1319_3728)"/>
</g>
<path d="M9.97446 44.9392C9.97446 44.6173 10.1985 44.3389 10.5129 44.27L99.8213 24.6947C100.249 24.601 100.653 24.9264 100.653 25.3639V50.6035C100.653 50.9253 100.429 51.2038 100.115 51.2727L10.8063 70.848C10.3789 70.9417 9.97446 70.6163 9.97446 70.1788V44.9392Z" stroke="#FBBF28" stroke-width="0.456742"/>
</g>
<path d="M65.9399 70.0358C66.2553 69.9757 66.6006 69.9307 66.976 69.9007C67.3588 69.8631 67.738 69.8444 68.1133 69.8444C68.5037 69.8444 68.8941 69.8781 69.2845 69.9457C69.6824 70.0058 70.039 70.1334 70.3543 70.3286C70.6696 70.5163 70.9248 70.7828 71.12 71.1281C71.3227 71.4659 71.4241 71.9089 71.4241 72.4569C71.4241 72.9524 71.3377 73.3728 71.1651 73.7182C70.9924 74.056 70.7634 74.3338 70.4781 74.5515C70.1929 74.7692 69.8663 74.9268 69.4984 75.0244C69.1381 75.122 68.7627 75.1708 68.3723 75.1708C68.3348 75.1708 68.2747 75.1708 68.1921 75.1708C68.1096 75.1708 68.0232 75.1708 67.9331 75.1708C67.8431 75.1633 67.753 75.1558 67.6629 75.1483C67.5803 75.1408 67.5202 75.1333 67.4827 75.1258V77.8397H65.9399V70.0358ZM68.2372 71.1732C68.087 71.1732 67.9444 71.1807 67.8093 71.1957C67.6741 71.2032 67.5653 71.2145 67.4827 71.2295V73.7857C67.5127 73.7932 67.5578 73.8007 67.6178 73.8082C67.6779 73.8157 67.7417 73.8233 67.8093 73.8308C67.8768 73.8308 67.9407 73.8308 68.0007 73.8308C68.0683 73.8308 68.1171 73.8308 68.1471 73.8308C68.3498 73.8308 68.5487 73.812 68.7439 73.7745C68.9466 73.7369 69.1268 73.6694 69.2845 73.5718C69.4421 73.4667 69.566 73.324 69.6561 73.1438C69.7537 72.9637 69.8025 72.7272 69.8025 72.4344C69.8025 72.1867 69.7574 71.984 69.6673 71.8263C69.5773 71.6611 69.4571 71.5298 69.307 71.4322C69.1643 71.3346 68.9992 71.267 68.8115 71.2295C68.6238 71.1919 68.4324 71.1732 68.2372 71.1732Z" fill="url(#paint4_linear_1319_3728)"/>
<path d="M72.3842 70.0358C72.5569 70.0058 72.7408 69.9795 72.936 69.957C73.1387 69.9269 73.3377 69.9044 73.5329 69.8894C73.7356 69.8744 73.9308 69.8631 74.1184 69.8556C74.3061 69.8481 74.4788 69.8444 74.6364 69.8444C75.0043 69.8444 75.3647 69.8781 75.7175 69.9457C76.0779 70.0133 76.3969 70.1296 76.6747 70.2948C76.96 70.46 77.1852 70.6889 77.3504 70.9817C77.523 71.267 77.6094 71.6274 77.6094 72.0628C77.6094 72.7084 77.4592 73.2339 77.1589 73.6393C76.8586 74.0447 76.457 74.3262 75.954 74.4839L76.5058 74.833L78.3075 77.8397H76.5283L74.7378 74.7542L73.927 74.6078V77.8397H72.3842V70.0358ZM74.7491 71.2182C74.5914 71.2182 74.4337 71.222 74.2761 71.2295C74.1259 71.237 74.0096 71.252 73.927 71.2745V73.5605H74.5801C75.0081 73.5605 75.3496 73.4629 75.6049 73.2677C75.8601 73.0725 75.9878 72.7497 75.9878 72.2993C75.9878 71.9614 75.8827 71.6987 75.6725 71.511C75.4623 71.3158 75.1545 71.2182 74.7491 71.2182Z" fill="url(#paint5_linear_1319_3728)"/>
<path d="M79.3161 69.957H80.8589V77.8397H79.3161V69.957Z" fill="url(#paint6_linear_1319_3728)"/>
<path d="M87.7073 77.5131C87.4671 77.6858 87.1593 77.8097 86.7839 77.8847C86.4161 77.9598 86.0369 77.9973 85.6466 77.9973C85.1736 77.9973 84.7232 77.926 84.2952 77.7834C83.8748 77.6332 83.5032 77.3968 83.1804 77.0739C82.8576 76.7436 82.5986 76.3195 82.4034 75.8014C82.2157 75.2759 82.1219 74.6416 82.1219 73.8983C82.1219 73.1251 82.227 72.4794 82.4372 71.9614C82.6549 71.4359 82.9327 71.0155 83.2705 70.7002C83.6158 70.3774 83.9987 70.1484 84.4191 70.0133C84.8395 69.8706 85.2599 69.7993 85.6803 69.7993C86.1308 69.7993 86.5099 69.8293 86.8177 69.8894C87.133 69.9495 87.392 70.0208 87.5947 70.1034L87.2907 71.4096C87.118 71.3271 86.9116 71.267 86.6713 71.2295C86.4386 71.1919 86.1533 71.1732 85.8155 71.1732C85.1924 71.1732 84.6894 71.3946 84.3065 71.8376C83.9311 72.2805 83.7435 72.9674 83.7435 73.8983C83.7435 74.3037 83.7885 74.6753 83.8786 75.0132C83.9687 75.3435 84.1038 75.6288 84.284 75.869C84.4717 76.1017 84.7006 76.2857 84.9709 76.4208C85.2487 76.5484 85.5677 76.6122 85.9281 76.6122C86.2659 76.6122 86.5512 76.5785 86.7839 76.5109C87.0167 76.4433 87.2194 76.357 87.392 76.2519L87.7073 77.5131Z" fill="url(#paint7_linear_1319_3728)"/>
<path d="M88.6599 69.957H93.3333V71.3308H90.2027V73.1664H93.0517V74.5402H90.2027V76.4658H93.3896V77.8397H88.6599V69.957Z" fill="url(#paint8_linear_1319_3728)"/>
<path d="M66.3953 38.189L66.649 38.1392L69.1957 37.6399L69.5828 37.564L69.5766 37.9584L69.5038 42.6185C69.5651 42.5966 69.6296 42.5736 69.6972 42.5495C69.9675 42.4531 70.26 42.3745 70.5739 42.313C71.2288 42.1845 71.8397 42.1636 72.4024 42.2585C72.9691 42.3367 73.4729 42.5179 73.9062 42.8082C74.347 43.0811 74.7083 43.444 74.9886 43.8928M66.3953 38.189L74.7186 44.0635M66.3953 38.189L66.391 38.4475L66.1569 52.591L66.152 52.8894L66.4493 52.9146C66.7568 52.9407 67.0786 52.9418 67.4144 52.9185L67.4159 52.9184C67.7522 52.8934 68.0616 52.8669 68.3439 52.839C68.6176 52.8119 68.8729 52.776 69.1093 52.731M66.3953 38.189L67.3923 52.5998M74.9886 43.8928C74.989 43.8934 74.9893 43.8939 74.9896 43.8944L74.7186 44.0635M74.9886 43.8928C74.9884 43.8925 74.9882 43.8921 74.9879 43.8917L74.7186 44.0635M74.9886 43.8928C75.2662 44.3282 75.4571 44.8265 75.5655 45.3829C75.7403 46.2802 75.7503 47.1284 75.5883 47.9239L75.5879 47.9261C75.4231 48.7081 75.0983 49.4155 74.6145 50.0447C74.1302 50.6745 73.4952 51.2057 72.7172 51.6412L72.713 51.6436L72.713 51.6435C71.931 52.0662 71.0157 52.3776 69.9722 52.5822L69.9712 52.5824L69.9702 52.5826L69.9692 52.5828L69.9682 52.583L69.9672 52.5832L69.9662 52.5834L69.9652 52.5836L69.9642 52.5838L69.9632 52.584L69.9622 52.5842L69.9612 52.5844L69.9602 52.5845L69.9592 52.5847L69.9582 52.5849L69.9572 52.5851L69.9562 52.5853L69.9552 52.5855L69.9543 52.5857L69.9533 52.5859L69.9523 52.5861L69.9513 52.5863L69.9503 52.5865L69.9493 52.5867L69.9483 52.5869L69.9473 52.5871L69.9463 52.5873L69.9453 52.5875L69.9443 52.5877L69.9433 52.5879L69.9423 52.5881L69.9413 52.5883L69.9403 52.5884L69.9393 52.5886L69.9383 52.5888L69.9373 52.589L69.9364 52.5892L69.9354 52.5894L69.9344 52.5896L69.9334 52.5898L69.9324 52.59L69.9314 52.5902L69.9304 52.5904L69.9294 52.5906L69.9284 52.5908L69.9274 52.591L69.9264 52.5912L69.9254 52.5914L69.9244 52.5916L69.9234 52.5918L69.9224 52.592L69.9214 52.5922L69.9204 52.5924L69.9194 52.5925L69.9184 52.5927L69.9174 52.5929L69.9165 52.5931L69.9155 52.5933L69.9145 52.5935L69.9135 52.5937L69.9125 52.5939L69.9115 52.5941L69.9105 52.5943L69.9095 52.5945L69.9085 52.5947L69.9075 52.5949L69.9065 52.5951L69.9055 52.5953L69.9045 52.5955L69.9035 52.5957L69.9025 52.5959L69.9015 52.5961L69.9005 52.5963L69.8995 52.5964L69.8985 52.5966L69.8976 52.5968L69.8966 52.597L69.8956 52.5972L69.8946 52.5974L69.8936 52.5976L69.8926 52.5978L69.8916 52.598L69.8906 52.5982L69.8896 52.5984L69.8886 52.5986L69.8876 52.5988L69.8866 52.599L69.8856 52.5992L69.8846 52.5994L69.8836 52.5996L69.8826 52.5998L69.8816 52.6L69.8806 52.6002L69.8796 52.6003L69.8787 52.6005L69.8777 52.6007L69.8767 52.6009L69.8757 52.6011L69.8747 52.6013L69.8737 52.6015L69.8727 52.6017L69.8717 52.6019L69.8707 52.6021L69.8697 52.6023L69.8687 52.6025L69.8677 52.6027L69.8667 52.6029L69.8657 52.6031L69.8647 52.6033L69.8637 52.6035L69.8627 52.6037L69.8617 52.6039L69.8607 52.6041L69.8598 52.6042L69.8588 52.6044L69.8578 52.6046L69.8568 52.6048L69.8558 52.605L69.8548 52.6052L69.8538 52.6054L69.8528 52.6056L69.8518 52.6058L69.8508 52.606L69.8498 52.6062L69.8488 52.6064L69.8478 52.6066L69.8468 52.6068L69.8458 52.607L69.8448 52.6072L69.8438 52.6074L69.8428 52.6076L69.8418 52.6078L69.8409 52.608L69.8399 52.6081L69.8389 52.6083L69.8379 52.6085L69.8369 52.6087L69.8359 52.6089L69.8349 52.6091L69.8339 52.6093L69.8329 52.6095L69.8319 52.6097L69.8309 52.6099L69.8299 52.6101L69.8289 52.6103L69.8279 52.6105L69.8269 52.6107L69.8259 52.6109L69.8249 52.6111L69.8239 52.6113L69.8229 52.6115L69.8219 52.6117L69.821 52.6119L69.82 52.6121L69.819 52.6122L69.818 52.6124L69.817 52.6126L69.816 52.6128L69.815 52.613L69.814 52.6132L69.813 52.6134L69.812 52.6136L69.811 52.6138L69.81 52.614L69.809 52.6142L69.808 52.6144L69.807 52.6146L69.806 52.6148L69.805 52.615L69.804 52.6152L69.8031 52.6154L69.8021 52.6156L69.8011 52.6158L69.8001 52.616L69.7991 52.6161L69.7981 52.6163L69.7971 52.6165L69.7961 52.6167L69.7951 52.6169L69.7941 52.6171L69.7931 52.6173L69.7921 52.6175L69.7911 52.6177L69.7901 52.6179L69.7891 52.6181L69.7881 52.6183L69.7871 52.6185L69.7861 52.6187L69.7851 52.6189L69.7841 52.6191L69.7832 52.6193L69.7822 52.6195L69.7812 52.6197L69.7802 52.6199L69.7792 52.62L69.7782 52.6202L69.7772 52.6204L69.7762 52.6206L69.7752 52.6208L69.7742 52.621L69.7732 52.6212L69.7722 52.6214L69.7712 52.6216L69.7702 52.6218L69.7692 52.622L69.7682 52.6222L69.7672 52.6224L69.7662 52.6226L69.7652 52.6228L69.7643 52.623L69.7633 52.6232L69.7623 52.6234L69.7613 52.6236L69.7603 52.6238L69.7593 52.6239L69.7583 52.6241L69.7573 52.6243L69.7563 52.6245L69.7553 52.6247L69.7543 52.6249L69.7533 52.6251L69.7523 52.6253L69.7513 52.6255L69.7503 52.6257L69.7493 52.6259L69.7483 52.6261L69.7473 52.6263L69.7463 52.6265L69.7453 52.6267L69.7444 52.6269L69.7434 52.6271L69.7424 52.6273L69.7414 52.6275L69.7404 52.6277L69.7394 52.6279L69.7384 52.628L69.7374 52.6282L69.7364 52.6284L69.7354 52.6286L69.7344 52.6288L69.7334 52.629L69.7324 52.6292L69.7314 52.6294L69.7304 52.6296L69.7294 52.6298L69.7284 52.63L69.7274 52.6302L69.7265 52.6304L69.7255 52.6306L69.7245 52.6308L69.7235 52.631L69.7225 52.6312L69.7215 52.6314L69.7205 52.6316L69.7195 52.6318L69.7185 52.6319L69.7175 52.6321L69.7165 52.6323L69.7155 52.6325L69.7145 52.6327L69.7135 52.6329L69.7125 52.6331L69.7115 52.6333L69.7105 52.6335L69.7095 52.6337L69.7085 52.6339L69.7076 52.6341L69.7066 52.6343L69.7056 52.6345L69.7046 52.6347L69.7036 52.6349L69.7026 52.6351L69.7016 52.6353L69.7006 52.6355L69.6996 52.6357L69.6986 52.6358L69.6976 52.636L69.6966 52.6362L69.6956 52.6364L69.6946 52.6366L69.6936 52.6368L69.6926 52.637L69.6916 52.6372L69.6906 52.6374L69.6896 52.6376L69.6886 52.6378L69.6877 52.638L69.6867 52.6382L69.6857 52.6384L69.6847 52.6386L69.6837 52.6388L69.6827 52.639L69.6817 52.6392L69.6807 52.6394L69.6797 52.6396L69.6787 52.6397L69.6777 52.6399L69.6767 52.6401L69.6757 52.6403L69.6747 52.6405L69.6737 52.6407L69.6727 52.6409L69.6717 52.6411L69.6707 52.6413L69.6697 52.6415L69.6688 52.6417L69.6678 52.6419L69.6668 52.6421L69.6658 52.6423L69.6648 52.6425L69.6638 52.6427L69.6628 52.6429L69.6618 52.6431L69.6608 52.6433L69.6598 52.6435L69.6588 52.6437L69.6578 52.6438L69.6568 52.644L69.6558 52.6442L69.6548 52.6444L69.6538 52.6446L69.6528 52.6448L69.6518 52.645L69.6508 52.6452L69.6499 52.6454L69.6489 52.6456L69.6479 52.6458L69.6469 52.646L69.6459 52.6462L69.6449 52.6464L69.6439 52.6466L69.6429 52.6468L69.6419 52.647L69.6409 52.6472L69.6399 52.6474L69.6389 52.6476L69.6379 52.6477L69.6369 52.6479L69.6359 52.6481L69.6349 52.6483L69.6339 52.6485L69.6329 52.6487L69.6319 52.6489L69.631 52.6491L69.63 52.6493L69.629 52.6495L69.628 52.6497L69.627 52.6499L69.626 52.6501L69.625 52.6503L69.624 52.6505L69.623 52.6507L69.622 52.6509L69.621 52.6511L69.62 52.6513L69.619 52.6515L69.618 52.6516L69.617 52.6518L69.616 52.652L69.615 52.6522L69.614 52.6524L69.613 52.6526L69.612 52.6528L69.6111 52.653L69.6101 52.6532L69.6091 52.6534L69.6081 52.6536L69.6071 52.6538L69.6061 52.654L69.6051 52.6542L69.6041 52.6544L69.6031 52.6546L69.6021 52.6548L69.6011 52.655L69.6001 52.6552L69.5991 52.6554L69.5981 52.6556L69.5971 52.6557L69.5961 52.6559L69.5951 52.6561L69.5941 52.6563L69.5932 52.6565L69.5922 52.6567L69.5912 52.6569L69.5902 52.6571L69.5892 52.6573L69.5882 52.6575L69.5872 52.6577L69.5862 52.6579L69.5852 52.6581L69.5842 52.6583L69.5832 52.6585L69.5822 52.6587L69.5812 52.6589L69.5802 52.6591L69.5792 52.6593L69.5782 52.6595L69.5772 52.6596L69.5762 52.6598L69.5752 52.66L69.5742 52.6602L69.5733 52.6604L69.5723 52.6606L69.5713 52.6608L69.5703 52.661L69.5693 52.6612L69.5683 52.6614L69.5673 52.6616L69.5663 52.6618L69.5653 52.662L69.5643 52.6622L69.5633 52.6624L69.5623 52.6626L69.5613 52.6628L69.5603 52.663L69.5593 52.6632L69.5583 52.6634L69.5573 52.6635L69.5563 52.6637L69.5553 52.6639L69.5544 52.6641L69.5534 52.6643L69.5524 52.6645L69.5514 52.6647L69.5504 52.6649L69.5494 52.6651L69.5484 52.6653L69.5474 52.6655L69.5464 52.6657L69.5454 52.6659L69.5444 52.6661L69.5434 52.6663L69.5424 52.6665L69.5414 52.6667L69.5404 52.6669L69.5394 52.6671L69.5384 52.6673L69.5374 52.6674L69.5364 52.6676L69.5354 52.6678L69.5345 52.668L69.5335 52.6682L69.5325 52.6684L69.5315 52.6686L69.5305 52.6688L69.5295 52.669L69.5285 52.6692L69.5275 52.6694L69.5265 52.6696L69.5255 52.6698L69.5245 52.67L69.5235 52.6702L69.5225 52.6704L69.5215 52.6706L69.5205 52.6708L69.5195 52.671L69.5185 52.6712L69.5175 52.6714L69.5166 52.6715L69.5156 52.6717L69.5146 52.6719L69.5136 52.6721L69.5126 52.6723L69.5116 52.6725L69.5106 52.6727L69.5096 52.6729L69.5086 52.6731L69.5076 52.6733L69.5066 52.6735L69.5056 52.6737L69.5046 52.6739L69.5036 52.6741L69.5026 52.6743L69.5016 52.6745L69.5006 52.6747L69.4996 52.6749L69.4986 52.6751L69.4977 52.6753L69.4967 52.6754L69.4957 52.6756L69.4947 52.6758L69.4937 52.676L69.4927 52.6762L69.4917 52.6764L69.4907 52.6766L69.4897 52.6768L69.4887 52.677L69.4877 52.6772L69.4867 52.6774L69.4857 52.6776L69.4847 52.6778L69.4837 52.678L69.4827 52.6782L69.4817 52.6784L69.4807 52.6786L69.4797 52.6788L69.4787 52.679L69.4778 52.6792L69.4768 52.6793L69.4758 52.6795L69.4748 52.6797L69.4738 52.6799L69.4728 52.6801L69.4718 52.6803L69.4708 52.6805L69.4698 52.6807L69.4688 52.6809L69.4678 52.6811L69.4668 52.6813L69.4658 52.6815L69.4648 52.6817L69.4638 52.6819L69.4628 52.6821C69.3749 52.6993 69.2987 52.7125 69.2365 52.7207C69.2019 52.7253 69.1561 52.7307 69.1093 52.731M74.7186 44.0635C74.9723 44.4613 75.1501 44.9215 75.2519 45.444C75.4199 46.3061 75.4277 47.1115 75.2752 47.8602C75.1203 48.5958 74.8156 49.2591 74.3613 49.8499C73.9069 50.4408 73.3069 50.945 72.5611 51.3625C71.8128 51.7669 70.9293 52.0689 69.9107 52.2687L69.4014 52.3686C69.2316 52.4019 69.1258 52.4158 69.0841 52.4104M69.1093 52.731C69.1214 52.7286 69.1335 52.7263 69.1456 52.7239L69.0841 52.4104M69.1093 52.731C69.0872 52.7311 69.0648 52.7301 69.0432 52.7273L69.0841 52.4104M69.0841 52.4104C68.849 52.4565 68.5918 52.4934 68.3125 52.521C68.0331 52.5487 67.7264 52.5749 67.3923 52.5998M69.2571 37.9534L69.252 38.28L69.3186 38.2669L69.2571 37.9534ZM69.2571 37.9534L68.9377 37.9484L68.9366 38.0162L69.2571 37.9534ZM67.3923 52.5998C67.0712 52.622 66.7659 52.6209 66.4764 52.5963L67.3923 52.5998ZM42.8245 60.2449L43.0776 60.1953L43.0824 59.9374L43.1777 54.894L43.1852 54.4983L42.7968 54.5745L41.5384 54.8212L41.7156 43.4215L41.7218 43.0271L41.3347 43.103L38.8076 43.5985L38.5541 43.6482L38.5497 43.9065L38.3511 55.4462L34.4867 56.204L34.6829 44.801L34.6897 44.406L34.302 44.482L31.7554 44.9814L31.5015 45.0311L31.4974 45.2898L31.2704 59.5743L31.2641 59.9688L31.6513 59.8929L40.4542 58.1668L40.6623 60.3118L40.6963 60.6622L41.0418 60.5944L42.8245 60.2449ZM44.5919 42.4643L44.3381 42.5141L44.334 42.7727L44.107 57.0573L44.1007 57.4518L44.4879 57.3759L52.3042 55.8432L52.5597 55.7931L52.5622 55.5328L52.5862 53.0462L52.59 52.6542L52.2052 52.7296L47.3247 53.6866L47.3832 50.8477L51.8125 49.9791L52.0639 49.9298L52.0704 49.6737L52.1336 47.1795L52.1437 46.7812L51.7527 46.8579L47.4201 47.7075L47.471 45.0327L52.3896 44.0683L52.6431 44.0186L52.6476 43.7603L52.6912 41.27L52.6981 40.8748L52.3103 40.9509L44.5919 42.4643ZM57.2366 48.9156L61.3559 48.1078L61.2662 53.6926L61.2598 54.0871L61.6471 54.0112L64.1938 53.5118L64.4476 53.4621L64.4517 53.2034L64.6787 38.9189L64.685 38.5244L64.2978 38.6003L61.7511 39.0996L61.497 39.1495L61.4931 39.4084L61.4097 44.9643L57.2903 45.7721L57.3718 40.3514L57.3777 39.9572L56.9908 40.0331L54.4442 40.5324L54.1903 40.5822L54.1862 40.8409L53.9592 55.1254L53.953 55.5199L54.3401 55.444L56.8868 54.9446L57.1406 54.8948L57.1448 54.6362L57.2366 48.9156ZM76.7181 36.1648L76.4642 36.2146L76.4601 36.4733L76.2331 50.7578L76.2269 51.1523L76.6141 51.0764L79.1607 50.577L79.4146 50.5273L79.4187 50.2686L79.6457 35.9841L79.652 35.5896L79.2648 35.6655L76.7181 36.1648ZM69.1771 43.0752C69.27 43.0416 69.3772 43.0031 69.4984 42.9597L69.1771 43.0752ZM71.1396 49.0518L71.1368 49.0534C70.8263 49.2248 70.4714 49.3513 70.0691 49.4302C69.8028 49.4824 69.5723 49.5114 69.3755 49.5198L69.4491 45.7683C69.5208 45.7398 69.6157 45.7066 69.7373 45.6692L69.7452 45.6668L69.7529 45.6639C69.9845 45.5794 70.1726 45.5246 70.3202 45.4957C70.9775 45.3668 71.4386 45.4177 71.7476 45.5842C72.0429 45.7433 72.256 46.039 72.3538 46.5408C72.4303 46.9337 72.4235 47.2786 72.3446 47.5817C72.263 47.8948 72.123 48.1767 71.9236 48.4299C71.722 48.6696 71.4626 48.8777 71.1396 49.0518Z" fill="url(#paint9_linear_1319_3728)" stroke="#FAD07D" stroke-width="0.638976"/>
<defs>
<filter id="filter0_d_1319_3728" x="0.173031" y="24.4502" width="112.105" height="58.9816" filterUnits="userSpaceOnUse" color-interpolation-filters="sRGB">
<feFlood flood-opacity="0" result="BackgroundImageFix"/>
<feColorMatrix in="SourceAlpha" type="matrix" values="0 0 0 0 0 0 0 0 0 0 0 0 0 0 0 0 0 0 127 0" result="hardAlpha"/>
<feOffset dy="1.82697"/>
<feGaussianBlur stdDeviation="0.913485"/>
<feComposite in2="hardAlpha" operator="out"/>
<feColorMatrix type="matrix" values="0 0 0 0 0 0 0 0 0 0 0 0 0 0 0 0 0 0 0.25 0"/>
<feBlend mode="normal" in2="BackgroundImageFix" result="effect1_dropShadow_1319_3728"/>
<feBlend mode="normal" in="SourceGraphic" in2="effect1_dropShadow_1319_3728" result="shape"/>
</filter>
<filter id="filter1_i_1319_3728" x="0.629773" y="48.6167" width="21.8756" height="32.9881" filterUnits="userSpaceOnUse" color-interpolation-filters="sRGB">
<feFlood flood-opacity="0" result="BackgroundImageFix"/>
<feBlend mode="normal" in="SourceGraphic" in2="BackgroundImageFix" result="shape"/>
<feColorMatrix in="SourceAlpha" type="matrix" values="0 0 0 0 0 0 0 0 0 0 0 0 0 0 0 0 0 0 127 0" result="hardAlpha"/>
<feOffset dx="-1.37023" dy="1.82697"/>
<feGaussianBlur stdDeviation="0.913485"/>
<feComposite in2="hardAlpha" operator="arithmetic" k2="-1" k3="1"/>
<feColorMatrix type="matrix" values="0 0 0 0 0.984314 0 0 0 0 0.74902 0 0 0 0 0.156863 0 0 0 0.85 0"/>
<feBlend mode="normal" in2="shape" result="effect1_innerShadow_1319_3728"/>
</filter>
<filter id="filter2_i_1319_3728" x="86.2973" y="29.8423" width="24.1542" height="33.1751" filterUnits="userSpaceOnUse" color-interpolation-filters="sRGB">
<feFlood flood-opacity="0" result="BackgroundImageFix"/>
<feBlend mode="normal" in="SourceGraphic" in2="BackgroundImageFix" result="shape"/>
<feColorMatrix in="SourceAlpha" type="matrix" values="0 0 0 0 0 0 0 0 0 0 0 0 0 0 0 0 0 0 127 0" result="hardAlpha"/>
<feOffset dx="-1.37023" dy="1.82697"/>
<feGaussianBlur stdDeviation="0.913485"/>
<feComposite in2="hardAlpha" operator="arithmetic" k2="-1" k3="1"/>
<feColorMatrix type="matrix" values="0 0 0 0 0.984314 0 0 0 0 0.74902 0 0 0 0 0.156863 0 0 0 0.85 0"/>
<feBlend mode="normal" in2="shape" result="effect1_innerShadow_1319_3728"/>
</filter>
<filter id="filter3_i_1319_3728" x="8.37587" y="24.4502" width="92.5057" height="48.4695" filterUnits="userSpaceOnUse" color-interpolation-filters="sRGB">
<feFlood flood-opacity="0" result="BackgroundImageFix"/>
<feBlend mode="normal" in="SourceGraphic" in2="BackgroundImageFix" result="shape"/>
<feColorMatrix in="SourceAlpha" type="matrix" values="0 0 0 0 0 0 0 0 0 0 0 0 0 0 0 0 0 0 127 0" result="hardAlpha"/>
<feOffset dx="-1.37023" dy="1.82697"/>
<feGaussianBlur stdDeviation="0.913485"/>
<feComposite in2="hardAlpha" operator="arithmetic" k2="-1" k3="1"/>
<feColorMatrix type="matrix" values="0 0 0 0 0.984314 0 0 0 0 0.74902 0 0 0 0 0.156863 0 0 0 0.85 0"/>
<feBlend mode="normal" in2="shape" result="effect1_innerShadow_1319_3728"/>
</filter>
<linearGradient id="paint0_linear_1319_3728" x1="51.8968" y1="1.03235e-05" x2="73.5021" y2="48.0328" gradientUnits="userSpaceOnUse">
<stop stop-color="#FE623C"/>
<stop offset="1" stop-color="#BE320C"/>
</linearGradient>
<radialGradient id="paint1_radial_1319_3728" cx="0" cy="0" r="1" gradientUnits="userSpaceOnUse" gradientTransform="translate(12.2527 64.1973) rotate(90) scale(15.8023 10.2527)">
<stop stop-color="#FFBC00"/>
<stop offset="0.57" stop-color="#FD9E00"/>
<stop offset="1" stop-color="#F79500"/>
</radialGradient>
<radialGradient id="paint2_radial_1319_3728" cx="0" cy="0" r="1" gradientUnits="userSpaceOnUse" gradientTransform="translate(99.0595 45.5163) rotate(90) scale(15.8791 11.3919)">
<stop stop-color="#FFBC00"/>
<stop offset="0.57" stop-color="#FD9E00"/>
<stop offset="1" stop-color="#F79500"/>
</radialGradient>
<radialGradient id="paint3_radial_1319_3728" cx="0" cy="0" r="1" gradientUnits="userSpaceOnUse" gradientTransform="translate(55.3138 47.7713) rotate(90) scale(23.5428 45.5677)">
<stop stop-color="#FFBC00"/>
<stop offset="0.57" stop-color="#FD9E00"/>
<stop offset="1" stop-color="#F79500"/>
</radialGradient>
<linearGradient id="paint4_linear_1319_3728" x1="78.9369" y1="70.2257" x2="78.9369" y2="78.8474" gradientUnits="userSpaceOnUse">
<stop stop-color="#404040"/>
<stop offset="1" stop-color="#828282"/>
</linearGradient>
<linearGradient id="paint5_linear_1319_3728" x1="78.9369" y1="70.2257" x2="78.9369" y2="78.8474" gradientUnits="userSpaceOnUse">
<stop stop-color="#404040"/>
<stop offset="1" stop-color="#828282"/>
</linearGradient>
<linearGradient id="paint6_linear_1319_3728" x1="78.9369" y1="70.2257" x2="78.9369" y2="78.8474" gradientUnits="userSpaceOnUse">
<stop stop-color="#404040"/>
<stop offset="1" stop-color="#828282"/>
</linearGradient>
<linearGradient id="paint7_linear_1319_3728" x1="78.9369" y1="70.2257" x2="78.9369" y2="78.8474" gradientUnits="userSpaceOnUse">
<stop stop-color="#404040"/>
<stop offset="1" stop-color="#828282"/>
</linearGradient>
<linearGradient id="paint8_linear_1319_3728" x1="78.9369" y1="70.2257" x2="78.9369" y2="78.8474" gradientUnits="userSpaceOnUse">
<stop stop-color="#404040"/>
<stop offset="1" stop-color="#828282"/>
</linearGradient>
<linearGradient id="paint9_linear_1319_3728" x1="52.4294" y1="41.5725" x2="55.3703" y2="56.5708" gradientUnits="userSpaceOnUse">
<stop stop-color="#753000"/>
<stop offset="1" stop-color="#99480D"/>
</linearGradient>
</defs>
</svg>
