<svg width="80" height="52" viewBox="0 0 80 52" fill="none" xmlns="http://www.w3.org/2000/svg">
<path d="M45.3574 27.9166C45.3574 28.0738 45.4848 28.2012 45.642 28.2012H59.3565C59.5137 28.2012 59.6411 28.0738 59.6411 27.9166V15.7553C59.6411 15.5981 59.5137 15.4707 59.3565 15.4707H51.7126C51.5554 15.4707 51.428 15.3432 51.428 15.186V13.6629C51.428 13.5057 51.5554 13.3783 51.7126 13.3783H59.3565C59.5137 13.3783 59.6411 13.2508 59.6411 13.0936V8.27131C59.6411 8.11412 59.5137 7.9867 59.3565 7.9867H51.7126C51.5554 7.9867 51.428 7.85927 51.428 7.70209V5.89405C51.428 5.73686 51.5554 5.60944 51.7126 5.60944H59.3565C59.5137 5.60944 59.6411 5.48202 59.6411 5.32483V0.854677C59.6411 0.697492 59.5137 0.570068 59.3565 0.570068H45.642C45.4848 0.570068 45.3574 0.697492 45.3574 0.854677V27.9166ZM34.3866 7.02629C34.2796 7.22531 33.9944 7.22624 33.8861 7.02791L30.4404 0.718265C30.3905 0.626902 30.2947 0.570068 30.1906 0.570068H24.5735C24.4163 0.570068 24.2888 0.697492 24.2888 0.854677V5.2476C24.2888 5.47387 24.0324 5.61761 23.8318 5.51304C23.5881 5.38605 23.3059 5.25371 23.0589 5.16022C22.9421 5.11599 22.8605 5.00628 22.8605 4.88134V0.854677C22.8605 0.697492 22.733 0.570068 22.5759 0.570068H17.5041C12.0509 0.570068 5.12384 6.70166 5.12384 14.3726C5.09757 24.6008 13.0748 29.2589 22.6078 28.2297C22.7512 28.2143 22.8605 28.0925 22.8605 27.9482V20.3331C22.8605 20.2284 22.9182 20.1325 23.0093 20.0806C23.4029 19.8563 23.7834 19.5889 24.1473 19.2809C24.2341 19.2074 24.2892 19.2272 24.2893 19.3408C24.2905 20.4737 24.2892 26.5405 24.2889 27.9213C24.2889 28.0786 24.4163 28.2012 24.5735 28.2012H30.0748C30.232 28.2012 30.3594 28.0738 30.3594 27.9166V12.789C30.3594 12.4974 30.7458 12.3944 30.8909 12.6473L33.8891 17.8735C33.9989 18.0648 34.2752 18.0639 34.3837 17.8718L37.326 12.6634C37.4699 12.4086 37.8584 12.5108 37.8584 12.8034V27.9166C37.8584 28.0738 37.9858 28.2012 38.143 28.2012H43.6444C43.8016 28.2012 43.929 28.0738 43.929 27.9166V0.854677C43.929 0.697492 43.8016 0.570068 43.6444 0.570068H38.0285C37.9238 0.570068 37.8275 0.627618 37.7779 0.719883L34.3866 7.02629ZM26.7232 18.898C25.8415 18.6257 24.9823 18.2083 24.1881 17.5989C24.1735 17.5877 24.0061 17.7749 23.9389 17.8477C23.9227 17.8652 23.9028 17.8801 23.8819 17.8917C15.8988 22.3352 10.3876 12.5283 18.4691 8.26122C25.0977 5.7907 28.9243 11.4613 25.8023 15.1281C25.7623 15.175 25.7358 15.2343 25.7336 15.2959C25.6939 16.4296 26.5303 17.5046 26.8489 18.5574C26.8564 18.5825 26.941 18.9623 26.9374 18.9613C26.8656 18.9412 26.7946 18.9196 26.7232 18.898Z" fill="#241815"/>
<path d="M44.7893 27.3465C44.7893 27.5037 44.9167 27.6311 45.0739 27.6311H58.7884C58.9456 27.6311 59.073 27.5037 59.073 27.3465V15.1852C59.073 15.028 58.9456 14.9006 58.7884 14.9006H51.1445C50.9873 14.9006 50.8599 14.7732 50.8599 14.616V13.0928C50.8599 12.9356 50.9873 12.8082 51.1445 12.8082H58.7884C58.9456 12.8082 59.073 12.6808 59.073 12.5236V7.70124C59.073 7.54405 58.9456 7.41663 58.7884 7.41663H51.1445C50.9873 7.41663 50.8599 7.2892 50.8599 7.13202V5.32398C50.8599 5.16679 50.9873 5.03937 51.1445 5.03937H58.7884C58.9456 5.03937 59.073 4.91195 59.073 4.75476V0.284609C59.073 0.127424 58.9456 0 58.7884 0H45.0739C44.9167 0 44.7893 0.127424 44.7893 0.284608V27.3465ZM33.8185 6.45623C33.7114 6.65525 33.4263 6.65617 33.318 6.45784L29.8723 0.148197C29.8224 0.0568337 29.7266 0 29.6225 0H24.0053C23.8482 0 23.7207 0.127424 23.7207 0.284608V4.67753C23.7207 4.90381 23.4643 5.04754 23.2637 4.94297C23.02 4.81598 22.7378 4.68364 22.4908 4.59015C22.374 4.54592 22.2924 4.43621 22.2924 4.31128V0.284608C22.2924 0.127424 22.1649 0 22.0077 0H16.936C11.4828 0 4.55573 6.1316 4.55573 13.8025C4.52945 24.0308 12.5067 28.6889 22.0397 27.6597C22.1831 27.6442 22.2924 27.5224 22.2924 27.3782V19.7631C22.2924 19.6583 22.3501 19.5624 22.4411 19.5106C22.8348 19.2862 23.2153 19.0188 23.5792 18.7108C23.6659 18.6374 23.7211 18.6571 23.7212 18.7707C23.7224 19.9036 23.7211 25.9704 23.7208 27.3513C23.7208 27.5085 23.8482 27.6311 24.0054 27.6311H29.5067C29.6639 27.6311 29.7913 27.5037 29.7913 27.3465V12.2189C29.7913 11.9273 30.1777 11.8243 30.3228 12.0773L33.321 17.3034C33.4307 17.4948 33.7071 17.4939 33.8156 17.3018L36.7579 12.0933C36.9018 11.8386 37.2903 11.9407 37.2903 12.2333V27.3465C37.2903 27.5037 37.4177 27.6311 37.5749 27.6311H43.0763C43.2335 27.6311 43.3609 27.5037 43.3609 27.3465V0.284608C43.3609 0.127423 43.2335 0 43.0763 0H37.4604C37.3556 0 37.2593 0.0575496 37.2097 0.149814L33.8185 6.45623ZM26.155 18.328C25.2734 18.0557 24.4142 17.6382 23.62 17.0288C23.6054 17.0177 23.438 17.2048 23.3708 17.2776C23.3546 17.2952 23.3347 17.3101 23.3138 17.3217C15.3306 21.7651 9.81952 11.9583 17.901 7.69115C24.5296 5.22063 28.3562 10.8912 25.2341 14.558C25.1941 14.605 25.1677 14.6642 25.1655 14.7259C25.1258 15.8595 25.9622 16.9345 26.2807 17.9874C26.2882 18.0125 26.3729 18.3923 26.3693 18.3913C26.2975 18.3712 26.2265 18.3496 26.155 18.328Z" fill="url(#paint0_linear_576_7228)"/>
<g filter="url(#filter0_d_576_7228)">
<g filter="url(#filter1_i_576_7228)">
<path d="M2 33.4152C2 33.1478 2.18614 32.9164 2.44734 32.8592L14.0864 30.308C14.4415 30.2302 14.7775 30.5005 14.7775 30.864V46.5915C14.7775 46.8589 14.5914 47.0902 14.3302 47.1475L2.69109 49.6987C2.33604 49.7765 2 49.5062 2 49.1427V33.4152Z" fill="url(#paint1_radial_576_7228)"/>
</g>
<path d="M2.1423 33.4152C2.1423 33.2146 2.28191 33.0411 2.47781 32.9982L14.1169 30.447C14.3832 30.3886 14.6352 30.5914 14.6352 30.864V46.5915C14.6352 46.792 14.4956 46.9655 14.2997 47.0085L2.66062 49.5597C2.39433 49.6181 2.1423 49.4153 2.1423 49.1427V33.4152Z" stroke="#FBBF28" stroke-width="0.284608"/>
<g filter="url(#filter2_i_576_7228)">
<path d="M69.579 19.1648C69.579 18.8047 69.2488 18.5351 68.896 18.6071L55.8372 21.2713C55.5721 21.3254 55.3818 21.5585 55.3818 21.829V37.5601C55.3818 37.9202 55.7119 38.1898 56.0648 38.1178L69.1235 35.4536C69.3886 35.3996 69.579 35.1664 69.579 34.8959V19.1648Z" fill="url(#paint2_radial_576_7228)"/>
</g>
<path d="M69.4367 19.1648C69.4367 18.8948 69.189 18.6926 68.9244 18.7465L55.8656 21.4107C55.6668 21.4513 55.5241 21.6261 55.5241 21.829V37.5601C55.5241 37.8301 55.7717 38.0323 56.0363 37.9784L69.0951 35.3142C69.2939 35.2737 69.4367 35.0988 69.4367 34.8959V19.1648Z" stroke="#FBBF28" stroke-width="0.284608"/>
<path d="M55.5864 38.1577L63.1682 32.3876C63.2763 32.3053 63.198 32.1335 63.065 32.1611L55.4832 33.7348C55.424 33.7471 55.3816 33.7993 55.3816 33.8597V38.0562C55.3816 38.1617 55.5025 38.2216 55.5864 38.1577Z" fill="#886900"/>
<path d="M14.4734 46.9488L7.25967 44.5804C7.13709 44.5401 7.14488 44.3642 7.27053 44.3349L14.6154 42.6243C14.6971 42.6053 14.7746 42.6689 14.7719 42.7527L14.6407 46.8317C14.638 46.9168 14.5543 46.9754 14.4734 46.9488Z" fill="#886900"/>
<g filter="url(#filter3_i_576_7228)">
<path d="M6.82678 28.0028C6.82678 27.7354 7.01292 27.504 7.27413 27.4468L62.9246 15.2489C63.2797 15.1711 63.6157 15.4414 63.6157 15.8049V31.5324C63.6157 31.7998 63.4296 32.0311 63.1683 32.0884L7.51787 44.2863C7.16282 44.3641 6.82678 44.0937 6.82678 43.7302V28.0028Z" fill="url(#paint3_radial_576_7228)"/>
</g>
<path d="M6.96909 28.0028C6.96909 27.8022 7.10869 27.6287 7.3046 27.5858L62.9551 15.3879C63.2214 15.3295 63.4734 15.5323 63.4734 15.8049V31.5324C63.4734 31.7329 63.3338 31.9064 63.1379 31.9494L7.48741 44.1473C7.22112 44.2056 6.96909 44.0029 6.96909 43.7302V28.0028Z" stroke="#FBBF28" stroke-width="0.284608"/>
</g>
<path d="M26.2377 44.3881H24.5185V48.444H23.5572V43.532H27.199V48.444H26.2377V44.3881ZM28.0388 43.5812C28.2353 43.5437 28.4505 43.5157 28.6844 43.497C28.9229 43.4736 29.1592 43.4619 29.3931 43.4619C29.6363 43.4619 29.8796 43.4829 30.1229 43.525C30.3708 43.5624 30.593 43.642 30.7895 43.7636C30.9859 43.8805 31.145 44.0466 31.2666 44.2618C31.3929 44.4723 31.4561 44.7483 31.4561 45.0898C31.4561 45.3986 31.4023 45.6605 31.2947 45.8757C31.1871 46.0862 31.0444 46.2593 30.8667 46.395C30.6889 46.5307 30.4854 46.6289 30.2562 46.6897C30.0316 46.7505 29.7977 46.7809 29.5545 46.7809C29.5311 46.7809 29.4937 46.7809 29.4422 46.7809C29.3907 46.7809 29.3369 46.7809 29.2808 46.7809C29.2247 46.7763 29.1685 46.7716 29.1124 46.7669C29.0609 46.7622 29.0235 46.7575 29.0001 46.7529V48.444H28.0388V43.5812ZM29.4703 44.2899C29.3767 44.2899 29.2878 44.2946 29.2036 44.3039C29.1194 44.3086 29.0516 44.3156 29.0001 44.325V45.9178C29.0188 45.9225 29.0469 45.9272 29.0843 45.9319C29.1218 45.9365 29.1615 45.9412 29.2036 45.9459C29.2457 45.9459 29.2855 45.9459 29.3229 45.9459C29.365 45.9459 29.3954 45.9459 29.4141 45.9459C29.5404 45.9459 29.6644 45.9342 29.786 45.9108C29.9123 45.8874 30.0246 45.8453 30.1229 45.7845C30.2211 45.719 30.2983 45.6301 30.3544 45.5179C30.4152 45.4056 30.4456 45.2582 30.4456 45.0758C30.4456 44.9214 30.4176 44.7951 30.3614 44.6969C30.3053 44.5939 30.2304 44.5121 30.1369 44.4513C30.048 44.3905 29.9451 44.3484 29.8281 44.325C29.7112 44.3016 29.5919 44.2899 29.4703 44.2899ZM32.0544 43.532H34.9665V44.3881H33.0157V45.5319H34.7911V46.388H33.0157V47.5879H35.0016V48.444H32.0544V43.532ZM38.401 44.3881H36.6819V48.444H35.7205V43.532H39.3624V48.444H38.401V44.3881ZM40.0478 45.988C40.0478 45.1693 40.2279 44.5402 40.5881 44.1004C40.9483 43.656 41.4629 43.4338 42.1318 43.4338C42.4827 43.4338 42.7891 43.4946 43.051 43.6162C43.313 43.7379 43.5305 43.911 43.7036 44.1355C43.8767 44.36 44.0054 44.629 44.0896 44.9425C44.1738 45.2559 44.2159 45.6044 44.2159 45.988C44.2159 46.8067 44.0334 47.4382 43.6685 47.8826C43.3083 48.3223 42.7961 48.5422 42.1318 48.5422C41.7763 48.5422 41.4675 48.4814 41.2056 48.3598C40.9436 48.2381 40.7261 48.065 40.553 47.8405C40.3846 47.616 40.2583 47.347 40.1741 47.0335C40.0899 46.7201 40.0478 46.3716 40.0478 45.988ZM41.0582 45.988C41.0582 46.2359 41.0793 46.4652 41.1214 46.6757C41.1635 46.8815 41.2266 47.0593 41.3108 47.209C41.3997 47.3587 41.512 47.4756 41.6476 47.5598C41.7833 47.644 41.9447 47.6861 42.1318 47.6861C42.4733 47.6861 42.7376 47.5528 42.9247 47.2862C43.1119 47.0195 43.2054 46.5868 43.2054 45.988C43.2054 45.7494 43.1844 45.5272 43.1423 45.3214C43.1048 45.1156 43.044 44.9354 42.9598 44.7811C42.8756 44.6267 42.7657 44.5074 42.63 44.4232C42.4944 44.3343 42.3283 44.2899 42.1318 44.2899C41.7903 44.2899 41.526 44.4279 41.3389 44.7039C41.1518 44.9752 41.0582 45.4032 41.0582 45.988ZM49.0813 49.3211H48.4006L48.2954 48.444H45.1377L45.0324 49.3211H44.3518V47.5879H44.871C44.9038 47.5364 44.9576 47.4218 45.0324 47.2441C45.1073 47.0663 45.1821 46.816 45.257 46.4932C45.3318 46.1658 45.395 45.7588 45.4464 45.2723C45.4979 44.7811 45.5213 44.201 45.5166 43.532H48.4568V47.5879H49.0813V49.3211ZM47.4954 47.5879V44.3881H46.4078C46.3797 45.2208 46.3119 45.9038 46.2043 46.4371C46.1014 46.9657 45.9961 47.3493 45.8885 47.5879H47.4954ZM52.0453 47.3563H50.5366L50.1647 48.444H49.2034L50.9717 43.497H51.6804L53.4487 48.444H52.4383L52.0453 47.3563ZM50.7822 46.5845H51.8348L51.4699 45.4898L51.3226 44.7179H51.2875L51.1401 45.4968L50.7822 46.5845ZM57.1781 44.6758C57.1781 44.7974 57.1617 44.9191 57.1289 45.0407C57.1009 45.1623 57.0518 45.2746 56.9816 45.3775C56.9114 45.4758 56.8202 45.5646 56.7079 45.6442C56.5956 45.719 56.46 45.7752 56.3009 45.8126V45.8547C56.4413 45.8781 56.5746 45.9178 56.7009 45.974C56.8272 46.0301 56.9371 46.1073 57.0307 46.2055C57.1243 46.3038 57.1968 46.4231 57.2482 46.5634C57.3044 46.7037 57.3324 46.8698 57.3324 47.0616C57.3324 47.3142 57.2786 47.5341 57.171 47.7212C57.0635 47.9037 56.9184 48.0534 56.736 48.1703C56.5582 48.2873 56.3547 48.3738 56.1255 48.4299C55.8963 48.4861 55.66 48.5141 55.4168 48.5141C55.3373 48.5141 55.2343 48.5141 55.108 48.5141C54.9864 48.5141 54.8531 48.5095 54.7081 48.5001C54.5677 48.4954 54.4227 48.4861 54.273 48.472C54.128 48.458 53.9947 48.437 53.873 48.4089V43.5671C53.9619 43.5531 54.0625 43.5391 54.1748 43.525C54.2917 43.511 54.4157 43.4993 54.5467 43.4899C54.6777 43.4806 54.811 43.4736 54.9466 43.4689C55.087 43.4642 55.225 43.4619 55.3606 43.4619C55.5899 43.4619 55.8121 43.4806 56.0273 43.518C56.2471 43.5507 56.4413 43.6116 56.6097 43.7004C56.7828 43.7893 56.9208 43.9133 57.0237 44.0723C57.1266 44.2314 57.1781 44.4326 57.1781 44.6758ZM55.4238 47.7212C55.5408 47.7212 55.653 47.7072 55.7606 47.6791C55.8729 47.651 55.9711 47.6089 56.0553 47.5528C56.1395 47.492 56.2074 47.4171 56.2588 47.3283C56.3103 47.2394 56.336 47.1341 56.336 47.0125C56.336 46.8581 56.3056 46.7365 56.2448 46.6476C56.184 46.5587 56.1045 46.4909 56.0062 46.4441C55.908 46.3927 55.798 46.3599 55.6764 46.3459C55.5548 46.3318 55.4332 46.3248 55.3115 46.3248H54.7993V47.6791C54.8227 47.6885 54.8601 47.6955 54.9116 47.7002C54.963 47.7048 55.0168 47.7095 55.0729 47.7142C55.1338 47.7142 55.1946 47.7165 55.2554 47.7212C55.3209 47.7212 55.377 47.7212 55.4238 47.7212ZM55.108 45.595C55.1735 45.595 55.2484 45.5927 55.3326 45.588C55.4215 45.5834 55.494 45.5763 55.5501 45.567C55.7279 45.5108 55.8799 45.4266 56.0062 45.3144C56.1372 45.2021 56.2027 45.0547 56.2027 44.8723C56.2027 44.7507 56.1793 44.6501 56.1325 44.5706C56.0857 44.491 56.0226 44.4279 55.9431 44.3811C55.8682 44.3343 55.7817 44.3016 55.6834 44.2829C55.5852 44.2641 55.4823 44.2548 55.3747 44.2548C55.2531 44.2548 55.1408 44.2571 55.0379 44.2618C54.9349 44.2665 54.8554 44.2735 54.7993 44.2829V45.595H55.108ZM60.4397 47.3563H58.9311L58.5592 48.444H57.5978L59.3661 43.497H60.0748L61.8431 48.444H60.8327L60.4397 47.3563ZM59.1767 46.5845H60.2292L59.8643 45.4898L59.717 44.7179H59.6819L59.5345 45.4968L59.1767 46.5845ZM65.2067 44.3881H63.7752V48.444H62.8139V44.3881H61.3754V43.532H65.2067V44.3881ZM65.7074 43.532H68.6195V44.3881H66.6688V45.5319H68.4441V46.388H66.6688V47.5879H68.6546V48.444H65.7074V43.532ZM71.9418 44.3881H70.8963C70.8776 44.8325 70.8565 45.2372 70.8331 45.6021C70.8097 45.967 70.777 46.2968 70.7349 46.5915C70.6975 46.8815 70.646 47.1388 70.5805 47.3633C70.515 47.5879 70.4308 47.782 70.3279 47.9458C70.2624 48.0534 70.1876 48.1422 70.1034 48.2124C70.0238 48.2826 69.9396 48.3387 69.8507 48.3808C69.7619 48.4229 69.673 48.451 69.5841 48.465C69.4999 48.4837 69.4204 48.4931 69.3455 48.4931C69.2379 48.4931 69.1467 48.4837 69.0718 48.465C69.0017 48.451 68.9315 48.4276 68.8613 48.3949L68.9666 47.5668C68.9947 47.5762 69.0227 47.5832 69.0508 47.5879C69.0789 47.5926 69.1069 47.5949 69.135 47.5949C69.2098 47.5949 69.2824 47.5762 69.3525 47.5388C69.4274 47.5013 69.4905 47.4382 69.542 47.3493C69.6122 47.2464 69.673 47.0967 69.7244 46.9002C69.7759 46.6991 69.8203 46.4441 69.8578 46.1354C69.8999 45.8266 69.9326 45.4594 69.956 45.0337C69.9794 44.6033 69.9958 44.1028 70.0051 43.532H72.9032V48.444H71.9418V44.3881ZM76.6085 45.7214L76.6646 45.0828H76.6295L76.2997 45.7424L74.4683 48.444H73.7455V43.532H74.7069V46.2055L74.6367 46.8651H74.6788L75.0226 46.1845L76.8541 43.532H77.5698V48.444H76.6085V45.7214Z" fill="url(#paint4_linear_576_7228)"/>
<mask id="path-12-outside-1_576_7228" maskUnits="userSpaceOnUse" x="10.4238" y="19.563" width="51.9593" height="19.6289" fill="black">
<rect fill="white" x="10.4238" y="19.563" width="51.9593" height="19.6289"/>
<path d="M17.2704 30.442L15.0844 30.8707L14.9677 37.6568L13.5141 37.9418L13.6196 31.1579L11.4336 31.5865L11.4587 30.1541L17.2842 29.0118L17.2704 30.442ZM18.1391 28.8442L19.604 28.5569L22.5787 27.9736L22.5536 29.4061L19.5789 29.9894L19.5424 31.9038L22.258 31.3713L22.2217 32.806L19.5286 33.334L19.4872 35.3431L22.5183 34.7487L22.5045 36.1789L19.4734 36.7733L18.0086 37.0605L18.1391 28.8442ZM27.4705 33.3915L25.1718 33.8422L24.577 35.7726L23.022 36.0775L25.8571 27.2723L26.9388 27.0602L29.5123 34.8048L28.0362 35.0943L27.4705 33.3915ZM25.5726 32.4765L27.1726 32.1628L26.6498 30.44L26.4195 29.198L26.3631 29.209L26.1562 30.5484L25.5726 32.4765ZM35.057 33.3783C34.6167 33.8 34.0321 34.0824 33.3035 34.2252C32.8077 34.3225 32.3597 34.3245 31.9594 34.2314C31.5591 34.1382 31.2065 33.9695 30.9015 33.725C30.604 33.4791 30.3571 33.1726 30.1608 32.8055C29.9645 32.4383 29.8224 32.0294 29.7346 31.5785C29.5618 30.6919 29.5387 29.9125 29.665 29.2402C29.79 28.5605 30.0165 27.9817 30.3445 27.504C30.6711 27.0187 31.0753 26.6313 31.557 26.3418C32.0462 26.0509 32.565 25.8516 33.1134 25.7441C33.5416 25.6602 33.9125 25.6225 34.2262 25.6312C34.5459 25.6309 34.8001 25.6552 34.989 25.704L34.6691 27.124C34.5027 27.0708 34.3107 27.0461 34.0931 27.0498C33.874 27.0459 33.6029 27.0757 33.2799 27.139C32.8968 27.2141 32.5553 27.363 32.2556 27.5856C31.9558 27.8082 31.7142 28.0896 31.5309 28.4297C31.3477 28.7699 31.2256 29.1644 31.1649 29.6131C31.1117 30.0604 31.137 30.5508 31.2409 31.0842C31.3654 31.7229 31.6205 32.1916 32.0062 32.4904C32.3995 32.7877 32.8628 32.8841 33.3962 32.7795C33.7342 32.7132 34.0056 32.6249 34.2102 32.5146C34.4209 32.3953 34.6137 32.2639 34.7885 32.1204L35.057 33.3783ZM40.2139 29.278L37.4758 29.8149L37.4206 33.2541L35.9557 33.5414L36.0863 25.325L37.5511 25.0378L37.5009 28.3824L40.2389 27.8455L40.2892 24.5009L41.754 24.2136L41.6235 32.43L40.1586 32.7172L40.2139 29.278ZM43.1177 23.9462L44.5825 23.659L47.5572 23.0757L47.5322 24.5082L44.5575 25.0915L44.521 27.0059L47.2366 26.4734L47.2002 27.9081L44.5072 28.4361L44.4658 30.4451L47.4968 29.8508L47.483 31.281L44.452 31.8754L42.9871 32.1626L43.1177 23.9462ZM48.7887 22.9161C49.1361 22.7778 49.491 22.6575 49.8532 22.5553C50.2154 22.4531 50.543 22.3732 50.836 22.3158C51.1815 22.248 51.5163 22.2253 51.8404 22.2475C52.1645 22.2698 52.4561 22.3452 52.7151 22.4739C52.9727 22.595 53.1917 22.7783 53.3721 23.0237C53.5585 23.2602 53.6869 23.5587 53.7571 23.9194C53.8376 24.3326 53.8441 24.7058 53.7764 25.0389C53.7147 25.363 53.603 25.6502 53.4412 25.9003C53.2779 26.143 53.0765 26.3502 52.837 26.5219C52.6035 26.6847 52.3553 26.8114 52.0922 26.902L52.5997 27.1652L54.2768 29.9489L52.6542 30.267L50.9708 27.391L50.1648 27.397L50.1189 30.7642L48.6541 31.0514L48.7887 22.9161ZM50.1859 26.3046L50.7831 26.1875C51.001 26.1448 51.2114 26.084 51.4144 26.0052C51.616 25.9189 51.7854 25.8077 51.9226 25.6715C52.0659 25.5264 52.1688 25.3541 52.2314 25.1547C52.3014 24.9537 52.3093 24.7142 52.2552 24.4362C52.2054 24.1808 52.0765 23.9798 51.8686 23.8334C51.6593 23.6794 51.363 23.64 50.9799 23.7151C50.8297 23.7446 50.6884 23.7801 50.5561 23.8216C50.4299 23.8542 50.3232 23.8868 50.236 23.9195L50.1859 26.3046ZM59.438 22.3959C59.2777 22.3338 59.0498 22.2848 58.7543 22.2492C58.4573 22.206 58.1398 22.2175 57.8018 22.2838C57.629 22.3177 57.4636 22.3696 57.3057 22.4396C57.1463 22.5021 57.0101 22.5834 56.897 22.6836C56.7839 22.7837 56.7015 22.9013 56.6499 23.0362C56.5982 23.1712 56.5884 23.3213 56.6206 23.4866C56.6631 23.7045 56.7665 23.8753 56.931 23.9991C57.0955 24.1229 57.2924 24.2325 57.5215 24.328C57.7567 24.4145 58.004 24.5025 58.2632 24.5921C58.5299 24.6802 58.7823 24.7945 59.0202 24.9351C59.2657 25.0742 59.4809 25.2582 59.6659 25.4871C59.8494 25.7086 59.977 26.0034 60.0488 26.3715C60.1351 26.8149 60.1309 27.2135 60.0361 27.5675C59.9474 27.9126 59.78 28.2145 59.5341 28.4734C59.2957 28.7307 58.9862 28.9435 58.6056 29.1118C58.234 29.286 57.8079 29.4203 57.3271 29.5146C57.0642 29.5661 56.8096 29.6004 56.5634 29.6175C56.3246 29.6331 56.0995 29.6383 55.8879 29.633C55.6763 29.6277 55.4865 29.6142 55.3185 29.5925C55.1565 29.5619 55.0254 29.5291 54.925 29.4941L55.4252 28.0387C55.5091 28.0691 55.6163 28.0988 55.7467 28.1278C55.8771 28.1568 56.0219 28.1792 56.1809 28.1948C56.3474 28.2089 56.5238 28.2134 56.7099 28.2081C56.8961 28.2028 57.0793 28.1824 57.2595 28.1471C57.4699 28.1058 57.666 28.0518 57.848 27.9849C58.0284 27.9105 58.179 27.8225 58.2995 27.7208C58.4262 27.6102 58.5153 27.4874 58.567 27.3525C58.6262 27.216 58.6383 27.0577 58.6031 26.8773C58.5636 26.6745 58.4623 26.5149 58.2993 26.3987C58.1363 26.2824 57.9372 26.181 57.7019 26.0946C57.4742 26.0066 57.227 25.9186 56.9603 25.8304C56.6996 25.7333 56.4458 25.6115 56.1989 25.4649C55.9594 25.3168 55.7465 25.1246 55.5601 24.8881C55.3721 24.6441 55.2409 24.3305 55.1662 23.9473C55.0813 23.5115 55.0839 23.1249 55.1742 22.7874C55.2719 22.4484 55.4332 22.1554 55.658 21.9085C55.8829 21.6616 56.1631 21.4584 56.4986 21.299C56.8341 21.1397 57.2046 21.0202 57.6103 20.9406C57.8281 20.8979 58.0482 20.8665 58.2704 20.8463C58.4926 20.8261 58.7058 20.8194 58.9099 20.8262C59.1125 20.8255 59.3023 20.839 59.4793 20.8667C59.6548 20.8869 59.8055 20.9197 59.9313 20.9653L59.438 22.3959Z"/>
</mask>
<path d="M17.2704 30.442L15.0844 30.8707L14.9677 37.6568L13.5141 37.9418L13.6196 31.1579L11.4336 31.5865L11.4587 30.1541L17.2842 29.0118L17.2704 30.442ZM18.1391 28.8442L19.604 28.5569L22.5787 27.9736L22.5536 29.4061L19.5789 29.9894L19.5424 31.9038L22.258 31.3713L22.2217 32.806L19.5286 33.334L19.4872 35.3431L22.5183 34.7487L22.5045 36.1789L19.4734 36.7733L18.0086 37.0605L18.1391 28.8442ZM27.4705 33.3915L25.1718 33.8422L24.577 35.7726L23.022 36.0775L25.8571 27.2723L26.9388 27.0602L29.5123 34.8048L28.0362 35.0943L27.4705 33.3915ZM25.5726 32.4765L27.1726 32.1628L26.6498 30.44L26.4195 29.198L26.3631 29.209L26.1562 30.5484L25.5726 32.4765ZM35.057 33.3783C34.6167 33.8 34.0321 34.0824 33.3035 34.2252C32.8077 34.3225 32.3597 34.3245 31.9594 34.2314C31.5591 34.1382 31.2065 33.9695 30.9015 33.725C30.604 33.4791 30.3571 33.1726 30.1608 32.8055C29.9645 32.4383 29.8224 32.0294 29.7346 31.5785C29.5618 30.6919 29.5387 29.9125 29.665 29.2402C29.79 28.5605 30.0165 27.9817 30.3445 27.504C30.6711 27.0187 31.0753 26.6313 31.557 26.3418C32.0462 26.0509 32.565 25.8516 33.1134 25.7441C33.5416 25.6602 33.9125 25.6225 34.2262 25.6312C34.5459 25.6309 34.8001 25.6552 34.989 25.704L34.6691 27.124C34.5027 27.0708 34.3107 27.0461 34.0931 27.0498C33.874 27.0459 33.6029 27.0757 33.2799 27.139C32.8968 27.2141 32.5553 27.363 32.2556 27.5856C31.9558 27.8082 31.7142 28.0896 31.5309 28.4297C31.3477 28.7699 31.2256 29.1644 31.1649 29.6131C31.1117 30.0604 31.137 30.5508 31.2409 31.0842C31.3654 31.7229 31.6205 32.1916 32.0062 32.4904C32.3995 32.7877 32.8628 32.8841 33.3962 32.7795C33.7342 32.7132 34.0056 32.6249 34.2102 32.5146C34.4209 32.3953 34.6137 32.2639 34.7885 32.1204L35.057 33.3783ZM40.2139 29.278L37.4758 29.8149L37.4206 33.2541L35.9557 33.5414L36.0863 25.325L37.5511 25.0378L37.5009 28.3824L40.2389 27.8455L40.2892 24.5009L41.754 24.2136L41.6235 32.43L40.1586 32.7172L40.2139 29.278ZM43.1177 23.9462L44.5825 23.659L47.5572 23.0757L47.5322 24.5082L44.5575 25.0915L44.521 27.0059L47.2366 26.4734L47.2002 27.9081L44.5072 28.4361L44.4658 30.4451L47.4968 29.8508L47.483 31.281L44.452 31.8754L42.9871 32.1626L43.1177 23.9462ZM48.7887 22.9161C49.1361 22.7778 49.491 22.6575 49.8532 22.5553C50.2154 22.4531 50.543 22.3732 50.836 22.3158C51.1815 22.248 51.5163 22.2253 51.8404 22.2475C52.1645 22.2698 52.4561 22.3452 52.7151 22.4739C52.9727 22.595 53.1917 22.7783 53.3721 23.0237C53.5585 23.2602 53.6869 23.5587 53.7571 23.9194C53.8376 24.3326 53.8441 24.7058 53.7764 25.0389C53.7147 25.363 53.603 25.6502 53.4412 25.9003C53.2779 26.143 53.0765 26.3502 52.837 26.5219C52.6035 26.6847 52.3553 26.8114 52.0922 26.902L52.5997 27.1652L54.2768 29.9489L52.6542 30.267L50.9708 27.391L50.1648 27.397L50.1189 30.7642L48.6541 31.0514L48.7887 22.9161ZM50.1859 26.3046L50.7831 26.1875C51.001 26.1448 51.2114 26.084 51.4144 26.0052C51.616 25.9189 51.7854 25.8077 51.9226 25.6715C52.0659 25.5264 52.1688 25.3541 52.2314 25.1547C52.3014 24.9537 52.3093 24.7142 52.2552 24.4362C52.2054 24.1808 52.0765 23.9798 51.8686 23.8334C51.6593 23.6794 51.363 23.64 50.9799 23.7151C50.8297 23.7446 50.6884 23.7801 50.5561 23.8216C50.4299 23.8542 50.3232 23.8868 50.236 23.9195L50.1859 26.3046ZM59.438 22.3959C59.2777 22.3338 59.0498 22.2848 58.7543 22.2492C58.4573 22.206 58.1398 22.2175 57.8018 22.2838C57.629 22.3177 57.4636 22.3696 57.3057 22.4396C57.1463 22.5021 57.0101 22.5834 56.897 22.6836C56.7839 22.7837 56.7015 22.9013 56.6499 23.0362C56.5982 23.1712 56.5884 23.3213 56.6206 23.4866C56.6631 23.7045 56.7665 23.8753 56.931 23.9991C57.0955 24.1229 57.2924 24.2325 57.5215 24.328C57.7567 24.4145 58.004 24.5025 58.2632 24.5921C58.5299 24.6802 58.7823 24.7945 59.0202 24.9351C59.2657 25.0742 59.4809 25.2582 59.6659 25.4871C59.8494 25.7086 59.977 26.0034 60.0488 26.3715C60.1351 26.8149 60.1309 27.2135 60.0361 27.5675C59.9474 27.9126 59.78 28.2145 59.5341 28.4734C59.2957 28.7307 58.9862 28.9435 58.6056 29.1118C58.234 29.286 57.8079 29.4203 57.3271 29.5146C57.0642 29.5661 56.8096 29.6004 56.5634 29.6175C56.3246 29.6331 56.0995 29.6383 55.8879 29.633C55.6763 29.6277 55.4865 29.6142 55.3185 29.5925C55.1565 29.5619 55.0254 29.5291 54.925 29.4941L55.4252 28.0387C55.5091 28.0691 55.6163 28.0988 55.7467 28.1278C55.8771 28.1568 56.0219 28.1792 56.1809 28.1948C56.3474 28.2089 56.5238 28.2134 56.7099 28.2081C56.8961 28.2028 57.0793 28.1824 57.2595 28.1471C57.4699 28.1058 57.666 28.0518 57.848 27.9849C58.0284 27.9105 58.179 27.8225 58.2995 27.7208C58.4262 27.6102 58.5153 27.4874 58.567 27.3525C58.6262 27.216 58.6383 27.0577 58.6031 26.8773C58.5636 26.6745 58.4623 26.5149 58.2993 26.3987C58.1363 26.2824 57.9372 26.181 57.7019 26.0946C57.4742 26.0066 57.227 25.9186 56.9603 25.8304C56.6996 25.7333 56.4458 25.6115 56.1989 25.4649C55.9594 25.3168 55.7465 25.1246 55.5601 24.8881C55.3721 24.6441 55.2409 24.3305 55.1662 23.9473C55.0813 23.5115 55.0839 23.1249 55.1742 22.7874C55.2719 22.4484 55.4332 22.1554 55.658 21.9085C55.8829 21.6616 56.1631 21.4584 56.4986 21.299C56.8341 21.1397 57.2046 21.0202 57.6103 20.9406C57.8281 20.8979 58.0482 20.8665 58.2704 20.8463C58.4926 20.8261 58.7058 20.8194 58.9099 20.8262C59.1125 20.8255 59.3023 20.839 59.4793 20.8667C59.6548 20.8869 59.8055 20.9197 59.9313 20.9653L59.438 22.3959Z" fill="url(#paint5_linear_576_7228)"/>
<path d="M17.2704 30.442L17.3465 30.8329L17.6653 30.7703L17.6684 30.4454L17.2704 30.442ZM15.0844 30.8707L15.0083 30.4799L14.692 30.5419L14.6864 30.8643L15.0844 30.8707ZM14.9677 37.6568L15.0438 38.0476L15.3601 37.9856L15.3657 37.6632L14.9677 37.6568ZM13.5141 37.9418L13.1161 37.9361L13.1085 38.4271L13.5903 38.3326L13.5141 37.9418ZM13.6196 31.1579L14.0176 31.1636L14.0253 30.6726L13.5435 30.7671L13.6196 31.1579ZM11.4336 31.5865L11.0356 31.58L11.027 32.072L11.5098 31.9773L11.4336 31.5865ZM11.4587 30.1541L11.3826 29.7633L11.0663 29.8253L11.0607 30.1476L11.4587 30.1541ZM17.2842 29.0118L17.6822 29.0152L17.687 28.5271L17.208 28.621L17.2842 29.0118ZM17.1942 30.0512L15.0083 30.4799L15.1606 31.2615L17.3465 30.8329L17.1942 30.0512ZM14.6864 30.8643L14.5697 37.6504L15.3657 37.6632L15.4824 30.8771L14.6864 30.8643ZM14.8915 37.266L13.438 37.551L13.5903 38.3326L15.0438 38.0476L14.8915 37.266ZM13.9121 37.9476L14.0176 31.1636L13.2216 31.1522L13.1161 37.9361L13.9121 37.9476ZM13.5435 30.7671L11.3575 31.1957L11.5098 31.9773L13.6957 31.5487L13.5435 30.7671ZM11.8316 31.5931L11.8567 30.1606L11.0607 30.1476L11.0356 31.58L11.8316 31.5931ZM11.5348 30.5449L17.3603 29.4026L17.208 28.621L11.3826 29.7633L11.5348 30.5449ZM16.8861 29.0084L16.8723 30.4386L17.6684 30.4454L17.6822 29.0152L16.8861 29.0084ZM18.1391 28.8442L18.063 28.4533L17.7462 28.5154L17.7411 28.8383L18.1391 28.8442ZM22.5787 27.9736L22.9767 27.9802L22.9853 27.4881L22.5025 27.5828L22.5787 27.9736ZM22.5536 29.4061L22.6297 29.7969L22.946 29.7349L22.9516 29.4126L22.5536 29.4061ZM19.5789 29.9894L19.5027 29.5986L19.187 29.6605L19.1809 29.9822L19.5789 29.9894ZM19.5424 31.9038L19.1444 31.8967L19.1351 32.3894L19.6186 32.2946L19.5424 31.9038ZM22.258 31.3713L22.6559 31.381L22.6685 30.8851L22.1818 30.9805L22.258 31.3713ZM22.2217 32.806L22.2978 33.1968L22.6115 33.1353L22.6196 32.8156L22.2217 32.806ZM19.5286 33.334L19.4525 32.9432L19.1373 33.005L19.1306 33.3263L19.5286 33.334ZM19.4872 35.343L19.0892 35.3353L19.079 35.8288L19.5634 35.7339L19.4872 35.343ZM22.5183 34.7487L22.9163 34.7521L22.921 34.264L22.4421 34.3579L22.5183 34.7487ZM22.5045 36.1789L22.5806 36.5698L22.8994 36.5073L22.9025 36.1823L22.5045 36.1789ZM18.0086 37.0605L17.6106 37.0546L17.6028 37.5458L18.0847 37.4513L18.0086 37.0605ZM18.2153 29.235L19.6801 28.9477L19.5278 28.1661L18.063 28.4533L18.2153 29.235ZM19.6801 28.9477L22.6548 28.3644L22.5025 27.5828L19.5278 28.1661L19.6801 28.9477ZM22.1807 27.9671L22.1556 29.3995L22.9516 29.4126L22.9767 27.9802L22.1807 27.9671ZM22.4775 29.0153L19.5027 29.5986L19.655 30.3802L22.6297 29.7969L22.4775 29.0153ZM19.1809 29.9822L19.1444 31.8967L19.9404 31.9109L19.9769 29.9965L19.1809 29.9822ZM19.6186 32.2946L22.3341 31.7621L22.1818 30.9805L19.4663 31.513L19.6186 32.2946ZM21.86 31.3617L21.8237 32.7963L22.6196 32.8156L22.6559 31.381L21.86 31.3617ZM22.1455 32.4152L19.4525 32.9432L19.6048 33.7249L22.2978 33.1968L22.1455 32.4152ZM19.1306 33.3263L19.0892 35.3353L19.8852 35.3508L19.9266 33.3418L19.1306 33.3263ZM19.5634 35.7339L22.5944 35.1395L22.4421 34.3579L19.4111 34.9522L19.5634 35.7339ZM22.1202 34.7453L22.1064 36.1755L22.9025 36.1823L22.9163 34.7521L22.1202 34.7453ZM22.4283 35.7881L19.3973 36.3825L19.5495 37.1641L22.5806 36.5698L22.4283 35.7881ZM19.3973 36.3825L17.9324 36.6697L18.0847 37.4513L19.5495 37.1641L19.3973 36.3825ZM18.4066 37.0664L18.5372 28.85L17.7411 28.8383L17.6106 37.0546L18.4066 37.0664ZM27.4705 33.3915L27.8482 33.2655L27.7379 32.9333L27.3943 33.0007L27.4705 33.3915ZM25.1718 33.8422L25.0957 33.4514L24.8617 33.4973L24.7914 33.7253L25.1718 33.8422ZM24.577 35.7726L24.6531 36.1634L24.8871 36.1175L24.9573 35.8895L24.577 35.7726ZM23.022 36.0775L22.6431 35.9557L22.4363 36.5981L23.0981 36.4683L23.022 36.0775ZM25.8571 27.2723L25.781 26.8815L25.5503 26.9267L25.4782 27.1505L25.8571 27.2723ZM26.9388 27.0602L27.3166 26.9341L27.2062 26.602L26.8627 26.6693L26.9388 27.0602ZM29.5123 34.8048L29.5884 35.1956L30.0328 35.1085L29.89 34.6788L29.5123 34.8048ZM28.0362 35.0943L27.6584 35.2203L27.7688 35.5524L28.1123 35.4851L28.0362 35.0943ZM25.5726 32.4765L25.1916 32.3615L25 32.9946L25.6487 32.8674L25.5726 32.4765ZM27.1726 32.1628L27.2487 32.5536L27.6816 32.4687L27.5535 32.0467L27.1726 32.1628ZM26.6498 30.44L26.2584 30.513L26.2624 30.5348L26.2688 30.556L26.6498 30.44ZM26.4195 29.198L26.8109 29.1249L26.7376 28.7299L26.3433 28.8072L26.4195 29.198ZM26.3631 29.209L26.287 28.8182L26.0125 28.872L25.9697 29.1486L26.3631 29.209ZM26.1562 30.5484L26.5371 30.6635L26.5453 30.6366L26.5496 30.6089L26.1562 30.5484ZM27.3943 33.0007L25.0957 33.4514L25.248 34.2331L27.5466 33.7823L27.3943 33.0007ZM24.7914 33.7253L24.1966 35.6556L24.9573 35.8895L25.5522 33.9592L24.7914 33.7253ZM24.5008 35.3817L22.9458 35.6867L23.0981 36.4683L24.6531 36.1634L24.5008 35.3817ZM23.4009 36.1992L26.236 27.394L25.4782 27.1505L22.6431 35.9557L23.4009 36.1992ZM25.9333 27.6631L27.015 27.451L26.8627 26.6693L25.781 26.8815L25.9333 27.6631ZM26.5611 27.1862L29.1345 34.9308L29.89 34.6788L27.3166 26.9341L26.5611 27.1862ZM29.4361 34.414L27.96 34.7034L28.1123 35.4851L29.5884 35.1956L29.4361 34.414ZM28.414 34.9683L27.8482 33.2655L27.0927 33.5175L27.6584 35.2203L28.414 34.9683ZM25.6487 32.8674L27.2487 32.5536L27.0965 31.772L25.4964 32.0857L25.6487 32.8674ZM27.5535 32.0467L27.0307 30.3239L26.2688 30.556L26.7917 32.2789L27.5535 32.0467ZM27.0412 30.3669L26.8109 29.1249L26.0281 29.271L26.2584 30.513L27.0412 30.3669ZM26.3433 28.8072L26.287 28.8182L26.4393 29.5999L26.4956 29.5888L26.3433 28.8072ZM25.9697 29.1486L25.7628 30.488L26.5496 30.6089L26.7565 29.2695L25.9697 29.1486ZM25.7752 30.4334L25.1916 32.3615L25.9535 32.5916L26.5371 30.6635L25.7752 30.4334ZM35.057 33.3783L35.3321 33.6658L35.4927 33.512L35.4463 33.2947L35.057 33.3783ZM31.9594 34.2314L31.8688 34.6193L31.9594 34.2314ZM30.9015 33.725L30.6477 34.0322L30.6524 34.036L30.9015 33.725ZM30.1608 32.8055L29.8097 32.9936L30.1608 32.8055ZM29.665 29.2402L30.0563 29.3134L30.0566 29.3118L29.665 29.2402ZM30.3445 27.504L30.6726 27.7292L30.6746 27.7261L30.3445 27.504ZM31.557 26.3418L31.3539 25.9995L31.3523 26.0005L31.557 26.3418ZM34.2262 25.6312L34.2147 26.0295L34.2261 26.0295L34.2262 25.6312ZM34.989 25.704L35.3773 25.7911L35.4621 25.4147L35.0889 25.3183L34.989 25.704ZM34.6691 27.124L34.5475 27.5034L34.9617 27.6358L35.0574 27.2112L34.6691 27.124ZM34.0931 27.0498L34.0857 27.4482L34.0994 27.4479L34.0931 27.0498ZM32.2556 27.5856L32.0185 27.2659L32.0185 27.2659L32.2556 27.5856ZM31.5309 28.4297L31.1806 28.2411L31.1806 28.2411L31.5309 28.4297ZM31.1649 29.6131L30.7704 29.5601L30.7696 29.5665L31.1649 29.6131ZM32.0062 32.4904L31.7623 32.8055L31.766 32.8083L32.0062 32.4904ZM34.2102 32.5146L34.3988 32.8652L34.406 32.8611L34.2102 32.5146ZM34.7885 32.1204L35.1778 32.0368L35.0415 31.3979L34.5362 31.8126L34.7885 32.1204ZM34.7819 33.0907C34.4076 33.4492 33.8976 33.703 33.2274 33.8344L33.3796 34.6161C34.1667 34.4617 34.8257 34.1508 35.3321 33.6658L34.7819 33.0907ZM33.2274 33.8344C32.7744 33.9232 32.3845 33.9213 32.05 33.8435L31.8688 34.6193C32.3348 34.7277 32.841 34.7217 33.3796 34.6161L33.2274 33.8344ZM32.05 33.8435C31.7046 33.7631 31.4067 33.6194 31.1506 33.4141L30.6524 34.036C31.0062 34.3195 31.4136 34.5134 31.8688 34.6193L32.05 33.8435ZM31.1552 33.4179C30.9006 33.2075 30.6857 32.9425 30.5118 32.6173L29.8097 32.9936C30.0285 33.4028 30.3073 33.7508 30.6477 34.0322L31.1552 33.4179ZM30.5118 32.6173C30.3361 32.2886 30.2063 31.9178 30.1253 31.5019L29.3438 31.6551C29.4385 32.141 29.5929 32.5881 29.8097 32.9936L30.5118 32.6173ZM30.1253 31.5019C29.9593 30.6497 29.9416 29.9231 30.0563 29.3134L29.2738 29.167C29.1357 29.9019 29.1644 30.7341 29.3438 31.6551L30.1253 31.5019ZM30.0566 29.3118C30.1733 28.6767 30.3817 28.1528 30.6726 27.7292L30.0165 27.2787C29.6512 27.8107 29.4067 28.4442 29.2735 29.1687L30.0566 29.3118ZM30.6746 27.7261C30.97 27.2873 31.332 26.9414 31.7617 26.6832L31.3523 26.0005C30.8185 26.3212 30.3722 26.7501 30.0144 27.2818L30.6746 27.7261ZM31.7601 26.6841C32.2108 26.4161 32.6868 26.2335 33.1895 26.1349L33.0373 25.3533C32.4433 25.4698 31.8816 25.6857 31.3539 25.9995L31.7601 26.6841ZM33.1895 26.1349C33.5992 26.0546 33.9393 26.0217 34.2147 26.0293L34.2376 25.2331C33.8857 25.2234 33.484 25.2657 33.0373 25.3533L33.1895 26.1349ZM34.2261 26.0295C34.5306 26.0292 34.7469 26.0529 34.8891 26.0896L35.0889 25.3183C34.8534 25.2575 34.5611 25.2327 34.2262 25.233L34.2261 26.0295ZM34.6007 25.6168L34.2807 27.0369L35.0574 27.2112L35.3773 25.7911L34.6007 25.6168ZM34.7907 26.7447C34.5743 26.6755 34.3376 26.6473 34.0868 26.6516L34.0994 27.4479C34.2839 27.4448 34.4312 27.4662 34.5475 27.5034L34.7907 26.7447ZM34.1005 26.6516C33.8432 26.6471 33.542 26.6819 33.2037 26.7482L33.356 27.5298C33.6638 27.4695 33.9048 27.4448 34.0857 27.4479L34.1005 26.6516ZM33.2037 26.7482C32.7652 26.8342 32.3682 27.0062 32.0185 27.2659L32.4926 27.9053C32.7425 27.7197 33.0284 27.5941 33.356 27.5298L33.2037 26.7482ZM32.0185 27.2659C31.6702 27.5245 31.3906 27.8513 31.1806 28.2411L31.8813 28.6184C32.0379 28.3279 32.2414 28.0918 32.4926 27.9053L32.0185 27.2659ZM31.1806 28.2411C30.971 28.63 30.8365 29.0719 30.7704 29.5601L31.5594 29.6661C31.6148 29.2568 31.7243 28.9098 31.8813 28.6184L31.1806 28.2411ZM30.7696 29.5665C30.7106 30.0623 30.74 30.5949 30.8502 31.1609L31.6317 31.0076C31.5341 30.5066 31.5127 30.0585 31.5602 29.6598L30.7696 29.5665ZM30.8502 31.1609C30.9869 31.8623 31.2781 32.4304 31.7623 32.8054L32.2501 32.1754C31.9628 31.9529 31.7439 31.5835 31.6317 31.0076L30.8502 31.1609ZM31.766 32.8083C32.2593 33.1812 32.8405 33.2942 33.4723 33.1703L33.32 32.3887C32.8851 32.474 32.5397 32.3943 32.2465 32.1726L31.766 32.8083ZM33.4723 33.1703C33.8326 33.0997 34.1463 33.0012 34.3988 32.8651L34.0217 32.164C33.8648 32.2486 33.6358 32.3268 33.32 32.3887L33.4723 33.1703ZM34.406 32.8611C34.6353 32.7313 34.8471 32.5871 35.0408 32.4282L34.5362 31.8126C34.3803 31.9406 34.2066 32.0592 34.0144 32.1681L34.406 32.8611ZM34.3992 32.204L34.6677 33.4618L35.4463 33.2947L35.1778 32.0368L34.3992 32.204ZM40.2139 29.278L40.6119 29.2839L40.6198 28.7926L40.1377 28.8872L40.2139 29.278ZM37.4758 29.8149L37.3996 29.4241L37.0829 29.4862L37.0778 29.8089L37.4758 29.8149ZM37.4206 33.2541L37.4967 33.6449L37.8134 33.5828L37.8186 33.2601L37.4206 33.2541ZM35.9557 33.5414L35.5577 33.5355L35.5499 34.0267L36.0319 33.9322L35.9557 33.5414ZM36.0863 25.325L36.0102 24.9342L35.6934 24.9963L35.6883 25.3191L36.0863 25.325ZM37.5511 25.0378L37.9491 25.0433L37.9565 24.5525L37.475 24.6469L37.5511 25.0378ZM37.5009 28.3824L37.1028 28.3769L37.0955 28.8677L37.577 28.7732L37.5009 28.3824ZM40.2389 27.8455L40.3151 28.2363L40.6321 28.1742L40.637 27.8511L40.2389 27.8455ZM40.2892 24.5009L40.2131 24.11L39.896 24.1722L39.8912 24.4953L40.2892 24.5009ZM41.754 24.2136L42.1521 24.2195L42.1599 23.7283L41.6779 23.8228L41.754 24.2136ZM41.6235 32.43L41.6996 32.8208L42.0164 32.7587L42.0215 32.4359L41.6235 32.43ZM40.1586 32.7172L39.7606 32.7113L39.7527 33.2026L40.2348 33.108L40.1586 32.7172ZM40.1377 28.8872L37.3996 29.4241L37.5519 30.2057L40.29 29.6688L40.1377 28.8872ZM37.0778 29.8089L37.0225 33.2482L37.8186 33.2601L37.8738 29.8208L37.0778 29.8089ZM37.3444 32.8633L35.8796 33.1505L36.0319 33.9322L37.4967 33.6449L37.3444 32.8633ZM36.3538 33.5472L36.4843 25.3309L35.6883 25.3191L35.5577 33.5355L36.3538 33.5472ZM36.1624 25.7158L37.6273 25.4286L37.475 24.6469L36.0102 24.9342L36.1624 25.7158ZM37.1531 25.0322L37.1028 28.3769L37.8989 28.388L37.9491 25.0433L37.1531 25.0322ZM37.577 28.7732L40.3151 28.2363L40.1628 27.4547L37.4247 27.9916L37.577 28.7732ZM40.637 27.8511L40.6872 24.5064L39.8912 24.4953L39.8409 27.84L40.637 27.8511ZM40.3653 24.8917L41.8302 24.6044L41.6779 23.8228L40.2131 24.11L40.3653 24.8917ZM41.356 24.2077L41.2254 32.4241L42.0215 32.4359L42.1521 24.2195L41.356 24.2077ZM41.5473 32.0392L40.0825 32.3264L40.2348 33.108L41.6996 32.8208L41.5473 32.0392ZM40.5567 32.7232L40.6119 29.2839L39.8159 29.272L39.7606 32.7113L40.5567 32.7232ZM43.1177 23.9462L43.0416 23.5554L42.7248 23.6175L42.7197 23.9404L43.1177 23.9462ZM47.5572 23.0757L47.9553 23.0822L47.9639 22.5902L47.4811 22.6849L47.5572 23.0757ZM47.5322 24.5082L47.6083 24.899L47.9245 24.837L47.9302 24.5147L47.5322 24.5082ZM44.5575 25.0915L44.4813 24.7006L44.1656 24.7626L44.1595 25.0843L44.5575 25.0915ZM44.521 27.0059L44.123 26.9987L44.1136 27.4915L44.5971 27.3967L44.521 27.0059ZM47.2366 26.4734L47.6345 26.483L47.6471 25.9872L47.1604 26.0826L47.2366 26.4734ZM47.2002 27.9081L47.2764 28.2989L47.5901 28.2374L47.5982 27.9177L47.2002 27.9081ZM44.5072 28.4361L44.4311 28.0453L44.1158 28.1071L44.1092 28.4284L44.5072 28.4361ZM44.4658 30.4451L44.0678 30.4374L44.0576 30.9309L44.5419 30.8359L44.4658 30.4451ZM47.4968 29.8508L47.8949 29.8542L47.8996 29.3661L47.4207 29.46L47.4968 29.8508ZM47.483 31.281L47.5592 31.6718L47.8779 31.6093L47.8811 31.2844L47.483 31.281ZM42.9871 32.1626L42.5891 32.1567L42.5813 32.6479L43.0633 32.5534L42.9871 32.1626ZM43.1938 24.3371L44.6587 24.0498L44.5064 23.2682L43.0416 23.5554L43.1938 24.3371ZM44.6587 24.0498L47.6334 23.4665L47.4811 22.6849L44.5064 23.2682L44.6587 24.0498ZM47.1592 23.0692L47.1342 24.5016L47.9302 24.5147L47.9553 23.0822L47.1592 23.0692ZM47.456 24.1173L44.4813 24.7006L44.6336 25.4823L47.6083 24.899L47.456 24.1173ZM44.1595 25.0843L44.123 26.9987L44.919 27.013L44.9555 25.0986L44.1595 25.0843ZM44.5971 27.3967L47.3127 26.8642L47.1604 26.0826L44.4449 26.6151L44.5971 27.3967ZM46.8386 26.4638L46.8023 27.8984L47.5982 27.9177L47.6345 26.483L46.8386 26.4638ZM47.1241 27.5172L44.4311 28.0453L44.5833 28.8269L47.2764 28.2989L47.1241 27.5172ZM44.1092 28.4284L44.0678 30.4374L44.8638 30.4529L44.9052 28.4439L44.1092 28.4284ZM44.5419 30.8359L47.573 30.2416L47.4207 29.46L44.3896 30.0543L44.5419 30.8359ZM47.0988 29.8474L47.085 31.2776L47.8811 31.2844L47.8949 29.8542L47.0988 29.8474ZM47.4069 30.8902L44.3758 31.4846L44.5281 32.2662L47.5592 31.6718L47.4069 30.8902ZM44.3758 31.4846L42.911 31.7718L43.0633 32.5534L44.5281 32.2662L44.3758 31.4846ZM43.3852 32.1685L43.5157 23.9521L42.7197 23.9404L42.5891 32.1567L43.3852 32.1685ZM48.7888 22.9161L48.6419 22.5461L48.3951 22.6444L48.3907 22.91L48.7888 22.9161ZM49.8532 22.5553L49.7455 22.172L49.8532 22.5553ZM51.8404 22.2475L51.8681 21.8502L51.8681 21.8502L51.8404 22.2475ZM52.7151 22.4739L52.5378 22.8307L52.5455 22.8343L52.7151 22.4739ZM53.3721 23.0237L53.0511 23.26L53.0594 23.2706L53.3721 23.0237ZM53.7764 25.0389L53.3863 24.96L53.3853 24.9649L53.7764 25.0389ZM53.4412 25.9003L53.7714 26.1225L53.7753 26.1165L53.4412 25.9003ZM52.837 26.5219L53.0644 26.8486L53.0687 26.8455L52.837 26.5219ZM52.0922 26.902L51.963 26.5255L51.0842 26.8281L51.9086 27.2556L52.0922 26.902ZM52.5997 27.1652L52.9407 26.9594L52.8828 26.8633L52.7832 26.8116L52.5997 27.1652ZM54.2768 29.9489L54.3529 30.3397L54.9113 30.2302L54.6177 29.743L54.2768 29.9489ZM52.6542 30.267L52.3106 30.4686L52.4532 30.7122L52.7303 30.6579L52.6542 30.267ZM50.9708 27.391L51.3144 27.1895L51.1982 26.9911L50.9683 26.9928L50.9708 27.391ZM50.1648 27.397L50.1623 26.9987L49.7721 27.0016L49.7667 27.392L50.1648 27.397ZM50.1189 30.7642L50.1951 31.155L50.5125 31.0927L50.5169 30.7692L50.1189 30.7642ZM48.6541 31.0514L48.2561 31.0453L48.2479 31.5368L48.7302 31.4422L48.6541 31.0514ZM50.1859 26.3046L49.7879 26.2967L49.7776 26.7904L50.2621 26.6954L50.1859 26.3046ZM51.4144 26.0052L51.5581 26.3767L51.5707 26.3713L51.4144 26.0052ZM51.9226 25.6715L52.2027 25.9542L52.2056 25.9513L51.9226 25.6715ZM52.2314 25.1547L51.8553 25.0239L51.8515 25.0359L52.2314 25.1547ZM51.8686 23.8334L51.6326 24.1544L51.6392 24.1591L51.8686 23.8334ZM50.5561 23.8216L50.6551 24.2072L50.6651 24.2047L50.675 24.2016L50.5561 23.8216ZM50.236 23.9195L50.0966 23.5466L49.8436 23.6414L49.838 23.9116L50.236 23.9195ZM48.9356 23.2861C49.2701 23.153 49.6118 23.0371 49.9609 22.9386L49.7455 22.172C49.3701 22.278 49.0022 22.4027 48.6419 22.5461L48.9356 23.2861ZM49.9609 22.9386C50.3152 22.8386 50.6321 22.7615 50.9121 22.7066L50.7598 21.925C50.4539 21.985 50.1156 22.0676 49.7455 22.172L49.9609 22.9386ZM50.9121 22.7066C51.2263 22.645 51.5262 22.6252 51.8127 22.6449L51.8681 21.8502C51.5065 21.8254 51.1367 21.8511 50.7598 21.925L50.9121 22.7066ZM51.8127 22.6449C52.0912 22.664 52.3309 22.7279 52.5378 22.8306L52.8924 22.1171C52.5813 21.9626 52.2379 21.8756 51.8681 21.8502L51.8127 22.6449ZM52.5455 22.8343C52.7389 22.9253 52.9073 23.064 53.0513 23.2599L53.6929 22.7876C53.4761 22.4926 53.2065 22.2647 52.8848 22.1134L52.5455 22.8343ZM53.0594 23.2706C53.199 23.4476 53.3056 23.6841 53.3664 23.996L54.1479 23.8428C54.0681 23.4334 53.918 23.0728 53.6847 22.7768L53.0594 23.2706ZM53.3664 23.996C53.4392 24.3698 53.4414 24.6889 53.3863 24.96L54.1665 25.1178C54.2468 24.7228 54.2361 24.2955 54.1479 23.8428L53.3664 23.996ZM53.3853 24.9649C53.3323 25.2439 53.2381 25.4817 53.1071 25.6842L53.7753 26.1165C53.968 25.8186 54.0972 25.4822 54.1674 25.1129L53.3853 24.9649ZM53.1111 25.6782C52.9745 25.8811 52.8065 26.054 52.6053 26.1984L53.0687 26.8455C53.3465 26.6463 53.5813 26.4049 53.7713 26.1225L53.1111 25.6782ZM52.6096 26.1953C52.4058 26.3375 52.1904 26.4471 51.963 26.5255L52.2213 27.2786C52.5201 27.1757 52.8013 27.032 53.0644 26.8486L52.6096 26.1953ZM51.9086 27.2556L52.4162 27.5189L52.7832 26.8116L52.2757 26.5484L51.9086 27.2556ZM52.2587 27.3711L53.9358 30.1548L54.6177 29.743L52.9407 26.9594L52.2587 27.3711ZM54.2006 29.5581L52.578 29.8762L52.7303 30.6579L54.3529 30.3397L54.2006 29.5581ZM52.9977 30.0655L51.3144 27.1895L50.6272 27.5926L52.3106 30.4686L52.9977 30.0655ZM50.9683 26.9928L50.1623 26.9987L50.1673 27.7952L50.9733 27.7893L50.9683 26.9928ZM49.7667 27.392L49.7209 30.7592L50.5169 30.7692L50.5628 27.4019L49.7667 27.392ZM50.0428 30.3734L48.5779 30.6606L48.7302 31.4422L50.1951 31.155L50.0428 30.3734ZM49.0521 31.0576L49.1868 22.9223L48.3907 22.91L48.2561 31.0453L49.0521 31.0576ZM50.2621 26.6954L50.8593 26.5783L50.707 25.7967L50.1098 25.9138L50.2621 26.6954ZM50.8593 26.5783C51.0997 26.5312 51.3327 26.464 51.558 26.3765L51.2708 25.634C51.0901 25.7041 50.9022 25.7584 50.707 25.7967L50.8593 26.5783ZM51.5707 26.3713C51.8122 26.2679 52.0253 26.1301 52.2027 25.9542L51.6425 25.3889C51.5454 25.4852 51.4197 25.5699 51.2581 25.6391L51.5707 26.3713ZM52.2056 25.9513C52.3947 25.7598 52.5302 25.5319 52.6112 25.2734L51.8515 25.0359C51.8075 25.1764 51.7371 25.293 51.6396 25.3918L52.2056 25.9513ZM52.6072 25.2854C52.7069 24.9993 52.7092 24.6846 52.6459 24.3596L51.8644 24.5128C51.9094 24.7439 51.8958 24.9081 51.8555 25.0239L52.6072 25.2854ZM52.6459 24.3596C52.577 24.0059 52.392 23.7147 52.0981 23.5076L51.6392 24.1591C51.7611 24.245 51.8338 24.3556 51.8644 24.5128L52.6459 24.3596ZM52.1046 23.5124C51.7688 23.2654 51.3413 23.2385 50.9038 23.3243L51.0561 24.1059C51.3847 24.0415 51.5497 24.0934 51.6326 24.1543L52.1046 23.5124ZM50.9038 23.3243C50.7406 23.3563 50.585 23.3953 50.4373 23.4416L50.675 24.2016C50.7919 24.1648 50.9188 24.1328 51.0561 24.1059L50.9038 23.3243ZM50.4572 23.436C50.3222 23.4708 50.2011 23.5074 50.0966 23.5466L50.3753 24.2924C50.4452 24.2662 50.5376 24.2375 50.6551 24.2072L50.4572 23.436ZM49.838 23.9116L49.7879 26.2967L50.5839 26.3125L50.6339 23.9274L49.838 23.9116ZM59.438 22.3959L59.2937 22.7673L59.6793 22.9168L59.8143 22.5254L59.438 22.3959ZM58.7543 22.2492L58.6966 22.6434L58.7062 22.6446L58.7543 22.2492ZM57.3057 22.4396L57.4505 22.8104L57.4586 22.8072L57.4665 22.8037L57.3057 22.4396ZM56.897 22.6836L56.6333 22.3855L56.897 22.6836ZM56.6498 23.0363L57.0215 23.1784L57.0215 23.1784L56.6498 23.0363ZM56.931 23.9991L56.6915 24.3175L56.6915 24.3175L56.931 23.9991ZM57.5215 24.328L57.3681 24.6956L57.3759 24.6989L57.3838 24.7018L57.5215 24.328ZM58.2632 24.5921L58.1328 24.9686L58.138 24.9703L58.2632 24.5921ZM59.0202 24.9351L58.8175 25.2781L58.8237 25.2817L59.0202 24.9351ZM59.6659 25.4871L59.3562 25.7377L59.3593 25.7415L59.6659 25.4871ZM60.0361 27.5675L59.6516 27.4649L59.6506 27.4687L60.0361 27.5675ZM59.5341 28.4734L59.2457 28.1991L59.2423 28.2028L59.5341 28.4734ZM58.6056 29.1118L58.445 28.7474L58.437 28.7512L58.6056 29.1118ZM56.5634 29.6175L56.5889 30.0149L56.5905 30.0148L56.5634 29.6175ZM55.8879 29.633L55.8775 30.0311L55.8879 29.633ZM55.3185 29.5925L55.2441 29.9838L55.2556 29.986L55.2672 29.9875L55.3185 29.5925ZM54.925 29.4941L54.5485 29.365L54.4196 29.7401L54.7939 29.8703L54.925 29.4941ZM55.4252 28.0387L55.5609 27.6642L55.1804 27.5265L55.0488 27.9096L55.4252 28.0387ZM55.7467 28.1278L55.8336 27.739L55.7467 28.1278ZM56.1809 28.1948L56.1416 28.5912L56.1468 28.5916L56.1809 28.1948ZM57.848 27.9849L57.9849 28.3587L57.9921 28.356L57.9993 28.3531L57.848 27.9849ZM58.2995 27.7208L58.5559 28.0253L58.5612 28.0207L58.2995 27.7208ZM58.567 27.3525L58.2019 27.1942L58.1985 27.2022L58.1953 27.2103L58.567 27.3525ZM58.2993 26.3987L58.5306 26.0743L58.5306 26.0743L58.2993 26.3987ZM57.7019 26.0946L57.5582 26.4661L57.5642 26.4684L57.7019 26.0946ZM56.9603 25.8304L56.821 26.2037L56.828 26.2063L56.8351 26.2086L56.9603 25.8304ZM56.1989 25.4649L55.9892 25.8038L55.9954 25.8075L56.1989 25.4649ZM55.5601 24.8881L55.2446 25.1314L55.2474 25.135L55.5601 24.8881ZM55.1742 22.7874L54.7916 22.6774L54.7896 22.6849L55.1742 22.7874ZM55.658 21.9085L55.3639 21.6405L55.658 21.9085ZM56.4986 21.299L56.669 21.6588L56.669 21.6588L56.4986 21.299ZM58.2704 20.8463L58.2349 20.4497L58.2349 20.4497L58.2704 20.8463ZM58.9099 20.8262L58.8962 21.2243L58.9035 21.2245L58.9109 21.2245L58.9099 20.8262ZM59.4793 20.8667L59.4173 21.2602L59.4253 21.2614L59.4334 21.2623L59.4793 20.8667ZM59.9313 20.9653L60.3076 21.0948L60.4355 20.724L60.0671 20.5907L59.9313 20.9653ZM59.5822 22.0246C59.3765 21.9448 59.1106 21.891 58.8024 21.8538L58.7062 22.6446C58.989 22.6787 59.1788 22.7227 59.2937 22.7673L59.5822 22.0246ZM58.812 21.8551C58.4645 21.8045 58.1014 21.8193 57.7256 21.893L57.8779 22.6746C58.1782 22.6158 58.4501 22.6074 58.6966 22.6433L58.812 21.8551ZM57.7256 21.893C57.5243 21.9325 57.3305 21.9933 57.1449 22.0755L57.4665 22.8037C57.5968 22.746 57.7337 22.7029 57.8779 22.6746L57.7256 21.893ZM57.1609 22.0688C56.9636 22.1461 56.7857 22.2504 56.6333 22.3855L57.1607 22.9816C57.2344 22.9163 57.3289 22.858 57.4505 22.8104L57.1609 22.0688ZM56.6333 22.3855C56.4745 22.5263 56.3538 22.6965 56.2782 22.8941L57.0215 23.1784C57.0493 23.1061 57.0934 23.0412 57.1607 22.9816L56.6333 22.3855ZM56.2782 22.8941C56.1956 23.1097 56.1858 23.3371 56.2299 23.5632L57.0113 23.41C56.991 23.3056 57.0007 23.2327 57.0215 23.1784L56.2782 22.8941ZM56.2299 23.5632C56.2896 23.8695 56.4421 24.1298 56.6915 24.3175L57.1705 23.6807C57.091 23.6209 57.0366 23.5395 57.0113 23.41L56.2299 23.5632ZM56.6915 24.3175C56.8873 24.4648 57.1144 24.5899 57.3681 24.6956L57.6749 23.9603C57.4703 23.8751 57.3037 23.7809 57.1705 23.6807L56.6915 24.3175ZM57.3838 24.7018C57.6217 24.7893 57.8714 24.8782 58.1328 24.9685L58.3935 24.2156C58.1365 24.1268 57.8918 24.0397 57.6592 23.9541L57.3838 24.7018ZM58.138 24.9703C58.3782 25.0496 58.6045 25.1522 58.8175 25.2781L59.2229 24.5921C58.96 24.4368 58.6817 24.3108 58.3884 24.2139L58.138 24.9703ZM58.8237 25.2817C59.0239 25.3951 59.2012 25.5459 59.3562 25.7377L59.9756 25.2366C59.7606 24.9705 59.5075 24.7532 59.2167 24.5885L58.8237 25.2817ZM59.3593 25.7415C59.4894 25.8985 59.5953 26.1261 59.6581 26.4482L60.4395 26.2949C60.3588 25.8806 60.2094 25.5187 59.9724 25.2327L59.3593 25.7415ZM59.6581 26.4482C59.7355 26.8456 59.7275 27.1814 59.6516 27.4649L60.4206 27.6702C60.5343 27.2456 60.5348 26.7841 60.4395 26.2949L59.6581 26.4482ZM59.6506 27.4687C59.5788 27.7478 59.445 27.9894 59.2457 28.1991L59.8225 28.7476C60.1151 28.4396 60.3159 28.0773 60.4216 27.6664L59.6506 27.4687ZM59.2423 28.2028C59.047 28.4136 58.7851 28.5972 58.4451 28.7475L58.7662 29.476C59.1873 29.2898 59.5444 29.0478 59.8259 28.7439L59.2423 28.2028ZM58.437 28.7512C58.0999 28.9093 57.7057 29.0346 57.251 29.1238L57.4032 29.9054C57.91 29.806 58.3682 29.6628 58.7743 29.4723L58.437 28.7512ZM57.251 29.1238C57.0029 29.1724 56.7647 29.2044 56.5363 29.2202L56.5905 30.0148C56.8545 29.9965 57.1255 29.9598 57.4032 29.9054L57.251 29.1238ZM56.5379 29.2201C56.3096 29.235 56.0965 29.2398 55.8983 29.2348L55.8775 30.0311C56.1025 30.0367 56.3397 30.0312 56.5889 30.0149L56.5379 29.2201ZM55.8983 29.2348C55.6972 29.2298 55.5214 29.2171 55.3698 29.1975L55.2672 29.9875C55.4516 30.0113 55.6554 30.0255 55.8775 30.0311L55.8983 29.2348ZM55.3929 29.2012C55.2409 29.1724 55.1308 29.144 55.0561 29.118L54.7939 29.8703C54.9199 29.9142 55.0721 29.9513 55.2441 29.9838L55.3929 29.2012ZM55.3014 29.6233L55.8016 28.1679L55.0488 27.9096L54.5485 29.365L55.3014 29.6233ZM55.2895 28.4133C55.3951 28.4515 55.5201 28.4855 55.6599 28.5166L55.8336 27.739C55.7124 27.7121 55.6231 27.6867 55.5609 27.6642L55.2895 28.4133ZM55.6599 28.5166C55.8086 28.5497 55.9695 28.5742 56.1416 28.5911L56.2202 27.7984C56.0742 27.7841 55.9457 27.764 55.8336 27.739L55.6599 28.5166ZM56.1468 28.5916C56.3298 28.6072 56.5213 28.6118 56.7208 28.6062L56.699 27.81C56.5262 27.8149 56.365 27.8107 56.215 27.798L56.1468 28.5916ZM56.7208 28.6062C56.9285 28.6002 57.1336 28.5775 57.3357 28.5379L57.1834 27.7563C57.0249 27.7873 56.8636 27.8053 56.699 27.81L56.7208 28.6062ZM57.3357 28.5379C57.5646 28.493 57.7812 28.4336 57.9849 28.3587L57.711 27.6111C57.5508 27.67 57.3752 27.7187 57.1834 27.7563L57.3357 28.5379ZM57.9993 28.3531C58.2091 28.2666 58.3973 28.1589 58.5559 28.0253L58.0432 27.4164C57.9606 27.4861 57.8478 27.5544 57.6967 27.6167L57.9993 28.3531ZM58.5612 28.0207C58.7288 27.8743 58.8602 27.6996 58.9387 27.4946L58.1953 27.2103C58.1704 27.2753 58.1236 27.3461 58.0379 27.421L58.5612 28.0207ZM58.9321 27.5107C59.0303 27.2845 59.0407 27.0413 58.9939 26.8007L58.2124 26.954C58.2358 27.074 58.2222 27.1475 58.2019 27.1942L58.9321 27.5107ZM58.9939 26.8007C58.9355 26.5014 58.7794 26.2517 58.5306 26.0743L58.068 26.7231C58.1453 26.7782 58.1917 26.8476 58.2124 26.954L58.9939 26.8007ZM58.5306 26.0743C58.3325 25.933 58.1002 25.8165 57.8396 25.7207L57.5642 26.4684C57.7742 26.5456 57.94 26.6318 58.068 26.7231L58.5306 26.0743ZM57.8457 25.723C57.611 25.6324 57.3575 25.5421 57.0855 25.4523L56.8351 26.2086C57.0965 26.295 57.3374 26.3808 57.5582 26.4661L57.8457 25.723ZM57.0995 25.4572C56.8618 25.3687 56.6294 25.2572 56.4023 25.1224L55.9954 25.8075C56.2621 25.9658 56.5374 26.098 56.821 26.2037L57.0995 25.4572ZM56.4084 25.1261C56.2111 25.0041 56.0324 24.8438 55.8727 24.6412L55.2474 25.135C55.4606 25.4053 55.7077 25.6296 55.9893 25.8037L56.4084 25.1261ZM55.8755 24.6448C55.734 24.4611 55.6228 24.209 55.5569 23.8707L54.7755 24.0239C54.8589 24.4521 55.0103 24.8272 55.2446 25.1314L55.8755 24.6448ZM55.5569 23.8707C55.4805 23.4787 55.4878 23.1552 55.5587 22.8898L54.7896 22.6849C54.6801 23.0945 54.682 23.5444 54.7755 24.0239L55.5569 23.8707ZM55.5566 22.8973C55.6384 22.6137 55.7708 22.3757 55.9522 22.1765L55.3639 21.6405C55.0956 21.9351 54.9054 22.283 54.7917 22.6774L55.5566 22.8973ZM55.9522 22.1765C56.1384 21.972 56.375 21.7984 56.669 21.6588L56.3281 20.9393C55.9511 21.1185 55.6274 21.3512 55.3639 21.6405L55.9522 22.1765ZM56.669 21.6588C56.9713 21.5151 57.3097 21.4053 57.6864 21.3315L57.5341 20.5498C57.0995 20.6351 56.6968 20.7642 56.3281 20.9393L56.669 21.6588ZM57.6864 21.3315C57.8908 21.2914 58.0972 21.2619 58.3059 21.2429L58.2349 20.4497C57.9991 20.4711 57.7655 20.5045 57.5341 20.5498L57.6864 21.3315ZM58.3059 21.2429C58.5133 21.2241 58.71 21.2181 58.8962 21.2243L58.9236 20.4282C58.7016 20.4208 58.472 20.4282 58.2349 20.4497L58.3059 21.2429ZM58.9109 21.2245C59.0951 21.2238 59.2637 21.2361 59.4173 21.2602L59.5413 20.4732C59.341 20.4419 59.1299 20.4272 58.9089 20.428L58.9109 21.2245ZM59.4334 21.2623C59.5874 21.28 59.7063 21.3075 59.7956 21.3398L60.0671 20.5907C59.9047 20.532 59.7222 20.4937 59.5252 20.471L59.4334 21.2623ZM59.555 20.8358L59.0617 22.2664L59.8143 22.5254L60.3076 21.0948L59.555 20.8358Z" fill="#FAD07D" mask="url(#path-12-outside-1_576_7228)"/>
<defs>
<filter id="filter0_d_576_7228" x="0.861566" y="15.2355" width="69.8558" height="36.7536" filterUnits="userSpaceOnUse" color-interpolation-filters="sRGB">
<feFlood flood-opacity="0" result="BackgroundImageFix"/>
<feColorMatrix in="SourceAlpha" type="matrix" values="0 0 0 0 0 0 0 0 0 0 0 0 0 0 0 0 0 0 127 0" result="hardAlpha"/>
<feOffset dy="1.13843"/>
<feGaussianBlur stdDeviation="0.569217"/>
<feComposite in2="hardAlpha" operator="out"/>
<feColorMatrix type="matrix" values="0 0 0 0 0 0 0 0 0 0 0 0 0 0 0 0 0 0 0.25 0"/>
<feBlend mode="normal" in2="BackgroundImageFix" result="effect1_dropShadow_576_7228"/>
<feBlend mode="normal" in="SourceGraphic" in2="effect1_dropShadow_576_7228" result="shape"/>
</filter>
<filter id="filter1_i_576_7228" x="1.14617" y="30.2946" width="13.6313" height="20.556" filterUnits="userSpaceOnUse" color-interpolation-filters="sRGB">
<feFlood flood-opacity="0" result="BackgroundImageFix"/>
<feBlend mode="normal" in="SourceGraphic" in2="BackgroundImageFix" result="shape"/>
<feColorMatrix in="SourceAlpha" type="matrix" values="0 0 0 0 0 0 0 0 0 0 0 0 0 0 0 0 0 0 127 0" result="hardAlpha"/>
<feOffset dx="-0.853825" dy="1.13843"/>
<feGaussianBlur stdDeviation="0.569217"/>
<feComposite in2="hardAlpha" operator="arithmetic" k2="-1" k3="1"/>
<feColorMatrix type="matrix" values="0 0 0 0 0.984314 0 0 0 0 0.74902 0 0 0 0 0.156863 0 0 0 0.85 0"/>
<feBlend mode="normal" in2="shape" result="effect1_innerShadow_576_7228"/>
</filter>
<filter id="filter2_i_576_7228" x="54.5279" y="18.5955" width="15.0511" height="20.6725" filterUnits="userSpaceOnUse" color-interpolation-filters="sRGB">
<feFlood flood-opacity="0" result="BackgroundImageFix"/>
<feBlend mode="normal" in="SourceGraphic" in2="BackgroundImageFix" result="shape"/>
<feColorMatrix in="SourceAlpha" type="matrix" values="0 0 0 0 0 0 0 0 0 0 0 0 0 0 0 0 0 0 127 0" result="hardAlpha"/>
<feOffset dx="-0.853825" dy="1.13843"/>
<feGaussianBlur stdDeviation="0.569217"/>
<feComposite in2="hardAlpha" operator="arithmetic" k2="-1" k3="1"/>
<feColorMatrix type="matrix" values="0 0 0 0 0.984314 0 0 0 0 0.74902 0 0 0 0 0.156863 0 0 0 0.85 0"/>
<feBlend mode="normal" in2="shape" result="effect1_innerShadow_576_7228"/>
</filter>
<filter id="filter3_i_576_7228" x="5.97296" y="15.2355" width="57.6428" height="30.2026" filterUnits="userSpaceOnUse" color-interpolation-filters="sRGB">
<feFlood flood-opacity="0" result="BackgroundImageFix"/>
<feBlend mode="normal" in="SourceGraphic" in2="BackgroundImageFix" result="shape"/>
<feColorMatrix in="SourceAlpha" type="matrix" values="0 0 0 0 0 0 0 0 0 0 0 0 0 0 0 0 0 0 127 0" result="hardAlpha"/>
<feOffset dx="-0.853825" dy="1.13843"/>
<feGaussianBlur stdDeviation="0.569217"/>
<feComposite in2="hardAlpha" operator="arithmetic" k2="-1" k3="1"/>
<feColorMatrix type="matrix" values="0 0 0 0 0.984314 0 0 0 0 0.74902 0 0 0 0 0.156863 0 0 0 0.85 0"/>
<feBlend mode="normal" in2="shape" result="effect1_innerShadow_576_7228"/>
</filter>
<linearGradient id="paint0_linear_576_7228" x1="33.0921" y1="6.43284e-06" x2="46.5549" y2="29.9305" gradientUnits="userSpaceOnUse">
<stop stop-color="#FE623C"/>
<stop offset="1" stop-color="#BE320C"/>
</linearGradient>
<radialGradient id="paint1_radial_576_7228" cx="0" cy="0" r="1" gradientUnits="userSpaceOnUse" gradientTransform="translate(8.38875 40.0033) rotate(90) scale(9.84684 6.38875)">
<stop stop-color="#FFBC00"/>
<stop offset="0.57" stop-color="#FD9E00"/>
<stop offset="1" stop-color="#F79500"/>
</radialGradient>
<radialGradient id="paint2_radial_576_7228" cx="0" cy="0" r="1" gradientUnits="userSpaceOnUse" gradientTransform="translate(62.4804 28.3625) rotate(90) scale(9.89468 7.09861)">
<stop stop-color="#FFBC00"/>
<stop offset="0.57" stop-color="#FD9E00"/>
<stop offset="1" stop-color="#F79500"/>
</radialGradient>
<radialGradient id="paint3_radial_576_7228" cx="0" cy="0" r="1" gradientUnits="userSpaceOnUse" gradientTransform="translate(35.2212 29.7676) rotate(90) scale(14.6702 28.3945)">
<stop stop-color="#FFBC00"/>
<stop offset="0.57" stop-color="#FD9E00"/>
<stop offset="1" stop-color="#F79500"/>
</radialGradient>
<linearGradient id="paint4_linear_576_7228" x1="49.2825" y1="44.2358" x2="49.2825" y2="51.5527" gradientUnits="userSpaceOnUse">
<stop stop-color="#404040"/>
<stop offset="1" stop-color="#828282"/>
</linearGradient>
<linearGradient id="paint5_linear_576_7228" x1="33.5705" y1="25.9204" x2="35.1911" y2="34.1849" gradientUnits="userSpaceOnUse">
<stop stop-color="#753000"/>
<stop offset="1" stop-color="#99480D"/>
</linearGradient>
</defs>
</svg>
