<svg width="130" height="120" viewBox="0 0 130 120" fill="none" xmlns="http://www.w3.org/2000/svg">
<path d="M110.2 103.8H20.5C18.6 103.8 17 102.2 17 100.3V93.8C17 91.9 18.6 90.3 20.5 90.3H110.2C112.1 90.3 113.7 91.9 113.7 93.8V100.3C113.7 102.2 112.2 103.8 110.2 103.8ZM20.5 93.4C20.3 93.4 20.1 93.6 20.1 93.8V100.3C20.1 100.5 20.3 100.7 20.5 100.7H110.2C110.4 100.7 110.6 100.5 110.6 100.3V93.8C110.6 93.6 110.4 93.4 110.2 93.4H20.5Z" fill="#393939"/>
<path d="M88.8 65.3C81.6 65.3 75.8 59.5 75.8 52.3C75.8 45.1 81.6 39.3 88.8 39.3C96 39.3 101.8 45.1 101.8 52.3C101.7 59.5 95.9 65.3 88.8 65.3ZM88.8 42.4C83.3 42.4 78.9 46.9 78.9 52.3C78.9 57.8 83.4 62.2 88.8 62.2C94.2 62.2 98.7 57.7 98.7 52.3C98.7 46.8 94.2 42.4 88.8 42.4Z" fill="#393939"/>
<path d="M36.5 71.9C30.8 71.9 26.2 67.3 26.2 61.6C26.2 55.9 30.8 51.3 36.5 51.3C42.2 51.3 46.8 55.9 46.8 61.6C46.8 67.3 42.2 71.9 36.5 71.9ZM36.5 54.4C32.5 54.4 29.3 57.6 29.3 61.6C29.3 65.6 32.5 68.8 36.5 68.8C40.5 68.8 43.7 65.6 43.7 61.6C43.7 57.6 40.5 54.4 36.5 54.4Z" fill="#393939"/>
<path d="M109.3 93.4C108.5 93.4 107.8 92.7 107.8 91.9V79.2C107.8 72 103.7 65.4 97.2 62.2C94.8 64.2 91.9 65.3 88.8 65.3C85.7 65.3 82.7 64.2 80.4 62.2C74 65.4 69.8 72 69.8 79.2V82.4C69.8 83.2 69.1 83.9 68.3 83.9C67.5 83.9 66.8 83.2 66.8 82.4V79.2C66.8 70.4 72 62.5 80.1 59C80.7 58.7 81.4 58.9 81.8 59.3C83.7 61.2 86.2 62.3 88.9 62.3C91.6 62.3 94.1 61.3 96 59.3C96.4 58.9 97.1 58.7 97.7 59C105.8 62.5 111 70.4 111 79.2V91.9C110.8 92.7 110.1 93.4 109.3 93.4Z" fill="#393939"/>
<path d="M21.6 93.4C20.8 93.4 20.1 92.7 20.1 91.9V82.7C20.1 75.9 24.4 69.7 30.8 67.3C31.3 67.1 31.8 67.2 32.2 67.5C34.7 69.3 38.2 69.3 40.7 67.5C41.1 67.2 41.7 67.1 42.1 67.3C48.5 69.7 52.8 75.9 52.8 82.7V84.6C52.8 85.4 52.1 86.1 51.3 86.1C50.5 86.1 49.8 85.4 49.8 84.6V82.7C49.8 77.4 46.6 72.6 41.8 70.4C38.6 72.4 34.3 72.4 31.1 70.4C26.3 72.5 23.1 77.3 23.1 82.7V91.9C23.1 92.7 22.4 93.4 21.6 93.4Z" fill="#393939"/>
<path d="M78.6 83.4C77.8 83.4 77.1 82.7 77.1 81.9V76.1C77.1 75.3 77.8 74.6 78.6 74.6C79.4 74.6 80.1 75.3 80.1 76.1V81.9C80.1 82.7 79.4 83.4 78.6 83.4Z" fill="#393939"/>
<path d="M95 93.4H70.4C66.8 93.4 63.9 90.5 63.9 86.9C63.9 83.3 66.8 80.4 70.4 80.4H97.5V76.1C97.5 75.3 98.2 74.6 99 74.6C99.8 74.6 100.5 75.3 100.5 76.1V81.9C100.5 82.7 99.8 83.4 99 83.4H70.4C68.5 83.4 66.9 84.9 66.9 86.9C66.9 88.8 68.5 90.4 70.4 90.4H95C95.8 90.4 96.5 91.1 96.5 91.9C96.5 92.7 95.8 93.4 95 93.4Z" fill="#393939"/>
<path d="M56.3 93.4H29.5C28.7 93.4 28 92.7 28 91.9V87.6C28 85.1 30 83 32.6 83H53.3C55.8 83 57.9 85.1 57.9 87.6V91.9C57.8 92.7 57.1 93.4 56.3 93.4ZM31 90.3H54.7V87.5C54.7 86.7 54 86 53.2 86H32.5C31.7 86 31 86.7 31 87.5V90.3Z" fill="#393939"/>
<path d="M42.9 86C42.1 86 41.4 85.3 41.4 84.5V79C41.4 78.2 42.1 77.5 42.9 77.5C43.7 77.5 44.4 78.2 44.4 79V84.5C44.4 85.3 43.7 86 42.9 86Z" fill="#393939"/>
<path d="M30.1 87.2C29.3 87.2 28.6 86.5 28.6 85.7V79C28.6 78.2 29.3 77.5 30.1 77.5C30.9 77.5 31.6 78.2 31.6 79V85.7C31.6 86.5 31 87.2 30.1 87.2Z" fill="#393939"/>
<path d="M66.1 29.9H47.3C46.5 29.9 45.8 29.2 45.8 28.4C45.8 27.6 46.5 26.9 47.3 26.9H66C66.8 26.9 67.5 27.6 67.5 28.4C67.6 29.2 66.9 29.9 66.1 29.9Z" fill="#393939"/>
<path d="M64.3 36.5H49.1C48.3 36.5 47.6 35.8 47.6 35C47.6 34.2 48.3 33.5 49.1 33.5H64.3C65.1 33.5 65.8 34.2 65.8 35C65.8 35.8 65.2 36.5 64.3 36.5Z" fill="#393939"/>
<path d="M64.2 53.8C63.8 53.8 63.5 53.7 63.2 53.5L55 46.7C44.3 46.1 36 39.2 36 30.9C36 22.1 45.3 15 56.7 15C68.1 15 77.4 22.1 77.4 30.9C77.4 35.9 74.3 40.7 69 43.7L65.5 52.9C65.3 53.4 64.9 53.7 64.5 53.8C64.4 53.8 64.3 53.8 64.2 53.8ZM56.7 18.1C47 18.1 39 23.8 39 30.9C39 37.7 46.3 43.3 55.6 43.7C55.9 43.7 56.3 43.8 56.5 44L63.4 49.7L66.3 42C66.4 41.7 66.7 41.4 67 41.2C71.5 38.8 74.3 34.9 74.3 30.9C74.4 23.8 66.4 18.1 56.7 18.1Z" fill="#393939"/>
</svg>
