<svg width="252" height="305" viewBox="0 0 252 305" fill="none" xmlns="http://www.w3.org/2000/svg">
<path d="M249.483 270.787C245.792 253.63 241.902 236.474 239.807 219.016C237.513 199.553 235.218 180.189 233.722 160.625C233.024 151.595 232.126 142.666 231.428 133.636C230.729 124.406 230.131 115.075 229.433 105.845C228.834 98.1193 228.934 90.2936 228.236 82.4679C227.537 74.7425 228.036 66.8165 228.036 59.0911C228.036 51.3657 227.936 43.7406 228.036 36.0153C228.036 32.2027 227.936 31.8014 224.146 31.8014C220.854 31.7011 217.462 31.9018 214.17 31.8014C210.878 31.7011 207.587 32.3031 204.295 32.0021C195.816 31.1994 187.337 30.6978 178.858 31.4001C171.276 32.0021 163.595 31.9018 155.914 31.8014C153.121 31.7011 153.121 31.7011 152.423 28.8919C151.725 26.0826 150.927 25.3803 148.134 25.28C145.44 25.1797 142.747 25.28 139.954 25.1797C138.059 25.1797 133.27 20.4642 133.27 18.6582C133.27 18.0563 133.47 17.4543 133.769 16.8523C134.168 16.0497 134.667 15.3474 135.066 14.5447C137.36 10.1302 135.864 5.11375 131.575 2.70584C127.185 0.297925 122.597 0.297925 118.208 2.70584C113.819 5.11375 112.422 10.1302 114.716 14.5447C115.016 15.247 115.415 15.849 115.814 16.451C116.711 17.8556 116.612 19.1599 115.614 20.5645C113.42 23.4741 111.125 26.0826 106.836 25.1797C105.339 24.8787 103.644 25.0793 102.048 25.1797C98.8555 25.28 97.858 25.882 97.3592 29.1929C96.9602 31.5004 95.7632 31.8014 93.8679 31.8014C86.4861 31.9018 79.1044 32.0021 71.7226 31.4001C64.5404 30.8985 57.4579 30.9988 50.2757 31.6008C47.6821 31.8014 45.0885 32.5037 42.5947 32.2027C37.7067 31.7011 32.7191 31.8014 27.8312 31.8014C26.7339 31.8014 25.6366 31.8014 24.5393 31.9017C21.846 32.1024 21.5467 32.6041 21.7462 35.313C21.846 36.3162 21.7462 37.3195 21.846 38.3228C21.9457 40.0284 21.447 40.8311 19.5516 40.7308C16.9581 40.6304 14.4642 41.3327 11.8706 41.9347C10.1748 42.336 9.37681 43.239 9.37681 45.0449C9.37681 46.5499 10.2746 48.3558 9.1773 49.3591C8.17977 50.2621 6.48396 50.3624 5.08742 50.864C4.38915 50.9644 3.69087 51.165 2.9926 51.466C0.59852 52.4693 0 53.3723 0 55.9809C0 57.8871 0.498767 59.693 0.997533 61.499C3.29186 70.7293 5.28692 80.06 6.58372 89.4909C8.57878 103.738 10.5739 117.985 12.2697 132.231C13.6662 144.171 15.362 156.009 17.2573 167.949C18.4544 175.875 18.5541 183.901 20.4494 191.727C21.7462 197.446 21.7462 203.465 21.846 209.385C22.0455 224.535 22.0455 239.584 21.9457 254.734C21.9457 268.579 22.3447 282.525 20.6489 296.27C20.4494 298.277 20.2499 300.183 20.5492 302.19C20.6489 303.394 21.1477 303.895 22.4445 303.895C38.804 303.795 55.1636 303.996 71.6229 304.397C85.3888 304.698 99.1548 305.3 112.921 304.196C119.903 303.594 126.986 303.795 133.969 304.096C140.153 304.297 146.238 305.2 152.423 304.798C155.116 304.598 157.81 304.397 160.503 304.497C169.381 304.698 178.259 304.798 187.137 304.196C200.305 303.394 213.472 303.996 226.639 303.895C229.133 303.895 229.133 303.895 229.433 301.287C229.433 300.885 229.532 300.484 229.532 300.183C229.133 298.076 230.33 297.675 232.026 297.675C235.717 297.575 239.408 297.274 243.099 297.173C244.296 297.173 245.393 297.173 246.091 296.17C246.889 295.066 246.49 294.063 245.792 292.859C243.997 289.448 244.894 288.043 248.585 287.642C248.785 287.642 249.084 287.642 249.283 287.542C251.777 287.14 252.276 286.538 251.877 284.13C251.179 279.616 250.481 275.201 249.483 270.787ZM15.5615 135.743C12.8682 114.975 10.6736 94.2064 6.58372 73.6389C5.58618 68.5221 4.28939 63.5056 3.19211 58.3888C2.39408 54.8772 2.49383 54.7769 5.9852 53.7736C7.28199 53.3723 8.57878 53.0713 10.2746 52.5696C13.5664 86.3807 17.2573 119.891 17.8558 153.702C17.1576 147.782 16.2598 141.763 15.5615 135.743ZM21.846 141.763C21.0479 139.856 20.8484 138.251 20.8484 136.646C20.1502 116.179 17.5566 95.912 15.8608 75.5451C14.963 66.3148 13.9655 57.0845 12.8682 47.8542C12.4692 44.8443 12.5689 44.8443 15.4618 44.2423C21.9457 42.938 21.846 42.938 21.846 49.4594C21.846 65.7128 21.846 81.9662 21.846 98.1193C21.7462 112.567 21.7462 126.914 21.846 141.763ZM116.512 24.2767C120.103 20.9658 120.203 17.4543 117.509 13.4411C115.514 10.3309 116.711 7.02001 119.903 5.41473C123.195 3.70913 126.487 3.70913 129.779 5.41473C133.071 7.12034 133.969 10.2306 132.273 13.5414C132.073 13.9428 131.774 14.4444 131.575 14.8457C129.679 17.8556 129.779 20.6648 132.273 23.2734C132.672 23.6747 133.071 24.1764 133.869 25.1797H116.412C116.512 24.678 116.412 24.377 116.512 24.2767ZM102.746 56.9841C111.823 56.9841 120.901 56.8838 129.979 56.8838C135.465 56.8838 141.051 57.3855 146.538 57.0845C148.732 56.9841 150.927 57.1848 153.121 56.3822C153.62 56.1815 154.219 56.2818 154.318 56.7835C154.518 57.4858 154.119 58.0878 153.52 58.1881C151.825 58.4891 150.129 58.6898 148.433 58.8904C145.241 59.3921 142.049 59.3921 138.857 59.2917C129.181 60.0944 119.405 59.4924 109.729 59.3921C105.639 59.3921 101.649 58.8904 97.5587 58.4891C96.9602 58.3888 96.3617 58.2884 95.7632 57.9874C95.2644 57.7868 94.9651 57.2851 95.1646 56.7835C95.3642 56.1815 95.9627 56.0812 96.3617 56.2818C98.5563 57.0845 100.651 56.9841 102.746 56.9841ZM220.654 300.885C211.377 301.086 202.2 300.584 192.923 301.086C177.86 301.889 162.897 301.387 147.834 301.788C142.049 301.989 136.263 301.086 130.577 300.785C126.487 300.584 122.298 300.484 118.108 300.986C113.519 301.588 108.731 301.788 104.142 301.889C95.2644 301.989 86.3864 301.688 77.5083 301.788C65.9369 301.889 54.3656 300.785 42.7942 300.986C37.208 301.086 31.7215 301.086 26.1354 301.086C23.6415 301.086 23.5418 300.885 23.6415 298.277C23.7413 295.568 24.0405 292.859 24.3398 290.15C25.5368 281.221 25.0381 272.291 25.1378 263.462C25.1378 208.382 25.1378 153.401 25.0381 98.3199C25.0381 78.6553 25.0381 58.8904 25.0381 39.2258C25.0381 39.0251 25.0381 38.7242 25.0381 38.5235C25.0381 35.4133 25.0381 35.4133 28.3299 35.313C29.926 35.313 31.522 35.1123 33.1181 35.313C38.405 35.8146 43.6919 35.4133 48.9789 34.8113C56.7596 34.0087 64.4406 34.109 72.2214 34.5103C79.7029 34.9116 87.2841 35.1123 94.7656 34.8113C95.2644 34.8113 95.7632 34.9116 96.5612 34.9116C95.9627 40.7308 95.4639 46.2489 94.8654 51.767C94.7656 52.5696 94.6659 53.3723 94.0674 54.0746C91.1745 57.4858 92.4713 61.0977 96.9602 61.6996C101.549 62.3016 106.237 63.0039 110.926 62.8033C115.614 62.6026 120.302 63.5056 124.991 63.2046C133.869 62.7029 142.747 63.1043 151.525 61.9003C152.623 61.8 153.72 61.6996 154.817 61.2983C157.81 60.0944 158.708 56.6832 156.513 54.3756C155.615 53.4726 155.316 52.67 155.216 51.466C154.717 46.0482 154.119 40.6304 153.62 35.2126C153.919 34.711 154.318 34.6106 154.817 34.6106C164.393 35.1123 174.07 34.41 183.646 34.109C191.427 33.808 199.108 34.2093 206.888 35.313C210.679 35.8146 214.47 35.1123 218.36 35.2126C220.555 35.313 223.348 34.3097 224.744 35.8146C226.041 37.2192 225.143 39.8278 225.143 41.9347C225.143 82.8692 225.143 123.703 225.143 164.638C225.143 203.064 225.143 241.49 225.043 279.917C225.043 284.833 225.941 289.749 226.24 294.665C226.44 301.989 227.338 300.785 220.654 300.885ZM237.413 294.063C235.318 294.264 233.223 294.264 231.128 294.464C229.532 294.665 229.034 293.963 228.834 292.458C228.335 287.04 227.936 281.622 227.936 276.104C227.936 243.497 227.936 210.89 228.036 178.283C228.036 167.146 228.036 156.009 228.136 144.773C228.136 144.07 228.335 143.368 228.435 142.666C228.435 142.666 228.435 142.666 228.335 142.666C228.335 142.666 228.335 142.565 228.335 142.465C228.236 142.264 228.136 142.064 228.136 141.963C228.136 141.763 228.136 141.562 228.136 141.261C228.734 141.261 228.236 141.763 228.335 141.963C228.435 142.064 228.335 142.264 228.335 142.465V142.565C228.335 142.565 228.335 142.565 228.335 142.666C229.233 142.666 229.034 143.368 229.133 143.87C230.031 153.2 230.43 162.631 230.729 172.062C231.128 185.607 232.126 199.051 233.323 212.495C234.021 219.919 234.221 227.344 235.019 234.768C236.814 252.527 239.208 270.185 242.101 287.742C242.999 293.561 243.099 293.561 237.413 294.063ZM246.989 284.732C245.593 284.732 244.296 285.134 244.096 283.027C243.997 281.522 243.697 280.117 243.498 278.612C241.403 263.563 239.308 248.513 237.712 233.364C237.513 231.257 237.313 229.15 237.912 226.943C239.109 233.865 240.106 240.788 241.503 247.61C243.398 256.941 245.493 266.171 247.488 275.502C247.987 277.81 248.286 280.117 248.685 282.425C248.785 283.93 248.585 284.632 246.989 284.732Z" fill="#393939"/>
<path d="M164.992 204.067C149.331 220.421 125.29 225.137 104.541 216.007C78.1068 204.368 65.6376 173.968 75.8125 147.281L79.9023 164.738C80.0021 165.641 80.8001 166.243 81.6979 166.243C81.7977 166.243 81.9972 166.243 81.9972 166.243C82.9947 165.942 83.5932 165.039 83.294 164.036L77.608 139.856C77.5083 139.254 77.0095 138.652 76.3112 138.552C75.7127 138.452 75.0144 138.552 74.5157 138.953L56.3606 157.414C55.6623 158.116 55.6623 159.32 56.3606 160.023C57.0588 160.725 58.2559 160.725 58.9542 160.023L72.1216 146.578C69.7275 152.899 68.6302 159.722 68.6302 166.444C68.6302 198.449 94.2668 224.434 126.088 224.434C141.749 224.434 156.912 218.113 167.785 206.576L167.885 206.475C168.583 205.773 168.483 204.569 167.785 203.867C166.887 203.164 165.69 203.164 164.992 204.067Z" fill="#393939"/>
<path d="M130.078 112.467C132.373 112.567 134.767 112.868 137.161 113.47H137.46C138.358 113.47 139.056 112.868 139.256 111.965C139.555 110.962 138.857 110.059 137.959 109.758C135.465 109.356 132.971 108.855 130.477 108.754H130.377C129.38 108.754 128.482 109.457 128.482 110.56C128.183 111.564 129.081 112.366 130.078 112.467Z" fill="#393939"/>
<path d="M114.118 113.67C114.218 113.67 114.417 113.67 114.517 113.57C116.911 113.169 119.205 112.667 121.599 112.567C122.597 112.467 123.395 111.564 123.195 110.46C123.096 109.457 122.198 108.654 121.101 108.855C118.607 108.955 116.113 109.457 113.619 110.059C112.721 110.159 112.123 110.962 112.123 111.865C112.322 112.768 113.12 113.47 114.118 113.67Z" fill="#393939"/>
<path d="M145.141 115.777C146.039 116.078 146.937 116.48 147.735 116.981C149.031 117.583 150.328 118.185 151.525 118.888C151.825 118.988 152.124 118.988 152.423 118.988C153.121 118.988 153.72 118.587 154.019 117.985C154.418 117.082 154.119 115.878 153.321 115.476C152.024 114.774 150.727 114.172 149.231 113.369C148.333 112.968 147.336 112.667 146.438 112.165C146.338 112.165 146.338 112.165 146.139 112.065C145.241 111.965 144.243 112.466 143.944 113.57C143.745 114.373 144.144 115.476 145.141 115.777Z" fill="#393939"/>
<path d="M173.471 140.659C173.77 141.261 174.369 141.662 175.067 141.662C175.366 141.662 175.665 141.562 175.965 141.562C176.862 141.161 177.162 139.957 176.663 139.054C175.466 136.846 174.169 134.639 172.573 132.532C171.975 131.629 170.778 131.529 170.079 132.131C169.181 132.733 169.082 133.937 169.68 134.639C170.977 136.545 172.274 138.552 173.471 140.659Z" fill="#393939"/>
<path d="M181.751 161.728C180.753 161.728 179.955 162.631 179.955 163.634C179.955 164.537 179.955 165.44 179.955 166.444C179.955 167.949 179.955 169.353 179.855 170.858C179.855 171.862 180.554 172.764 181.451 172.764H181.551C182.549 172.764 183.347 172.062 183.347 170.959C183.446 169.454 183.446 167.848 183.446 166.243C183.446 165.24 183.446 164.337 183.446 163.333C183.646 162.531 182.748 161.728 181.751 161.728Z" fill="#393939"/>
<path d="M175.067 193.131C174.169 192.73 172.972 193.031 172.573 193.834C171.376 195.941 170.079 197.847 168.583 199.753C168.284 200.054 168.284 200.455 168.284 200.957C168.284 201.96 169.182 202.763 170.079 202.763C170.678 202.763 171.077 202.462 171.576 202.061C173.172 199.954 174.468 197.947 175.865 195.74C176.264 194.837 175.965 193.733 175.067 193.131Z" fill="#393939"/>
<path d="M176.863 148.284C177.561 150.491 178.359 152.899 178.758 155.207C178.858 156.11 179.656 156.712 180.554 156.712C180.653 156.712 180.653 156.712 180.853 156.712C181.85 156.611 182.449 155.508 182.349 154.504C181.751 151.996 181.152 149.488 180.254 147.08C179.955 146.077 178.958 145.575 177.86 145.876C176.963 146.378 176.564 147.481 176.863 148.284Z" fill="#393939"/>
<path d="M164.094 128.118C164.394 128.419 164.992 128.72 165.391 128.72C165.79 128.72 166.389 128.619 166.688 128.118C167.386 127.415 167.386 126.211 166.688 125.509C164.892 123.703 162.997 122.098 161.002 120.493C160.104 119.891 159.107 120.091 158.408 120.794C157.81 121.697 158.009 122.7 158.708 123.402C160.703 124.907 162.498 126.312 164.094 128.118Z" fill="#393939"/>
<path d="M180.853 178.283C179.955 177.982 178.758 178.383 178.459 179.286C177.86 181.694 177.162 183.901 176.264 186.108C175.965 187.011 176.364 188.215 177.262 188.516C177.561 188.617 177.661 188.617 177.96 188.617C178.658 188.617 179.456 188.215 179.756 187.413C180.653 185.005 181.352 182.497 181.95 180.189C182.15 179.286 181.551 178.584 180.853 178.283Z" fill="#393939"/>
<path d="M99.1547 119.289C99.4539 119.289 99.7532 119.188 100.052 118.988C102.147 117.784 104.342 116.881 106.536 116.078C107.434 115.677 108.033 114.573 107.534 113.67C107.135 112.767 106.038 112.165 105.14 112.667C102.746 113.57 100.451 114.774 98.2569 115.878C97.6584 116.179 97.3591 116.78 97.3591 117.483C97.2594 118.386 98.1572 119.289 99.1547 119.289Z" fill="#393939"/>
<path d="M144.443 136.245C144.742 136.345 145.041 136.546 145.44 136.546C146.039 136.546 146.737 136.245 147.036 135.643L148.533 133.134C149.131 132.231 148.832 131.027 147.934 130.626C147.036 130.024 145.839 130.325 145.44 131.228L143.944 133.736C143.246 134.639 143.545 135.643 144.443 136.245Z" fill="#393939"/>
<path d="M126.886 131.027C127.884 131.027 128.781 130.124 128.781 129.121V126.212C128.781 125.208 127.884 124.406 126.986 124.406C125.988 124.406 125.19 125.309 125.19 126.212V129.121C125.091 130.225 125.789 131.027 126.886 131.027Z" fill="#393939"/>
<path d="M105.639 129.723C104.741 130.325 104.641 131.529 105.04 132.231L106.537 134.74C106.836 135.342 107.434 135.643 108.133 135.643C108.432 135.643 108.731 135.542 109.03 135.342C109.928 134.94 110.227 133.736 109.729 132.833C109.729 132.833 108.133 130.225 108.133 130.024C107.534 129.422 106.437 129.121 105.639 129.723Z" fill="#393939"/>
<path d="M90.8753 188.115C91.1746 188.115 91.4738 188.015 91.7731 187.814L94.2669 186.309C95.1647 185.908 95.464 184.704 94.9652 183.801C94.5662 182.898 93.3691 182.597 92.4714 183.098L89.9775 184.603C89.379 184.904 89.0798 185.506 89.0798 186.209C89.1795 187.312 89.8778 188.115 90.8753 188.115Z" fill="#393939"/>
<path d="M107.833 197.345C106.936 196.944 105.938 197.245 105.339 197.947L103.843 200.455C103.843 200.455 103.843 200.455 103.843 200.556C103.444 201.459 103.743 202.663 104.541 203.064C104.841 203.164 105.14 203.365 105.539 203.365C106.138 203.365 106.836 203.064 107.135 202.462L108.631 199.954C108.931 198.95 108.631 197.746 107.833 197.345Z" fill="#393939"/>
<path d="M123.594 204.268V207.178C123.594 208.181 124.293 209.084 125.39 209.084C126.387 209.084 127.185 208.382 127.185 207.278V204.368C127.185 203.365 126.487 202.562 125.39 202.462C124.392 202.462 123.594 203.164 123.594 204.268Z" fill="#393939"/>
<path d="M145.64 198.449C145.041 197.546 143.844 197.446 143.146 197.847C142.248 198.449 142.148 199.653 142.547 200.355L144.044 202.863C144.343 203.465 144.941 203.867 145.64 203.867C145.939 203.867 146.238 203.766 146.537 203.566C147.435 203.164 147.735 201.96 147.236 201.057C147.136 201.258 145.64 198.649 145.64 198.449Z" fill="#393939"/>
<path d="M157.211 187.714L159.705 189.218C160.004 189.319 160.304 189.519 160.603 189.519C161.201 189.519 161.9 189.218 162.199 188.616C162.598 187.714 162.498 186.71 161.6 186.108L159.107 184.603C159.107 184.603 159.107 184.603 159.007 184.603C158.109 184.202 156.912 184.503 156.513 185.306C155.914 186.108 156.313 187.312 157.211 187.714Z" fill="#393939"/>
<path d="M166.488 165.741H163.595C162.598 165.741 161.8 166.444 161.8 167.547C161.8 168.551 162.498 169.353 163.595 169.454H166.488C167.486 169.454 168.284 168.551 168.284 167.648C168.184 166.745 167.486 165.741 166.488 165.741Z" fill="#393939"/>
<path d="M158.807 150.491C159.106 150.491 159.406 150.391 159.705 150.19L162.199 148.685C163.097 148.284 163.396 147.08 162.897 146.177C162.498 145.274 161.301 144.973 160.403 145.475L157.909 146.98C157.311 147.281 157.012 147.883 157.012 148.585C156.912 149.689 157.81 150.391 158.807 150.491Z" fill="#393939"/>
<path d="M147.236 143.87C146.538 143.268 145.34 143.468 144.642 144.171L127.086 163.835C126.687 163.735 126.088 163.534 125.49 163.735C124.891 163.735 124.492 163.835 123.894 164.136L107.534 149.488C106.935 148.786 105.738 148.786 105.04 149.488C104.342 150.19 104.442 151.394 105.14 152.097L121.4 166.745C121.3 167.146 121.1 167.648 121.1 168.049C121.1 170.557 123.195 172.664 125.689 172.664C126.986 172.664 128.183 172.062 128.881 171.159C130.078 169.855 130.378 167.949 129.579 166.243L147.036 146.478L147.136 146.378C148.134 145.675 147.934 144.471 147.236 143.87ZM126.288 168.852C125.988 169.153 125.39 169.153 125.091 168.852C124.791 168.551 124.791 168.149 125.091 167.648C125.19 167.547 125.39 167.347 125.689 167.347C125.789 167.347 126.088 167.347 126.288 167.447C126.387 167.547 126.587 167.748 126.587 168.049C126.587 168.35 126.387 168.651 126.288 168.852Z" fill="#393939"/>
</svg>
