<svg width="231" height="452" viewBox="0 0 231 452" fill="none" xmlns="http://www.w3.org/2000/svg">
<path d="M226.337 16.4576C218.437 16.0576 210.537 15.9576 202.737 15.9576C204.837 12.7576 206.837 9.65755 208.837 6.45755C210.437 3.85755 208.337 0.657551 205.537 0.557551C184.037 -0.242449 162.637 -0.242449 141.237 0.957551C120.037 2.15755 99.5371 4.55755 78.7371 9.15755C78.6371 9.15755 78.6371 9.25755 78.5371 9.25755C78.3371 9.45755 78.1371 9.55755 78.1371 9.75755C66.3371 36.7576 57.1371 64.9576 47.2371 92.7576C37.2371 121.058 27.5371 149.458 17.2371 177.558C16.2371 180.258 19.1371 182.358 21.5371 181.758C29.0371 180.358 36.4371 178.758 43.9371 177.358C42.0371 182.658 40.0371 188.058 38.1371 193.358C37.1371 196.058 40.0371 198.158 42.4371 197.658C48.6371 196.358 54.9371 195.158 61.2371 193.958C44.5371 227.758 30.2371 262.758 18.4371 298.558C17.4371 301.658 21.0371 303.958 23.6371 302.658C30.8371 298.758 38.4371 296.058 46.2371 294.258C43.8371 300.958 41.4371 307.658 39.3371 314.358C38.3371 317.458 41.9371 319.858 44.5371 318.458C45.8371 317.758 47.1371 317.058 48.4371 316.458C32.4371 354.258 16.5371 392.058 0.537066 429.958C0.437066 430.158 0.437066 430.358 0.337066 430.458C-0.462934 432.058 0.237066 433.658 1.63707 434.358C3.13707 435.758 5.63707 435.858 6.63707 433.458C6.73707 433.258 6.73707 433.158 6.83707 433.058C19.3371 416.458 33.0371 400.658 47.0371 385.158C38.4371 405.358 29.9371 425.558 21.4371 445.858C21.3371 446.058 21.3371 446.258 21.3371 446.358C20.5371 447.958 21.2371 449.558 22.6371 450.258C24.1371 451.658 26.5371 451.758 27.5371 449.458C27.6371 449.258 27.7371 449.058 27.7371 449.058C45.6371 425.358 65.8371 403.258 85.8371 381.358C107.637 357.458 130.137 334.258 152.537 311.058C163.437 299.758 174.437 288.558 185.337 277.258C187.437 275.058 186.737 270.558 183.437 270.058C175.337 268.658 167.337 267.558 159.137 266.958C160.937 265.058 162.637 263.258 164.437 261.458C166.537 259.258 165.837 254.758 162.537 254.158C157.537 253.358 152.337 252.658 147.237 251.958C166.037 217.658 189.437 186.358 211.837 154.458C213.937 151.458 211.037 148.258 208.137 147.958C200.537 147.158 193.037 146.658 185.337 146.558C187.237 143.858 189.137 141.258 191.037 138.658C193.137 135.658 190.237 132.458 187.337 132.058C178.437 131.058 169.437 130.658 160.337 130.758C183.537 94.6576 206.537 58.3576 229.537 22.1576C231.337 19.6576 229.137 16.5576 226.337 16.4576ZM193.237 16.1576C191.837 16.7576 191.037 18.1576 191.037 19.5576C165.537 58.9576 139.937 98.3576 114.537 137.758C112.337 141.158 115.937 144.858 119.437 144.158C126.237 142.658 133.237 141.558 140.137 140.758C136.937 145.158 133.737 149.558 131.337 154.458C131.137 154.858 131.637 155.058 131.837 154.858C135.837 151.158 139.137 146.758 142.437 142.358C142.937 141.658 143.537 140.958 144.037 140.158C147.037 139.858 150.037 139.758 152.937 139.558C150.337 142.658 147.937 145.858 145.537 149.158C141.737 154.258 138.037 159.458 134.437 164.558C133.937 165.358 135.137 166.358 135.837 165.658C139.737 160.758 143.637 155.858 147.337 150.858C150.137 147.058 153.037 143.358 155.537 139.358C159.137 139.158 162.737 139.158 166.237 139.158C165.537 140.058 164.837 141.058 164.037 142.058C160.737 146.358 157.337 150.858 154.137 155.158C147.537 163.958 141.037 172.658 134.837 181.658C134.337 182.258 135.337 182.958 135.937 182.458C142.837 174.258 149.337 165.758 155.937 157.258C159.137 153.058 162.437 148.758 165.537 144.558C166.937 142.758 168.237 140.958 169.637 139.158C172.937 139.258 176.137 139.458 179.337 139.558C153.337 176.158 126.537 212.258 107.637 253.258C106.437 255.858 107.837 260.158 111.337 259.858C125.137 258.358 138.737 259.058 152.237 260.858C150.237 262.958 148.337 264.958 146.337 266.958C146.137 267.158 145.937 267.358 145.837 267.558C106.637 308.458 66.5371 348.658 30.1371 392.058C25.9371 397.158 21.7371 402.258 17.6371 407.358C34.1371 368.258 50.6371 329.158 67.2371 290.158C68.2371 287.858 67.1371 284.758 64.1371 284.758C60.7371 284.858 57.3371 285.158 53.9371 285.558C54.4371 284.058 54.7371 282.558 55.2371 281.058C56.4371 277.258 57.3371 273.458 57.9371 269.458C58.0371 268.958 57.3371 268.558 57.0371 269.058C54.9371 272.358 53.3371 276.058 52.1371 279.858C51.5371 281.858 50.8371 283.858 50.3371 285.858C47.3371 286.258 44.4371 287.058 41.6371 287.758C41.8371 287.058 42.0371 286.258 42.1371 285.458C43.1371 281.858 44.2371 278.258 45.3371 274.658C47.6371 267.658 50.2371 260.658 52.2371 253.658C52.4371 253.158 51.6371 252.758 51.3371 253.258C47.6371 259.658 44.9371 266.558 42.6371 273.558C41.4371 276.958 40.3371 280.458 39.4371 284.058C38.9371 285.558 38.4371 287.258 38.0371 288.858C34.6371 289.858 31.2371 291.158 27.9371 292.458C42.6371 249.558 60.8371 208.058 82.4371 168.158C83.9371 165.258 81.4371 162.258 78.3371 162.958C72.7371 164.058 67.2371 165.258 61.6371 166.358C61.7371 166.158 61.8371 165.958 61.9371 165.858C62.4371 164.458 63.1371 162.858 63.5371 161.458C64.4371 158.458 65.3371 155.458 66.2371 152.458C66.4371 151.858 65.4371 151.258 65.0371 151.958C63.7371 154.858 62.5371 157.658 61.2371 160.558C60.6371 161.958 60.0371 163.458 59.5371 164.958C59.2371 165.658 59.1371 166.358 59.0371 167.058C56.3371 167.558 53.5371 168.158 50.8371 168.758C51.8371 165.858 52.8371 163.058 53.6371 160.158C55.5371 153.958 57.3371 147.658 59.2371 141.458C59.6371 140.158 57.7371 139.658 57.2371 140.958C55.0371 147.058 52.9371 153.258 50.8371 159.358C49.8371 162.258 48.9371 165.158 48.0371 168.058C47.9371 168.358 47.7371 168.658 47.5371 169.258C47.4371 169.358 47.2371 169.458 47.1371 169.558C44.8371 170.058 42.3371 170.558 39.9371 170.958C45.4371 154.758 50.8371 138.658 55.9371 122.458C56.2371 121.558 54.8371 121.158 54.6371 122.058C48.6371 138.458 42.7371 154.958 36.9371 171.558C33.1371 172.258 29.4371 173.058 25.6371 173.858C34.9371 147.758 43.8371 121.558 52.4371 95.1575C61.5371 67.1575 71.3371 39.4576 79.6371 11.3576C119.137 9.55755 158.637 6.95755 198.137 8.05755C196.737 10.8576 195.037 13.4576 193.237 16.1576Z" fill="#393939"/>
</svg>
