<svg width="76" height="64" viewBox="0 0 76 64" fill="none" xmlns="http://www.w3.org/2000/svg">
<g clip-path="url(#clip0_950_478)">
<path d="M1.79019 23.0622C6.89794 24.3123 12.1437 24.729 17.2515 24.5901C12.1437 21.2566 6.89794 17.923 1.5141 13.895C1.5141 15.7007 1.65214 17.3675 1.79019 19.0342C1.79019 20.4232 1.79019 21.6733 1.79019 23.0622ZM16.1471 39.4521C11.4535 39.4521 6.7599 39.1743 2.20433 38.202C2.20433 40.9799 2.34238 43.619 2.34238 46.3969C7.03599 44.5913 11.5916 42.23 16.1471 39.4521ZM20.1505 24.5901C21.8071 24.3123 23.4636 24.0345 24.9821 23.6178C20.8407 21.6733 16.9754 18.8953 12.834 16.3952C9.24475 14.1728 5.37942 11.9505 2.06629 8.33915C1.238 8.47805 1.238 9.58923 1.238 10.2837C1.238 10.5615 1.238 10.7004 1.238 10.9782C7.72623 16.2563 14.4905 20.0065 20.1505 24.5901ZM24.568 39.1743C23.0495 39.3132 21.531 39.4521 20.0124 39.4521C14.2145 43.4801 8.27842 46.9525 2.48043 49.3138C2.48043 50.1471 2.48043 50.8416 2.48043 51.675C10.073 49.036 17.3895 44.4524 24.568 39.1743ZM31.8845 52.2306C31.8845 48.2026 31.7465 44.0357 31.7465 40.0077C25.2582 45.1468 18.4939 50.0082 11.7296 53.6196C18.4939 53.8973 25.2582 53.2029 31.8845 52.2306ZM32.0226 21.8122C32.1606 17.6452 32.2987 13.3394 32.4367 9.17254C28.4333 9.58923 24.43 10.0059 20.4266 10.1448C17.2515 10.2837 14.2145 10.2837 11.0394 10.0059C17.6656 15.284 24.7061 19.0342 32.0226 21.8122ZM33.9552 25.8402C34.5074 25.4235 34.6455 24.8679 34.5074 24.3123C34.6455 23.4789 34.5074 22.5066 34.3694 21.5344C34.2313 17.3675 34.0933 13.2005 33.9552 9.03364C33.6791 9.03364 33.403 9.03364 33.1269 9.03364C32.9889 13.4783 32.8508 17.7841 32.7128 22.2288C32.7128 22.5066 32.4367 22.6455 32.1606 22.6455C24.2919 19.7287 16.8374 15.7007 9.93499 9.86702C9.79694 9.86702 9.65889 9.86702 9.52084 9.86702C7.45013 9.72812 5.37942 9.58923 3.44676 8.89474C6.62185 12.0894 10.3491 14.1728 13.9384 16.2563C18.0798 18.7564 21.9451 21.3955 26.2246 23.34C26.5007 23.4789 26.5007 23.8956 26.2246 24.0345C24.1539 24.5901 22.0832 25.0068 20.1505 25.2846C20.0124 25.2846 19.8744 25.2846 19.8744 25.1457C14.3525 20.701 7.72623 16.9508 1.5141 11.8116C1.5141 12.2283 1.5141 12.7839 1.5141 13.2005C7.31208 17.5064 12.972 20.9788 18.3559 24.4512C18.4939 24.5901 18.4939 24.5901 18.4939 24.729C18.632 24.8679 18.4939 25.2846 18.2178 25.2846C12.834 25.5624 7.31209 25.1457 1.92824 23.7567C1.92824 24.4512 1.92824 25.1457 1.92824 25.8402C10.073 27.7847 18.2178 27.7847 26.3626 26.8124C28.2953 26.5347 30.2279 26.3958 32.1606 26.118C32.7128 25.9791 33.403 25.8402 33.9552 25.8402ZM34.5074 51.8139C34.6455 45.9802 34.5074 40.1466 34.3694 34.3129C23.6017 35.4241 12.834 36.6741 2.06629 35.1463C2.06629 35.9796 2.06629 36.6741 2.06629 37.5075C7.17404 38.6187 12.1437 38.8965 17.2515 38.7576C17.6656 38.4798 17.9417 39.1743 17.5276 39.3132C12.5579 42.5078 7.45013 45.1468 2.34238 47.0914C2.34238 47.647 2.34238 48.0637 2.34238 48.6193C8.14037 46.1191 13.8003 42.7856 19.5983 38.8965C19.7363 38.8965 19.7363 38.8965 19.8744 38.8965C21.669 38.7576 23.4636 38.7576 25.2582 38.4798C25.3963 38.4798 25.3963 38.4798 25.3963 38.4798C25.6724 38.4798 25.9485 38.8965 25.5343 39.1743C17.9417 44.869 10.2111 49.7304 2.20433 52.6473C2.20433 52.6473 2.20433 52.6473 2.20433 52.7862C5.24137 53.064 7.86427 53.4807 10.4872 53.6196C17.8037 49.8693 24.8441 44.7302 31.8845 39.1743H32.0226C32.1606 39.0354 32.5747 39.1743 32.5747 39.4521C32.5747 43.7579 32.7128 48.0637 32.7128 52.3695C33.265 52.0917 33.8172 51.9528 34.5074 51.8139ZM65.9822 6.3946C59.3559 5.97791 52.5916 6.53349 45.9653 7.36688C46.2414 11.6727 45.9653 15.8396 45.1371 20.1454C52.7297 16.2563 58.8037 9.86702 65.9822 6.3946ZM53.696 49.3138C57.2852 49.036 61.0125 48.8971 64.6017 49.036C58.2516 44.869 51.9014 41.5355 45.5512 38.4798C45.8273 42.3689 45.8273 46.258 45.8273 50.1471C48.4502 49.8693 51.0731 49.5915 53.696 49.3138ZM73.1607 32.9239C73.0226 30.5627 73.0226 28.2014 73.0226 25.8402C62.6691 24.0345 52.3155 24.8679 41.962 25.4235C41.8239 25.4235 41.8239 25.4235 41.6859 25.2846C41.5478 25.2846 41.4098 25.1457 41.4098 25.0068C41.5478 19.312 41.6859 13.6172 41.8239 7.92246C39.3391 8.20026 36.9923 8.61695 34.5074 8.89474C34.6455 14.5895 34.9216 20.2843 35.0596 25.9791C35.0596 26.118 34.9216 26.3958 34.7835 26.3958C23.7397 28.2014 12.834 29.3126 1.79019 26.5347C1.79019 27.7847 1.79019 29.1737 1.92824 30.4238C1.92824 31.8127 1.92824 33.0628 2.06629 34.4518C12.834 36.1185 23.7397 34.8685 34.5074 33.7573C34.6455 33.7573 34.7835 33.7573 34.7835 33.8962L34.9216 34.0351C35.1977 40.0077 35.1977 45.8413 35.0596 51.8139C37.4064 51.5361 39.7532 51.1194 42.1 50.8416C42.3761 45.0079 42.3761 39.1743 42.2381 33.3406C42.2381 33.2017 42.3761 32.9239 42.5142 32.9239C52.7297 31.6738 62.9452 30.8405 73.1607 32.9239ZM73.1607 21.9511C73.2987 19.1731 73.4368 16.5341 73.7129 13.895C69.4334 16.1174 64.8778 18.3397 60.1842 20.701C64.4637 20.701 68.7432 21.1177 73.1607 21.9511ZM74.4031 45.7024C73.989 42.9245 73.7129 40.0077 73.4368 37.2297C69.4334 36.2574 65.43 35.8407 61.4266 35.8407C65.8442 38.3409 70.1236 41.6744 74.4031 45.7024ZM73.8509 12.2283C73.8509 12.0894 73.8509 11.9505 73.8509 11.9505C67.7768 13.7561 61.9788 17.0897 56.3189 21.2566C56.3189 21.3955 56.1809 21.5344 56.0428 21.5344C54.1101 21.6733 52.1775 21.6733 50.2448 21.9511C49.9687 21.9511 49.8307 21.6733 49.9687 21.3955C56.8711 14.4506 66.3964 12.5061 73.2987 7.78357C72.8846 7.36688 72.8846 7.50577 72.0563 7.36688C70.5378 6.95018 69.0192 6.81129 67.3627 6.81129C59.494 10.1448 53.0058 17.2286 44.7229 21.3955C44.4468 21.5344 44.3088 21.2566 44.3088 20.9788C45.1371 16.5341 45.4132 12.0894 45.2751 7.64467C44.5849 7.78357 43.8946 7.78357 43.2044 7.92246C43.0663 7.92246 42.7903 7.92246 42.6522 7.92246C42.5142 13.4783 42.3761 19.1731 42.2381 24.8679C52.4536 24.3123 62.8071 23.6178 73.0226 25.2846C73.0226 24.5901 73.0226 24.0345 73.0226 23.34C73.0226 23.2011 73.0226 23.0622 73.0226 22.7844C68.191 21.8122 63.3593 21.5344 58.6657 21.5344C58.3896 21.5344 58.1135 21.1177 58.5277 20.8399C63.9115 18.2008 69.0192 15.5618 73.8509 13.0617C73.8509 12.7839 73.8509 12.5061 73.8509 12.2283ZM74.127 9.86702C74.2651 8.89474 74.4031 8.89474 73.8509 8.06136C67.2246 12.645 57.9755 14.5895 51.2111 20.9788C52.7297 20.8399 54.3862 20.701 55.9048 20.701C55.9048 20.701 55.9048 20.701 56.0428 20.5621C61.8408 16.2563 67.7768 12.9228 74.127 10.9782C74.127 10.7004 74.127 10.2837 74.127 9.86702ZM74.6792 47.647C74.6792 47.3692 74.5411 46.9525 74.5411 46.6747C69.9856 42.23 65.1539 38.6187 60.1842 35.8407C60.0462 35.8407 60.0462 35.7019 60.0462 35.7019C59.9081 35.563 59.9081 35.1463 60.3223 35.1463C64.7398 35.1463 69.1573 35.4241 73.4368 36.5352C73.2987 35.563 73.2987 34.5907 73.2987 33.6184C65.43 31.9516 57.4233 32.0905 49.5546 32.9239C48.4502 33.0628 47.4839 33.0628 46.3795 33.2017C45.9653 33.2017 44.0327 33.2017 43.6185 33.4795C42.5142 34.3129 43.0663 38.202 43.0663 39.4521C43.0663 43.2023 43.0663 46.9525 42.7903 50.7027C43.6185 50.5638 44.3088 50.4249 45.1371 50.4249C45.2751 46.258 45.1371 42.23 44.861 38.0631C44.861 37.7853 45.1371 37.6464 45.4132 37.6464C52.1775 40.841 58.8037 44.3135 65.5681 48.8971C65.7061 48.8971 65.7061 49.036 65.7061 49.1749C67.6388 49.3138 69.4334 49.4526 71.3661 49.7304C71.6422 49.7304 71.9182 49.8693 72.1943 49.8693C65.43 44.3135 58.5277 40.1466 51.7633 36.3963C51.6253 36.2574 51.6253 36.1185 51.6253 35.9796C51.6253 35.8407 51.6253 35.7019 51.9014 35.7019C53.696 35.2852 55.6287 34.8685 57.5613 35.4241C59.494 36.1185 61.1506 37.6464 62.8071 38.8965C66.5344 41.8133 70.5378 44.5913 74.6792 47.647ZM74.6792 48.7582C74.6792 48.7582 74.6792 48.6193 74.6792 48.4804C71.09 45.8413 67.6388 43.3412 64.1876 40.9799C62.531 39.8688 61.0125 38.7576 59.494 37.6464C57.1472 35.9796 55.2145 35.7019 52.5916 36.2574C59.3559 40.0077 66.1203 44.3135 73.0226 49.8693C73.7129 49.7304 74.5411 49.1749 74.6792 48.7582ZM76.0597 48.2026C76.1977 49.1749 76.1977 50.286 75.6455 50.8416C74.9553 51.675 73.7129 51.3972 72.7465 51.2583C70.6758 50.9805 68.6051 50.7027 66.3964 50.5638C62.2549 50.286 57.9755 50.4249 53.834 50.7027C36.5781 52.0917 19.3222 57.3698 2.06629 53.7585C1.79019 53.7585 1.65214 53.4807 1.5141 53.3418C1.5141 53.2029 1.37605 53.064 1.37605 52.9251C1.09995 43.2023 0.961907 33.4795 0.685812 23.7567C0.547765 19.5898 0.547765 15.5618 0.27167 11.256C-0.142472 9.72812 -0.418566 6.53349 2.06629 6.95018C2.89457 7.08908 3.8609 7.64467 4.82723 7.78357C5.79356 8.06136 6.7599 8.20026 7.86427 8.33915C9.93499 8.61695 11.8676 8.75585 13.9384 8.89474C18.2178 9.03364 22.4973 8.89474 26.6387 8.47805C35.1977 7.64467 43.6185 6.1168 52.1775 5.42232C56.595 5.00563 60.8745 4.86673 65.292 5.14452C67.5007 5.28342 69.8475 5.42232 72.0563 5.83901C73.0226 5.97791 74.127 6.1168 74.8172 6.81129C75.6455 7.64467 75.5075 8.75585 75.5075 9.58923C75.3694 11.6727 74.9553 13.6172 74.8172 15.5618C74.4031 19.7287 74.2651 24.0345 74.2651 28.3403C74.2651 32.5072 74.5411 36.6741 74.9553 40.9799C75.3694 43.3412 75.7836 45.8413 76.0597 48.2026Z" fill="#393939"/>
</g>
<defs>
<clipPath id="clip0_950_478">
<rect width="76" height="64" fill="white"/>
</clipPath>
</defs>
</svg>
