<svg width="56" height="56" viewBox="0 0 56 56" fill="none" xmlns="http://www.w3.org/2000/svg">
<path d="M49.3 11H6.7C6.3 11 6 11.3 6 11.7V43.2C6 43.7 6.3 44 6.7 44H49.3C49.7 44 50 43.7 50 43.3V11.7C50 11.3 49.7 11 49.3 11ZM48.6 13.6L37 22.2H39.3L48.6 15.3V23.6H31.8V12.4H44.4L33.1 20.8V22.3H33.4L46.6 12.5H48.5V13.6H48.6ZM9.4 12.4L22.6 22.2H22.8V20.6L11.8 12.4H24.2V23.6H7.4V15.2L16.8 22.2H19.1L7.4 13.5V12.4H9.4ZM7.4 41.6L19.4 32.7H17L7.4 39.8V31.3H24.2V42.5H11.9L22.8 34.4V32.7L9.8 42.4C9.7 42.4 9.7 42.5 9.7 42.5H7.4V41.6ZM25.6 42.6V30.6C25.6 30.2 25.3 29.9 24.9 29.9H7.4V25H24.9C25.3 25 25.6 24.7 25.6 24.3V12.4H30.4V24.3C30.4 24.7 30.7 25 31.1 25H48.6V29.9H31.1C30.7 29.9 30.4 30.2 30.4 30.6V42.5H25.6V42.6ZM46.5 42.6L33.3 32.8H33.1V34.4L44.2 42.6H31.8V31.3H48.6V39.7L39.2 32.7H36.9L48.7 41.4V42.5H46.5V42.6Z" fill="#393939"/>
</svg>
