<svg width="22" height="22" viewBox="0 0 22 22" fill="none" xmlns="http://www.w3.org/2000/svg">
<path d="M11.0002 22C12.5307 22 13.9654 21.713 15.3046 21.1391L15.3046 0.86087C13.9654 0.286956 12.5307 -1.21252e-07 11.0002 -1.88149e-07C9.27848 -2.63409e-07 7.65239 0.382608 6.12196 1.14783L6.12196 20.8522C7.65239 21.6174 9.27848 22 11.0002 22Z" fill="white"/>
<path d="M22 11.0001C22 11.7653 21.9043 12.5305 21.8087 13.2001C21.713 13.6784 21.6174 14.1566 21.4261 14.6349C20.2782 17.7914 17.8869 20.1827 14.7304 21.3305V0.669678C17.8869 1.8175 20.2782 4.20881 21.4261 7.36533C21.6174 7.84359 21.713 8.32185 21.8087 8.80011C21.9043 9.46968 22 10.2349 22 11.0001Z" fill="#F4263F"/>
<path d="M7.36522 0.669678V21.4262C4.2087 20.2784 1.81739 17.8871 0.669565 14.7305C0.478261 14.2523 0.382609 13.774 0.286957 13.2958C0.0956522 12.4349 0 11.7653 0 11.0001C0 10.2349 0.0956522 9.46968 0.191304 8.80011C0.286957 8.32185 0.478261 7.84359 0.573913 7.36533C1.72174 4.20881 4.2087 1.72185 7.36522 0.669678Z" fill="#001AA0"/>
</svg>
