<svg width="130" height="120" viewBox="0 0 130 120" fill="none" xmlns="http://www.w3.org/2000/svg">
<g id="Frame">
<path id="Vector" d="M67.1 104.5C68.2 104.5 69.1 105.4 69.1 106.5C69.1 107.5 68.3 108.4 67.3 108.5H67H61.6C60.5 108.5 59.6 107.6 59.6 106.5C59.6 105.5 60.4 104.6 61.4 104.5H61.7H67.1ZM72.5 99.1C73.6 99.1 74.5 100 74.5 101.1C74.5 102.1 73.7 103 72.7 103.1H72.4H56.2C55.1 103.1 54.2 102.2 54.2 101.1C54.2 100.1 55 99.2 56 99.1H56.3H72.5ZM75.2 93.6C76.3 93.6 77.2 94.5 77.2 95.6C77.2 96.6 76.4 97.5 75.4 97.6H75.1H53.5C52.4 97.6 51.5 96.7 51.5 95.6C51.5 94.6 52.3 93.7 53.3 93.6H53.6H75.2ZM64.3 31.1C78.9 31.1 90.8 43 90.8 57.6C90.8 63.9 87.1 70.6 79.8 78C78.3 79.5 77.4 81.5 77.2 83.6V84.2V88.9C77.2 90.7 75.9 92.1 74.1 92.3H73.8H54.8C53 92.3 51.6 91 51.4 89.2V88.9V84.2C51.4 81.9 50.5 79.6 48.8 78C41.5 70.7 37.8 63.9 37.8 57.6C37.8 42.9 49.7 31.1 64.3 31.1ZM39.9 79.7C40.6 80.4 40.7 81.6 40.1 82.4L39.9 82.6L34.1 88.4C33.3 89.2 32 89.2 31.2 88.4C30.5 87.7 30.4 86.5 31 85.7L31.2 85.5L37 79.7C37.9 78.9 39.1 78.9 39.9 79.7ZM91.7 79.5L91.9 79.7L97.7 85.5C98.5 86.3 98.5 87.6 97.7 88.4C97 89.1 95.8 89.2 95 88.6L94.8 88.4L89 82.6C88.2 81.8 88.2 80.5 89 79.7C89.7 79 90.8 78.9 91.7 79.5ZM64.3 35.2C51.9 35.2 41.9 45.2 41.9 57.6C41.9 62.6 45.1 68.4 51.7 75.1C53.9 77.4 55.3 80.4 55.4 83.5V84.2V88.2H73.1V84.2C73.1 81.2 74.1 78.4 75.9 76.1L76.3 75.6L76.8 75.1C83.4 68.4 86.6 62.6 86.6 57.6C86.8 45.2 76.7 35.2 64.3 35.2ZM27.7 53.2C28.8 53.2 29.7 54.1 29.7 55.2C29.7 56.2 28.9 57.1 27.9 57.2H27.6H19.6C18.5 57.2 17.6 56.3 17.6 55.2C17.6 54.2 18.4 53.3 19.4 53.2H19.7H27.7ZM109.3 53.2C110.4 53.2 111.3 54.1 111.3 55.2C111.3 56.2 110.5 57.1 109.5 57.2H109.2H101C99.9 57.2 99 56.3 99 55.2C99 54.2 99.8 53.3 100.8 53.2H101.1H109.3ZM67.1 39.2C75.7 39.2 82.7 46.2 82.7 54.8C82.7 55.9 81.8 56.8 80.7 56.8C79.6 56.8 78.7 55.9 78.7 54.8C78.7 48.4 73.5 43.2 67.1 43.2C66 43.2 65.1 42.3 65.1 41.2C65.1 40.1 65.9 39.2 67.1 39.2ZM34 21.8L34.2 22L40 27.8C40.8 28.6 40.8 29.9 40 30.7C39.3 31.4 38.1 31.5 37.3 30.9L37.1 30.7L31.3 24.9C30.5 24.1 30.5 22.8 31.3 22C32 21.3 33.2 21.2 34 21.8ZM97.6 22C98.3 22.7 98.4 23.9 97.8 24.7L97.6 24.9L91.8 30.7C91 31.5 89.7 31.5 88.9 30.7C88.2 30 88.1 28.8 88.7 28L88.9 27.8L94.7 22C95.5 21.2 96.8 21.2 97.6 22ZM64.5 11C65.5 11 66.4 11.8 66.5 12.8V13.1V21.3C66.5 22.4 65.6 23.3 64.5 23.3C63.5 23.3 62.6 22.5 62.5 21.5V21.2V13C62.4 11.9 63.3 11 64.5 11Z" fill="#393939"/>
</g>
</svg>
