<svg width="56" height="56" viewBox="0 0 56 56" fill="none" xmlns="http://www.w3.org/2000/svg">
<path d="M47.5729 9H30.4376C30.0171 9 29.5966 9 29.1761 9.10512C28.7556 9.21025 28.3351 9.31537 28.0197 9.4205C27.5992 9.63075 27.2838 9.841 26.8633 10.0512C26.548 10.2615 26.2326 10.5769 25.9172 10.8922C25.6018 11.2076 25.3916 11.523 25.0762 11.8384C24.866 12.1537 24.6557 12.5742 24.4455 12.9947C24.2352 13.4152 24.1301 13.8357 24.1301 14.2562C24.1301 14.6767 24.025 15.0972 24.025 15.5177V19.092H9.30749C8.88699 19.092 8.46649 19.092 8.04599 19.1971C7.62549 19.1971 7.20499 19.4074 6.88962 19.5125C6.46912 19.7227 6.15375 19.8279 5.73325 20.1432C5.41787 20.3535 5.1025 20.6689 4.78712 20.9842C4.47175 21.2996 4.2615 21.615 3.94612 21.9304C3.73587 22.2457 3.52562 22.6662 3.4205 22.9816C3.21025 23.4021 3.10512 23.8226 3.10512 24.2431C3 24.6636 3 25.0841 3 25.5046V35.2812C3 36.0171 3.10512 36.8581 3.4205 37.594C3.73587 38.3298 4.05125 38.9606 4.57687 39.5913C5.1025 40.2221 5.62812 40.6426 6.36399 41.0631C7.09987 41.4836 7.73062 41.6938 8.57162 41.7989V48.1064C8.57162 48.4218 8.78187 48.7372 8.99212 48.8423C9.30749 49.0526 9.62286 49.0526 9.93824 48.8423L20.8712 41.9041H26.548C26.9685 41.9041 27.389 41.9041 27.8095 41.7989C28.23 41.6938 28.6505 41.5887 28.9658 41.3784C29.3863 41.1682 29.7017 41.0631 30.0171 40.7477C30.3325 40.4323 30.6478 40.2221 30.9632 39.9067C31.2786 39.5913 31.4888 39.276 31.8042 38.9606C32.0145 38.6452 32.2247 38.2247 32.435 37.8042C32.6452 37.3837 32.7503 36.9632 32.7503 36.6478C32.8555 36.2273 32.8555 35.8068 32.8555 35.3863V31.8121H36.1143L47.0473 38.7503C47.1524 38.8555 47.3627 38.8555 47.5729 38.8555C47.6781 38.8555 47.8883 38.8555 47.9934 38.7503C48.3088 38.5401 48.4139 38.3298 48.4139 38.0145V31.707C49.1498 31.6018 49.8857 31.3916 50.6215 30.9711C51.2523 30.5506 51.883 30.1301 52.4087 29.4993C52.9343 28.8686 53.3548 28.2378 53.565 27.502C53.8804 26.7661 53.9855 26.0302 53.9855 25.1892V15.4126C53.9855 14.9921 53.9855 14.5716 53.8804 14.1511C53.7753 13.7306 53.6702 13.3101 53.565 12.8896C53.3548 12.4691 53.2497 12.1537 52.9343 11.7332C52.724 11.4179 52.4087 11.1025 52.0933 10.7871C51.7779 10.4717 51.4625 10.2615 51.1472 9.94612C50.8318 9.73587 50.4113 9.52562 49.9908 9.31537C49.5703 9.10512 49.1498 9 48.8344 9C48.4139 9 47.9934 9 47.5729 9ZM31.0683 35.2812C31.0683 35.912 30.9632 36.5427 30.753 37.0683C30.5427 37.594 30.2273 38.1196 29.7017 38.5401C29.2812 38.9606 28.7556 39.276 28.23 39.5913C27.7043 39.8016 27.0736 39.9067 26.4428 39.9067H20.4507C20.2405 39.9067 20.1353 39.9067 19.9251 40.0118L10.1485 46.2142V40.6426C10.1485 40.4323 10.0434 40.2221 9.93824 40.0118C9.72799 39.8016 9.51774 39.6965 9.30749 39.6965C8.67674 39.6965 8.15112 39.5913 7.52037 39.3811C6.99474 39.1708 6.46912 38.8555 6.04862 38.3298C5.62812 37.9093 5.31275 37.3837 4.99737 36.8581C4.78712 36.5427 4.682 35.912 4.682 35.2812V25.5046C4.682 24.8738 4.78712 24.2431 4.99737 23.7175C5.20762 23.1919 5.523 22.6662 6.04862 22.2457C6.46912 21.8252 6.99474 21.5099 7.52037 21.1945C8.04599 20.9842 8.67674 20.8791 9.30749 20.8791H26.4428C27.0736 20.8791 27.5992 20.9842 28.23 21.1945C28.7556 21.4047 29.2812 21.7201 29.7017 22.2457C30.1222 22.6662 30.4376 23.1919 30.753 23.7175C30.9632 24.2431 31.0683 24.8738 31.0683 25.5046V35.2812ZM52.1984 25.2943C52.1984 25.9251 52.0933 26.5558 51.883 27.0815C51.6728 27.6071 51.3574 28.1327 50.8318 28.5532C50.4113 28.9737 49.8857 29.2891 49.3601 29.6045C48.8344 29.8147 48.2037 29.9198 47.5729 29.9198C47.3627 29.9198 47.1524 30.025 46.9422 30.2352C46.7319 30.4455 46.7319 30.6557 46.7319 30.866V36.3325L36.8502 30.025C36.7451 29.9198 36.5348 29.9198 36.3246 29.9198H32.7503V25.5046C32.7503 25.0841 32.7503 24.6636 32.6452 24.2431C32.5401 23.8226 32.435 23.4021 32.3298 22.9816C32.1196 22.5611 32.0145 22.2457 31.6991 21.8252C31.4888 21.5099 31.1735 21.1945 30.8581 20.8791C30.5427 20.5637 30.2273 20.3535 29.912 20.0381C29.5966 19.7227 29.2812 19.7227 28.9658 19.5125C28.5453 19.3022 28.1248 19.1971 27.8095 19.092C27.389 18.9869 26.9685 18.9869 26.548 18.9869H25.8121V15.5177C25.8121 14.887 25.9172 14.2562 26.1275 13.7306C26.3377 13.205 26.6531 12.6794 27.1787 12.2589C27.5992 11.8384 28.1248 11.523 28.6505 11.2076C29.1761 10.9974 29.8068 10.8922 30.4376 10.8922H47.5729C48.2037 10.8922 48.7293 10.9974 49.3601 11.2076C49.8857 11.4179 50.4113 11.7332 50.8318 12.2589C51.2523 12.6794 51.5677 13.205 51.883 13.7306C52.0933 14.2562 52.1984 14.887 52.1984 15.5177V25.2943Z" fill="#393939"/>
<path d="M18.6636 24.4525C18.4534 24.1372 18.2431 23.9269 17.8226 23.9269C17.5072 23.9269 17.1919 24.1372 16.9816 24.4525L11.6202 35.2804C11.5151 35.4906 11.5151 35.7009 11.5151 36.0163C11.6202 36.2265 11.7254 36.4368 11.9356 36.5419C12.1459 36.647 12.3561 36.647 12.6715 36.5419C12.8817 36.4368 13.092 36.3316 13.1971 36.0163L15.0894 32.2318H20.661L22.5532 36.0163C22.6583 36.2265 22.8686 36.4368 23.0788 36.5419C23.2891 36.647 23.4993 36.647 23.8147 36.5419C24.025 36.4368 24.2352 36.2265 24.2352 36.0163C24.3403 35.806 24.2352 35.4906 24.1301 35.2804L18.6636 24.4525ZM16.0355 30.5498L17.9277 26.7653L19.82 30.5498H16.0355Z" fill="#393939"/>
<path d="M44.2089 24.5593L40.7398 22.2465C41.4757 21.0902 42.0013 19.9338 42.5269 18.6723H43.6833C43.8936 18.6723 44.1038 18.5672 44.3141 18.3569C44.5243 18.1467 44.6294 17.9364 44.6294 17.7262C44.6294 17.5159 44.5243 17.3057 44.3141 17.0954C44.1038 16.8852 43.8936 16.7801 43.6833 16.7801H40.1091V14.9929C40.1091 14.7827 40.004 14.5724 39.8988 14.3622C39.6886 14.1519 39.4783 14.0468 39.2681 14.0468C39.0578 14.0468 38.8476 14.1519 38.6373 14.3622C38.4271 14.5724 38.322 14.7827 38.322 14.9929V16.8852H34.3272C34.117 16.8852 33.9067 16.9903 33.6965 17.2006C33.4862 17.4108 33.3811 17.6211 33.3811 17.8313C33.3811 18.0416 33.4862 18.2518 33.6965 18.4621C33.9067 18.6723 34.117 18.7774 34.3272 18.7774H40.6347C40.2142 19.7236 39.7937 20.5646 39.2681 21.4056L37.0605 19.9338C36.8502 19.5133 36.64 19.5133 36.3246 19.5133C36.1143 19.5133 35.9041 19.7236 35.799 19.9338C35.6938 20.1441 35.5887 20.3543 35.6938 20.5646C35.799 20.7748 35.9041 20.9851 36.1143 21.0902L38.322 22.5619C37.5861 23.4029 36.8502 24.2439 36.0092 24.9798C35.799 25.19 35.6938 25.4003 35.6938 25.6105C35.6938 25.8208 35.799 26.031 35.9041 26.2413C36.1143 26.4515 36.2195 26.5567 36.5348 26.5567C36.7451 26.5567 36.9553 26.4515 37.1656 26.3464C38.1117 25.5054 38.9527 24.5593 39.7937 23.6132L43.2628 26.031C43.3679 26.1362 43.5782 26.1362 43.7884 26.1362C43.9987 26.1362 44.2089 26.031 44.3141 25.9259C44.4192 25.8208 44.6294 25.6105 44.6294 25.5054C44.7346 25.2952 44.7346 25.0849 44.6294 24.9798C44.5243 24.8747 44.4192 24.6644 44.2089 24.5593Z" fill="#393939"/>
</svg>
