<svg width="130" height="120" viewBox="0 0 130 120" fill="none" xmlns="http://www.w3.org/2000/svg">
<g id="Frame" clip-path="url(#clip0_612_1057)">
<path id="Vector" d="M91.9466 63.0187H11.1536V11H91.9466V63.0187ZM13.9654 60.2069H89.1348V13.8118H13.9654V60.2069ZM114.722 36.6813C109.099 36.6813 104.412 41.274 104.412 46.9914V56.6453H107.224V46.9914C107.224 44.367 108.63 42.0238 110.692 40.7116C111.255 42.4924 112.848 43.7109 114.722 43.7109C116.597 43.7109 118.19 42.3987 118.753 40.7116C120.815 42.0238 122.221 44.367 122.221 46.9914V56.6453H125.032V46.9914C125.032 41.3677 120.44 36.6813 114.722 36.6813ZM114.722 40.9928C113.973 40.9928 113.41 40.4304 113.317 39.6806C113.785 39.5869 114.254 39.4932 114.722 39.4932C115.191 39.4932 115.66 39.5869 116.128 39.6806C116.035 40.4304 115.472 40.9928 114.722 40.9928ZM122.221 56.6453H107.318L104.506 76.1406H110.598V89.075H113.41V76.0469H116.222V88.9813H119.034V76.0469H125.032L122.221 56.6453ZM129.063 29.4643C128.969 29.3706 128.875 29.1831 128.688 28.9019C127.751 27.5898 126.251 25.434 124.001 25.434C123.814 25.434 123.533 25.434 123.345 25.5278C123.252 25.5278 123.158 25.6215 123.064 25.6215C122.127 21.8724 118.753 19.0606 114.629 19.0606C109.849 19.0606 105.912 22.9971 105.912 27.7772C105.912 32.5573 109.849 36.4939 114.629 36.4939C117.815 36.4939 120.627 34.7131 122.127 32.0887C122.783 32.5573 123.72 32.7448 124.751 32.7448C126.251 32.7448 127.938 32.1824 128.875 31.4326L130 30.4953L129.063 29.4643ZM119.221 24.1218C118.003 24.0281 116.784 23.6532 116.035 23.2783C116.222 22.9034 116.41 22.5285 116.597 22.2473C117.628 22.6222 118.472 23.2783 119.221 24.1218ZM113.504 22.0598C112.286 24.3093 110.505 26.8399 108.818 27.8709V27.7772C108.818 24.9654 110.786 22.5285 113.504 22.0598ZM114.629 33.6821C112.473 33.6821 110.505 32.4636 109.567 30.6828C111.629 29.7455 113.317 27.6835 114.629 25.7152C116.128 26.465 118.284 27.0274 120.252 27.0274C120.346 27.0274 120.44 27.0274 120.534 27.0274C120.534 27.3086 120.627 27.5898 120.627 27.8709C120.534 31.0577 117.909 33.6821 114.629 33.6821ZM124.751 29.933C123.439 29.933 123.345 29.2769 123.252 29.0894C123.158 28.4333 123.627 28.3396 123.814 28.3396H123.908C124.47 28.3396 125.22 29.1831 125.782 29.8392C125.501 29.933 125.22 29.933 124.751 29.933ZM96.0707 73.4225C96.0707 69.9546 93.2588 67.1428 89.7909 67.1428C86.323 67.1428 83.5112 69.9546 83.5112 73.4225V79.7022H96.0707V73.4225ZM93.1651 76.8904H86.2293V73.4225C86.2293 71.5479 87.8226 69.9546 89.6972 69.9546C91.5717 69.9546 93.1651 71.5479 93.1651 73.4225V76.8904ZM62.3288 81.1082C62.9849 81.1082 64.0159 81.0144 64.8594 80.4521C65.6092 79.9834 66.1716 79.2336 66.2653 78.2963C67.2963 79.1399 68.7022 79.7022 70.2019 79.7022C73.6698 79.7022 76.4816 76.8904 76.4816 73.4225C76.4816 69.9546 73.6698 67.1428 70.2019 67.1428C66.734 67.1428 63.9221 69.9546 63.9221 73.4225C63.9221 73.8911 64.0159 74.3598 64.1096 74.8284C63.8284 74.7347 63.6409 74.7347 63.3598 74.7347C61.204 74.7347 60.0793 76.9841 59.5169 78.1089C59.4232 78.2963 59.3295 78.3901 59.3295 78.4838L58.5797 79.7022L59.7981 80.4521C60.3605 80.9207 61.3915 81.1082 62.3288 81.1082ZM70.2019 69.9546C72.0764 69.9546 73.6698 71.5479 73.6698 73.4225C73.6698 75.2971 72.0764 76.8904 70.2019 76.8904C68.3273 76.8904 66.734 75.2971 66.734 73.4225C66.734 71.5479 68.2336 69.9546 70.2019 69.9546ZM63.3598 77.5465C63.4535 77.5465 63.5472 77.5465 63.5472 77.5465C63.5472 77.5465 63.5472 77.6402 63.641 77.734C63.641 77.9214 63.5472 78.0151 63.4535 78.1089C63.266 78.2026 62.9849 78.2963 62.7037 78.2963C62.9849 77.6402 63.1723 77.5465 63.3598 77.5465ZM98.2264 88.5126V85.5133H96.7268C95.9769 82.3266 93.0714 79.9834 89.6972 79.9834C86.323 79.9834 83.4174 82.3266 82.6676 85.5133H81.168V88.5126H79.0123V85.5133H76.5753C76.2942 82.4203 73.6698 79.9834 70.4831 79.9834C67.2963 79.9834 64.7657 82.4203 64.3908 85.5133H61.9539V88.5126H55.9553L56.049 93.6676H55.9553V108.008H58.7671V95.0735H61.9539V97.5105L61.2978 99.1038H61.9539V100.322H62.0476V108.102H64.8594V100.322H66.734V107.164H69.5458V100.322H71.4203V107.164H74.2322V100.322H76.2004V108.102H79.0123V99.1038H79.6684L79.0123 97.6042V95.1673H81.168V108.102H83.9798V100.322H85.9481V107.164H88.7599V100.322H90.6345V107.164H93.4463V100.322H95.4146V108.102H98.2264V95.0735H100.288V108.008H103.1V88.5126H98.2264ZM95.4146 88.4189V97.5105H84.0735V88.4189H95.4146ZM89.6972 82.889C91.5717 82.889 93.0714 84.0137 93.7275 85.6071H85.5732C86.323 84.0137 87.9164 82.889 89.6972 82.889ZM76.2004 88.4189V97.5105H64.7657V88.4189H76.2004ZM70.4831 82.889C72.0764 82.889 73.4823 84.1074 73.7635 85.6071H67.2963C67.5775 84.0137 68.8897 82.889 70.4831 82.889ZM58.8609 92.2617V91.3244H61.9539V92.2617H58.8609ZM79.0123 92.2617V91.3244H81.168V92.2617H79.0123ZM98.2264 91.3244H100.288V92.2617H98.2264V91.3244ZM6.37347 81.1082C7.02956 81.1082 8.06056 81.0144 8.90411 80.4521C9.65393 79.9834 10.2163 79.2336 10.31 78.2963C11.341 79.1399 12.7469 79.7022 14.2466 79.7022C17.7145 79.7022 20.5263 76.8904 20.5263 73.4225C20.5263 69.9546 17.7145 67.1428 14.2466 67.1428C10.7787 67.1428 7.96684 69.9546 7.96684 73.4225C7.96684 73.8911 8.06056 74.3598 8.15429 74.8284C7.87311 74.8284 7.59193 74.7347 7.31074 74.7347C5.15501 74.7347 4.03028 76.9841 3.46792 78.1089C3.37419 78.2963 3.28046 78.3901 3.28046 78.5775L2.53064 79.796L3.7491 80.5458C4.40519 80.9207 5.43619 81.1082 6.37347 81.1082ZM33.7419 79.7022C37.2098 79.7022 40.0216 76.8904 40.0216 73.4225C40.0216 69.9546 37.2098 67.1428 33.7419 67.1428C30.274 67.1428 27.4621 69.9546 27.4621 73.4225C27.4621 76.8904 30.274 79.7022 33.7419 79.7022ZM33.7419 69.9546C35.6164 69.9546 37.2098 71.5479 37.2098 73.4225C37.2098 75.2971 35.6164 76.8904 33.7419 76.8904C31.8673 76.8904 30.274 75.2971 30.274 73.4225C30.274 71.5479 31.8673 69.9546 33.7419 69.9546ZM42.2711 85.5133H40.7715C40.0216 82.3266 37.1161 79.9834 33.7419 79.9834C30.3677 79.9834 27.4621 82.3266 26.7123 85.5133H25.2127V88.5126H23.057V85.5133H20.62C20.3389 82.4203 17.7145 79.9834 14.5278 79.9834C11.341 79.9834 8.81038 82.4203 8.43547 85.5133H5.99856V88.5126H0L0.0937275 93.6676H0V108.008H2.81182V95.0735H5.99856V97.5105L5.34247 99.1038H5.99856V100.322H6.09229V108.102H8.90411V100.322H10.7787V107.164H13.5905V100.322H15.465V107.164H18.2769V100.322H20.2451V108.102H23.057V99.1038H23.713L23.057 97.6042V95.1673H25.2127V108.102H28.0245V100.322H29.9928V107.164H32.8046V100.322H34.6792V107.164H37.491V100.322H39.4593V108.102H42.2711V95.0735H44.3331V108.008H47.1449V88.5126H42.2711V85.5133ZM39.4593 88.4189V97.5105H28.1182V88.4189H39.4593ZM33.7419 82.889C35.6164 82.889 37.1161 84.0137 37.7722 85.6071H29.6179C30.3677 84.0137 31.9611 82.889 33.7419 82.889ZM20.2451 88.4189V97.5105H8.81038V88.4189H20.2451ZM14.5278 82.889C16.1211 82.889 17.527 84.1074 17.8082 85.6071H11.341C11.6222 84.0137 12.9344 82.889 14.5278 82.889ZM2.90555 92.2617V91.3244H5.99856V92.2617H2.90555ZM23.057 92.2617V91.3244H25.2127V92.2617H23.057ZM44.3331 91.3244V92.2617H42.2711V91.3244H44.3331Z" fill="#393939"/>
</g>
<defs>
<clipPath id="clip0_612_1057">
<rect width="130" height="120" fill="white"/>
</clipPath>
</defs>
</svg>
