<svg width="78" height="78" viewBox="0 0 78 78" fill="none" xmlns="http://www.w3.org/2000/svg">
<g id="Frame" clip-path="url(#clip0_576_7758)">
<path id="Vector" d="M33.3261 0C31.1261 0.102094 29.1261 1.22513 27.9261 3.26702L27.5261 3.98168C26.9261 5.00262 25.8261 5.61518 24.7261 5.61518H23.9261C20.4261 5.71728 17.6261 8.57592 17.5261 12.1492V12.966C17.5261 14.1911 16.9261 15.212 15.9261 15.8246L15.1261 16.3351C12.1261 18.1728 11.1261 22.1544 12.8261 25.3194L13.2261 26.034C13.8261 27.055 13.8261 28.2801 13.2261 29.301L12.8261 30.0157C11.1261 33.1806 12.2261 37.1623 15.1261 39L15.8261 39.4084C16.8261 40.0209 17.4261 41.144 17.4261 42.267V43.0838C17.5261 45.9424 19.3261 48.3927 21.9261 49.3115L13.6261 67.5864C13.5261 67.7906 13.4261 68.0969 13.5261 68.4031C13.5261 68.7094 13.6261 68.9136 13.7261 69.2199C13.9261 69.4241 14.0261 69.6283 14.3261 69.7304C14.5261 69.8325 14.8261 69.9345 15.1261 69.9345H25.5261L31.4261 77.4895C31.5261 77.5916 31.6261 77.6937 31.7261 77.7958C31.8261 77.8979 31.9261 77.8979 32.1261 78C32.2261 78.1021 32.4261 78.1021 32.5261 78.1021C32.6261 78.1021 32.8261 78.1021 32.9261 78.1021C33.0261 78.1021 33.2261 78 33.3261 78C33.4261 77.8979 33.5261 77.8979 33.7261 77.7958C33.8261 77.6937 33.9261 77.5916 34.0261 77.4895C34.1261 77.3874 34.2261 77.2853 34.2261 77.1832L39.2261 65.6466L44.2261 77.1832C44.3261 77.2853 44.3261 77.3874 44.4261 77.4895C44.5261 77.5916 44.6261 77.6937 44.7261 77.7958C44.8261 77.8979 44.9261 77.8979 45.1261 78C45.2261 78.1021 45.4261 78.1021 45.5261 78.1021C45.6261 78.1021 45.8261 78.1021 45.9261 78.1021C46.0261 78.1021 46.2261 78 46.3261 78C46.4261 77.8979 46.5261 77.8979 46.7261 77.7958C46.8261 77.6937 46.9261 77.5916 47.0261 77.4895L52.9261 69.9345H62.9261C63.2261 69.9345 63.4261 69.8325 63.7261 69.7304C63.9261 69.6283 64.1261 69.4241 64.3261 69.2199C64.4261 69.0157 64.5261 68.7094 64.5261 68.4031C64.5261 68.0969 64.5261 67.8927 64.4261 67.5864L56.1261 49.3115C58.6261 48.3927 60.5261 46.0445 60.5261 43.1859V42.3691C60.5261 41.144 61.1261 40.123 62.1261 39.5105L62.8261 39.1021C65.8261 37.2644 66.8261 33.2827 65.1261 30.1178L64.7261 29.4031C64.1261 28.3822 64.1261 27.1571 64.7261 26.1361L65.1261 25.4215C66.8261 22.2565 65.7261 18.377 62.8261 16.4372L62.1261 16.0288C61.1261 15.4162 60.5261 14.2932 60.5261 13.1702V12.3534C60.4261 8.7801 57.6261 5.92147 54.1261 5.81937H53.3261C52.1261 5.81937 51.1261 5.20681 50.5261 4.18586L50.1261 3.4712C48.3261 0.408377 44.4261 -0.612565 41.3261 1.12304L40.6261 1.53141C39.6261 2.14398 38.4261 2.14398 37.4261 1.53141L36.7261 1.12304C35.9261 0.71466 35.1261 0.408377 34.3261 0.306283C33.9261 0 33.6261 0 33.3261 0ZM33.2261 3.26702C33.8261 3.26702 34.5261 3.36911 35.1261 3.67539L35.8261 4.08377C37.8261 5.20681 40.2261 5.20681 42.1261 4.08377L42.8261 3.67539C44.4261 2.75654 46.4261 3.26702 47.3261 4.90052L47.7261 5.61518C48.9261 7.55497 50.9261 8.7801 53.2261 8.8822H54.0261C55.8261 8.8822 57.3261 10.4136 57.3261 12.2513V13.0681C57.3261 15.3141 58.5261 17.4581 60.5261 18.6832L61.2261 19.0916C62.8261 20.0105 63.3261 22.0524 62.4261 23.6859L62.0261 24.4005C60.9261 26.4424 60.9261 28.8927 62.0261 30.8325L62.4261 31.5471C63.3261 33.1806 62.7261 35.2225 61.2261 36.1414L60.5261 36.5497C58.6261 37.7749 57.4261 39.8167 57.3261 42.1649V42.9817C57.3261 44.8194 55.8261 46.3508 54.0261 46.3508H53.2261C51.0261 46.3508 48.9261 47.5759 47.7261 49.6178L47.3261 50.3325C46.4261 51.966 44.4261 52.4764 42.8261 51.5576L42.1261 51.1492C40.1261 50.0262 37.7261 50.0262 35.8261 51.1492L35.1261 51.5576C33.5261 52.4764 31.5261 51.8639 30.6261 50.3325L30.2261 49.6178C29.0261 47.678 27.0261 46.4529 24.7261 46.3508H23.9261C22.1261 46.3508 20.6261 44.8194 20.6261 42.9817V42.1649C20.6261 39.9188 19.4261 37.7749 17.4261 36.5497L16.7261 36.1414C15.1261 35.2225 14.6261 33.1806 15.5261 31.5471L15.9261 30.8325C17.0261 28.7906 17.0261 26.3403 15.9261 24.4005L15.5261 23.6859C14.6261 22.0524 15.1261 20.0105 16.7261 19.0916L17.4261 18.6832C19.3261 17.4581 20.5261 15.4162 20.6261 13.0681V12.2513C20.6261 10.4136 22.1261 8.8822 23.9261 8.8822H24.7261C26.9261 8.8822 29.0261 7.65707 30.2261 5.61518L30.6261 4.90052C31.1261 4.08377 31.8261 3.5733 32.6261 3.36911C32.8261 3.26702 33.0261 3.26702 33.2261 3.26702ZM50.5261 16.3351L37.4261 37.2644L26.9261 27.6675L24.8261 30.1178L38.1261 42.3691L53.2261 18.1728L50.5261 16.3351ZM52.8261 49.7199L60.4261 66.5654H51.7261C51.2261 66.5654 50.8261 66.7696 50.5261 67.178L45.8261 73.2016L40.7261 61.3586L43.4261 55.1309C46.0261 55.5393 48.6261 54.4162 50.0261 51.966L50.4261 51.2513C51.0261 50.4346 51.8261 49.9241 52.8261 49.7199ZM25.2261 49.7199C26.1261 49.9241 26.9261 50.4346 27.4261 51.2513L27.8261 51.966C29.6261 55.0288 33.5261 56.0497 36.6261 54.4162L37.3261 54.0079C38.3261 53.4974 39.4261 53.4974 40.4261 53.9058L32.1261 73.2016L27.4261 67.178C27.1261 66.7696 26.7261 66.5654 26.2261 66.5654H17.6261L25.2261 49.7199Z" fill="#393939"/>
</g>
<defs>
<clipPath id="clip0_576_7758">
<rect width="78" height="78" fill="white"/>
</clipPath>
</defs>
</svg>
