<svg width="130" height="120" viewBox="0 0 130 120" fill="none" xmlns="http://www.w3.org/2000/svg">
<path d="M84.3999 113.2H59.2999C58.8999 113.2 58.4999 113.2 57.9999 113.1C57.5999 113 57.1999 112.9 56.7999 112.7C56.3999 112.5 55.9999 112.3 55.6999 112.1C55.3999 111.9 54.9999 111.6 54.6999 111.3C54.3999 111 54.0999 110.7 53.8999 110.3C53.6999 109.9 53.4999 109.6 53.2999 109.2C53.0999 108.8 52.9999 108.4 52.8999 108C52.7999 107.6 52.7999 107.2 52.7999 106.7V98.4999C52.7999 98.0999 52.6999 97.7999 52.5999 97.3999C52.4999 97.0999 52.2999 96.6999 51.9999 96.4999C51.6999 96.2999 51.3999 95.9999 51.0999 95.8999C50.7999 95.7999 50.3999 95.6999 49.9999 95.6999H37.6999C37.2999 95.6999 36.8999 95.6999 36.3999 95.5999C35.9999 95.4999 35.5999 95.3999 35.1999 95.1999C34.7999 94.9999 34.3999 94.7999 34.0999 94.5999C33.6999 94.3999 33.3999 94.0999 33.0999 93.7999C32.7999 93.4999 32.4999 93.1999 32.2999 92.7999C32.0999 92.3999 31.8999 92.0999 31.6999 91.6999C31.4999 91.2999 31.3999 90.8999 31.2999 90.4999C31.1999 90.0999 31.1999 89.6999 31.1999 89.1999V75.2999C31.1999 74.8999 31.0999 74.5999 30.9999 74.1999C30.8999 73.8999 30.6999 73.4999 30.3999 73.2999C30.0999 73.0999 29.7999 72.7999 29.4999 72.6999C29.1999 72.5999 28.7999 72.4999 28.3999 72.4999H25.7999C25.2999 72.4999 24.6999 72.3999 24.1999 72.2999C23.6999 72.1999 23.1999 71.9999 22.6999 71.6999C22.1999 71.3999 21.7999 71.0999 21.3999 70.7999C20.9999 70.3999 20.6999 69.9999 20.3999 69.5999C20.0999 69.0999 19.8999 68.6999 19.6999 68.0999C19.4999 67.4999 19.3999 67.0999 19.3999 66.4999C19.3999 65.9999 19.3999 65.3999 19.4999 64.8999C19.5999 64.3999 19.7999 63.8999 19.9999 63.3999C23.4999 55.5999 26.1999 49.3999 28.7999 40.2999C31.5999 30.2999 36.4999 22.2999 43.2999 16.5999C49.3999 11.5999 56.8999 8.4999 65.0999 7.7999C73.5999 6.9999 82.4999 8.8999 90.1999 12.8999C98.0999 17.0999 104.4 23.3999 107.9 30.7999C111.5 38.2999 112.2 46.8999 110 55.5999C107.5 65.3999 101.4 75.3999 91.8999 85.1999C91.7999 85.2999 91.5999 85.4999 91.4999 85.6999C87.0999 92.7999 88.3999 99.6999 90.1999 104.2C90.3999 104.7 90.4999 105.2 90.5999 105.7C90.6999 106.2 90.6999 106.7 90.5999 107.3C90.4999 107.8 90.3999 108.3 90.2999 108.8C90.0999 109.3 89.8999 109.8 89.5999 110.2C89.2999 110.6 88.9999 111 88.5999 111.4C88.1999 111.8 87.7999 112.1 87.2999 112.3C86.7999 112.5 86.2999 112.7 85.7999 112.9C85.4999 113.1 84.8999 113.2 84.3999 113.2ZM68.7999 11.1999C67.6999 11.1999 66.4999 11.2999 65.3999 11.3999C49.0999 12.7999 36.9999 23.6999 32.1999 41.1999C29.5999 50.5999 26.6999 57.1999 23.1999 64.7999C23.0999 65.0999 22.9999 65.2999 22.9999 65.4999C22.9999 65.6999 22.8999 65.9999 22.9999 66.1999C22.9999 66.3999 23.0999 66.6999 23.0999 66.8999C23.1999 67.0999 23.2999 67.2999 23.3999 67.4999C23.4999 67.6999 23.6999 67.8999 23.8999 67.9999C24.0999 68.1999 24.2999 68.2999 24.4999 68.3999C24.6999 68.4999 24.8999 68.5999 25.1999 68.6999C25.4999 68.7999 25.6999 68.7999 25.8999 68.7999H28.4999C28.8999 68.7999 29.2999 68.7999 29.7999 68.8999C30.1999 68.9999 30.5999 69.0999 30.9999 69.2999C31.3999 69.4999 31.7999 69.6999 32.0999 69.8999C32.4999 70.0999 32.7999 70.3999 33.0999 70.6999C33.3999 70.9999 33.6999 71.2999 33.8999 71.6999C34.0999 72.0999 34.2999 72.3999 34.4999 72.7999C34.6999 73.1999 34.7999 73.5999 34.8999 73.9999C34.9999 74.3999 34.9999 74.7999 34.9999 75.2999V89.1999C34.9999 89.5999 35.0999 89.8999 35.1999 90.2999C35.2999 90.5999 35.4999 90.9999 35.7999 91.1999C36.0999 91.3999 36.3999 91.6999 36.6999 91.7999C36.9999 91.8999 37.3999 91.9999 37.7999 91.9999H49.9999C50.3999 91.9999 50.7999 91.9999 51.2999 92.0999C51.6999 92.1999 52.0999 92.2999 52.4999 92.4999C52.8999 92.6999 53.2999 92.8999 53.5999 93.0999C53.9999 93.2999 54.2999 93.5999 54.5999 93.8999C54.8999 94.1999 55.1999 94.4999 55.3999 94.8999C55.5999 95.1999 55.7999 95.5999 55.9999 95.9999C56.1999 96.3999 56.2999 96.7999 56.3999 97.1999C56.4999 97.5999 56.4999 97.9999 56.4999 98.4999V106.7C56.4999 107.1 56.5999 107.4 56.6999 107.8C56.7999 108.1 56.9999 108.5 57.2999 108.7C57.5999 108.9 57.8999 109.2 58.1999 109.3C58.4999 109.4 58.8999 109.5 59.2999 109.5H84.3999C84.5999 109.5 84.8999 109.5 85.0999 109.4C85.2999 109.3 85.4999 109.3 85.6999 109.1C85.8999 109 86.0999 108.9 86.2999 108.7C86.4999 108.5 86.5999 108.4 86.7999 108.2C86.8999 108 86.9999 107.8 87.0999 107.6C87.1999 107.4 87.1999 107.2 87.2999 106.9C87.2999 106.7 87.2999 106.4 87.2999 106.2C87.2999 106 87.1999 105.8 87.0999 105.5C84.8999 100.2 83.4999 92.0999 88.5999 83.6999C88.7999 83.2999 89.0999 82.8999 89.4999 82.5999C106.5 65.0999 111.9 47.1999 104.8 32.2999C98.6999 19.7999 83.9999 11.1999 68.7999 11.1999Z" fill="#393939"/>
<path d="M70.2999 73.3999C69.7999 73.3999 69.2999 73.1999 68.8999 72.7999L48.5999 49.6999C43.5999 44.0999 43.5999 34.8999 48.5999 29.1999C51.0999 26.3999 54.3999 24.7999 57.8999 24.7999C61.3999 24.7999 64.6999 26.2999 67.1999 29.1999L67.7999 29.8999C67.9999 30.0999 68.0999 30.2999 68.2999 30.3999C68.4999 30.5999 68.6999 30.6999 68.8999 30.7999C69.0999 30.8999 69.2999 30.9999 69.5999 30.9999C69.7999 31.0999 70.0999 31.0999 70.2999 31.0999C70.4999 31.0999 70.7999 31.0999 70.9999 30.9999C71.1999 30.8999 71.4999 30.8999 71.6999 30.7999C71.8999 30.6999 72.0999 30.5999 72.2999 30.3999C72.4999 30.1999 72.6999 30.0999 72.7999 29.8999L73.3999 29.1999C75.8999 26.3999 79.1999 24.7999 82.6999 24.7999C86.1999 24.7999 89.4999 26.2999 91.9999 29.1999C96.9999 34.7999 96.9999 43.9999 91.9999 49.6999L71.6999 72.7999C71.2999 73.1999 70.8999 73.3999 70.2999 73.3999ZM57.8999 28.4999C55.3999 28.4999 53.0999 29.5999 51.2999 31.5999C47.4999 35.8999 47.4999 42.8999 51.2999 47.2999L70.2999 68.8999L89.2999 47.2999C93.0999 42.9999 93.0999 35.9999 89.2999 31.5999C87.4999 29.5999 85.1999 28.4999 82.6999 28.4999C80.1999 28.4999 77.8999 29.5999 76.0999 31.5999L75.4999 32.2999C75.1999 32.6999 74.7999 32.9999 74.3999 33.2999C73.9999 33.5999 73.5999 33.8999 73.0999 34.0999C72.5999 34.2999 72.1999 34.4999 71.6999 34.5999C71.1999 34.6999 70.6999 34.7999 70.1999 34.7999C69.6999 34.7999 69.1999 34.6999 68.6999 34.5999C68.1999 34.4999 67.6999 34.2999 67.2999 34.0999C66.7999 33.8999 66.3999 33.5999 65.9999 33.2999C65.5999 32.9999 65.1999 32.5999 64.8999 32.2999L64.2999 31.5999C62.6999 29.5999 60.3999 28.4999 57.8999 28.4999Z" fill="#393939"/>
</svg>
