<svg width="167" height="183" viewBox="0 0 167 183" fill="none" xmlns="http://www.w3.org/2000/svg">
<g id="Frame" clip-path="url(#clip0_1275_9777)">
<path id="Vector" d="M78.7 86.4C77.9 86.4 77.1 86.1 76.4 85.5L65.4 75.7C64.5 74.9 63.2 74.7 62.1 75.2C61 75.7 60.3 76.8 60.3 78L60.8 101.6C60.8 103.2 62.2 104.6 63.8 104.6H75.4C77.1 104.6 78.6 105.9 78.8 107.6L82.6 144C82.7 144.9 82.4 145.8 81.9 146.5C81.3 147.2 80.5 147.6 79.3 147.8C77.6 147.8 76.1 146.5 75.9 144.8L72.7 114.2C72.5 112.7 71.2 111.5 69.7 111.5H45C43.3 111.5 42 112.9 42 114.5V163.5C42 165.4 40.5 166.9 38.6 166.9C36.7 166.9 35.2 165.4 35.2 163.5L35.1 104.3C35.2 104.1 35.3 103.6 35.3 103.4C35.3 103.3 35.3 102.8 35.3 102.8L34.9 81.9C34.9 80.6 34 79.5 32.8 79.1C32.5 79 32.2 78.9 31.8 78.9C30.9 78.9 30 79.3 29.4 80.1L23.2 88C23 88.3 22.8 88.5 22.7 88.8L13.6 113.6C13 115.3 10.9 116.2 9.19998 115.6C7.39998 114.9 6.49998 113 7.19998 111.2L16.7 85.5C16.8 85.1 17 84.8 17.2 84.6L32 65.9C32.7 65.1 33.6 64.6 34.7 64.6H61.7C62.5 64.6 63.3 64.9 64 65.5L79.1 79.1C79.7 79.6 80.4 79.9 81.1 79.9H99.2C101.1 79.9 102.6 81.4 102.6 83.3C102.6 85.2 101.1 86.7 99.2 86.7H78.7V86.4ZM91 138.6C90 138.6 89.1 138.6 88.1 138.7L84.9 107C84.4 102.2 80.4 98.5 75.5 98.5H66.9L66.6 84.8L72.4 90C74.1 91.6 76.4 92.4 78.7 92.4H91V138.6ZM48.1 150.3V117.4H67L69.5 141.6C61.7 143.6 54.5 146.6 48.1 150.3ZM35.8 44.2C35.7 41.2 36.8 38.3 38.9 36.1C41 33.9 43.8 32.6 46.8 32.6C46.9 32.6 47 32.6 47.1 32.6C53.2 32.6 58.2 37.4 58.4 43.6C58.5 46.6 57.4 49.5 55.3 51.7C53.2 53.9 50.4 55.2 47.4 55.3C44.3 55.4 41.5 54.3 39.3 52.2C37.2 50 35.9 47.2 35.8 44.2ZM97.1 13.4C108 18.6 116.8 14.5 124.6 10.9C132.8 7.10003 140 3.80004 149.6 9.80004V51.5C138.7 46.3 129.9 50.4 122.1 54C113.9 57.8 106.8 61.1 97.1 55.1V13.4ZM166 178.4C157 155.6 128.9 139.5 97.1 138.6V92.4H99.2C104.4 92.4 108.6 88.2 108.6 83C108.6 77.8 104.4 73.6 99.2 73.6H97.1V62C100.8 63.8 104.3 64.5 107.5 64.5C113.8 64.5 119.4 61.9 124.6 59.5C133.2 55.5 140.6 52.1 150.9 59.2C151.8 59.8 153 59.9 154 59.4C155 58.9 155.6 57.8 155.6 56.7V8.10004C155.6 7.10004 155.1 6.20004 154.3 5.60004C141.1 -3.59996 131 1.20004 122 5.30004C113.4 9.30004 106 12.7 95.7 5.60004C94.8 5.00004 93.6 4.90004 92.6 5.40004C91.7 6.00004 91 7.00004 91 8.10004V73.5H82.2L68 60.7C66.3 59.1 64 58.3 61.7 58.3H56.6C57.8 57.5 58.8 56.7 59.8 55.7C63 52.3 64.6 47.9 64.5 43.3C64.2 33.7 56.4 26.3 46.6 26.5C42 26.6 37.7 28.6 34.5 32C31.3 35.4 29.7 39.8 29.8 44.4C29.9 49 31.9 53.3 35.3 56.5C36.1 57.2 36.9 57.8 37.7 58.4H34.8C31.9 58.4 29.2 59.7 27.4 62L12.6 80.7C12 81.5 11.5 82.3 11.2 83.3L1.59998 109C-0.200015 113.9 2.29998 119.3 7.19998 121.1C11.9 122.8 17.6 120.3 19.3 115.5L28.3 91.2L29 90.3L29.3 102.7C29.3 102.7 29.3 102.8 29.3 102.9C29.2 103.2 29.2 103.5 29.2 103.7V163.4C29.2 164.2 29.3 165 29.6 165.8C26.5 169.7 24 173.9 22.2 178.4C21.6 180 22.4 181.7 23.9 182.3C25.5 182.9 27.2 182.2 27.8 180.6C29.1 177.2 31 174 33.2 171C34.7 172.1 36.6 172.8 38.7 172.8C43.9 172.8 48.1 168.6 48.1 163.4V157.3C54.6 153.1 62.2 149.8 70.4 147.6C71.9 151.5 75.8 154.2 80.2 153.7C82.7 153.4 85 152.2 86.6 150.3C87.9 148.7 88.6 146.7 88.7 144.7C90.5 144.6 92.3 144.5 94.1 144.5C124.8 144.5 152 159.3 160.4 180.6C160.9 181.8 162 182.5 163.2 182.5C163.6 182.5 163.9 182.4 164.3 182.3C165.9 181.7 166.6 179.9 166 178.4Z" fill="#393939"/>
</g>
<defs>
<clipPath id="clip0_1275_9777">
<rect width="166.4" height="182.7" fill="white"/>
</clipPath>
</defs>
</svg>
