<svg width="130" height="120" viewBox="0 0 130 120" fill="none" xmlns="http://www.w3.org/2000/svg">
<path d="M65 72.5999H44.2C44 72.5999 43.8 72.5999 43.7 72.4999C43.6 72.3999 43.4 72.2999 43.2 72.1999C43.1 72.0999 43 71.8999 42.9 71.6999C42.8 71.4999 42.8 71.2999 42.8 71.1999V37.1999C42.8 36.9999 42.8 36.7999 42.9 36.6999C43 36.4999 43.1 36.3999 43.2 36.1999C43.3 36.0999 43.5 35.9999 43.7 35.8999C43.9 35.7999 44.1 35.7999 44.2 35.7999H55.9C56.6 35.7999 57.3 35.8999 57.9 35.9999C58.6 36.0999 59.2 36.2999 59.9 36.5999C60.5 36.8999 61.1 37.1999 61.7 37.5999C62.3 37.9999 62.8 38.3999 63.3 38.8999C63.8 39.3999 64.2 39.8999 64.6 40.4999C65 41.0999 65.3 41.6999 65.6 42.2999C65.9 42.8999 66.1 43.5999 66.2 44.2999C66.3 44.9999 66.4 45.5999 66.4 46.2999V71.1999C66.4 71.3999 66.4 71.5999 66.3 71.6999C66.2 71.7999 66.1 71.9999 66 72.1999C65.9 72.2999 65.7 72.3999 65.5 72.4999C65.3 72.5999 65.2 72.5999 65 72.5999ZM45.6 69.7999H63.5V46.2999C63.5 45.7999 63.4 45.2999 63.4 44.7999C63.3 44.2999 63.2 43.7999 63 43.3999C62.8 42.8999 62.6 42.4999 62.3 42.0999C62 41.6999 61.7 41.2999 61.4 40.8999C61 40.4999 60.7 40.1999 60.2 39.9999C59.8 39.6999 59.3 39.4999 58.9 39.2999C58.4 39.0999 58 38.9999 57.5 38.8999C57 38.7999 56.5 38.6999 56 38.6999H45.6V69.7999Z" fill="#393939"/>
<path d="M86.3 40.5999H85.8V43.3999H86.3C86.6 43.3999 86.9 43.4999 87.2 43.5999C87.5 43.6999 87.7 43.8999 87.9 44.0999C88.1 44.2999 88.3 44.5999 88.4 44.7999C88.5 45.0999 88.6 45.3999 88.6 45.6999V72.2999C88.6 72.5999 88.5 72.8999 88.4 73.1999C88.3 73.4999 88.1 73.6999 87.9 73.8999C87.7 74.0999 87.4 74.2999 87.2 74.3999C86.9 74.4999 86.6 74.5999 86.3 74.5999H43.7C43.4 74.5999 43.1 74.4999 42.8 74.3999C42.5 74.2999 42.3 74.0999 42.1 73.8999C41.9 73.6999 41.7 73.3999 41.6 73.1999C41.5 72.8999 41.4 72.5999 41.4 72.2999V45.6999C41.4 45.3999 41.5 45.0999 41.6 44.7999C41.7 44.4999 41.9 44.2999 42.1 44.0999C42.3 43.8999 42.6 43.6999 42.8 43.5999C43 43.4999 43.4 43.3999 43.7 43.3999H44.2V40.5999H43.7C43 40.5999 42.4 40.6999 41.7 40.9999C41 41.2999 40.5 41.5999 40 42.0999C39.5 42.5999 39.2 43.0999 38.9 43.7999C38.6 44.4999 38.5 45.0999 38.5 45.7999V72.3999C38.5 73.0999 38.6 73.6999 38.9 74.3999C39.2 74.9999 39.5 75.5999 40 76.0999C40.5 76.5999 41 76.8999 41.7 77.1999C42.3 77.4999 43 77.5999 43.7 77.5999H86.3C87 77.5999 87.6 77.4999 88.3 77.1999C88.9 76.8999 89.5 76.5999 90 76.0999C90.5 75.5999 90.8 75.0999 91.1 74.3999C91.4 73.7999 91.5 73.0999 91.5 72.3999V45.6999C91.5 44.9999 91.4 44.3999 91.1 43.6999C90.8 43.0999 90.5 42.4999 90 41.9999C89.5 41.4999 89 41.1999 88.3 40.8999C87.6 40.6999 87 40.5999 86.3 40.5999Z" fill="#393939"/>
<path d="M85.8 72.5999H65C64.8 72.5999 64.6 72.5999 64.5 72.4999C64.4 72.3999 64.2 72.2999 64 72.1999C63.9 72.0999 63.8 71.8999 63.7 71.6999C63.6 71.4999 63.6 71.2999 63.6 71.1999V46.2999C63.6 45.5999 63.7 44.8999 63.8 44.2999C63.9 43.5999 64.1 42.9999 64.4 42.2999C64.7 41.6999 65 41.0999 65.4 40.4999C65.8 39.8999 66.2 39.3999 66.7 38.8999C67.2 38.3999 67.7 37.9999 68.3 37.5999C68.9 37.1999 69.5 36.8999 70.1 36.5999C70.7 36.2999 71.4 36.0999 72.1 35.9999C72.8 35.8999 73.5 35.7999 74.1 35.7999H85.8C86 35.7999 86.2 35.7999 86.3 35.8999C86.5 35.9999 86.6 36.0999 86.8 36.1999C86.9 36.2999 87 36.4999 87.1 36.6999C87.2 36.8999 87.2 37.0999 87.2 37.1999V71.1999C87.2 71.3999 87.2 71.5999 87.1 71.6999C87 71.8999 86.9 71.9999 86.8 72.1999C86.7 72.2999 86.5 72.3999 86.3 72.4999C86.1 72.5999 85.9 72.5999 85.8 72.5999ZM66.4 69.7999H84.3V38.5999H74.1C73.6 38.5999 73.1 38.6999 72.6 38.7999C72.1 38.8999 71.6 38.9999 71.2 39.1999C70.7 39.3999 70.3 39.5999 69.9 39.8999C69.5 40.1999 69.1 40.4999 68.7 40.7999C68.3 41.1999 68 41.4999 67.7 41.9999C67.4 42.3999 67.2 42.8999 67 43.2999C66.8 43.6999 66.7 44.1999 66.6 44.6999C66.5 45.1999 66.5 45.6999 66.5 46.1999V69.7999H66.4Z" fill="#393939"/>
<path d="M59.5 51.0999H49.7C49.5 51.0999 49.3 51.0999 49.2 50.9999C49 50.8999 48.9 50.7999 48.7 50.6999C48.6 50.5999 48.5 50.3999 48.4 50.1999C48.3 49.9999 48.3 49.7999 48.3 49.6999C48.3 49.5999 48.3 49.2999 48.4 49.1999C48.5 48.9999 48.6 48.8999 48.7 48.6999C48.8 48.5999 49 48.4999 49.2 48.3999C49.4 48.2999 49.6 48.2999 49.7 48.2999H59.5C59.7 48.2999 59.9 48.2999 60 48.3999C60.2 48.4999 60.3 48.5999 60.5 48.6999C60.6 48.7999 60.7 48.9999 60.8 49.1999C60.9 49.3999 60.9 49.4999 60.9 49.6999C60.9 49.8999 60.9 50.0999 60.8 50.1999C60.7 50.3999 60.6 50.4999 60.5 50.6999C60.4 50.7999 60.2 50.8999 60 50.9999C59.9 51.0999 59.7 51.0999 59.5 51.0999Z" fill="#393939"/>
<path d="M59.5 56.0999H49.7C49.5 56.0999 49.3 56.0999 49.2 55.9999C49 55.8999 48.9 55.7999 48.7 55.6999C48.6 55.5999 48.5 55.3999 48.4 55.1999C48.3 54.9999 48.3 54.7999 48.3 54.6999C48.3 54.5999 48.3 54.2999 48.4 54.1999C48.5 53.9999 48.6 53.8999 48.7 53.6999C48.8 53.5999 49 53.4999 49.2 53.3999C49.4 53.2999 49.6 53.2999 49.7 53.2999H59.5C59.7 53.2999 59.9 53.2999 60 53.3999C60.2 53.4999 60.3 53.5999 60.5 53.6999C60.6 53.7999 60.7 53.9999 60.8 54.1999C60.9 54.3999 60.9 54.4999 60.9 54.6999C60.9 54.8999 60.9 55.0999 60.8 55.1999C60.7 55.3999 60.6 55.4999 60.5 55.6999C60.4 55.8999 60.2 55.9999 60 55.9999C59.9 56.0999 59.7 56.0999 59.5 56.0999Z" fill="#393939"/>
<path d="M59.5 61.1999H49.7C49.5 61.1999 49.3 61.1999 49.2 61.0999C49 60.9999 48.9 60.8999 48.7 60.7999C48.6 60.6999 48.5 60.4999 48.4 60.2999C48.3 60.0999 48.3 59.8999 48.3 59.7999C48.3 59.6999 48.3 59.3999 48.4 59.2999C48.5 59.0999 48.6 58.9999 48.7 58.7999C48.8 58.6999 49 58.5999 49.2 58.4999C49.4 58.3999 49.6 58.3999 49.7 58.3999H59.5C59.7 58.3999 59.9 58.3999 60 58.4999C60.2 58.5999 60.3 58.6999 60.5 58.7999C60.6 58.8999 60.7 59.0999 60.8 59.2999C60.9 59.4999 60.9 59.5999 60.9 59.7999C60.9 59.9999 60.9 60.1999 60.8 60.2999C60.7 60.4999 60.6 60.5999 60.5 60.7999C60.4 60.8999 60.2 60.9999 60 61.0999C59.9 61.0999 59.7 61.1999 59.5 61.1999Z" fill="#393939"/>
<path d="M59.5 66.1999H49.7C49.5 66.1999 49.3 66.1999 49.2 66.0999C49 65.9999 48.9 65.8999 48.7 65.7999C48.6 65.6999 48.5 65.4999 48.4 65.2999C48.3 65.0999 48.3 64.9999 48.3 64.7999C48.3 64.5999 48.3 64.3999 48.4 64.2999C48.5 64.0999 48.6 63.9999 48.7 63.7999C48.8 63.6999 49 63.5999 49.2 63.4999C49.4 63.3999 49.6 63.3999 49.7 63.3999H59.5C59.7 63.3999 59.9 63.3999 60 63.4999C60.2 63.5999 60.3 63.6999 60.5 63.7999C60.6 63.8999 60.7 64.0999 60.8 64.2999C60.9 64.4999 60.9 64.6999 60.9 64.7999C60.9 64.8999 60.9 65.1999 60.8 65.2999C60.7 65.4999 60.6 65.5999 60.5 65.7999C60.4 65.8999 60.2 65.9999 60 66.0999C59.9 66.1999 59.7 66.1999 59.5 66.1999Z" fill="#393939"/>
<path d="M80.3 51.0999H70.5C70.3 51.0999 70.1 51.0999 70 50.9999C69.8 50.8999 69.7 50.7999 69.5 50.6999C69.4 50.5999 69.3 50.3999 69.2 50.1999C69.1 49.9999 69.1 49.7999 69.1 49.6999C69.1 49.5999 69.1 49.2999 69.2 49.1999C69.3 48.9999 69.4 48.8999 69.5 48.6999C69.6 48.5999 69.8 48.4999 70 48.3999C70.2 48.2999 70.3 48.2999 70.5 48.2999H80.3C80.5 48.2999 80.7 48.2999 80.8 48.3999C81 48.4999 81.1 48.5999 81.3 48.6999C81.4 48.7999 81.5 48.9999 81.6 49.1999C81.7 49.3999 81.7 49.4999 81.7 49.6999C81.7 49.8999 81.7 50.0999 81.6 50.1999C81.5 50.3999 81.4 50.4999 81.3 50.6999C81.2 50.7999 81 50.8999 80.8 50.9999C80.7 51.0999 80.5 51.0999 80.3 51.0999Z" fill="#393939"/>
<path d="M80.3 56.0999H70.5C70.3 56.0999 70.1 56.0999 70 55.9999C69.8 55.8999 69.7 55.7999 69.5 55.6999C69.4 55.5999 69.3 55.3999 69.2 55.1999C69.1 54.9999 69.1 54.7999 69.1 54.6999C69.1 54.5999 69.1 54.2999 69.2 54.1999C69.3 53.9999 69.4 53.8999 69.5 53.6999C69.6 53.5999 69.8 53.4999 70 53.3999C70.2 53.2999 70.3 53.2999 70.5 53.2999H80.3C80.5 53.2999 80.7 53.2999 80.8 53.3999C81 53.4999 81.1 53.5999 81.3 53.6999C81.4 53.7999 81.5 53.9999 81.6 54.1999C81.7 54.3999 81.7 54.4999 81.7 54.6999C81.7 54.8999 81.7 55.0999 81.6 55.1999C81.5 55.3999 81.4 55.4999 81.3 55.6999C81.2 55.8999 81 55.9999 80.8 55.9999C80.7 56.0999 80.5 56.0999 80.3 56.0999Z" fill="#393939"/>
<path d="M80.3 61.1999H70.5C70.3 61.1999 70.1 61.1999 70 61.0999C69.8 60.9999 69.7 60.8999 69.5 60.7999C69.4 60.6999 69.3 60.4999 69.2 60.2999C69.1 60.0999 69.1 59.8999 69.1 59.7999C69.1 59.6999 69.1 59.3999 69.2 59.2999C69.3 59.0999 69.4 58.9999 69.5 58.7999C69.6 58.6999 69.8 58.5999 70 58.4999C70.2 58.3999 70.3 58.3999 70.5 58.3999H80.3C80.5 58.3999 80.7 58.3999 80.8 58.4999C81 58.5999 81.1 58.6999 81.3 58.7999C81.4 58.8999 81.5 59.0999 81.6 59.2999C81.7 59.4999 81.7 59.5999 81.7 59.7999C81.7 59.9999 81.7 60.1999 81.6 60.2999C81.5 60.4999 81.4 60.5999 81.3 60.7999C81.2 60.8999 81 60.9999 80.8 61.0999C80.7 61.0999 80.5 61.1999 80.3 61.1999Z" fill="#393939"/>
<path d="M80.3 66.1999H70.5C70.3 66.1999 70.1 66.1999 70 66.0999C69.8 65.9999 69.7 65.8999 69.5 65.7999C69.4 65.6999 69.3 65.4999 69.2 65.2999C69.1 65.0999 69.1 64.9999 69.1 64.7999C69.1 64.5999 69.1 64.3999 69.2 64.2999C69.3 64.0999 69.4 63.9999 69.5 63.7999C69.6 63.6999 69.8 63.5999 70 63.4999C70.2 63.3999 70.3 63.3999 70.5 63.3999H80.3C80.5 63.3999 80.7 63.3999 80.8 63.4999C81 63.5999 81.1 63.6999 81.3 63.7999C81.4 63.8999 81.5 64.0999 81.6 64.2999C81.7 64.4999 81.7 64.6999 81.7 64.7999C81.7 64.8999 81.7 65.1999 81.6 65.2999C81.5 65.4999 81.4 65.5999 81.3 65.7999C81.2 65.8999 81 65.9999 80.8 66.0999C80.7 66.1999 80.5 66.1999 80.3 66.1999Z" fill="#393939"/>
<path d="M26.2 71.5999H20.9C20.4 71.5999 19.9 71.5999 19.4 71.3999C18.9 71.2999 18.4 71.0999 17.9 70.9999C17.4 70.7999 17 70.5999 16.5 70.2999C16.1 69.9999 15.7 69.6999 15.3 69.2999C14.9 68.8999 14.6 68.4999 14.3 68.0999C14 67.6999 13.8 67.1999 13.6 66.6999C13.4 66.1999 13.3 65.6999 13.2 65.1999C13.1 64.6999 13 64.1999 13 63.6999V49.1999C13 48.6999 13 48.1999 13.2 47.6999C13.3 47.1999 13.5 46.6999 13.6 46.1999C13.8 45.6999 14 45.2999 14.3 44.7999C14.6 44.3999 14.9 43.9999 15.3 43.5999C15.7 43.1999 16.1 42.8999 16.5 42.5999C16.9 42.2999 17.4 42.0999 17.9 41.8999C18.4 41.6999 18.9 41.5999 19.4 41.4999C19.9 41.3999 20.4 41.2999 20.9 41.2999H27.4C27.6 41.2999 27.9 41.3999 28.1 41.4999C28.3 41.5999 28.5 41.7999 28.6 41.9999C28.7 42.1999 28.8 42.3999 28.8 42.5999C28.8 42.7999 28.8 43.0999 28.7 43.2999C27 47.4999 26 51.8999 25.8 56.4999C25.6 61.0999 26.2 65.4999 27.5 69.8999C27.6 70.0999 27.6 70.2999 27.5 70.5999C27.5 70.7999 27.4 70.9999 27.2 71.1999C27.1 71.3999 26.9 71.4999 26.7 71.5999C26.6 71.5999 26.4 71.5999 26.2 71.5999ZM20.9 44.0999C20.2 44.0999 19.6 44.1999 19 44.4999C18.4 44.7999 17.8 45.0999 17.4 45.5999C16.9 46.0999 16.6 46.5999 16.3 47.1999C16 47.7999 15.9 48.4999 15.9 49.0999V63.6999C15.9 64.3999 16 64.9999 16.3 65.5999C16.6 66.1999 16.9 66.7999 17.4 67.1999C17.9 67.6999 18.4 67.9999 19 68.2999C19.6 68.5999 20.3 68.6999 20.9 68.6999H24.3C23.2 64.5999 22.8 60.4999 23 56.2999C23.2 52.0999 24 47.9999 25.3 43.9999H20.9V44.0999Z" fill="#393939"/>
<path d="M109.1 71.5999H103.8C103.6 71.5999 103.4 71.5999 103.2 71.3999C103 71.2999 102.8 71.1999 102.7 70.9999C102.6 70.7999 102.5 70.5999 102.4 70.3999C102.4 70.1999 102.4 69.9999 102.4 69.6999C103.8 65.2999 104.3 60.8999 104.1 56.2999C103.9 51.6999 102.9 47.3999 101.2 43.0999C101.1 42.8999 101.1 42.6999 101.1 42.3999C101.1 42.1999 101.2 41.9999 101.3 41.7999C101.4 41.5999 101.6 41.4999 101.8 41.2999C102 41.1999 102.2 41.0999 102.5 41.0999H109C109.5 41.0999 110 41.1999 110.5 41.2999C111 41.3999 111.5 41.5999 112 41.6999C112.5 41.8999 112.9 42.0999 113.4 42.3999C113.8 42.6999 114.2 42.9999 114.6 43.3999C115 43.7999 115.3 44.1999 115.6 44.5999C115.9 44.9999 116.1 45.4999 116.3 45.9999C116.5 46.4999 116.6 46.9999 116.8 47.4999C116.9 47.9999 117 48.4999 117 48.9999V63.5999C117 64.0999 116.9 64.5999 116.8 65.0999C116.7 65.5999 116.5 66.0999 116.3 66.5999C116.1 67.0999 115.9 67.4999 115.6 67.9999C115.3 68.3999 115 68.7999 114.6 69.1999C114.2 69.5999 113.8 69.8999 113.4 70.1999C113 70.4999 112.5 70.6999 112 70.8999C111.5 71.0999 111 71.1999 110.5 71.2999C110.1 71.5999 109.6 71.5999 109.1 71.5999ZM105.7 68.7999H109.1C109.8 68.7999 110.4 68.6999 111 68.3999C111.6 68.0999 112.2 67.7999 112.6 67.2999C113.1 66.7999 113.4 66.2999 113.7 65.6999C114 65.0999 114.1 64.3999 114.1 63.7999V49.1999C114.1 48.4999 114 47.8999 113.7 47.2999C113.4 46.6999 113.1 46.0999 112.6 45.6999C112.1 45.1999 111.6 44.8999 111 44.5999C110.4 44.2999 109.7 44.1999 109.1 44.1999H104.7C106.1 48.1999 106.9 52.2999 107 56.4999C107.2 60.5999 106.8 64.6999 105.7 68.7999Z" fill="#393939"/>
<path d="M103.8 41.6999C103.3 40.5999 102.8 39.4999 102.3 38.3999C101.7 37.2999 101.1 36.2999 100.5 35.2999C99.8 34.2999 99.2 33.2999 98.4 32.3999C97.7 31.3999 96.9 30.4999 96.1 29.5999C95.3 28.6999 94.4 27.8999 93.6 26.9999C92.7 26.1999 91.8 25.3999 90.8 24.6999C89.8 23.9999 88.9 23.2999 87.9 22.5999C86.9 21.8999 85.9 21.2999 84.8 20.7999C83.7 20.2999 82.6 19.6999 81.5 19.2999C80.4 18.7999 79.3 18.3999 78.1 17.9999C77 17.5999 75.8 17.2999 74.6 16.9999C73.4 16.6999 72.2 16.4999 71.1 16.2999C69.9 16.0999 68.7 15.9999 67.5 15.8999C66.2 15.9999 65 15.9999 63.8 15.9999C62.6 15.9999 61.4 16.0999 60.2 16.2999C59 16.3999 57.8 16.5999 56.6 16.8999C55.4 17.0999 54.3 17.3999 53.1 17.7999C52 17.9999 50.9 18.3999 49.8 18.8999C48.7 19.2999 47.6 19.7999 46.5 20.2999C45.4 20.7999 44.3 21.3999 43.3 21.9999C42.3 22.5999 41.3 23.2999 40.3 23.9999C39.3 24.6999 38.4 25.4999 37.5 26.1999C36.6 26.9999 35.7 27.7999 34.9 28.6999C34.1 29.5999 33.3 30.4999 32.5 31.3999C31.7 32.2999 31 33.2999 30.3 34.2999C29.6 35.2999 29 36.2999 28.4 37.3999C27.8 38.3999 27.3 39.4999 26.8 40.5999C26.3 41.6999 25.8 42.7999 25.4 43.8999C25 44.9999 24.6 46.1999 24.3 47.2999C24 48.4999 23.7 49.5999 23.5 50.7999C23.3 51.9999 23.1 53.1999 23 54.3999C22.9 55.5999 22.8 56.7999 22.8 57.9999C22.8 58.1999 22.8 58.3999 22.9 58.4999C23 58.6999 23.1 58.7999 23.2 58.9999C23.3 59.0999 23.5 59.1999 23.7 59.2999C23.9 59.3999 24.1 59.3999 24.2 59.3999C24.3 59.3999 24.6 59.3999 24.7 59.2999C24.9 59.1999 25 59.0999 25.2 58.9999C25.4 58.8999 25.4 58.6999 25.5 58.4999C25.6 58.2999 25.6 58.1999 25.6 57.9999C25.6 56.7999 25.7 55.5999 25.8 54.3999C25.9 53.1999 26.1 51.9999 26.3 50.7999C26.5 49.5999 26.8 48.3999 27.1 47.2999C27.4 46.0999 27.8 44.9999 28.2 43.8999C28.6 42.7999 29.1 41.6999 29.7 40.5999C30.3 39.4999 30.8 38.4999 31.5 37.3999C32.1 36.3999 32.8 35.3999 33.5 34.3999C34.2 33.3999 35 32.4999 35.8 31.5999C36.6 30.6999 37.5 29.8999 38.3 28.9999C39.2 28.1999 40.1 27.3999 41.1 26.6999C42.1 25.9999 43 25.2999 44.1 24.5999C45.1 23.9999 46.2 23.3999 47.2 22.7999C48.3 22.2999 49.4 21.7999 50.5 21.2999C51.6 20.8999 52.8 20.4999 53.9 20.0999C55.1 19.7999 56.2 19.4999 57.4 19.2999C58.6 19.0999 59.8 18.8999 61 18.7999C62.2 18.6999 63.4 18.5999 64.6 18.5999C65.8 18.5999 67 18.5999 68.2 18.6999C69.4 18.7999 70.6 18.9999 71.8 19.1999C73 19.3999 74.2 19.6999 75.3 19.9999C76.5 20.2999 77.6 20.6999 78.7 21.0999C79.8 21.4999 80.9 21.9999 82 22.4999C83.1 22.9999 84.1 23.5999 85.2 24.1999C86.2 24.7999 87.2 25.4999 88.2 26.1999C89.2 26.8999 90.1 27.6999 91 28.4999C91.9 29.2999 92.8 30.0999 93.6 30.9999C94.4 31.8999 95.2 32.7999 95.9 33.6999C96.6 34.6999 97.3 35.5999 98 36.5999C98.7 37.5999 99.2 38.6999 99.8 39.6999C100.4 40.7999 100.9 41.8999 101.3 42.9999C101.7 44.0999 102.1 45.2999 102.5 46.3999C102.8 47.5999 103.1 48.6999 103.4 49.8999C103.6 51.0999 103.8 52.2999 104 53.4999C104.1 54.6999 104.2 55.8999 104.2 57.0999C104.2 58.2999 104.2 59.4999 104.1 60.6999C104 61.8999 103.9 63.0999 103.7 64.2999C103.5 65.4999 103.2 66.6999 102.9 67.7999C102.6 68.9999 102.2 70.0999 101.8 71.1999C101.4 72.2999 100.9 73.3999 100.4 74.4999C99.9 75.5999 99.3 76.5999 98.7 77.6999C98.1 78.6999 97.4 79.6999 96.7 80.6999C96 81.6999 95.2 82.5999 94.4 83.4999C93.6 84.3999 92.8 85.2999 91.9 86.0999C91 86.8999 90.1 87.6999 89.2 88.4999C88.3 89.1999 87.3 89.8999 86.3 90.5999C85.3 91.2999 84.3 91.8999 83.2 92.3999C82.1 92.9999 81 93.4999 79.9 93.8999C78.8 94.3999 77.7 94.7999 76.5 95.0999C76.9 95.6999 77.1 96.3999 77.1 97.0999V97.9999C77.1 98.0999 77.1 98.2999 77.1 98.3999C78.5 97.9999 79.9 97.4999 81.2 96.8999C82.6 96.2999 83.9 95.6999 85.2 94.9999C86.5 94.2999 87.7 93.4999 88.9 92.6999C90.1 91.8999 91.3 90.9999 92.4 89.9999C93.5 88.9999 94.6 87.9999 95.6 86.8999C96.6 85.7999 97.6 84.6999 98.4 83.4999C99.3 82.2999 100.1 81.0999 100.9 79.7999C101.7 78.4999 102.4 77.1999 103 75.8999C103.6 74.5999 104.2 73.1999 104.7 71.7999C105.2 70.3999 105.6 68.9999 105.9 67.5999C106.2 66.1999 106.5 64.6999 106.7 63.2999C106.9 61.7999 107 60.3999 107 58.8999C107 57.3999 107 55.9999 106.9 54.4999C106.8 52.9999 106.6 51.5999 106.3 50.0999C106 48.6999 105.7 47.1999 105.2 45.7999C104.8 44.4999 104.3 43.0999 103.8 41.6999Z" fill="#393939"/>
<path d="M73.4 103.2H55.6C54.9 103.2 54.2 103.1 53.6 102.8C53 102.5 52.4 102.2 51.9 101.7C51.4 101.2 51 100.6 50.8 99.9999C50.5 99.3999 50.4 98.6999 50.4 97.9999V97.6999C50.4 96.9999 50.5 96.2999 50.8 95.6999C51.1 95.0999 51.4 94.4999 51.9 93.9999C52.4 93.4999 53 93.0999 53.6 92.8999C54.2 92.5999 54.9 92.4999 55.6 92.4999H73.4C74.1 92.4999 74.8 92.5999 75.4 92.8999C76 93.1999 76.6 93.4999 77.1 93.9999C77.6 94.4999 78 95.0999 78.2 95.6999C78.5 96.2999 78.6 96.9999 78.6 97.6999V97.9999C78.6 98.6999 78.5 99.3999 78.2 99.9999C77.9 100.6 77.6 101.2 77.1 101.7C76.6 102.2 76 102.6 75.4 102.8C74.7 103.1 74.1 103.2 73.4 103.2ZM55.6 95.2999C55.3 95.2999 55 95.3999 54.7 95.4999C54.4 95.5999 54.1 95.7999 53.9 95.9999C53.7 96.1999 53.5 96.4999 53.4 96.7999C53.3 97.0999 53.2 97.3999 53.2 97.6999V97.9999C53.2 98.2999 53.3 98.5999 53.4 98.8999C53.5 99.1999 53.7 99.4999 53.9 99.6999C54.1 99.8999 54.4 100.1 54.7 100.2C55 100.3 55.3 100.4 55.6 100.4H73.4C73.7 100.4 74 100.3 74.3 100.2C74.6 100.1 74.9 99.8999 75.1 99.6999C75.3 99.4999 75.5 99.1999 75.6 98.8999C75.7 98.5999 75.8 98.2999 75.8 97.9999V97.6999C75.8 97.3999 75.7 97.0999 75.6 96.7999C75.5 96.4999 75.3 96.1999 75.1 95.9999C74.9 95.7999 74.6 95.5999 74.3 95.4999C74 95.3999 73.7 95.2999 73.4 95.2999H55.6Z" fill="#393939"/>
</svg>
