<svg width="56" height="64" viewBox="0 0 56 64" fill="none" xmlns="http://www.w3.org/2000/svg">
<path d="M12.5001 27.8999C12.5001 27.8999 7.60006 34.9999 7.00006 36.8999C6.50006 38.3999 12.5001 39.4999 12.5001 39.4999C12.5001 39.4999 13.0001 45.9999 13.5001 48.5998C14.0001 50.7999 12.7001 51.6999 17.2001 52.6999C18.1001 52.8999 22.9001 52.4999 22.9001 52.4999V58.8999H40.8001V48.8999C40.8001 48.8999 48.2001 44.8998 50.4001 27.8999C50.4001 27.8999 51.1001 13.7999 39.1001 8.99985C32.4001 6.39985 14.7001 5.49985 12.8001 18.7999C12.4001 20.9999 12.5001 27.8999 12.5001 27.8999Z" fill="#F8EFD6"/>
<path d="M18.0001 22.3999L19.6001 18.6999L22.0001 19.7999C22.9001 18.4999 24.1001 17.3999 25.4001 16.5999L24.5001 14.1999L28.2001 12.7999L29.1001 15.1999C30.6001 14.8999 32.2001 14.8999 33.8001 15.2999L34.9001 12.8999L38.6001 14.4999L37.5001 16.8999C38.8001 17.7999 39.9001 18.9999 40.7001 20.2999L43.1001 19.3999L44.5001 23.0999L42.1001 23.9999C42.4001 25.4999 42.4001 27.0999 42.0001 28.6999L44.4001 29.7999L42.8001 33.4999L40.4001 32.3998C39.5001 33.6998 38.3001 34.7999 37.0001 35.5998L37.9001 37.9999L34.2001 39.4999L33.3001 37.0998C31.8001 37.3998 30.2001 37.3999 28.6001 36.9999L27.5001 39.3999L23.8001 37.7999L24.9001 35.3998C23.6001 34.4998 22.5001 33.2999 21.7001 31.9999L19.3001 32.8998L17.9001 28.9999L20.3001 28.0999C20.0001 26.5999 20.0001 24.9999 20.4001 23.3999L18.0001 22.3999Z" fill="#F8EFD6"/>
<path d="M22.7001 22.2998C20.6001 26.9998 22.8001 32.4998 27.5001 34.5998C32.2001 36.6999 37.7001 34.4998 39.8001 29.7998C41.9001 25.0998 39.7001 19.5998 35.0001 17.4999C30.3001 15.3999 24.8001 17.5998 22.7001 22.2998Z" fill="#F8EFD6"/>
<path d="M12.5001 27.8999C12.5001 27.8999 7.60006 34.9999 7.00006 36.8999C6.50006 38.3999 12.5001 39.4999 12.5001 39.4999C12.5001 39.4999 13.0001 45.9999 13.5001 48.5998C14.0001 50.7999 12.7001 51.6999 17.2001 52.6999C18.1001 52.8999 22.9001 52.4999 22.9001 52.4999V58.8999H40.8001V48.8999C40.8001 48.8999 48.2001 44.8998 50.4001 27.8999C50.4001 27.8999 51.1001 13.7999 39.1001 8.99985C32.4001 6.39985 14.7001 5.49985 12.8001 18.7999C12.4001 20.9999 12.5001 27.8999 12.5001 27.8999Z" stroke="#393939" stroke-width="1.0457" stroke-miterlimit="10"/>
<path d="M12.5001 27.8999C12.5001 27.8999 7.60006 34.9999 7.00006 36.8999C6.50006 38.3999 12.5001 39.4999 12.5001 39.4999C12.5001 39.4999 13.0001 45.9999 13.5001 48.5998C14.0001 50.7999 12.7001 51.6999 17.2001 52.6999C18.1001 52.8999 22.9001 52.4999 22.9001 52.4999V58.8999H40.8001V48.8999C40.8001 48.8999 48.2001 44.8998 50.4001 27.8999C50.4001 27.8999 51.1001 13.7999 39.1001 8.99985C32.4001 6.39985 14.7001 5.49985 12.8001 18.7999C12.4001 20.9999 12.5001 27.8999 12.5001 27.8999Z" stroke="#393939" stroke-width="1.0457" stroke-miterlimit="10"/>
<path d="M18.0001 22.3999L19.6001 18.6999L22.0001 19.7999C22.9001 18.4999 24.1001 17.3999 25.4001 16.5999L24.5001 14.1999L28.2001 12.7999L29.1001 15.1999C30.6001 14.8999 32.2001 14.8999 33.8001 15.2999L34.9001 12.8999L38.6001 14.4999L37.5001 16.8999C38.8001 17.7999 39.9001 18.9999 40.7001 20.2999L43.1001 19.3999L44.5001 23.0999L42.1001 23.9999C42.4001 25.4999 42.4001 27.0999 42.0001 28.6999L44.4001 29.7999L42.8001 33.4999L40.4001 32.3998C39.5001 33.6998 38.3001 34.7999 37.0001 35.5998L37.9001 37.9999L34.2001 39.4999L33.3001 37.0998C31.8001 37.3998 30.2001 37.3999 28.6001 36.9999L27.5001 39.3999L23.8001 37.7999L24.9001 35.3998C23.6001 34.4998 22.5001 33.2999 21.7001 31.9999L19.3001 32.8998L17.9001 28.9999L20.3001 28.0999C20.0001 26.5999 20.0001 24.9999 20.4001 23.3999L18.0001 22.3999Z" stroke="#393939" stroke-width="1.0457" stroke-miterlimit="10"/>
<path d="M18.0001 22.3999L19.6001 18.6999L22.0001 19.7999C22.9001 18.4999 24.1001 17.3999 25.4001 16.5999L24.5001 14.1999L28.2001 12.7999L29.1001 15.1999C30.6001 14.8999 32.2001 14.8999 33.8001 15.2999L34.9001 12.8999L38.6001 14.4999L37.5001 16.8999C38.8001 17.7999 39.9001 18.9999 40.7001 20.2999L43.1001 19.3999L44.5001 23.0999L42.1001 23.9999C42.4001 25.4999 42.4001 27.0999 42.0001 28.6999L44.4001 29.7999L42.8001 33.4999L40.4001 32.3998C39.5001 33.6998 38.3001 34.7999 37.0001 35.5998L37.9001 37.9999L34.2001 39.4999L33.3001 37.0998C31.8001 37.3998 30.2001 37.3999 28.6001 36.9999L27.5001 39.3999L23.8001 37.7999L24.9001 35.3998C23.6001 34.4998 22.5001 33.2999 21.7001 31.9999L19.3001 32.8998L17.9001 28.9999L20.3001 28.0999C20.0001 26.5999 20.0001 24.9999 20.4001 23.3999L18.0001 22.3999Z" stroke="#393939" stroke-width="1.0457" stroke-miterlimit="10"/>
<path d="M22.7001 22.2998C20.6001 26.9998 22.8001 32.4998 27.5001 34.5998C32.2001 36.6999 37.7001 34.4998 39.8001 29.7998C41.9001 25.0998 39.7001 19.5998 35.0001 17.4999C30.3001 15.3999 24.8001 17.5998 22.7001 22.2998Z" stroke="#393939" stroke-width="1.0457" stroke-miterlimit="10"/>
<path d="M22.7001 22.2998C20.6001 26.9998 22.8001 32.4998 27.5001 34.5998C32.2001 36.6999 37.7001 34.4998 39.8001 29.7998C41.9001 25.0998 39.7001 19.5998 35.0001 17.4999C30.3001 15.3999 24.8001 17.5998 22.7001 22.2998Z" stroke="#393939" stroke-width="1.0457" stroke-miterlimit="10"/>
</svg>
