<svg width="56" height="56" viewBox="0 0 56 56" fill="none" xmlns="http://www.w3.org/2000/svg">
<path d="M27.8974 8C26.5641 8 25.3333 8.10256 24 8.41026C22.6667 8.61538 21.4359 9.02564 20.3077 9.53846C19.0769 10.0513 17.9487 10.6667 16.8205 11.3846C15.7949 12.1026 14.7692 12.9231 13.8462 13.8462C12.9231 14.7692 12.1026 15.7949 11.3846 16.8205C10.6667 17.8462 10.0513 19.0769 9.53846 20.3077C9.02564 21.5385 8.61538 22.7692 8.41026 24C8.10256 25.2308 8 26.5641 8 27.8974C8 29.2308 8.10256 30.4615 8.41026 31.7949C8.61538 33.0256 9.02564 34.359 9.53846 35.4872C10.0513 36.7179 10.6667 37.8462 11.3846 38.8718C12.1026 40 12.9231 40.9231 13.8462 41.8462C14.7692 42.7692 15.7949 43.5897 16.8205 44.3077C17.9487 45.0256 19.0769 45.641 20.2051 46.1539C21.4359 46.6667 22.6667 47.0769 23.8974 47.2821C25.1282 47.5897 26.4615 47.6923 27.7949 47.6923C29.1282 47.6923 30.359 47.5897 31.6923 47.2821C33.0256 46.9744 34.2564 46.6667 35.3846 46.1539C36.6154 45.641 37.7436 45.0256 38.8718 44.3077C40 43.5897 40.9231 42.7692 41.8462 41.8462C42.7692 40.9231 43.5897 39.8974 44.3077 38.8718C45.0256 37.7436 45.641 36.6154 46.1539 35.4872C46.6667 34.2564 47.0769 33.0256 47.2821 31.7949C47.4872 30.4615 47.6923 29.2308 47.6923 27.8974C47.6923 26.5641 47.5897 25.3333 47.2821 24C46.9744 22.7692 46.6667 21.4359 46.1539 20.3077C45.641 19.0769 45.0256 17.9487 44.3077 16.9231C43.5897 15.7949 42.7692 14.8718 41.8462 13.9487C40.9231 13.0256 39.8974 12.2051 38.8718 11.4872C37.8462 10.6667 36.7179 10.0513 35.4872 9.53846C34.2564 9.02564 33.0256 8.61538 31.7949 8.41026C30.4615 8.10256 29.2308 8 27.8974 8ZM27.8974 45.9487C26.6667 45.9487 25.5385 45.8462 24.4103 45.641C23.2821 45.4359 22.1538 45.0256 21.0256 44.6154C19.8974 44.2051 18.8718 43.5897 17.9487 42.9744C16.9231 42.359 16 41.5385 15.1795 40.7179C14.359 39.8974 13.641 38.9744 12.9231 37.9487C12.3077 36.9231 11.6923 35.8974 11.2821 34.8718C10.8718 33.7436 10.4615 32.6154 10.2564 31.4872C10.0513 30.359 9.94872 29.1282 9.94872 28C9.94872 26.8718 10.0513 25.641 10.2564 24.5128C10.4615 23.3846 10.8718 22.2564 11.2821 21.1282C11.6923 20 12.3077 18.9744 12.9231 18.0513C13.5385 17.0256 14.359 16.1026 15.1795 15.2821C16 14.4615 16.9231 13.7436 17.9487 13.0256C18.9744 12.4103 20 11.7949 21.0256 11.3846C22.0513 10.9744 23.2821 10.5641 24.4103 10.359C25.5385 10.1538 26.7692 10.0513 27.8974 10.0513C29.0256 10.0513 30.2564 10.1538 31.3846 10.359C32.5128 10.5641 33.641 10.9744 34.7692 11.3846C35.8974 11.7949 36.9231 12.4103 37.8462 13.0256C38.8718 13.641 39.6923 14.4615 40.6154 15.2821C41.5385 16.1026 42.2564 17.0256 42.8718 18.0513C43.4872 19.0769 44.1026 20.1026 44.5128 21.1282C44.9231 22.1538 45.3333 23.3846 45.5385 24.5128C45.7436 25.641 45.8462 26.8718 45.8462 28C45.8462 29.1282 45.7436 30.359 45.5385 31.4872C45.3333 32.6154 44.9231 33.7436 44.5128 34.8718C44.1026 36 43.4872 37.0256 42.8718 37.9487C42.2564 38.8718 41.4359 39.8974 40.6154 40.7179C39.7949 41.5385 38.8718 42.2564 37.8462 42.9744C36.8205 43.5897 35.7949 44.2051 34.7692 44.6154C33.641 45.0256 32.5128 45.4359 31.3846 45.641C30.2564 45.8462 29.0256 45.9487 27.8974 45.9487Z" fill="#E63C25"/>
<path d="M27.8974 12.5137C26.8718 12.5137 25.8461 12.6162 24.923 12.8214C23.8974 13.0265 22.9743 13.3342 22.0512 13.7444C21.1282 14.1547 20.2051 14.565 19.3846 15.1803C18.5641 15.7957 17.7436 16.3085 17.0256 17.0265C16.3077 17.7444 15.6923 18.565 15.0769 19.3855C14.4615 20.206 14.0512 21.1291 13.641 22.0521C13.2307 22.9752 12.923 23.8983 12.7179 24.9239C12.5128 25.9496 12.4102 26.8726 12.4102 27.8983C12.4102 28.9239 12.5128 29.9496 12.7179 30.8726C12.923 31.8983 13.2307 32.8214 13.641 33.7444C14.0512 34.6675 14.4615 35.5906 15.0769 36.4111C15.6923 37.2316 16.3077 38.0521 17.0256 38.7701C17.7436 39.488 18.4615 40.1034 19.3846 40.7188C20.2051 41.2316 21.1282 41.7444 22.0512 42.1547C22.9743 42.565 23.8974 42.8726 24.923 43.0778C25.9487 43.2829 26.8718 43.3855 27.8974 43.3855C28.923 43.3855 29.9487 43.2829 30.8718 43.0778C31.8974 42.8726 32.8205 42.565 33.7436 42.1547C34.6666 41.7444 35.5897 41.3342 36.4102 40.7188C37.2307 40.206 38.0512 39.488 38.7692 38.7701C39.4871 38.0521 40.1025 37.2316 40.7179 36.4111C41.3333 35.5906 41.7436 34.6675 42.1538 33.7444C42.5641 32.8214 42.8718 31.8983 42.9743 30.8726C43.1794 29.847 43.282 28.9239 43.282 27.8983C43.282 26.8726 43.1794 25.847 42.9743 24.9239C42.7692 23.8983 42.4615 22.9752 42.1538 22.0521C41.7436 21.1291 41.3333 20.206 40.7179 19.3855C40.1025 18.565 39.4871 17.7444 38.7692 17.0265C38.0512 16.3085 37.2307 15.6932 36.4102 15.0778C35.5897 14.565 34.6666 14.0521 33.7436 13.6419C32.8205 13.2316 31.8974 12.9239 30.8718 12.7188C29.8461 12.6162 28.923 12.5137 27.8974 12.5137ZM27.8974 41.4367C26.9743 41.4367 26.1538 41.3342 25.2307 41.1291C24.3077 40.9239 23.4871 40.7188 22.6666 40.3085C21.8461 40.0009 21.0256 39.5906 20.3077 39.0778C19.5897 38.565 18.8718 38.0521 18.2564 37.4368C17.641 36.8214 17.0256 36.1034 16.6153 35.3855C16.1025 34.6675 15.6923 33.847 15.3846 33.0265C15.0769 32.206 14.7692 31.3855 14.5641 30.4624C14.3589 29.6419 14.2564 28.7188 14.2564 27.7957C14.2564 26.8726 14.3589 26.0521 14.5641 25.1291C14.7692 24.3085 14.9743 23.3855 15.3846 22.565C15.6923 21.7444 16.1025 20.9239 16.6153 20.206C17.1282 19.488 17.641 18.7701 18.2564 18.1547C18.8718 17.5393 19.5897 16.9239 20.3077 16.5137C21.0256 16.0009 21.8461 15.5906 22.6666 15.2829C23.4871 14.9752 24.3077 14.6675 25.2307 14.4624C26.0512 14.2573 26.9743 14.1547 27.8974 14.1547C28.8205 14.1547 29.641 14.2573 30.5641 14.4624C31.3846 14.6675 32.3077 14.8726 33.1282 15.2829C33.9487 15.5906 34.7692 16.0009 35.4871 16.5137C36.2051 17.0265 36.923 17.5393 37.5384 18.1547C38.1538 18.7701 38.7692 19.488 39.1794 20.206C39.6923 20.9239 40.1025 21.7444 40.4102 22.565C40.7179 23.3855 41.0256 24.206 41.2307 25.1291C41.4359 26.0521 41.5384 26.8726 41.5384 27.7957C41.5384 28.7188 41.4359 29.5393 41.2307 30.4624C41.0256 31.2829 40.8205 32.206 40.4102 33.0265C40.1025 33.847 39.6923 34.6675 39.1794 35.3855C38.6666 36.1034 38.1538 36.8214 37.5384 37.4368C36.923 38.0521 36.2051 38.6675 35.4871 39.0778C34.7692 39.5906 33.9487 40.0009 33.1282 40.3085C32.3077 40.6162 31.4871 40.9239 30.5641 41.1291C29.641 41.3342 28.7179 41.4367 27.8974 41.4367Z" fill="#E63C25"/>
<path d="M30.1538 20.6152H25.641C25.4358 20.6152 25.1282 20.7178 25.0256 20.9229C24.923 21.1281 24.7179 21.3332 24.7179 21.5383V27.8973H22.8717C22.6666 27.8973 22.3589 27.9999 22.2564 28.205C22.1538 28.4101 21.9487 28.6152 21.9487 28.8204C21.9487 29.0255 22.0512 29.3332 22.2564 29.4357C22.4615 29.5383 22.6666 29.7434 22.8717 29.7434H24.7179V31.5896H22.8717C22.6666 31.5896 22.3589 31.6922 22.2564 31.8973C22.1538 32.1024 21.9487 32.3075 21.9487 32.5127C21.9487 32.7178 22.0512 32.9229 22.2564 33.1281C22.4615 33.3332 22.6666 33.4357 22.8717 33.4357H24.7179V35.2819C24.7179 35.487 24.8205 35.7947 25.0256 35.8973C25.2307 35.9999 25.4358 36.205 25.641 36.205C25.8461 36.205 26.0512 36.1024 26.2564 35.8973C26.4615 35.6922 26.5641 35.487 26.5641 35.2819V33.4357H29.2307C29.4358 33.4357 29.7435 33.3332 29.8461 33.1281C29.9487 32.9229 30.1538 32.7178 30.1538 32.5127C30.1538 32.3075 30.0512 31.9998 29.8461 31.8973C29.641 31.7947 29.4358 31.5896 29.2307 31.5896H26.5641V29.7434H30.1538C30.7692 29.7434 31.282 29.6409 31.8974 29.4357C32.4102 29.2306 32.923 28.9229 33.3333 28.4101C33.7435 27.9998 34.0512 27.487 34.3589 26.9742C34.5641 26.4614 34.6666 25.846 34.6666 25.2306C34.6666 24.6152 34.5641 24.1024 34.3589 23.487C34.1538 22.9742 33.8461 22.4614 33.3333 22.0511C32.923 21.6409 32.4102 21.3332 31.8974 21.0255C31.282 20.7178 30.7692 20.6152 30.1538 20.6152ZM30.1538 27.8973H26.5641V22.4614H30.1538C30.5641 22.4614 30.8717 22.564 31.1794 22.6665C31.4871 22.7691 31.7948 22.9742 32.1025 23.2819C32.4102 23.5896 32.5128 23.7947 32.7179 24.205C32.8205 24.5127 32.923 24.9229 32.923 25.2306C32.923 25.5383 32.8205 25.9486 32.7179 26.2563C32.6153 26.564 32.4102 26.8716 32.1025 27.1793C31.8974 27.487 31.5897 27.5896 31.1794 27.7947C30.8717 27.7947 30.4615 27.8973 30.1538 27.8973Z" fill="#E63C25"/>
</svg>
