<svg width="69" height="64" viewBox="0 0 69 64" fill="none" xmlns="http://www.w3.org/2000/svg">
<path d="M14.9854 21.214C14.678 21.214 14.3707 20.9088 14.3707 20.6035V11.5474C14.3707 10.6316 13.5512 9.81754 12.6293 9.81754C11.7073 9.81754 10.8878 10.5298 10.8878 11.5474V20.6035C10.8878 20.9088 10.6829 21.214 10.2732 21.214C9.86341 21.214 9.65854 20.9088 9.65854 20.6035V11.5474C9.65854 10.0211 10.8878 8.69825 12.5268 8.69825C14.0634 8.69825 15.3951 10.0211 15.3951 11.5474V20.6035C15.6 20.9088 15.2927 21.214 14.9854 21.214Z" fill="#393939"/>
<path d="M14.2683 15.5158H10.478C10.1707 15.5158 9.86341 15.2105 9.86341 14.9053C9.86341 14.6 10.0683 14.2947 10.478 14.2947H14.3707C14.678 14.2947 14.9854 14.6 14.9854 14.9053C14.8829 15.3123 14.5756 15.5158 14.2683 15.5158Z" fill="#393939"/>
<path d="M8.12195 4.1193C5.97073 4.1193 4.12683 5.95088 4.12683 8.08772V21.7228C4.12683 23.9614 5.97073 25.6912 8.12195 25.6912H17.3415C19.5951 25.6912 21.3366 23.8596 21.3366 21.7228V8.08772C21.3366 5.84912 19.4927 4.1193 17.3415 4.1193H8.12195ZM17.3415 26.9123H8.12195C5.25366 26.9123 3 24.5719 3 21.8246V8.08772C3 5.2386 5.3561 3 8.12195 3H17.3415C20.2098 3 22.4634 5.34035 22.4634 8.08772V21.7228C22.4634 24.5719 20.1073 26.9123 17.3415 26.9123Z" fill="#393939"/>
<path d="M18.4683 38.207C16.2146 38.207 14.4732 40.0386 14.4732 42.1754V55.9123C14.4732 58.1509 16.3171 59.8807 18.4683 59.8807H44.7951C47.0488 59.8807 48.7902 58.0491 48.7902 55.9123V42.2772C48.7902 40.0386 46.9463 38.3088 44.7951 38.3088H18.4683V38.207ZM44.7951 61H18.4683C15.6 61 13.3463 58.6596 13.3463 55.9123V42.2772C13.3463 39.4281 15.7024 37.1895 18.4683 37.1895H44.7951C47.6634 37.1895 49.9171 39.5298 49.9171 42.2772V55.9123C49.9171 58.6596 47.561 61 44.7951 61Z" fill="#393939"/>
<path d="M42.439 55.3018H38.9561C38.6488 55.3018 38.3415 54.9965 38.3415 54.6912V43.3965C38.3415 43.0912 38.5463 42.786 38.9561 42.786H42.439C42.7463 42.786 43.0537 43.0912 43.0537 43.3965C43.0537 43.7018 42.8488 44.007 42.439 44.007H39.5707V54.2842H42.439C42.7463 54.2842 43.0537 54.4877 43.0537 54.8947C43.0537 54.9965 42.8488 55.3018 42.439 55.3018Z" fill="#393939"/>
<path d="M42.439 49.6035H39.1146C38.8073 49.6035 38.5 49.4 38.5 48.993C38.5 48.586 38.7049 48.3825 39.1146 48.3825H42.439C42.7463 48.3825 43.0537 48.586 43.0537 48.993C43.0537 49.4 42.8488 49.6035 42.439 49.6035Z" fill="#393939"/>
<path d="M26.4585 43.9053H19.5951C19.2878 43.9053 18.9805 43.6 18.9805 43.2947C18.9805 42.9895 19.2878 42.6842 19.5951 42.6842H26.4585C26.7659 42.6842 27.0732 42.9895 27.0732 43.2947C27.0732 43.7018 26.7659 43.9053 26.4585 43.9053Z" fill="#393939"/>
<path d="M29.9415 55.3018C29.6341 55.3018 29.3268 54.9965 29.3268 54.6912V43.3965C29.3268 43.0912 29.6341 42.786 29.9415 42.786C30.2488 42.786 30.5561 43.0912 30.5561 43.3965V54.793C30.4537 54.9965 30.2488 55.3018 29.9415 55.3018Z" fill="#393939"/>
<path d="M22.9756 55.3018C22.6683 55.3018 22.361 54.9965 22.361 54.6912V43.3965C22.361 43.0912 22.6683 42.786 22.9756 42.786C23.2829 42.786 23.5902 43.0912 23.5902 43.3965V54.793C23.5902 54.9965 23.3854 55.3018 22.9756 55.3018Z" fill="#393939"/>
<path d="M34.4488 55.3018C34.1415 55.3018 33.8341 54.9965 33.8341 54.6912V43.3965C33.8341 43.0912 34.1415 42.786 34.4488 42.786C34.7561 42.786 35.0634 43.0912 35.0634 43.3965V54.793C35.0634 54.9965 34.7561 55.3018 34.4488 55.3018Z" fill="#393939"/>
<path d="M34.4488 49.6035H30.1146C29.8073 49.6035 29.5 49.4 29.5 48.993C29.5 48.586 29.8073 48.3825 30.1146 48.3825H34.4488C34.7561 48.3825 35 48.586 35 48.993C35 49.4 34.7561 49.6035 34.4488 49.6035Z" fill="#393939"/>
<path d="M48.1756 21.214C47.8683 21.214 47.561 20.9088 47.561 20.6035V11.5474C47.561 10.6316 46.7415 9.81754 45.8195 9.81754C44.8976 9.81754 44.078 10.5298 44.078 11.5474V20.6035C44.078 20.9088 43.7707 21.214 43.4634 21.214C43.1561 21.214 42.8488 20.9088 42.8488 20.6035V11.5474C42.8488 10.0211 44.1805 8.69825 45.7171 8.69825C47.2537 8.69825 48.5854 10.0211 48.5854 11.5474V20.6035C48.7902 20.9088 48.4829 21.214 48.1756 21.214Z" fill="#393939"/>
<path d="M47.7893 15.5158H43.5658C43.2585 15.5158 42.9512 15.2105 42.9512 14.9053C42.9512 14.6 43.2585 14.2947 43.5658 14.2947H47.7893C48.0966 14.2947 48.4039 14.6 48.4039 14.9053C48.4039 15.3123 48.0966 15.5158 47.7893 15.5158Z" fill="#393939"/>
<path d="M41.3122 4.1193C39.0585 4.1193 37.3171 5.95088 37.3171 8.08772V21.7228C37.3171 23.9614 39.161 25.6912 41.3122 25.6912H60.7756C63.0293 25.6912 64.7707 23.8596 64.7707 21.7228V8.08772C64.7707 5.84912 62.9268 4.1193 60.7756 4.1193H41.3122ZM60.7756 26.9123H41.3122C38.4439 26.9123 36.1902 24.5719 36.1902 21.8246V8.08772C36.1902 5.2386 38.5463 3 41.3122 3H60.7756C63.6439 3 65.8976 5.34035 65.8976 8.08772V21.7228C65.8976 24.5719 63.6439 26.9123 60.7756 26.9123Z" fill="#393939"/>
<path d="M58.5219 21.214C58.3171 21.214 58.1122 21.1123 58.0098 20.9088L53.4 11.6491V20.6035C53.4 20.9088 53.0927 21.214 52.7854 21.214C52.478 21.214 52.1707 20.9088 52.1707 20.6035V9.30877C52.1707 9.00351 52.3756 8.8 52.5805 8.8C52.8878 8.69825 53.0927 8.90175 53.1951 9.10526L57.8049 18.3649V9.30877C57.8049 9.00351 58.1122 8.69825 58.4195 8.69825C58.7268 8.69825 59.0341 8.90175 59.0341 9.30877V20.7053C59.0341 21.0105 58.8293 21.214 58.6244 21.214H58.5219Z" fill="#393939"/>
<path d="M36.3854 14.3965H22.4634C22.1561 14.3965 21.8488 14.0912 21.8488 13.786C21.8488 13.4807 22.1561 13.1754 22.4634 13.1754H36.3854C36.6927 13.1754 37 13.4807 37 13.786C36.8976 14.0912 36.6927 14.3965 36.3854 14.3965Z" fill="#393939"/>
<path d="M43.6683 38.207C43.5659 38.207 43.5659 38.207 43.4634 38.207C43.1561 38.1053 43.0537 37.8 43.1561 37.4947L47.7659 26.0982C47.8683 25.793 48.1756 25.6912 48.4829 25.793C48.7902 25.8947 48.8927 26.2 48.7902 26.5053L44.1805 37.9018C44.078 38.1053 43.8732 38.207 43.6683 38.207Z" fill="#393939"/>
<path d="M20.722 38.207C20.5171 38.207 20.3122 38.1053 20.2098 37.8L15.6 26.4035C15.4976 26.0982 15.6 25.793 15.9073 25.6912C16.2146 25.5895 16.522 25.6912 16.6244 25.9965L21.2341 37.393C21.3366 37.6982 21.2341 38.0035 20.9268 38.1053C20.9268 38.207 20.8244 38.207 20.722 38.207Z" fill="#393939"/>
<path d="M14.9854 21.214C14.678 21.214 14.3707 20.9088 14.3707 20.6035V11.5474C14.3707 10.6316 13.5512 9.81754 12.6293 9.81754C11.7073 9.81754 10.8878 10.5298 10.8878 11.5474V20.6035C10.8878 20.9088 10.6829 21.214 10.2732 21.214C9.86341 21.214 9.65854 20.9088 9.65854 20.6035V11.5474C9.65854 10.0211 10.8878 8.69825 12.5268 8.69825C14.0634 8.69825 15.3951 10.0211 15.3951 11.5474V20.6035C15.6 20.9088 15.2927 21.214 14.9854 21.214Z" stroke="#393939" stroke-width="0.6"/>
<path d="M14.2683 15.5158H10.478C10.1707 15.5158 9.86341 15.2105 9.86341 14.9053C9.86341 14.6 10.0683 14.2947 10.478 14.2947H14.3707C14.678 14.2947 14.9854 14.6 14.9854 14.9053C14.8829 15.3123 14.5756 15.5158 14.2683 15.5158Z" stroke="#393939" stroke-width="0.6"/>
<path d="M8.12195 4.1193C5.97073 4.1193 4.12683 5.95088 4.12683 8.08772V21.7228C4.12683 23.9614 5.97073 25.6912 8.12195 25.6912H17.3415C19.5951 25.6912 21.3366 23.8596 21.3366 21.7228V8.08772C21.3366 5.84912 19.4927 4.1193 17.3415 4.1193H8.12195ZM17.3415 26.9123H8.12195C5.25366 26.9123 3 24.5719 3 21.8246V8.08772C3 5.2386 5.3561 3 8.12195 3H17.3415C20.2098 3 22.4634 5.34035 22.4634 8.08772V21.7228C22.4634 24.5719 20.1073 26.9123 17.3415 26.9123Z" stroke="#393939" stroke-width="0.6"/>
<path d="M18.4683 38.207C16.2146 38.207 14.4732 40.0386 14.4732 42.1754V55.9123C14.4732 58.1509 16.3171 59.8807 18.4683 59.8807H44.7951C47.0488 59.8807 48.7902 58.0491 48.7902 55.9123V42.2772C48.7902 40.0386 46.9463 38.3088 44.7951 38.3088H18.4683V38.207ZM44.7951 61H18.4683C15.6 61 13.3463 58.6596 13.3463 55.9123V42.2772C13.3463 39.4281 15.7024 37.1895 18.4683 37.1895H44.7951C47.6634 37.1895 49.9171 39.5298 49.9171 42.2772V55.9123C49.9171 58.6596 47.561 61 44.7951 61Z" stroke="#393939" stroke-width="0.6"/>
<path d="M42.439 55.3018H38.9561C38.6488 55.3018 38.3415 54.9965 38.3415 54.6912V43.3965C38.3415 43.0912 38.5463 42.786 38.9561 42.786H42.439C42.7463 42.786 43.0537 43.0912 43.0537 43.3965C43.0537 43.7018 42.8488 44.007 42.439 44.007H39.5707V54.2842H42.439C42.7463 54.2842 43.0537 54.4877 43.0537 54.8947C43.0537 54.9965 42.8488 55.3018 42.439 55.3018Z" stroke="#393939" stroke-width="0.6"/>
<path d="M42.439 49.6035H39.1146C38.8073 49.6035 38.5 49.4 38.5 48.993C38.5 48.586 38.7049 48.3825 39.1146 48.3825H42.439C42.7463 48.3825 43.0537 48.586 43.0537 48.993C43.0537 49.4 42.8488 49.6035 42.439 49.6035Z" stroke="#393939" stroke-width="0.6"/>
<path d="M26.4585 43.9053H19.5951C19.2878 43.9053 18.9805 43.6 18.9805 43.2947C18.9805 42.9895 19.2878 42.6842 19.5951 42.6842H26.4585C26.7659 42.6842 27.0732 42.9895 27.0732 43.2947C27.0732 43.7018 26.7659 43.9053 26.4585 43.9053Z" stroke="#393939" stroke-width="0.6"/>
<path d="M29.9415 55.3018C29.6341 55.3018 29.3268 54.9965 29.3268 54.6912V43.3965C29.3268 43.0912 29.6341 42.786 29.9415 42.786C30.2488 42.786 30.5561 43.0912 30.5561 43.3965V54.793C30.4537 54.9965 30.2488 55.3018 29.9415 55.3018Z" stroke="#393939" stroke-width="0.6"/>
<path d="M22.9756 55.3018C22.6683 55.3018 22.361 54.9965 22.361 54.6912V43.3965C22.361 43.0912 22.6683 42.786 22.9756 42.786C23.2829 42.786 23.5902 43.0912 23.5902 43.3965V54.793C23.5902 54.9965 23.3854 55.3018 22.9756 55.3018Z" stroke="#393939" stroke-width="0.6"/>
<path d="M34.4488 55.3018C34.1415 55.3018 33.8341 54.9965 33.8341 54.6912V43.3965C33.8341 43.0912 34.1415 42.786 34.4488 42.786C34.7561 42.786 35.0634 43.0912 35.0634 43.3965V54.793C35.0634 54.9965 34.7561 55.3018 34.4488 55.3018Z" stroke="#393939" stroke-width="0.6"/>
<path d="M34.4488 49.6035H30.1146C29.8073 49.6035 29.5 49.4 29.5 48.993C29.5 48.586 29.8073 48.3825 30.1146 48.3825H34.4488C34.7561 48.3825 35 48.586 35 48.993C35 49.4 34.7561 49.6035 34.4488 49.6035Z" stroke="#393939" stroke-width="0.6"/>
<path d="M48.1756 21.214C47.8683 21.214 47.561 20.9088 47.561 20.6035V11.5474C47.561 10.6316 46.7415 9.81754 45.8195 9.81754C44.8976 9.81754 44.078 10.5298 44.078 11.5474V20.6035C44.078 20.9088 43.7707 21.214 43.4634 21.214C43.1561 21.214 42.8488 20.9088 42.8488 20.6035V11.5474C42.8488 10.0211 44.1805 8.69825 45.7171 8.69825C47.2537 8.69825 48.5854 10.0211 48.5854 11.5474V20.6035C48.7902 20.9088 48.4829 21.214 48.1756 21.214Z" stroke="#393939" stroke-width="0.6"/>
<path d="M47.7893 15.5158H43.5658C43.2585 15.5158 42.9512 15.2105 42.9512 14.9053C42.9512 14.6 43.2585 14.2947 43.5658 14.2947H47.7893C48.0966 14.2947 48.4039 14.6 48.4039 14.9053C48.4039 15.3123 48.0966 15.5158 47.7893 15.5158Z" stroke="#393939" stroke-width="0.6"/>
<path d="M41.3122 4.1193C39.0585 4.1193 37.3171 5.95088 37.3171 8.08772V21.7228C37.3171 23.9614 39.161 25.6912 41.3122 25.6912H60.7756C63.0293 25.6912 64.7707 23.8596 64.7707 21.7228V8.08772C64.7707 5.84912 62.9268 4.1193 60.7756 4.1193H41.3122ZM60.7756 26.9123H41.3122C38.4439 26.9123 36.1902 24.5719 36.1902 21.8246V8.08772C36.1902 5.2386 38.5463 3 41.3122 3H60.7756C63.6439 3 65.8976 5.34035 65.8976 8.08772V21.7228C65.8976 24.5719 63.6439 26.9123 60.7756 26.9123Z" stroke="#393939" stroke-width="0.6"/>
<path d="M58.5219 21.214C58.3171 21.214 58.1122 21.1123 58.0098 20.9088L53.4 11.6491V20.6035C53.4 20.9088 53.0927 21.214 52.7854 21.214C52.478 21.214 52.1707 20.9088 52.1707 20.6035V9.30877C52.1707 9.00351 52.3756 8.8 52.5805 8.8C52.8878 8.69825 53.0927 8.90175 53.1951 9.10526L57.8049 18.3649V9.30877C57.8049 9.00351 58.1122 8.69825 58.4195 8.69825C58.7268 8.69825 59.0341 8.90175 59.0341 9.30877V20.7053C59.0341 21.0105 58.8293 21.214 58.6244 21.214H58.5219Z" stroke="#393939" stroke-width="0.6"/>
<path d="M36.3854 14.3965H22.4634C22.1561 14.3965 21.8488 14.0912 21.8488 13.786C21.8488 13.4807 22.1561 13.1754 22.4634 13.1754H36.3854C36.6927 13.1754 37 13.4807 37 13.786C36.8976 14.0912 36.6927 14.3965 36.3854 14.3965Z" stroke="#393939" stroke-width="0.6"/>
<path d="M43.6683 38.207C43.5659 38.207 43.5659 38.207 43.4634 38.207C43.1561 38.1053 43.0537 37.8 43.1561 37.4947L47.7659 26.0982C47.8683 25.793 48.1756 25.6912 48.4829 25.793C48.7902 25.8947 48.8927 26.2 48.7902 26.5053L44.1805 37.9018C44.078 38.1053 43.8732 38.207 43.6683 38.207Z" stroke="#393939" stroke-width="0.6"/>
<path d="M20.722 38.207C20.5171 38.207 20.3122 38.1053 20.2098 37.8L15.6 26.4035C15.4976 26.0982 15.6 25.793 15.9073 25.6912C16.2146 25.5895 16.522 25.6912 16.6244 25.9965L21.2341 37.393C21.3366 37.6982 21.2341 38.0035 20.9268 38.1053C20.9268 38.207 20.8244 38.207 20.722 38.207Z" stroke="#393939" stroke-width="0.6"/>
</svg>
