<svg width="130" height="120" viewBox="0 0 130 120" fill="none" xmlns="http://www.w3.org/2000/svg">
<path d="M91.4966 15C91.4966 14.2 92.0966 13.4 92.8966 13.4L99.8966 13C100.397 13 100.797 13.2 101.097 13.5C101.397 13.8 101.597 14.3 101.497 14.8L100.497 21.7C100.397 22.5 99.6966 23 98.9966 23C98.8966 23 98.8966 23 98.7966 23C97.9966 22.9 97.3966 22.1 97.4966 21.3L97.8966 18.5C82.1966 32.3 63.4966 43 42.2966 50.4C42.0966 50.5 41.9966 50.5 41.7966 50.5C41.1966 50.5 40.5966 50.1 40.3966 49.5C40.0966 48.7 40.4966 47.8 41.2966 47.6C62.0966 40.4 80.3966 29.9 95.7966 16.4L93.0966 16.5C92.2966 16.4 91.5966 15.8 91.4966 15ZM106.597 81.8L77.5966 99.7C75.5966 100.9 73.3966 101.5 71.1966 101.5C70.0966 101.5 68.8966 101.3 67.7966 101L47.2966 95.5L44.6966 97L45.9966 99.3C46.4966 100.2 46.5966 101.2 46.3966 102.2C46.0966 103.2 45.4966 104 44.5966 104.5L40.0966 107C39.4966 107.3 38.8966 107.5 38.1966 107.5C37.7966 107.5 37.4966 107.4 37.0966 107.4C36.0966 107.1 35.2966 106.5 34.7966 105.6L21.4966 82.4C20.9966 81.5 20.8966 80.5 21.0966 79.5C21.3966 78.5 21.9966 77.7 22.8966 77.2L27.3966 74.7C28.2966 74.2 29.3966 74.1 30.3966 74.3C31.3966 74.6 32.1966 75.2 32.6966 76.1L33.8966 77.9L41.2966 73.6V57.2C41.2966 56.4 41.9966 55.7 42.7966 55.7H51.4966C52.2966 55.7 52.9966 56.4 52.9966 57.2V68.5C54.1966 68.4 55.3966 68.6 56.5966 69C56.7966 69.1 57.0966 69.2 57.3966 69.3V48.4C57.3966 47.6 58.0966 46.9 58.8966 46.9H67.5966C68.3966 46.9 69.0966 47.6 69.0966 48.4V72.4H73.4966V39.3C73.4966 38.5 74.1966 37.8 74.9966 37.8H83.6966C84.4966 37.8 85.1966 38.5 85.1966 39.3V72.4H89.5966V31.1C89.5966 30.3 90.2966 29.6 91.0966 29.6H99.7966C100.597 29.6 101.297 30.3 101.297 31.1V70.2C105.597 69.6 107.597 72 108.197 73C110.197 75.9 109.297 80.1 106.597 81.8ZM92.7966 72.4H95.3966C96.4966 71.8 97.4966 71.3 98.3966 71V32.6H92.6966V72.4H92.7966ZM76.6966 83C77.4966 82.8 78.1966 82.5 78.8966 82.1L81.6966 80.5H77.4966C77.4966 80.8 77.3966 81.2 77.2966 81.5C77.1966 82 76.9966 82.5 76.6966 83ZM90.1966 75.4H75.4966C76.0966 75.9 76.5966 76.6 76.8966 77.3H86.8966L90.1966 75.4ZM76.6966 72.4H82.3966V40.8H76.6966V72.4ZM60.4966 50V70.4C62.1966 71 64.0966 71.7 66.1966 72.3V50H60.4966ZM44.2966 71.9L45.6966 71.1C46.9966 70.3 48.4966 69.6 49.9966 69.1V58.7H44.2966V71.9ZM43.2966 100.9L30.0966 77.6C29.9966 77.3 29.6966 77.2 29.5966 77.2C29.4966 77.2 29.4966 77.2 29.3966 77.2C29.2966 77.2 29.0966 77.2 28.9966 77.3L24.4966 79.8C24.0966 80 23.9966 80.5 24.1966 80.9L37.3966 104.2C37.4966 104.5 37.7966 104.6 37.8966 104.6C37.9966 104.6 38.2966 104.7 38.4966 104.5L42.9966 102C43.2966 101.9 43.2966 101.6 43.3966 101.5C43.3966 101.4 43.4966 101.2 43.2966 100.9ZM105.797 74.6C104.897 73.1 102.997 72.8 100.497 73.5C100.497 73.5 100.497 73.5 100.397 73.5C99.1966 73.9 97.8966 74.5 96.3966 75.3L80.3966 84.6C77.8966 86 75.2966 86.5 72.1966 86L70.1966 85.7C67.6966 85.2 65.3966 84.5 62.8966 83.8C61.7966 83.5 60.5966 83.1 59.4966 82.8C58.6966 82.6 58.1966 81.7 58.3966 80.9C58.5966 80.1 59.4966 79.6 60.2966 79.8C61.4966 80.1 62.6966 80.5 63.7966 80.8C66.1966 81.5 68.3966 82.1 70.7966 82.6C72.0966 82.8 73.7966 82.5 74.3966 80.5C74.7966 79 73.8966 77.4 72.2966 76.8C67.4966 75.9 62.8966 74.2 59.0966 72.9C57.7966 72.4 56.6966 72 55.6966 71.7C52.6966 70.7 49.7966 72 47.1966 73.5L35.3966 80.4L43.1966 94.2L46.2966 92.4C46.6966 92.2 47.0966 92.1 47.4966 92.2L68.5966 97.8C71.2966 98.5 73.7966 98.2 75.9966 96.8L105.097 78.9C106.297 78.4 106.697 76.1 105.797 74.6ZM28.3966 80.3C27.4966 80.4 26.8966 81.2 26.9966 82.1C27.0966 83 27.8966 83.6 28.7966 83.5C29.6966 83.4 30.2966 82.6 30.1966 81.7C30.0966 80.8 29.2966 80.2 28.3966 80.3ZM38.8966 29.4C38.8966 23.1 44.0966 17.9 50.3966 17.9C56.6966 17.9 61.8966 23.1 61.8966 29.4C61.8966 35.7 56.6966 40.9 50.3966 40.9C43.9966 40.9 38.8966 35.8 38.8966 29.4ZM41.8966 29.4C41.8966 34 45.6966 37.8 50.2966 37.8C54.8966 37.8 58.6966 34 58.6966 29.4C58.6966 24.8 54.8966 21 50.2966 21C45.6966 21 41.8966 24.8 41.8966 29.4ZM50.4966 32.8C49.7966 32.8 48.8966 32.5 48.6966 31.7C48.4966 30.9 47.6966 30.4 46.8966 30.6C46.0966 30.8 45.5966 31.6 45.7966 32.4C46.1966 34 47.3966 35.1 48.8966 35.6V35.7C48.8966 36.5 49.5966 37.2 50.3966 37.2C51.1966 37.2 51.8966 36.5 51.8966 35.7V35.6C52.8966 35.4 53.6966 34.9 54.2966 34.2C54.9966 33.4 55.1966 32.5 55.0966 31.5C54.8966 29.5 53.3966 28.3 50.6966 27.8C49.6966 27.6 49.0966 27.3 49.0966 26.9C49.0966 26.3 49.7966 26.1 49.9966 26C50.4966 25.9 51.4966 25.9 51.8966 26.9C52.1966 27.7 53.0966 28 53.8966 27.7C54.6966 27.4 54.9966 26.5 54.6966 25.7C54.1966 24.4 53.0966 23.5 51.8966 23.1V23C51.8966 22.2 51.1966 21.5 50.3966 21.5C49.5966 21.5 48.8966 22.2 48.8966 23V23.1C47.0966 23.7 45.9966 25.2 45.9966 27C46.0966 28.2 46.6966 30.2 50.1966 30.7C51.9966 31 52.0966 31.5 52.0966 31.7C52.0966 31.9 52.0966 32 51.9966 32C51.6966 32.6 51.0966 32.8 50.4966 32.8Z" fill="#393939"/>
</svg>
