<svg width="69" height="64" viewBox="0 0 69 64" fill="none" xmlns="http://www.w3.org/2000/svg">
<path d="M54.5 40.8C54.8 41 55.2 40.9 55.4 40.6C55.7 40.3 55.7 40 55.6 39.7L52.5 32.5C54.9 30.2 56.3 27.2 56.3 24.1C56.3 17.3 49.9 11.7 42 11.4C39.6 7 34.4 4 28.4 4C20.2 4 13.4 9.7 13.4 16.7C13.4 19.8 14.8 22.8 17.2 25.1L14.1 32.4C13.9 32.7 14 33.1 14.3 33.3C14.6 33.6 15 33.6 15.2 33.5L24 28.9C25.2 29.2 26.4 29.4 27.7 29.4C30.9 35.1 38.5 38 45.6 36.1L54.5 40.8ZM23.6 27.3L16.6 30.9L19 25.3C19.2 25 19.1 24.5 18.7 24.3C16.4 22.2 15 19.6 15 16.7C15 10.6 20.9 5.7 28.3 5.7C35.6 5.7 41.6 10.7 41.6 16.7C41.6 24.2 32.8 29.6 24.1 27.2C24 27.1 23.8 27.1 23.6 27.3ZM29.7 29.4C37.3 28.8 43.4 23.4 43.4 16.7C43.4 15.4 43.1 14.2 42.7 13C49.3 13.6 54.5 18.3 54.5 24C54.5 26.8 53.2 29.5 50.8 31.5C50.5 31.8 50.5 32.2 50.5 32.5L52.9 38.1L45.9 34.5C45.7 34.4 45.5 34.4 45.3 34.4C39.5 36.1 32.9 34 29.7 29.4Z" fill="#393939"/>
<path d="M21.3 48.1H21C23.7 47.1 25.6 44.5 25.6 41.4C25.6 37.5 22.4 34.3 18.5 34.3C14.6 34.3 11.4 37.5 11.4 41.4C11.4 44.5 13.4 47.1 16 48.1H15.6C10.3 48.1 6 52.4 6 57.7V60C6 60.5 6.3 60.9 6.9 60.9H30C30.5 60.9 30.9 60.6 30.9 60V57.7C30.9 52.5 26.5 48.1 21.3 48.1ZM13.1 41.5C13.1 38.5 15.5 36.1 18.5 36.1C21.5 36.1 23.9 38.5 23.9 41.5C23.9 44.5 21.5 46.9 18.5 46.9C15.5 46.9 13.1 44.4 13.1 41.5ZM29.2 59.1H7.7V57.6C7.7 53.2 11.2 49.7 15.6 49.7H21.2C25.6 49.7 29.1 53.2 29.1 57.6L29.2 59.1Z" fill="#393939"/>
<path d="M56.7 51.3C58.2 50.4 59.3 48.7 59.3 46.7C59.3 43.8 56.9 41.4 54 41.4C51.1 41.4 48.7 43.8 48.7 46.7C48.7 48.6 49.7 50.3 51.2 51.3C47.7 51.4 44.8 54.3 44.8 57.9V60C44.8 60.5 45.1 60.9 45.7 60.9H62.2C62.7 60.9 63.1 60.6 63.1 60V57.9C63 54.3 60.2 51.5 56.7 51.3ZM54 43.2C56 43.2 57.6 44.8 57.6 46.8C57.6 48.8 56 50.4 54 50.4C52 50.4 50.4 48.8 50.4 46.8C50.3 44.8 51.9 43.2 54 43.2ZM61.3 59.1H46.5V57.8C46.5 55.1 48.6 52.9 51.4 52.9H56.4C59.1 52.9 61.3 55 61.3 57.8V59.1Z" fill="#393939"/>
</svg>
