<svg width="69" height="64" viewBox="0 0 69 64" fill="none" xmlns="http://www.w3.org/2000/svg">
<path d="M2.84996 32.6333C2.38423 32.2173 2.01656 31.8992 1.64888 31.5566C-0.483643 29.6235 -0.606202 27.0296 1.62437 25.2432C2.97252 24.1665 3.48726 23.0654 3.68336 21.328C4.14908 17.7308 8.16901 13.0325 13.1449 14.2315C15.0568 9.33741 19.4689 8.48094 23.2928 10.8546C28.6854 5.32425 35.0829 3.75814 42.4119 5.96048C44.716 6.64566 46.7995 7.79577 48.2212 9.80235C48.785 10.6099 49.1037 11.6132 49.5449 12.5186C54.2021 12.7633 56.4572 14.7699 56.2366 18.5383C57.5112 18.8809 58.8348 19.1501 60.0604 19.615C68.0758 22.7228 68.5905 32.4865 64.0558 36.9646C63.443 37.5519 62.5116 37.8211 61.7762 38.3105C61.237 38.6775 60.5752 39.0691 60.3546 39.6074C57.7808 46.0187 51.3097 48.5636 45.0102 45.6027C44.667 45.4559 43.9807 45.774 43.5885 46.0676C41.6031 47.6093 40.0098 47.7071 37.8528 46.3613C33.8819 50.717 29.3962 52.7725 23.8075 49.5669C22.9741 51.3777 22.3613 53.3109 21.3073 54.9259C20.3514 56.3942 18.9297 57.5688 17.6551 58.8167C17.459 59.0125 16.8217 59.0615 16.6991 58.9146C16.4785 58.6699 16.3804 58.1805 16.4785 57.8624C17.3364 54.877 17.1403 51.9161 16.3559 48.8083C11.6007 49.9584 7.13952 49.4935 3.92847 45.4559C0.790969 41.5651 0.643898 37.1604 2.84996 32.6333ZM18.6846 56.0516C19.9592 55.0238 21.4789 52.2831 21.9691 49.9584C22.1162 49.2488 22.2878 48.5147 22.6064 47.8784C22.9006 47.2422 23.4398 47.0954 23.9791 47.6827C26.1361 50.0318 30.1806 50.3255 32.7543 48.686C34.176 47.7806 35.4261 46.606 36.6272 45.3825C37.7057 44.3057 37.9018 44.1834 39.0048 45.2846C39.6911 45.9697 41.0148 46.0921 41.9707 45.5048C42.559 45.1377 43.0983 44.6973 43.6375 44.2568C44.2258 43.7919 44.7651 43.7185 45.4269 44.1345C47.6329 45.5048 50.0841 45.6516 52.5108 45.0643C55.6728 44.3057 58.075 42.5928 58.9084 39.2404C59.2025 38.0658 60.0604 37.5029 61.1634 37.038C62.0949 36.6465 63.0999 36.0592 63.6881 35.2761C67.4875 30.2352 65.2569 22.9919 59.3496 20.912C58.222 20.5204 56.9719 20.3981 55.7709 20.1534C55.0845 20.0065 54.3492 19.9576 54.6188 18.8809C55.3051 16.0668 53.1481 13.5953 50.2802 14.0602C48.9076 14.2805 48.2703 13.791 48.0006 12.5675C47.6084 10.7567 46.3829 9.60659 44.9121 8.67671C41.1618 6.40095 37.1419 5.98495 32.9749 6.86589C29.5923 7.57554 26.6019 9.06824 24.5184 11.9802C23.832 12.959 23.0967 12.6654 22.3368 12.1026C19.0032 9.65553 15.3019 11.7355 14.6401 14.672C14.395 15.7242 13.7332 15.9444 12.7037 15.7487C11.9193 15.5774 11.0614 15.4795 10.3015 15.6753C7.40914 16.4094 4.95797 19.7129 5.05602 22.7228C5.08053 23.7995 4.76187 24.6315 3.85494 25.2188C3.43824 25.4879 3.07056 25.8061 2.70289 26.1242C1.03609 27.6169 1.0606 29.2809 2.75191 30.7002C3.02154 30.9449 3.31568 31.1896 3.60982 31.3853C4.44322 31.9481 4.6148 32.511 4.10006 33.5143C2.18814 37.1359 2.40875 40.782 4.71285 44.1345C7.04147 47.5359 11.331 48.7349 15.7677 47.438C17.2629 46.9975 17.606 47.0954 17.8512 48.686C18.2188 51.1575 18.4149 53.6535 18.6846 56.0516Z" fill="#393939"/>
<path d="M63.7127 20.447C68.9827 23.4324 71.0417 32.4865 66.4825 36.6954C69.1053 30.7246 68.1248 25.3656 63.7127 20.447Z" fill="#393939"/>
<path d="M50.7214 10.3896C50.9665 10.7567 51.3342 11.0259 51.7754 11.1238C53.8834 11.6866 55.7218 12.6165 56.8249 14.5986C56.9474 14.8188 57.0455 15.039 57.119 15.2593C57.168 15.4061 57.1925 15.5529 57.2661 16.0179C55.8689 13.791 53.908 12.9101 51.8245 12.2983C50.7705 11.9802 50.1086 11.711 49.79 10.5854C49.4468 9.31294 48.3193 7.74683 47.4369 6.57225C49.1282 8.11389 49.9125 9.16612 50.7214 10.3896Z" fill="#393939"/>
<path d="M3.29117 29.8926C2.58033 28.3265 3.26666 27.2009 5.47272 25.9529C4.90895 23.8484 5.42369 21.8418 6.62477 20.031C7.58073 18.5628 9.49264 17.3882 11.184 16.8743C10.179 17.4371 8.3651 18.832 7.58073 20.031C6.55123 21.5971 6.061 23.359 6.4777 25.2432C6.6983 26.2465 6.18356 26.6625 5.42369 27.0051C4.27164 27.5435 3.26666 28.2042 3.29117 29.8926Z" fill="#393939"/>
<path d="M4.68834 36.8422C4.71285 41.1491 6.79635 44.0366 10.5957 45.8229C9.1985 46.1166 7.28659 45.358 6.13453 43.8897C4.46773 41.7853 3.85494 39.4361 4.68834 36.8422Z" fill="#393939"/>
<path d="M18.3659 46.2879C20.0327 48.3923 20.5965 50.4968 19.4934 52.9194C19.518 50.717 19.2483 48.5147 18.3659 46.2879Z" fill="#393939"/>
</svg>
