<svg width="64" height="64" viewBox="0 0 64 64" fill="none" xmlns="http://www.w3.org/2000/svg">
<path d="M56 13.2999C56 11.1999 54.3 9.4999 52.3 9.4999C50.4 9.4999 48.8 10.8999 48.6 12.7999L47.4 8.1999C46.9 6.1999 44.8 4.9999 42.8 5.5999C40.8 6.0999 39.6 8.1999 40.2 10.1999L41 13.4999L40.2 11.9999C39.2 10.1999 36.9 9.5999 35.1 10.5999C33.3 11.5999 32.7 13.8999 33.8 15.6999L37.1 21.3999H35.5C34.2 21.3999 32.9 22.0999 32.3 23.2999L29.5 28.1999C29 29.0999 28.9 30.0999 29.1 30.9999C28.8 30.9999 28.5 30.9999 28.2 30.9999C27.7 30.9999 27.3 31.3999 27.3 31.8999V40.2999C27.3 42.2999 27.9 47.9999 30.4 50.0999L33 52.1999C33 52.2999 32.9 52.3999 32.9 52.4999V58.1999C32.9 58.6999 33.3 59.0999 33.8 59.0999H54.1C54.6 59.0999 55 58.6999 55 58.1999V52.4999C55 52.3999 55 52.3999 55 52.2999C55 52.1999 54.9 51.6999 54.3 51.5999C55.3 48.9999 56 45.2999 56 40.6999V31.8999V13.2999ZM50.3 13.2999C50.3 12.1999 51.2 11.2999 52.3 11.2999C53.4 11.2999 54.3 12.1999 54.3 13.2999V28.1999L51.8 24.8999L50.3 19.1999V13.2999ZM41.8 9.6999C41.5 8.5999 42.1 7.4999 43.2 7.1999C44.3 6.8999 45.4 7.4999 45.7 8.5999L49.2 21.9999C48.6 21.6999 48 21.4999 47.3 21.4999H45.6L44.3 19.2999L41.8 9.6999ZM35.3 14.8999C34.7 13.8999 35.1 12.6999 36 12.0999C37 11.4999 38.2 11.8999 38.7 12.7999L43.6 21.3999H39L35.3 14.8999ZM53.2 57.1999H34.7V53.1999C44.9 53.1999 51.1 53.1999 53.3 53.1999V57.1999H53.2ZM54.3 31.7999V40.6999C54.3 45.3999 53.6 49.2999 52.3 51.4999C51.5 51.4999 50.4 51.4999 49 51.4999C45.8 51.4999 41.2 51.4999 35 51.4999L31.4 48.5999C29.7 47.2999 29 42.7999 29 40.1999V32.7999C29.6 32.8999 30.2 33.0999 30.7 33.3999C30.8 33.3999 30.8 33.4999 30.9 33.4999C32.6 34.4999 33.8 36.2999 33.8 38.4999V40.2999C33.8 40.4999 33.9 40.7999 34.1 40.8999L35.7 42.3999C37.1 43.6999 39.1 44.2999 40.9 43.7999C42.6 43.3999 43.9 42.1999 44.4 40.5999L47 32.9999C47.1 32.6999 47 32.3999 46.9 32.1999L43.6 27.5999C43.4 27.3999 43.2 27.1999 42.9 27.1999H37.1C36.8 27.1999 36.5 27.3999 36.4 27.5999L34.4 31.0999C33.9 31.9999 32.7 32.3999 31.8 31.8999C31.8 31.8999 31.7 31.8999 31.7 31.7999C31.2 31.4999 30.9 31.0999 30.8 30.5999C30.7 30.0999 30.7 29.4999 31 29.0999L33.8 24.1999C34.2 23.5999 34.8 23.1999 35.5 23.1999H47.4C48.1 23.1999 48.7 23.4999 49.1 24.0999C49.1 24.0999 49.1 24.0999 49.1 24.1999L53.9 30.4999C54.2 30.8999 54.3 31.3999 54.3 31.7999ZM33.8 33.6999C34.6 33.3999 35.4 32.7999 35.8 31.9999L37.5 28.9999H42.3L45.1 32.8999L42.7 40.0999C42.4 41.0999 41.5 41.8999 40.4 42.1999C39.1 42.4999 37.7 42.0999 36.7 41.1999L35.4 39.8999V38.4999C35.6 36.6999 34.9 34.9999 33.8 33.6999ZM18.8 5.3999C12.9 5.3999 8 10.2999 8 16.3999C8 22.3999 12.9 27.2999 18.8 27.2999C24.8 27.2999 29.6 22.3999 29.6 16.3999C29.7 10.2999 24.8 5.3999 18.8 5.3999ZM18.8 25.5999C13.8 25.5999 9.7 21.4999 9.7 16.3999C9.7 11.2999 13.8 7.1999 18.8 7.1999C23.8 7.1999 27.9 11.2999 27.9 16.3999C28 21.3999 23.9 25.5999 18.8 25.5999ZM25.1 11.6999C24.6 11.1999 24 10.9999 23.4 10.9999C22.8 10.9999 22.2 11.2999 21.8 11.6999L17.5 15.9999L15.9 14.3999C15.5 13.9999 14.9 13.6999 14.2 13.6999C13.5 13.6999 13 13.8999 12.6 14.3999C11.7 15.2999 11.7 16.7999 12.6 17.6999L15.9 20.9999C16.4 21.4999 17 21.6999 17.6 21.6999C18.2 21.6999 18.8 21.4999 19.3 20.9999C20.5 19.6999 21.8 18.4999 23 17.1999C23.7 16.3999 24.5 15.6999 25.2 14.8999C26 14.0999 26 12.5999 25.1 11.6999ZM23.9 13.7999C23.2 14.5999 22.4 15.2999 21.7 16.0999C20.5 17.2999 19.2 18.5999 18 19.8999C17.8 20.0999 17.4 20.0999 17.1 19.8999L13.8 16.5999C13.6 16.2999 13.6 15.8999 13.8 15.6999C13.9 15.5999 14.1 15.4999 14.2 15.4999C14.4 15.4999 14.5 15.5999 14.6 15.6999L16.8 17.9999C17 18.1999 17.2 18.2999 17.4 18.2999C17.6 18.2999 17.8 18.1999 18 17.9999L22.9 12.9999C23 12.8999 23.2 12.7999 23.3 12.7999C23.4 12.7999 23.6 12.8999 23.7 12.9999C24.1 13.1999 24.1 13.4999 23.9 13.7999Z" fill="#393939"/>
</svg>
