<svg width="130" height="120" viewBox="0 0 130 120" fill="none" xmlns="http://www.w3.org/2000/svg">
<path fill-rule="evenodd" clip-rule="evenodd" d="M54.2 74.1C55.1 74.1 55.5999 74.7 55.5999 75.5C55.5999 76.3 55 76.9 54.2 76.9H29.8C29 76.9 28.4 76.3 28.4 75.5C28.4 74.6 29 74.1 29.8 74.1H54.2ZM21.6 62.2H46C46.9 62.2 47.4 62.8 47.4 63.6C47.4 64.4 46.9 64.9 46.1 65H46H21.6C20.8 65 20.2 64.4 20.2 63.6C20.2 62.8 20.7 62.3 21.5 62.2H21.6ZM29.8 50.4H54.2C55.1 50.4 55.5999 51 55.5999 51.8C55.5999 52.6 55.0999 53.1 54.2999 53.2H54.2H29.8C29 53.2 28.4 52.6 28.4 51.8C28.4 51 28.9 50.5 29.7 50.4H29.8ZM106.6 48.2C109.1 53 110.4 58.5 110.4 64.2C110.4 83.8 94.3999 99.8 74.7999 99.8C65.2999 99.8 56.4 96.1 49.7 89.4C49.1 88.8 49.1 88 49.7 87.4C50.3 86.8 51.1 86.8 51.7 87.4C57.9 93.6 66.1 97 74.9 97C93 97 107.7 82.3 107.7 64.2C107.7 59.3 106.6 54.6 104.6 50.4L106.6 48.2ZM102.3 52.7C103.8 56.3 104.7 60.2 104.7 64.3C104.7 80.7 91.3999 94 75 94C68.9 94 63.1 92.2 58.2 88.8C57.5 88.4 57.3999 87.5 57.7999 86.8C58.2 86.2 59.1 86.1 59.9 86.5C64.3 89.6 69.5 91.2 75 91.2C89.7999 91.2 101.8 79.2 101.8 64.4C101.8 61.1 101.2 57.9 100.1 55L102.3 52.7ZM101.9 40.4C103.2 40.2 104.4 40.9 104.9 42C105.4 43.1 105.2 44.5 104.3 45.4C94 55.8 86.5 64.2 76 74.8C74.9 75.9 73.2 76 72 75L59.2 64.2C58.6 63.7 58.2 63 58.2 62.2C58.1 61.4 58.4 60.6 58.9 60C59.4 59.4 60.1 59 60.9 59C61.7 58.9 62.5 59.2 63.0999 59.7L73.7999 68.7C83.2 59.2 90.5 51.1 100.3 41.3C100.7 40.8 101.3 40.5 101.9 40.4ZM75 34.7C82.5 34.7 89.3 37.5 94.5 42L92.5 44C87.9 40 81.7 37.5 75 37.5C69.2999 37.5 63.7999 39.2 59.2999 42.6C58.5999 43 57.7 42.9 57.2999 42.3C56.8999 41.7 57 40.7 57.5999 40.3C62.6999 36.7 68.7999 34.7 75 34.7ZM81.2999 20C82.2 20 82.7 20.6 82.7 21.4C82.7 22.2 82.2 22.7 81.4 22.8H81.2999H76.2V28.7C84.5 29 92 32.1 97.9 37.1L98.3 37.4L98.6 37.7L96.6 39.8C90.7999 34.7 83.0999 31.5 74.7999 31.5C65.7999 31.5 57.2999 35.2 50.9 41.8C50.2999 42.4 49.5 42.4 48.9 41.8C48.2999 41.2 48.2999 40.4 48.9 39.8C55.2999 33 63.7 29.2 72.7999 28.7H73.2999V22.8H68.4C67.6 22.8 67 22.2 67 21.4C67 20.6 67.5 20.1 68.2999 20H68.4H81.2999Z" fill="#393939"/>
</svg>
