<svg width="106" height="78" viewBox="0 0 106 78" fill="none" xmlns="http://www.w3.org/2000/svg">
<g id="Frame" clip-path="url(#clip0_576_7753)">
<path id="Vector" d="M104.308 0H1.69202C0.796244 0 0 0.796244 0 1.69202V76.2404C0 77.1361 0.796244 77.9324 1.69202 77.9324H104.308C105.204 77.9324 106 77.1361 106 76.2404V1.69202C106 0.796244 105.204 0 104.308 0ZM102.616 6.17089L74.6479 26.5746H80.3211L102.715 10.2516V29.8592H62.107V3.38404H92.4639L65.3915 23.0911V26.5746H66.1878L98.0376 3.38404H102.616V6.17089ZM8.26103 3.38404L40.1108 26.5746H40.5089V22.7925L13.9343 3.38404H43.893V29.8592H3.28451V9.95305L26.077 26.4751H31.7502L3.28451 5.8723V3.38404H8.26103ZM3.28451 72.3587L32.0488 51.4573H26.3756L3.28451 68.1784V48.0732H43.893V74.5484H14.3324L40.6085 55.4385V51.3577L9.15681 74.2498C8.95775 74.3493 8.85822 74.5484 8.85822 74.5484H3.28451V72.3587ZM47.1775 74.5484V46.3812C47.1775 45.4854 46.3812 44.6892 45.4854 44.6892H3.28451V33.1437H45.4854C46.3812 33.1437 47.1775 32.3474 47.1775 31.4516V3.38404H58.723V31.5512C58.723 32.4469 59.5192 33.2432 60.415 33.2432H102.616V44.7887H60.415C59.5192 44.7887 58.723 45.4854 58.723 46.4808V74.6479H47.1775V74.5484ZM97.739 74.5484L65.8892 51.3577H65.4911V55.1399L92.1653 74.5484H62.107V48.0732H102.715V67.9793L79.923 51.3577H74.2498L102.616 71.9606V74.5484H97.739Z" fill="#393939"/>
</g>
<defs>
<clipPath id="clip0_576_7753">
<rect width="106" height="78" fill="white"/>
</clipPath>
</defs>
</svg>
