<svg width="78" height="78" viewBox="0 0 78 78" fill="none" xmlns="http://www.w3.org/2000/svg">
<path d="M59.1811 77.8H50.9811C50.0811 77.8 49.2811 77.1 49.2811 76.2V50.3H43.8811L30.8811 76.9C30.5811 77.5 30.0811 77.8 29.3811 77.8H19.6811C19.0811 77.8 18.5811 77.5 18.2811 77C17.9811 76.6 17.8811 76 18.1811 75.5L32.2811 46.3C24.8811 42.1 21.2811 35.2 21.2811 25C21.2811 17.4 23.6811 11 28.1811 6.6C32.4811 2.4 38.7811 0 45.6811 0H59.1811C60.0811 0 60.8811 0.7 60.8811 1.6V76.2C60.8811 77.1 60.0811 77.8 59.1811 77.8ZM52.5811 74.6H57.4811V3.2H45.6811C39.5811 3.2 34.1811 5.2 30.3811 8.9C26.4811 12.7 24.3811 18.3 24.4811 25C24.4811 34.5 27.8811 40.6 35.0811 44.1C35.8811 44.5 36.2811 45.4 35.8811 46.3L22.2811 74.6H28.3811L41.3811 48C41.6811 47.4 42.1811 47.1 42.8811 47.1H50.9811C51.8811 47.1 52.5811 47.8 52.5811 48.7V74.6Z" fill="black"/>
<path d="M50.9811 42.2H46.6811C36.9811 42.2 31.1811 35.7 31.1811 24.8C31.1811 11.3 39.4811 6.5 46.6811 6.5H50.9811C51.8811 6.5 52.5811 7.2 52.5811 8.1V40.5C52.5811 41.4 51.8811 42.2 50.9811 42.2ZM46.6811 9.7C40.7811 9.7 34.4811 13.6 34.4811 24.7C34.4811 37 42.0811 38.9 46.6811 38.9H49.3811V9.7H46.6811Z" fill="black"/>
</svg>
