<svg width="292" height="257" viewBox="0 0 292 257" fill="none" xmlns="http://www.w3.org/2000/svg">
<path d="M170.9 47.8C169.4 45.5 158.5 22.2 158.6 21.5C158.7 21 159 20.7 159.6 20.6C160.3 20.5 160.8 21.2 164.1 28.1C166.1 32.2 167.8 35.6 168 35.6C168.1 35.6 168.5 35 168.8 34.3C169.9 31.9 172.1 29.9 173.5 29.9C174.7 29.9 176.1 31.2 177.3 33.5C179 36.9 181.6 43.8 181.3 44.4C181.2 44.7 180.7 44.9 180.2 44.9C179.4 44.8 179.1 44.3 177.4 39.9C174.1 31.4 173.6 30.8 171.5 33.9C170.9 34.7 170.2 36.2 169.9 37.1L169.3 38.9L171.3 43.1C173 46.6 173.3 47.4 172.9 47.9C172.3 48.8 171.6 48.7 170.9 47.8ZM156.5 49.7C155.5 49.5 153.7 47.7 152.9 46.1C152.1 44.4 151.8 40.6 152.4 39.2C153.4 36.8 156.8 34.7 159 35.2C160.2 35.4 160.9 36.6 160.2 37.3C159.8 37.7 159.5 37.8 158.9 37.4C158.1 37 157.1 37.4 155.6 38.5C154.1 39.7 153.8 42.1 154.7 44.4C155.6 46.5 156.6 47.4 158.3 47.4C159.8 47.4 160.6 47 162.9 45.1C165.5 43 166.7 44.9 164.2 47.2C161.7 49.5 159.4 50.3 156.5 49.7ZM142.2 52.1C140.8 51.7 140.2 51 140.5 50.2C140.7 49.7 141.1 49.6 143.3 49.8C145.6 50 145.9 49.9 146.7 49.2C148.4 47.5 147.5 46.3 144.1 45.8C141.9 45.5 140.3 44.4 139.4 42.6C138.8 41.4 138.8 41 139.1 39.8C139.4 39 140 38.1 140.6 37.7C142.8 36.2 146.1 36.5 145.9 38.2C145.8 38.9 145.6 39 144.1 39C142.1 39 141.3 39.6 141.3 41C141.3 42.4 142.6 43.3 144.9 43.6C147.3 43.9 148.6 44.7 149.3 45.9C150 47.2 150 48.2 149.3 49.5C148.3 51.8 144.9 53 142.2 52.1ZM127 54.4C125.8 53.4 124.1 50.4 123.4 47.9C123 46.5 122.8 46.4 121.8 46.5C120.9 46.5 120.7 46.4 120.6 45.7C120.5 45.1 120.7 44.8 121.4 44.5C121.9 44.3 122.3 44.1 122.3 44C122.3 43.9 121.5 41 120.5 37.5C119.5 34 118.8 30.9 118.9 30.6C119.2 29.9 120.1 30 120.7 30.9C121 31.4 122 34.3 122.9 37.4C123.8 40.5 124.6 43.2 124.7 43.3C124.8 43.4 125.5 43.3 126.3 43C127.9 42.5 128.8 42.7 128.8 43.5C128.8 44.1 126.8 45.5 125.8 45.5C125.4 45.5 125.2 45.7 125.2 45.9C125.2 46.8 127.2 51 128.1 52C129 53 129.2 53 130.2 52.7C130.8 52.5 132.1 51.6 133.1 50.7C135.1 48.9 135.5 48.8 136 49.8C136.3 50.4 136.2 50.7 135.2 51.8C132.3 55.3 129.1 56.2 127 54.4ZM108.3 56.3C106.9 55.6 105.3 52.8 104.1 49.1C102.9 45.4 102.7 44.4 103.5 44.1C104.2 43.8 105 44.5 105.3 45.7C105.8 47.6 107.4 51.7 108.3 53C109.8 55.3 111.1 55.1 112.6 52.2C113.6 50.2 113.6 49.9 112.4 45.8C111.7 43.4 111.7 43.1 112.2 42.6C113.1 41.7 113.6 42.5 115.1 46.9C116.5 51.4 117.7 53.3 119 53C120.2 52.8 120.8 53.6 120.1 54.6C119.2 55.8 117.6 55.6 116.1 54.2L114.9 53L114.1 54.2C112.6 56.5 110.3 57.4 108.3 56.3ZM92.4 51.6C97.4 50.3 97.2 50.4 97.2 49.5C97.2 48.3 95.8 46.9 94.5 46.6C92.5 46.2 89.8 48.8 89.1 51.6C88.9 52.5 88.9 52.6 89.6 52.4C89.9 52.2 91.2 51.9 92.4 51.6ZM91.1 61.4C88.3 60 86.5 56.8 86.5 53.4C86.5 50.1 89 46 91.8 44.8C95.6 43.2 99.4 45.7 99.4 49.7C99.4 50.8 99.2 51.5 98.8 51.9C98.2 52.5 91.5 54.3 90 54.3C88.9 54.3 88.8 54.7 89.8 56.7C90.6 58.3 92.4 59.7 93.7 59.7C94.9 59.7 97.2 58.6 98 57.7C98.9 56.6 100.3 56.6 100.5 57.7C100.6 58.5 99 60.3 97.3 61.2C95 62.2 92.9 62.3 91.1 61.4ZM76.3 65.6C78 64.6 79.6 62.6 80.5 60.2C81.5 57.6 81.1 53.6 79.6 50.8C77.2 46.3 72.3 42.9 67.3 42C64.6 41.5 61.6 41.9 61.7 42.6C61.7 42.9 64.3 48.4 67.4 55C73.7 68.4 72.9 67.5 76.3 65.6ZM71.3 68.6C70.3 67 58.8 42.4 58.8 41.8C58.8 40.5 60.4 39.9 64.2 39.8C67 39.7 68.2 39.8 70.2 40.4C75.6 42 79.6 45.4 82 50.4C83.3 53 83.4 53.3 83.4 56.8C83.4 60 83.3 60.6 82.4 62.4C80 67.1 72.9 71.1 71.3 68.6ZM128.1 115.7C129 115.4 128.9 115.4 127.5 114.8C125.8 114.1 125.3 113.3 126.1 112.5C126.6 112 126.9 112.1 129.1 113C130.5 113.5 131.7 114.1 132 114.3C132.2 114.5 132.6 114.5 132.9 114.4C133.2 114.2 132.6 113.8 131.4 113.4C130 112.8 129.4 112.4 129.3 111.8C129.1 110.5 130.1 110.5 133.5 111.9C136.6 113.1 138.5 113.5 138.5 112.9C138.5 112.7 137.6 112.3 136.6 111.9C135.2 111.4 134.7 111 134.6 110.4C134.4 109.1 135.5 109.1 139.1 110.5C141 111.2 142.9 111.8 143.2 111.8C144.4 111.8 143.8 111.1 142.1 110.5C140.1 109.8 139.6 109.1 140.5 108.2C141 107.7 141.4 107.8 144.4 109C148.5 110.6 150.7 110.8 147.3 109.2C145.6 108.4 145.1 108 145.1 107.4C145.1 107 145.3 106.6 145.6 106.5C146.1 106.3 151.2 108.2 152.1 109C152.6 109.4 155.1 109 155.1 108.6C155.1 108.5 154.2 108 153.1 107.5C151.5 106.8 151.1 106.5 151.1 105.8C151.1 105 151.2 104.9 152.3 105.1C152.9 105.2 154.8 105.8 156.4 106.4C158.6 107.3 159.6 107.5 160.4 107.3L161.4 107L159.8 106.2C158.7 105.7 158.2 105.2 158.1 104.6C157.9 103.5 159.3 103.5 162.2 104.9C164.6 106 165.4 106.2 166.4 105.8C166.9 105.6 166.5 105.3 165.1 104.6C163.7 103.9 163.2 103.5 163.2 103C163.2 101.9 164.4 102 167.4 103.3C170.1 104.5 171.6 104.9 171.6 104.3C171.6 104.1 171 103.8 170.3 103.4C169.5 103 169 102.5 169 102.1C169 100.9 170 100.9 172.8 102.2C174.5 103 175.8 103.4 176.4 103.3C177.6 103.1 177.5 102.8 175.9 101.8C174.4 101 174 99.8 175 99.4C175.3 99.3 176.7 99.9 178.2 100.6C180 101.5 181.2 102 181.8 101.9C182.9 101.7 182.7 101.3 180.8 100.4C179.7 99.8 179.4 99.5 179.5 98.9C179.7 97.7 180.6 97.8 183.4 99.4C185.6 100.7 186.2 100.8 187.1 100.6L188.2 100.3L186.3 99.2C184.9 98.4 184.4 98 184.5 97.4C184.7 96.2 186.1 96.3 188.6 97.9C190.8 99.3 192.4 99.8 192.4 99C192.4 98.8 192.1 97.6 191.7 96.4C190.3 92 185.9 86.5 180.7 82.8C175.9 79.3 169.4 77.8 164.6 79.1C162.1 79.8 160.2 80.8 155.7 83.9C151.2 87 147.9 88.6 145.5 88.9C143.1 89.2 140.7 88.1 137.3 85.1C133.2 81.5 130.9 80.8 128.6 82.2C126.1 83.7 126.1 86 128.4 89.6C130.5 92.8 129.9 94.8 126.2 96.9C124.2 98.1 121.9 101 120.8 104.1C120.2 105.7 120.2 105.9 120.8 107.7C121.4 109.6 126.2 116.2 127 116.2C127 115.9 127.6 115.8 128.1 115.7ZM143.2 145.7C143.9 145.3 144.8 145 145.1 145C146.3 145 145.5 144.4 143.6 143.9C142 143.5 141.6 143.2 141.6 142.7C141.6 142.1 141.8 142 143.6 142C144.7 142 146.7 142.5 148.2 143C150 143.6 151.2 143.8 151.8 143.6C152.6 143.4 152.6 143.3 150.8 142.7C149.7 142.4 148.7 142.1 148.4 142.1C147.8 142.1 147.2 141 147.4 140.4C147.6 139.7 148.8 139.9 152.9 141C156.3 142 158.6 142.1 158.6 141.4C158.6 141.3 157.3 140.7 155.6 140.1C153.2 139.3 152.6 138.9 152.6 138.4C152.6 137.2 154.5 137.3 158.6 138.9C162.4 140.4 163.4 140.6 163.7 140C163.8 139.8 162.9 139.3 161.7 138.9C159.9 138.2 159.6 138 159.6 137.3C159.8 136.1 161.1 136.2 164.5 137.6C167.4 138.8 167.8 138.8 169.1 138.5L170.5 138.1L168 137.3C165.4 136.5 164.8 135.7 166.1 134.8C166.8 134.4 171.5 135.7 172.6 136.6C173 137 173.5 137.1 174.3 136.9C175.6 136.6 175.3 136.3 173.1 135.6C171.5 135.2 171.1 134.4 171.9 133.6C172.4 133.1 172.8 133.2 175.8 134.2C178.4 135.1 179.4 135.3 180.2 135.1C181.1 134.8 181.2 134.8 180.5 134.7C179.5 134.5 178.9 133.8 179.1 133.1C179.5 132.1 180.3 132.1 182.7 133C185.1 133.9 186.8 133.9 184.7 133C183.9 132.7 183.6 132.3 183.7 131.9C183.9 130.7 186.3 130.9 187.6 132.2C188.2 132.8 188.5 132.9 189.7 132.5C190.5 132.3 191.1 132 191.1 131.8C191.1 131.6 191.2 131 191.3 130.4C191.5 129.3 191.4 129.3 189.2 128.2C186.1 126.7 185 125.5 184.7 123.4C184.4 120.9 185.2 118.8 188 114.6C190.7 110.5 192 107.2 192.4 103.8L192.6 101.6L191.2 101.8C188.1 102.3 178.3 105 177.7 105.4C177.4 105.7 176.6 105.9 175.9 105.9C174.7 105.9 128.6 117.6 128.1 118.1C127.9 118.2 128 119.1 128.2 119.9C128.4 120.8 128.5 121.9 128.4 122.4C128 124 126.5 125.4 124.8 125.9C122.2 126.6 121.4 128.5 122.8 130.8C123.6 132.1 125 133.2 128.2 135C131.7 136.9 132.2 137.6 132.4 140.7C132.6 143.7 133.1 144.5 135.5 145.7C138.5 147.3 140.2 147.3 143.2 145.7ZM182.9 167.9C183.4 167.4 183.4 167 183 163.9C182.8 162 182.6 160.1 182.8 159.7C183.3 157.5 187.8 156.6 195.3 157.2C200.9 157.7 202.5 157.6 205.6 156.4C208 155.5 211.7 152.2 212.6 150C213.2 148.6 213.2 148.5 212.5 146.1C210.7 140.6 205.9 137.5 198.5 137C195.3 136.8 192 135.7 192 134.9C192 134.7 191.8 134.6 191.5 134.6C191 134.6 151.1 146.2 150.9 146.5C150.8 146.6 150.9 147.3 151.1 148.1C151.4 149.3 151.3 150.2 150.6 152.9C148.6 160.3 148.6 161.3 150.5 163.4C151.6 164.6 154.7 166.1 156.2 166.1C157.5 166.1 158.9 165.1 160.1 163.3C160.7 162.3 161.8 161 162.5 160.4C163.5 159.5 164 159.3 165.7 159.3C168.3 159.3 169.4 159.9 171.5 162.6C174.6 166.7 175.7 167.6 178.3 168.3C179.7 168.8 182.2 168.6 182.9 167.9ZM176.4 170.4C174 169.5 172.4 168.2 170.2 165.2C169 163.6 167.6 162.1 167.1 161.9C165.3 161.2 164.1 161.8 162.5 164.1C159.7 168.2 157.5 169.2 153.9 168.2C150.9 167.3 148.9 166 147.7 164.2C146.2 161.9 146.3 159 147.8 153.5C148.8 150.1 148.9 149.3 148.5 148.5C148.1 147.6 148 147.6 146 147.8C144.9 147.9 143.3 148.3 142.5 148.7C140.4 149.7 137.9 149.6 135.5 148.5C131.3 146.5 130.1 145 130.1 141.6C130.1 140.4 129.9 139.2 129.6 138.9C129.4 138.6 128.2 137.8 127 137.2C122.3 134.6 120.6 132.9 119.9 129.9C119.3 127.5 121 124.8 123.7 123.9C127.4 122.7 127 120.6 122 114.4C116.9 108.1 116.6 104.8 120.5 98.7C121.8 96.6 123 95.6 125.4 94.1C126.2 93.6 126.9 93 127 92.7C127.1 92.4 126.6 91.1 125.8 89.6C125 88.2 124.3 86.5 124.2 85.9C123.8 84.2 124.6 82.2 125.9 80.8C127.4 79.4 128.6 78.9 130.9 78.9C133.2 78.9 134.7 79.7 138.1 82.5C139.5 83.6 141.2 84.9 141.9 85.3C144.6 86.9 147.6 85.9 154.5 81.2C156.6 79.7 159.4 78 160.7 77.4C166.8 74.5 174.6 75.5 181.4 80C184.8 82.2 189.8 87.3 191.5 90.1C196.2 98.1 196 107 190.9 114.5C188.1 118.6 187.2 120.4 187.2 121.9C187.2 124 187.5 124.4 189.9 125.5C193.8 127.5 194.5 128.6 193.7 131.1C193.5 131.9 193.4 132.4 193.7 132.9C194.2 133.8 196.3 134.4 198.7 134.4C201.5 134.4 204.2 135 207 136.4C211.8 138.6 214.9 142.9 215.3 147.6C215.4 149.5 215.4 150 214.4 151.7C213.3 153.8 210.2 156.7 208.2 157.8C204.9 159.5 203.2 159.7 195.3 159.4C189.3 159.2 187.7 159.3 186.5 159.7C185.5 160.1 185.1 160.4 185.1 160.9C185.1 161.3 185.3 162.7 185.5 164C185.7 165.4 185.8 166.6 185.7 166.9C185.6 167.1 185.5 167.8 185.3 168.3C185 169.9 183.2 170.7 180.3 170.7C178.9 170.9 177.1 170.6 176.4 170.4ZM179.4 185.2C205.9 181.6 239.1 177.2 253.1 175.3C267.1 173.4 279 171.8 279.5 171.6C280.5 171.3 280.5 171.2 264.3 146.9C232.5 98.9 219.3 78.9 195.3 42.7C181.9 22.5 170.7 5.7 170.4 5.5C170.1 5.3 169.4 5.1 168.9 5.2C168.4 5.3 165.9 5.5 163.3 5.7C160.7 5.9 157.1 6.3 155.2 6.6C151.7 7.1 139.6 8.3 129.9 9C95.2 11.4 87.1 12.1 70.5 13.8C59 15 43.3 17.3 36.1 18.8C30.5 20 25.2 22.2 25.4 23.3C25.5 23.6 31.5 34.1 38.8 46.6C50.7 66.9 63.6 89 111.5 171.2C118.1 182.6 123.7 192 123.8 192.2C124 192.5 125.1 192.4 127.6 192.1C129.5 191.9 152.8 188.8 179.4 185.2ZM236 204C235 202.7 236.8 202 240.4 202.2C241.9 202.3 242.4 202.4 242.5 202.9C242.7 203.8 241.7 204.2 238.9 204.3C237.1 204.4 236.2 204.3 236 204ZM145.2 204.4C144.9 204.1 144.9 203.5 145.2 203C145.6 202.3 254.7 187.7 255.3 188.2C256 188.8 255.9 189.6 255 190C254.6 190.2 234.8 192.9 211.1 196.1C187.4 199.3 163.4 202.5 157.7 203.3C147 204.7 145.6 204.8 145.2 204.4ZM157.3 214.8C156.9 214.4 157 213.3 157.4 213.1C157.7 212.9 162.7 212.2 207.6 206C226.7 203.4 228.9 203.1 229.4 203.6C230.1 204.3 229.8 205.2 228.7 205.4C228.2 205.5 217.1 207 204 208.8C190.9 210.6 175.5 212.7 169.9 213.5C159.6 215 157.8 215.2 157.3 214.8ZM146.3 230.6C145.1 229.1 144.8 229.2 202.3 222C249.3 216 257.7 215.1 258.1 215.5C258.7 216.1 258.4 217.2 257.4 217.4C257 217.5 239.9 219.7 219.5 222.2C199.1 224.7 174.7 227.8 165.3 229C155.9 230.2 147.9 231.2 147.5 231.2C147.1 231.2 146.6 230.9 146.3 230.6ZM136.1 238.5C147.2 237.4 182.4 234 214.3 230.8C246.2 227.7 272.4 225.1 272.5 225C272.8 224.7 272.8 210.9 272.5 194.9L272.2 178.2L266.2 179C262.9 179.4 230.8 183.8 194.8 188.6C158.8 193.4 128 197.6 126.3 197.8C123.5 198.2 123.3 198.3 122.3 199.5C120.9 201.3 120 203.1 118.6 207.6C115.9 215.8 114.4 224.3 114.4 231.4C114.4 237.4 114.7 240.5 115.4 240.5C115.7 240.5 125 239.6 136.1 238.5ZM201.8 241C248.3 236.6 286.6 232.8 286.7 232.6C287.1 232.2 278.7 216 278.1 216C278 216 278 218.8 278.1 222.1C278.3 228.2 278.3 228.3 277.5 229.1C277.1 229.6 276.3 230 275.9 230.1C275.4 230.2 239.2 233.7 195.4 238C151.6 242.3 115.7 245.8 115.7 245.8C115.7 245.9 115.7 246.6 115.8 247.4C115.9 248.5 116.1 248.9 116.6 248.9C116.9 249.1 155.2 245.5 201.8 241ZM19.1 89.6C18.7 88.6 19.6 85.9 22.2 80.7C26 73.1 29.4 68.9 30.2 71C30.3 71.3 30.3 71.9 30 72.2C26.6 76.7 23.8 81.8 22 86.6C21.5 88 20.9 89.4 20.7 89.6C20.2 90.4 19.4 90.3 19.1 89.6ZM14.7 93C14.1 91.9 14.5 88.9 15.8 84.3C17.8 77.3 20.5 72 25.6 65.2C27.8 62.2 28.6 61.5 29.2 61.6C30.4 61.8 30.3 62.9 28.8 64.7C22.7 71.9 17.6 83.1 16.9 90.7C16.7 93.3 16.6 93.6 15.9 93.7C15.4 93.8 15 93.5 14.7 93ZM89.4 191.2C89 190.1 92 181.2 93.1 180.2C93.7 179.7 94.7 180 94.7 180.8C94.7 181.2 94.3 182.5 93.7 183.8C93.2 185.1 92.4 187.4 92 188.8C91.4 191 91.1 191.5 90.4 191.6C90 191.7 89.6 191.5 89.4 191.2ZM87.7 199.6C87.4 199.2 87.8 196.3 88.3 195C88.7 194 89.9 193.9 90.2 194.8C90.3 195.1 90.2 196.4 90 197.6C89.6 199.4 89.4 199.8 88.8 199.9C88.3 199.9 87.8 199.8 87.7 199.6ZM82.9 201C82.3 200.4 82.4 198.4 83.1 194.3C84.5 187.2 86.7 181.1 89.6 175.9C91.8 172 93.6 170 94.4 170.3C95.4 170.7 95.1 171.5 93.2 174.4C88.9 180.8 86.6 187.8 84.7 199.5C84.4 201.2 83.8 201.8 82.9 201ZM107.5 245.8C106.2 240.9 105.7 235.8 106 229.5C106.5 215.6 110.6 203.2 116.8 196.8L118.9 194.6L97.7 158.3C86.1 138.3 66.8 105.2 54.9 84.8C43 64.4 30.6 43.1 27.3 37.5C24 31.9 21.2 27.1 21.1 26.9C20.6 26.4 19.5 27.9 17.7 31.8C14.4 38.8 10.2 50.2 8.2 57.4C6 65.3 5.7 67.7 5.6 75.7C5.6 82.2 5.7 83.1 6.4 85.6C6.8 87.1 7.6 88.7 8.1 89.2C8.6 89.7 14.1 98.4 20.3 108.6C36.3 134.6 61.7 175.7 83.4 211C93.6 227.6 102.7 242.3 103.6 243.8C105 246.2 107.9 249.7 108.2 249.4C108.3 249.3 107.9 247.7 107.5 245.8ZM110.6 255.9C108.8 255.5 106 254.1 104.4 252.9C101.9 250.8 98.7 246.2 90.5 232.8C85.8 225.1 77.5 211.8 72.3 203.2C67 194.6 56.7 177.9 49.4 166.1C42.1 154.3 29.2 133.4 20.9 119.8C12.5 106.2 4.9 94 3.9 92.7C1.2 89 0 84.2 0 76C0 68.8 0.8 63 3.1 55.2C6.3 44.2 12.7 28.9 16.2 24.3C17.8 22.1 24.9 17.2 28.3 15.9C39.3 11.8 71 7.7 117 4.6C137 3.3 149.7 2.2 156 1.2C160.2 0.6 167 0 170 0C170.7 0 172 0.3 172.8 0.7C174.1 1.3 175 2.4 181.4 12.2C185.3 18.1 198.8 38.4 211.2 57.3C223.7 76.1 238 97.7 243 105.2C248 112.7 260 130.9 269.7 145.6C279.4 160.3 287.5 172.7 287.6 173.2C287.8 174.2 287.1 175.7 286.1 176.2C285.7 176.4 283.6 176.9 281.4 177.1L277.4 177.7L277.3 184.3C277.1 193.6 277.8 205 278.7 206C279.5 207 286.6 220.2 289.4 226.1C290.6 228.6 291.7 231.3 291.9 232.1C292.2 234 290.9 236.5 289 237.6C287.6 238.4 284.5 238.7 201.8 246.6C121.9 254.2 115.9 254.8 114.3 255.6C113.3 256.1 112.4 256.4 112.3 256.4C112.1 256.2 111.4 256.1 110.6 255.9Z" fill="#393939"/>
</svg>
