<svg width="213" height="320" viewBox="0 0 213 320" fill="none" xmlns="http://www.w3.org/2000/svg">
<g clip-path="url(#clip0_576_7841)">
<path fill-rule="evenodd" clip-rule="evenodd" d="M61.0065 251.935C61.0065 251.935 56.9394 229.866 51.8265 222.432C33.234 194.788 1.162 155.645 37.6497 105.235C65.7708 66.3235 141.303 79.2165 167.216 120.915C184.065 147.979 181.393 181.547 158.036 205.126C146.183 217.206 117.946 238.81 115.854 258.44L61.0065 251.935Z" fill="#FFBC36"/>
<path fill-rule="evenodd" clip-rule="evenodd" d="M42.7627 248.566C42.0655 248.683 41.3683 249.031 40.7873 249.496C39.9739 250.193 39.5091 251.238 39.5091 252.283C39.6253 256.929 38.2308 259.136 37.8822 262.853C37.0688 270.287 39.9739 277.372 45.3192 282.251C45.0868 283.296 44.7382 284.225 44.622 285.271C44.2734 288.755 45.4354 292.24 47.9919 295.144C48.5729 295.84 49.2701 296.537 50.0835 297.118C49.9673 297.931 49.8511 298.744 49.7349 299.557C48.9215 307.688 55.6613 315.47 65.3061 316.516C74.1375 317.445 85.5254 318.722 94.3568 319.652C103.885 320.697 111.439 314.773 113.182 306.875C113.414 305.83 113.53 304.784 113.53 303.739C117.597 301.416 120.27 297.931 121.316 294.098C121.548 293.053 121.548 292.007 121.548 290.962C121.548 290.73 121.548 290.381 121.432 290.149C127.126 286.548 131.309 280.508 132.82 273.423C133.169 271.797 133.169 270.171 133.052 268.545C132.936 266.802 132.82 264.828 133.285 262.156C133.401 261.111 133.285 260.065 132.588 259.252C132.123 258.672 131.542 258.207 130.728 257.975C131.542 255.536 132.704 252.748 134.563 249.147C138.979 240.784 147.81 235.093 157.455 227.311C173.026 214.65 190.457 197.111 196.267 157.619C204.285 103.724 163.614 51.1072 109.696 45.1835C55.8937 39.492 7.78566 82.3522 0.929684 136.247C-3.60223 172.138 9.6449 193.859 22.4272 210.933C30.329 221.387 38.2308 229.866 40.6711 239.158C41.7169 242.991 42.4141 246.011 42.7627 248.566ZM62.9821 302.577C60.8904 302.345 59.0312 301.88 57.1719 301.183C57.1719 305.249 61.239 308.617 66.2357 309.082L95.2865 312.218C100.167 312.799 104.234 310.243 105.629 306.41C104.583 306.526 103.421 306.643 102.375 306.643H101.794C101.678 306.643 101.561 306.643 101.445 306.643H99.3536L63.5631 302.693H63.4469L62.9821 302.577ZM52.059 286.781C52.059 288.523 53.221 290.149 54.8478 291.427C55.3127 291.775 55.7775 292.124 56.2423 292.472H56.3585C58.4501 293.75 61.1228 294.679 64.0279 295.027H64.2603C75.0672 296.189 89.2439 297.699 100.051 298.977H100.283C103.188 299.325 105.861 298.86 108.185 298.047C108.301 297.931 108.534 297.931 108.766 297.931C110.974 297.002 112.717 295.376 113.53 293.517C111.09 294.098 108.534 294.214 105.861 293.982H105.28C91.568 292.472 73.7889 290.497 60.077 289.104L59.7284 288.987H58.7987C56.4747 288.523 54.2668 287.826 52.059 286.781ZM125.383 265.06L46.7136 256.465C46.365 259.02 45.6678 260.995 45.3192 263.782C44.7382 269.358 47.2947 274.468 51.5942 277.837C51.5942 277.837 51.5942 277.837 51.7104 277.953C52.2914 278.418 52.9886 278.766 53.5696 279.231L53.6858 279.347H53.802C55.5451 280.392 57.5205 281.089 59.7284 281.438L60.077 281.554C60.1932 281.554 60.3094 281.554 60.5418 281.67H61.0066L106.21 286.548H106.442C115.971 287.477 123.524 280.857 125.383 272.145C125.615 270.752 125.499 269.59 125.499 268.08C125.383 267.151 125.383 266.105 125.383 265.06ZM49.9673 246.127L124.105 254.258C124.918 251.819 126.196 249.147 127.939 245.895C132.704 236.719 142.232 230.214 152.691 221.735C167.216 209.888 183.368 193.51 188.83 156.806C196.267 106.977 158.733 58.3087 108.882 52.9657C59.0311 47.5065 14.7578 87.3468 8.36667 137.292C4.18337 170.512 16.6171 190.722 28.4698 206.519C37.0688 217.902 45.3192 227.311 47.9919 237.3C48.9215 240.668 49.5025 243.688 49.9673 246.127Z" fill="white"/>
<path fill-rule="evenodd" clip-rule="evenodd" d="M99.8184 191.303C96.5647 192.465 92.9624 192.697 89.4763 190.722C90.987 188.864 92.2652 186.657 93.0786 184.102C94.1245 181.198 94.1245 177.016 92.73 173.88C91.1032 169.931 87.8495 167.26 82.6204 167.957C79.9477 168.305 77.6236 170.28 76.3454 173.648C74.7186 177.83 74.951 184.45 78.437 190.142C77.9722 190.374 77.5074 190.606 77.0426 190.839C76.694 190.955 76.4616 191.071 76.113 191.187C75.532 189.677 74.951 188.283 74.3699 187.006C72.6269 183.405 70.5353 179.34 67.9788 176.668C65.6547 174.345 62.8659 172.951 59.496 173.067C56.5909 173.183 54.1506 174.926 52.5238 177.713C50.6646 180.966 50.3159 185.844 51.9428 189.561C53.4534 192.929 57.0557 196.879 60.8904 199.085C64.0279 200.828 67.3978 201.409 70.3028 200.479C70.5352 200.479 70.7677 200.363 71.1163 200.247C76.5778 219.993 79.9477 252.98 79.9477 252.98C80.1801 255.071 82.0393 256.581 84.131 256.349C86.2227 256.116 87.7333 254.258 87.5009 252.167C87.5009 252.167 83.8986 218.948 78.3208 198.272C78.9019 198.04 79.4829 197.808 80.0639 197.575C81.2259 197.111 82.388 196.414 83.55 195.717C90.1736 200.828 97.7267 200.363 104.002 197.575C104.699 198.272 105.512 198.969 106.326 199.55C107.255 200.247 108.301 200.828 109.231 201.408C99.3536 221.967 90.7546 253.212 90.7546 253.212C90.1736 255.187 91.4518 257.278 93.4272 257.859C95.4027 258.439 97.4943 257.278 98.0753 255.187C98.0753 255.187 106.442 223.826 116.087 204.196C119.224 205.125 121.781 205.59 122.478 205.706C129.683 206.868 137.933 203.964 140.257 197.227C142.813 189.561 140.838 182.708 135.028 180.617C127.591 177.946 121.665 183.173 117.714 187.703C116.087 189.561 114.46 192 112.833 194.788C112.136 194.439 111.439 193.975 110.741 193.51L110.625 193.394C114.111 190.374 116.668 186.657 117.946 183.405C119.224 180.036 119.108 176.9 117.946 174.693C117.016 172.835 115.39 171.325 112.833 170.744C108.069 169.467 104.699 171.441 102.375 174.926C100.632 177.481 99.586 180.966 99.2374 183.869C98.8888 186.657 99.1212 189.212 99.8184 191.303ZM69.0246 193.278C68.676 192.232 68.2112 191.303 67.7464 190.49C66.5844 188.051 65.1899 185.263 63.5631 183.173C62.5173 181.895 61.4714 180.733 59.9608 180.85C59.8446 180.85 59.7284 181.082 59.496 181.198C59.2636 181.546 59.0312 181.895 58.7988 182.359C58.3339 183.637 58.2177 185.263 58.7988 186.541C59.8446 188.748 62.1686 191.303 64.6089 192.697C65.7709 193.394 66.8168 193.859 67.8626 193.51C68.2112 193.394 68.5598 193.394 69.0246 193.278ZM119.922 197.575C121.897 198.156 123.408 198.272 123.756 198.389C125.848 198.737 128.056 198.505 130.031 197.808C131.426 197.227 132.704 196.414 133.169 194.904C133.866 192.929 134.098 191.071 133.75 189.445C133.633 188.632 133.169 187.935 132.355 187.703C130.728 187.122 129.218 187.586 128.056 188.283C126.196 189.445 124.686 191.187 123.291 192.581C122.246 194.091 121.084 195.717 119.922 197.575ZM84.3634 185.147C85.0606 184.102 85.6416 183.056 86.1064 181.779C86.5713 180.385 86.5713 178.41 85.9902 176.784C85.6416 175.971 85.0606 175.274 84.0148 175.39C83.8986 175.623 83.4338 176.32 83.3176 176.9C82.8528 178.643 82.969 180.966 83.6662 183.289C83.7824 183.986 84.0148 184.566 84.3634 185.147ZM106.674 187.122C108.766 185.147 110.277 182.94 110.974 180.966C111.206 180.269 111.439 179.572 111.439 178.991C111.439 178.643 111.439 178.178 110.974 178.178C109.928 177.946 109.231 178.526 108.65 179.34C107.488 180.966 106.907 183.289 106.674 185.263C106.558 185.728 106.558 186.425 106.674 187.122Z" fill="white"/>
<path fill-rule="evenodd" clip-rule="evenodd" d="M111.206 25.9021L113.53 4.18164C113.879 2.09089 112.368 0.232454 110.277 0.000149153C108.185 -0.232156 106.326 1.27783 106.093 3.36857L103.769 25.0891C103.537 27.1798 105.048 29.0383 107.139 29.2706C109.115 29.3867 110.974 27.8767 111.206 25.9021Z" fill="white"/>
<path fill-rule="evenodd" clip-rule="evenodd" d="M163.846 46.2288L178.139 30.0836C179.534 28.5737 179.417 26.1345 177.791 24.7406C176.28 23.3468 173.84 23.4629 172.445 25.0891L158.152 41.2343C156.758 42.7443 156.874 45.1835 158.501 46.5773C160.128 47.9711 162.568 47.7388 163.846 46.2288Z" fill="white"/>
<path fill-rule="evenodd" clip-rule="evenodd" d="M191.27 80.8423L210.792 71.5501C212.651 70.6208 213.465 68.4139 212.535 66.5555C211.606 64.6971 209.398 63.884 207.539 64.8132L188.016 74.1054C186.157 75.0346 185.344 77.2415 186.273 79.1C187.203 80.9584 189.411 81.6553 191.27 80.8423Z" fill="white"/>
<path fill-rule="evenodd" clip-rule="evenodd" d="M63.3307 31.3613L54.964 11.4992C54.1506 9.52465 51.9428 8.71158 49.9673 9.52465C48.1081 10.3377 47.1785 12.5446 47.9919 14.4031L56.3585 34.2651C57.1719 36.1236 59.3798 37.0528 61.3552 36.2397C63.2145 35.4267 64.1441 33.2197 63.3307 31.3613Z" fill="white"/>
<path fill-rule="evenodd" clip-rule="evenodd" d="M25.0999 54.2433L8.13427 40.8858C6.50743 39.6081 4.18337 39.9566 2.90513 41.5827C1.6269 43.2089 1.85931 45.5319 3.48615 46.8096L20.4518 60.1671C22.0786 61.4448 24.5189 61.0963 25.7971 59.4702C27.0753 57.8441 26.7267 55.521 25.0999 54.2433Z" fill="white"/>
</g>
<defs>
<clipPath id="clip0_576_7841">
<rect width="213" height="320" fill="white"/>
</clipPath>
</defs>
</svg>
