<svg width="266" height="274" viewBox="0 0 266 274" fill="none" xmlns="http://www.w3.org/2000/svg">
<path d="M122.03 155.454C108.312 155.454 97.0985 144.24 97.0985 130.522C97.0985 116.804 108.312 105.59 122.03 105.59C135.749 105.59 146.962 116.804 146.962 130.522C146.962 144.24 135.857 155.454 122.03 155.454ZM122.03 114.3C113.103 114.3 105.808 121.594 105.808 130.522C105.808 139.45 113.103 146.744 122.03 146.744C130.958 146.744 138.253 139.45 138.253 130.522C138.253 121.594 130.958 114.3 122.03 114.3Z" fill="#393939"/>
<path d="M160.354 198.241H83.816C81.4208 198.241 79.4611 196.281 79.4611 193.886V184.632C79.4611 171.567 90.1306 160.898 103.195 160.898H141.083C154.148 160.898 164.818 171.567 164.818 184.632V193.886C164.709 196.281 162.749 198.241 160.354 198.241ZM155.999 189.422V184.523C155.999 176.249 149.249 169.499 140.974 169.499H103.087C94.8122 169.499 88.0621 176.249 88.0621 184.523V189.422H155.999Z" fill="#393939"/>
<path d="M254.529 76.1943C254.529 54.5286 231.23 37 202.597 37C173.963 37 150.664 54.6375 150.664 76.1943C150.664 80.4404 151.644 84.5776 153.277 88.497H32.6456C27.202 88.497 22.7382 93.1786 22.7382 99.0577V203.576H19.472C14.2461 203.576 10 207.604 10 212.612C10 226.113 21.8672 237 36.5651 237H207.06C221.649 237 233.625 226.004 233.625 212.612C233.625 207.604 229.379 203.576 224.154 203.576H220.778V112.993C240.484 107.441 254.529 93.0697 254.529 76.1943ZM202.597 45.7099C226.44 45.7099 245.819 59.4279 245.819 76.1943C245.819 92.9608 226.44 106.679 202.597 106.679C197.48 106.679 192.58 106.026 187.79 104.828C185.612 104.284 184.088 105.263 182.237 106.57C179.733 108.203 175.269 111.36 167.322 113.429C170.806 106.57 172.548 98.5133 168.955 95.356C162.64 89.9124 159.374 83.2711 159.374 76.3032C159.374 59.4279 178.753 45.7099 202.597 45.7099ZM224.045 212.395C224.48 212.395 224.807 212.612 224.807 212.612C224.807 221.213 216.859 228.29 207.06 228.29H36.4562C26.6576 228.29 18.7099 221.213 18.601 212.721C18.601 212.612 18.9276 212.395 19.3631 212.395H87.2999C90.3484 214.246 94.7033 216.532 99.0583 216.532H144.458C149.358 216.532 153.93 215.008 156.543 212.504L224.045 212.395ZM211.96 203.685L156.652 203.794C154.475 203.794 152.515 204.556 151.1 205.862C150.12 206.733 147.833 207.822 144.567 207.822H99.0583C97.4252 207.822 94.7033 206.733 92.0904 204.991C90.7839 204.12 89.1508 203.685 87.5177 203.685H31.5569V99.1666C31.5569 98.0778 32.2101 97.3157 32.6456 97.3157H158.721C159.809 98.6222 161.007 99.9287 162.314 101.126C162.205 103.413 160.354 109.945 155.999 114.953C154.584 116.586 154.257 118.981 155.346 120.832C156.326 122.574 158.067 123.663 160.027 123.663C160.245 123.663 160.463 123.663 160.789 123.663C175.705 121.703 183.762 116.26 187.245 113.864C187.245 113.864 187.354 113.864 187.354 113.756C192.363 114.953 197.48 115.498 202.706 115.498C205.863 115.498 209.02 115.28 212.069 114.844L211.96 203.685Z" fill="#393939"/>
<path d="M199.657 71.9483H177.665C175.269 71.9483 173.31 69.9886 173.31 67.5934C173.31 65.1981 175.269 63.2384 177.665 63.2384H199.657C202.052 63.2384 204.012 65.1981 204.012 67.5934C204.012 69.9886 202.052 71.9483 199.657 71.9483Z" fill="#393939"/>
<path d="M226.004 88.3881H177.665C175.269 88.3881 173.31 86.4284 173.31 84.0332C173.31 81.638 175.269 79.6783 177.665 79.6783H226.004C228.4 79.6783 230.359 81.638 230.359 84.0332C230.359 86.5373 228.4 88.3881 226.004 88.3881Z" fill="#393939"/>
</svg>
