<svg width="285" height="301" viewBox="0 0 285 301" fill="none" xmlns="http://www.w3.org/2000/svg">
<path d="M284.486 266.468C285.386 267.568 284.386 268.668 283.786 269.468C282.786 270.968 281.686 272.468 280.386 273.768C273.186 280.768 266.186 287.968 257.186 292.968C254.886 294.268 252.386 295.468 250.986 298.068C250.786 298.468 250.386 298.868 249.786 298.568C249.286 298.268 249.086 297.868 249.486 297.168C250.186 295.768 251.586 294.968 252.786 294.068C257.186 290.968 262.086 288.568 266.186 284.968C271.786 279.968 277.486 275.068 282.186 269.168C282.486 268.768 282.886 268.468 282.686 267.668C279.886 268.568 277.486 270.168 274.886 271.668C267.586 275.968 261.686 281.968 255.986 288.068C255.286 288.868 254.386 290.668 253.286 289.768C252.186 288.868 253.786 287.768 254.386 286.768C258.786 280.068 263.186 273.468 267.086 266.468C267.486 265.668 268.186 264.968 268.286 263.568C261.186 269.468 255.086 275.768 250.286 283.268C249.386 284.668 248.686 286.168 247.786 287.568C247.386 288.268 247.286 289.668 246.286 289.268C245.286 288.868 245.986 287.768 246.286 286.968C247.486 283.368 248.586 279.768 249.586 276.168C250.786 271.668 251.886 267.168 252.986 262.668C253.086 262.268 252.986 261.768 252.986 260.968C250.686 263.268 249.286 265.868 247.786 268.468C243.886 275.168 241.286 282.268 238.686 289.468C238.286 290.468 238.086 291.868 236.986 291.768C235.686 291.768 235.486 290.168 235.286 289.168C233.886 282.468 232.686 275.868 231.386 269.168C231.386 268.968 231.186 268.768 230.986 268.368C230.686 276.168 231.286 283.568 232.686 290.968C232.986 292.568 233.186 294.268 233.286 295.968C233.386 296.668 233.186 297.468 232.386 297.768C231.586 298.068 231.186 297.368 230.786 296.668C227.286 290.968 223.386 285.668 219.286 280.368C218.786 279.668 218.286 278.968 217.486 278.568C217.386 278.368 217.386 278.068 217.186 278.268C217.086 278.268 217.186 278.668 217.186 278.868C219.286 284.468 222.386 289.368 226.786 293.468C227.786 294.468 228.986 295.368 229.686 296.668C229.886 297.068 230.086 297.368 229.686 297.668C229.286 298.068 228.986 297.668 228.686 297.368C223.486 292.368 218.686 286.968 216.286 279.968C215.886 278.768 214.786 277.068 216.086 276.268C217.486 275.468 218.386 277.268 219.186 278.268C223.586 283.768 227.886 289.368 232.086 295.268C231.686 292.268 231.186 289.368 230.786 286.368C229.986 279.368 229.186 272.268 229.986 265.168C230.086 264.568 230.186 263.968 230.786 263.868C231.586 263.768 231.786 264.568 231.886 265.168C232.686 269.068 233.486 273.068 234.286 276.968C235.086 281.168 235.886 285.368 236.886 290.168C238.386 286.268 239.686 282.968 240.986 279.568C243.586 272.868 246.886 266.468 251.286 260.768C251.586 260.368 251.886 259.968 252.186 259.668C252.686 259.068 253.386 258.768 254.086 259.068C254.886 259.368 254.586 260.168 254.586 260.768C254.486 264.368 253.186 267.668 252.386 271.168C251.686 274.368 250.786 277.468 250.086 280.668C252.986 276.968 255.886 273.468 259.086 270.068C259.486 269.568 259.486 269.168 259.486 268.568C259.186 258.968 259.086 249.368 258.786 239.768C257.586 204.368 257.486 169.068 257.386 133.668C257.386 132.068 256.986 131.668 255.386 131.668C241.786 132.368 228.186 132.568 214.586 132.768C212.486 132.768 210.286 133.368 208.186 133.168C207.186 133.068 206.886 133.568 206.986 134.468C207.886 143.868 206.986 153.368 207.786 162.768C207.986 164.668 207.886 166.568 207.986 168.568C208.086 170.368 206.986 170.768 205.486 170.668C199.986 170.468 194.486 170.668 188.986 171.168C185.786 171.468 182.586 171.568 179.386 171.668C171.586 171.968 163.686 171.968 155.886 172.268C148.686 172.568 141.486 172.968 134.386 173.268C124.986 173.668 115.686 174.468 106.286 175.168C104.786 175.268 104.086 174.968 103.886 173.268C103.286 165.668 102.786 157.968 102.586 150.368C102.486 146.468 101.986 142.568 101.786 138.668C101.686 137.868 101.486 137.568 100.686 137.668C94.686 138.068 88.786 138.368 82.786 138.868C79.986 139.068 77.286 139.568 74.486 139.668C69.686 139.868 64.986 140.168 60.186 140.568C58.986 140.668 58.486 140.868 58.586 142.168C59.386 153.268 59.086 164.368 59.886 175.468C60.386 183.068 60.186 190.668 60.586 198.268C60.786 202.268 60.886 206.368 61.086 210.868C63.286 209.568 65.286 208.468 67.186 207.168C69.286 205.768 71.486 204.968 73.886 204.268C75.886 203.668 76.686 204.568 76.786 206.268C77.086 210.468 76.686 214.668 75.486 218.768C74.786 220.968 73.186 222.368 71.386 223.568C68.886 225.168 66.086 226.268 63.386 227.468C62.486 227.868 61.886 228.368 62.086 229.368C62.886 233.468 62.286 237.668 62.486 241.768C62.886 246.968 63.086 252.168 63.586 257.268C63.686 258.368 64.886 259.368 65.686 260.368C71.386 267.668 77.286 274.968 82.686 282.568C82.986 283.068 83.286 283.768 84.286 283.468C83.486 279.368 82.586 275.368 81.886 271.268C80.886 265.368 79.986 259.468 80.186 253.468C80.186 252.268 80.386 251.068 80.786 249.968C80.986 249.168 81.286 248.168 82.386 248.168C83.386 248.168 83.586 249.168 83.786 249.868C85.286 254.368 86.386 258.968 87.386 263.568C88.886 270.368 89.786 277.268 90.986 284.868C92.886 273.168 95.786 262.668 101.886 253.168C102.586 252.068 103.386 250.968 104.186 249.868C104.686 249.168 105.286 248.468 106.186 248.868C106.986 249.168 107.186 249.968 107.186 250.868C107.386 254.468 106.386 257.968 105.486 261.368C105.286 262.168 105.086 262.968 104.886 263.768C103.386 269.368 101.586 274.868 99.586 280.268C99.586 280.568 99.486 281.268 99.486 281.268C100.086 281.468 99.886 280.868 99.986 280.568C103.386 275.368 106.786 270.268 110.886 265.568C113.586 262.468 116.686 259.768 119.886 257.368C120.786 256.668 121.486 256.268 120.986 254.868C120.686 253.968 120.886 252.968 120.886 251.968C120.886 251.468 120.886 250.768 121.486 250.868C124.586 251.468 123.286 249.068 123.186 248.068C122.586 239.268 122.086 230.568 121.786 221.768C121.586 217.768 121.486 213.768 121.486 209.768C121.386 200.968 126.886 194.668 134.286 193.268C138.986 192.368 143.186 193.868 146.286 197.368C150.186 201.668 150.786 206.968 150.686 212.668C150.586 217.468 150.586 222.368 150.986 227.168C151.486 233.868 151.686 240.568 151.786 247.268C151.786 249.168 152.186 250.068 154.286 249.268C155.286 248.868 155.586 249.468 155.786 250.468C155.986 251.668 155.486 252.868 156.086 253.968C156.486 254.768 155.786 254.768 155.186 254.868C152.586 255.168 149.986 255.568 147.386 255.768C142.186 256.368 136.886 255.968 131.686 256.768C130.086 256.968 128.486 257.068 126.986 257.268C126.586 257.268 126.186 257.168 126.086 257.768C124.886 263.468 120.886 267.468 117.886 272.068C116.386 274.368 114.586 276.568 112.986 278.868C112.586 279.468 111.886 279.968 111.786 281.168C115.386 279.068 118.586 277.068 122.186 275.668C127.586 273.568 132.886 271.368 138.886 271.668C139.986 271.668 141.186 271.668 141.586 272.768C141.986 273.968 140.786 274.568 139.986 275.068C134.386 279.068 128.286 281.868 122.086 284.568C119.886 285.568 117.586 286.468 115.386 287.568C114.586 287.868 113.886 288.168 112.986 287.868C113.886 286.568 115.186 286.168 116.486 285.568C124.086 282.068 131.986 279.068 138.786 274.168C139.086 273.968 139.386 273.668 139.986 273.268C134.786 272.468 130.286 274.068 125.786 275.768C118.986 278.168 113.086 282.068 107.486 286.568C106.486 287.368 105.086 289.068 104.186 288.168C102.886 286.768 104.986 285.668 105.786 284.768C112.186 277.968 117.386 270.368 122.386 262.668C123.186 261.468 123.686 260.168 124.286 258.868C124.586 258.268 124.686 257.468 124.286 257.068C123.786 256.468 123.086 257.168 122.586 257.468C117.286 260.768 113.186 265.268 109.286 270.068C104.986 275.368 101.486 281.268 98.186 287.168C97.586 288.268 96.986 290.268 95.586 289.568C94.386 288.968 95.486 287.268 95.886 286.168C99.586 275.968 103.386 265.768 105.486 255.068C105.586 254.568 105.686 254.168 105.786 253.668C105.786 252.668 105.786 251.668 105.786 250.368C104.486 251.268 103.886 252.468 103.186 253.568C96.886 263.968 93.386 275.268 92.386 287.268C92.286 287.868 92.286 288.468 91.686 288.668C90.886 288.868 90.586 288.268 90.386 287.568C89.386 283.768 89.086 279.768 88.486 275.868C87.086 266.968 85.386 258.168 82.586 249.368C81.386 251.868 81.686 254.168 81.786 256.368C82.186 267.068 83.986 277.568 87.486 287.668C87.586 287.868 87.586 288.168 87.586 288.368C87.786 288.968 88.086 289.668 87.386 290.068C86.586 290.468 86.286 289.668 85.986 289.268C84.086 286.568 82.386 283.868 80.486 281.268C73.986 272.668 67.486 264.268 60.886 255.668C60.686 255.368 60.586 254.968 59.986 254.868C61.386 262.468 64.286 269.268 68.286 275.768C72.286 282.168 77.486 287.668 82.186 293.468C81.286 293.968 80.686 293.668 80.186 293.068C74.186 285.968 67.886 279.068 63.786 270.568C61.286 265.268 59.286 259.868 57.886 254.168C57.786 253.968 57.686 253.668 57.686 253.468C57.786 252.668 57.186 251.468 57.986 250.968C58.986 250.468 59.286 251.768 59.886 252.268C60.686 252.868 60.886 254.068 62.186 254.768C60.886 245.868 61.886 236.968 60.686 228.168C56.286 229.768 51.686 230.468 46.986 231.168C50.686 238.468 51.886 246.368 53.386 254.168C55.686 266.968 56.486 279.868 56.686 292.868C56.686 293.368 56.686 293.868 56.686 294.268C56.686 294.868 56.686 295.468 55.886 295.468C54.886 295.468 55.286 294.668 55.286 294.268C55.286 291.668 55.386 288.968 55.286 286.368C54.486 269.668 53.086 252.968 48.086 236.868C47.586 235.268 46.886 233.768 46.086 232.368C45.686 231.668 44.986 231.368 44.286 231.668C43.286 232.068 43.986 232.668 44.186 233.168C45.886 242.068 47.486 250.868 48.286 259.868C49.286 271.068 49.886 282.168 49.486 293.368C49.486 293.568 49.586 293.868 49.586 294.068C49.586 294.768 49.386 295.468 48.586 295.368C47.786 295.368 48.086 294.468 48.086 293.968C48.086 287.668 48.286 281.368 48.086 274.968C47.586 260.868 45.986 246.768 42.786 232.968C42.486 231.668 41.786 230.968 40.286 230.868C35.286 230.768 30.286 230.668 25.286 230.368C21.086 230.068 17.086 228.968 13.186 227.168C10.486 225.868 7.68598 224.768 4.68598 224.568C1.28598 224.268 -0.414024 222.268 0.0859756 219.468C0.585976 216.468 4.18598 213.668 6.98598 214.268C11.586 215.268 15.786 217.268 20.086 219.068C25.786 221.368 31.586 223.168 37.086 225.868C37.486 226.068 38.086 226.468 38.686 226.068C35.086 219.268 29.986 213.768 24.186 208.868C18.086 203.668 16.786 199.568 19.786 192.168C20.686 189.868 21.886 187.768 23.586 185.868C24.786 184.568 26.086 184.468 27.586 185.268C30.186 186.668 31.586 189.068 32.686 191.668C35.186 197.568 37.086 203.568 38.986 209.668C39.786 212.068 40.786 214.368 42.586 216.568C44.086 206.768 44.886 197.168 46.686 187.668C47.086 185.368 47.786 183.068 49.486 181.268C51.086 179.368 52.486 179.468 53.786 181.568C55.486 184.268 55.886 187.268 56.286 190.368C57.286 198.468 53.986 205.368 50.886 212.368C49.086 216.368 47.986 220.468 46.586 224.568C46.186 224.768 46.086 225.168 46.286 225.468C46.486 225.768 46.786 225.368 46.886 225.168C51.586 221.068 55.186 215.868 59.686 211.568C60.986 210.368 60.086 208.068 59.986 206.268C59.486 198.568 59.386 190.768 59.086 183.068C58.486 168.868 58.086 154.668 57.586 140.368C57.386 134.968 57.386 129.468 57.286 124.068C56.986 113.668 56.686 103.268 56.286 92.9681C56.186 90.4681 56.386 87.4681 55.186 85.4681C53.686 82.8681 55.186 82.2681 56.586 80.9681C61.586 76.2681 66.586 71.5681 71.386 66.6681C74.686 63.2681 78.386 60.2681 81.686 56.8681C82.386 56.1681 82.986 56.1681 83.786 56.1681C97.586 55.6681 111.386 54.8681 125.186 54.5681C128.986 54.4681 132.886 54.1681 136.686 54.2681C137.886 54.2681 138.286 53.9681 138.486 52.7681C138.586 51.8681 138.686 51.0681 138.686 50.1681C138.686 43.4681 138.686 36.7681 138.686 29.9681C138.686 25.5681 139.586 21.2681 139.286 16.8681C139.086 13.9681 139.486 10.9681 137.886 8.26811C137.386 7.36811 138.286 7.06811 138.886 6.76811C142.886 4.66811 146.986 2.56811 150.986 0.468113C152.286 -0.231887 153.186 -0.131887 154.386 0.668113C157.986 3.06811 161.786 5.26811 165.486 7.46811C166.386 8.06811 167.086 8.46811 165.486 9.06811C164.786 9.36811 165.186 9.86811 165.086 10.2681C164.886 14.2681 165.086 18.3681 165.686 22.1681C167.486 32.0681 166.686 42.0681 166.886 51.9681C166.886 53.6681 167.186 54.2681 169.086 54.2681C181.086 54.1681 193.086 54.0681 205.086 54.2681C209.786 54.3681 213.986 53.0681 218.086 51.0681C220.786 49.7681 223.586 49.3681 226.586 49.3681C235.586 49.3681 244.486 49.4681 253.386 48.4681C255.286 48.2681 256.286 48.5681 256.286 50.9681C256.286 54.5681 255.486 58.2681 257.586 61.5681C255.986 65.4681 256.486 69.5681 256.786 73.4681C258.686 97.5681 257.686 121.668 258.286 145.668C258.686 160.968 258.186 176.268 258.686 191.568C259.086 202.968 258.786 214.268 259.186 225.668C259.486 235.868 259.786 246.068 260.186 256.368C260.286 260.168 260.486 263.968 260.586 268.068C262.886 266.268 264.886 264.468 267.086 262.968C267.786 262.468 268.686 261.268 269.786 262.168C270.886 263.068 269.986 264.168 269.586 264.968C267.186 269.668 264.486 274.068 261.686 278.468C261.386 278.968 261.086 279.568 260.686 280.268C261.986 280.368 262.386 279.468 262.986 278.968C268.386 273.968 274.486 269.968 281.086 266.868C282.186 266.068 283.486 265.168 284.486 266.468ZM41.486 229.468C41.286 228.668 40.786 228.668 40.386 228.468C32.886 225.568 25.486 222.668 17.986 219.868C14.286 218.468 10.686 216.668 6.68598 215.868C4.28598 215.368 1.58598 217.568 1.28598 219.968C1.08598 221.968 2.08598 222.868 5.28598 223.168C7.28598 223.368 9.38597 223.768 11.186 224.768C20.786 230.068 31.186 229.168 41.486 229.468ZM43.186 228.168C41.986 223.668 42.886 218.668 39.686 214.668C38.686 213.468 38.286 211.868 37.786 210.368C35.686 204.068 33.986 197.568 31.186 191.568C30.186 189.468 28.986 187.568 26.886 186.368C25.786 185.768 24.886 185.768 24.186 186.768C18.986 194.268 16.486 201.668 25.486 208.468C29.186 211.268 32.086 214.668 34.986 218.268C37.586 221.568 39.186 225.768 43.186 228.168ZM59.586 254.168C59.486 253.968 59.386 253.768 59.286 253.568C59.186 253.668 58.986 253.868 58.986 253.968C58.986 254.168 59.186 254.368 59.286 254.568C59.486 254.368 59.686 254.268 59.586 254.168ZM110.986 280.768C110.786 280.868 110.586 280.968 110.486 281.168C110.486 281.368 110.586 281.568 110.886 281.368C111.086 281.268 111.286 281.268 111.586 281.068C111.186 280.868 110.986 280.668 110.986 280.768ZM141.486 197.468C140.786 199.268 139.986 200.868 139.386 202.668C138.986 203.768 138.086 204.768 138.386 206.168C141.986 205.868 145.286 205.168 148.886 205.368C148.386 201.768 146.686 199.068 144.486 196.768C142.786 195.068 142.386 195.268 141.486 197.468ZM122.986 207.668C127.286 207.168 131.286 206.668 135.286 206.368C136.386 206.268 136.686 206.068 137.086 205.068C138.386 201.668 139.786 198.368 141.186 195.068C137.486 193.068 133.886 193.468 130.386 195.468C131.786 198.668 134.286 201.168 135.586 204.468C135.786 204.968 136.386 205.468 135.586 205.868C134.886 206.168 134.686 205.468 134.486 204.968C133.086 202.468 131.586 199.868 130.186 197.368C129.686 196.468 129.286 196.068 128.286 196.968C124.686 199.768 122.986 203.268 122.986 207.668ZM124.286 248.268C124.386 249.768 124.586 250.068 126.086 250.068C133.786 250.268 141.386 248.668 148.986 248.968C150.186 248.968 150.186 248.368 150.186 247.468C150.186 244.868 150.186 242.168 150.186 239.568H150.286C149.886 229.168 149.486 218.768 149.286 208.268C149.186 205.768 147.686 206.068 146.186 206.368C138.986 207.568 131.686 207.668 124.386 208.568C122.486 208.768 122.286 209.368 122.386 210.868C123.086 223.468 123.786 235.868 124.286 248.268ZM122.186 254.768C122.086 254.768 122.086 254.768 122.186 254.768C122.186 254.968 122.186 255.068 122.286 255.268C122.386 255.268 122.486 255.268 122.486 255.168C122.486 254.868 122.386 254.768 122.186 254.768C123.786 254.668 125.286 255.968 126.786 255.668C135.286 253.968 144.086 254.668 152.586 253.468C154.486 253.168 154.886 252.968 154.086 251.068C153.586 249.668 152.786 250.168 152.086 250.168C143.386 249.968 134.786 251.268 126.086 251.468C125.886 251.468 125.686 251.468 125.486 251.468C122.586 251.668 122.586 251.768 122.186 254.768ZM83.886 283.668C83.986 283.768 84.186 283.868 84.286 283.968C84.286 283.868 84.386 283.668 84.486 283.568C84.386 283.368 84.386 283.268 84.186 283.268C84.086 283.268 84.086 283.268 83.986 283.368C83.886 283.368 83.786 283.568 83.886 283.668ZM44.986 224.668C47.086 216.868 50.386 209.868 53.286 202.768C55.886 196.168 55.486 189.668 53.086 183.068C52.786 182.268 52.386 181.168 51.486 181.168C50.386 181.068 49.886 182.168 49.486 183.068C47.486 186.868 47.086 190.968 46.486 195.168C45.686 200.968 44.886 206.768 44.286 212.568C43.786 216.468 42.786 220.368 44.986 224.668ZM45.686 228.068C44.886 228.868 45.286 229.368 46.286 229.368C46.886 229.368 47.386 229.368 48.486 229.368C48.586 229.368 49.186 229.368 49.886 229.268C56.286 228.368 62.186 226.068 67.786 223.068C73.786 219.968 76.986 212.768 75.386 206.168C75.086 204.968 74.686 204.568 73.486 204.968C72.086 205.468 70.686 205.968 69.286 206.568C59.286 211.368 53.486 220.868 45.686 228.068ZM192.586 75.0681C189.886 74.6681 187.886 74.0681 186.486 72.3681C185.686 71.3681 185.186 71.5681 184.186 72.1681C181.986 73.4681 179.486 73.9681 176.886 73.7681C175.286 73.6681 173.586 71.2681 171.986 73.7681C171.986 73.8681 171.686 73.7681 171.486 73.6681C170.586 73.3681 169.386 73.8681 169.286 74.4681C169.086 75.3681 169.986 76.1681 170.886 76.5681C171.686 76.8681 172.486 77.0681 173.386 77.1681C176.586 77.3681 179.286 76.1681 181.786 74.4681C182.986 73.6681 184.286 72.9681 185.486 74.4681C187.486 76.6681 189.086 76.8681 192.586 75.0681ZM183.386 75.0681C182.086 75.5681 180.886 76.5681 179.486 77.4681C182.086 77.4681 184.286 77.4681 186.586 77.4681C185.086 77.0681 185.186 74.4681 183.386 75.0681ZM68.786 81.3681C70.386 81.2681 71.886 80.3681 72.486 78.8681C73.086 77.4681 71.086 77.0681 70.786 75.7681C69.386 77.1681 68.286 78.6681 66.186 78.8681C66.686 80.1681 67.386 81.3681 68.786 81.3681ZM65.486 79.8681C64.686 80.8681 64.086 81.5681 63.386 82.3681C64.686 82.3681 65.886 82.3681 67.186 82.3681C66.486 81.4681 65.686 80.9681 65.486 79.8681ZM71.486 81.8681C72.886 81.8681 73.986 81.8681 75.886 81.8681C74.486 81.2681 74.586 80.1681 73.686 79.5681C72.886 80.3681 72.186 81.0681 71.486 81.8681ZM77.086 80.9681C78.886 81.1681 80.286 80.3681 81.586 78.6681C80.486 78.0681 79.486 77.0681 78.886 75.9681C77.886 76.4681 77.386 77.4681 76.386 77.8681C75.986 78.0681 74.786 77.8681 75.186 79.1681C75.586 80.1681 75.986 80.8681 77.086 80.9681ZM115.086 64.1681C113.286 65.7681 111.986 67.2681 110.086 67.9681C109.586 68.1681 108.786 68.1681 108.886 68.9681C109.086 69.6681 109.686 70.2681 110.386 70.2681C112.686 70.3681 114.086 68.7681 115.486 67.2681C116.886 65.9681 114.786 65.5681 115.086 64.1681ZM188.686 58.4681C186.686 58.2681 184.586 58.8681 182.486 57.8681C182.686 59.6681 183.686 60.4681 184.986 60.7681C185.386 60.8681 185.686 60.8681 185.986 60.7681C187.186 60.5681 187.886 59.4681 188.686 58.4681C188.886 58.2681 188.986 58.1681 189.086 58.0681C188.986 58.0681 188.886 57.9681 188.886 57.9681C188.586 58.0681 188.586 58.2681 188.686 58.4681ZM223.586 60.0681C220.186 62.7681 220.186 62.7681 220.786 63.5681C221.986 65.0681 224.286 65.3681 225.486 63.7681C227.286 61.3681 223.286 61.8681 223.586 60.0681ZM233.886 55.8681C233.286 55.0681 232.786 55.3681 232.186 55.9681C229.986 58.1681 227.386 59.1681 224.186 58.4681C225.286 61.3681 227.886 62.4681 230.186 60.1681C230.786 59.5681 231.486 59.0681 232.186 58.4681C232.986 57.6681 233.686 56.9681 234.386 58.6681C235.086 60.1681 236.586 60.6681 238.186 60.4681C240.486 60.1681 242.086 58.7681 243.386 57.0681C243.686 56.7681 245.286 57.0681 244.186 55.8681C243.386 54.8681 243.086 55.8681 242.586 56.1681C238.886 58.5681 236.186 58.7681 233.886 55.8681ZM242.386 54.4681C239.986 51.4681 237.286 53.0681 234.586 54.4681C236.186 57.4681 239.186 57.4681 242.386 54.4681ZM246.286 69.9681C246.886 69.9681 247.286 70.1681 247.686 70.6681C249.986 73.1681 251.686 73.3681 254.786 71.3681C252.086 71.5681 249.686 71.3681 247.786 69.3681C247.486 69.0681 247.286 68.9681 247.186 69.0681C246.786 69.0681 246.586 69.5681 246.286 69.9681C245.886 69.8681 245.586 69.8681 245.386 70.0681C245.286 70.1681 245.286 70.2681 245.186 70.3681C242.586 71.0681 239.986 71.6681 237.586 69.4681C236.586 68.5681 236.086 70.2681 235.186 70.6681C234.586 70.8681 234.386 71.3681 234.786 71.9681C235.486 72.9681 236.186 73.9681 237.586 74.2681C239.386 74.6681 240.886 74.3681 242.086 73.6681C242.586 73.3681 242.986 73.0681 243.486 72.7681C243.586 72.6681 243.786 72.5681 243.886 72.3681C244.486 71.8681 244.986 71.2681 245.486 70.6681C245.586 70.5681 245.686 70.4681 245.786 70.4681C246.186 70.3681 246.386 70.2681 246.286 69.9681ZM174.686 71.7681C177.586 72.6681 179.786 72.5681 181.886 71.8681C182.386 71.6681 183.786 71.4681 183.186 70.8681C182.486 70.1681 181.886 68.5681 180.586 69.0681C178.786 69.6681 177.086 70.5681 174.686 71.7681ZM181.086 67.1681C182.386 66.6681 183.686 66.0681 184.886 65.4681C185.186 65.2681 185.986 65.2681 185.786 64.6681C185.586 63.9681 185.286 63.2681 184.786 62.8681C184.186 62.2681 183.886 63.0681 183.486 63.3681C181.586 64.9681 179.586 66.2681 176.586 65.1681C177.786 67.6681 178.786 68.1681 181.086 67.1681ZM192.786 68.0681C190.686 68.1681 188.986 67.8681 187.786 66.3681C187.286 65.7681 186.786 65.9681 186.286 66.1681C184.986 66.7681 183.786 67.3681 182.486 67.9681C184.786 70.7681 189.586 70.7681 192.786 68.0681ZM187.186 71.4681C191.186 74.8681 195.086 73.8681 199.186 72.0681C196.986 71.5681 195.786 70.1681 194.586 68.5681C192.986 69.8681 191.086 70.6681 189.186 71.2681C188.686 71.4681 188.086 71.4681 187.186 71.4681ZM204.886 69.5681C204.986 69.5681 204.986 69.5681 205.086 69.5681C205.086 69.5681 205.086 69.5681 205.086 69.4681C205.286 69.3681 205.486 69.3681 205.686 69.2681C205.586 69.1681 205.586 69.0681 205.486 69.0681C205.186 69.0681 204.886 69.0681 205.086 69.4681C204.986 69.4681 204.986 69.4681 204.886 69.5681C204.986 69.4681 204.986 69.4681 204.886 69.5681C201.786 69.6681 199.186 68.7681 197.586 65.8681C195.286 67.6681 195.286 68.0681 197.286 69.8681C199.286 71.3681 201.786 71.2681 204.886 69.5681ZM203.886 71.9681C206.486 74.0681 209.486 73.7681 212.686 72.1681C209.686 70.8681 206.986 68.1681 203.886 71.9681ZM213.686 70.3681C215.586 70.6681 217.086 69.8681 218.486 69.0681C219.386 68.4681 221.186 68.0681 220.686 66.8681C220.286 66.0681 218.986 67.6681 217.986 67.9681C217.686 68.0681 217.386 68.2681 217.186 68.3681C214.486 69.6681 211.886 70.0681 209.686 67.5681C209.486 67.3681 209.086 67.0681 208.986 67.0681C208.486 67.3681 208.086 67.6681 207.786 68.0681C207.486 68.4681 207.986 68.2681 208.086 68.2681C209.886 69.0681 211.386 70.9681 213.686 70.3681ZM210.786 66.6681C214.686 70.2681 217.186 66.1681 220.386 65.1681C219.186 63.3681 219.186 63.3681 217.686 64.3681C217.386 64.5681 217.186 64.6681 216.886 64.8681C216.586 65.0681 216.286 65.1681 215.986 65.3681C214.486 66.1681 212.886 66.5681 211.086 66.4681C210.986 66.4681 210.786 66.3681 210.586 66.3681H210.486C210.286 66.5681 210.586 66.5681 210.786 66.6681ZM216.086 71.6681C219.486 73.5681 222.586 73.0681 224.886 70.3681C222.986 67.4681 220.986 68.9681 218.986 70.3681C218.186 70.8681 217.186 71.1681 216.086 71.6681ZM227.686 63.3681C225.986 65.3681 224.286 66.0681 222.386 66.1681C224.386 67.5681 226.786 67.5681 228.186 66.1681C229.386 64.9681 227.386 64.7681 227.686 63.3681ZM240.586 64.2681C238.286 60.1681 237.386 64.2681 235.786 64.7681C238.086 67.7681 239.186 64.7681 240.586 64.2681ZM238.386 67.6681C241.086 68.3681 243.086 67.9681 245.086 66.6681C242.486 64.4681 242.486 64.4681 238.386 67.6681ZM236.986 61.9681C234.586 60.4681 232.186 58.2681 229.886 61.8681C229.586 62.3681 228.186 62.0681 228.786 63.2681C229.086 63.9681 229.586 64.5681 230.486 64.6681C233.186 65.0681 235.386 64.2681 236.986 61.9681ZM225.986 68.7681C228.286 69.0681 230.086 67.9681 232.286 66.7681C229.386 65.8681 228.086 68.7681 225.986 68.7681ZM222.886 73.6681C224.786 76.2681 226.786 75.8681 229.386 74.5681C229.686 74.4681 229.886 74.2681 230.186 74.0681C230.886 73.5681 231.586 72.9681 232.286 72.4681C232.286 72.3681 232.186 72.1681 232.086 72.0681C231.986 72.1681 231.986 72.1681 231.886 72.2681C231.986 72.3681 232.086 72.4681 232.186 72.4681C228.986 71.5681 225.786 70.1681 222.986 73.3681C222.986 73.4681 222.986 73.5681 222.886 73.6681ZM236.286 68.2681C233.086 67.3681 231.086 69.2681 228.586 70.1681C231.786 71.8681 233.886 70.0681 236.286 68.2681ZM249.486 66.8681C250.386 67.9681 251.886 67.5681 254.286 65.6681C253.286 65.3681 252.386 64.9681 251.886 63.7681C248.986 66.3681 248.986 66.3681 249.486 66.8681ZM250.486 61.3681C249.886 60.5681 249.386 60.6681 248.886 61.3681C247.786 62.7681 246.286 63.5681 244.686 64.3681C246.886 65.7681 248.586 65.2681 250.586 63.0681C251.386 62.2681 250.986 61.9681 250.486 61.3681ZM253.886 55.7681C252.986 54.2681 251.986 54.2681 250.886 55.6681C250.686 55.8681 250.586 56.0681 250.386 56.1681C249.186 57.2681 247.786 57.8681 246.086 57.2681C245.986 57.2681 245.786 57.1681 245.686 57.0681H245.586C245.386 57.2681 245.586 57.4681 245.786 57.4681C246.586 58.8681 246.786 60.4681 249.286 58.8681C250.886 57.9681 252.086 56.3681 253.886 55.7681ZM244.186 57.9681C243.586 58.5681 242.886 59.0681 242.486 59.6681C241.886 60.6681 239.586 60.4681 240.286 61.8681C240.986 63.3681 242.986 62.7681 244.486 62.6681C245.486 62.5681 246.386 61.9681 247.286 60.9681C245.786 60.4681 244.986 59.2681 244.186 57.9681ZM223.486 58.0681C222.386 57.6681 221.686 56.3681 220.586 55.4681C218.986 57.8681 216.586 58.7681 213.586 58.7681C214.086 60.4681 214.986 61.4681 216.386 61.7681C219.686 62.4681 221.586 60.0681 223.486 58.0681ZM212.486 59.5681C210.986 60.8681 209.686 62.2681 207.586 62.3681C209.986 65.8681 213.986 66.1681 216.686 62.9681C214.586 62.6681 213.286 61.3681 212.486 59.5681ZM205.186 63.5681C203.186 64.7681 201.186 65.3681 198.686 65.1681C201.786 69.0681 204.786 69.0681 208.586 65.1681C207.086 65.0681 206.986 62.4681 205.186 63.5681ZM204.486 62.5681C203.486 61.5681 202.286 60.6681 202.486 58.9681C200.386 59.8681 198.486 60.6681 196.586 61.5681C198.486 64.2681 200.786 64.5681 204.486 62.5681ZM194.286 62.4681C192.386 63.2681 190.486 64.2681 188.586 65.1681C191.186 67.8681 193.086 67.6681 197.586 64.2681C196.086 64.2681 196.286 61.5681 194.286 62.4681ZM193.286 61.4681C191.186 59.9681 189.486 58.6681 187.686 61.3681C187.286 61.9681 185.886 61.7681 186.386 62.8681C186.886 63.9681 187.986 63.7681 188.886 63.4681C190.286 62.9681 191.686 62.2681 193.286 61.4681ZM181.286 59.2681C179.786 60.9681 178.486 62.3681 176.286 62.4681C178.086 64.6681 179.586 64.7681 181.986 62.8681C184.586 60.9681 181.486 60.5681 181.286 59.2681ZM173.686 68.6681C173.286 69.2681 172.386 69.4681 171.586 69.5681C171.086 69.5681 170.386 69.3681 170.086 70.0681C169.886 70.6681 170.386 71.0681 170.686 71.4681C171.186 72.2681 171.786 71.7681 172.286 71.4681C173.986 70.6681 175.686 69.8681 177.386 68.9681C176.186 67.1681 175.086 66.9681 173.686 68.6681ZM174.586 62.6681C172.586 64.8681 170.386 66.7681 167.086 66.5681C168.986 68.6681 171.086 68.8681 173.186 67.1681C176.086 64.7681 176.186 64.6681 174.586 62.6681ZM172.786 61.0681C171.986 60.2681 171.386 58.9681 169.786 60.2681C168.386 61.4681 166.586 61.8681 164.786 61.8681C166.586 65.7681 168.986 66.2681 172.086 63.1681C172.586 62.6681 174.186 62.2681 172.786 61.0681ZM164.386 67.5681C162.586 69.3681 160.486 70.4681 157.686 70.5681C159.686 73.1681 165.686 72.2681 166.786 69.3681C167.186 68.3681 165.986 67.9681 165.586 67.3681C165.086 66.5681 164.686 67.1681 164.386 67.5681ZM116.386 77.1681C117.386 78.1681 118.486 78.4681 119.786 77.8681C121.686 77.0681 122.986 75.6681 124.686 73.7681C122.286 74.4681 122.386 70.9681 120.586 71.6681C119.086 72.1681 118.086 73.8681 116.686 74.6681C115.186 75.4681 115.486 76.1681 116.386 77.1681ZM117.986 72.0681C118.686 71.3681 118.886 71.0681 118.186 70.0681C116.986 68.4681 116.286 68.2681 115.086 69.8681C113.886 71.3681 112.086 71.4681 110.186 72.0681C112.486 74.5681 115.286 74.4681 117.986 72.0681ZM129.086 71.1681C131.386 69.1681 127.886 68.6681 128.186 66.8681C126.386 68.6681 125.186 70.4681 123.086 71.1681C124.486 72.8681 127.086 72.9681 129.086 71.1681ZM126.286 74.1681C127.586 78.0681 129.586 79.1681 134.586 74.6681C132.086 71.1681 129.186 72.1681 126.286 74.1681ZM138.486 72.8681C140.186 72.5681 141.886 71.8681 142.786 70.6681C143.386 69.7681 141.486 68.6681 140.886 67.4681C138.686 69.4681 136.386 71.4681 132.786 71.5681C134.686 73.2681 136.586 73.1681 138.486 72.8681ZM137.386 75.0681C139.286 77.9681 142.286 77.8681 145.186 74.7681C145.586 74.3681 146.986 73.9681 145.586 72.9681C144.786 72.3681 144.686 70.8681 143.186 72.1681C141.586 73.5681 139.586 74.2681 137.386 74.4681C137.386 74.7681 137.286 74.8681 137.386 75.0681ZM146.886 71.9681C148.486 73.2681 150.686 73.2681 152.586 72.1681C153.386 71.6681 154.086 71.0681 154.786 70.2681C154.086 69.4681 153.386 68.6681 152.686 67.8681C150.786 69.7681 148.786 71.2681 145.986 71.1681C146.286 71.3681 146.586 71.6681 146.886 71.9681ZM148.286 74.3681C150.286 77.9681 151.986 77.6681 158.086 72.7681C156.886 72.8681 156.586 70.7681 155.786 71.5681C153.686 73.7681 151.086 74.2681 148.286 74.3681ZM163.386 62.5681C163.186 61.8681 162.386 62.6681 162.086 62.9681C159.686 65.4681 156.786 66.3681 153.386 66.3681C153.086 64.9681 151.286 64.7681 150.886 63.3681C150.786 63.1681 150.386 63.3681 150.086 63.5681C147.686 65.3681 144.986 65.8681 142.086 65.6681C143.286 69.8681 145.686 70.9681 149.186 68.8681C149.986 68.3681 150.686 67.6681 151.386 67.0681L151.486 66.9681C151.586 66.8681 151.586 66.8681 151.686 66.7681C151.786 66.6681 151.886 66.4681 152.086 66.3681C152.386 66.0681 152.786 65.8681 153.386 66.2681C154.486 67.7681 155.586 69.1681 157.586 69.0681C157.886 69.0681 158.186 69.0681 158.486 68.9681C160.986 68.3681 162.786 67.0681 164.186 65.0681C165.186 64.0681 163.686 63.4681 163.386 62.5681ZM161.786 61.1681C160.686 58.9681 159.286 58.9681 157.386 60.3681C155.886 61.4681 153.886 61.7681 151.886 61.8681C153.886 66.0681 156.686 65.8681 161.786 61.1681ZM158.186 58.1681C156.886 56.2681 155.286 56.5681 153.586 57.4681C152.086 58.2681 150.486 58.3681 148.486 58.5681C150.986 61.2681 155.186 60.9681 158.186 58.1681ZM153.886 55.5681C150.186 55.5681 146.486 55.5681 142.486 55.5681C145.786 58.0681 150.786 57.9681 153.886 55.5681ZM138.286 61.1681C141.186 65.2681 146.486 65.3681 150.186 61.4681C148.986 61.1681 148.086 60.3681 147.286 59.5681C146.986 59.1681 146.486 58.4681 145.986 59.1681C143.986 61.7681 141.286 61.7681 138.286 61.1681ZM138.286 63.3681C137.486 62.2681 136.986 62.2681 136.186 63.2681C134.786 64.9681 132.886 65.9681 130.686 66.0681C129.386 66.0681 129.486 66.6681 129.886 67.5681C131.086 69.9681 133.786 70.6681 136.386 69.1681C138.286 68.1681 139.486 66.1681 141.586 65.3681C140.186 64.9681 138.986 64.4681 138.286 63.3681ZM137.086 60.4681C136.886 60.3681 136.686 60.2681 136.586 60.1681C136.386 60.0681 136.286 59.9681 136.086 59.8681C134.486 58.2681 133.186 58.1681 131.586 59.9681C130.186 61.5681 128.086 62.2681 125.886 62.3681C126.986 64.1681 128.286 64.9681 129.886 64.9681C130.786 64.9681 131.786 64.6681 132.786 64.0681C133.286 63.7681 133.886 63.3681 134.386 62.9681C135.286 62.2681 136.186 61.4681 137.086 60.4681ZM125.386 64.1681C124.786 63.0681 124.286 63.8681 123.786 64.3681C122.286 66.1681 120.586 67.4681 117.586 67.0681C118.486 68.3681 118.786 69.4681 119.986 69.5681C122.686 69.7681 124.786 68.7681 126.386 66.4681C127.486 65.0681 125.886 64.9681 125.386 64.1681ZM123.786 62.3681C123.886 60.7681 121.886 60.6681 121.186 59.2681C119.786 61.2681 117.886 62.2681 115.786 62.8681C116.186 64.5681 116.986 65.8681 118.886 66.0681C120.286 66.0681 123.686 63.7681 123.786 62.3681ZM107.186 69.0681C105.186 71.0681 103.386 73.4681 100.186 73.4681C100.386 74.6681 101.386 75.0681 102.086 75.1681C105.486 75.9681 106.986 72.5681 109.686 71.5681C108.586 71.1681 107.786 70.2681 107.186 69.0681ZM114.286 62.6681C112.686 62.2681 111.786 61.1681 111.186 59.7681C109.186 61.7681 107.486 63.9681 104.086 63.6681C104.786 65.4681 105.186 67.2681 107.186 67.2681C110.286 67.2681 112.486 65.3681 114.286 62.6681ZM103.986 66.6681C103.686 66.0681 103.386 65.4681 102.986 64.6681C101.186 66.3681 99.886 68.5681 97.386 69.0681C96.886 69.1681 96.586 69.5681 97.086 70.1681C97.886 71.1681 98.786 71.9681 100.286 71.9681C102.686 71.9681 104.186 70.6681 105.386 68.9681C106.186 67.7681 104.286 67.5681 103.986 66.6681ZM95.786 70.7681C95.486 70.4681 95.586 69.7681 94.786 69.6681C93.486 71.6681 91.586 72.8681 89.386 73.8681C89.686 74.2681 89.786 74.4681 89.986 74.6681C91.486 76.1681 94.086 75.8681 95.986 74.5681C98.086 73.0681 96.886 71.9681 95.786 70.7681ZM100.986 60.0681C97.986 62.5681 96.186 63.6681 94.386 64.1681C93.786 64.3681 92.586 63.4681 92.586 64.9681C92.586 66.0681 92.986 66.9681 93.986 67.5681C95.186 68.2681 96.586 68.3681 97.886 67.7681C99.886 66.8681 101.286 65.1681 102.486 63.4681C102.986 62.6681 101.086 61.6681 100.986 60.0681ZM92.186 67.2681C91.786 66.8681 91.586 66.1681 91.286 65.3681C89.886 66.5681 88.586 67.5681 86.986 68.0681C85.786 68.4681 85.486 71.2681 86.486 72.0681C87.586 72.8681 90.586 71.8681 92.386 70.4681C93.986 69.2681 93.286 68.3681 92.186 67.2681ZM80.686 74.2681C80.386 74.3681 80.086 74.3681 79.786 74.4681C81.486 78.3681 84.286 78.1681 87.386 74.2681C85.186 70.9681 82.986 73.1681 80.686 74.2681ZM89.786 61.1681C89.786 60.9681 89.686 60.7681 89.586 60.3681C87.986 61.9681 86.186 63.1681 83.986 63.7681C83.186 63.9681 81.986 63.8681 82.086 65.2681C82.186 66.5681 83.086 67.3681 84.186 67.4681C86.786 67.6681 88.686 66.1681 90.486 64.2681C91.686 62.8681 89.786 62.1681 89.786 61.1681ZM80.886 65.7681C78.886 67.0681 76.886 68.1681 77.686 71.0681C77.986 72.3681 78.386 72.8681 79.586 72.8681C82.486 72.8681 83.786 71.0681 84.886 68.4681C82.486 68.7681 81.386 67.4681 80.886 65.7681ZM80.486 81.3681C82.086 81.3681 83.286 81.3681 85.086 81.3681C83.986 80.4681 83.586 79.6681 83.286 78.4681C82.586 79.7681 81.686 80.5681 80.486 81.3681ZM88.086 80.6681C89.886 80.1681 91.086 79.0681 92.386 77.3681C90.886 77.1681 89.886 76.7681 89.086 75.8681C88.786 75.4681 88.486 75.0681 87.986 75.7681C87.186 76.7681 86.086 77.4681 84.986 78.0681C84.286 78.4681 84.486 78.7681 84.786 79.1681C85.586 80.1681 86.386 81.1681 88.086 80.6681ZM91.086 80.8681C92.386 80.8681 93.586 80.8681 94.786 80.8681C94.186 80.1681 93.586 79.5681 92.986 78.8681C92.286 79.5681 91.786 80.1681 91.086 80.8681ZM97.486 79.7681C99.486 79.2681 100.686 78.0681 101.586 76.3681C100.286 75.9681 99.386 75.0681 98.686 73.8681C97.386 74.9681 96.486 76.3681 94.886 76.7681C93.986 76.9681 93.986 77.5681 94.486 78.3681C95.186 79.5681 96.086 80.1681 97.486 79.7681ZM99.486 80.3681C102.486 80.3681 104.886 80.3681 107.686 80.3681C105.686 79.4681 103.986 78.9681 103.186 76.8681C101.886 78.0681 101.286 79.4681 99.486 80.3681ZM110.686 77.5681C111.486 76.9681 112.286 76.2681 112.986 75.6681C110.786 74.1681 108.586 72.7681 106.386 75.5681C105.986 76.0681 104.586 75.8681 104.786 76.7681C104.986 77.6681 105.986 78.2681 106.986 78.4681C108.286 78.8681 109.586 78.4681 110.686 77.5681ZM109.286 79.6681C115.786 79.8681 122.186 80.0681 128.686 79.7681C137.186 79.2681 145.586 79.6681 154.086 79.2681C156.186 79.1681 157.886 78.9681 159.686 77.5681C158.786 76.8681 158.086 75.9681 157.686 74.9681C151.786 79.5681 149.486 78.6681 146.686 75.1681C146.186 75.6681 145.686 76.1681 145.186 76.6681C143.186 78.2681 139.186 79.0681 137.986 77.4681C136.186 75.2681 134.986 76.1681 133.386 77.3681C132.586 77.9681 131.586 78.3681 130.586 78.5681C128.786 78.9681 127.186 78.5681 126.486 77.0681C125.286 74.6681 124.586 75.7681 123.286 76.9681C121.586 78.6681 119.686 80.1681 116.986 78.9681C116.086 78.5681 111.186 78.8681 110.186 79.2681C109.886 79.5681 109.586 79.5681 109.286 79.6681ZM161.986 75.9681C163.886 75.4681 165.486 74.4681 167.286 73.8681C169.486 73.1681 169.986 72.1681 168.486 70.3681C168.386 70.2681 168.286 70.1681 168.186 69.9681C165.786 72.8681 162.686 74.0681 158.786 73.7681C159.386 75.4681 159.686 76.5681 161.986 75.9681ZM163.986 76.9681C166.086 78.6681 168.186 78.7681 170.786 78.0681C169.286 77.3681 168.786 75.5681 167.686 75.4681C166.586 75.2681 165.386 76.2681 163.986 76.9681ZM192.486 77.0681C194.186 77.0681 195.986 77.0681 197.686 77.0681C195.886 73.5681 194.186 76.4681 192.486 77.0681ZM205.586 74.6681C202.986 71.2681 200.186 72.7681 197.286 74.3681C199.586 76.8681 201.986 76.8681 205.586 74.6681ZM203.286 77.4681C205.886 77.4681 208.486 77.4681 211.586 77.4681C209.986 76.5681 208.986 75.5681 207.886 75.0681C206.886 74.5681 205.786 76.3681 204.586 76.8681C204.186 76.9681 203.686 77.1681 203.286 77.4681ZM218.486 74.2681C215.486 72.2681 212.786 72.9681 210.086 74.7681C212.186 76.2681 215.386 76.0681 218.486 74.2681ZM215.286 76.9681C216.086 77.2681 216.886 77.2681 217.586 77.2681C223.886 77.2681 230.186 77.1681 236.486 76.7681C241.986 76.4681 247.486 76.8681 252.986 76.3681C255.686 76.1681 256.286 75.3681 255.686 72.9681C254.986 73.1681 254.386 73.4681 253.686 73.5681C251.886 73.9681 249.886 74.5681 248.486 73.2681C246.886 71.7681 246.086 72.2681 244.786 73.5681C241.886 76.4681 237.186 76.7681 234.986 74.1681C233.786 72.8681 233.186 72.8681 232.086 74.0681C231.686 74.5681 231.086 74.8681 230.586 75.2681C228.486 76.8681 225.686 77.7681 223.786 76.1681C221.486 74.1681 219.986 74.9681 217.986 76.0681C217.286 76.5681 216.186 76.6681 215.286 76.9681ZM255.786 66.7681C253.886 68.0681 251.986 68.9681 249.686 69.1681C253.786 71.0681 255.886 70.2681 255.786 66.7681ZM254.586 60.1681C254.086 59.5681 253.686 58.7681 253.186 57.9681C252.686 58.7681 251.286 59.1681 251.586 60.2681C251.786 61.1681 253.086 61.3681 253.886 61.5681C254.486 61.7681 255.186 62.0681 255.486 61.1681C255.686 60.3681 254.886 60.4681 254.586 60.1681ZM253.086 51.8681C251.586 52.3681 250.186 53.1681 248.586 52.2681C246.986 51.3681 246.286 53.0681 245.286 53.5681C244.486 53.9681 245.086 54.6681 245.386 55.1681C246.186 56.4681 247.486 56.1681 248.586 55.8681C249.286 55.6681 249.886 54.9681 250.486 54.4681C251.386 53.5681 251.986 53.0681 252.486 52.8681C253.086 52.5681 253.486 52.8681 254.086 53.7681C254.286 54.0681 254.586 54.3681 254.886 54.8681C254.986 54.8681 255.086 54.8681 255.186 54.7681C255.186 54.7681 255.186 54.6681 255.186 54.5681C255.086 54.6681 254.986 54.7681 254.886 54.7681C255.186 48.5681 255.786 49.4681 250.686 50.0681C249.886 50.1681 248.986 50.1681 248.086 50.2681C249.986 51.3681 250.986 51.4681 252.586 50.5681C253.086 50.2681 253.686 49.8681 253.986 50.4681C254.286 51.1681 253.586 51.6681 253.086 51.8681ZM230.886 50.4681C232.086 53.5681 234.686 54.0681 237.486 51.7681C238.186 51.1681 238.686 50.2681 239.886 51.2681C242.786 53.4681 243.886 53.3681 246.986 50.5681C241.386 50.4681 236.186 50.4681 230.886 50.4681ZM229.686 51.6681C227.986 54.5681 225.186 54.9681 222.186 54.5681C223.386 58.4681 228.786 58.6681 232.386 54.0681C231.286 53.4681 230.586 52.5681 229.686 51.6681ZM221.986 53.1681C224.186 54.3681 226.886 53.5681 228.686 50.7681C226.386 50.7681 224.386 50.7681 222.386 50.7681C221.686 50.7681 220.986 50.9681 220.786 51.5681C220.686 52.3681 221.386 52.7681 221.986 53.1681ZM210.286 55.6681C213.986 58.3681 219.086 57.4681 220.586 53.9681C220.886 53.2681 219.686 52.8681 219.786 51.9681C219.786 51.4681 219.186 51.9681 218.886 52.0681C216.086 53.2681 213.286 54.4681 210.286 55.6681ZM207.086 56.9681C206.486 57.4681 205.486 57.6681 204.686 57.9681C204.186 58.1681 203.286 58.2681 203.286 58.7681C203.386 59.6681 203.686 60.6681 204.686 61.0681C205.186 61.2681 205.786 61.2681 205.986 61.2681C208.286 61.2681 209.786 60.4681 211.086 59.0681C211.386 58.7681 211.986 58.2681 211.286 57.9681C210.186 57.2681 209.086 55.3681 207.086 56.9681ZM199.386 56.8681C197.686 58.4681 195.086 58.5681 192.886 57.4681C191.686 56.8681 190.886 57.0681 190.286 57.3681C191.986 60.8681 195.086 60.0681 197.786 59.3681C200.486 58.6681 202.986 57.2681 205.486 56.1681C203.386 55.6681 201.386 55.0681 199.386 56.8681ZM181.786 55.5681C184.486 58.0681 187.086 57.4681 189.886 56.1681C190.786 55.7681 191.686 54.8681 192.886 55.8681C194.986 57.5681 197.086 56.8681 199.686 55.3681C193.386 55.0681 187.686 54.9681 181.786 55.5681ZM181.786 56.5681C178.486 57.7681 175.586 58.7681 172.486 58.9681C172.586 58.8681 172.786 58.7681 172.886 58.6681C172.786 58.6681 172.786 58.5681 172.686 58.5681C172.586 58.6681 172.486 58.8681 172.386 58.9681C176.286 62.1681 177.186 61.9681 181.786 56.5681ZM169.786 55.5681C173.286 58.5681 176.186 57.2681 179.686 55.5681C176.286 55.5681 173.286 55.5681 169.786 55.5681ZM161.686 58.8681C164.086 61.4681 165.986 61.2681 170.986 58.0681C167.586 55.7681 164.986 59.4681 161.686 58.8681ZM157.286 55.6681C161.086 58.7681 164.486 57.2681 168.386 55.6681C164.386 55.6681 161.086 55.6681 157.286 55.6681ZM163.986 24.2681C160.486 24.3681 156.986 24.7681 153.486 24.8681C149.686 24.9681 145.886 25.4681 142.086 25.7681C140.386 25.8681 139.586 26.5681 139.686 28.5681C139.686 29.5681 139.786 30.5681 139.786 31.4681C139.786 34.3681 139.786 37.3681 139.786 40.2681C139.786 43.3681 139.786 46.3681 139.786 49.4681C139.786 50.4681 139.786 51.4681 139.686 52.5681C139.686 53.8681 140.086 54.0681 141.286 54.0681C149.086 54.0681 156.786 54.0681 164.586 54.0681C165.886 54.0681 166.186 53.6681 166.186 52.4681C165.986 43.5681 165.886 34.7681 165.786 25.8681C165.586 24.6681 165.186 24.2681 163.986 24.2681ZM163.186 8.96811C157.386 9.06811 151.486 8.96811 145.686 9.26811C143.886 9.36811 141.286 8.46811 140.386 10.0681C139.486 11.5681 140.186 13.9681 140.186 15.9681C140.186 18.8681 140.186 21.7681 140.186 24.8681C144.886 24.3681 149.286 24.2681 153.586 23.7681C156.786 23.4681 160.086 23.7681 163.386 23.0681C164.586 22.7681 164.786 22.4681 164.686 21.4681C164.286 17.6681 164.086 13.8681 164.186 10.0681C164.086 9.16811 163.886 8.96811 163.186 8.96811ZM162.686 7.16811C160.686 5.96811 158.586 4.76811 156.686 3.36811C153.986 1.36811 151.386 0.668113 148.586 3.06811C147.986 3.56811 146.986 3.76811 146.286 4.16811C143.886 5.46811 141.586 6.76811 139.286 8.06811C147.086 7.36811 154.986 8.46811 162.686 7.16811ZM136.386 58.1681C139.386 60.8681 141.586 60.9681 144.786 58.5681C143.086 58.2681 142.086 56.2681 140.786 56.2681C139.386 56.2681 137.886 57.4681 136.386 58.1681ZM130.886 55.7681C133.686 57.7681 135.986 56.9681 138.586 55.7681C135.886 55.7681 133.586 55.7681 130.886 55.7681ZM128.786 56.4681C126.886 57.6681 124.986 58.6681 122.386 58.5681C125.486 61.8681 127.886 61.6681 131.786 57.7681C130.186 58.3681 130.486 55.4681 128.786 56.4681ZM119.786 56.1681C122.686 58.3681 124.986 57.2681 127.986 55.4681C124.986 55.6681 122.486 55.2681 119.786 56.1681ZM116.586 58.0681C115.586 59.0681 114.186 59.4681 112.486 59.5681C114.786 62.4681 117.186 61.9681 120.186 58.2681C119.086 56.4681 118.086 56.5681 116.586 58.0681ZM109.186 56.1681C111.286 59.0681 113.786 58.9681 116.586 56.1681C114.086 56.1681 111.786 56.1681 109.186 56.1681ZM102.186 59.9681C102.686 61.6681 103.586 62.7681 105.186 62.5681C106.986 62.3681 108.786 61.3681 109.486 59.5681C109.986 58.2681 108.186 57.9681 107.686 56.9681C106.286 58.8681 104.686 60.1681 102.186 59.9681ZM100.086 56.5681C102.286 59.4681 104.686 59.1681 106.286 56.1681C104.286 56.3681 102.386 56.4681 100.086 56.5681ZM92.286 57.0681C94.286 59.7681 96.186 59.5681 98.286 56.6681C96.286 56.1681 94.286 56.9681 92.286 57.0681ZM94.586 62.7681C96.286 62.6681 97.986 61.0681 99.586 59.4681C99.986 59.0681 99.886 58.5681 99.486 58.2681C98.986 57.8681 98.786 58.3681 98.586 58.5681C96.386 60.5681 94.086 61.1681 91.786 58.7681C91.386 58.3681 90.986 58.2681 90.786 58.9681C90.086 60.5681 91.986 62.7681 94.586 62.7681ZM82.486 58.1681C82.486 58.9681 83.286 59.2681 83.786 59.2681C86.186 59.5681 88.286 59.0681 90.386 56.9681C87.886 57.1681 85.886 57.2681 83.886 57.4681C83.386 57.5681 82.486 57.0681 82.486 58.1681ZM79.586 60.9681C79.986 61.6681 79.886 62.7681 81.286 62.7681C83.586 62.7681 85.586 62.2681 87.186 60.3681C85.286 61.0681 83.686 60.7681 82.186 59.8681C81.686 59.5681 81.286 58.4681 80.586 59.4681C80.086 59.8681 78.986 59.9681 79.586 60.9681ZM74.186 66.2681C74.886 67.4681 76.086 67.3681 77.286 66.7681C79.786 65.6681 80.086 64.4681 78.586 62.5681C78.386 62.3681 78.186 62.0681 77.986 61.8681C77.086 62.6681 76.186 63.3681 75.486 64.1681C74.886 64.6681 73.486 65.0681 74.186 66.2681ZM71.486 72.7681C72.486 72.8681 73.486 72.8681 74.386 72.0681C74.786 71.7681 75.286 70.8681 75.786 71.7681C76.186 72.4681 75.286 72.8681 74.786 73.1681C74.386 73.3681 73.986 73.5681 73.486 73.7681C72.786 74.0681 71.586 73.8681 71.886 75.0681C72.186 76.2681 72.986 77.1681 73.986 77.1681C76.686 77.0681 77.986 74.7681 76.786 72.8681C76.286 71.9681 75.986 70.9681 76.086 69.9681C76.086 69.5681 76.286 68.8681 75.986 68.6681C73.786 66.3681 70.686 67.2681 69.686 70.4681C69.586 71.7681 69.986 72.6681 71.486 72.7681ZM63.986 77.4681C66.186 78.1681 67.886 77.0681 69.486 75.5681C70.986 74.2681 69.886 73.5681 69.086 72.6681C68.786 72.2681 68.586 71.6681 68.086 70.6681C66.586 72.3681 65.286 73.8681 63.786 75.3681C63.086 76.1681 62.986 77.1681 63.986 77.4681ZM56.586 82.6681C57.686 83.1681 58.686 82.9681 59.486 82.7681C61.486 82.3681 63.086 81.0681 63.986 79.3681C64.586 78.2681 62.286 78.5681 62.286 77.3681C62.286 77.2681 62.086 77.1681 61.986 76.9681C60.186 78.8681 58.086 80.4681 56.586 82.6681ZM108.486 135.368C117.786 134.868 126.986 134.668 136.286 134.368C143.286 134.068 150.386 133.668 157.386 133.568C159.386 133.568 159.386 132.768 159.486 131.168C159.886 119.768 157.686 108.368 158.486 98.7681C158.486 92.1681 158.386 87.3681 158.486 82.5681C158.486 80.9681 157.986 80.6681 156.486 80.6681C149.186 80.7681 141.886 80.9681 134.686 81.0681C120.286 81.2681 105.886 81.8681 91.586 82.4681C80.586 82.9681 69.586 84.0681 58.586 83.9681C56.986 83.9681 56.486 84.4681 56.686 86.0681C57.086 89.7681 57.486 93.4681 57.586 97.2681C57.886 107.368 57.886 117.468 58.186 127.468C58.286 130.968 58.586 134.468 58.586 138.068C58.586 138.868 58.586 139.368 59.686 139.268C66.886 138.568 74.086 137.968 81.286 137.368C90.286 136.568 99.386 135.768 108.486 135.368ZM132.486 135.868C135.086 137.668 137.086 139.668 137.486 143.368C139.386 139.368 142.186 137.368 145.686 135.168C140.986 135.468 136.786 134.968 132.486 135.868ZM103.986 145.068C105.086 141.368 107.686 138.968 111.286 136.668C108.686 136.668 106.686 136.668 104.586 136.668C103.886 136.668 103.186 136.568 103.086 137.668C102.986 139.268 103.386 143.568 103.986 145.068ZM110.486 173.168C107.986 171.668 107.086 168.768 104.886 166.968C105.686 168.768 104.586 170.668 105.386 172.368C106.686 174.968 108.786 172.668 110.486 173.168ZM143.186 171.268C140.386 168.468 137.986 165.768 138.086 161.768C136.686 165.068 135.486 168.468 132.786 171.368C136.286 172.368 139.586 171.168 143.186 171.268ZM179.686 169.968C175.986 167.768 173.986 164.768 171.986 161.568C170.886 165.268 168.786 168.168 165.286 170.368C168.086 170.368 170.286 170.368 172.486 170.368C174.586 170.368 176.786 170.468 179.686 169.968ZM197.586 168.468C202.486 167.768 206.586 162.068 205.986 156.868C205.786 155.468 205.386 154.068 203.986 153.668C202.386 153.268 200.786 153.568 199.586 154.868C198.986 155.468 198.786 155.968 199.286 156.768C199.686 157.368 200.186 157.668 200.886 157.268C201.286 157.068 201.686 156.668 202.186 157.268C201.886 158.268 201.086 158.768 200.086 158.668C198.986 158.568 198.186 157.868 197.886 156.768C197.286 154.968 198.586 154.068 199.786 152.968C199.186 152.668 198.486 152.568 198.086 152.068C197.086 150.868 196.386 149.568 197.186 147.968C197.886 146.568 199.086 146.568 200.486 146.668C201.186 146.768 201.386 147.368 201.386 147.868C201.386 148.168 200.886 148.568 200.586 148.168C199.886 147.468 199.086 147.468 198.486 148.168C197.986 148.768 198.086 149.768 198.486 150.468C198.886 151.168 199.586 151.568 200.486 151.468C202.886 151.368 204.786 149.468 204.986 147.068C205.586 141.268 200.086 135.368 195.586 133.768C194.786 133.468 193.686 133.568 192.786 133.768C190.486 134.268 189.386 136.968 190.686 138.768C191.086 139.268 191.486 139.468 192.086 139.468C192.886 139.468 192.886 138.868 193.186 138.468C193.586 137.868 192.786 136.768 194.086 136.568C194.686 138.968 193.886 140.668 192.186 140.868C190.086 141.068 189.486 139.468 188.986 137.768C188.586 136.068 189.286 134.668 190.286 133.368C187.686 133.468 185.286 133.668 182.886 133.768C185.186 135.168 185.086 137.268 184.586 139.168C184.086 140.968 183.086 142.668 180.786 142.968C179.286 143.168 177.986 142.868 177.586 141.368C177.186 139.768 177.786 138.468 179.486 137.768C180.186 137.468 180.886 137.468 181.086 138.168C181.286 138.768 180.586 138.968 179.986 139.068C178.986 139.168 178.686 139.968 178.686 140.768C178.686 141.168 178.986 141.868 179.686 141.968C181.086 142.068 181.986 141.268 182.586 140.168C183.286 138.868 184.386 137.568 183.186 136.068C182.386 135.068 181.186 134.468 179.786 134.868C178.086 135.468 176.686 136.468 175.486 137.768C173.386 140.268 171.786 143.068 171.686 146.468C171.686 147.568 172.086 148.668 173.386 149.068C174.186 149.268 175.086 149.168 175.386 148.268C175.786 147.368 176.586 146.268 175.486 145.568C174.286 145.368 174.786 146.768 173.886 146.668C173.686 146.668 173.586 146.368 173.486 146.168C173.386 145.368 173.686 144.768 174.286 144.368C174.886 143.968 175.586 143.768 176.186 144.368C177.086 145.168 177.186 148.168 176.186 149.268C175.086 150.468 173.586 151.268 172.186 149.968C171.086 148.968 170.486 149.168 169.286 149.668C166.386 150.968 163.886 149.768 164.086 147.168C164.186 146.268 164.586 145.368 165.586 145.468C166.286 145.568 167.186 145.768 167.186 146.668C167.086 147.968 165.786 146.568 165.286 147.368C166.186 148.968 166.186 148.868 167.886 148.668C169.186 148.568 169.686 147.768 169.786 146.668C170.286 141.968 164.786 135.268 159.986 134.768C158.486 134.568 156.886 135.068 156.286 136.768C155.886 137.768 156.286 138.668 156.986 139.368C157.486 139.868 157.886 139.368 158.186 138.968C158.586 138.568 158.986 137.568 159.586 138.268C160.186 138.868 159.386 139.668 158.986 140.068C157.786 141.268 156.586 141.168 155.686 139.668C154.686 138.068 154.886 136.368 155.886 134.868C154.686 134.868 153.486 134.868 152.186 134.868C152.386 135.368 152.586 135.668 152.686 135.868C153.786 137.368 153.986 139.068 152.786 140.468C151.486 141.968 149.486 142.268 147.686 141.868C146.386 141.568 145.686 140.368 146.186 138.868C146.386 138.368 146.486 137.968 147.186 138.168C147.786 138.368 147.486 138.768 147.386 139.068C147.186 139.768 147.186 140.468 147.886 140.668C149.186 141.068 150.386 140.568 151.386 139.868C152.286 139.268 152.186 138.168 151.786 137.268C151.386 136.168 150.586 135.768 149.386 135.768C144.886 135.868 139.086 140.068 137.686 144.268C137.086 146.268 138.286 148.268 140.286 148.068C141.586 147.968 142.986 147.568 143.686 146.268C144.386 145.068 143.986 144.168 142.486 143.768C142.186 143.668 142.286 143.268 142.486 142.968C142.886 142.568 143.286 142.568 143.786 142.868C145.186 143.668 145.686 145.568 144.786 146.968C143.386 149.168 140.286 149.968 138.086 148.568C137.086 147.868 136.686 147.968 135.786 148.768C134.186 150.268 132.386 150.068 130.486 149.168C128.786 148.368 128.286 147.068 128.286 145.368C128.386 143.668 129.286 142.968 130.686 143.268C131.986 143.468 133.486 144.068 132.986 146.068C132.086 146.068 131.886 145.368 131.386 144.968C130.886 144.568 130.386 144.468 129.886 144.768C129.286 145.068 129.186 145.668 129.286 146.268C129.786 147.968 131.186 148.768 132.686 148.868C134.286 148.968 135.586 148.168 135.886 146.368C136.586 141.868 132.386 136.668 127.786 136.368C124.886 136.168 122.686 137.368 122.186 139.368C121.886 140.468 122.286 141.568 123.386 141.868C124.486 142.168 124.886 141.368 124.886 140.368C124.886 139.868 124.586 139.068 125.586 139.168C126.186 139.268 126.386 139.868 126.386 140.468C126.286 142.168 125.286 143.168 123.686 143.268C122.286 143.368 121.386 142.368 121.086 140.968C120.786 139.468 121.286 138.068 122.086 136.768C120.686 136.768 119.486 136.768 118.086 136.768C120.286 138.468 120.086 140.468 118.986 142.368C117.786 144.468 115.186 145.768 113.186 145.268C111.786 144.868 111.386 143.768 111.486 142.468C111.586 141.168 112.386 140.268 113.686 139.968C114.186 139.868 114.586 140.268 114.786 140.768C114.886 141.268 114.486 141.368 114.086 141.368C112.686 141.368 112.486 142.268 112.786 143.168C113.086 144.268 113.986 144.468 115.086 144.068C116.486 143.468 117.486 142.568 118.186 141.268C119.086 139.568 118.486 137.968 116.586 137.668C109.186 136.368 102.986 144.368 103.886 149.768C104.286 151.968 105.886 152.668 107.886 151.668C108.786 151.168 109.286 150.368 109.686 149.468C110.086 148.368 110.586 146.868 109.486 146.368C108.186 145.768 107.786 147.368 107.386 148.268C107.386 148.368 107.086 148.368 106.986 148.368C106.586 146.768 107.086 145.568 108.286 145.068C108.486 144.968 108.686 144.968 108.886 144.868C110.286 144.468 110.986 145.268 111.386 146.468C111.986 148.268 110.686 151.468 108.986 152.468C106.686 153.968 104.886 153.668 102.986 151.768C102.686 153.568 103.386 155.268 103.486 157.068C104.986 155.468 107.086 155.268 108.486 156.368C110.286 157.768 110.986 160.568 109.886 162.068C109.386 162.668 108.886 163.368 107.886 162.968C106.986 162.668 106.686 161.968 106.586 161.168C106.386 160.468 106.586 159.768 107.286 159.668C107.986 159.568 107.686 160.368 107.786 160.768C107.786 161.168 107.786 161.668 108.386 161.568C108.586 161.568 108.886 161.368 108.986 161.268C109.486 160.468 109.386 159.568 108.886 158.768C108.186 157.768 107.686 156.668 106.186 156.768C104.986 156.868 104.786 157.768 104.586 158.568C104.386 159.668 104.486 160.768 104.486 161.868C104.586 165.668 108.586 171.368 111.686 172.568C113.786 173.368 114.986 172.668 115.686 170.668C116.586 168.068 116.186 166.568 114.186 165.668C112.986 165.068 112.286 165.768 111.786 166.468C111.186 167.468 112.086 167.968 112.786 168.568C113.186 168.868 114.486 168.268 113.886 169.468C113.486 170.368 112.586 169.868 111.986 169.568C110.186 168.868 109.886 166.668 111.286 165.268C112.486 164.068 113.786 164.068 115.186 164.768C117.286 165.768 117.686 167.568 117.286 169.568C117.086 170.768 116.486 171.868 115.986 172.968C119.586 173.168 122.886 172.468 126.286 172.168C123.586 172.068 123.286 170.268 123.586 168.368C123.786 166.268 125.086 164.968 127.086 164.268C128.186 163.868 129.386 163.468 130.086 164.468C130.786 165.468 130.386 166.768 129.786 167.868C129.486 168.268 129.186 168.768 128.686 168.568C127.986 168.268 128.386 167.668 128.686 167.168C128.986 166.668 129.486 166.168 129.386 165.468C129.186 165.368 128.886 165.268 128.686 165.268C126.586 165.168 125.486 166.568 124.886 168.268C124.386 169.568 125.086 170.668 126.086 171.268C127.686 172.168 129.086 172.068 130.586 170.668C133.886 167.668 135.286 163.868 135.986 159.668C136.286 158.168 135.786 156.368 134.286 155.468C132.986 154.668 131.586 154.968 130.186 155.468C129.286 155.868 128.886 156.668 128.686 157.468C128.586 157.868 128.886 158.368 129.486 158.468C130.386 158.568 130.986 158.368 131.386 157.368C131.586 156.968 131.886 156.468 132.486 156.968C132.986 157.368 132.686 157.768 132.486 158.168C131.986 159.268 131.086 159.768 129.886 159.868C128.886 159.968 128.086 159.568 127.786 158.668C127.286 157.568 127.486 156.468 128.186 155.568C129.486 154.068 131.186 153.568 133.086 153.568C135.086 153.668 136.086 155.068 136.986 156.768C137.786 154.868 138.386 153.168 140.286 152.468C142.386 151.668 144.386 152.468 145.386 154.568C146.286 156.468 145.186 157.568 143.786 158.568C142.586 159.368 140.986 158.668 140.986 157.268C140.986 156.768 141.286 156.068 141.786 156.668C142.386 157.468 142.886 157.768 143.686 157.068C144.286 156.568 144.586 155.968 144.286 155.168C143.986 154.168 143.286 153.568 142.186 153.468C140.386 153.168 138.886 154.468 138.586 156.468C138.186 158.668 138.286 160.968 138.686 163.168C139.286 166.368 140.986 169.068 144.086 170.568C145.486 171.268 147.286 171.768 148.386 170.268C149.386 168.968 149.886 167.268 148.486 165.668C147.786 164.868 146.886 164.468 145.886 164.768C144.686 165.068 144.886 166.068 144.886 166.868C144.886 167.168 144.786 167.468 144.386 167.468C143.486 165.268 143.986 163.668 145.586 163.268C145.786 163.168 146.086 163.168 146.386 163.168C149.086 163.168 151.286 165.968 150.486 168.668C150.286 169.368 150.086 170.068 149.886 170.868C152.986 170.868 155.786 170.868 158.686 170.868C157.286 167.768 157.386 166.068 158.986 164.268C160.086 162.968 161.386 162.968 162.886 163.668C163.886 164.168 164.886 164.668 164.686 166.068C164.586 166.668 164.586 167.268 163.886 167.368C162.886 167.568 163.186 166.668 163.186 166.268C163.186 165.468 162.886 165.268 162.286 164.868C161.086 164.268 160.286 164.568 159.586 165.568C158.786 166.668 158.386 167.868 159.286 169.068C159.986 169.968 160.686 170.668 162.086 170.168C167.286 168.368 171.386 161.368 170.386 155.968C169.986 153.768 167.586 152.568 165.686 153.468C164.786 153.868 164.586 154.468 164.586 155.368C164.586 155.668 164.686 156.068 165.086 156.068C165.886 156.068 166.286 155.468 166.586 154.768C166.686 154.568 166.986 154.568 167.186 154.368C167.886 155.568 167.486 156.368 166.486 156.968C165.686 157.468 164.786 157.668 164.086 156.968C163.286 156.168 162.986 155.368 163.586 154.168C164.986 151.168 168.686 151.168 171.286 154.268C175.486 150.068 177.986 151.468 179.986 154.368C180.886 155.668 180.686 157.168 179.186 158.068C177.886 158.868 175.586 157.968 174.986 156.568C174.686 155.968 174.686 155.368 175.186 155.068C176.086 154.568 175.886 155.368 176.086 155.868C176.586 156.968 177.586 157.468 178.586 156.768C179.386 156.168 179.186 155.068 178.486 154.268C177.386 152.868 175.286 152.568 173.786 153.668C171.986 154.968 171.186 157.068 171.886 158.968C173.386 163.668 176.386 167.368 181.086 169.268C182.986 170.068 185.586 168.968 186.286 167.568C187.186 165.668 186.186 164.368 184.886 163.168C184.186 162.568 183.186 162.068 182.286 162.968C181.386 163.868 182.286 164.368 182.886 164.968C183.186 165.268 183.486 165.568 183.186 165.968C182.786 166.468 182.286 166.168 181.886 165.868C180.586 164.968 180.586 163.568 181.086 162.468C181.686 161.068 182.986 160.968 184.386 161.568C185.186 161.868 185.786 162.368 186.286 162.868C187.186 163.768 187.686 164.968 187.686 166.368C187.686 167.368 187.486 168.368 186.986 169.468C187.786 169.468 188.686 169.468 189.486 169.468C189.786 169.468 190.086 169.468 190.286 169.468C191.386 169.368 192.486 169.168 193.586 168.968C192.986 167.568 192.786 165.968 192.886 165.068C193.186 163.468 195.586 161.868 197.086 162.268C198.886 162.868 198.186 164.368 198.086 165.468C197.986 166.168 197.386 167.068 196.686 166.768C195.586 166.368 196.486 165.668 196.886 165.068C197.186 164.568 197.386 164.068 196.886 163.568C196.386 163.068 195.986 163.468 195.586 163.668C194.086 164.068 193.586 165.168 193.886 166.568C194.886 168.268 195.986 168.668 197.586 168.468ZM171.186 143.168C172.886 139.368 174.686 135.868 178.986 133.968C173.686 133.468 168.986 134.468 163.686 134.368C167.686 136.468 169.486 139.668 171.186 143.168ZM205.986 134.168C205.986 133.568 206.186 132.568 205.186 132.968C202.986 133.768 200.686 133.068 198.286 133.568C201.786 136.168 203.386 138.068 205.986 142.668C205.986 139.468 205.986 136.768 205.986 134.168ZM203.986 152.068C204.786 152.568 205.486 153.068 206.186 153.568C206.186 152.068 206.186 150.668 206.186 149.068C205.486 150.168 204.786 151.068 203.986 152.068ZM206.686 167.668C206.186 166.168 206.686 164.568 206.086 162.668C204.986 165.368 203.286 167.168 200.786 168.768C202.586 168.768 203.886 168.768 205.186 168.768C205.986 168.768 207.086 168.568 206.686 167.668ZM257.086 128.168C256.786 111.868 257.086 95.4681 256.386 79.1681C256.286 77.7681 255.986 77.6681 254.786 77.6681C250.786 77.7681 246.786 78.0681 242.786 78.0681C229.786 78.0681 216.686 79.0681 203.686 78.6681C190.686 78.3681 177.686 78.9681 164.686 80.0681C163.186 80.1681 161.486 79.6681 160.186 80.5681C158.686 81.6681 159.786 83.4681 159.686 84.8681C159.086 92.1681 159.586 99.5681 159.686 106.868C159.786 112.668 160.186 118.468 160.386 124.368C160.486 126.668 160.386 128.968 160.386 131.368C160.386 132.968 160.986 133.668 162.686 133.468C164.386 133.268 165.986 133.068 167.686 132.968C175.886 132.668 184.086 132.268 192.386 132.068C205.286 131.668 218.086 131.368 230.986 131.068C238.586 130.868 246.186 130.368 253.786 130.568C254.386 130.568 254.886 130.468 255.486 130.368C256.686 130.068 257.186 129.568 257.086 128.168ZM260.886 280.168C260.686 280.368 260.386 280.468 260.186 280.768C259.986 280.968 260.286 281.268 260.386 281.168C260.686 281.068 260.886 280.768 260.886 280.768C261.386 280.268 260.986 280.168 260.886 280.168ZM204.686 250.168C205.386 253.368 204.586 253.868 201.586 254.168C198.886 254.368 196.186 254.468 193.486 254.768C186.786 255.368 180.086 255.268 173.386 255.468C172.886 255.468 172.286 255.468 172.186 254.968C171.686 252.768 171.386 250.468 172.086 248.468C172.386 247.568 172.786 246.668 172.786 245.768C172.386 233.468 171.086 221.168 171.486 208.868C171.586 205.568 171.486 202.068 172.686 198.868C175.486 190.968 180.986 187.368 190.486 189.768C197.386 191.568 198.286 195.168 199.886 201.668C201.186 207.268 200.486 212.968 200.886 218.568C201.486 226.568 201.786 234.468 201.786 242.468C201.786 244.068 201.786 245.568 201.786 247.168C204.286 246.368 204.186 247.968 204.686 250.168ZM185.986 202.968C189.786 202.568 193.186 202.368 196.586 201.968C197.286 201.868 198.386 202.068 198.386 200.668C198.386 197.468 195.586 192.968 192.686 191.768C191.786 191.368 191.386 191.468 190.886 192.568C189.386 195.868 188.186 199.468 185.986 202.968ZM181.086 192.168C182.386 195.168 183.686 198.168 185.186 201.568C187.286 198.268 188.286 194.868 189.686 191.768C190.086 190.968 189.586 190.668 189.086 190.568C186.786 190.268 184.486 189.568 182.086 190.268C180.886 190.668 180.686 191.168 181.086 192.168ZM173.286 202.368C173.286 203.868 173.786 204.168 175.086 203.968C178.186 203.568 181.186 203.268 184.386 202.868C182.786 199.068 181.186 195.368 179.586 191.468C175.686 194.268 173.286 197.668 173.286 202.368ZM173.886 247.368C173.886 247.568 173.986 247.868 173.986 248.068C182.486 248.168 190.886 247.768 199.286 247.268C199.686 247.268 200.386 247.668 200.386 246.768C200.386 244.868 200.586 242.968 200.586 241.068C200.286 233.468 199.986 225.968 199.686 218.368C199.486 214.168 199.386 209.868 199.186 205.668C199.086 202.968 198.786 202.868 196.186 203.268C193.986 203.668 191.786 203.868 189.586 203.968C184.886 204.368 180.186 204.568 175.586 204.968C173.486 205.168 172.186 206.268 172.386 208.568C172.486 209.268 172.386 209.968 172.386 210.768C172.686 222.968 173.886 235.168 173.886 247.368ZM203.586 250.568C203.386 248.568 202.486 247.868 200.686 248.268C199.986 248.368 199.286 248.568 198.586 248.568C191.086 248.568 183.586 249.368 176.086 249.068C173.086 248.968 173.086 249.068 173.386 252.168C173.486 252.768 173.386 253.468 173.386 254.468C175.186 253.668 176.686 253.768 178.186 253.868C185.986 254.168 193.786 253.268 201.586 252.868C203.086 252.868 203.686 252.268 203.586 250.568ZM197.586 292.268C197.186 291.968 196.786 291.768 196.286 291.868C189.186 292.968 181.986 292.268 174.786 292.668C164.486 293.168 154.186 293.568 143.886 293.368C141.886 293.368 139.786 293.768 137.786 293.968C138.486 294.968 139.186 294.768 139.986 294.768C146.386 294.668 152.786 294.768 159.186 294.468C169.286 294.068 179.486 293.768 189.586 293.768C193.986 293.768 198.386 292.968 200.886 297.768C201.086 298.168 201.586 298.268 201.886 298.068C202.386 297.668 202.086 297.168 201.786 296.768C200.486 295.268 199.286 293.468 197.586 292.268ZM242.886 291.768C242.186 291.368 241.886 292.068 241.586 292.468C240.386 294.668 239.286 296.868 238.086 299.068C237.786 299.568 237.886 299.968 238.386 300.168C239.186 300.068 239.486 299.568 239.786 298.968C240.786 297.068 241.786 295.068 242.686 293.068C242.986 292.768 243.586 292.268 242.886 291.768ZM128.786 288.568C126.586 289.468 124.686 290.968 123.086 292.668C122.686 293.068 122.586 293.568 122.886 293.968C123.386 294.568 123.786 294.168 124.286 293.768C125.786 292.368 127.386 291.168 129.286 290.168C129.686 289.968 130.186 289.768 130.086 289.068C129.886 288.468 129.386 288.368 128.786 288.568ZM32.586 287.568C32.386 287.268 31.786 287.368 31.486 287.768C31.186 288.168 31.386 288.568 31.686 288.868C33.486 290.568 34.886 292.768 37.086 294.168C37.286 293.768 37.486 293.568 37.386 293.368C36.386 290.968 34.086 289.668 32.586 287.568ZM102.886 293.668C102.486 293.468 102.086 293.568 101.786 293.868C100.586 295.168 99.686 296.768 99.286 298.568C99.186 299.168 99.286 299.668 99.986 299.968C100.186 299.868 100.486 299.768 100.486 299.668C100.986 297.768 102.186 296.168 103.086 294.468C103.286 294.268 103.186 293.868 102.886 293.668ZM209.186 288.468C209.086 288.368 208.886 288.368 208.786 288.268C207.986 288.668 208.186 289.368 208.486 289.868C209.686 291.468 210.986 293.068 212.286 294.668C212.486 294.968 212.986 294.968 213.086 294.668C213.186 294.368 213.286 293.868 213.086 293.568C211.986 291.668 210.186 290.368 209.186 288.468ZM272.986 290.868C271.386 291.468 270.086 292.568 268.886 293.768C268.786 293.868 268.886 294.268 268.986 294.468C269.186 294.868 269.486 294.768 269.786 294.568C270.486 294.168 271.086 293.668 271.686 293.268C272.486 292.768 273.286 292.268 273.686 291.468C273.686 290.868 273.286 290.768 272.986 290.868ZM87.586 298.568C88.986 296.668 89.186 295.668 88.286 293.568C87.586 295.268 86.986 296.768 87.586 298.568ZM106.986 117.368C106.986 111.268 106.986 105.168 106.986 99.1681C106.986 97.5681 107.286 97.0681 109.086 96.8681C113.186 96.4681 117.186 95.7681 121.286 95.1681C124.486 94.6681 127.686 95.3681 130.786 94.4681C131.886 94.1681 131.986 95.0681 131.986 95.9681C131.986 99.6681 131.986 103.268 131.986 106.968H132.086C132.086 110.468 131.986 113.968 132.086 117.568C132.186 119.268 131.886 120.268 129.786 119.968C127.986 119.768 126.086 119.968 124.286 119.868C119.986 119.568 115.886 120.868 111.686 121.268C107.886 121.568 106.986 121.168 106.986 117.368ZM121.486 97.9681C121.786 102.868 121.986 107.868 122.386 112.768C122.586 114.768 121.286 117.568 123.186 118.668C124.786 119.568 127.386 118.768 129.586 118.868C130.986 118.968 131.286 118.368 131.086 117.268C130.786 115.068 130.586 112.868 130.586 110.568C130.686 105.668 130.586 100.868 130.586 95.7681C127.886 95.9681 125.486 96.2681 122.986 96.3681C121.686 96.3681 121.386 96.7681 121.486 97.9681ZM117.586 99.2681C117.686 102.168 117.586 104.968 117.586 107.868C117.586 110.968 117.586 114.068 117.586 117.168C117.586 119.268 118.986 118.868 120.186 118.868C121.986 118.868 121.186 117.768 121.186 116.868C120.786 110.268 120.486 103.568 120.086 96.9681C120.186 96.7681 120.186 96.6681 120.286 96.4681C120.086 96.4681 119.886 96.4681 119.686 96.4681C117.886 96.5681 117.486 97.5681 117.586 99.2681ZM109.486 119.968C111.186 119.868 112.786 119.868 114.486 119.768C116.286 119.768 116.686 118.768 116.686 117.068C116.486 111.768 115.786 106.568 116.686 101.868C116.686 100.568 116.586 99.7681 116.686 99.0681C116.986 97.2681 115.986 97.0681 114.686 97.2681C113.086 97.5681 111.386 97.9681 109.786 98.1681C108.786 98.2681 108.386 98.7681 108.386 99.7681C108.386 106.068 108.486 112.368 108.486 118.668C108.486 119.468 108.586 119.968 109.486 119.968ZM231.086 88.6681C229.086 95.9681 231.586 103.368 230.586 110.768C230.386 111.968 230.186 112.168 228.886 112.368C223.986 112.968 219.086 112.668 214.086 112.668C213.386 112.668 212.486 112.768 212.786 111.668C213.786 106.868 212.586 102.068 212.486 97.1681C212.486 96.1681 212.286 95.2681 212.386 94.2681C212.486 92.9681 212.386 91.8681 210.586 92.0681C209.586 92.1681 209.586 91.6681 209.686 90.7681C210.086 87.1681 209.986 87.1681 213.386 86.6681C218.686 85.8681 223.986 86.2681 229.286 85.6681C232.086 85.3681 230.586 87.5681 231.086 88.6681ZM220.886 110.068C221.386 105.568 221.486 101.168 221.286 96.6681C221.086 91.4681 220.986 91.4681 215.686 91.5681C214.086 91.5681 213.686 92.0681 213.686 93.6681C213.386 99.0681 214.886 104.268 214.686 109.668C214.686 110.368 214.986 111.268 215.686 111.268C216.186 111.268 216.586 111.268 217.086 111.268C218.486 111.368 219.886 111.568 221.186 111.168C221.086 111.268 220.986 111.268 220.786 111.368V111.468C220.886 111.368 220.986 111.268 221.086 111.168C220.786 110.868 220.786 110.468 220.886 110.068ZM228.986 91.6681C228.986 90.5681 228.486 89.9681 227.386 90.1681C226.186 90.3681 224.886 90.8681 223.686 90.9681C222.286 91.0681 222.186 91.6681 222.286 92.7681C222.386 95.5681 222.286 98.3681 222.286 101.168C222.286 102.968 222.286 104.668 222.286 106.468C222.286 111.868 222.286 111.868 227.786 111.168C228.986 111.068 229.486 110.768 229.486 109.368C229.686 103.468 229.186 97.5681 228.986 91.6681ZM229.986 87.9681C229.986 86.7681 229.386 86.6681 228.486 86.7681C226.286 87.0681 224.086 87.3681 221.886 87.2681C218.786 87.1681 215.686 87.9681 212.586 87.7681C210.386 87.6681 211.586 89.7681 211.086 90.6681C210.886 90.9681 212.286 91.0681 212.986 90.7681C214.786 90.1681 216.686 89.8681 217.786 89.9681C222.086 90.2681 225.286 89.0681 228.686 88.7681C229.386 88.8681 229.986 89.0681 229.986 87.9681ZM161.486 151.268C161.486 151.768 161.186 152.068 160.886 152.168C159.086 153.168 157.886 154.768 156.786 156.368C155.886 157.568 155.186 157.368 154.386 156.368C153.386 155.068 152.486 153.668 151.086 152.668C150.286 152.168 150.586 151.568 151.086 151.068C152.786 149.668 153.886 147.768 154.886 145.968C155.186 145.368 155.586 144.968 156.086 145.668C157.486 147.568 159.086 149.368 161.186 150.668C161.286 150.868 161.386 151.068 161.486 151.268ZM159.586 151.068C159.086 150.668 158.386 150.368 157.886 149.868C155.686 147.668 155.886 147.768 153.686 150.068C152.186 151.668 152.486 152.468 153.886 153.668C154.486 154.268 155.186 155.668 155.586 155.368C156.986 154.368 158.086 152.868 159.586 151.068ZM125.786 152.668C125.886 153.368 125.386 153.668 125.086 153.968C123.886 155.168 122.486 156.268 121.886 157.968C121.586 158.768 120.686 159.068 120.286 158.168C119.586 156.468 118.086 155.768 116.686 154.868C115.586 154.168 115.286 153.368 116.486 152.468C117.886 151.568 118.686 150.168 119.386 148.768C119.986 147.368 120.686 146.968 121.586 148.568C122.386 149.968 123.686 150.968 124.886 151.968C125.186 152.168 125.986 152.068 125.786 152.668ZM121.586 150.568C121.286 150.268 120.986 149.968 120.586 149.568C120.186 150.268 119.786 150.668 119.586 151.168C119.186 152.168 117.286 152.668 117.886 153.868C118.386 154.768 119.886 155.068 120.586 156.068C120.886 156.468 121.086 156.368 121.486 155.968C124.386 153.368 124.386 153.368 121.586 150.568ZM193.186 150.968C191.986 152.068 190.886 153.068 189.686 154.168C189.386 154.468 189.086 154.668 188.886 154.768C187.986 154.368 187.786 153.368 187.186 152.968C184.286 150.868 184.986 148.868 186.786 146.468C188.486 144.068 188.386 143.868 190.486 146.068C191.186 146.768 191.786 147.468 192.686 147.768C194.886 148.568 194.586 149.668 193.186 150.968ZM192.686 149.468C191.086 148.668 190.086 147.468 188.686 146.368C188.186 147.268 187.786 148.268 187.086 148.968C186.486 149.768 186.586 150.268 187.186 150.968C189.086 153.268 189.086 153.268 191.286 150.968C191.786 150.568 192.186 150.068 192.686 149.468ZM145.486 10.4681C146.286 10.5681 146.686 11.3681 146.986 12.1681C147.686 13.7681 147.186 15.4681 147.386 16.8681C147.386 17.4681 147.386 17.8681 147.386 18.2681C147.386 21.5681 146.986 22.1681 143.886 22.2681C143.186 22.2681 142.686 21.7681 142.586 21.1681C142.486 18.0681 142.386 14.9681 143.586 12.0681C143.886 11.1681 144.386 10.2681 145.486 10.4681ZM145.586 11.9681C145.086 11.7681 144.886 12.1681 144.686 12.5681C143.886 13.9681 144.086 15.6681 143.986 17.6681C143.986 17.7681 143.986 18.4681 143.986 19.0681C143.986 19.8681 143.786 20.5681 145.086 20.5681C146.486 20.5681 146.486 19.8681 146.386 18.9681C146.186 16.8681 146.086 14.8681 145.886 12.7681C145.886 12.4681 145.986 12.0681 145.586 11.9681ZM149.886 21.8681C149.186 18.9681 149.486 15.9681 149.786 13.0681C149.886 11.9681 150.386 10.2681 151.986 10.4681C153.486 10.5681 153.886 11.9681 153.986 13.2681C154.286 15.2681 154.486 17.1681 154.486 19.1681C154.486 20.7681 154.086 21.5681 152.386 21.4681C151.686 21.3681 150.786 21.6681 149.886 21.8681ZM150.986 20.4681C151.586 19.8681 153.186 20.6681 153.086 19.1681C152.986 17.1681 153.486 15.0681 152.686 13.0681C152.486 12.6681 152.786 11.9681 152.086 11.8681C151.386 11.7681 151.286 12.3681 151.086 12.9681C150.286 15.3681 150.886 17.7681 150.986 20.4681ZM156.586 18.9681C156.586 16.4681 156.786 14.0681 156.886 11.5681C156.886 10.8681 157.486 10.5681 158.186 10.3681C159.286 10.1681 160.086 10.5681 160.586 11.4681C161.686 13.1681 161.086 15.1681 161.286 17.1681C161.286 17.6681 161.386 18.2681 161.286 18.7681C160.986 19.6681 162.386 21.2681 160.286 21.5681C158.386 21.6681 156.586 21.4681 156.586 18.9681ZM157.986 12.8681C157.986 13.8681 157.986 14.9681 157.986 15.9681C157.986 17.0681 157.986 18.1681 157.986 19.2681C157.986 19.8681 157.986 20.5681 158.786 20.3681C159.386 20.2681 160.386 20.4681 160.386 19.3681C160.386 17.0681 160.586 14.7681 159.886 12.5681C159.686 12.0681 159.586 11.3681 158.886 11.4681C157.986 11.5681 157.886 12.2681 157.986 12.8681Z" fill="#393939"/>
</svg>
