<svg width="174" height="198" viewBox="0 0 174 198" fill="none" xmlns="http://www.w3.org/2000/svg">
<g id="Frame">
<g id="Group 443">
<g id="Vector">
<path d="M70.0559 130.027C67.1792 129.761 64.5641 129.52 61.9727 129.303C59.2387 129.061 57.622 127.879 57.0277 125.562C56.9088 125.104 56.6711 123.149 58.0975 123.101C58.8583 123.077 59.1198 123.728 59.1911 124.163C59.5953 126.19 60.047 126.697 62.1391 126.89C68.7958 127.493 85.1524 128.941 86.6502 129.061C88.1004 129.182 89.3842 128.12 89.5268 126.648C89.6219 125.611 89.6932 124.573 89.7646 123.535C89.7646 123.414 89.717 123.318 89.6457 123.077C87.9102 122.908 86.1509 122.739 84.3916 122.594C67.5834 121.098 50.7751 119.602 33.9668 118.105C29.8777 117.743 27.6667 115.161 27.9044 111.01C28.0946 107.849 28.4512 104.688 28.7128 101.526C28.7603 100.971 28.7841 100.416 28.8079 99.7647C26.8108 99.5717 24.9327 99.3786 23.0545 99.2097C21.0813 99.0166 19.108 98.8477 17.1348 98.6788C14.8763 98.4857 13.426 96.8206 13.6162 94.528C14.0917 88.5673 14.6147 82.5825 15.1378 76.6218C15.2329 75.4152 15.3517 74.2085 15.4706 73.0261C15.6846 70.6369 17.2774 69.2373 19.6311 69.4303C23.2685 69.7199 26.9059 70.0336 30.5196 70.3474C30.7573 70.3715 30.9951 70.3474 31.3517 70.3474C31.5894 67.7169 31.8272 65.0865 32.0649 62.4561C32.16 61.2977 32.2551 60.1394 32.3502 58.981C32.7068 55.2646 35.7023 52.8514 39.3635 53.2375C40.9089 53.4064 42.4542 53.5271 44.0946 53.3823C43.5953 52.972 43.0723 52.5618 42.573 52.1274C32.8257 43.8741 31.6845 29.3947 40.4096 19.9589C46.686 13.1536 54.5552 11.1265 63.2327 14.0223C71.8151 16.8941 76.7839 23.2409 78.0202 32.363C78.8523 38.5891 77.0454 44.1396 73.194 49.0143C73.0276 49.2315 72.8137 49.4728 72.6472 49.6176C72.1955 50.052 71.6487 50.2933 71.0544 49.8348C70.4362 49.2798 70.6502 48.6041 70.9355 48.0973C71.0781 47.8318 71.3397 47.5181 71.5774 47.2527C76.6888 40.6886 77.2832 31.7355 73.0752 24.7613C68.7245 17.5698 60.6413 13.9741 52.5582 15.6151C44.6176 17.2078 38.5077 23.7236 37.2001 31.9286C35.417 43.2225 43.7142 53.7201 55.0069 54.613C65.6339 55.4577 76.2371 56.4712 86.8404 57.4124C89.5268 57.6537 92.1895 57.8709 95.3039 58.1364C87.6249 52.8755 83.3218 45.9012 83.2029 36.7792C83.0841 27.6813 86.8404 20.3933 94.3054 15.3014C105.978 7.31354 121.669 10.7886 129.277 22.9272C137.051 35.3554 132.582 53.6719 117.2 59.9704C118.127 60.0911 118.793 60.2118 119.458 60.2841C123.048 60.7427 125.331 63.4214 125.045 67.0895C124.689 71.8918 124.261 76.6942 123.833 81.5207C123.215 88.6156 122.597 95.7105 121.978 102.781C121.646 106.715 121.289 110.624 120.956 114.558C120.932 114.944 120.909 115.33 120.861 115.861C122.525 116.03 124.094 116.175 125.64 116.32C126.9 116.44 128.183 116.392 129.42 116.657C130.704 116.923 132.082 117.237 133.2 117.912C140.023 121.918 146.775 126.045 153.55 130.147C155.096 131.064 155.856 130.63 156.023 128.772C157.164 115.403 158.281 102.009 159.446 88.6397C160.112 80.8691 160.825 73.0985 161.491 65.3278C161.538 64.8452 161.562 64.3625 161.586 63.8799C161.634 62.6009 160.706 61.901 159.518 62.3595C154.739 64.1936 149.984 66.0277 145.206 67.8617C142.567 68.8753 139.952 69.913 137.313 70.9024C136.623 71.1679 136.338 71.5298 136.267 72.278C135.482 81.8585 134.65 91.4149 133.842 100.995C133.818 101.406 133.747 101.792 133.699 102.202C133.628 102.998 133.2 103.529 132.391 103.433C131.607 103.336 131.274 102.733 131.345 101.937C131.512 99.9819 131.702 98.0031 131.868 96.0484C132.487 88.9293 133.105 81.7861 133.723 74.667C133.818 73.6776 133.889 72.6641 133.984 71.554C132.843 71.4333 131.797 71.3127 130.751 71.2161C129.919 71.1437 129.325 70.8059 129.42 69.8888C129.515 68.9477 130.228 68.6822 130.989 68.8512C134.103 69.5751 136.861 68.6098 139.714 67.4756C145.895 64.99 152.148 62.6491 158.377 60.2841C159.114 60.0187 159.898 59.7532 160.659 59.7532C162.68 59.8015 164.154 61.539 163.987 63.6627C163.631 68.3926 163.226 73.1226 162.822 77.8525C162.133 85.7921 161.443 93.7075 160.754 101.647C159.946 110.986 159.161 120.301 158.329 129.641C158.067 132.633 155.215 133.936 152.576 132.343C146.204 128.506 139.809 124.694 133.485 120.784C131.631 119.65 129.753 118.974 127.589 118.902C125.307 118.829 123.048 118.516 120.718 118.298C120.6 119.095 120.504 119.698 120.386 120.326C119.791 123.294 117.105 125.345 114.109 125.176C110.091 124.935 106.097 124.5 102.08 124.163C99.1553 123.897 96.2311 123.656 93.3307 123.342C92.4035 123.246 92.142 123.632 92.1182 124.452C92.0944 125.345 91.9993 126.214 91.9042 127.107C91.5714 130.003 89.5506 131.692 86.6502 131.475C83.3218 131.233 80.0172 130.896 76.7126 130.606C76.2134 130.558 75.7141 130.534 74.9771 130.485C75.3099 131.089 75.5001 131.451 75.7141 131.813C86.3886 149.357 97.087 166.901 107.785 184.445C108.237 185.169 108.95 185.942 107.952 186.762C107.262 187.317 106.502 186.883 105.741 185.652C95.2802 168.494 73.9786 133.14 73.5269 132.874C73.3842 134.395 71.197 159.517 70.2698 170.328C70.1747 171.535 70.0559 172.741 69.9845 173.924C69.937 174.768 69.5566 175.372 68.7007 175.347C67.7973 175.299 67.5596 174.623 67.6309 173.803C68.0826 168.47 68.5343 163.136 68.986 157.827C69.6755 149.864 71.0544 133.381 71.0544 132.874C70.6502 133.236 51.5596 154.883 42.2402 165.477C38.1986 170.062 34.157 174.648 30.1154 179.233C29.9728 179.378 28.903 180.488 27.9995 179.715C27.4765 179.184 27.7618 178.46 27.9995 178.099C28.8316 176.94 29.8539 175.902 30.8049 174.816C43.4527 160.337 69.5566 130.63 70.0559 130.027ZM122.549 68.3444C122.573 68.1513 122.597 67.9341 122.62 67.7411C122.929 64.4832 121.741 62.9628 118.579 62.6491C108.237 61.6838 97.9191 60.7668 87.5774 59.8498C71.5299 58.426 55.4586 57.0504 39.4111 55.6266C36.5582 55.3853 34.9653 56.6884 34.7276 59.5843C34.3472 63.9523 33.9668 68.3202 33.5864 72.6641C32.4928 85.3577 31.3755 98.0513 30.2818 110.745C30.0203 113.858 31.3041 115.475 34.3472 115.74C38.7216 116.127 43.0961 116.464 47.4943 116.85C57.9073 117.792 68.3204 118.733 78.7334 119.674C90.2876 120.712 101.842 121.725 113.396 122.763C116.296 123.028 117.937 121.677 118.198 118.757C118.531 115.185 118.84 111.638 119.149 108.066C120.267 94.8417 121.408 81.5931 122.549 68.3444ZM85.5328 36.2241C85.4615 48.8454 95.4703 59.1258 107.928 59.1982C120.386 59.2706 130.561 49.1109 130.656 36.5379C130.727 23.8442 120.718 13.5156 108.237 13.4432C95.6843 13.3708 85.6041 23.5064 85.5328 36.2241ZM31.1853 72.9295C29.9966 72.8089 20.4156 71.9642 19.5597 71.8677C18.5612 71.747 17.9669 71.8677 17.848 73.3398C17.2537 80.3864 16.6355 87.4331 16.0412 94.4798C15.9461 95.6622 16.3978 96.1932 17.5627 96.3138C19.8926 96.531 22.2224 96.7482 24.5285 96.9654C26.0025 97.0861 27.5003 97.2067 29.1169 97.3274C29.8064 89.1224 30.4958 81.0863 31.1853 72.9295Z" fill="black"/>
<path d="M23.316 33.835C23.2923 35.0175 22.3889 35.476 21.3903 34.9693C19.3696 33.9557 17.3725 32.8939 15.3755 31.8321C14.7336 31.4942 14.0917 31.1805 13.4736 30.8185C12.8317 30.4565 12.4988 29.8291 12.9506 29.2258C13.2358 28.8638 14.0679 28.5501 14.4245 28.719C17.2299 30.0945 20.0115 31.5666 22.7692 33.0387C23.0783 33.2076 23.1972 33.6661 23.316 33.835Z" fill="black"/>
<path d="M11.9996 55.7231C11.8332 55.7231 11.6905 55.7231 11.5241 55.7473C10.7158 55.7955 10.0501 55.6266 10.0026 54.6613C9.95502 53.7443 10.5731 53.4305 11.3577 53.3582C13.2834 53.2134 15.2091 53.0444 17.1348 52.8996C18.0382 52.8272 18.9416 52.7548 19.845 52.6583C20.6534 52.5859 21.319 52.8031 21.4141 53.7201C21.5092 54.6372 20.9624 54.9992 20.1303 55.0716C17.4201 55.2887 14.7098 55.5301 11.9758 55.7714C11.9996 55.7473 11.9996 55.7231 11.9996 55.7231Z" fill="black"/>
<path d="M130.204 134.612C132.51 136.422 134.816 138.256 137.099 140.09C137.693 140.573 137.931 141.2 137.455 141.876C136.909 142.6 136.243 142.479 135.601 141.948C133.342 140.138 131.036 138.377 128.825 136.494C128.469 136.181 127.874 135.457 128.421 134.757C129.039 133.96 129.967 134.419 130.204 134.612Z" fill="black"/>
<path d="M106.953 140.259C106.953 139.414 107.143 138.69 108.166 138.714C109.093 138.739 109.307 139.414 109.307 140.235C109.259 143.131 109.236 146.002 109.188 148.898C109.164 149.719 108.903 150.37 107.975 150.322C107.048 150.298 106.834 149.598 106.834 148.802C106.834 147.378 106.953 141.659 106.953 140.259Z" fill="black"/>
<path d="M130.585 110.673C130.656 110.069 130.561 107.777 132.011 107.897C133.58 107.946 132.986 110.262 132.962 110.817C132.914 111.662 132.748 112.507 131.678 112.458C130.585 112.386 130.537 111.541 130.585 110.673Z" fill="black"/>
<path d="M95.6368 84.4407C95.5892 86.5643 94.5907 89.5809 92.3797 92.0665C87.8151 97.2309 82.7274 101.816 76.9979 105.629C75.3099 106.739 74.5729 106.691 73.1227 105.315C68.1302 100.561 63.8984 95.1555 60.2847 89.2672C58.4066 86.2023 57.9549 82.7997 58.6919 79.2763C60.1421 72.1814 68.2728 68.9236 74.1926 73.0502C74.9533 73.5811 75.6665 74.1361 76.3798 74.7153C77.2119 75.4152 78.044 75.4393 79.0187 74.9566C80.5402 74.2085 82.0855 73.3156 83.7022 72.9778C90.1212 71.6264 95.7556 76.5494 95.6368 84.4407Z" fill="black"/>
</g>
</g>
</g>
</svg>
