<svg width="73" height="54" viewBox="0 0 73 54" fill="none" xmlns="http://www.w3.org/2000/svg">
<path d="M46.6052 28.7195C46.6052 28.8812 46.7363 29.0123 46.898 29.0123H61.0073C61.169 29.0123 61.3001 28.8812 61.3001 28.7195V16.2082C61.3001 16.0465 61.169 15.9154 61.0073 15.9154H53.1434C52.9816 15.9154 52.8506 15.7843 52.8506 15.6226V14.0556C52.8506 13.8939 52.9816 13.7628 53.1434 13.7628H61.0073C61.169 13.7628 61.3001 13.6317 61.3001 13.47V8.50883C61.3001 8.34712 61.169 8.21603 61.0073 8.21603H53.1434C52.9816 8.21603 52.8506 8.08494 52.8506 7.92323V6.06315C52.8506 5.90144 52.9816 5.77035 53.1434 5.77035H61.0073C61.169 5.77035 61.3001 5.63926 61.3001 5.47755V0.878737C61.3001 0.717028 61.169 0.585938 61.0073 0.585938H46.898C46.7363 0.585938 46.6052 0.717029 46.6052 0.878738V28.7195ZM35.3187 7.22799C35.2086 7.43274 34.9152 7.43368 34.8038 7.22965L31.2589 0.7384C31.2076 0.644407 31.109 0.585938 31.0019 0.585938H25.2231C25.0614 0.585938 24.9303 0.717029 24.9303 0.878738V5.3981C24.9303 5.63089 24.6665 5.77876 24.4601 5.67118C24.2094 5.54054 23.9191 5.40439 23.665 5.30821C23.5448 5.2627 23.4608 5.14983 23.4608 5.0213V0.878737C23.4608 0.717028 23.3297 0.585938 23.168 0.585938H17.9502C12.3401 0.585938 5.21369 6.89401 5.21369 14.7857C5.18665 25.3084 13.3935 30.1005 23.2009 29.0417C23.3484 29.0258 23.4608 28.9005 23.4608 28.7521V20.9178C23.4608 20.81 23.5203 20.7114 23.6139 20.6581C24.0189 20.4273 24.4103 20.1522 24.7847 19.8353C24.8739 19.7597 24.9306 19.7801 24.9308 19.8969C24.932 21.0624 24.9307 27.3038 24.9304 28.7244C24.9303 28.8862 25.0614 29.0123 25.2232 29.0123H30.8828C31.0445 29.0123 31.1756 28.8812 31.1756 28.7195V13.1565C31.1756 12.8565 31.5731 12.7506 31.7224 13.0108L34.8068 18.3874C34.9198 18.5843 35.2041 18.5833 35.3158 18.3857L38.3427 13.0273C38.4907 12.7652 38.8904 12.8703 38.8904 13.1714V28.7195C38.8904 28.8812 39.0215 29.0123 39.1832 29.0123H44.8429C45.0047 29.0123 45.1357 28.8812 45.1357 28.7195V0.878739C45.1357 0.71703 45.0047 0.585938 44.8429 0.585938H39.0654C38.9577 0.585938 38.8586 0.645143 38.8075 0.740064L35.3187 7.22799ZM27.4347 19.4414C26.5276 19.1613 25.6437 18.7318 24.8267 18.1049C24.8117 18.0934 24.6394 18.2859 24.5703 18.3608C24.5536 18.3789 24.5331 18.3942 24.5117 18.4062C16.2987 22.9775 10.629 12.8884 18.9431 8.49846C25.7625 5.95683 29.6992 11.7906 26.4873 15.5629C26.4461 15.6113 26.4189 15.6722 26.4166 15.7357C26.3758 16.9019 27.2362 18.0078 27.564 19.091C27.5717 19.1168 27.6588 19.5076 27.6551 19.5065C27.5813 19.4859 27.5082 19.4636 27.4347 19.4414Z" fill="#241815"/>
<path d="M46.0208 28.1336C46.0208 28.2953 46.1519 28.4264 46.3136 28.4264H60.4228C60.5845 28.4264 60.7156 28.2953 60.7156 28.1336V15.6223C60.7156 15.4606 60.5845 15.3295 60.4228 15.3295H52.5589C52.3972 15.3295 52.2661 15.1984 52.2661 15.0367V13.4696C52.2661 13.3079 52.3972 13.1768 52.5589 13.1768H60.4228C60.5845 13.1768 60.7156 13.0457 60.7156 12.884V7.9229C60.7156 7.76119 60.5845 7.6301 60.4228 7.6301H52.5589C52.3972 7.6301 52.2661 7.499 52.2661 7.3373V5.47722C52.2661 5.31551 52.3972 5.18442 52.5589 5.18442H60.4228C60.5845 5.18442 60.7156 5.05332 60.7156 4.89162V0.2928C60.7156 0.131091 60.5845 0 60.4228 0H46.3136C46.1519 0 46.0208 0.131091 46.0208 0.2928V28.1336ZM34.7342 6.64205C34.6241 6.8468 34.3308 6.84775 34.2193 6.64371L30.6744 0.152463C30.6231 0.0584699 30.5245 0 30.4174 0H24.6386C24.4769 0 24.3458 0.131091 24.3458 0.2928V4.81216C24.3458 5.04495 24.0821 5.19282 23.8756 5.08524C23.6249 4.9546 23.3346 4.81845 23.0805 4.72227C22.9603 4.67677 22.8763 4.56389 22.8763 4.43536V0.2928C22.8763 0.131091 22.7453 0 22.5835 0H17.3658C11.7556 0 4.62922 6.30808 4.62922 14.1998C4.60218 24.7224 12.809 29.5146 22.6164 28.4558C22.764 28.4399 22.8763 28.3146 22.8763 28.1662V20.3319C22.8763 20.2241 22.9358 20.1255 23.0294 20.0721C23.4344 19.8413 23.8259 19.5662 24.2002 19.2493C24.2895 19.1738 24.3462 19.1941 24.3463 19.311C24.3475 20.4765 24.3462 26.7179 24.3459 28.1385C24.3459 28.3002 24.477 28.4264 24.6387 28.4264H30.2983C30.4601 28.4264 30.5912 28.2953 30.5912 28.1336V12.5706C30.5912 12.2706 30.9886 12.1647 31.1379 12.4249L34.2224 17.8014C34.3353 17.9983 34.6196 17.9974 34.7313 17.7997L37.7582 12.4414C37.9063 12.1793 38.306 12.2844 38.306 12.5854V28.1336C38.306 28.2953 38.437 28.4264 38.5988 28.4264H44.2585C44.4202 28.4264 44.5513 28.2953 44.5513 28.1336V0.292801C44.5513 0.131093 44.4202 0 44.2585 0H38.481C38.3732 0 38.2741 0.059206 38.2231 0.154126L34.7342 6.64205ZM26.8502 18.8555C25.9432 18.5754 25.0593 18.1459 24.2422 17.5189C24.2272 17.5075 24.055 17.7 23.9858 17.7749C23.9692 17.7929 23.9487 17.8083 23.9272 17.8202C15.7142 22.3916 10.0445 12.3024 18.3586 7.91252C25.178 5.37089 29.1147 11.2047 25.9028 14.977C25.8616 15.0253 25.8344 15.0863 25.8322 15.1497C25.7913 16.316 26.6518 17.4219 26.9795 18.5051C26.9872 18.5309 27.0743 18.9216 27.0706 18.9206C26.9968 18.8999 26.9237 18.8777 26.8502 18.8555Z" fill="url(#paint0_linear_1116_286)"/>
<g filter="url(#filter0_d_1116_286)">
<g filter="url(#filter1_i_1116_286)">
<path d="M2 34.3766C2 34.1015 2.19149 33.8635 2.46022 33.8046L14.4343 31.18C14.7996 31.1 15.1453 31.3781 15.1453 31.752V47.9322C15.1453 48.2073 14.9538 48.4453 14.6851 48.5042L2.71098 51.1288C2.34571 51.2089 2 50.9308 2 50.5568V34.3766Z" fill="url(#paint1_radial_1116_286)"/>
</g>
<path d="M2.1464 34.3766C2.1464 34.1703 2.29002 33.9918 2.49156 33.9476L14.4656 31.323C14.7396 31.263 14.9989 31.4716 14.9989 31.752V47.9322C14.9989 48.1385 14.8552 48.317 14.6537 48.3612L2.67964 50.9858C2.40568 51.0459 2.1464 50.8373 2.1464 50.5568V34.3766Z" stroke="#FBBF28" stroke-width="0.2928"/>
<g filter="url(#filter2_i_1116_286)">
<path d="M71.5239 19.7166C71.5239 19.3462 71.1843 19.0688 70.8213 19.1429L57.3866 21.8837C57.1139 21.9394 56.9181 22.1792 56.9181 22.4575V38.6413C56.9181 39.0118 57.2577 39.2892 57.6207 39.2151L71.0554 36.4743C71.3281 36.4186 71.5239 36.1788 71.5239 35.9005V19.7166Z" fill="url(#paint2_radial_1116_286)"/>
</g>
<path d="M71.3775 19.7166C71.3775 19.4388 71.1228 19.2308 70.8505 19.2863L57.4159 22.0272C57.2114 22.0689 57.0645 22.2488 57.0645 22.4575V38.6413C57.0645 38.9192 57.3192 39.1272 57.5915 39.0717L71.0261 36.3308C71.2306 36.2891 71.3775 36.1092 71.3775 35.9005V19.7166Z" stroke="#FBBF28" stroke-width="0.2928"/>
<path d="M57.1287 39.2554L64.9287 33.3191C65.0399 33.2345 64.9594 33.0578 64.8225 33.0862L57.0225 34.7051C56.9616 34.7178 56.918 34.7714 56.918 34.8337V39.1509C56.918 39.2595 57.0423 39.3211 57.1287 39.2554Z" fill="#886900"/>
<path d="M14.8323 48.2997L7.41093 45.8631C7.28482 45.8217 7.29283 45.6407 7.4221 45.6106L14.9784 43.8508C15.0624 43.8312 15.1421 43.8966 15.1394 43.9828L15.0044 48.1792C15.0016 48.2668 14.9155 48.327 14.8323 48.2997Z" fill="#886900"/>
<g filter="url(#filter3_i_1116_286)">
<path d="M6.96558 28.8086C6.96558 28.5335 7.15707 28.2954 7.4258 28.2365L64.678 15.6876C65.0433 15.6075 65.389 15.8857 65.389 16.2596V32.4397C65.389 32.7148 65.1975 32.9528 64.9288 33.0117L7.67656 45.5607C7.31128 45.6408 6.96558 45.3626 6.96558 44.9887V28.8086Z" fill="url(#paint3_radial_1116_286)"/>
</g>
<path d="M7.11198 28.8086C7.11198 28.6022 7.2556 28.4237 7.45714 28.3795L64.7094 15.8306C64.9833 15.7705 65.2426 15.9791 65.2426 16.2596V32.4397C65.2426 32.6461 65.099 32.8246 64.8974 32.8687L7.64521 45.4177C7.37126 45.4777 7.11198 45.2691 7.11198 44.9887V28.8086Z" stroke="#FBBF28" stroke-width="0.2928"/>
</g>
<path d="M35.4836 47.1841H36.1301V46.9217C36.1301 46.3283 36.2551 45.9004 36.5049 45.6381C36.7548 45.3695 37.1171 45.2352 37.5918 45.2352C38.0915 45.2352 38.5069 45.2945 38.838 45.4132L38.6037 46.3876C38.4601 46.3377 38.332 46.3064 38.2196 46.2939C38.1134 46.2752 38.0009 46.2658 37.8823 46.2658C37.7573 46.2658 37.6574 46.2846 37.5824 46.322C37.5137 46.3595 37.4606 46.4189 37.4232 46.5001C37.3919 46.575 37.3701 46.6718 37.3576 46.7905C37.3513 46.903 37.3482 47.0341 37.3482 47.1841H38.3788V48.2147H37.3482V51.8689H36.1301V48.2147H35.4836V47.1841Z" fill="url(#paint4_linear_1116_286)"/>
<path d="M38.6544 49.5265C38.6544 48.7332 38.848 48.1241 39.2353 47.6994C39.6226 47.2684 40.166 47.0529 40.8656 47.0529C41.2404 47.0529 41.5652 47.1122 41.84 47.2309C42.1149 47.3496 42.3429 47.5182 42.524 47.7369C42.7052 47.9492 42.8395 48.2085 42.9269 48.5145C43.0206 48.8206 43.0675 49.1579 43.0675 49.5265C43.0675 50.3197 42.8738 50.9319 42.4865 51.3629C42.1055 51.7876 41.5652 52 40.8656 52C40.4908 52 40.166 51.9407 39.8912 51.822C39.6163 51.7033 39.3852 51.5378 39.1978 51.3254C39.0167 51.1068 38.8792 50.8444 38.7855 50.5384C38.6981 50.2323 38.6544 49.895 38.6544 49.5265ZM39.9099 49.5265C39.9099 49.7326 39.9286 49.9231 39.9661 50.098C40.0036 50.2729 40.0598 50.4259 40.1348 50.5571C40.2097 50.6883 40.3065 50.7913 40.4252 50.8663C40.5502 50.935 40.6969 50.9694 40.8656 50.9694C41.1842 50.9694 41.4215 50.8538 41.5777 50.6227C41.7338 50.3916 41.8119 50.0262 41.8119 49.5265C41.8119 49.0954 41.7401 48.7488 41.5964 48.4864C41.4528 48.2178 41.2092 48.0835 40.8656 48.0835C40.5658 48.0835 40.3315 48.196 40.1629 48.4208C39.9942 48.6457 39.9099 49.0142 39.9099 49.5265Z" fill="url(#paint5_linear_1116_286)"/>
<path d="M46.4978 48.3271C46.3041 48.2584 46.1292 48.2241 45.9731 48.2241C45.7544 48.2241 45.5702 48.2834 45.4203 48.4021C45.2766 48.5145 45.1798 48.6613 45.1298 48.8425V51.8689H43.9117V47.1841H44.8581L44.9986 47.8024H45.0361C45.1423 47.5713 45.286 47.3933 45.4671 47.2684C45.6482 47.1434 45.8606 47.081 46.1042 47.081C46.2666 47.081 46.4509 47.1153 46.657 47.1841L46.4978 48.3271Z" fill="url(#paint6_linear_1116_286)"/>
<path d="M51.2155 49.0673H50.8782V51.8689H49.5946V45.3101H50.8782V48.2147L51.178 48.0835L52.9864 45.3101H54.448L52.5366 48.0648L52.0307 48.4208L52.5553 48.7863L54.7385 51.8689H53.155L51.2155 49.0673Z" fill="url(#paint7_linear_1116_286)"/>
<path d="M55.536 45.3101H56.8196V51.8689H55.536V45.3101Z" fill="url(#paint8_linear_1116_286)"/>
<path d="M58.0766 45.3101C58.2078 45.2914 58.3546 45.2758 58.517 45.2633C58.6856 45.2508 58.8574 45.2414 59.0323 45.2352C59.2072 45.2289 59.3759 45.2258 59.5383 45.2258C59.7069 45.2196 59.8568 45.2164 59.988 45.2164C60.5689 45.2164 61.0655 45.2976 61.4778 45.46C61.89 45.6224 62.2242 45.8504 62.4803 46.144C62.7364 46.4376 62.9238 46.7874 63.0425 47.1934C63.1612 47.5994 63.2205 48.0461 63.2205 48.5333C63.2205 48.9768 63.1643 49.4046 63.0519 49.8169C62.9394 50.2292 62.752 50.5946 62.4897 50.9132C62.2273 51.2317 61.8807 51.4878 61.4497 51.6815C61.0249 51.8751 60.4971 51.9719 59.8662 51.9719C59.7663 51.9719 59.632 51.9688 59.4633 51.9625C59.3009 51.9563 59.1291 51.9469 58.948 51.9344C58.7731 51.9282 58.6044 51.9188 58.442 51.9063C58.2796 51.9001 58.1578 51.8907 58.0766 51.8782V45.3101ZM60.0911 46.3595C59.9537 46.3595 59.8131 46.3626 59.6694 46.3689C59.532 46.3751 59.429 46.3845 59.3602 46.397V50.7913C59.3852 50.7976 59.4258 50.8038 59.482 50.8101C59.5445 50.8101 59.6101 50.8132 59.6788 50.8195C59.7475 50.8195 59.8131 50.8226 59.8756 50.8288C59.938 50.8288 59.9849 50.8288 60.0161 50.8288C60.3784 50.8288 60.6782 50.7664 60.9156 50.6414C61.1592 50.5103 61.3497 50.3385 61.4871 50.1261C61.6308 49.9137 61.7308 49.6701 61.787 49.3953C61.8432 49.1142 61.8713 48.8269 61.8713 48.5333C61.8713 48.2772 61.8463 48.0211 61.7963 47.765C61.7464 47.5026 61.6527 47.2684 61.5153 47.0622C61.3841 46.8561 61.2029 46.6875 60.9718 46.5563C60.7407 46.4251 60.4471 46.3595 60.0911 46.3595Z" fill="url(#paint9_linear_1116_286)"/>
<path d="M66.9727 50.1074C66.9727 49.9075 66.8977 49.7451 66.7478 49.6201C66.6041 49.4952 66.4199 49.3828 66.195 49.2828C65.9764 49.1767 65.7359 49.0705 65.4735 48.9643C65.2174 48.8518 64.9769 48.7175 64.7521 48.5614C64.5335 48.399 64.3492 48.1991 64.1993 47.9617C64.0556 47.7244 63.9838 47.4214 63.9838 47.0529C63.9838 46.7343 64.0369 46.4595 64.1431 46.2284C64.2492 45.991 64.3992 45.7942 64.5928 45.6381C64.7927 45.4819 65.0269 45.3663 65.2955 45.2914C65.5641 45.2164 65.8639 45.179 66.195 45.179C66.576 45.179 66.9352 45.2133 67.2725 45.282C67.6098 45.3445 67.8878 45.4382 68.1064 45.5631L67.7035 46.6406C67.5661 46.5532 67.36 46.4751 67.0851 46.4064C66.8103 46.3314 66.5136 46.2939 66.195 46.2939C65.8952 46.2939 65.6641 46.3533 65.5016 46.472C65.3455 46.5906 65.2674 46.7499 65.2674 46.9498C65.2674 47.1372 65.3392 47.2934 65.4829 47.4183C65.6328 47.5432 65.8171 47.6588 66.0357 47.765C66.2606 47.8712 66.5011 47.9805 66.7572 48.0929C67.0195 48.2053 67.26 48.3428 67.4786 48.5052C67.7035 48.6613 67.8878 48.8581 68.0314 49.0954C68.1814 49.3266 68.2563 49.617 68.2563 49.9668C68.2563 50.3166 68.197 50.6196 68.0783 50.8757C67.9659 51.1255 67.8034 51.3348 67.5911 51.5034C67.3849 51.6721 67.132 51.797 66.8321 51.8782C66.5385 51.9594 66.2137 52 65.8577 52C65.3892 52 64.9769 51.9563 64.6209 51.8689C64.2649 51.7814 64.0025 51.694 63.8339 51.6065L64.2461 50.5103C64.3148 50.5477 64.4023 50.5883 64.5085 50.6321C64.6209 50.6758 64.7458 50.7164 64.8833 50.7539C65.0207 50.7913 65.1643 50.8226 65.3143 50.8476C65.4704 50.8725 65.6297 50.885 65.7921 50.885C66.1731 50.885 66.4636 50.8226 66.6635 50.6977C66.8696 50.5665 66.9727 50.3697 66.9727 50.1074Z" fill="url(#paint10_linear_1116_286)"/>
<path d="M43.2756 34.0352L43.2801 33.7819L43.3389 30.4001L42.847 30.6349L41.0193 34.3946L40.9746 34.4863L40.8745 34.506L38.9322 34.8868L38.5191 34.9678L38.7103 34.5928L40.488 31.1052L40.5029 31.076L40.5262 31.0528L41.0207 30.5625C40.9428 30.534 40.8633 30.5017 40.7821 30.4657L40.7776 30.4637L40.7776 30.4636C40.5717 30.3662 40.3763 30.2341 40.1911 30.0695C40.0001 29.8996 39.8336 29.6891 39.6902 29.4413C39.542 29.1852 39.4358 28.8793 39.3674 28.5282C39.2372 27.86 39.2552 27.2648 39.4376 26.7519C39.6147 26.2539 39.8884 25.8285 40.2589 25.4791M43.2756 34.0352L40.3998 25.6278M43.2756 34.0352L43.5242 33.9864L45.1836 33.661L45.3462 33.6291L45.3489 33.4634L45.5027 24.1765L45.5058 23.9899L45.3202 23.9695C45.1613 23.9521 44.9847 23.949 44.7913 23.959C44.6023 23.9688 44.4058 23.9846 44.2019 24.0065M43.2756 34.0352L44.2019 24.0065M40.2589 25.4791C40.259 25.479 40.2592 25.4789 40.2593 25.4787L40.3998 25.6278M40.2589 25.4791C40.2588 25.4793 40.2586 25.4794 40.2585 25.4795L40.3998 25.6278M40.2589 25.4791C40.6313 25.1243 41.0723 24.8419 41.5793 24.631L41.5799 24.6307C42.0868 24.4218 42.6085 24.2647 43.1449 24.1595C43.2776 24.1335 43.4112 24.1119 43.5456 24.0947M40.3998 25.6278C40.7527 25.2914 41.1721 25.0222 41.658 24.8201C42.1525 24.6162 42.6612 24.4631 43.1843 24.3605C43.313 24.3353 43.4424 24.3143 43.5727 24.2977M43.5456 24.0947C43.5403 24.0955 43.5362 24.0961 43.5333 24.0967L43.5727 24.2977M43.5456 24.0947C43.5744 24.0904 43.6381 24.0828 43.7238 24.0727C43.851 24.0482 44.011 24.0262 44.2019 24.0065M43.5456 24.0947C43.546 24.0946 43.5464 24.0946 43.5468 24.0945L43.5727 24.2977M43.5727 24.2977C43.5813 24.296 43.6422 24.2885 43.7553 24.2752C43.8754 24.2517 44.0314 24.23 44.2234 24.2102L44.2019 24.0065M24.9947 39.2895L25.1569 39.2576L25.1601 39.0923L25.2227 35.7808L25.2274 35.5271L24.9785 35.5759L24.1337 35.7416L24.2626 28.248L24.2669 27.9948L24.0184 28.0435L18.8861 29.0499L18.7181 29.0828L18.7207 29.2539C18.7399 30.5353 18.6952 31.6436 18.5873 32.5799L18.5872 32.5799L18.5871 32.5816C18.4869 33.5228 18.3675 34.3133 18.2293 34.9547C18.0885 35.5917 17.9451 36.0837 17.8006 36.4361L17.8001 36.4373C17.6878 36.7164 17.604 36.9132 17.5476 37.033L16.7462 37.1901L16.5833 37.2221L16.5808 37.388L16.5311 40.6971L16.5273 40.9498L16.7752 40.9012L17.9586 40.6691L18.1041 40.6406L18.1225 40.4936L18.3181 38.9289L23.4437 37.9239L23.5809 39.3378L23.6027 39.5624L23.8242 39.519L24.9947 39.2895ZM26.1419 27.6271L25.9792 27.659L25.9765 27.8248L25.8275 37.2044L25.8235 37.4573L26.0717 37.4086L31.204 36.4022L31.3678 36.3701L31.3694 36.2032L31.3852 34.5705L31.3876 34.3192L31.1409 34.3675L27.9302 34.9971L27.9689 33.1228L30.8812 32.5518L31.0423 32.5202L31.0465 32.356L31.088 30.7182L31.0945 30.4629L30.8438 30.512L27.9929 31.0711L28.0265 29.3046L31.2601 28.6706L31.4226 28.6387L31.4255 28.4732L31.4541 26.8379L31.4585 26.5846L31.2099 26.6333L26.1419 27.6271ZM38.7326 27.2053L38.8964 27.1732L38.898 27.0063L38.9138 25.3736L38.9162 25.1223L38.6695 25.1706L32.0194 26.4746L31.8569 26.5065L31.854 26.672L31.8254 28.3073L31.821 28.5606L32.0696 28.5118L34.3169 28.0712L34.2004 35.5626L34.1964 35.8154L34.4446 35.7668L36.1039 35.4414L36.2664 35.4096L36.2693 35.244L36.3997 27.6628L38.7326 27.2053ZM41.1825 30.402C41.2606 30.4278 41.3362 30.449 41.4091 30.4657L41.2397 30.6337L41.1825 30.402ZM43.3209 26.1959L43.3293 26.1957L43.3377 26.1947C43.3617 26.1921 43.3855 26.1897 43.4091 26.1876L43.3565 28.713L42.8881 28.8048C42.5122 28.8786 42.2084 28.8415 41.9623 28.714C41.7381 28.5848 41.5807 28.3561 41.5091 27.9885C41.4517 27.694 41.4595 27.4582 41.5174 27.2727C41.5866 27.0628 41.6877 26.8962 41.8175 26.767C41.9624 26.6297 42.1335 26.5213 42.3328 26.4424L42.3329 26.4426L42.3395 26.4396C42.5477 26.3486 42.7599 26.282 42.9764 26.2396C43.1152 26.2124 43.2294 26.1985 43.3209 26.1959ZM53.2103 26.966L53.2092 26.9761L53.209 26.9863L53.1285 31.8509L53.1243 32.104L53.3727 32.0553L55.032 31.7299L55.1947 31.698L55.1974 31.5322L55.3464 22.1527L55.3504 21.8998L55.1022 21.9484L53.4943 22.2637L53.3933 22.2835L53.3489 22.3764L51.1104 27.0631L51.1048 27.0748L51.1007 27.0872L50.8656 27.8L50.6691 27.2676L50.6636 27.2526L50.6558 27.2386L48.503 23.3863L48.4306 23.2566L48.2848 23.2852L46.8056 23.5753L46.6428 23.6072L46.6402 23.773L46.4912 33.1525L46.4871 33.4054L46.7354 33.3568L48.3175 33.0465L48.4802 33.0146L48.4829 32.8488L48.5609 27.9714L48.5611 27.9575L48.5595 27.9437L48.5184 27.602L48.5209 27.6086L48.5274 27.6262L48.5369 27.6422L50.4028 30.7761L50.4766 30.9L50.6182 30.8723L51.1456 30.7689L51.2451 30.7493L51.2899 30.6583L53.1747 26.8291L53.1802 26.818L53.1843 26.8062L53.2514 26.6141L53.2103 26.966ZM22.1484 30.4572L22.0629 36.1476L19.8092 36.5895C19.9775 36.097 20.1391 35.4329 20.2956 34.603C20.4886 33.5799 20.6154 32.2932 20.6774 30.7457L22.1484 30.4572Z" fill="url(#paint11_linear_1116_286)" stroke="#FAD07D" stroke-width="0.409623"/>
<defs>
<filter id="filter0_d_1116_286" x="0.8288" y="15.6738" width="71.8663" height="37.8112" filterUnits="userSpaceOnUse" color-interpolation-filters="sRGB">
<feFlood flood-opacity="0" result="BackgroundImageFix"/>
<feColorMatrix in="SourceAlpha" type="matrix" values="0 0 0 0 0 0 0 0 0 0 0 0 0 0 0 0 0 0 127 0" result="hardAlpha"/>
<feOffset dy="1.1712"/>
<feGaussianBlur stdDeviation="0.5856"/>
<feComposite in2="hardAlpha" operator="out"/>
<feColorMatrix type="matrix" values="0 0 0 0 0 0 0 0 0 0 0 0 0 0 0 0 0 0 0.25 0"/>
<feBlend mode="normal" in2="BackgroundImageFix" result="effect1_dropShadow_1116_286"/>
<feBlend mode="normal" in="SourceGraphic" in2="effect1_dropShadow_1116_286" result="shape"/>
</filter>
<filter id="filter1_i_1116_286" x="1.1216" y="31.1663" width="14.0237" height="21.1475" filterUnits="userSpaceOnUse" color-interpolation-filters="sRGB">
<feFlood flood-opacity="0" result="BackgroundImageFix"/>
<feBlend mode="normal" in="SourceGraphic" in2="BackgroundImageFix" result="shape"/>
<feColorMatrix in="SourceAlpha" type="matrix" values="0 0 0 0 0 0 0 0 0 0 0 0 0 0 0 0 0 0 127 0" result="hardAlpha"/>
<feOffset dx="-0.8784" dy="1.1712"/>
<feGaussianBlur stdDeviation="0.5856"/>
<feComposite in2="hardAlpha" operator="arithmetic" k2="-1" k3="1"/>
<feColorMatrix type="matrix" values="0 0 0 0 0.984314 0 0 0 0 0.74902 0 0 0 0 0.156863 0 0 0 0.85 0"/>
<feBlend mode="normal" in2="shape" result="effect1_innerShadow_1116_286"/>
</filter>
<filter id="filter2_i_1116_286" x="56.0396" y="19.1309" width="15.4844" height="21.2674" filterUnits="userSpaceOnUse" color-interpolation-filters="sRGB">
<feFlood flood-opacity="0" result="BackgroundImageFix"/>
<feBlend mode="normal" in="SourceGraphic" in2="BackgroundImageFix" result="shape"/>
<feColorMatrix in="SourceAlpha" type="matrix" values="0 0 0 0 0 0 0 0 0 0 0 0 0 0 0 0 0 0 127 0" result="hardAlpha"/>
<feOffset dx="-0.8784" dy="1.1712"/>
<feGaussianBlur stdDeviation="0.5856"/>
<feComposite in2="hardAlpha" operator="arithmetic" k2="-1" k3="1"/>
<feColorMatrix type="matrix" values="0 0 0 0 0.984314 0 0 0 0 0.74902 0 0 0 0 0.156863 0 0 0 0.85 0"/>
<feBlend mode="normal" in2="shape" result="effect1_innerShadow_1116_286"/>
</filter>
<filter id="filter3_i_1116_286" x="6.08718" y="15.6738" width="59.3017" height="31.0718" filterUnits="userSpaceOnUse" color-interpolation-filters="sRGB">
<feFlood flood-opacity="0" result="BackgroundImageFix"/>
<feBlend mode="normal" in="SourceGraphic" in2="BackgroundImageFix" result="shape"/>
<feColorMatrix in="SourceAlpha" type="matrix" values="0 0 0 0 0 0 0 0 0 0 0 0 0 0 0 0 0 0 127 0" result="hardAlpha"/>
<feOffset dx="-0.8784" dy="1.1712"/>
<feGaussianBlur stdDeviation="0.5856"/>
<feComposite in2="hardAlpha" operator="arithmetic" k2="-1" k3="1"/>
<feColorMatrix type="matrix" values="0 0 0 0 0.984314 0 0 0 0 0.74902 0 0 0 0 0.156863 0 0 0 0.85 0"/>
<feBlend mode="normal" in2="shape" result="effect1_innerShadow_1116_286"/>
</filter>
<linearGradient id="paint0_linear_1116_286" x1="33.9869" y1="6.61799e-06" x2="47.8372" y2="30.792" gradientUnits="userSpaceOnUse">
<stop stop-color="#FE623C"/>
<stop offset="1" stop-color="#BE320C"/>
</linearGradient>
<radialGradient id="paint1_radial_1116_286" cx="0" cy="0" r="1" gradientUnits="userSpaceOnUse" gradientTransform="translate(8.57263 41.1544) rotate(90) scale(10.1303 6.57263)">
<stop stop-color="#FFBC00"/>
<stop offset="0.57" stop-color="#FD9E00"/>
<stop offset="1" stop-color="#F79500"/>
</radialGradient>
<radialGradient id="paint2_radial_1116_286" cx="0" cy="0" r="1" gradientUnits="userSpaceOnUse" gradientTransform="translate(64.221 29.179) rotate(90) scale(10.1795 7.30293)">
<stop stop-color="#FFBC00"/>
<stop offset="0.57" stop-color="#FD9E00"/>
<stop offset="1" stop-color="#F79500"/>
</radialGradient>
<radialGradient id="paint3_radial_1116_286" cx="0" cy="0" r="1" gradientUnits="userSpaceOnUse" gradientTransform="translate(36.1773 30.6241) rotate(90) scale(15.0924 29.2117)">
<stop stop-color="#FFBC00"/>
<stop offset="0.57" stop-color="#FD9E00"/>
<stop offset="1" stop-color="#F79500"/>
</radialGradient>
<linearGradient id="paint4_linear_1116_286" x1="50.6435" y1="45.5089" x2="50.6435" y2="53.0364" gradientUnits="userSpaceOnUse">
<stop stop-color="#404040"/>
<stop offset="1" stop-color="#828282"/>
</linearGradient>
<linearGradient id="paint5_linear_1116_286" x1="50.6435" y1="45.5089" x2="50.6435" y2="53.0364" gradientUnits="userSpaceOnUse">
<stop stop-color="#404040"/>
<stop offset="1" stop-color="#828282"/>
</linearGradient>
<linearGradient id="paint6_linear_1116_286" x1="50.6435" y1="45.5089" x2="50.6435" y2="53.0364" gradientUnits="userSpaceOnUse">
<stop stop-color="#404040"/>
<stop offset="1" stop-color="#828282"/>
</linearGradient>
<linearGradient id="paint7_linear_1116_286" x1="50.6435" y1="45.5089" x2="50.6435" y2="53.0364" gradientUnits="userSpaceOnUse">
<stop stop-color="#404040"/>
<stop offset="1" stop-color="#828282"/>
</linearGradient>
<linearGradient id="paint8_linear_1116_286" x1="50.6435" y1="45.5089" x2="50.6435" y2="53.0364" gradientUnits="userSpaceOnUse">
<stop stop-color="#404040"/>
<stop offset="1" stop-color="#828282"/>
</linearGradient>
<linearGradient id="paint9_linear_1116_286" x1="50.6435" y1="45.5089" x2="50.6435" y2="53.0364" gradientUnits="userSpaceOnUse">
<stop stop-color="#404040"/>
<stop offset="1" stop-color="#828282"/>
</linearGradient>
<linearGradient id="paint10_linear_1116_286" x1="50.6435" y1="45.5089" x2="50.6435" y2="53.0364" gradientUnits="userSpaceOnUse">
<stop stop-color="#404040"/>
<stop offset="1" stop-color="#828282"/>
</linearGradient>
<linearGradient id="paint11_linear_1116_286" x1="34.1846" y1="26.4135" x2="36.1182" y2="36.2749" gradientUnits="userSpaceOnUse">
<stop stop-color="#753000"/>
<stop offset="1" stop-color="#99480D"/>
</linearGradient>
</defs>
</svg>
