<svg width="79" height="52" viewBox="0 0 79 52" fill="none" xmlns="http://www.w3.org/2000/svg">
<path d="M44.9448 27.9156C44.9448 28.0728 45.0722 28.2002 45.2294 28.2002H58.9438C59.101 28.2002 59.2284 28.0728 59.2284 27.9156V15.7544C59.2284 15.5972 59.101 15.4698 58.9438 15.4698H51.3C51.1428 15.4698 51.0154 15.3424 51.0154 15.1852V13.662C51.0154 13.5048 51.1428 13.3774 51.3 13.3774H58.9438C59.101 13.3774 59.2284 13.25 59.2284 13.0928V8.2705C59.2284 8.11332 59.101 7.9859 58.9438 7.9859H51.3C51.1428 7.9859 51.0154 7.85848 51.0154 7.70129V5.89327C51.0154 5.73608 51.1428 5.60866 51.3 5.60866H58.9438C59.101 5.60866 59.2284 5.48124 59.2284 5.32406V0.853942C59.2284 0.696759 59.101 0.569336 58.9438 0.569336H45.2294C45.0722 0.569336 44.9448 0.696758 44.9448 0.853942V27.9156ZM33.9741 7.0255C33.8671 7.22452 33.582 7.22544 33.4737 7.02712L30.0279 0.717531C29.9781 0.626169 29.8823 0.569336 29.7782 0.569336H24.1611C24.0039 0.569336 23.8765 0.696758 23.8765 0.853942V5.24683C23.8765 5.4731 23.6201 5.61683 23.4194 5.51226C23.1757 5.38528 22.8935 5.25294 22.6466 5.15945C22.5297 5.11522 22.4481 5.0055 22.4481 4.88057V0.853942C22.4481 0.696759 22.3207 0.569336 22.1635 0.569336H17.0918C11.6386 0.569336 4.71164 6.70088 4.71164 14.3717C4.68536 24.5999 12.6625 29.2579 22.1955 28.2288C22.3389 28.2133 22.4481 28.0915 22.4481 27.9472V20.3322C22.4481 20.2275 22.5059 20.1316 22.5969 20.0797C22.9905 19.8554 23.3711 19.588 23.735 19.28C23.8217 19.2065 23.8768 19.2263 23.8769 19.3399C23.8781 20.4728 23.8768 26.5395 23.8765 27.9204C23.8765 28.0776 24.0039 28.2002 24.1611 28.2002H29.6624C29.8196 28.2002 29.947 28.0728 29.947 27.9156V12.7881C29.947 12.4965 30.3334 12.3936 30.4785 12.6465L33.4766 17.8726C33.5864 18.064 33.8628 18.063 33.9713 17.8709L36.9135 12.6626C37.0574 12.4078 37.4459 12.5099 37.4459 12.8025V27.9156C37.4459 28.0728 37.5733 28.2002 37.7305 28.2002H43.2318C43.389 28.2002 43.5165 28.0728 43.5165 27.9156V0.853942C43.5165 0.696758 43.389 0.569336 43.2318 0.569336H37.616C37.5113 0.569336 37.415 0.626885 37.3654 0.719149L33.9741 7.0255ZM26.3108 18.8971C25.4291 18.6248 24.5699 18.2074 23.7758 17.598C23.7612 17.5869 23.5938 17.774 23.5265 17.8468C23.5104 17.8643 23.4904 17.8792 23.4696 17.8909C15.4865 22.3343 9.97538 12.5275 18.0568 8.26042C24.6854 5.78992 28.5119 11.4604 25.3899 15.1272C25.3499 15.1742 25.3234 15.2334 25.3212 15.2951C25.2815 16.4287 26.1179 17.5037 26.4365 18.5565C26.444 18.5816 26.5286 18.9614 26.525 18.9604C26.4532 18.9403 26.3822 18.9187 26.3108 18.8971Z" fill="#241815"/>
<path d="M44.3767 27.3463C44.3767 27.5034 44.5041 27.6309 44.6613 27.6309H58.3757C58.5329 27.6309 58.6603 27.5034 58.6603 27.3463V15.1851C58.6603 15.0279 58.5329 14.9005 58.3757 14.9005H50.7318C50.5746 14.9005 50.4472 14.773 50.4472 14.6158V13.0927C50.4472 12.9355 50.5746 12.8081 50.7318 12.8081H58.3757C58.5329 12.8081 58.6603 12.6807 58.6603 12.5235V7.70117C58.6603 7.54398 58.5329 7.41656 58.3757 7.41656H50.7318C50.5746 7.41656 50.4472 7.28914 50.4472 7.13196V5.32393C50.4472 5.16675 50.5746 5.03933 50.7318 5.03933H58.3757C58.5329 5.03933 58.6603 4.9119 58.6603 4.75472V0.284606C58.6603 0.127423 58.5329 0 58.3757 0H44.6613C44.5041 0 44.3767 0.127422 44.3767 0.284606V27.3463ZM33.406 6.45617C33.299 6.65519 33.0138 6.65611 32.9055 6.45778L29.4598 0.148195C29.4099 0.0568332 29.3141 0 29.21 0H23.5929C23.4358 0 23.3083 0.127422 23.3083 0.284606V4.67749C23.3083 4.90376 23.0519 5.0475 22.8513 4.94293C22.6076 4.81594 22.3254 4.6836 22.0784 4.59011C21.9616 4.54588 21.88 4.43617 21.88 4.31124V0.284606C21.88 0.127423 21.7525 0 21.5954 0H16.5236C11.0705 0 4.1435 6.13154 4.1435 13.8024C4.11722 24.0306 12.0944 28.6886 21.6273 27.6594C21.7707 27.6439 21.88 27.5222 21.88 27.3779V19.7629C21.88 19.6581 21.9377 19.5623 22.0287 19.5104C22.4224 19.2861 22.8029 19.0187 23.1668 18.7106C23.2535 18.6372 23.3087 18.657 23.3088 18.7706C23.31 19.9034 23.3087 25.9702 23.3084 27.351C23.3084 27.5082 23.4358 27.6309 23.593 27.6309H29.0943C29.2514 27.6309 29.3789 27.5034 29.3789 27.3463V12.2188C29.3789 11.9272 29.7652 11.8242 29.9103 12.0772L32.9085 17.3032C33.0183 17.4946 33.2946 17.4937 33.4031 17.3016L36.3454 12.0932C36.4893 11.8385 36.8778 11.9406 36.8778 12.2332V27.3463C36.8778 27.5034 37.0052 27.6309 37.1624 27.6309H42.6637C42.8209 27.6309 42.9483 27.5034 42.9483 27.3463V0.284606C42.9483 0.127422 42.8209 0 42.6637 0H37.0479C36.9431 0 36.8468 0.0575491 36.7972 0.149813L33.406 6.45617ZM25.7426 18.3278C24.861 18.0555 24.0018 17.638 23.2076 17.0286C23.193 17.0175 23.0256 17.2046 22.9584 17.2775C22.9422 17.295 22.9223 17.3099 22.9014 17.3215C14.9183 21.7649 9.40724 11.9582 17.4887 7.69108C24.1172 5.22059 27.9437 10.8911 24.8217 14.5579C24.7817 14.6048 24.7552 14.6641 24.7531 14.7257C24.7134 15.8594 25.5497 16.9343 25.8683 17.9872C25.8758 18.0123 25.9604 18.3921 25.9569 18.3911C25.8851 18.371 25.814 18.3494 25.7426 18.3278Z" fill="url(#paint0_linear_385_2681)"/>
<g filter="url(#filter0_d_385_2681)">
<g filter="url(#filter1_i_385_2681)">
<path d="M1.58789 33.4159C1.58789 33.1485 1.77403 32.9171 2.03523 32.8599L13.6742 30.3087C14.0292 30.2309 14.3653 30.5013 14.3653 30.8647V46.592C14.3653 46.8594 14.1791 47.0908 13.9179 47.1481L2.27898 49.6992C1.92393 49.7771 1.58789 49.5067 1.58789 49.1432V33.4159Z" fill="url(#paint1_radial_385_2681)"/>
</g>
<path d="M1.73019 33.4159C1.73019 33.2153 1.86979 33.0418 2.0657 32.9989L2.03523 32.8599L2.0657 32.9989L13.7047 30.4477C13.971 30.3894 14.223 30.5921 14.223 30.8647V46.592C14.223 46.7926 14.0834 46.9661 13.8875 47.0091L2.24851 49.5602C1.98222 49.6186 1.73019 49.4158 1.73019 49.1432V33.4159Z" stroke="#FBBF28" stroke-width="0.284606"/>
<g filter="url(#filter2_i_385_2681)">
<path d="M69.1662 19.1668C69.1662 18.8067 68.836 18.5371 68.4832 18.6091L55.4245 21.2732C55.1595 21.3273 54.9691 21.5604 54.9691 21.831V37.5618C54.9691 37.9219 55.2993 38.1915 55.6521 38.1196L68.7108 35.4554C68.9758 35.4014 69.1662 35.1682 69.1662 34.8977V19.1668Z" fill="url(#paint2_radial_385_2681)"/>
</g>
<path d="M69.0239 19.1668C69.0239 18.8967 68.7763 18.6945 68.5116 18.7485L55.453 21.4127C55.2542 21.4532 55.1114 21.6281 55.1114 21.831V37.5618C55.1114 37.8319 55.359 38.0341 55.6236 37.9801L68.6823 35.316C68.8811 35.2755 69.0239 35.1006 69.0239 34.8977V19.1668Z" stroke="#FBBF28" stroke-width="0.284606"/>
<path d="M55.1739 38.1588L62.7556 32.3887C62.8637 32.3064 62.7854 32.1346 62.6524 32.1622L55.0707 33.7359C55.0115 33.7482 54.9691 33.8003 54.9691 33.8608V38.0572C54.9691 38.1628 55.0899 38.2227 55.1739 38.1588Z" fill="#886900"/>
<path d="M14.0612 46.95L6.84753 44.5816C6.72495 44.5413 6.73273 44.3654 6.85839 44.3361L14.2032 42.6256C14.2849 42.6066 14.3624 42.6701 14.3597 42.7539L14.2285 46.8329C14.2258 46.918 14.1421 46.9766 14.0612 46.95Z" fill="#886900"/>
<g filter="url(#filter3_i_385_2681)">
<path d="M6.41464 28.0039C6.41464 27.7365 6.60078 27.5051 6.86198 27.4479L62.512 15.2501C62.867 15.1723 63.203 15.4426 63.203 15.8061V31.5334C63.203 31.8008 63.0169 32.0322 62.7557 32.0894L7.10572 44.2872C6.75068 44.365 6.41464 44.0947 6.41464 43.7312V28.0039Z" fill="url(#paint3_radial_385_2681)"/>
</g>
<path d="M6.55695 28.0039C6.55695 27.8033 6.69655 27.6298 6.89245 27.5869L62.5424 15.3891C62.8087 15.3307 63.0607 15.5335 63.0607 15.8061V31.5334C63.0607 31.734 62.9211 31.9075 62.7252 31.9504L7.07526 44.1482C6.80897 44.2066 6.55695 44.0038 6.55695 43.7312V28.0039Z" stroke="#FBBF28" stroke-width="0.284606"/>
</g>
<path d="M21.1258 45.8894H21.7542V45.0333L22.9381 44.6963V45.8894H24.0492V46.8912H22.9381V48.6398C22.9381 48.9556 22.9685 49.1832 23.0292 49.3229C23.096 49.4565 23.2174 49.5233 23.3935 49.5233C23.5149 49.5233 23.6182 49.5111 23.7032 49.4868C23.7942 49.4625 23.8944 49.4261 24.0037 49.3775L24.2132 50.2883C24.0492 50.3672 23.858 50.434 23.6394 50.4886C23.4208 50.5433 23.1992 50.5706 22.9746 50.5706C22.5556 50.5706 22.246 50.4644 22.0456 50.2518C21.8513 50.0333 21.7542 49.6781 21.7542 49.1863V46.8912H21.1258V45.8894Z" fill="url(#paint4_linear_385_2681)"/>
<path d="M27.5613 50.4431V47.8566C27.5613 47.4862 27.5097 47.2191 27.4065 47.0552C27.3033 46.8912 27.1151 46.8093 26.8419 46.8093C26.6415 46.8093 26.4563 46.8791 26.2863 47.0187C26.1224 47.1523 26.0131 47.3253 25.9584 47.5378V50.4431H24.7745V44.0679H25.9584V46.3994H25.9949C26.1406 46.2051 26.3197 46.0503 26.5322 45.9349C26.7447 45.8196 27.0149 45.7619 27.3428 45.7619C27.5735 45.7619 27.7769 45.7923 27.953 45.853C28.129 45.9137 28.2748 46.0139 28.3901 46.1535C28.5115 46.2932 28.5996 46.4844 28.6542 46.7273C28.7149 46.9641 28.7453 47.2586 28.7453 47.6107V50.4431H27.5613Z" fill="url(#paint5_linear_385_2681)"/>
<path d="M33.3802 50.0515C33.1981 50.1972 32.9492 50.3217 32.6334 50.4249C32.3238 50.522 31.9929 50.5706 31.6407 50.5706C30.9061 50.5706 30.3687 50.3581 30.0287 49.9331C29.6887 49.502 29.5187 48.9131 29.5187 48.1663C29.5187 47.3648 29.71 46.7637 30.0925 46.363C30.475 45.9623 31.0123 45.7619 31.7045 45.7619C31.9352 45.7619 32.1599 45.7923 32.3784 45.853C32.597 45.9137 32.7913 46.0139 32.9613 46.1535C33.1313 46.2932 33.2679 46.4814 33.3711 46.7182C33.4744 46.955 33.526 47.2494 33.526 47.6016C33.526 47.7291 33.5169 47.8657 33.4986 48.0114C33.4865 48.1571 33.4653 48.3089 33.4349 48.4668H30.7027C30.7209 48.8493 30.818 49.1377 30.9941 49.332C31.1763 49.5263 31.4677 49.6234 31.8684 49.6234C32.1174 49.6234 32.339 49.587 32.5333 49.5142C32.7336 49.4352 32.8854 49.3563 32.9886 49.2774L33.3802 50.0515ZM31.6863 46.7091C31.3766 46.7091 31.1459 46.8032 30.9941 46.9914C30.8484 47.1736 30.7604 47.4195 30.73 47.7291H32.424C32.4483 47.4012 32.3967 47.1493 32.2691 46.9732C32.1477 46.7971 31.9534 46.7091 31.6863 46.7091Z" fill="url(#paint6_linear_385_2681)"/>
<path d="M40.7276 50.4431H36.693V44.0679H37.9407V49.332H40.7276V50.4431Z" fill="url(#paint7_linear_385_2681)"/>
<path d="M44.62 49.0315H42.6619L42.1792 50.4431H40.9315L43.2265 44.0224H44.1464L46.4415 50.4431H45.13L44.62 49.0315ZM42.9806 48.0296H44.3468L43.8732 46.6089L43.6819 45.6071H43.6364L43.4451 46.618L42.9806 48.0296Z" fill="url(#paint8_linear_385_2681)"/>
<path d="M48.5768 47.1189L48.0759 46.1171H48.0304L48.1761 47.1189V50.4431H46.9922V44.0224H47.9029L50.3164 47.4195L50.799 48.3939H50.8446L50.6989 47.4195V44.0679H51.8828V50.4886H50.9721L48.5768 47.1189Z" fill="url(#paint9_linear_385_2681)"/>
<path d="M55.2273 47.1189H57.6043V49.9604C57.3493 50.1729 57.0427 50.3277 56.6845 50.4249C56.3323 50.522 55.9832 50.5706 55.6371 50.5706C55.2303 50.5706 54.8509 50.5069 54.4987 50.3794C54.1526 50.2518 53.8521 50.0545 53.5971 49.7874C53.3421 49.5142 53.1417 49.1681 52.996 48.7491C52.8503 48.3302 52.7774 47.8323 52.7774 47.2555C52.7774 46.6544 52.8624 46.1444 53.0324 45.7255C53.2085 45.3005 53.4362 44.9574 53.7155 44.6963C54.0008 44.4292 54.3196 44.2379 54.6718 44.1226C55.0239 44.0011 55.3821 43.9404 55.7464 43.9404C56.1107 43.9404 56.4295 43.9678 56.7027 44.0224C56.982 44.077 57.2036 44.1347 57.3675 44.1954L57.1125 45.2428C56.9607 45.1821 56.7907 45.1365 56.6025 45.1062C56.4143 45.0697 56.1745 45.0515 55.883 45.0515C55.622 45.0515 55.3821 45.091 55.1636 45.1699C54.945 45.2489 54.7537 45.3794 54.5898 45.5615C54.4319 45.7376 54.3075 45.9653 54.2164 46.2446C54.1314 46.5239 54.0889 46.8639 54.0889 47.2646C54.0889 47.6471 54.1314 47.978 54.2164 48.2573C54.3014 48.5306 54.4198 48.7582 54.5716 48.9404C54.7234 49.1165 54.8994 49.247 55.0998 49.332C55.3062 49.417 55.5248 49.4595 55.7555 49.4595C55.9134 49.4595 56.0682 49.4413 56.22 49.4049C56.3718 49.3624 56.4993 49.3016 56.6025 49.2227V48.0205L55.2273 47.8748V47.1189Z" fill="url(#paint10_linear_385_2681)"/>
<path d="M61.9884 44.0679H63.1724V48.1845C63.1724 48.5973 63.1177 48.9525 63.0084 49.25C62.8991 49.5475 62.7473 49.7934 62.5531 49.9877C62.3588 50.182 62.122 50.3247 61.8427 50.4158C61.5634 50.5069 61.2568 50.5524 60.9228 50.5524C59.3078 50.5524 58.5003 49.8147 58.5003 48.3393V44.0679H59.748V48.0934C59.748 48.3423 59.7692 48.5548 59.8117 48.7309C59.8603 48.9009 59.9332 49.0406 60.0303 49.1499C60.1275 49.2531 60.2489 49.329 60.3946 49.3775C60.5403 49.42 60.7103 49.4413 60.9046 49.4413C61.2871 49.4413 61.5634 49.335 61.7334 49.1225C61.9034 48.91 61.9884 48.567 61.9884 48.0934V44.0679Z" fill="url(#paint11_linear_385_2681)"/>
<path d="M67.3795 49.0315H65.4215L64.9388 50.4431H63.691L65.9861 44.0224H66.906L69.201 50.4431H67.8896L67.3795 49.0315ZM65.7402 48.0296H67.1063L66.6327 46.6089L66.4415 45.6071H66.3959L66.2047 46.618L65.7402 48.0296Z" fill="url(#paint12_linear_385_2681)"/>
<path d="M71.7167 47.1189H74.0937V49.9604C73.8387 50.1729 73.5321 50.3277 73.1738 50.4249C72.8217 50.522 72.4726 50.5706 72.1265 50.5706C71.7197 50.5706 71.3402 50.5069 70.9881 50.3794C70.642 50.2518 70.3414 50.0545 70.0864 49.7874C69.8314 49.5142 69.6311 49.1681 69.4853 48.7491C69.3396 48.3302 69.2668 47.8323 69.2668 47.2555C69.2668 46.6544 69.3518 46.1444 69.5218 45.7255C69.6978 45.3005 69.9255 44.9574 70.2048 44.6963C70.4902 44.4292 70.8089 44.2379 71.1611 44.1226C71.5133 44.0011 71.8715 43.9404 72.2358 43.9404C72.6001 43.9404 72.9188 43.9678 73.1921 44.0224C73.4713 44.077 73.693 44.1347 73.8569 44.1954L73.6019 45.2428C73.4501 45.1821 73.2801 45.1365 73.0919 45.1062C72.9036 45.0697 72.6638 45.0515 72.3724 45.0515C72.1113 45.0515 71.8715 45.091 71.6529 45.1699C71.4343 45.2489 71.2431 45.3794 71.0791 45.5615C70.9213 45.7376 70.7968 45.9653 70.7057 46.2446C70.6207 46.5239 70.5782 46.8639 70.5782 47.2646C70.5782 47.6471 70.6207 47.978 70.7057 48.2573C70.7907 48.5306 70.9091 48.7582 71.0609 48.9404C71.2127 49.1165 71.3888 49.247 71.5891 49.332C71.7956 49.417 72.0142 49.4595 72.2449 49.4595C72.4027 49.4595 72.5576 49.4413 72.7094 49.4049C72.8611 49.3624 72.9887 49.3016 73.0919 49.2227V48.0205L71.7167 47.8748V47.1189Z" fill="url(#paint13_linear_385_2681)"/>
<path d="M75.0169 44.0679H78.7965V45.179H76.2647V46.6635H78.5688V47.7746H76.2647V49.332H78.842V50.4431H75.0169V44.0679Z" fill="url(#paint14_linear_385_2681)"/>
<path d="M35.4203 30.5524C35.5044 29.7967 35.4677 29.0176 35.3115 28.2161C35.1949 27.6174 35.0198 27.1054 34.7821 26.6847C34.5465 26.2678 34.261 25.934 33.9227 25.69C33.5909 25.4358 33.2116 25.2757 32.7884 25.2093C32.3771 25.1419 31.9358 25.1563 31.4668 25.2483C30.7538 25.3881 30.1314 25.6729 29.6041 26.1048C29.0878 26.5232 28.6781 27.0428 28.375 27.6609C28.0707 28.2696 27.8778 28.9525 27.7936 29.707L27.7935 29.7085C27.7161 30.4542 27.7554 31.2239 27.9099 32.017L27.9102 32.0184L35.2223 30.5314M35.4203 30.5524C35.4202 30.5528 35.4202 30.5531 35.4201 30.5535L35.2223 30.5314M35.4203 30.5524C35.4203 30.552 35.4203 30.5517 35.4204 30.5513L35.2223 30.5314M35.4203 30.5524C35.3446 31.3054 35.1576 31.9952 34.8574 32.6197M35.2223 30.5314C35.1487 31.2643 34.9672 31.9318 34.6778 32.5338M34.8574 32.6197C34.8574 32.6197 34.8574 32.6196 34.8575 32.6196L34.6778 32.5338M34.8574 32.6197C34.8573 32.6198 34.8573 32.62 34.8572 32.6201L34.6778 32.5338M34.8574 32.6197L34.6778 32.5338M21.4335 27.4918L21.3103 27.5408L21.3081 27.6734L21.1587 36.7004L21.1546 36.9464L21.396 36.8991L23.0214 36.5804L23.18 36.5493L23.1822 36.3877L23.2304 32.8464L23.8147 32.842L25.6245 35.934L25.6959 36.056L25.8346 36.0288L27.635 35.6757L27.9139 35.621L27.7673 35.3776L25.9063 32.2889L25.8773 32.2407L25.8275 32.2149L25.6428 32.1191C25.805 32.0392 25.9618 31.9465 26.113 31.8411L26.113 31.8411L26.1152 31.8396C26.4 31.6352 26.6402 31.3882 26.8347 31.0992L26.8348 31.0992L26.8367 31.0962C27.0315 30.7951 27.1641 30.4523 27.2369 30.0706C27.318 29.6703 27.3086 29.2297 27.2156 28.7519C27.1331 28.3286 26.9805 27.9672 26.7513 27.6755C26.5337 27.3803 26.2667 27.1558 25.9506 27.0067C25.6375 26.8516 25.2887 26.7624 24.907 26.7362C24.5286 26.7102 24.1396 26.7369 23.7405 26.8152C23.4089 26.8802 23.0401 26.9702 22.6342 27.0847C22.2257 27.2 21.8254 27.3357 21.4335 27.4918ZM25.1391 30.0951L25.139 30.0951L25.1372 30.1011C25.0771 30.2926 24.9794 30.4558 24.8436 30.5936C24.7121 30.7237 24.5472 30.8332 24.3454 30.9201C24.1322 31.0026 23.9111 31.0664 23.6818 31.1113L23.2617 31.1937L23.3091 28.9333C23.3709 28.9139 23.4405 28.8942 23.518 28.8742L23.518 28.8745L23.5279 28.8714C23.667 28.8277 23.8166 28.79 23.9768 28.7586C24.3747 28.6806 24.6377 28.7306 24.8067 28.8549L24.8067 28.8549L24.81 28.8572C24.9976 28.9894 25.1125 29.1671 25.1581 29.4015C25.2137 29.6865 25.202 29.9146 25.1391 30.0951ZM33.6573 34.1835C33.6575 34.1834 33.6577 34.1832 33.6579 34.1831L33.5287 34.0315L33.6569 34.1839C33.657 34.1838 33.6572 34.1837 33.6573 34.1835ZM33.3262 30.2046L33.3261 30.2077C33.3075 30.7137 33.2265 31.1735 33.085 31.5885C32.9426 31.9935 32.7449 32.3305 32.4944 32.6036C32.2587 32.8579 31.9726 33.0172 31.6305 33.0843C31.1549 33.1775 30.8155 33.0797 30.5703 32.8276C30.3102 32.5497 30.1164 32.1323 30.0039 31.5549C29.8997 31.0199 29.8621 30.5036 29.8902 30.0053C29.9251 29.4951 30.0165 29.0465 30.1619 28.6572C30.3141 28.2577 30.5139 27.9331 30.7581 27.6784C31.005 27.4279 31.2937 27.2719 31.6281 27.2064C32.03 27.1276 32.3524 27.2008 32.6171 27.4093C32.8785 27.6151 33.0878 28.0125 33.2126 28.6531C33.3153 29.1799 33.3529 29.6969 33.3262 30.2046ZM42.1709 32.4168L42.251 32.3401L42.2279 32.2315L41.93 30.8358L41.8617 30.516L41.609 30.7234C41.4249 30.8745 41.2212 31.0136 40.9973 31.1405C40.7942 31.2496 40.5149 31.3422 40.152 31.4134C39.6099 31.5197 39.1551 31.4213 38.7691 31.1299C38.3908 30.8365 38.1261 30.3663 37.9942 29.6895C37.8822 29.1145 37.856 28.5919 37.9119 28.1203C37.9767 27.6428 38.1058 27.2292 38.2959 26.8765C38.4859 26.5238 38.7349 26.2343 39.0433 26.0053C39.3511 25.7767 39.7022 25.6232 40.0996 25.5452C40.4504 25.4765 40.7361 25.446 40.9601 25.4499L40.9601 25.45L40.967 25.4499C41.1919 25.4461 41.3826 25.4719 41.5421 25.5229L41.7492 25.5891L41.7969 25.377L42.152 23.8013L42.1944 23.613L42.0075 23.5648C41.7752 23.5048 41.475 23.4776 41.1139 23.4778C40.7474 23.4679 40.3214 23.512 39.8382 23.6067C39.2069 23.7305 38.6099 23.9599 38.0478 24.2942L38.047 24.2947C37.4867 24.6314 37.0174 25.0817 36.6395 25.643C36.2572 26.1999 35.9971 26.8691 35.8544 27.6451C35.7084 28.4222 35.7369 29.3133 35.9319 30.3141C36.0328 30.8319 36.1966 31.3048 36.4247 31.7314C36.6538 32.1598 36.9437 32.5207 37.2953 32.8113L37.2953 32.8113L37.2976 32.8132C37.6605 33.104 38.0792 33.3039 38.5509 33.4136C39.028 33.5246 39.5542 33.5203 40.1258 33.4083C40.9635 33.244 41.6493 32.9164 42.1709 32.4168ZM46.5227 27.0254L46.9811 26.6222L47.0067 26.5997L47.0233 26.57L49.4504 22.2379L49.6608 21.8624L49.2385 21.9453L47.288 22.3277L47.1936 22.3462L47.1495 22.4316L44.941 26.7012L44.936 26.7042L44.9997 23.0218L45.004 22.7756L44.7624 22.823L43.137 23.1417L42.9788 23.1727L42.9762 23.3339L42.8314 32.4509L42.8275 32.6967L43.0687 32.6494L44.6941 32.3307L44.8524 32.2997L44.8549 32.1384L44.9116 28.4059L45.2147 28.3465L47.5567 31.6498L47.6311 31.7548L47.7574 31.73L49.5703 31.3746L49.8754 31.3147L49.6934 31.0626L46.9913 27.3208L46.9669 27.287L46.9309 27.2658L46.5227 27.0254Z" fill="url(#paint15_linear_385_2681)" stroke="#FAD07D" stroke-width="0.39816"/>
<defs>
<filter id="filter0_d_385_2681" x="0.449467" y="15.2363" width="69.8552" height="36.7534" filterUnits="userSpaceOnUse" color-interpolation-filters="sRGB">
<feFlood flood-opacity="0" result="BackgroundImageFix"/>
<feColorMatrix in="SourceAlpha" type="matrix" values="0 0 0 0 0 0 0 0 0 0 0 0 0 0 0 0 0 0 127 0" result="hardAlpha"/>
<feOffset dy="1.13842"/>
<feGaussianBlur stdDeviation="0.569212"/>
<feComposite in2="hardAlpha" operator="out"/>
<feColorMatrix type="matrix" values="0 0 0 0 0 0 0 0 0 0 0 0 0 0 0 0 0 0 0.25 0"/>
<feBlend mode="normal" in2="BackgroundImageFix" result="effect1_dropShadow_385_2681"/>
<feBlend mode="normal" in="SourceGraphic" in2="effect1_dropShadow_385_2681" result="shape"/>
</filter>
<filter id="filter1_i_385_2681" x="0.734073" y="30.2949" width="13.6312" height="20.5564" filterUnits="userSpaceOnUse" color-interpolation-filters="sRGB">
<feFlood flood-opacity="0" result="BackgroundImageFix"/>
<feBlend mode="normal" in="SourceGraphic" in2="BackgroundImageFix" result="shape"/>
<feColorMatrix in="SourceAlpha" type="matrix" values="0 0 0 0 0 0 0 0 0 0 0 0 0 0 0 0 0 0 127 0" result="hardAlpha"/>
<feOffset dx="-0.853817" dy="1.13842"/>
<feGaussianBlur stdDeviation="0.569212"/>
<feComposite in2="hardAlpha" operator="arithmetic" k2="-1" k3="1"/>
<feColorMatrix type="matrix" values="0 0 0 0 0.984314 0 0 0 0 0.74902 0 0 0 0 0.156863 0 0 0 0.85 0"/>
<feBlend mode="normal" in2="shape" result="effect1_innerShadow_385_2681"/>
</filter>
<filter id="filter2_i_385_2681" x="54.1153" y="18.5977" width="15.0509" height="20.6716" filterUnits="userSpaceOnUse" color-interpolation-filters="sRGB">
<feFlood flood-opacity="0" result="BackgroundImageFix"/>
<feBlend mode="normal" in="SourceGraphic" in2="BackgroundImageFix" result="shape"/>
<feColorMatrix in="SourceAlpha" type="matrix" values="0 0 0 0 0 0 0 0 0 0 0 0 0 0 0 0 0 0 127 0" result="hardAlpha"/>
<feOffset dx="-0.853817" dy="1.13842"/>
<feGaussianBlur stdDeviation="0.569212"/>
<feComposite in2="hardAlpha" operator="arithmetic" k2="-1" k3="1"/>
<feColorMatrix type="matrix" values="0 0 0 0 0.984314 0 0 0 0 0.74902 0 0 0 0 0.156863 0 0 0 0.85 0"/>
<feBlend mode="normal" in2="shape" result="effect1_innerShadow_385_2681"/>
</filter>
<filter id="filter3_i_385_2681" x="5.56082" y="15.2363" width="57.6422" height="30.2029" filterUnits="userSpaceOnUse" color-interpolation-filters="sRGB">
<feFlood flood-opacity="0" result="BackgroundImageFix"/>
<feBlend mode="normal" in="SourceGraphic" in2="BackgroundImageFix" result="shape"/>
<feColorMatrix in="SourceAlpha" type="matrix" values="0 0 0 0 0 0 0 0 0 0 0 0 0 0 0 0 0 0 127 0" result="hardAlpha"/>
<feOffset dx="-0.853817" dy="1.13842"/>
<feGaussianBlur stdDeviation="0.569212"/>
<feComposite in2="hardAlpha" operator="arithmetic" k2="-1" k3="1"/>
<feColorMatrix type="matrix" values="0 0 0 0 0.984314 0 0 0 0 0.74902 0 0 0 0 0.156863 0 0 0 0.85 0"/>
<feBlend mode="normal" in2="shape" result="effect1_innerShadow_385_2681"/>
</filter>
<linearGradient id="paint0_linear_385_2681" x1="32.6796" y1="6.43278e-06" x2="46.1423" y2="29.9302" gradientUnits="userSpaceOnUse">
<stop stop-color="#FE623C"/>
<stop offset="1" stop-color="#BE320C"/>
</linearGradient>
<radialGradient id="paint1_radial_385_2681" cx="0" cy="0" r="1" gradientUnits="userSpaceOnUse" gradientTransform="translate(7.97659 40.004) rotate(90) scale(9.84675 6.38869)">
<stop stop-color="#FFBC00"/>
<stop offset="0.57" stop-color="#FD9E00"/>
<stop offset="1" stop-color="#F79500"/>
</radialGradient>
<radialGradient id="paint2_radial_385_2681" cx="0" cy="0" r="1" gradientUnits="userSpaceOnUse" gradientTransform="translate(62.0676 28.3643) rotate(90) scale(9.89459 7.09855)">
<stop stop-color="#FFBC00"/>
<stop offset="0.57" stop-color="#FD9E00"/>
<stop offset="1" stop-color="#F79500"/>
</radialGradient>
<radialGradient id="paint3_radial_385_2681" cx="0" cy="0" r="1" gradientUnits="userSpaceOnUse" gradientTransform="translate(34.8088 29.7687) rotate(90) scale(14.67 28.3942)">
<stop stop-color="#FFBC00"/>
<stop offset="0.57" stop-color="#FD9E00"/>
<stop offset="1" stop-color="#F79500"/>
</radialGradient>
<linearGradient id="paint4_linear_385_2681" x1="48.87" y1="44.2352" x2="48.87" y2="51.552" gradientUnits="userSpaceOnUse">
<stop stop-color="#404040"/>
<stop offset="1" stop-color="#828282"/>
</linearGradient>
<linearGradient id="paint5_linear_385_2681" x1="48.87" y1="44.2352" x2="48.87" y2="51.552" gradientUnits="userSpaceOnUse">
<stop stop-color="#404040"/>
<stop offset="1" stop-color="#828282"/>
</linearGradient>
<linearGradient id="paint6_linear_385_2681" x1="48.87" y1="44.2352" x2="48.87" y2="51.552" gradientUnits="userSpaceOnUse">
<stop stop-color="#404040"/>
<stop offset="1" stop-color="#828282"/>
</linearGradient>
<linearGradient id="paint7_linear_385_2681" x1="48.87" y1="44.2352" x2="48.87" y2="51.552" gradientUnits="userSpaceOnUse">
<stop stop-color="#404040"/>
<stop offset="1" stop-color="#828282"/>
</linearGradient>
<linearGradient id="paint8_linear_385_2681" x1="48.87" y1="44.2352" x2="48.87" y2="51.552" gradientUnits="userSpaceOnUse">
<stop stop-color="#404040"/>
<stop offset="1" stop-color="#828282"/>
</linearGradient>
<linearGradient id="paint9_linear_385_2681" x1="48.87" y1="44.2352" x2="48.87" y2="51.552" gradientUnits="userSpaceOnUse">
<stop stop-color="#404040"/>
<stop offset="1" stop-color="#828282"/>
</linearGradient>
<linearGradient id="paint10_linear_385_2681" x1="48.87" y1="44.2352" x2="48.87" y2="51.552" gradientUnits="userSpaceOnUse">
<stop stop-color="#404040"/>
<stop offset="1" stop-color="#828282"/>
</linearGradient>
<linearGradient id="paint11_linear_385_2681" x1="48.87" y1="44.2352" x2="48.87" y2="51.552" gradientUnits="userSpaceOnUse">
<stop stop-color="#404040"/>
<stop offset="1" stop-color="#828282"/>
</linearGradient>
<linearGradient id="paint12_linear_385_2681" x1="48.87" y1="44.2352" x2="48.87" y2="51.552" gradientUnits="userSpaceOnUse">
<stop stop-color="#404040"/>
<stop offset="1" stop-color="#828282"/>
</linearGradient>
<linearGradient id="paint13_linear_385_2681" x1="48.87" y1="44.2352" x2="48.87" y2="51.552" gradientUnits="userSpaceOnUse">
<stop stop-color="#404040"/>
<stop offset="1" stop-color="#828282"/>
</linearGradient>
<linearGradient id="paint14_linear_385_2681" x1="48.87" y1="44.2352" x2="48.87" y2="51.552" gradientUnits="userSpaceOnUse">
<stop stop-color="#404040"/>
<stop offset="1" stop-color="#828282"/>
</linearGradient>
<linearGradient id="paint15_linear_385_2681" x1="33.3417" y1="25.4921" x2="35.1516" y2="34.7225" gradientUnits="userSpaceOnUse">
<stop stop-color="#753000"/>
<stop offset="1" stop-color="#99480D"/>
</linearGradient>
</defs>
</svg>
