<svg width="111" height="83" viewBox="0 0 111 83" fill="none" xmlns="http://www.w3.org/2000/svg">
<path d="M70.6235 44.1838C70.6235 44.4326 70.8252 44.6343 71.074 44.6343H92.7805C93.0293 44.6343 93.231 44.4326 93.231 44.1838V24.9356C93.231 24.6868 93.0293 24.4852 92.7805 24.4852H80.6821C80.4334 24.4852 80.2317 24.2835 80.2317 24.0347V21.6239C80.2317 21.3751 80.4334 21.1734 80.6821 21.1734H92.7805C93.0293 21.1734 93.231 20.9717 93.231 20.723V13.0904C93.231 12.8417 93.0293 12.64 92.7805 12.64H80.6821C80.4334 12.64 80.2317 12.4383 80.2317 12.1895V9.32785C80.2317 9.07907 80.4334 8.87739 80.6821 8.87739H92.7805C93.0293 8.87739 93.231 8.67571 93.231 8.42693V1.35183C93.231 1.10305 93.0293 0.901367 92.7805 0.901367H71.074C70.8252 0.901367 70.6235 1.10305 70.6235 1.35183V44.1838ZM53.2596 11.1199C53.0902 11.4349 52.6389 11.4364 52.4675 11.1225L47.0137 1.13592C46.9348 0.99132 46.7831 0.901367 46.6184 0.901367H37.7279C37.4791 0.901367 37.2774 1.10305 37.2774 1.35183V8.30469C37.2774 8.66283 36.8716 8.89032 36.554 8.72482C36.1683 8.52383 35.7217 8.31436 35.3308 8.16639C35.1459 8.09639 35.0167 7.92274 35.0167 7.725V1.35183C35.0167 1.10305 34.815 0.901367 34.5662 0.901367H26.5389C17.9079 0.901367 6.94419 10.6061 6.94419 22.7472C6.9026 38.9359 19.5285 46.3084 34.6168 44.6795C34.8438 44.655 35.0167 44.4622 35.0167 44.2339V32.1812C35.0167 32.0154 35.1081 31.8637 35.2522 31.7816C35.8752 31.4265 36.4775 31.0033 37.0535 30.5157C37.1907 30.3995 37.278 30.4308 37.2782 30.6106C37.28 32.4037 37.278 42.0058 37.2775 44.1914C37.2775 44.4402 37.4792 44.6343 37.728 44.6343H46.4352C46.684 44.6343 46.8856 44.4326 46.8856 44.1838V20.2407C46.8856 19.7792 47.4972 19.6162 47.7268 20.0166L52.4721 28.2882C52.6459 28.5911 53.0833 28.5896 53.2551 28.2856L57.9119 20.042C58.1397 19.6388 58.7546 19.8004 58.7546 20.2635V44.1838C58.7546 44.4326 58.9562 44.6343 59.205 44.6343H67.9123C68.1611 44.6343 68.3627 44.4326 68.3627 44.1838V1.35183C68.3627 1.10305 68.1611 0.901367 67.9123 0.901367H59.0238C58.858 0.901367 58.7056 0.992453 58.6271 1.13848L53.2596 11.1199ZM41.1303 29.9098C39.7349 29.4788 38.375 28.8181 37.1181 27.8536C37.095 27.836 36.83 28.1321 36.7236 28.2474C36.698 28.2751 36.6664 28.2987 36.6334 28.3171C23.9981 35.3499 15.2754 19.8282 28.0664 13.0745C38.5577 9.16428 44.6142 18.1393 39.6728 23.9429C39.6095 24.0173 39.5676 24.111 39.5641 24.2086C39.5013 26.0029 40.825 27.7043 41.3293 29.3707C41.3411 29.4105 41.4751 30.0116 41.4694 30.01C41.3558 29.9782 41.2434 29.944 41.1303 29.9098Z" fill="#241815"/>
<path d="M69.7243 43.2825C69.7243 43.5312 69.926 43.7329 70.1748 43.7329H91.8814C92.1301 43.7329 92.3318 43.5312 92.3318 43.2825V24.0343C92.3318 23.7855 92.1301 23.5838 91.8814 23.5838H79.783C79.5342 23.5838 79.3325 23.3821 79.3325 23.1333V20.7225C79.3325 20.4737 79.5342 20.2721 79.783 20.2721H91.8814C92.1301 20.2721 92.3318 20.0704 92.3318 19.8216V12.1891C92.3318 11.9403 92.1301 11.7386 91.8814 11.7386H79.783C79.5342 11.7386 79.3325 11.5369 79.3325 11.2881V8.42649C79.3325 8.1777 79.5342 7.97602 79.783 7.97602H91.8814C92.1301 7.97602 92.3318 7.77435 92.3318 7.52556V0.450461C92.3318 0.201678 92.1301 0 91.8814 0H70.1748C69.926 0 69.7243 0.201679 69.7243 0.450462V43.2825ZM52.3604 10.2185C52.191 10.5335 51.7397 10.535 51.5683 10.2211L46.1146 0.234557C46.0356 0.0899531 45.884 0 45.7192 0H36.8287C36.58 0 36.3783 0.201678 36.3783 0.450462V7.40333C36.3783 7.76146 35.9725 7.98896 35.6549 7.82345C35.2692 7.62246 34.8225 7.413 34.4316 7.26503C34.2467 7.19503 34.1175 7.02137 34.1175 6.82364V0.450461C34.1175 0.201678 33.9158 0 33.6671 0H25.6397C17.0087 0 6.04502 9.70473 6.04502 21.8458C6.00343 38.0345 18.6293 45.4071 33.7176 43.7781C33.9446 43.7536 34.1175 43.5609 34.1175 43.3325V31.2798C34.1175 31.114 34.209 30.9623 34.353 30.8802C34.976 30.5252 35.5783 30.1019 36.1543 29.6143C36.2916 29.4982 36.3788 29.5294 36.379 29.7092C36.3809 31.5023 36.3789 41.1044 36.3784 43.29C36.3783 43.5388 36.58 43.7329 36.8288 43.7329H45.536C45.7848 43.7329 45.9865 43.5312 45.9865 43.2825V19.3394C45.9865 18.8778 46.598 18.7149 46.8277 19.1152L51.573 27.3868C51.7467 27.6897 52.1841 27.6883 52.3559 27.3842L57.0127 19.1406C57.2405 18.7374 57.8554 18.8991 57.8554 19.3622V43.2825C57.8554 43.5312 58.0571 43.7329 58.3059 43.7329H67.0131C67.2619 43.7329 67.4636 43.5312 67.4636 43.2825V0.450461C67.4636 0.201678 67.2619 0 67.0131 0H58.1246C57.9588 0 57.8064 0.0910861 57.7279 0.237117L52.3604 10.2185ZM40.2312 29.0084C38.8357 28.5775 37.4759 27.9167 36.2189 26.9522C36.1958 26.9346 35.9308 27.2307 35.8244 27.346C35.7988 27.3738 35.7672 27.3974 35.7342 27.4157C23.0989 34.4486 14.3762 18.9268 27.1672 12.1731C37.6585 8.26291 43.715 17.2379 38.7736 23.0415C38.7103 23.1159 38.6684 23.2097 38.665 23.3073C38.6021 25.1015 39.9259 26.8029 40.4301 28.4693C40.442 28.5091 40.5759 29.1102 40.5703 29.1086C40.4567 29.0768 40.3442 29.0426 40.2312 29.0084Z" fill="url(#paint0_linear_1303_247)"/>
<g filter="url(#filter0_d_1303_247)">
<g filter="url(#filter1_i_1303_247)">
<path d="M2 52.8871C2 52.4639 2.29461 52.0977 2.70803 52.0071L21.1297 47.9693C21.6916 47.8461 22.2235 48.274 22.2235 48.8493V73.7418C22.2235 74.165 21.9289 74.5312 21.5155 74.6218L3.09382 78.6597C2.53186 78.7829 2 78.355 2 77.7797V52.8871Z" fill="url(#paint1_radial_1303_247)"/>
</g>
<path d="M2.22523 52.8871C2.22523 52.5697 2.44619 52.2951 2.75625 52.2271L21.1779 48.1893C21.5994 48.0969 21.9983 48.4178 21.9983 48.8493V73.7418C21.9983 74.0592 21.7773 74.3339 21.4672 74.4018L3.0456 78.4397C2.62413 78.5321 2.22523 78.2112 2.22523 77.7797V52.8871Z" stroke="#FBBF28" stroke-width="0.450462"/>
<g filter="url(#filter2_i_1303_247)">
<path d="M108.96 30.3333C108.96 29.7633 108.437 29.3366 107.879 29.4505L87.2102 33.6672C86.7907 33.7528 86.4894 34.1218 86.4894 34.55V59.4481C86.4894 60.0181 87.012 60.4448 87.5704 60.3309L108.239 56.1142C108.659 56.0286 108.96 55.6596 108.96 55.2315V30.3333Z" fill="url(#paint2_radial_1303_247)"/>
</g>
<path d="M108.735 30.3333C108.735 29.9058 108.343 29.5858 107.924 29.6712L87.2553 33.8879C86.9406 33.9521 86.7146 34.2289 86.7146 34.55V59.4481C86.7146 59.8756 87.1066 60.1956 87.5254 60.1102L108.194 55.8935C108.509 55.8294 108.735 55.5526 108.735 55.2315V30.3333Z" stroke="#FBBF28" stroke-width="0.450462"/>
<path d="M86.8135 60.3933L98.8134 51.2606C98.9845 51.1304 98.8606 50.8585 98.6501 50.9022L86.6501 53.3929C86.5564 53.4124 86.4893 53.4949 86.4893 53.5906V60.2326C86.4893 60.3996 86.6805 60.4944 86.8135 60.3933Z" fill="#886900"/>
<path d="M21.7423 74.307L10.3248 70.5583C10.1308 70.4946 10.1431 70.2161 10.342 70.1698L21.9671 67.4625C22.0963 67.4324 22.219 67.533 22.2147 67.6656L22.0071 74.1216C22.0028 74.2563 21.8703 74.349 21.7423 74.307Z" fill="#886900"/>
<g filter="url(#filter3_i_1303_247)">
<path d="M9.63965 44.3214C9.63965 43.8981 9.93426 43.532 10.3477 43.4414L98.428 24.1353C98.99 24.0121 99.5218 24.44 99.5218 25.0153V49.9078C99.5218 50.331 99.2272 50.6972 98.8138 50.7878L10.7335 70.0939C10.1715 70.2171 9.63965 69.7892 9.63965 69.2139V44.3214Z" fill="url(#paint3_radial_1303_247)"/>
</g>
<path d="M9.86488 44.3214C9.86488 44.004 10.0858 43.7293 10.3959 43.6614L98.4762 24.3553C98.8977 24.2629 99.2966 24.5838 99.2966 25.0153V49.9078C99.2966 50.2252 99.0756 50.4999 98.7656 50.5678L10.6852 69.8739C10.2638 69.9663 9.86488 69.6454 9.86488 69.2139V44.3214Z" stroke="#FBBF28" stroke-width="0.450462"/>
</g>
<path d="M53.9028 69.8086C54.3064 69.7317 54.7485 69.674 55.229 69.6356C55.7191 69.5875 56.2044 69.5635 56.6849 69.5635C57.1846 69.5635 57.6843 69.6068 58.184 69.6933C58.6933 69.7701 59.1498 69.9335 59.5534 70.1834C59.957 70.4236 60.2838 70.7647 60.5336 71.2068C60.7931 71.6392 60.9228 72.2062 60.9228 72.9077C60.9228 73.542 60.8123 74.0801 60.5913 74.5222C60.3703 74.9546 60.0772 75.3102 59.712 75.5889C59.3468 75.8676 58.9288 76.0694 58.4579 76.1943C57.9966 76.3192 57.5161 76.3817 57.0164 76.3817C56.9684 76.3817 56.8915 76.3817 56.7858 76.3817C56.6801 76.3817 56.5696 76.3817 56.4542 76.3817C56.3389 76.3721 56.2236 76.3625 56.1083 76.3529C56.0026 76.3433 55.9257 76.3337 55.8777 76.324V79.798H53.9028V69.8086ZM56.8434 71.2645C56.6512 71.2645 56.4687 71.2741 56.2957 71.2933C56.1227 71.3029 55.9834 71.3173 55.8777 71.3365V74.6087C55.9161 74.6183 55.9738 74.6279 56.0506 74.6375C56.1275 74.6471 56.2092 74.6567 56.2957 74.6663C56.3822 74.6663 56.4639 74.6663 56.5407 74.6663C56.6272 74.6663 56.6897 74.6663 56.7281 74.6663C56.9876 74.6663 57.2423 74.6423 57.4921 74.5943C57.7516 74.5462 57.9822 74.4597 58.184 74.3348C58.3858 74.2003 58.5444 74.0177 58.6597 73.787C58.7846 73.5564 58.8471 73.2537 58.8471 72.8789C58.8471 72.5618 58.7894 72.3023 58.6741 72.1005C58.5588 71.8891 58.405 71.7209 58.2128 71.596C58.0303 71.4711 57.8188 71.3846 57.5786 71.3365C57.3384 71.2885 57.0933 71.2645 56.8434 71.2645Z" fill="url(#paint4_linear_1303_247)"/>
<path d="M67.8169 75.5745H64.1267V79.798H62.1519V69.7077H64.1267V73.8159H67.8169V69.7077H69.7917V79.798H67.8169V75.5745Z" fill="url(#paint5_linear_1303_247)"/>
<path d="M71.2241 74.7528C71.2241 73.0711 71.5941 71.7786 72.334 70.8753C73.074 69.9623 74.1311 69.5059 75.5053 69.5059C76.226 69.5059 76.8555 69.6308 77.3936 69.8806C77.9318 70.1305 78.3786 70.4861 78.7342 70.9473C79.0898 71.4086 79.354 71.9612 79.527 72.605C79.7 73.2489 79.7865 73.9648 79.7865 74.7528C79.7865 76.4346 79.4117 77.7319 78.6621 78.6448C77.9222 79.5481 76.8699 79.9998 75.5053 79.9998C74.7749 79.9998 74.1407 79.8749 73.6025 79.625C73.0644 79.3752 72.6175 79.0196 72.262 78.5583C71.916 78.0971 71.6565 77.5445 71.4836 76.9006C71.3106 76.2568 71.2241 75.5408 71.2241 74.7528ZM73.2998 74.7528C73.2998 75.2622 73.3431 75.733 73.4296 76.1655C73.516 76.5883 73.6458 76.9535 73.8188 77.261C74.0013 77.5685 74.232 77.8088 74.5107 77.9817C74.7893 78.1547 75.1209 78.2412 75.5053 78.2412C76.2068 78.2412 76.7498 77.9673 77.1341 77.4196C77.5185 76.8718 77.7107 75.9829 77.7107 74.7528C77.7107 74.2627 77.6675 73.8063 77.581 73.3834C77.5041 72.9606 77.3792 72.5906 77.2062 72.2735C77.0332 71.9564 76.8074 71.7113 76.5287 71.5383C76.25 71.3558 75.9089 71.2645 75.5053 71.2645C74.8038 71.2645 74.2608 71.548 73.8764 72.1149C73.492 72.6723 73.2998 73.5516 73.2998 74.7528Z" fill="url(#paint6_linear_1303_247)"/>
<path d="M87.7991 71.4663H84.8584V79.798H82.8836V71.4663H79.9286V69.7077H87.7991V71.4663Z" fill="url(#paint7_linear_1303_247)"/>
<path d="M87.9475 74.7528C87.9475 73.0711 88.3175 71.7786 89.0574 70.8753C89.7974 69.9623 90.8545 69.5059 92.2287 69.5059C92.9494 69.5059 93.5788 69.6308 94.117 69.8806C94.6552 70.1305 95.102 70.4861 95.4576 70.9473C95.8131 71.4086 96.0774 71.9612 96.2504 72.605C96.4234 73.2489 96.5099 73.9648 96.5099 74.7528C96.5099 76.4346 96.1351 77.7319 95.3855 78.6448C94.6455 79.5481 93.5933 79.9998 92.2287 79.9998C91.4983 79.9998 90.8641 79.8749 90.3259 79.625C89.7878 79.3752 89.3409 79.0196 88.9853 78.5583C88.6394 78.0971 88.3799 77.5445 88.2069 76.9006C88.034 76.2568 87.9475 75.5408 87.9475 74.7528ZM90.0232 74.7528C90.0232 75.2622 90.0665 75.733 90.1529 76.1655C90.2394 76.5883 90.3692 76.9535 90.5421 77.261C90.7247 77.5685 90.9554 77.8088 91.234 77.9817C91.5127 78.1547 91.8443 78.2412 92.2287 78.2412C92.9302 78.2412 93.4731 77.9673 93.8575 77.4196C94.2419 76.8718 94.4341 75.9829 94.4341 74.7528C94.4341 74.2627 94.3909 73.8063 94.3044 73.3834C94.2275 72.9606 94.1026 72.5906 93.9296 72.2735C93.7566 71.9564 93.5308 71.7113 93.2521 71.5383C92.9734 71.3558 92.6323 71.2645 92.2287 71.2645C91.5271 71.2645 90.9842 71.548 90.5998 72.1149C90.2154 72.6723 90.0232 73.5516 90.0232 74.7528Z" fill="url(#paint8_linear_1303_247)"/>
<path d="M102.275 77.088C102.275 76.7805 102.159 76.5307 101.929 76.3385C101.708 76.1463 101.424 75.9733 101.078 75.8195C100.742 75.6562 100.372 75.4928 99.9683 75.3294C99.5743 75.1564 99.2043 74.9498 98.8583 74.7096C98.522 74.4597 98.2385 74.1522 98.0079 73.787C97.7868 73.4219 97.6763 72.9558 97.6763 72.3888C97.6763 71.8987 97.758 71.4759 97.9214 71.1203C98.0847 70.7551 98.3154 70.4524 98.6133 70.2122C98.9208 69.9719 99.2812 69.7942 99.6944 69.6788C100.108 69.5635 100.569 69.5059 101.078 69.5059C101.664 69.5059 102.217 69.5587 102.736 69.6644C103.255 69.7605 103.682 69.9047 104.019 70.0969L103.399 71.7546C103.188 71.62 102.87 71.4999 102.448 71.3942C102.025 71.2789 101.568 71.2212 101.078 71.2212C100.617 71.2212 100.261 71.3125 100.012 71.4951C99.7713 71.6777 99.6511 71.9227 99.6511 72.2303C99.6511 72.5185 99.7617 72.7588 99.9827 72.951C100.213 73.1432 100.497 73.321 100.833 73.4843C101.179 73.6477 101.549 73.8159 101.943 73.9889C102.347 74.1618 102.717 74.3732 103.053 74.6231C103.399 74.8633 103.682 75.1661 103.904 75.5312C104.134 75.8868 104.249 76.3337 104.249 76.8718C104.249 77.41 104.158 77.876 103.976 78.27C103.803 78.6544 103.553 78.9764 103.226 79.2358C102.909 79.4953 102.52 79.6875 102.058 79.8124C101.607 79.9373 101.107 79.9998 100.559 79.9998C99.8385 79.9998 99.2043 79.9325 98.6565 79.798C98.1088 79.6635 97.7052 79.5289 97.4457 79.3944L98.0799 77.7079C98.1856 77.7655 98.3202 77.828 98.4836 77.8953C98.6565 77.9625 98.8487 78.025 99.0601 78.0826C99.2716 78.1403 99.4926 78.1884 99.7232 78.2268C99.9635 78.2652 100.209 78.2845 100.458 78.2845C101.045 78.2845 101.491 78.1884 101.799 77.9962C102.116 77.7944 102.275 77.4916 102.275 77.088Z" fill="url(#paint9_linear_1303_247)"/>
<mask id="path-12-outside-1_1303_247" maskUnits="userSpaceOnUse" x="13.55" y="33.7632" width="80" height="26" fill="black">
<rect fill="white" x="13.55" y="33.7632" width="80" height="26"/>
<path d="M18.3583 57.6019C18.1932 57.6699 18.048 57.7251 17.9225 57.7676C17.7954 57.8014 17.6245 57.8394 17.4098 57.8815C17.1179 57.9387 16.8287 57.9419 16.5425 57.891C16.2545 57.8316 15.9866 57.7147 15.7387 57.5404C15.4977 57.3558 15.2853 57.1121 15.1015 56.8093C14.916 56.4979 14.7806 56.1232 14.6952 55.6852C14.5446 54.9122 14.5112 54.2143 14.5949 53.5915C14.6855 52.9585 14.8692 52.4142 15.146 51.9587C15.4296 51.4929 15.7884 51.1149 16.2222 50.8247C16.6629 50.5243 17.1537 50.3211 17.6947 50.215C17.8063 50.1931 17.9411 50.1756 18.099 50.1625C18.2552 50.1407 18.3822 50.1292 18.48 50.1279L18.4985 48.9873L20.1472 48.6641L20.1362 49.8432C20.291 49.7683 20.4491 49.7106 20.6106 49.67C20.779 49.6191 20.9276 49.5811 21.0564 49.5558C21.7262 49.4245 22.3063 49.5426 22.7969 49.91C23.2859 50.2689 23.614 50.8778 23.7813 51.7367C23.9152 52.4238 23.9437 53.0736 23.8669 53.6861C23.7987 54.2969 23.6382 54.8456 23.3853 55.3321C23.1324 55.8186 22.7924 56.2241 22.3653 56.5486C21.9468 56.8714 21.4499 57.0893 20.8746 57.2021C20.7286 57.2307 20.5775 57.2559 20.4213 57.2776C20.2634 57.2907 20.1252 57.291 20.0069 57.2786L19.9824 58.5942L18.3338 58.9175L18.3583 57.6019ZM19.9623 55.8829C20.0344 55.8866 20.1176 55.8792 20.2121 55.8607C20.3151 55.8405 20.4182 55.8203 20.5212 55.8001C20.8303 55.7395 21.1046 55.6143 21.344 55.4247C21.5818 55.2265 21.7743 54.9792 21.9216 54.6828C22.0758 54.3762 22.1719 54.0229 22.2099 53.6231C22.2565 53.2217 22.2337 52.7847 22.1417 52.3123C21.9543 51.3504 21.4699 50.946 20.6885 51.0992C20.594 51.1178 20.4832 51.144 20.3561 51.1778C20.229 51.2116 20.1207 51.2507 20.0313 51.295L19.9623 55.8829ZM18.5193 51.5647C18.4301 51.5644 18.3296 51.5752 18.218 51.597C18.1133 51.6087 18.0137 51.6237 17.9192 51.6423C17.6101 51.7029 17.3359 51.828 17.0964 52.0176C16.8656 52.2055 16.6774 52.452 16.5318 52.757C16.3845 53.0534 16.2918 53.4015 16.2538 53.8013C16.2141 54.1925 16.2403 54.6243 16.3324 55.0966C16.3842 55.3629 16.4586 55.5846 16.5555 55.7618C16.6594 55.9287 16.7745 56.0621 16.901 56.1622C17.0344 56.2519 17.1799 56.3126 17.3376 56.3441C17.4936 56.367 17.6532 56.3624 17.8164 56.3305C17.8851 56.317 17.9838 56.2976 18.1126 56.2724C18.2397 56.2385 18.3515 56.1943 18.4478 56.1398L18.5193 51.5647Z"/>
<path d="M24.7298 53.8914C24.5741 53.0927 24.535 52.3201 24.6125 51.5737C24.6969 50.8171 24.8898 50.1372 25.1913 49.5342C25.4911 48.9225 25.8951 48.4108 26.4033 47.9991C26.9184 47.5771 27.528 47.2971 28.2321 47.159C28.6958 47.0681 29.1256 47.0551 29.5216 47.1201C29.9262 47.1835 30.2858 47.3359 30.6003 47.5774C30.9217 47.8086 31.198 48.129 31.4294 48.5384C31.6607 48.9478 31.8349 49.4531 31.952 50.0543C32.1093 50.8616 32.1458 51.6436 32.0614 52.4003C31.9856 53.1553 31.7987 53.8429 31.5005 54.4631C31.2093 55.0731 30.8147 55.5874 30.3168 56.006C29.8275 56.423 29.2479 56.6971 28.5782 56.8284C27.5649 57.0271 26.7301 56.8832 26.0737 56.3966C25.4156 55.9015 24.9676 55.0664 24.7298 53.8914ZM26.4843 53.4939C26.6048 54.1123 26.8169 54.5834 27.1207 54.9073C27.4331 55.2294 27.8598 55.3375 28.4008 55.2314C28.7957 55.154 29.1295 54.9681 29.402 54.6739C29.6815 54.3695 29.8986 53.997 30.0535 53.5564C30.2067 53.1073 30.2932 52.6133 30.313 52.0744C30.3414 51.5338 30.3012 50.9843 30.1925 50.4261C30.0603 49.7476 29.831 49.2798 29.5045 49.0228C29.1781 48.7658 28.783 48.6828 28.3193 48.7737C27.9329 48.8494 27.5983 49.031 27.3156 49.3183C27.0413 49.6039 26.8217 49.9635 26.6566 50.3971C26.4983 50.8205 26.4007 51.3033 26.3637 51.8456C26.3337 52.3776 26.3739 52.927 26.4843 53.4939Z"/>
<path d="M38.8965 46.8869L36.3978 47.3769L36.2643 55.134L34.6028 55.4598L34.7233 47.7052L32.2246 48.1952L32.2532 46.5578L38.9123 45.252L38.8965 46.8869Z"/>
<path d="M39.0816 51.0772C38.926 50.2785 38.8869 49.5059 38.9644 48.7595C39.0487 48.0029 39.2417 47.323 39.5432 46.72C39.843 46.1083 40.247 45.5967 40.7552 45.1849C41.2702 44.7629 41.8798 44.4829 42.5839 44.3448C43.0476 44.2539 43.4775 44.2409 43.8735 44.306C44.2781 44.3693 44.6376 44.5217 44.9521 44.7632C45.2735 44.9945 45.5499 45.3148 45.7812 45.7242C46.0125 46.1336 46.1868 46.6389 46.3039 47.2401C46.4612 48.0475 46.4977 48.8295 46.4133 49.5861C46.3375 50.3411 46.1505 51.0287 45.8524 51.6489C45.5611 52.2589 45.1666 52.7732 44.6687 53.1918C44.1793 53.6088 43.5998 53.8829 42.93 54.0142C41.9168 54.2129 41.082 54.069 40.4255 53.5824C39.7674 53.0873 39.3194 52.2522 39.0816 51.0772ZM40.8362 50.6797C40.9566 51.2981 41.1688 51.7692 41.4726 52.0931C41.785 52.4153 42.2116 52.5233 42.7526 52.4172C43.1476 52.3398 43.4814 52.154 43.7539 51.8598C44.0333 51.5553 44.2505 51.1828 44.4054 50.7422C44.5586 50.2931 44.6451 49.7991 44.6649 49.2602C44.6933 48.7196 44.6531 48.1702 44.5443 47.6119C44.4121 46.9334 44.1828 46.4656 43.8564 46.2086C43.53 45.9516 43.1349 45.8686 42.6712 45.9595C42.2848 46.0353 41.9502 46.2168 41.6674 46.5041C41.3932 46.7897 41.1735 47.1493 41.0084 47.583C40.8502 48.0063 40.7526 48.4891 40.7156 49.0314C40.6855 49.5634 40.7257 50.1128 40.8362 50.6797Z"/>
<path d="M52.6312 44.1937L49.3339 44.8403L49.2133 52.5949L47.5389 52.9233L47.6881 43.5312L52.6599 42.5563L52.6312 44.1937Z"/>
<path d="M56.4554 49.1017L53.8278 49.6169L53.1478 51.8234L51.3704 52.172L54.6112 42.1068L55.8477 41.8644L58.7894 50.7172L57.1021 51.0481L56.4554 49.1017ZM54.2859 48.0558L56.1149 47.6972L55.5172 45.7278L55.254 44.3081L55.1896 44.3207L54.953 45.8518L54.2859 48.0558Z"/>
<path d="M63.8899 41.9861L62.0867 42.3397C62.0482 43.1943 62.004 43.9743 61.9542 44.6796C61.913 45.3832 61.8541 46.0189 61.7775 46.5868C61.7096 47.153 61.617 47.6616 61.4998 48.1126C61.3826 48.5635 61.2382 48.9664 61.0666 49.321C60.9522 49.5575 60.8217 49.7569 60.6751 49.9194C60.537 50.0803 60.3897 50.2162 60.233 50.3271C60.0832 50.4278 59.9336 50.5062 59.784 50.5623C59.6362 50.627 59.4935 50.6728 59.3561 50.6997C58.9612 50.7772 58.6403 50.7777 58.3936 50.7012L58.5998 49.0825C58.6461 49.0912 58.6915 49.0957 58.7361 49.0959C58.7893 49.0943 58.8374 49.0894 58.8803 49.081C59.028 49.0609 59.1672 48.9979 59.2981 48.892C59.4376 48.7844 59.5551 48.6321 59.6504 48.4351C59.7681 48.2158 59.8777 47.909 59.9792 47.5146C60.0807 47.1202 60.1663 46.6218 60.2362 46.0196C60.3147 45.4157 60.3765 44.7036 60.4217 43.8833C60.4756 43.0613 60.512 42.1045 60.5311 41.0129L65.5802 40.0229L65.4309 49.4149L63.7694 49.7407L63.8899 41.9861Z"/>
<path d="M67.1468 39.7157L72.2216 38.7206L72.1929 40.358L68.7926 41.0247L68.7509 43.2131L71.855 42.6044L71.8135 44.2444L68.7351 44.848L68.6878 47.1445L72.1525 46.4651L72.1368 48.1L66.9976 49.1077L67.1468 39.7157Z"/>
<path d="M73.6293 38.5382C73.9766 38.3987 74.3487 38.2723 74.7455 38.1588C75.1493 38.035 75.5573 37.9327 75.9695 37.8519C76.4074 37.766 76.821 37.7384 77.2104 37.7691C77.6066 37.7895 77.9622 37.8758 78.2771 38.0281C78.6006 38.1786 78.8715 38.4019 79.0896 38.698C79.3061 38.9855 79.4578 39.3525 79.5448 39.7992C79.6754 40.4691 79.6691 41.0544 79.5259 41.5551C79.3811 42.0471 79.1431 42.4728 78.8119 42.832C78.4876 43.1809 78.0925 43.4635 77.6264 43.6797C77.1587 43.8873 76.6716 44.0408 76.165 44.1401C76.122 44.1486 76.0533 44.162 75.9589 44.1806C75.873 44.1974 75.7786 44.2159 75.6755 44.2361C75.5794 44.2461 75.4833 44.256 75.3871 44.2659C75.2996 44.2742 75.2335 44.2782 75.1889 44.278L75.1498 47.5092L73.4754 47.8375L73.6293 38.5382ZM75.2276 42.6921C75.2636 42.694 75.3125 42.6933 75.3743 42.6901C75.4361 42.6869 75.5022 42.6829 75.5725 42.678C75.6498 42.6629 75.7185 42.6494 75.7786 42.6376C75.8473 42.6241 75.8988 42.614 75.9332 42.6073C76.2251 42.5501 76.4983 42.4653 76.7528 42.353C77.0142 42.2304 77.2346 42.0802 77.4139 41.9023C77.5915 41.7159 77.7178 41.495 77.7929 41.2395C77.8765 40.9823 77.8857 40.6863 77.8204 40.3513C77.7719 40.1022 77.6888 39.9045 77.5711 39.7582C77.4621 39.6101 77.3305 39.5066 77.1763 39.4477C77.0205 39.3802 76.8448 39.3477 76.6492 39.3504C76.4622 39.3514 76.2657 39.3721 76.0596 39.4125C75.905 39.4428 75.7564 39.4809 75.6138 39.5267C75.4781 39.5622 75.3647 39.5978 75.2736 39.6335L75.2276 42.6921Z"/>
<path d="M80.7062 37.0569L85.781 36.0618L85.7524 37.6992L82.352 38.3659L82.3103 40.5543L85.4145 39.9456L85.3729 41.5856L82.2945 42.1892L82.2472 44.4857L85.712 43.8063L85.6962 45.4412L80.557 46.4489L80.7062 37.0569Z"/>
<path d="M90.989 44.4033L91.0537 40.6857L90.1973 41.0944L88.3357 44.9236L86.3908 45.305L88.1709 41.8127L88.9106 41.0792C88.7426 41.0408 88.5611 40.9783 88.3659 40.8917C88.1793 40.8035 87.9998 40.6826 87.8272 40.5292C87.6547 40.3758 87.5012 40.1829 87.3669 39.9507C87.2325 39.7185 87.1326 39.4349 87.0674 39.0999C86.9419 38.4557 86.9626 37.8988 87.1296 37.4291C87.2967 36.9594 87.5534 36.5613 87.8999 36.2348C88.2533 35.898 88.6732 35.6284 89.1598 35.426C89.6549 35.2219 90.1643 35.0685 90.6881 34.9658C90.8169 34.9405 90.9466 34.9196 91.0771 34.9029C91.0856 34.9012 91.1466 34.8937 91.2599 34.8804C91.3801 34.8569 91.5363 34.8352 91.7286 34.8153C91.9294 34.7937 92.1225 34.7782 92.3079 34.7686C92.4932 34.759 92.6588 34.7622 92.8045 34.7782L92.6506 44.0775L90.989 44.4033ZM91.1228 36.5792C91.025 36.5806 90.9238 36.5871 90.8191 36.5987C90.7127 36.6017 90.5865 36.6175 90.4405 36.6462C90.2087 36.6916 89.9818 36.7628 89.76 36.8598C89.5366 36.9482 89.3421 37.0711 89.1766 37.2284C89.0197 37.384 88.9021 37.5809 88.8237 37.8192C88.7522 38.0472 88.7474 38.3201 88.8094 38.6379C88.8897 39.0502 89.0753 39.3393 89.3661 39.5052C89.6639 39.6608 90.0189 39.6982 90.431 39.6174L91.0621 39.4936L91.1228 36.5792Z"/>
</mask>
<path d="M18.3583 57.6019C18.1932 57.6699 18.048 57.7251 17.9225 57.7676C17.7954 57.8014 17.6245 57.8394 17.4098 57.8815C17.1179 57.9387 16.8287 57.9419 16.5425 57.891C16.2545 57.8316 15.9866 57.7147 15.7387 57.5404C15.4977 57.3558 15.2853 57.1121 15.1015 56.8093C14.916 56.4979 14.7806 56.1232 14.6952 55.6852C14.5446 54.9122 14.5112 54.2143 14.5949 53.5915C14.6855 52.9585 14.8692 52.4142 15.146 51.9587C15.4296 51.4929 15.7884 51.1149 16.2222 50.8247C16.6629 50.5243 17.1537 50.3211 17.6947 50.215C17.8063 50.1931 17.9411 50.1756 18.099 50.1625C18.2552 50.1407 18.3822 50.1292 18.48 50.1279L18.4985 48.9873L20.1472 48.6641L20.1362 49.8432C20.291 49.7683 20.4491 49.7106 20.6106 49.67C20.779 49.6191 20.9276 49.5811 21.0564 49.5558C21.7262 49.4245 22.3063 49.5426 22.7969 49.91C23.2859 50.2689 23.614 50.8778 23.7813 51.7367C23.9152 52.4238 23.9437 53.0736 23.8669 53.6861C23.7987 54.2969 23.6382 54.8456 23.3853 55.3321C23.1324 55.8186 22.7924 56.2241 22.3653 56.5486C21.9468 56.8714 21.4499 57.0893 20.8746 57.2021C20.7286 57.2307 20.5775 57.2559 20.4213 57.2776C20.2634 57.2907 20.1252 57.291 20.0069 57.2786L19.9824 58.5942L18.3338 58.9175L18.3583 57.6019ZM19.9623 55.8829C20.0344 55.8866 20.1176 55.8792 20.2121 55.8607C20.3151 55.8405 20.4182 55.8203 20.5212 55.8001C20.8303 55.7395 21.1046 55.6143 21.344 55.4247C21.5818 55.2265 21.7743 54.9792 21.9216 54.6828C22.0758 54.3762 22.1719 54.0229 22.2099 53.6231C22.2565 53.2217 22.2337 52.7847 22.1417 52.3123C21.9543 51.3504 21.4699 50.946 20.6885 51.0992C20.594 51.1178 20.4832 51.144 20.3561 51.1778C20.229 51.2116 20.1207 51.2507 20.0313 51.295L19.9623 55.8829ZM18.5193 51.5647C18.4301 51.5644 18.3296 51.5752 18.218 51.597C18.1133 51.6087 18.0137 51.6237 17.9192 51.6423C17.6101 51.7029 17.3359 51.828 17.0964 52.0176C16.8656 52.2055 16.6774 52.452 16.5318 52.757C16.3845 53.0534 16.2918 53.4015 16.2538 53.8013C16.2141 54.1925 16.2403 54.6243 16.3324 55.0966C16.3842 55.3629 16.4586 55.5846 16.5555 55.7618C16.6594 55.9287 16.7745 56.0621 16.901 56.1622C17.0344 56.2519 17.1799 56.3126 17.3376 56.3441C17.4936 56.367 17.6532 56.3624 17.8164 56.3305C17.8851 56.317 17.9838 56.2976 18.1126 56.2724C18.2397 56.2385 18.3515 56.1943 18.4478 56.1398L18.5193 51.5647Z" fill="url(#paint10_linear_1303_247)"/>
<path d="M24.7298 53.8914C24.5741 53.0927 24.535 52.3201 24.6125 51.5737C24.6969 50.8171 24.8898 50.1372 25.1913 49.5342C25.4911 48.9225 25.8951 48.4108 26.4033 47.9991C26.9184 47.5771 27.528 47.2971 28.2321 47.159C28.6958 47.0681 29.1256 47.0551 29.5216 47.1201C29.9262 47.1835 30.2858 47.3359 30.6003 47.5774C30.9217 47.8086 31.198 48.129 31.4294 48.5384C31.6607 48.9478 31.8349 49.4531 31.952 50.0543C32.1093 50.8616 32.1458 51.6436 32.0614 52.4003C31.9856 53.1553 31.7987 53.8429 31.5005 54.4631C31.2093 55.0731 30.8147 55.5874 30.3168 56.006C29.8275 56.423 29.2479 56.6971 28.5782 56.8284C27.5649 57.0271 26.7301 56.8832 26.0737 56.3966C25.4156 55.9015 24.9676 55.0664 24.7298 53.8914ZM26.4843 53.4939C26.6048 54.1123 26.8169 54.5834 27.1207 54.9073C27.4331 55.2294 27.8598 55.3375 28.4008 55.2314C28.7957 55.154 29.1295 54.9681 29.402 54.6739C29.6815 54.3695 29.8986 53.997 30.0535 53.5564C30.2067 53.1073 30.2932 52.6133 30.313 52.0744C30.3414 51.5338 30.3012 50.9843 30.1925 50.4261C30.0603 49.7476 29.831 49.2798 29.5045 49.0228C29.1781 48.7658 28.783 48.6828 28.3193 48.7737C27.9329 48.8494 27.5983 49.031 27.3156 49.3183C27.0413 49.6039 26.8217 49.9635 26.6566 50.3971C26.4983 50.8205 26.4007 51.3033 26.3637 51.8456C26.3337 52.3776 26.3739 52.927 26.4843 53.4939Z" fill="url(#paint11_linear_1303_247)"/>
<path d="M38.8965 46.8869L36.3978 47.3769L36.2643 55.134L34.6028 55.4598L34.7233 47.7052L32.2246 48.1952L32.2532 46.5578L38.9123 45.252L38.8965 46.8869Z" fill="url(#paint12_linear_1303_247)"/>
<path d="M39.0816 51.0772C38.926 50.2785 38.8869 49.5059 38.9644 48.7595C39.0487 48.0029 39.2417 47.323 39.5432 46.72C39.843 46.1083 40.247 45.5967 40.7552 45.1849C41.2702 44.7629 41.8798 44.4829 42.5839 44.3448C43.0476 44.2539 43.4775 44.2409 43.8735 44.306C44.2781 44.3693 44.6376 44.5217 44.9521 44.7632C45.2735 44.9945 45.5499 45.3148 45.7812 45.7242C46.0125 46.1336 46.1868 46.6389 46.3039 47.2401C46.4612 48.0475 46.4977 48.8295 46.4133 49.5861C46.3375 50.3411 46.1505 51.0287 45.8524 51.6489C45.5611 52.2589 45.1666 52.7732 44.6687 53.1918C44.1793 53.6088 43.5998 53.8829 42.93 54.0142C41.9168 54.2129 41.082 54.069 40.4255 53.5824C39.7674 53.0873 39.3194 52.2522 39.0816 51.0772ZM40.8362 50.6797C40.9566 51.2981 41.1688 51.7692 41.4726 52.0931C41.785 52.4153 42.2116 52.5233 42.7526 52.4172C43.1476 52.3398 43.4814 52.154 43.7539 51.8598C44.0333 51.5553 44.2505 51.1828 44.4054 50.7422C44.5586 50.2931 44.6451 49.7991 44.6649 49.2602C44.6933 48.7196 44.6531 48.1702 44.5443 47.6119C44.4121 46.9334 44.1828 46.4656 43.8564 46.2086C43.53 45.9516 43.1349 45.8686 42.6712 45.9595C42.2848 46.0353 41.9502 46.2168 41.6674 46.5041C41.3932 46.7897 41.1735 47.1493 41.0084 47.583C40.8502 48.0063 40.7526 48.4891 40.7156 49.0314C40.6855 49.5634 40.7257 50.1128 40.8362 50.6797Z" fill="url(#paint13_linear_1303_247)"/>
<path d="M52.6312 44.1937L49.3339 44.8403L49.2133 52.5949L47.5389 52.9233L47.6881 43.5312L52.6599 42.5563L52.6312 44.1937Z" fill="url(#paint14_linear_1303_247)"/>
<path d="M56.4554 49.1017L53.8278 49.6169L53.1478 51.8234L51.3704 52.172L54.6112 42.1068L55.8477 41.8644L58.7894 50.7172L57.1021 51.0481L56.4554 49.1017ZM54.2859 48.0558L56.1149 47.6972L55.5172 45.7278L55.254 44.3081L55.1896 44.3207L54.953 45.8518L54.2859 48.0558Z" fill="url(#paint15_linear_1303_247)"/>
<path d="M63.8899 41.9861L62.0867 42.3397C62.0482 43.1943 62.004 43.9743 61.9542 44.6796C61.913 45.3832 61.8541 46.0189 61.7775 46.5868C61.7096 47.153 61.617 47.6616 61.4998 48.1126C61.3826 48.5635 61.2382 48.9664 61.0666 49.321C60.9522 49.5575 60.8217 49.7569 60.6751 49.9194C60.537 50.0803 60.3897 50.2162 60.233 50.3271C60.0832 50.4278 59.9336 50.5062 59.784 50.5623C59.6362 50.627 59.4935 50.6728 59.3561 50.6997C58.9612 50.7772 58.6403 50.7777 58.3936 50.7012L58.5998 49.0825C58.6461 49.0912 58.6915 49.0957 58.7361 49.0959C58.7893 49.0943 58.8374 49.0894 58.8803 49.081C59.028 49.0609 59.1672 48.9979 59.2981 48.892C59.4376 48.7844 59.5551 48.6321 59.6504 48.4351C59.7681 48.2158 59.8777 47.909 59.9792 47.5146C60.0807 47.1202 60.1663 46.6218 60.2362 46.0196C60.3147 45.4157 60.3765 44.7036 60.4217 43.8833C60.4756 43.0613 60.512 42.1045 60.5311 41.0129L65.5802 40.0229L65.4309 49.4149L63.7694 49.7407L63.8899 41.9861Z" fill="url(#paint16_linear_1303_247)"/>
<path d="M67.1468 39.7157L72.2216 38.7206L72.1929 40.358L68.7926 41.0247L68.7509 43.2131L71.855 42.6044L71.8135 44.2444L68.7351 44.848L68.6878 47.1445L72.1525 46.4651L72.1368 48.1L66.9976 49.1077L67.1468 39.7157Z" fill="url(#paint17_linear_1303_247)"/>
<path d="M73.6293 38.5382C73.9766 38.3987 74.3487 38.2723 74.7455 38.1588C75.1493 38.035 75.5573 37.9327 75.9695 37.8519C76.4074 37.766 76.821 37.7384 77.2104 37.7691C77.6066 37.7895 77.9622 37.8758 78.2771 38.0281C78.6006 38.1786 78.8715 38.4019 79.0896 38.698C79.3061 38.9855 79.4578 39.3525 79.5448 39.7992C79.6754 40.4691 79.6691 41.0544 79.5259 41.5551C79.3811 42.0471 79.1431 42.4728 78.8119 42.832C78.4876 43.1809 78.0925 43.4635 77.6264 43.6797C77.1587 43.8873 76.6716 44.0408 76.165 44.1401C76.122 44.1486 76.0533 44.162 75.9589 44.1806C75.873 44.1974 75.7786 44.2159 75.6755 44.2361C75.5794 44.2461 75.4833 44.256 75.3871 44.2659C75.2996 44.2742 75.2335 44.2782 75.1889 44.278L75.1498 47.5092L73.4754 47.8375L73.6293 38.5382ZM75.2276 42.6921C75.2636 42.694 75.3125 42.6933 75.3743 42.6901C75.4361 42.6869 75.5022 42.6829 75.5725 42.678C75.6498 42.6629 75.7185 42.6494 75.7786 42.6376C75.8473 42.6241 75.8988 42.614 75.9332 42.6073C76.2251 42.5501 76.4983 42.4653 76.7528 42.353C77.0142 42.2304 77.2346 42.0802 77.4139 41.9023C77.5915 41.7159 77.7178 41.495 77.7929 41.2395C77.8765 40.9823 77.8857 40.6863 77.8204 40.3513C77.7719 40.1022 77.6888 39.9045 77.5711 39.7582C77.4621 39.6101 77.3305 39.5066 77.1763 39.4477C77.0205 39.3802 76.8448 39.3477 76.6492 39.3504C76.4622 39.3514 76.2657 39.3721 76.0596 39.4125C75.905 39.4428 75.7564 39.4809 75.6138 39.5267C75.4781 39.5622 75.3647 39.5978 75.2736 39.6335L75.2276 42.6921Z" fill="url(#paint18_linear_1303_247)"/>
<path d="M80.7062 37.0569L85.781 36.0618L85.7524 37.6992L82.352 38.3659L82.3103 40.5543L85.4145 39.9456L85.3729 41.5856L82.2945 42.1892L82.2472 44.4857L85.712 43.8063L85.6962 45.4412L80.557 46.4489L80.7062 37.0569Z" fill="url(#paint19_linear_1303_247)"/>
<path d="M90.989 44.4033L91.0537 40.6857L90.1973 41.0944L88.3357 44.9236L86.3908 45.305L88.1709 41.8127L88.9106 41.0792C88.7426 41.0408 88.5611 40.9783 88.3659 40.8917C88.1793 40.8035 87.9998 40.6826 87.8272 40.5292C87.6547 40.3758 87.5012 40.1829 87.3669 39.9507C87.2325 39.7185 87.1326 39.4349 87.0674 39.0999C86.9419 38.4557 86.9626 37.8988 87.1296 37.4291C87.2967 36.9594 87.5534 36.5613 87.8999 36.2348C88.2533 35.898 88.6732 35.6284 89.1598 35.426C89.6549 35.2219 90.1643 35.0685 90.6881 34.9658C90.8169 34.9405 90.9466 34.9196 91.0771 34.9029C91.0856 34.9012 91.1466 34.8937 91.2599 34.8804C91.3801 34.8569 91.5363 34.8352 91.7286 34.8153C91.9294 34.7937 92.1225 34.7782 92.3079 34.7686C92.4932 34.759 92.6588 34.7622 92.8045 34.7782L92.6506 44.0775L90.989 44.4033ZM91.1228 36.5792C91.025 36.5806 90.9238 36.5871 90.8191 36.5987C90.7127 36.6017 90.5865 36.6175 90.4405 36.6462C90.2087 36.6916 89.9818 36.7628 89.76 36.8598C89.5366 36.9482 89.3421 37.0711 89.1766 37.2284C89.0197 37.384 88.9021 37.5809 88.8237 37.8192C88.7522 38.0472 88.7474 38.3201 88.8094 38.6379C88.8897 39.0502 89.0753 39.3393 89.3661 39.5052C89.6639 39.6608 90.0189 39.6982 90.431 39.6174L91.0621 39.4936L91.1228 36.5792Z" fill="url(#paint20_linear_1303_247)"/>
<path d="M18.3583 57.6019C18.1932 57.6699 18.048 57.7251 17.9225 57.7676C17.7954 57.8014 17.6245 57.8394 17.4098 57.8815C17.1179 57.9387 16.8287 57.9419 16.5425 57.891C16.2545 57.8316 15.9866 57.7147 15.7387 57.5404C15.4977 57.3558 15.2853 57.1121 15.1015 56.8093C14.916 56.4979 14.7806 56.1232 14.6952 55.6852C14.5446 54.9122 14.5112 54.2143 14.5949 53.5915C14.6855 52.9585 14.8692 52.4142 15.146 51.9587C15.4296 51.4929 15.7884 51.1149 16.2222 50.8247C16.6629 50.5243 17.1537 50.3211 17.6947 50.215C17.8063 50.1931 17.9411 50.1756 18.099 50.1625C18.2552 50.1407 18.3822 50.1292 18.48 50.1279L18.4985 48.9873L20.1472 48.6641L20.1362 49.8432C20.291 49.7683 20.4491 49.7106 20.6106 49.67C20.779 49.6191 20.9276 49.5811 21.0564 49.5558C21.7262 49.4245 22.3063 49.5426 22.7969 49.91C23.2859 50.2689 23.614 50.8778 23.7813 51.7367C23.9152 52.4238 23.9437 53.0736 23.8669 53.6861C23.7987 54.2969 23.6382 54.8456 23.3853 55.3321C23.1324 55.8186 22.7924 56.2241 22.3653 56.5486C21.9468 56.8714 21.4499 57.0893 20.8746 57.2021C20.7286 57.2307 20.5775 57.2559 20.4213 57.2776C20.2634 57.2907 20.1252 57.291 20.0069 57.2786L19.9824 58.5942L18.3338 58.9175L18.3583 57.6019ZM19.9623 55.8829C20.0344 55.8866 20.1176 55.8792 20.2121 55.8607C20.3151 55.8405 20.4182 55.8203 20.5212 55.8001C20.8303 55.7395 21.1046 55.6143 21.344 55.4247C21.5818 55.2265 21.7743 54.9792 21.9216 54.6828C22.0758 54.3762 22.1719 54.0229 22.2099 53.6231C22.2565 53.2217 22.2337 52.7847 22.1417 52.3123C21.9543 51.3504 21.4699 50.946 20.6885 51.0992C20.594 51.1178 20.4832 51.144 20.3561 51.1778C20.229 51.2116 20.1207 51.2507 20.0313 51.295L19.9623 55.8829ZM18.5193 51.5647C18.4301 51.5644 18.3296 51.5752 18.218 51.597C18.1133 51.6087 18.0137 51.6237 17.9192 51.6423C17.6101 51.7029 17.3359 51.828 17.0964 52.0176C16.8656 52.2055 16.6774 52.452 16.5318 52.757C16.3845 53.0534 16.2918 53.4015 16.2538 53.8013C16.2141 54.1925 16.2403 54.6243 16.3324 55.0966C16.3842 55.3629 16.4586 55.5846 16.5555 55.7618C16.6594 55.9287 16.7745 56.0621 16.901 56.1622C17.0344 56.2519 17.1799 56.3126 17.3376 56.3441C17.4936 56.367 17.6532 56.3624 17.8164 56.3305C17.8851 56.317 17.9838 56.2976 18.1126 56.2724C18.2397 56.2385 18.3515 56.1943 18.4478 56.1398L18.5193 51.5647Z" stroke="#FAD07D" stroke-width="1.26038" mask="url(#path-12-outside-1_1303_247)"/>
<path d="M24.7298 53.8914C24.5741 53.0927 24.535 52.3201 24.6125 51.5737C24.6969 50.8171 24.8898 50.1372 25.1913 49.5342C25.4911 48.9225 25.8951 48.4108 26.4033 47.9991C26.9184 47.5771 27.528 47.2971 28.2321 47.159C28.6958 47.0681 29.1256 47.0551 29.5216 47.1201C29.9262 47.1835 30.2858 47.3359 30.6003 47.5774C30.9217 47.8086 31.198 48.129 31.4294 48.5384C31.6607 48.9478 31.8349 49.4531 31.952 50.0543C32.1093 50.8616 32.1458 51.6436 32.0614 52.4003C31.9856 53.1553 31.7987 53.8429 31.5005 54.4631C31.2093 55.0731 30.8147 55.5874 30.3168 56.006C29.8275 56.423 29.2479 56.6971 28.5782 56.8284C27.5649 57.0271 26.7301 56.8832 26.0737 56.3966C25.4156 55.9015 24.9676 55.0664 24.7298 53.8914ZM26.4843 53.4939C26.6048 54.1123 26.8169 54.5834 27.1207 54.9073C27.4331 55.2294 27.8598 55.3375 28.4008 55.2314C28.7957 55.154 29.1295 54.9681 29.402 54.6739C29.6815 54.3695 29.8986 53.997 30.0535 53.5564C30.2067 53.1073 30.2932 52.6133 30.313 52.0744C30.3414 51.5338 30.3012 50.9843 30.1925 50.4261C30.0603 49.7476 29.831 49.2798 29.5045 49.0228C29.1781 48.7658 28.783 48.6828 28.3193 48.7737C27.9329 48.8494 27.5983 49.031 27.3156 49.3183C27.0413 49.6039 26.8217 49.9635 26.6566 50.3971C26.4983 50.8205 26.4007 51.3033 26.3637 51.8456C26.3337 52.3776 26.3739 52.927 26.4843 53.4939Z" stroke="#FAD07D" stroke-width="1.26038" mask="url(#path-12-outside-1_1303_247)"/>
<path d="M38.8965 46.8869L36.3978 47.3769L36.2643 55.134L34.6028 55.4598L34.7233 47.7052L32.2246 48.1952L32.2532 46.5578L38.9123 45.252L38.8965 46.8869Z" stroke="#FAD07D" stroke-width="1.26038" mask="url(#path-12-outside-1_1303_247)"/>
<path d="M39.0816 51.0772C38.926 50.2785 38.8869 49.5059 38.9644 48.7595C39.0487 48.0029 39.2417 47.323 39.5432 46.72C39.843 46.1083 40.247 45.5967 40.7552 45.1849C41.2702 44.7629 41.8798 44.4829 42.5839 44.3448C43.0476 44.2539 43.4775 44.2409 43.8735 44.306C44.2781 44.3693 44.6376 44.5217 44.9521 44.7632C45.2735 44.9945 45.5499 45.3148 45.7812 45.7242C46.0125 46.1336 46.1868 46.6389 46.3039 47.2401C46.4612 48.0475 46.4977 48.8295 46.4133 49.5861C46.3375 50.3411 46.1505 51.0287 45.8524 51.6489C45.5611 52.2589 45.1666 52.7732 44.6687 53.1918C44.1793 53.6088 43.5998 53.8829 42.93 54.0142C41.9168 54.2129 41.082 54.069 40.4255 53.5824C39.7674 53.0873 39.3194 52.2522 39.0816 51.0772ZM40.8362 50.6797C40.9566 51.2981 41.1688 51.7692 41.4726 52.0931C41.785 52.4153 42.2116 52.5233 42.7526 52.4172C43.1476 52.3398 43.4814 52.154 43.7539 51.8598C44.0333 51.5553 44.2505 51.1828 44.4054 50.7422C44.5586 50.2931 44.6451 49.7991 44.6649 49.2602C44.6933 48.7196 44.6531 48.1702 44.5443 47.6119C44.4121 46.9334 44.1828 46.4656 43.8564 46.2086C43.53 45.9516 43.1349 45.8686 42.6712 45.9595C42.2848 46.0353 41.9502 46.2168 41.6674 46.5041C41.3932 46.7897 41.1735 47.1493 41.0084 47.583C40.8502 48.0063 40.7526 48.4891 40.7156 49.0314C40.6855 49.5634 40.7257 50.1128 40.8362 50.6797Z" stroke="#FAD07D" stroke-width="1.26038" mask="url(#path-12-outside-1_1303_247)"/>
<path d="M52.6312 44.1937L49.3339 44.8403L49.2133 52.5949L47.5389 52.9233L47.6881 43.5312L52.6599 42.5563L52.6312 44.1937Z" stroke="#FAD07D" stroke-width="1.26038" mask="url(#path-12-outside-1_1303_247)"/>
<path d="M56.4554 49.1017L53.8278 49.6169L53.1478 51.8234L51.3704 52.172L54.6112 42.1068L55.8477 41.8644L58.7894 50.7172L57.1021 51.0481L56.4554 49.1017ZM54.2859 48.0558L56.1149 47.6972L55.5172 45.7278L55.254 44.3081L55.1896 44.3207L54.953 45.8518L54.2859 48.0558Z" stroke="#FAD07D" stroke-width="1.26038" mask="url(#path-12-outside-1_1303_247)"/>
<path d="M63.8899 41.9861L62.0867 42.3397C62.0482 43.1943 62.004 43.9743 61.9542 44.6796C61.913 45.3832 61.8541 46.0189 61.7775 46.5868C61.7096 47.153 61.617 47.6616 61.4998 48.1126C61.3826 48.5635 61.2382 48.9664 61.0666 49.321C60.9522 49.5575 60.8217 49.7569 60.6751 49.9194C60.537 50.0803 60.3897 50.2162 60.233 50.3271C60.0832 50.4278 59.9336 50.5062 59.784 50.5623C59.6362 50.627 59.4935 50.6728 59.3561 50.6997C58.9612 50.7772 58.6403 50.7777 58.3936 50.7012L58.5998 49.0825C58.6461 49.0912 58.6915 49.0957 58.7361 49.0959C58.7893 49.0943 58.8374 49.0894 58.8803 49.081C59.028 49.0609 59.1672 48.9979 59.2981 48.892C59.4376 48.7844 59.5551 48.6321 59.6504 48.4351C59.7681 48.2158 59.8777 47.909 59.9792 47.5146C60.0807 47.1202 60.1663 46.6218 60.2362 46.0196C60.3147 45.4157 60.3765 44.7036 60.4217 43.8833C60.4756 43.0613 60.512 42.1045 60.5311 41.0129L65.5802 40.0229L65.4309 49.4149L63.7694 49.7407L63.8899 41.9861Z" stroke="#FAD07D" stroke-width="1.26038" mask="url(#path-12-outside-1_1303_247)"/>
<path d="M67.1468 39.7157L72.2216 38.7206L72.1929 40.358L68.7926 41.0247L68.7509 43.2131L71.855 42.6044L71.8135 44.2444L68.7351 44.848L68.6878 47.1445L72.1525 46.4651L72.1368 48.1L66.9976 49.1077L67.1468 39.7157Z" stroke="#FAD07D" stroke-width="1.26038" mask="url(#path-12-outside-1_1303_247)"/>
<path d="M73.6293 38.5382C73.9766 38.3987 74.3487 38.2723 74.7455 38.1588C75.1493 38.035 75.5573 37.9327 75.9695 37.8519C76.4074 37.766 76.821 37.7384 77.2104 37.7691C77.6066 37.7895 77.9622 37.8758 78.2771 38.0281C78.6006 38.1786 78.8715 38.4019 79.0896 38.698C79.3061 38.9855 79.4578 39.3525 79.5448 39.7992C79.6754 40.4691 79.6691 41.0544 79.5259 41.5551C79.3811 42.0471 79.1431 42.4728 78.8119 42.832C78.4876 43.1809 78.0925 43.4635 77.6264 43.6797C77.1587 43.8873 76.6716 44.0408 76.165 44.1401C76.122 44.1486 76.0533 44.162 75.9589 44.1806C75.873 44.1974 75.7786 44.2159 75.6755 44.2361C75.5794 44.2461 75.4833 44.256 75.3871 44.2659C75.2996 44.2742 75.2335 44.2782 75.1889 44.278L75.1498 47.5092L73.4754 47.8375L73.6293 38.5382ZM75.2276 42.6921C75.2636 42.694 75.3125 42.6933 75.3743 42.6901C75.4361 42.6869 75.5022 42.6829 75.5725 42.678C75.6498 42.6629 75.7185 42.6494 75.7786 42.6376C75.8473 42.6241 75.8988 42.614 75.9332 42.6073C76.2251 42.5501 76.4983 42.4653 76.7528 42.353C77.0142 42.2304 77.2346 42.0802 77.4139 41.9023C77.5915 41.7159 77.7178 41.495 77.7929 41.2395C77.8765 40.9823 77.8857 40.6863 77.8204 40.3513C77.7719 40.1022 77.6888 39.9045 77.5711 39.7582C77.4621 39.6101 77.3305 39.5066 77.1763 39.4477C77.0205 39.3802 76.8448 39.3477 76.6492 39.3504C76.4622 39.3514 76.2657 39.3721 76.0596 39.4125C75.905 39.4428 75.7564 39.4809 75.6138 39.5267C75.4781 39.5622 75.3647 39.5978 75.2736 39.6335L75.2276 42.6921Z" stroke="#FAD07D" stroke-width="1.26038" mask="url(#path-12-outside-1_1303_247)"/>
<path d="M80.7062 37.0569L85.781 36.0618L85.7524 37.6992L82.352 38.3659L82.3103 40.5543L85.4145 39.9456L85.3729 41.5856L82.2945 42.1892L82.2472 44.4857L85.712 43.8063L85.6962 45.4412L80.557 46.4489L80.7062 37.0569Z" stroke="#FAD07D" stroke-width="1.26038" mask="url(#path-12-outside-1_1303_247)"/>
<path d="M90.989 44.4033L91.0537 40.6857L90.1973 41.0944L88.3357 44.9236L86.3908 45.305L88.1709 41.8127L88.9106 41.0792C88.7426 41.0408 88.5611 40.9783 88.3659 40.8917C88.1793 40.8035 87.9998 40.6826 87.8272 40.5292C87.6547 40.3758 87.5012 40.1829 87.3669 39.9507C87.2325 39.7185 87.1326 39.4349 87.0674 39.0999C86.9419 38.4557 86.9626 37.8988 87.1296 37.4291C87.2967 36.9594 87.5534 36.5613 87.8999 36.2348C88.2533 35.898 88.6732 35.6284 89.1598 35.426C89.6549 35.2219 90.1643 35.0685 90.6881 34.9658C90.8169 34.9405 90.9466 34.9196 91.0771 34.9029C91.0856 34.9012 91.1466 34.8937 91.2599 34.8804C91.3801 34.8569 91.5363 34.8352 91.7286 34.8153C91.9294 34.7937 92.1225 34.7782 92.3079 34.7686C92.4932 34.759 92.6588 34.7622 92.8045 34.7782L92.6506 44.0775L90.989 44.4033ZM91.1228 36.5792C91.025 36.5806 90.9238 36.5871 90.8191 36.5987C90.7127 36.6017 90.5865 36.6175 90.4405 36.6462C90.2087 36.6916 89.9818 36.7628 89.76 36.8598C89.5366 36.9482 89.3421 37.0711 89.1766 37.2284C89.0197 37.384 88.9021 37.5809 88.8237 37.8192C88.7522 38.0472 88.7474 38.3201 88.8094 38.6379C88.8897 39.0502 89.0753 39.3393 89.3661 39.5052C89.6639 39.6608 90.0189 39.6982 90.431 39.6174L91.0621 39.4936L91.1228 36.5792Z" stroke="#FAD07D" stroke-width="1.26038" mask="url(#path-12-outside-1_1303_247)"/>
<defs>
<filter id="filter0_d_1303_247" x="0.198154" y="24.1138" width="110.564" height="58.1711" filterUnits="userSpaceOnUse" color-interpolation-filters="sRGB">
<feFlood flood-opacity="0" result="BackgroundImageFix"/>
<feColorMatrix in="SourceAlpha" type="matrix" values="0 0 0 0 0 0 0 0 0 0 0 0 0 0 0 0 0 0 127 0" result="hardAlpha"/>
<feOffset dy="1.80185"/>
<feGaussianBlur stdDeviation="0.900923"/>
<feComposite in2="hardAlpha" operator="out"/>
<feColorMatrix type="matrix" values="0 0 0 0 0 0 0 0 0 0 0 0 0 0 0 0 0 0 0.25 0"/>
<feBlend mode="normal" in2="BackgroundImageFix" result="effect1_dropShadow_1303_247"/>
<feBlend mode="normal" in="SourceGraphic" in2="effect1_dropShadow_1303_247" result="shape"/>
</filter>
<filter id="filter1_i_1303_247" x="0.648615" y="47.9482" width="21.5748" height="32.5348" filterUnits="userSpaceOnUse" color-interpolation-filters="sRGB">
<feFlood flood-opacity="0" result="BackgroundImageFix"/>
<feBlend mode="normal" in="SourceGraphic" in2="BackgroundImageFix" result="shape"/>
<feColorMatrix in="SourceAlpha" type="matrix" values="0 0 0 0 0 0 0 0 0 0 0 0 0 0 0 0 0 0 127 0" result="hardAlpha"/>
<feOffset dx="-1.35138" dy="1.80185"/>
<feGaussianBlur stdDeviation="0.900923"/>
<feComposite in2="hardAlpha" operator="arithmetic" k2="-1" k3="1"/>
<feColorMatrix type="matrix" values="0 0 0 0 0.984314 0 0 0 0 0.74902 0 0 0 0 0.156863 0 0 0 0.85 0"/>
<feBlend mode="normal" in2="shape" result="effect1_innerShadow_1303_247"/>
</filter>
<filter id="filter2_i_1303_247" x="85.1381" y="29.4321" width="23.8218" height="32.7193" filterUnits="userSpaceOnUse" color-interpolation-filters="sRGB">
<feFlood flood-opacity="0" result="BackgroundImageFix"/>
<feBlend mode="normal" in="SourceGraphic" in2="BackgroundImageFix" result="shape"/>
<feColorMatrix in="SourceAlpha" type="matrix" values="0 0 0 0 0 0 0 0 0 0 0 0 0 0 0 0 0 0 127 0" result="hardAlpha"/>
<feOffset dx="-1.35138" dy="1.80185"/>
<feGaussianBlur stdDeviation="0.900923"/>
<feComposite in2="hardAlpha" operator="arithmetic" k2="-1" k3="1"/>
<feColorMatrix type="matrix" values="0 0 0 0 0.984314 0 0 0 0 0.74902 0 0 0 0 0.156863 0 0 0 0.85 0"/>
<feBlend mode="normal" in2="shape" result="effect1_innerShadow_1303_247"/>
</filter>
<filter id="filter3_i_1303_247" x="8.28826" y="24.1138" width="91.2335" height="47.8033" filterUnits="userSpaceOnUse" color-interpolation-filters="sRGB">
<feFlood flood-opacity="0" result="BackgroundImageFix"/>
<feBlend mode="normal" in="SourceGraphic" in2="BackgroundImageFix" result="shape"/>
<feColorMatrix in="SourceAlpha" type="matrix" values="0 0 0 0 0 0 0 0 0 0 0 0 0 0 0 0 0 0 127 0" result="hardAlpha"/>
<feOffset dx="-1.35138" dy="1.80185"/>
<feGaussianBlur stdDeviation="0.900923"/>
<feComposite in2="hardAlpha" operator="arithmetic" k2="-1" k3="1"/>
<feColorMatrix type="matrix" values="0 0 0 0 0.984314 0 0 0 0 0.74902 0 0 0 0 0.156863 0 0 0 0.85 0"/>
<feBlend mode="normal" in2="shape" result="effect1_innerShadow_1303_247"/>
</filter>
<linearGradient id="paint0_linear_1303_247" x1="51.2107" y1="1.01815e-05" x2="72.5188" y2="47.3723" gradientUnits="userSpaceOnUse">
<stop stop-color="#FE623C"/>
<stop offset="1" stop-color="#BE320C"/>
</linearGradient>
<radialGradient id="paint1_radial_1303_247" cx="0" cy="0" r="1" gradientUnits="userSpaceOnUse" gradientTransform="translate(12.1117 63.3145) rotate(90) scale(15.585 10.1117)">
<stop stop-color="#FFBC00"/>
<stop offset="0.57" stop-color="#FD9E00"/>
<stop offset="1" stop-color="#F79500"/>
</radialGradient>
<radialGradient id="paint2_radial_1303_247" cx="0" cy="0" r="1" gradientUnits="userSpaceOnUse" gradientTransform="translate(97.7247 44.8907) rotate(90) scale(15.6607 11.2353)">
<stop stop-color="#FFBC00"/>
<stop offset="0.57" stop-color="#FD9E00"/>
<stop offset="1" stop-color="#F79500"/>
</radialGradient>
<radialGradient id="paint3_radial_1303_247" cx="0" cy="0" r="1" gradientUnits="userSpaceOnUse" gradientTransform="translate(54.5807 47.1146) rotate(90) scale(23.2191 44.9411)">
<stop stop-color="#FFBC00"/>
<stop offset="0.57" stop-color="#FD9E00"/>
<stop offset="1" stop-color="#F79500"/>
</radialGradient>
<linearGradient id="paint4_linear_1303_247" x1="76.8361" y1="70.0135" x2="76.8361" y2="81.5942" gradientUnits="userSpaceOnUse">
<stop stop-color="#404040"/>
<stop offset="1" stop-color="#828282"/>
</linearGradient>
<linearGradient id="paint5_linear_1303_247" x1="76.8361" y1="70.0135" x2="76.8361" y2="81.5942" gradientUnits="userSpaceOnUse">
<stop stop-color="#404040"/>
<stop offset="1" stop-color="#828282"/>
</linearGradient>
<linearGradient id="paint6_linear_1303_247" x1="76.8361" y1="70.0135" x2="76.8361" y2="81.5942" gradientUnits="userSpaceOnUse">
<stop stop-color="#404040"/>
<stop offset="1" stop-color="#828282"/>
</linearGradient>
<linearGradient id="paint7_linear_1303_247" x1="76.8361" y1="70.0135" x2="76.8361" y2="81.5942" gradientUnits="userSpaceOnUse">
<stop stop-color="#404040"/>
<stop offset="1" stop-color="#828282"/>
</linearGradient>
<linearGradient id="paint8_linear_1303_247" x1="76.8361" y1="70.0135" x2="76.8361" y2="81.5942" gradientUnits="userSpaceOnUse">
<stop stop-color="#404040"/>
<stop offset="1" stop-color="#828282"/>
</linearGradient>
<linearGradient id="paint9_linear_1303_247" x1="76.8361" y1="70.0135" x2="76.8361" y2="81.5942" gradientUnits="userSpaceOnUse">
<stop stop-color="#404040"/>
<stop offset="1" stop-color="#828282"/>
</linearGradient>
<linearGradient id="paint10_linear_1303_247" x1="50.8481" y1="42.9502" x2="52.7818" y2="52.8116" gradientUnits="userSpaceOnUse">
<stop stop-color="#753000"/>
<stop offset="1" stop-color="#99480D"/>
</linearGradient>
<linearGradient id="paint11_linear_1303_247" x1="50.8481" y1="42.9502" x2="52.7818" y2="52.8116" gradientUnits="userSpaceOnUse">
<stop stop-color="#753000"/>
<stop offset="1" stop-color="#99480D"/>
</linearGradient>
<linearGradient id="paint12_linear_1303_247" x1="50.8481" y1="42.9502" x2="52.7818" y2="52.8116" gradientUnits="userSpaceOnUse">
<stop stop-color="#753000"/>
<stop offset="1" stop-color="#99480D"/>
</linearGradient>
<linearGradient id="paint13_linear_1303_247" x1="50.8481" y1="42.9502" x2="52.7818" y2="52.8116" gradientUnits="userSpaceOnUse">
<stop stop-color="#753000"/>
<stop offset="1" stop-color="#99480D"/>
</linearGradient>
<linearGradient id="paint14_linear_1303_247" x1="50.8481" y1="42.9502" x2="52.7818" y2="52.8116" gradientUnits="userSpaceOnUse">
<stop stop-color="#753000"/>
<stop offset="1" stop-color="#99480D"/>
</linearGradient>
<linearGradient id="paint15_linear_1303_247" x1="50.8481" y1="42.9502" x2="52.7818" y2="52.8116" gradientUnits="userSpaceOnUse">
<stop stop-color="#753000"/>
<stop offset="1" stop-color="#99480D"/>
</linearGradient>
<linearGradient id="paint16_linear_1303_247" x1="50.8481" y1="42.9502" x2="52.7818" y2="52.8116" gradientUnits="userSpaceOnUse">
<stop stop-color="#753000"/>
<stop offset="1" stop-color="#99480D"/>
</linearGradient>
<linearGradient id="paint17_linear_1303_247" x1="50.8481" y1="42.9502" x2="52.7818" y2="52.8116" gradientUnits="userSpaceOnUse">
<stop stop-color="#753000"/>
<stop offset="1" stop-color="#99480D"/>
</linearGradient>
<linearGradient id="paint18_linear_1303_247" x1="50.8481" y1="42.9502" x2="52.7818" y2="52.8116" gradientUnits="userSpaceOnUse">
<stop stop-color="#753000"/>
<stop offset="1" stop-color="#99480D"/>
</linearGradient>
<linearGradient id="paint19_linear_1303_247" x1="50.8481" y1="42.9502" x2="52.7818" y2="52.8116" gradientUnits="userSpaceOnUse">
<stop stop-color="#753000"/>
<stop offset="1" stop-color="#99480D"/>
</linearGradient>
<linearGradient id="paint20_linear_1303_247" x1="50.8481" y1="42.9502" x2="52.7818" y2="52.8116" gradientUnits="userSpaceOnUse">
<stop stop-color="#753000"/>
<stop offset="1" stop-color="#99480D"/>
</linearGradient>
</defs>
</svg>
