<svg width="63" height="54" viewBox="0 0 63 54" fill="none" xmlns="http://www.w3.org/2000/svg">
<path d="M11.7 51.0995H40.7C43.3 51.0995 45.4 48.9995 45.4 46.3995V37.4995L53.3 19.4995C53.7 19.7995 54 20.2995 54.2 20.7995C54.5 21.5995 54.5 22.3995 54.1 23.0995L50.6 31.0995L52.1 31.7995L55.6 23.7995C56.1 22.6995 56.1 21.3995 55.7 20.1995C55.3 19.2995 54.7 18.4995 53.9 17.9995L54.9 15.5995C55.6 13.8995 54.9 11.9995 53.2 11.2995L52.4 10.8995C51.6 10.5995 50.7 10.4995 49.9 10.7995C49.1 11.0995 48.4 11.6995 48.1 12.4995L46.8 15.5995L45.4 18.8995V15.0995L33.4 2.99951H11.7C9.1 2.99951 7 5.09951 7 7.69951V46.3995C7 48.9995 9.1 51.0995 11.7 51.0995ZM49.8 13.1995C50 12.7995 50.3 12.4995 50.7 12.2995C51.1 12.0995 51.6 12.0995 52 12.2995L52.8 12.6995C53.6 13.0995 54 13.9995 53.6 14.8995L52.6 17.1995L48.8 15.4995L49.8 13.1995ZM48.1 17.0995L51.1 18.3995L51.9 18.7995L43.6 37.6995L39.8 35.9995L48.1 17.0995ZM42.9 39.0995L40 40.6995L39.2 37.4995L42.9 39.0995ZM33.9 5.79951L42.7 14.5995H36.9C36.1 14.5995 35.3 14.2995 34.7 13.6995C34.1 13.0995 33.8 12.3995 33.8 11.4995L33.9 5.79951ZM8.7 7.69951C8.7 5.99951 10 4.59951 11.7 4.59951H32.2V11.4995C32.2 12.7995 32.7 13.8995 33.6 14.7995C34.5 15.6995 35.7 16.1995 36.9 16.1995H43.8V22.5995L38.8 33.9995H13.7V35.5995H38.2L37.6 36.8995C37.5 37.0995 37.5 37.1995 37.5 37.3995L38.3 40.6995H13.7V42.2995H38.8C38.9 42.3995 39 42.4995 39.2 42.5995C39.3 42.5995 39.4 42.6995 39.5 42.6995C39.6 42.6995 39.8 42.6995 39.9 42.5995L43.9 40.2995V46.2995C43.9 47.9995 42.5 49.3995 40.8 49.3995H11.8C10.1 49.3995 8.7 47.9995 8.7 46.2995V7.69951Z" fill="#393939"/>
<path d="M26.3 20.3995H38.9V21.9995H26.3V20.3995Z" fill="#393939"/>
<path d="M13.7 27.1995H38.9V28.7995H13.7V27.1995Z" fill="#393939"/>
</svg>
