<svg width="22" height="22" viewBox="0 0 22 22" fill="none" xmlns="http://www.w3.org/2000/svg">
<path d="M6.14115e-05 11.0001C6.12777e-05 12.5305 0.287018 13.9653 0.860929 15.3044L21.1392 15.3044C21.7131 13.9653 22.0001 12.5305 22.0001 11.0001C22.0001 9.27836 21.6175 7.65227 20.8522 6.12183L1.14789 6.12183C0.38267 7.65227 6.1562e-05 9.27835 6.14115e-05 11.0001Z" fill="#EF363C"/>
<path d="M11.0001 22C10.2349 22 9.46963 21.9044 8.80007 21.8087C8.32181 21.7131 7.84355 21.6174 7.36529 21.4261C4.20876 20.2783 1.81746 17.887 0.669638 14.7305L21.3305 14.7305C20.1827 17.887 17.7914 20.2783 14.6349 21.4261C14.1566 21.6174 13.6783 21.7131 13.2001 21.8087C12.5305 21.9044 11.7653 22 11.0001 22Z" fill="#F6ED20"/>
<path d="M21.3305 7.36522L0.573984 7.36522C1.72181 4.20869 4.11311 1.81739 7.26964 0.669565C7.7479 0.47826 8.22616 0.382608 8.70442 0.286956C9.56529 0.0956517 10.2349 -4.85006e-07 11.0001 -4.51558e-07C11.7653 -4.18109e-07 12.5305 0.0956518 13.2001 0.191304C13.6783 0.286956 14.1566 0.478261 14.6349 0.573913C17.7914 1.72174 20.2783 4.2087 21.3305 7.36522Z" fill="black"/>
</svg>
