<svg width="130" height="120" viewBox="0 0 130 120" fill="none" xmlns="http://www.w3.org/2000/svg">
<path d="M84.2 85.5C86.6 83.8 88.8 81.8 90.7 79.6C92.6 77.4 94.3 75 95.6 72.3C96.9 69.7 97.9 66.9 98.6 64.1C99.3 61.2 99.6 58.3 99.6 55.4C99.6 52.9 99.4 50.4 98.9 48C98.4 45.6 97.7 43.2 96.7 40.9C95.7 38.6 94.5 36.4 93.1 34.4C91.7 32.3 90.1 30.4 88.3 28.7C86.6 27.1 84.9 25.7 82.9 24.5C81 23.3 78.9 22.3 76.8 21.4C74.7 20.6 72.4 20 70.2 19.7C67.9 19.3 65.7 19.2 63.4 19.3C45.9 20.2 31.4 35.2 30.5 53.5C30.4 55 30.4 56.6 30.5 58.1C30.6 59.6 30.8 61.2 31.1 62.7C31.4 64.2 31.8 65.7 32.3 67.2C32.8 68.7 33.4 70.1 34 71.5C34.7 72.9 35.4 74.3 36.3 75.6C37.1 76.9 38.1 78.1 39.1 79.3C40.1 80.5 41.2 81.6 42.3 82.6C43.4 83.6 44.6 84.6 45.9 85.5C46.6 86 46.9 86.7 46.9 87.6V91.1C46 91.8 45.6 92.7 45.6 93.9V97.5C45.6 98 45.7 98.4 45.9 98.9C46.1 99.3 46.3 99.7 46.7 100.1C47.1 100.5 47.4 100.7 47.9 100.9C48.3 101.1 48.8 101.2 49.3 101.2V103C49.3 103.6 49.4 104.1 49.6 104.6C49.8 105.1 50 105.6 50.3 106.1C50.6 106.5 51 106.9 51.4 107.3C51.8 107.6 52.3 107.9 52.8 108.1V109C52.8 109.4 52.8 109.8 52.9 110.2C53 110.6 53.1 111 53.2 111.4C53.3 111.8 53.5 112.2 53.7 112.5C53.9 112.9 54.2 113.2 54.4 113.5C54.7 113.8 55 114.1 55.3 114.3C55.6 114.5 56 114.7 56.4 114.9C56.8 115.1 57.2 115.2 57.6 115.3C58 115.4 58.4 115.5 58.8 115.5H71.6C72 115.5 72.4 115.4 72.8 115.3C73.2 115.2 73.6 115.1 74 114.9C74.4 114.7 74.7 114.5 75.1 114.3C75.4 114.1 75.7 113.8 76 113.5C76.3 113.2 76.5 112.9 76.7 112.5C76.9 112.2 77.1 111.8 77.2 111.4C77.3 111 77.4 110.6 77.5 110.2C77.6 109.8 77.6 109.4 77.6 109V108.1C78.1 107.9 78.6 107.7 79 107.3C79.4 107 79.8 106.6 80.1 106.1C80.4 105.7 80.7 105.2 80.8 104.6C81 104.1 81.1 103.5 81.1 103V101.2C81.6 101.2 82 101.1 82.5 100.9C82.9 100.7 83.3 100.5 83.7 100.1C84 99.8 84.3 99.4 84.5 98.9C84.7 98.5 84.8 98 84.8 97.5V93.9C84.8 92.8 84.4 91.9 83.5 91.1V87.8C83.1 86.8 83.5 86.1 84.2 85.5ZM33.9 53.6C34.7 37.1 47.7 23.5 63.4 22.8C65.5 22.7 67.5 22.8 69.5 23.1C71.5 23.4 73.5 23.9 75.4 24.7C77.3 25.4 79.2 26.3 80.9 27.4C82.6 28.5 84.2 29.8 85.7 31.2C87.3 32.8 88.8 34.5 90 36.3C91.3 38.2 92.4 40.1 93.2 42.2C94.1 44.3 94.7 46.4 95.2 48.6C95.6 50.8 95.9 53.1 95.9 55.3C95.9 58 95.6 60.6 95 63.2C94.4 65.8 93.5 68.3 92.3 70.6C91.1 73 89.6 75.2 87.9 77.2C86.2 79.2 84.2 81 82.1 82.5C81.3 83.1 80.6 83.8 80.2 84.8C79.8 85.7 79.5 86.7 79.5 87.7V90.2H50.3V87.5C50.3 86.5 50.1 85.6 49.7 84.7C49.3 83.8 48.6 83.1 47.8 82.5C45.5 80.9 43.4 79 41.6 76.8C39.8 74.6 38.3 72.3 37.1 69.8C35.9 67.3 35 64.6 34.5 61.9C33.9 59.2 33.8 56.4 33.9 53.6ZM71.4 111.6H58.6C58.2 111.6 57.9 111.5 57.6 111.3C57.3 111.1 57 110.9 56.8 110.6C56.6 110.3 56.4 110 56.3 109.7C56.2 109.4 56.1 109 56.2 108.6V108H74V108.6C74 109 74 109.3 73.9 109.7C73.8 110.1 73.6 110.4 73.4 110.6C73.2 110.9 72.9 111.1 72.6 111.3C72.1 111.4 71.7 111.5 71.4 111.6ZM77.4 102.7C77.4 102.9 77.4 103.2 77.3 103.4C77.2 103.6 77.1 103.8 76.9 104C76.7 104.2 76.5 104.3 76.3 104.4C76.1 104.5 75.9 104.5 75.6 104.5H54.3C54.1 104.5 53.8 104.5 53.6 104.4C53.4 104.3 53.2 104.2 53 104C52.8 103.8 52.7 103.6 52.6 103.4C52.5 103.2 52.5 103 52.5 102.7V100.9H77.4V102.7ZM49 97.4V93.8H81V97.4H49Z" fill="#393939"/>
<path d="M63.2 5H66.8V13.9H63.2V5Z" fill="#393939"/>
<path d="M104 51.2H112.9V54.8H104V51.2Z" fill="#393939"/>
<path d="M17 51.2H25.9V54.8H17V51.2Z" fill="#393939"/>
<path d="M29.8 20.3L32.3 17.8L38.6 24.1L36.1 26.6L29.8 20.3Z" fill="#393939"/>
<path d="M91.3 24.1L97.6 17.8L100.1 20.3L93.8 26.6L91.3 24.1Z" fill="#393939"/>
<path d="M62.8 74.1C63.1 73.8 63.2 73.4 63.2 72.9V36.5C63.2 36.1 63.1 35.7 62.8 35.3C61.7 34.1 60.5 33.2 59 32.5C57.5 31.9 56 31.5 54.4 31.6C48.5 31.6 43.7 35.8 43.7 41C43.7 41.3 43.7 41.7 43.8 42C43 42.4 42.3 42.8 41.6 43.4C40.9 44 40.4 44.6 39.9 45.3C39.4 46 39.1 46.8 38.8 47.6C38.5 48.4 38.4 49.3 38.4 50.1C38.4 52.1 39 53.9 40.3 55.4C39 57 38.4 58.7 38.4 60.7C38.4 61.6 38.6 62.4 38.8 63.2C39.1 64 39.4 64.8 39.9 65.5C40.4 66.2 40.9 66.9 41.6 67.4C42.3 67.9 43 68.4 43.8 68.8C44.1 73.7 48.8 77.7 54.4 77.7C56 77.7 57.6 77.4 59 76.8C60.4 76.2 61.7 75.3 62.8 74.1ZM47.3 68.8L49.5 67.4H52.5V63.8H49C48.7 63.8 48.3 63.9 48 64.1L45.3 65.8C44.3 65.4 43.5 64.7 42.9 63.8C42.3 62.9 41.9 61.9 41.9 60.8C41.9 60 42.1 59.3 42.4 58.6C42.7 57.9 43.2 57.3 43.8 56.8L43.9 56.7H49V53.1H42.9C42.2 52.2 41.9 51.2 41.9 50.1C41.9 49.5 42 49 42.2 48.5C42.4 48 42.6 47.5 43 47C43.3 46.6 43.7 46.2 44.1 45.8C44.5 45.5 45 45.2 45.5 45L47.7 47.2C48 47.5 48.5 47.7 49 47.7H52.6V44.1H49.8L47.4 41.7C47.3 41.4 47.3 41.1 47.3 40.9C47.3 37.7 50.5 35.1 54.4 35.1C55.4 35.1 56.3 35.3 57.3 35.6C58.2 35.9 59 36.5 59.8 37.1V72.1C59.1 72.8 58.2 73.3 57.3 73.6C56.4 73.9 55.4 74.1 54.4 74.1C53.6 74.2 52.8 74.1 52 73.8C51.2 73.6 50.5 73.2 49.8 72.7C49.2 72.2 48.6 71.6 48.2 70.9C47.7 70.4 47.4 69.6 47.3 68.8Z" fill="#393939"/>
<path d="M68.3 77.7C69 77.8 69.7 77.8 70.4 77.8C70.5 77.8 70.6 77.8 70.7 77.8C72.6 77.8 74.4 77.5 76.3 76.9C76.7 76.8 77 76.6 77.2 76.3C77.4 76 77.6 75.6 77.6 75.2V72.6C77.6 72.2 77.7 71.9 78.1 71.7C79 71.2 79.9 70.7 80.8 70.1C81.1 69.9 81.3 69.9 81.6 70.1L83.7 71.4C84.1 71.6 84.4 71.7 84.9 71.6C85.3 71.5 85.7 71.4 86 71.1C88.9 68.1 90.8 64.5 91.8 60.4C91.9 60 91.9 59.7 91.7 59.3C91.6 58.9 91.3 58.7 91 58.5L88.4 56.9C88.6 55.4 88.6 54 88.4 52.5L91 50.9C91.3 50.7 91.6 50.4 91.7 50.1C91.8 49.7 91.9 49.4 91.8 49C90.8 44.9 88.9 41.4 86 38.3C85.7 38 85.4 37.8 84.9 37.8C84.5 37.7 84.1 37.8 83.7 38.1L81.6 39.4C81.3 39.6 81.1 39.6 80.8 39.4C80 38.8 79.1 38.2 78.1 37.8C77.8 37.6 77.6 37.3 77.6 36.9V34.3C77.6 33.9 77.5 33.5 77.2 33.2C77 32.9 76.7 32.7 76.3 32.6C74.3 32 72.3 31.7 70.2 31.7C69.6 31.7 69 31.7 68.4 31.8C67.9 31.8 67.6 32 67.3 32.4C67 32.8 66.8 33.1 66.8 33.6V47C66.8 47.3 66.9 47.5 67 47.8C67.1 48.1 67.3 48.3 67.5 48.4C67.7 48.6 68 48.7 68.3 48.7C68.6 48.7 68.8 48.7 69.1 48.6C69.6 48.5 70 48.4 70.5 48.4C70.9 48.4 71.3 48.5 71.6 48.6C72 48.7 72.3 48.8 72.7 49C73 49.2 73.4 49.4 73.7 49.6C74 49.8 74.3 50.1 74.5 50.4C74.8 50.7 75 51 75.2 51.3C75.4 51.6 75.6 52 75.7 52.3C75.8 52.7 75.9 53 76 53.4C76.1 53.8 76.1 54.2 76 54.5C76 54.9 76 55.3 76 55.6C75.9 56 75.9 56.4 75.7 56.7C75.6 57.1 75.4 57.4 75.2 57.7C75 58 74.8 58.3 74.5 58.6C74.2 58.9 74 59.2 73.7 59.4C73.4 59.6 73.1 59.8 72.7 60C72.4 60.2 72 60.3 71.6 60.4C71.2 60.5 70.8 60.6 70.5 60.6C70 60.6 69.5 60.5 69.1 60.4C68.8 60.3 68.6 60.3 68.3 60.3C68 60.3 67.8 60.5 67.5 60.6C67.3 60.8 67.1 61 67 61.2C66.9 61.4 66.8 61.7 66.8 62V75.5C66.8 76 67 76.4 67.3 76.7C67.5 77.5 67.9 77.7 68.3 77.7ZM70.3 64.5C70.4 64.5 70.4 64.5 70.5 64.5C71.1 64.5 71.7 64.4 72.3 64.2C72.9 64.1 73.5 63.9 74 63.6C74.6 63.3 75.1 63 75.6 62.7C76.1 62.3 76.6 61.9 77 61.5C77.4 61 77.8 60.6 78.1 60C78.4 59.5 78.7 58.9 78.9 58.3C79.1 57.7 79.3 57.1 79.4 56.5C79.5 55.9 79.5 55.3 79.5 54.7C79.5 54.1 79.5 53.5 79.4 52.9C79.3 52.3 79.1 51.7 78.9 51.1C78.7 50.5 78.4 50 78.1 49.4C77.8 48.9 77.4 48.4 77 47.9C76.6 47.4 76.1 47 75.6 46.7C75.1 46.3 74.6 46 74 45.8C73.4 45.5 72.9 45.3 72.3 45.2C71.7 45.1 71.1 45 70.5 44.9C70.4 44.9 70.4 44.9 70.3 44.9V35.1C71.6 35.1 72.8 35.2 74 35.5V36.7C74 37.6 74.2 38.4 74.6 39.1C75 39.8 75.6 40.4 76.4 40.8C77.1 41.2 77.8 41.6 78.5 42.1C79.2 42.6 80 42.9 80.9 42.9C81.8 42.9 82.6 42.7 83.3 42.2L84.1 41.7C85.7 43.7 86.9 46 87.7 48.4L85.2 49.9C84.9 50.1 84.7 50.4 84.5 50.7C84.4 51 84.3 51.4 84.4 51.7C84.7 53.6 84.7 55.4 84.4 57.3C84.3 57.7 84.4 58 84.5 58.3C84.7 58.6 84.9 58.9 85.2 59.1L87.7 60.6C86.9 63.1 85.7 65.3 84.1 67.3L83.3 66.8C82.6 66.3 81.8 66.1 80.9 66.1C80 66.1 79.2 66.4 78.5 66.9C77.8 67.4 77.1 67.8 76.4 68.2C75.6 68.6 75 69.2 74.6 69.9C74.2 71 74 71.8 74 72.7V73.9C72.9 74.1 71.8 74.3 70.7 74.3C70.6 74.3 70.4 74.3 70.3 74.3V64.5Z" fill="#393939"/>
<path d="M54.3 44.3H57.9V47.9H54.3V44.3Z" fill="#393939"/>
<path d="M54.3 63.8H57.9V67.4H54.3V63.8Z" fill="#393939"/>
<path d="M50.8 53.1H54.4V56.7H50.8V53.1Z" fill="#393939"/>
</svg>
