<svg width="56" height="56" viewBox="0 0 56 56" fill="none" xmlns="http://www.w3.org/2000/svg">
<g id="&#208;&#158; &#208;&#189;&#208;&#176;&#209;&#129;">
<path id="Vector" d="M29.3 46.3C29.8 46.3 30.1 46.7 30.1 47.1C30.1 47.5 29.8 47.9 29.4 47.9H29.3H27.1C26.6 47.9 26.3 47.5 26.3 47.1C26.3 46.7 26.6 46.3 27 46.3H27.1H29.3ZM31.5 44.1C32 44.1 32.3 44.5 32.3 44.9C32.3 45.3 32 45.7 31.6 45.7H31.5H24.8C24.3 45.7 24 45.3 24 44.9C24 44.5 24.3 44.1 24.7 44.1H24.8H31.5ZM32.6 41.8C33.1 41.8 33.4 42.2 33.4 42.6C33.4 43 33.1 43.4 32.7 43.4H32.6H23.7C23.2 43.4 22.9 43 22.9 42.6C22.9 42.2 23.2 41.8 23.6 41.8H23.7H32.6ZM28.1 16.2C34.1 16.2 39 21.1 39 27.1C39 29.7 37.5 32.4 34.5 35.4C33.9 36 33.5 36.8 33.5 37.7V37.9V39.8C33.5 40.5 33 41.1 32.2 41.2H32.1H24.3C23.6 41.2 23 40.6 22.9 39.9V39.8V38C22.9 37 22.5 36.1 21.8 35.4C18.8 32.4 17.3 29.6 17.3 27.1C17.3 21.1 22.1 16.2 28.1 16.2ZM18.1 36.1C18.4 36.4 18.4 36.9 18.2 37.2L18.1 37.3L15.7 39.7C15.4 40 14.8 40 14.5 39.7C14.2 39.4 14.2 38.9 14.4 38.6L14.5 38.5L16.9 36.1C17.3 35.8 17.8 35.8 18.1 36.1ZM39.3 36.1L41.8 38.5C42.1 38.8 42.1 39.4 41.8 39.7C41.5 40 41 40 40.7 39.8L40.6 39.7L38.2 37.3C37.9 37 37.9 36.4 38.2 36.1C38.5 35.8 39 35.8 39.3 36.1ZM28.1 17.9C23 17.9 18.9 22 18.9 27.1C18.9 29.1 20.2 31.5 22.9 34.3C23.8 35.2 24.4 36.5 24.4 37.7V38V39.6H31.7V38C31.7 36.8 32.1 35.6 32.9 34.7L33.1 34.5L33.3 34.3C36 31.6 37.3 29.2 37.3 27.1C37.3 22 33.2 17.9 28.1 17.9ZM13.1 25.3C13.6 25.3 13.9 25.7 13.9 26.1C13.9 26.5 13.6 26.9 13.2 26.9H13.1H9.8C9.3 26.9 9 26.5 9 26.1C9 25.7 9.3 25.3 9.7 25.3H9.8H13.1ZM46.6 25.3C47.1 25.3 47.4 25.7 47.4 26.1C47.4 26.5 47.1 26.9 46.7 26.9H46.6H43.3C42.8 26.9 42.5 26.5 42.5 26.1C42.5 25.7 42.8 25.3 43.2 25.3H43.3H46.6ZM29.3 19.6C32.8 19.6 35.7 22.5 35.7 26C35.7 26.5 35.3 26.8 34.9 26.8C34.5 26.8 34.1 26.4 34.1 26C34.1 23.4 32 21.3 29.4 21.3C28.9 21.3 28.6 20.9 28.6 20.5C28.4 19.9 28.8 19.6 29.3 19.6ZM15.7 12.4L18.2 14.8C18.5 15.1 18.5 15.7 18.2 16C17.8 16.4 17.3 16.4 17 16.1H16.9L14.6 13.7C14.3 13.4 14.3 12.8 14.6 12.5C14.9 12.2 15.3 12.2 15.7 12.4ZM41.8 12.5C42.1 12.8 42.1 13.3 41.9 13.6L41.8 13.7L39.4 16.1C39.1 16.4 38.5 16.4 38.2 16.1C37.9 15.8 37.9 15.3 38.1 15L38.2 14.9L40.6 12.5C40.9 12.2 41.5 12.2 41.8 12.5ZM28.2 8C28.6 8 29 8.3 29 8.7V8.8V12.1C29 12.6 28.6 12.9 28.2 12.9C27.8 12.9 27.4 12.6 27.4 12.2V12.1V8.8C27.3 8.4 27.7 8 28.2 8Z" fill="#393939"/>
</g>
</svg>
