<svg width="66" height="66" viewBox="0 0 66 66" fill="none" xmlns="http://www.w3.org/2000/svg">
<g clip-path="url(#clip0_1538_5553)">
<path d="M32.8 2.6C16.2 2.6 2.6 16.2 2.6 32.8C2.6 49.4 16.2 63 32.8 63C49.4 63 63 49.5 63 32.8C63 16.1 49.5 2.6 32.8 2.6ZM32.8 65.7C14.7 65.7 0 50.9 0 32.8C0 14.7 14.7 0 32.8 0C50.9 0 65.6 14.7 65.6 32.8C65.6 50.9 50.9 65.7 32.8 65.7Z" fill="#393939"/>
<path d="M14.6 43.4H51.1V22.3H14.6V43.4ZM52.4 46H13.3C12.6 46 12 45.4 12 44.7V20.9C12 20.2 12.6 19.6 13.3 19.6H52.4C53.1 19.6 53.7 20.2 53.7 20.9V44.7C53.7 45.5 53.1 46 52.4 46Z" fill="#393939"/>
<path d="M32.8 36.6C32.5 36.6 32.3 36.5 32 36.3L12.5 22C11.9 21.6 11.8 20.7 12.2 20.2C12.6 19.6 13.5 19.5 14 19.9L32.8 33.7L51.6 19.9C52.2 19.5 53 19.6 53.4 20.2C53.8 20.8 53.7 21.6 53.1 22L33.6 36.3C33.4 36.5 33.1 36.6 32.8 36.6Z" fill="#393939"/>
</g>
<defs>
<clipPath id="clip0_1538_5553">
<rect width="65.7" height="65.7" fill="white"/>
</clipPath>
</defs>
</svg>
