<svg width="69" height="64" viewBox="0 0 69 64" fill="none" xmlns="http://www.w3.org/2000/svg">
<path d="M35.6 13.4H11.3C9.5 13.4 8 14.9 8 16.7V55.2C8 57 9.5 58.5 11.3 58.5H35.5C37.3 58.5 38.8 57 38.8 55.2V16.7C38.9 14.9 37.4 13.4 35.6 13.4ZM37.3 55.2C37.3 56.1 36.5 56.9 35.6 56.9H11.3C10.4 56.9 9.6 56.1 9.6 55.2V16.7C9.6 15.8 10.4 15 11.3 15H35.5C36.4 15 37.2 15.8 37.2 16.7V55.2H37.3Z" fill="#393939"/>
<path d="M33.9 18.4H21.4C20.9 18.4 20.6 18.8 20.6 19.2C20.6 19.7 21 20 21.4 20H33.9C34.4 20 34.7 19.6 34.7 19.2C34.8 18.8 34.4 18.4 33.9 18.4Z" fill="#393939"/>
<path d="M33.9 21.7H21.4C20.9 21.7 20.6 22.1 20.6 22.5C20.6 23 21 23.3 21.4 23.3H33.9C34.4 23.3 34.7 22.9 34.7 22.5C34.8 22.1 34.4 21.7 33.9 21.7Z" fill="#393939"/>
<path d="M33.9 25.1H21.4C20.9 25.1 20.6 25.5 20.6 25.9C20.6 26.4 21 26.7 21.4 26.7H33.9C34.4 26.7 34.7 26.3 34.7 25.9C34.8 25.4 34.4 25.1 33.9 25.1Z" fill="#393939"/>
<path d="M12.5 23.6L14.2 24.9C14.6 25.2 15.1 25.1 15.4 24.7L17.9 21.4C18.2 21 18.1 20.5 17.7 20.2C17.3 19.9 16.8 20 16.5 20.4L14.5 23.1L13.5 22.3C13.1 22 12.6 22.1 12.3 22.5C12.1 22.8 12.1 23.3 12.5 23.6Z" fill="#393939"/>
<path d="M33.9 31.8H21.4C20.9 31.8 20.6 32.2 20.6 32.6C20.6 33.1 21 33.4 21.4 33.4H33.9C34.4 33.4 34.7 33 34.7 32.6C34.8 32.1 34.4 31.8 33.9 31.8Z" fill="#393939"/>
<path d="M33.9 35.1H21.4C20.9 35.1 20.6 35.5 20.6 35.9C20.6 36.4 21 36.7 21.4 36.7H33.9C34.4 36.7 34.7 36.3 34.7 35.9C34.8 35.5 34.4 35.1 33.9 35.1Z" fill="#393939"/>
<path d="M33.9 38.4H21.4C20.9 38.4 20.6 38.8 20.6 39.2C20.6 39.6 21 40 21.4 40H33.9C34.4 40 34.7 39.6 34.7 39.2C34.7 38.8 34.4 38.4 33.9 38.4Z" fill="#393939"/>
<path d="M12.5 37L14.2 38.3C14.5 38.6 15.1 38.5 15.4 38.1L17.9 34.8C18.2 34.4 18.1 33.9 17.7 33.6C17.3 33.3 16.8 33.4 16.5 33.8L14.5 36.5L13.5 35.7C13.1 35.4 12.6 35.5 12.3 35.9C12 36.3 12.1 36.7 12.5 37Z" fill="#393939"/>
<path d="M33.9 45.1H21.4C20.9 45.1 20.6 45.5 20.6 45.9C20.6 46.3 21 46.7 21.4 46.7H33.9C34.4 46.7 34.7 46.3 34.7 45.9C34.7 45.5 34.4 45.1 33.9 45.1Z" fill="#393939"/>
<path d="M31 48.5H21.4C20.9 48.5 20.6 48.9 20.6 49.3C20.6 49.7 21 50.1 21.4 50.1H31C31.5 50.1 31.8 49.7 31.8 49.3C31.8 48.9 31.5 48.5 31 48.5Z" fill="#393939"/>
<path d="M29.7 51.8H21.3C20.8 51.8 20.5 52.2 20.5 52.6C20.5 53 20.9 53.4 21.3 53.4H29.7C30.2 53.4 30.5 53 30.5 52.6C30.5 52.2 30.2 51.8 29.7 51.8Z" fill="#393939"/>
<path d="M15.1 46.4C13.5 46.4 12.2 47.7 12.2 49.3C12.2 50.9 13.5 52.2 15.1 52.2C16.7 52.2 18 50.9 18 49.3C18 47.7 16.7 46.4 15.1 46.4ZM15.1 50.6C14.4 50.6 13.8 50.1 13.8 49.3C13.8 48.5 14.3 48 15.1 48C15.8 48 16.4 48.5 16.4 49.3C16.4 50.1 15.8 50.6 15.1 50.6Z" fill="#393939"/>
<path d="M57.6 16.8C57.1 17.4 56.6 17.9 56 18.3H56.5C58.3 18.3 59.8 19.8 59.8 21.6V33.5C59.8 34.4 59.1 35.1 58.2 35.1C57.7 35.1 57.4 35.5 57.4 35.9V38.3H44.7V35.9C44.7 35.4 44.3 35.1 43.9 35.1C43 35.1 42.3 34.4 42.3 33.5V21.7C42.3 19.9 43.8 18.4 45.6 18.4H46.1C45.5 17.9 45 17.4 44.5 16.9C42.3 17.4 40.6 19.4 40.6 21.8V33.7C40.6 35.2 41.6 36.5 43 36.8V38.5C43 39.3 43.6 40 44.3 40.1V55.2C44.3 57 45.8 58.5 47.6 58.5H54.3C56.1 58.5 57.6 57 57.6 55.2V40.1C58.4 39.9 58.9 39.3 58.9 38.5V36.8C60.3 36.4 61.3 35.2 61.3 33.7V21.7C61.5 19.3 59.8 17.4 57.6 16.8ZM56.1 55.2C56.1 56.1 55.3 56.9 54.4 56.9H51.9V46.9C51.9 46.4 51.5 46.1 51.1 46.1C50.6 46.1 50.3 46.5 50.3 46.9V56.9H47.8C46.9 56.9 46.1 56.1 46.1 55.2V40.2H56.1V55.2Z" fill="#393939"/>
<path d="M51.1 18.4C54.8 18.4 57.8 15.4 57.8 11.7C57.8 8 54.7 5 51.1 5C47.4 5 44.4 8 44.4 11.7C44.4 15.4 47.4 18.4 51.1 18.4ZM51.1 6.7C53.9 6.7 56.1 9 56.1 11.7C56.1 14.4 53.8 16.7 51.1 16.7C48.3 16.7 46.1 14.4 46.1 11.7C46.1 9 48.3 6.7 51.1 6.7Z" fill="#393939"/>
</svg>
