<svg width="130" height="120" viewBox="0 0 130 120" fill="none" xmlns="http://www.w3.org/2000/svg">
<path d="M55.7 43.3C55.7 43.1 55.7 42.9 55.6 42.7C55.5 42.5 55.4 42.3 55.3 42.2C55.1 42 55 41.9 54.8 41.9C54.6 41.8 54.4 41.8 54.2 41.8H44.5C44.3 41.8 44.1 41.8 43.9 41.9C43.7 42 43.5 42.1 43.4 42.2C43.2 42.4 43.1 42.5 43.1 42.7C43 42.9 43 43.1 43 43.3V53C43 53.2 43 53.4 43.1 53.6C43.2 53.8 43.3 54 43.4 54.1C43.6 54.3 43.7 54.4 43.9 54.4C44.1 54.5 44.3 54.5 44.5 54.5H54.2C54.4 54.5 54.6 54.5 54.8 54.4C55 54.3 55.2 54.2 55.3 54.1C55.5 53.9 55.6 53.8 55.6 53.6C55.7 53.4 55.7 53.2 55.7 53V43.3ZM52.5 51.3H46V44.8H52.5V51.3ZM60.5 41.6C60.3 41.6 60.1 41.6 59.9 41.7C59.7 41.8 59.5 41.9 59.4 42C59.2 42.2 59.1 42.3 59.1 42.5C59 42.7 59 42.9 59 43.1V52.8C59 53 59 53.2 59.1 53.4C59.2 53.6 59.3 53.8 59.4 53.9C59.6 54.1 59.7 54.2 59.9 54.2C60.1 54.3 60.3 54.3 60.5 54.3H70.2C70.4 54.3 70.6 54.3 70.8 54.2C71 54.1 71.2 54 71.3 53.9C71.5 53.7 71.6 53.6 71.6 53.4C71.7 53.2 71.7 53 71.7 52.8V43.1C71.7 42.9 71.7 42.7 71.6 42.5C71.5 42.3 71.4 42.1 71.3 42C71.1 41.8 71 41.7 70.8 41.7C70.6 41.6 70.4 41.6 70.2 41.6H60.5ZM68.6 51.3H62.1V44.8H68.6V51.3ZM39.6 59.4C39.6 59.2 39.6 59 39.5 58.8C39.4 58.6 39.3 58.4 39.2 58.3C39 58.1 38.9 58 38.7 58C38.5 57.9 38.3 57.9 38.1 57.9H28.4C28.2 57.9 28 57.9 27.8 58C27.6 58.1 27.4 58.2 27.3 58.3C27.1 58.5 27 58.6 27 58.8C26.9 59 26.9 59.2 26.9 59.4V69C26.9 69.2 26.9 69.4 27 69.6C27.1 69.8 27.2 70 27.3 70.1C27.5 70.3 27.6 70.4 27.8 70.4C28 70.5 28.2 70.5 28.4 70.5H38C38.2 70.5 38.4 70.5 38.6 70.4C38.8 70.3 39 70.2 39.1 70.1C39.3 69.9 39.4 69.8 39.4 69.6C39.5 69.4 39.5 69.2 39.5 69V59.4H39.6ZM36.3 67.4H29.8V61H36.3V67.4ZM55.7 59.4C55.7 59.2 55.7 59 55.6 58.8C55.5 58.6 55.4 58.4 55.3 58.3C55.1 58.1 55 58 54.8 58C54.6 57.9 54.4 57.9 54.2 57.9H44.5C44.3 57.9 44.1 57.9 43.9 58C43.7 58.1 43.5 58.2 43.4 58.3C43.2 58.5 43.1 58.6 43.1 58.8C43 59 43 59.2 43 59.4V69C43 69.2 43 69.4 43.1 69.6C43.2 69.8 43.3 70 43.4 70.1C43.6 70.3 43.7 70.4 43.9 70.4C44.1 70.5 44.3 70.5 44.5 70.5H54.2C54.4 70.5 54.6 70.5 54.8 70.4C55 70.3 55.2 70.2 55.3 70.1C55.5 69.9 55.6 69.8 55.6 69.6C55.7 69.4 55.7 69.2 55.7 69V59.4ZM52.5 67.4H46V61H52.5V67.4ZM38 73.9H28.3C28.1 73.9 27.9 73.9 27.7 74C27.5 74.1 27.3 74.2 27.2 74.3C27 74.5 26.9 74.6 26.9 74.8C26.8 75 26.8 75.2 26.8 75.4V85.1C26.8 85.3 26.8 85.5 26.9 85.7C27 85.9 27.1 86.1 27.2 86.2C27.4 86.4 27.5 86.5 27.7 86.5C27.9 86.6 28.1 86.6 28.3 86.6H38C38.2 86.6 38.4 86.6 38.6 86.5C38.8 86.4 39 86.3 39.1 86.2C39.3 86 39.4 85.9 39.4 85.7C39.5 85.5 39.5 85.3 39.5 85.1V75.4C39.5 75.2 39.5 75 39.4 74.8C39.3 74.6 39.2 74.4 39.1 74.3C38.9 74.1 38.8 74 38.6 74C38.4 73.9 38.2 73.9 38 73.9ZM36.3 83.6H29.8V77.1H36.3V83.6ZM54.1 73.9H44.4C44.2 73.9 44 73.9 43.8 74C43.6 74.1 43.4 74.2 43.3 74.3C43.1 74.5 43 74.6 43 74.8C42.9 75 42.9 75.2 42.9 75.4V85.1C42.9 85.3 42.9 85.5 43 85.7C43.1 85.9 43.2 86.1 43.3 86.2C43.5 86.4 43.6 86.5 43.8 86.5C44 86.6 44.2 86.6 44.4 86.6H54.1C54.3 86.6 54.5 86.6 54.7 86.5C54.9 86.4 55.1 86.3 55.2 86.2C55.4 86 55.5 85.9 55.5 85.7C55.6 85.5 55.6 85.3 55.6 85.1V75.4C55.6 75.2 55.6 75 55.5 74.8C55.4 74.6 55.3 74.4 55.2 74.3C55 74.1 54.9 74 54.7 74C54.5 73.9 54.3 73.9 54.1 73.9ZM52.5 83.6H46V77.1H52.5V83.6ZM86.3 52.9C85.4 52.9 84.5 52.9 83.6 53C82.7 53.1 81.8 53.2 80.9 53.4C80 53.6 79.1 53.8 78.3 54.1C77.4 54.4 76.6 54.7 75.8 55C75 55.3 74.2 55.7 73.4 56.2C72.6 56.6 71.8 57.1 71.1 57.6C70.4 58.1 69.6 58.6 68.9 59.2C68.2 59.8 67.5 60.4 66.9 61C66.3 61.6 65.7 62.3 65.1 63C64.5 63.7 64 64.4 63.5 65.2C63 65.9 62.5 66.7 62.1 67.5C61.7 68.3 61.3 69.1 60.9 69.9C60.6 70.7 60.3 71.6 60 72.4C59.7 73.2 59.5 74.1 59.3 75C59.1 75.9 59 76.8 58.9 77.7C58.8 78.6 58.8 79.5 58.8 80.4C58.8 81.3 58.8 82.2 58.9 83.1C59 84 59.1 84.9 59.3 85.8C59.5 86.7 59.7 87.6 60 88.4C60.3 89.2 60.6 90.1 60.9 90.9C61.2 91.7 61.6 92.5 62.1 93.3C62.5 94.1 63 94.9 63.5 95.6C64 96.3 64.5 97.1 65.1 97.8C65.7 98.5 66.3 99.2 66.9 99.8C67.5 100.4 68.2 101 68.9 101.6C69.6 102.2 70.3 102.7 71.1 103.2C71.9 103.7 72.6 104.2 73.4 104.6C74.2 105 75 105.4 75.8 105.8C76.6 106.2 77.5 106.4 78.3 106.7C79.2 107 80 107.2 80.9 107.4C81.8 107.6 82.7 107.7 83.6 107.8C84.5 107.9 85.4 107.9 86.3 107.9C87.2 107.9 88.1 107.9 89 107.8C89.9 107.7 90.8 107.6 91.7 107.4C92.6 107.2 93.5 107 94.3 106.7C95.1 106.4 96 106.1 96.8 105.8C97.6 105.5 98.4 105.1 99.2 104.6C100 104.2 100.8 103.7 101.5 103.2C102.3 102.7 103 102.2 103.7 101.6C104.4 101 105.1 100.4 105.7 99.8C106.3 99.2 106.9 98.5 107.5 97.8C108.1 97.1 108.6 96.4 109.1 95.6C109.6 94.8 110.1 94.1 110.5 93.3C110.9 92.5 111.3 91.7 111.7 90.9C112 90.1 112.3 89.2 112.6 88.4C112.9 87.6 113.1 86.7 113.3 85.8C113.5 84.9 113.6 84 113.7 83.1C113.8 82.2 113.8 81.3 113.8 80.4C113.8 79.5 113.8 78.6 113.7 77.7C113.6 76.8 113.5 75.9 113.3 75C113.1 74.1 112.9 73.2 112.6 72.4C112.3 71.5 112 70.7 111.7 69.9C111.4 69.1 111 68.3 110.5 67.5C110.1 66.7 109.6 65.9 109.1 65.2C108.6 64.5 108.1 63.7 107.5 63C106.9 62.3 106.3 61.6 105.7 61C105.1 60.4 104.4 59.8 103.7 59.2C103 58.6 102.3 58.1 101.5 57.6C100.8 57.1 100 56.6 99.2 56.2C98.4 55.8 97.6 55.4 96.8 55C96 54.7 95.1 54.3 94.3 54.1C93.4 53.8 92.6 53.6 91.7 53.4C90.8 53.2 89.9 53.1 89 53C88.1 53 87.2 52.9 86.3 52.9ZM86.3 104.5C85.5 104.5 84.7 104.5 83.9 104.4C83.1 104.3 82.3 104.2 81.6 104.1C80.8 103.9 80.1 103.8 79.3 103.5C78.5 103.3 77.8 103 77.1 102.7C76.4 102.4 75.7 102.1 75 101.7C74.3 101.3 73.6 100.9 73 100.5C72.2 100 71.6 99.5 71 99C70.4 98.5 69.8 98 69.2 97.4C68.6 96.8 68.1 96.3 67.6 95.6C67.1 95 66.6 94.3 66.2 93.7C65.8 93 65.4 92.4 65 91.7C64.6 91 64.3 90.3 64 89.6C63.7 88.9 63.4 88.1 63.2 87.4C63 86.6 62.8 85.9 62.6 85.1C62.4 84.3 62.3 83.5 62.3 82.8C62.2 82 62.2 81.2 62.2 80.4C62.2 79.6 62.2 78.8 62.3 78C62.4 77.2 62.5 76.4 62.6 75.7C62.8 74.9 62.9 74.2 63.2 73.4C63.4 72.6 63.7 71.9 64 71.2C64.3 70.5 64.6 69.8 65 69.1C65.4 68.4 65.8 67.7 66.2 67.1C66.6 66.4 67.1 65.8 67.6 65.2C68.1 64.6 68.6 64 69.2 63.4C69.8 62.8 70.3 62.3 71 61.8C71.6 61.3 72.3 60.8 72.9 60.4C73.6 60 74.2 59.6 74.9 59.2C75.6 58.8 76.3 58.5 77 58.2C77.7 57.9 78.5 57.6 79.2 57.4C80 57.2 80.7 57 81.5 56.8C82.3 56.6 83.1 56.5 83.8 56.5C84.6 56.4 85.4 56.4 86.2 56.4C87 56.4 87.8 56.4 88.6 56.5C89.4 56.6 90.2 56.7 90.9 56.8C91.7 57 92.4 57.1 93.2 57.4C94 57.6 94.7 57.9 95.4 58.2C96.1 58.5 96.8 58.8 97.5 59.2C98.2 59.6 98.9 60 99.5 60.4C100.2 60.8 100.8 61.3 101.4 61.8C102 62.3 102.6 62.8 103.2 63.4C103.8 64 104.3 64.5 104.8 65.2C105.3 65.8 105.8 66.5 106.2 67.1C106.6 67.8 107 68.4 107.4 69.1C107.8 69.8 108.1 70.5 108.4 71.2C108.7 71.9 109 72.7 109.2 73.4C109.4 74.2 109.6 74.9 109.8 75.7C110 76.5 110.1 77.3 110.1 78C110.2 78.8 110.2 79.6 110.2 80.4C110.2 81.2 110.2 82 110.1 82.8C110 83.6 109.9 84.4 109.8 85.1C109.7 85.8 109.5 86.6 109.2 87.4C109 88.2 108.7 88.9 108.4 89.6C108.1 90.3 107.8 91 107.4 91.7C107 92.4 106.6 93.1 106.2 93.7C105.8 94.4 105.3 95 104.8 95.6C104.3 96.2 103.8 96.8 103.2 97.4C102.6 98 102.1 98.5 101.4 99C100.8 99.5 100.2 100 99.5 100.4C98.8 100.8 98.2 101.2 97.5 101.6C96.8 102 96.1 102.3 95.4 102.6C94.7 102.9 93.9 103.2 93.2 103.4C92.4 103.6 91.7 103.8 90.9 104C90.1 104.2 89.3 104.3 88.6 104.4C87.9 104.5 87.1 104.5 86.3 104.5ZM57.3 93.2H25.1C24.5 93.2 23.8 93.1 23.2 92.8C22.6 92.6 22.1 92.2 21.6 91.8C21.1 91.4 20.8 90.8 20.6 90.2C20.4 89.6 20.2 89 20.2 88.4V35.2H94.4V49.7C94.4 49.9 94.4 50.1 94.5 50.3C94.6 50.5 94.7 50.7 94.8 50.8C95 51 95.1 51.1 95.3 51.1C95.5 51.2 95.7 51.2 95.9 51.2C96.1 51.2 96.3 51.2 96.5 51.1C96.7 51 96.9 50.9 97 50.8C97.2 50.6 97.3 50.5 97.3 50.3C97.4 50.1 97.4 49.9 97.4 49.7V27.1C97.4 26.6 97.3 26 97.2 25.5C97.1 25 96.9 24.5 96.7 24C96.5 23.5 96.3 23 96 22.6C95.7 22.2 95.4 21.8 95 21.4C94.6 21 94.2 20.7 93.8 20.4C93.4 20.1 92.9 19.9 92.4 19.7C91.9 19.5 91.4 19.3 90.9 19.2C90.4 19.1 89.9 19 89.3 19H84.5V15.8C84.5 15.2 84.4 14.5 84.1 13.9C83.9 13.3 83.5 12.8 83.1 12.3C82.7 11.8 82.1 11.5 81.5 11.3C81.1 11.1 80.5 11 79.9 11C79.3 11 78.6 11.1 78 11.4C77.4 11.6 76.9 12 76.4 12.4C75.9 12.8 75.6 13.4 75.4 14C75.2 14.6 75 15.2 75 15.8V19H62.1V15.8C62.1 15.2 62 14.5 61.7 13.9C61.5 13.3 61.1 12.8 60.6 12.3C60.1 11.8 59.6 11.5 59 11.3C58.6 11.1 58 11 57.3 11C56.7 11 56 11.1 55.4 11.4C54.8 11.6 54.3 12 53.8 12.4C53.3 12.8 53 13.4 52.7 14C52.5 14.6 52.3 15.2 52.3 15.9V19.1H39.6V15.8C39.6 15.2 39.5 14.5 39.2 13.9C39 13.3 38.6 12.8 38.2 12.3C37.8 11.8 37.2 11.5 36.6 11.3C36 11.1 35.4 11 34.7 11C34 11 33.4 11.1 32.9 11.4C32.3 11.6 31.8 12 31.3 12.4C30.8 12.9 30.5 13.4 30.3 14C30.1 14.6 29.9 15.2 29.9 15.9V19.1H25.1C24.5 19.1 24 19.1 23.5 19.2C23 19.3 22.5 19.5 22 19.7C21.5 19.9 21 20.1 20.6 20.4C20.2 20.7 19.8 21 19.4 21.4C19 21.8 18.7 22.2 18.4 22.6C18.1 23 17.9 23.5 17.7 24C17.5 24.5 17.3 25 17.2 25.5C17.1 26 17 26.5 17 27.1V88.4C17 88.9 17.1 89.5 17.2 90C17.3 90.5 17.5 91 17.7 91.5C17.9 92 18.2 92.5 18.4 92.9C18.7 93.3 19 93.7 19.4 94.1C19.8 94.5 20.2 94.8 20.6 95.1C21 95.4 21.5 95.6 22 95.8C22.5 96 23 96.2 23.5 96.3C24 96.4 24.5 96.5 25.1 96.5H57.4C57.6 96.5 57.8 96.5 58 96.4C58.2 96.3 58.4 96.2 58.5 96.1C58.7 95.9 58.8 95.8 58.9 95.6C59 95.4 59 95.2 59 95C59 94.8 59 94.6 58.9 94.4C58.8 94.2 58.7 94 58.5 93.9C58.3 93.7 58.2 93.6 58 93.6C57.7 93.3 57.5 93.2 57.3 93.2ZM78.3 15.8C78.3 15.6 78.3 15.4 78.4 15.2C78.5 15 78.6 14.8 78.7 14.7C78.8 14.6 79 14.4 79.2 14.4C79.4 14.3 79.6 14.3 79.8 14.3C80 14.3 80.2 14.3 80.4 14.4C80.6 14.5 80.8 14.6 80.9 14.7C81.1 14.9 81.2 15 81.2 15.2C81.3 15.4 81.3 15.6 81.3 15.8V23.9C81.3 24.1 81.3 24.3 81.2 24.5C81.1 24.7 81 24.9 80.9 25C80.7 25.2 80.6 25.3 80.4 25.3C80.2 25.4 80 25.4 79.8 25.4C79.6 25.4 79.4 25.4 79.2 25.3C79 25.2 78.8 25.1 78.7 25C78.6 24.9 78.4 24.7 78.4 24.5C78.3 24.3 78.3 24.1 78.3 23.9V15.8ZM55.7 15.8C55.7 15.6 55.7 15.4 55.8 15.2C55.9 15 56 14.8 56.2 14.7C56.4 14.5 56.5 14.4 56.7 14.4C56.9 14.3 57.1 14.3 57.3 14.3C57.5 14.3 57.7 14.3 57.9 14.4C58.1 14.5 58.3 14.6 58.4 14.7C58.6 14.9 58.7 15 58.8 15.2C58.9 15.4 58.9 15.6 58.9 15.8V23.9C58.9 24.1 58.9 24.3 58.8 24.5C58.7 24.7 58.6 24.9 58.4 25C58.2 25.2 58.1 25.3 57.9 25.3C57.7 25.4 57.5 25.4 57.3 25.4C57.1 25.4 56.9 25.4 56.7 25.3C56.5 25.2 56.3 25.1 56.2 25C56 24.8 55.9 24.7 55.9 24.5C55.8 24.3 55.8 24.1 55.8 23.9V15.8H55.7ZM33.1 15.8C33.1 15.6 33.1 15.4 33.2 15.2C33.3 15 33.4 14.8 33.5 14.7C33.7 14.5 33.8 14.4 34 14.4C34.2 14.3 34.4 14.3 34.6 14.3C34.8 14.3 35 14.3 35.2 14.4C35.4 14.5 35.6 14.6 35.7 14.7C36 14.8 36.1 15 36.2 15.2C36.3 15.4 36.3 15.6 36.3 15.8V23.9C36.3 24.1 36.3 24.3 36.2 24.5C36.1 24.7 36 24.9 35.9 25C35.7 25.2 35.6 25.3 35.4 25.3C35.2 25.4 35 25.4 34.8 25.4C34.6 25.4 34.4 25.4 34.2 25.3C34 25.2 33.8 25.1 33.7 25C33.5 24.8 33.4 24.7 33.4 24.5C33.3 24.3 33.3 24.1 33.3 23.9V15.8H33.1ZM25.1 22.3H29.9V23.9C29.9 24.5 30 25.2 30.3 25.7C30.5 26.3 30.9 26.8 31.3 27.3C31.8 27.8 32.3 28.1 32.9 28.4C33.5 28.6 34.1 28.8 34.7 28.8C35.3 28.8 36 28.7 36.6 28.4C37.2 28.2 37.7 27.8 38.2 27.3C38.7 26.8 39 26.3 39.2 25.7C39.4 25.1 39.6 24.5 39.6 23.9V22.3H52.5V23.9C52.5 24.5 52.6 25.2 52.9 25.7C53.2 26.3 53.5 26.8 54 27.3C54.5 27.8 55 28.1 55.6 28.4C56.2 28.6 56.8 28.8 57.5 28.8C58.1 28.8 58.8 28.7 59.3 28.4C59.9 28.2 60.4 27.8 60.9 27.3C61.4 26.8 61.7 26.3 62 25.7C62.2 25.1 62.4 24.5 62.4 23.9V22.3H75V23.9C75 24.5 75.1 25.2 75.4 25.7C75.7 26.2 76 26.8 76.4 27.3C76.8 27.8 77.4 28.1 78 28.4C78.6 28.6 79.2 28.8 79.8 28.8C80.4 28.8 81.1 28.7 81.6 28.4C82.2 28.2 82.7 27.8 83.2 27.3C83.7 26.8 84 26.3 84.2 25.7C84.4 25.1 84.6 24.5 84.6 23.9V22.3H89.4C90 22.3 90.7 22.4 91.2 22.7C91.8 22.9 92.3 23.3 92.8 23.7C93.3 24.1 93.6 24.7 93.8 25.3C94.1 25.9 94.2 26.5 94.2 27.1V32H20.2V27.2C20.2 26.6 20.3 25.9 20.6 25.4C20.8 24.8 21.2 24.3 21.6 23.8C22 23.3 22.6 23 23.2 22.8C23.8 22.4 24.4 22.3 25.1 22.3ZM84.7 48.1V44.9H78.2V49.6C78.2 49.8 78.2 50 78.1 50.2C78 50.4 77.9 50.6 77.8 50.7C77.6 50.9 77.5 51 77.3 51C77.1 51 76.9 51.1 76.7 51.1C76.5 51.1 76.3 51.1 76.1 51C75.9 50.9 75.7 50.8 75.6 50.7C75.4 50.5 75.3 50.4 75.3 50.2C75.1 50 75 49.8 75 49.6V43.3C75 43.1 75 42.9 75.1 42.7C75.2 42.5 75.3 42.3 75.4 42.2C75.6 42 75.7 41.9 75.9 41.9C76.1 41.8 76.3 41.8 76.5 41.8H86.2C86.4 41.8 86.6 41.8 86.8 41.9C87 42 87.2 42.1 87.3 42.2C87.5 42.4 87.6 42.5 87.6 42.7C87.7 42.9 87.7 43.1 87.7 43.3V48.1C87.7 48.3 87.7 48.5 87.6 48.7C87.5 48.9 87.4 49.1 87.3 49.2C87.2 49.3 87 49.5 86.8 49.5C86.6 49.6 86.4 49.6 86.2 49.6C86 49.6 85.8 49.6 85.6 49.5C85.4 49.4 85.2 49.3 85.1 49.2C85 49.1 84.8 48.9 84.8 48.7C84.8 48.5 84.7 48.3 84.7 48.1ZM86.3 59.4C84.9 59.4 83.6 59.5 82.2 59.8C80.9 60.1 79.5 60.5 78.3 61C77 61.5 75.8 62.2 74.7 62.9C73.6 63.7 72.5 64.5 71.5 65.5C70.5 66.5 69.7 67.5 68.9 68.7C68.1 69.8 67.5 71 67 72.3C66.5 73.6 66.1 74.9 65.8 76.2C65.5 77.6 65.4 78.9 65.4 80.3C65.4 81.7 65.5 83 65.8 84.4C66.1 85.7 66.5 87.1 67 88.3C67.5 89.6 68.2 90.8 68.9 91.9C69.7 93 70.5 94.1 71.5 95.1C72.5 96.1 73.5 96.9 74.7 97.7C75.8 98.5 77.1 99.1 78.3 99.6C79.6 100.1 80.9 100.5 82.2 100.8C83.5 101.1 84.9 101.2 86.3 101.2C87.7 101.2 89 101.1 90.4 100.8C91.7 100.5 93.1 100.1 94.3 99.6C95.6 99.1 96.8 98.4 97.9 97.7C99 96.9 100.1 96.1 101.1 95.1C102.1 94.1 102.9 93.1 103.7 91.9C104.5 90.8 105.1 89.5 105.6 88.3C106.1 87 106.5 85.7 106.8 84.4C107.1 83.1 107.2 81.7 107.2 80.3C107.2 78.9 107.1 77.6 106.8 76.2C106.5 74.9 106.1 73.5 105.6 72.3C105.1 71 104.4 69.8 103.7 68.7C102.9 67.6 102.1 66.5 101.1 65.5C100.1 64.5 99.1 63.7 97.9 62.9C96.8 62.1 95.6 61.5 94.3 61C93 60.5 91.7 60.1 90.4 59.8C89.1 59.5 87.7 59.4 86.3 59.4ZM87.9 98V94.9C87.9 94.7 87.9 94.5 87.8 94.3C87.7 94.1 87.6 93.9 87.5 93.8C87.4 93.7 87.2 93.5 87 93.5C86.8 93.4 86.6 93.4 86.4 93.4C86.2 93.4 86 93.4 85.8 93.5C85.6 93.6 85.4 93.7 85.3 93.8C85.2 93.9 85 94.1 85 94.3C84.9 94.5 84.9 94.7 84.9 94.9V98C83.9 97.9 82.9 97.7 81.9 97.4C80.9 97.1 79.9 96.8 79 96.3C78.1 95.9 77.2 95.3 76.3 94.8C75.5 94.2 74.7 93.5 73.9 92.8C73.2 92.1 72.5 91.3 71.9 90.4C71.3 89.6 70.8 88.7 70.4 87.7C70 86.8 69.6 85.8 69.3 84.8C69 83.8 68.9 82.8 68.8 81.8H71.9C72.1 81.8 72.3 81.8 72.5 81.7C72.7 81.6 72.9 81.5 73 81.4C73.2 81.2 73.3 81.1 73.3 80.9C73.4 80.7 73.4 80.5 73.4 80.3C73.4 80.1 73.4 79.9 73.3 79.7C73.2 79.5 73.1 79.3 73 79.2C72.8 79 72.7 78.9 72.5 78.9C72.3 78.8 72.1 78.8 71.9 78.8H68.8C68.9 77.8 69.1 76.8 69.3 75.8C69.6 74.8 69.9 73.8 70.4 72.9C70.8 72 71.3 71.1 71.9 70.2C72.5 69.4 73.2 68.6 73.9 67.9C74.6 67.2 75.4 66.5 76.3 65.9C77.1 65.3 78 64.8 79 64.4C79.9 64 80.9 63.6 81.9 63.3C82.9 63 83.9 62.8 84.9 62.8V65.9C84.9 66.1 84.9 66.3 85 66.5C85.1 66.7 85.2 66.9 85.3 67C85.4 67.1 85.6 67.3 85.8 67.3C86 67.4 86.2 67.4 86.4 67.4C86.6 67.4 86.8 67.4 87 67.3C87.2 67.2 87.4 67.1 87.5 67C87.6 66.9 87.8 66.7 87.8 66.5C87.9 66.3 87.9 66.1 87.9 65.9V62.8C88.9 62.9 89.9 63.1 90.9 63.3C91.9 63.6 92.9 63.9 93.8 64.4C94.7 64.8 95.6 65.4 96.5 65.9C97.3 66.5 98.1 67.2 98.8 67.9C99.5 68.6 100.2 69.4 100.8 70.2C101.4 71 101.9 71.9 102.3 72.9C102.7 73.8 103.1 74.8 103.4 75.8C103.7 76.8 103.9 77.8 103.9 78.8H100.8C100.6 78.8 100.4 78.8 100.2 78.9C100 79 99.8 79.1 99.7 79.2C99.5 79.4 99.4 79.5 99.4 79.7C99.3 79.9 99.3 80.1 99.3 80.3C99.3 80.5 99.3 80.7 99.4 80.9C99.5 81.1 99.6 81.3 99.7 81.4C99.9 81.6 100 81.7 100.2 81.7C100.4 81.8 100.6 81.8 100.8 81.8H104C103.9 82.8 103.7 83.8 103.5 84.8C103.2 85.8 102.9 86.8 102.4 87.7C102 88.6 101.4 89.5 100.9 90.4C100.3 91.2 99.6 92 98.9 92.8C98.2 93.5 97.4 94.2 96.6 94.8C95.8 95.4 94.9 95.9 93.9 96.3C93 96.7 92 97.1 91 97.4C90 97.7 89 97.9 87.9 98ZM92.3 84C92.5 84.1 92.6 84.3 92.7 84.5C92.8 84.7 92.8 84.9 92.8 85.1C92.8 85.3 92.8 85.5 92.7 85.7C92.6 85.9 92.5 86.1 92.4 86.2C92.2 86.4 92.1 86.5 91.9 86.6C91.7 86.7 91.5 86.7 91.3 86.7C91.1 86.7 90.9 86.7 90.7 86.6C90.5 86.5 90.3 86.4 90.2 86.2L85.4 81.4C85.1 81.1 84.9 80.7 84.9 80.3V72.2C84.9 72 84.9 71.8 85 71.6C85.1 71.4 85.2 71.2 85.3 71.1C85.4 71 85.6 70.8 85.8 70.8C86 70.7 86.2 70.7 86.4 70.7C86.6 70.7 86.8 70.7 87 70.8C87.2 70.9 87.4 71 87.5 71.1C87.6 71.2 87.8 71.4 87.8 71.6C87.9 71.8 87.9 72 87.9 72.2V79.6L92.3 84Z" fill="#393939"/>
</svg>
