<svg width="130" height="120" viewBox="0 0 130 120" fill="none" xmlns="http://www.w3.org/2000/svg">
<g id="Frame">
<path id="Vector" d="M53.7999 14.1001C33.7999 14.1001 17.2 28.6001 17.2 46.9001C17.2 55.7001 21.1 63.6001 27.3 69.5001L27.1 70.5001C25.7 74.6001 22.3 76.9001 20.2 77.7001C19 78.1001 18 78.8001 17.5 79.9001C17 81.0001 17.3 82.6001 18.1 83.4001C20 85.2001 22.5 85.0001 24.3 85.0001C31.1 85.1001 39.1 81.5001 44 79.1001H44.1L45.7999 78.1001L45.2 77.9001H45.2999C48 78.5001 50.7999 78.7001 53.5999 78.7001C71.2 78.7001 86.2999 68.2001 89.6 53.1001C90 51.1001 90.3 49.0001 90.3 46.8001C90.2 28.6001 73.7999 14.1001 53.7999 14.1001ZM53.7999 18.3001C71.7999 18.3001 86 31.2001 86 46.9001C86 48.7001 85.8 50.5001 85.4 52.3001C82.6 65.2001 69.4 74.6001 53.4 74.6001C50.8 74.6001 48.2999 74.4001 46 73.9001L45.1 73.6001L42 75.4001C37.4 77.7001 29.4 80.9001 24.3 80.9001C23.6 80.9001 23.5 80.8001 23 80.7001C26 79.3001 29.4 76.6001 31 71.8001V71.7001L31.8 68.2001L31 67.3001C25 62.0001 21.4 54.8001 21.4 46.9001C21.4 31.1001 35.7999 18.3001 53.7999 18.3001ZM36 32.9001V37.0001H71.4V32.8001H36V32.9001ZM36 43.3001V47.5001H71.4V43.3001H36ZM93.9 52.0001C93.8 52.7001 93.7 53.3001 93.6 54.0001C93.4 54.7001 93.2 55.4001 93 56.1001C102.6 59.8001 108.9 67.3001 108.9 75.6001C108.9 81.6001 105.8 87.1001 100.2 91.3001L99.1 92.1001L99.5 93.5001C100.6 97.8001 104.6 100 107.3 101.5C103 102.1 93.6 101.1 88.9 95.5001L88 94.6001L86.8 94.8001C84.9 95.2001 82.7 95.4001 80.0999 95.4001C67.0999 95.4001 56.5999 90.4001 52.5 82.9001C50.7999 82.9001 49.2 82.8001 47.7 82.6001C51.6 92.8001 63.9999 99.6001 80.0999 99.6001C82.4999 99.6001 84.6 99.5001 86.5 99.2001C91.1 103.9 98.6 105.9 104.7 105.9C105.1 105.9 105.5 105.9 105.9 105.9C109.4 105.7 111.7 104.9 112.7 103.5C113.1 102.8 113.3 102.1 113.1 101.3C112.8 99.8001 111.4 99.1001 109.5 98.1001C107.6 97.1001 105.2 95.8001 104 93.8001C109.8 89.0001 113.1 82.5001 113.1 75.8001C113.1 65.4001 105.4 56.3001 93.9 52.0001ZM36 53.7001V57.9001H61V53.7001H36ZM88.1 66.2001C87.1 67.7001 85.9 69.1001 84.6 70.4001H94.3V66.2001H88.1ZM76.7999 76.6001C73.8999 78.3001 70.8 79.7001 67.4 80.8001H94.3V76.6001H76.7999Z" fill="#393939"/>
</g>
</svg>
