<svg width="22" height="22" viewBox="0 0 22 22" fill="none" xmlns="http://www.w3.org/2000/svg">
<g clip-path="url(#clip0_130_2993)">
<path d="M11 1C5.47406 1 1 5.47536 1 10.9999C1 12.6359 1.40457 14.2471 2.16611 15.6842L1.01904 20.2689C0.923846 20.6419 1.20942 20.9999 1.5902 20.9999C1.72822 20.9999 1.495 21.0347 6.31652 19.8363C7.75393 20.5971 9.36744 20.9999 11 20.9999C16.5259 20.9999 21 16.5245 21 10.9999C21 5.47039 16.5259 1 11 1Z" fill="#00D757"/>
<path d="M11 0C4.92147 0 0 4.9229 0 10.9999C0 12.7995 0.445026 14.5718 1.28272 16.1526L0.0209424 21.1958C-0.0837696 21.6061 0.230366 21.9999 0.649215 21.9999C0.801047 21.9999 0.544503 22.0382 5.84817 20.7199C7.42932 21.5568 9.20419 21.9999 11 21.9999C17.0785 21.9999 22 17.077 22 10.9999C22 4.91743 17.0785 0 11 0ZM11 20.7035C9.33508 20.7035 7.69634 20.2769 6.25131 19.4673C6.15707 19.4126 6.04712 19.3853 5.93717 19.3853C5.79058 19.3853 5.98953 19.3579 1.53927 20.4628L2.59686 16.2237C2.63874 16.0596 2.6178 15.89 2.53403 15.7478C1.72251 14.3038 1.29319 12.6628 1.29319 10.9999C1.29319 5.65039 5.64922 1.29089 11 1.29089C16.3508 1.29089 20.7068 5.65039 20.7068 10.9999C20.7068 16.3495 16.3508 20.7035 11 20.7035Z" fill="white"/>
<path d="M16.8526 13.8101C16.9419 14.0424 16.9911 14.2926 17 14.5562C17 14.583 17 14.6054 17 14.6322C17 15.9412 15.9412 17 14.6366 17C9.31571 17 5 12.6843 5 7.36337C5 6.05882 6.05882 5 7.36783 5C7.39464 5 7.41698 5 7.44378 5C7.70737 5.00893 7.95756 5.05808 8.19434 5.14743L9.07893 8.99404C9.07893 8.99404 9.07893 8.99404 9.07893 8.99851L7.44825 9.72673L7.44378 9.7312C8.18987 12.0052 9.99032 13.8101 12.2688 14.5562V14.5518L13.006 12.9211L16.8526 13.8101Z" fill="white"/>
</g>
<defs>
<clipPath id="clip0_130_2993">
<rect width="22" height="22" fill="white"/>
</clipPath>
</defs>
</svg>
