<svg width="273" height="304" viewBox="0 0 273 304" fill="none" xmlns="http://www.w3.org/2000/svg">
<path d="M178.501 93.9088C178.501 93.9088 178 96.7152 175.495 98.3188C172.989 100.023 172.889 102.328 173.29 103.029C173.29 103.029 167.176 98.9201 171.285 95.1116C175.394 91.303 178.501 93.9088 178.501 93.9088Z" fill="#F68426"/>
<path d="M196.642 79.6768C197.945 79.3761 198.947 78.5743 199.248 77.2714C199.749 75.5676 198.646 73.7635 196.842 73.0619C197.544 72.661 198.145 71.9595 198.346 71.1577C198.747 69.5541 197.845 67.8502 196.241 67.1487C196.542 65.9459 196.141 64.643 195.239 63.8412C195.74 63.4403 196.041 62.9392 196.241 62.2376C196.742 60.4336 195.539 58.5293 193.535 57.9279C191.53 57.4268 189.526 58.4291 189.025 60.2331C188.724 61.4358 189.125 62.7387 190.027 63.5405C189.526 63.9414 189.225 64.4426 189.025 65.1441C188.624 66.7478 189.526 68.4516 191.129 69.1532V69.2534C190.628 70.9572 191.731 72.7613 193.635 73.4628C192.934 73.8637 192.332 74.5653 192.132 75.3671C191.831 76.2691 192.032 77.1712 192.533 77.973C191.23 78.2737 190.227 79.0755 189.827 80.3784C189.626 81.1802 189.726 81.8818 190.027 82.5833C188.524 82.6836 187.221 83.5856 186.82 84.9887C186.619 85.6903 186.72 86.3919 187.02 87.0935C185.116 86.7928 183.312 87.7951 182.811 89.4989V89.5991C182.51 89.3987 182.209 89.2984 181.809 89.1982C179.804 88.6971 177.8 89.6993 177.298 91.5034C176.797 93.3074 178 95.2117 180.005 95.8131C182.009 96.3142 184.014 95.3119 184.515 93.5079V93.4077C184.815 93.6081 185.116 93.7083 185.517 93.8086C187.521 94.3097 189.526 93.3074 190.027 91.5034C190.227 90.8018 190.127 90.1002 189.827 89.3987C191.731 89.6993 193.535 88.6971 194.036 86.9933C194.236 86.1915 194.136 85.4899 193.836 84.7883C195.339 84.6881 196.642 83.786 197.043 82.3829C197.243 81.3806 197.143 80.4786 196.642 79.6768Z" fill="#F68426"/>
<path d="M179.303 96.6149C178.802 96.9156 178.2 96.8154 177.9 96.4145L175.594 92.7061C175.294 92.3052 175.494 91.7039 176.096 91.4032C176.697 91.1025 177.198 91.2028 177.499 91.6037L179.804 95.312C180.004 95.7129 179.804 96.3143 179.303 96.6149Z" fill="#3B8027"/>
<path d="M253.871 93.9088C253.871 93.9088 254.372 96.7152 256.877 98.3188C259.383 100.023 259.483 102.328 259.082 103.029C259.082 103.029 265.196 98.9201 261.087 95.1116C256.978 91.303 253.871 93.9088 253.871 93.9088Z" fill="#F68426"/>
<path d="M235.73 79.6768C234.427 79.3761 233.425 78.5743 233.024 77.2714C232.523 75.5676 233.625 73.7635 235.429 73.0619C234.728 72.661 234.126 71.9595 233.926 71.1577C233.525 69.5541 234.427 67.8502 236.03 67.1487C235.73 65.9459 236.131 64.643 237.033 63.8412C236.532 63.4403 236.231 62.9392 236.03 62.2376C235.529 60.4336 236.732 58.5293 238.737 57.9279C240.741 57.4268 242.746 58.4291 243.247 60.2331C243.547 61.4358 243.146 62.7387 242.244 63.5405C242.746 63.9414 243.046 64.4426 243.247 65.1441C243.648 66.7478 242.746 68.4516 241.142 69.1532V69.2534C241.643 70.9572 240.541 72.7613 238.636 73.4628C239.338 73.8637 239.939 74.5653 240.14 75.3671C240.44 76.2691 240.24 77.1712 239.739 77.973C241.042 78.2737 242.044 79.0755 242.445 80.3784C242.645 81.1802 242.545 81.8818 242.244 82.5833C243.748 82.6836 245.051 83.5856 245.452 84.9887C245.652 85.6903 245.552 86.3919 245.251 87.0935C247.155 86.7928 248.96 87.7951 249.461 89.4989V89.5991C249.761 89.3987 250.062 89.2984 250.463 89.1982C252.467 88.6971 254.472 89.6993 254.973 91.5034C255.474 93.3074 254.271 95.2117 252.267 95.8131C250.262 96.3142 248.258 95.3119 247.757 93.5079V93.4077C247.456 93.6081 247.155 93.7083 246.755 93.8086C244.75 94.3097 242.746 93.3074 242.244 91.5034C242.044 90.8018 242.144 90.1002 242.445 89.3987C240.541 89.6993 238.737 88.6971 238.235 86.9933C238.035 86.1915 238.135 85.4899 238.436 84.7883C236.933 84.6881 235.63 83.786 235.229 82.3829C235.128 81.3806 235.229 80.4786 235.73 79.6768Z" fill="#F68426"/>
<path d="M253.069 96.6149C253.57 96.9156 254.171 96.8154 254.472 96.4145L256.777 92.7061C257.078 92.3052 256.777 91.7039 256.276 91.4032C255.775 91.1025 255.173 91.2028 254.873 91.6037L252.568 95.312C252.367 95.7129 252.568 96.3143 253.069 96.6149Z" fill="#3B8027"/>
<path d="M237.634 180.604C237.634 180.604 241.142 173.888 242.345 171.583C242.846 170.581 244.149 168.176 242.345 167.274C242.445 167.073 242.545 166.873 242.746 166.572C253.971 145.024 255.875 126.582 253.47 115.457C250.864 103.129 245.351 95.9132 245.151 95.6126C245.051 95.5123 244.95 95.4121 244.95 95.3119C243.247 93.4076 240.24 93.0067 238.135 94.6103C235.93 96.3141 235.529 99.4211 237.133 101.626C237.233 101.726 241.643 107.74 243.748 118.063C246.554 131.894 244.65 148.531 236.832 163.465C236.632 163.866 236.431 164.267 236.331 164.568C236.331 164.568 234.627 164.267 233.825 165.67C233.825 165.67 231.42 164.768 230.017 167.173C228.614 169.879 226.91 172.686 226.91 172.686C226.91 172.686 228.714 173.187 229.115 172.185L227.511 175.392C227.11 176.093 227.411 176.895 228.113 177.296C228.814 177.697 229.616 177.396 230.017 176.695C229.616 177.396 229.917 178.198 230.618 178.599C231.32 179 232.122 178.699 232.523 177.998C232.122 178.699 232.422 179.501 233.124 179.902C233.825 180.203 234.627 180.002 235.028 179.301C234.627 180.002 234.928 180.804 235.63 181.205C236.431 181.606 237.233 181.305 237.634 180.604Z" fill="#F8A185"/>
<path d="M241.543 121.571C239.739 107.038 234.327 98.0181 234.126 97.9179C232.021 94.7107 233.024 90.401 236.231 88.2963C239.338 86.2918 243.447 87.0936 245.652 90.0001C245.752 90.1003 245.852 90.3008 245.953 90.401C246.253 90.8019 253.069 101.526 255.374 119.065C255.374 119.266 255.374 119.466 255.474 119.667L241.543 121.571Z" fill="#B6B5B5"/>
<path d="M227.211 176.094C227.01 176.595 227.211 177.196 227.812 177.497C228.413 177.797 229.115 177.697 229.315 177.196L231.52 172.987C231.721 172.485 231.52 171.884 230.919 171.583C230.318 171.283 229.616 171.383 229.416 171.884L227.211 176.094Z" fill="#F8A185"/>
<path d="M229.816 177.397C229.516 177.898 229.816 178.499 230.418 178.8C231.019 179.1 231.721 179 231.921 178.499L234.126 174.29C234.327 173.788 234.126 173.187 233.525 172.886C232.923 172.586 232.222 172.686 232.021 173.187L229.816 177.397Z" fill="#F8A185"/>
<path d="M232.422 178.499C232.222 179 232.422 179.601 233.024 179.902C233.625 180.203 234.327 180.103 234.527 179.601L236.732 175.392C236.932 174.891 236.732 174.29 236.131 173.989C235.529 173.688 234.828 173.788 234.627 174.289L232.422 178.499Z" fill="#F8A185"/>
<path d="M234.928 180.002C234.627 180.503 234.928 181.105 235.529 181.405C236.13 181.706 236.832 181.606 237.033 181.105L239.237 176.895C239.438 176.394 239.237 175.793 238.636 175.492C238.035 175.191 237.333 175.292 237.133 175.793L234.928 180.002Z" fill="#F8A185"/>
<path d="M240.941 123.676C241.042 124.478 241.543 124.979 242.044 124.979L255.775 123.375C256.276 123.275 256.677 122.673 256.577 121.872L256.276 118.965C256.176 118.163 255.674 117.662 255.173 117.662L241.442 119.266C240.941 119.366 240.54 119.967 240.641 120.769L240.941 123.676Z" fill="#605E5E"/>
<path d="M141.618 26.6578C141.618 26.6578 143.021 34.1747 143.522 36.6803C143.723 37.7828 144.224 40.4889 146.228 40.088C146.228 40.2884 146.329 40.5891 146.329 40.8898C150.939 64.6431 160.962 80.2783 169.781 87.5947C179.503 95.6127 188.323 97.9179 188.724 98.0181C188.824 98.0181 188.924 98.1184 189.025 98.1184C191.631 98.6195 194.136 97.0159 194.737 94.41C195.439 91.7039 193.835 88.9979 191.129 88.3965C190.929 88.3965 183.713 86.392 175.695 79.5767C164.87 70.4562 156.051 56.2242 152.843 39.6871C152.743 39.2862 152.643 38.8853 152.543 38.4844C152.543 38.4844 154.046 37.5823 153.846 35.9787C153.846 35.9787 156.351 35.1769 155.85 32.4708C155.349 29.4641 154.848 26.2569 154.848 26.2569C154.848 26.2569 153.144 26.9585 153.344 28.0609L152.643 24.5531C152.442 23.7512 151.741 23.2501 150.939 23.4506C150.137 23.651 149.636 24.3526 149.837 25.1544C149.636 24.3526 148.935 23.8515 148.133 24.0519C147.331 24.2524 146.83 24.954 147.03 25.7558C146.83 24.954 146.128 24.4528 145.326 24.6533C144.525 24.8537 144.024 25.5553 144.224 26.3571C144.024 25.5553 143.322 25.0542 142.52 25.2546C142.019 25.1544 141.518 25.9562 141.618 26.6578Z" fill="#F8A185"/>
<path d="M175.294 75.4674C185.717 85.7906 195.64 89.3987 195.84 89.4989C199.448 90.8019 201.453 94.7106 200.15 98.3188C198.947 101.827 195.239 103.731 191.731 102.829C191.53 102.829 191.43 102.729 191.23 102.729C190.729 102.528 178.702 98.419 165.973 85.9911C165.873 85.8908 165.672 85.6904 165.572 85.5902L175.294 75.4674Z" fill="#B6B5B5"/>
<path d="M152.643 23.8514C152.543 23.3503 151.941 23.0496 151.24 23.1498C150.538 23.25 150.137 23.8514 150.238 24.3525L151.14 28.9629C151.24 29.464 151.841 29.7647 152.543 29.6645C153.244 29.5642 153.645 29.0631 153.545 28.4618L152.643 23.8514Z" fill="#F8A185"/>
<path d="M149.837 24.4527C149.736 23.9516 149.135 23.6509 148.434 23.7511C147.732 23.8514 147.331 24.4527 147.431 24.9538L148.333 29.5642C148.434 30.0653 149.035 30.366 149.736 30.2658C150.438 30.1656 150.839 29.5642 150.739 29.0631L149.837 24.4527Z" fill="#F8A185"/>
<path d="M147.03 25.2546C146.93 24.7535 146.329 24.4528 145.627 24.553C144.926 24.6532 144.525 25.2546 144.625 25.7557L145.527 30.3661C145.627 30.8672 146.228 31.1679 146.93 31.0677C147.632 30.9674 148.033 30.3661 147.932 29.865L147.03 25.2546Z" fill="#F8A185"/>
<path d="M144.124 25.5553C144.024 25.0541 143.422 24.7535 142.721 24.8537C142.019 24.9539 141.618 25.5553 141.718 26.0564L142.62 30.6667C142.721 31.1679 143.322 31.4685 144.024 31.3683C144.725 31.2681 145.126 30.767 145.026 30.1656L144.124 25.5553Z" fill="#F8A185"/>
<path d="M174.492 73.4629C173.991 72.9618 173.189 72.7613 172.788 73.1622L162.966 82.8841C162.565 83.285 162.665 83.9866 163.267 84.5879L165.372 86.6926C165.873 87.1938 166.674 87.3942 167.075 86.9933L176.897 77.2715C177.298 76.8706 177.198 76.169 176.597 75.5676L174.492 73.4629Z" fill="#605E5E"/>
<path d="M213.379 287.945H201.653L194.136 191.929H213.48V287.945" fill="#F8A185"/>
<mask id="mask0_1196_2305" style="mask-type:luminance" maskUnits="userSpaceOnUse" x="188" y="285" width="29" height="19">
<path d="M216.286 285.94H188.223V303.981H216.286V285.94Z" fill="white"/>
</mask>
<g mask="url(#mask0_1196_2305)">
<path d="M189.827 303.881C194.337 303.881 208.97 303.881 208.97 303.881L211.375 296.765V303.881H215.284C215.284 302.377 215.284 296.063 215.284 289.548C215.284 288.246 215.083 286.943 213.781 286.943H201.152C201.152 286.943 200.551 292.655 196.842 295.863C193.134 299.17 191.43 299.571 189.326 300.273C188.424 300.674 187.822 303.881 189.827 303.881Z" fill="#772B17"/>
</g>
<path d="M220.395 287.945H232.122L239.639 191.929H220.295V287.945" fill="#F8A185"/>
<mask id="mask1_1196_2305" style="mask-type:luminance" maskUnits="userSpaceOnUse" x="217" y="285" width="29" height="19">
<path d="M245.752 285.94H217.689V303.981H245.752V285.94Z" fill="white"/>
</mask>
<g mask="url(#mask1_1196_2305)">
<path d="M243.948 303.881C239.438 303.881 224.805 303.881 224.805 303.881L222.4 296.765V303.881H218.491C218.491 302.377 218.491 296.063 218.491 289.548C218.491 288.246 218.691 286.943 219.994 286.943H232.522C232.522 286.943 233.124 292.655 236.832 295.863C240.541 299.17 242.244 299.571 244.349 300.273C245.351 300.674 245.852 303.881 243.948 303.881Z" fill="#772B17"/>
</g>
<mask id="mask2_1196_2305" style="mask-type:luminance" maskUnits="userSpaceOnUse" x="160" y="189" width="113" height="23">
<path d="M272.412 189.724H160.16V211.072H272.412V189.724Z" fill="white"/>
</mask>
<g mask="url(#mask2_1196_2305)">
<path d="M268.103 190.927C266.8 191.528 266.299 192.631 266.299 193.934C265.296 193.032 263.893 192.731 262.59 193.232H262.49C261.187 193.733 260.385 195.036 260.285 196.339C259.383 195.437 257.98 195.036 256.677 195.437H256.577C255.274 195.938 254.372 197.141 254.271 198.444C253.369 197.442 251.966 197.041 250.663 197.442H250.563C249.26 197.842 248.358 199.045 248.158 200.348C247.256 199.346 245.853 198.845 244.55 199.246C243.147 199.646 242.244 200.749 242.044 202.052C241.242 201.05 239.939 200.448 238.536 200.749H238.336C237.033 201.05 236.031 202.152 235.73 203.355C235.028 202.353 233.725 201.751 232.322 201.952H232.122C230.719 202.152 229.716 203.154 229.315 204.457C228.614 203.355 227.411 202.653 226.008 202.854H225.808C224.404 203.054 223.302 203.956 222.901 205.159C222.3 203.956 221.097 203.255 219.694 203.255H219.594C218.19 203.255 217.088 204.157 216.487 205.259C215.985 204.056 214.783 203.154 213.38 203.154C211.976 203.054 210.774 203.856 210.072 204.958C209.671 203.756 208.569 202.753 207.166 202.653H207.065C205.662 202.453 204.359 203.154 203.658 204.257C203.357 202.954 202.255 201.952 200.851 201.751H200.751C199.348 201.551 198.045 202.152 197.243 203.255C196.943 201.952 195.94 200.849 194.537 200.549C193.134 200.248 191.731 200.749 190.929 201.851C190.729 200.549 189.726 199.446 188.424 199.045H188.323C186.92 198.644 185.517 199.145 184.715 200.148C184.515 198.845 183.713 197.742 182.41 197.241H182.21C180.907 196.84 179.503 197.241 178.601 198.243C178.501 196.94 177.599 195.738 176.296 195.337L176.096 195.237C174.793 194.836 173.39 195.136 172.488 196.038C172.387 194.735 171.586 193.533 170.283 193.032C168.98 192.53 167.476 192.831 166.574 193.733C166.574 192.43 166.073 191.328 164.77 190.726L160.461 196.038L160.561 196.139C161.062 196.339 162.565 197.241 163.067 197.241C163.969 197.241 164.871 196.94 165.472 196.239C165.472 197.642 166.274 198.945 167.677 199.446L167.777 199.546C169.08 200.047 170.583 199.646 171.485 198.744C171.586 200.148 172.488 201.35 173.891 201.851C175.294 202.353 176.797 201.952 177.699 200.949C177.8 202.353 178.802 203.555 180.105 203.956C181.508 204.457 183.011 203.956 183.913 202.854C184.114 204.257 185.016 205.359 186.519 205.76H186.619C188.023 206.161 189.526 205.56 190.328 204.457C190.528 205.76 191.531 206.963 192.934 207.264H193.134C194.537 207.564 195.94 206.963 196.742 205.86C197.043 207.163 198.145 208.366 199.549 208.567H199.649C201.052 208.867 202.455 208.166 203.257 206.963C203.658 208.266 204.76 209.368 206.264 209.469H206.364C207.867 209.669 209.17 208.867 209.872 207.664C210.273 208.967 211.475 209.97 212.979 210.07H213.179C214.582 210.07 215.885 209.268 216.487 208.065C216.988 209.368 218.291 210.17 219.694 210.17H219.794H219.894C221.398 210.17 222.6 209.168 223.101 207.865C223.703 209.068 225.106 209.869 226.609 209.669C228.113 209.569 229.315 208.466 229.716 207.163C230.418 208.366 231.821 209.068 233.324 208.767C234.828 208.567 235.93 207.464 236.231 206.061C237.033 207.163 238.436 207.765 239.839 207.464C241.342 207.163 242.345 205.961 242.645 204.558C243.447 205.66 244.951 206.161 246.354 205.76H246.454C247.857 205.359 248.759 204.157 248.96 202.854C249.862 203.956 251.365 204.357 252.768 203.956C254.171 203.555 255.073 202.252 255.274 200.849C256.176 201.851 257.679 202.252 259.082 201.751C260.485 201.25 261.387 199.947 261.488 198.544C262.49 199.546 263.993 199.847 265.296 199.346H265.396C266.8 198.744 267.601 197.542 267.601 196.139C268.303 196.74 270.608 197.041 272.412 196.038H272.512L268.103 190.927Z" fill="#605E5E"/>
</g>
<path d="M221.498 83.786H211.676L191.23 87.3941C191.23 87.3941 198.947 117.462 200.551 127.584C201.653 134.5 199.248 147.83 199.248 147.83H233.425C231.119 139.511 230.518 136.104 232.122 127.785C234.026 117.462 241.543 87.3941 241.543 87.3941L221.498 83.786Z" fill="#3B8027"/>
<path d="M221.999 117.361L216.286 110.947L210.673 117.361L213.48 147.73H219.393L221.999 117.361Z" fill="white"/>
<path d="M221.698 114.756C220.295 115.558 218.291 116.159 216.386 116.86C214.482 117.462 212.578 118.163 211.275 119.065C211.175 119.166 211.074 119.266 211.074 119.466C211.074 119.567 211.175 119.767 211.275 119.767C212.778 120.569 214.582 121.07 216.386 121.671C218.19 122.172 219.894 122.674 220.997 123.375L221.197 122.974L220.997 122.674C219.694 123.475 218.09 124.077 216.487 124.678C214.883 125.279 213.279 125.881 212.077 126.783C211.976 126.883 211.876 126.983 211.876 127.184C211.876 127.284 211.976 127.484 212.077 127.484C213.38 128.186 214.983 128.587 216.487 129.088C217.99 129.589 219.393 129.99 220.395 130.591L220.596 130.19L220.395 129.79C218.09 131.293 214.883 132.095 212.678 133.598C212.578 133.698 212.478 133.799 212.478 133.999C212.478 134.099 212.578 134.3 212.678 134.3C215.083 135.603 217.689 136.204 219.694 137.507L219.894 137.106L219.694 136.705C217.489 138.108 215.284 138.81 213.179 140.313C213.079 140.413 212.979 140.514 212.979 140.714C212.979 140.814 213.079 141.015 213.179 141.015C215.484 142.318 217.188 143.019 219.092 144.422L219.293 144.122L219.092 143.821C216.888 145.224 215.585 145.926 213.58 147.429C213.38 147.529 213.38 147.83 213.48 148.031C213.58 148.231 213.881 148.231 214.081 148.131C215.985 146.627 217.288 145.926 219.493 144.523C219.594 144.422 219.694 144.322 219.694 144.222C219.694 144.122 219.594 143.921 219.493 143.921C217.489 142.418 215.685 141.716 213.48 140.413L213.279 140.814L213.48 141.115C215.484 139.712 217.589 139.01 219.995 137.507C220.095 137.407 220.195 137.306 220.195 137.106C220.195 137.006 220.095 136.805 219.995 136.705C217.89 135.302 215.184 134.701 212.879 133.498L212.678 133.899L212.879 134.199C214.883 132.796 217.99 131.994 220.496 130.391C220.596 130.291 220.696 130.19 220.696 129.99C220.696 129.89 220.596 129.689 220.496 129.589C219.293 128.888 217.89 128.487 216.386 127.985C214.883 127.484 213.38 127.083 212.177 126.382L211.976 126.783L212.177 127.083C213.279 126.282 214.783 125.68 216.386 125.079C217.99 124.478 219.694 123.876 221.097 122.974C221.197 122.874 221.297 122.774 221.297 122.573C221.297 122.373 221.197 122.273 221.097 122.172C219.794 121.471 218.09 120.97 216.286 120.469C214.482 119.967 212.678 119.366 211.275 118.665L211.074 119.065L211.275 119.366C212.377 118.564 214.282 117.863 216.186 117.261C218.09 116.66 220.095 115.958 221.598 115.157C221.799 115.056 221.899 114.756 221.799 114.555C222.199 114.756 221.899 114.656 221.698 114.756Z" fill="#605E5E"/>
<path d="M210.774 115.558C212.377 116.46 214.382 117.061 216.386 117.662C218.391 118.264 220.195 118.765 221.397 119.466L221.598 119.065L221.397 118.665C220.095 119.466 218.29 120.068 216.486 120.669C214.682 121.27 212.979 121.972 211.676 122.774C211.575 122.874 211.475 122.974 211.475 123.175C211.475 123.275 211.575 123.475 211.676 123.475C213.079 124.177 214.783 124.678 216.386 125.179C217.99 125.68 219.593 126.181 220.696 126.783L220.896 126.382L220.696 125.981C219.493 126.783 217.99 127.384 216.486 127.885C214.983 128.487 213.58 129.088 212.377 129.89C212.277 129.99 212.177 130.09 212.177 130.291C212.177 130.391 212.277 130.591 212.377 130.591C214.883 131.894 217.99 132.496 219.994 133.698L220.195 133.297L219.994 132.897C217.689 134.4 215.083 135.102 212.878 136.605C212.778 136.705 212.678 136.805 212.678 137.006C212.678 137.106 212.778 137.306 212.878 137.306C215.183 138.609 217.388 139.311 219.293 140.614L219.493 140.313C217.288 141.716 215.584 142.418 213.48 143.921C213.379 144.022 213.279 144.122 213.279 144.322C213.279 144.422 213.379 144.623 213.48 144.623C215.685 146.026 216.988 146.728 218.892 148.231C219.092 148.331 219.293 148.331 219.493 148.131C219.593 147.93 219.593 147.73 219.393 147.529C217.388 146.026 216.086 145.324 213.881 143.921L213.68 144.222L213.881 144.523C215.785 143.12 217.589 142.418 219.894 141.015C219.994 140.915 220.095 140.814 220.095 140.714C220.095 140.614 219.994 140.413 219.894 140.413C217.789 139.01 215.584 138.309 213.379 137.106L213.179 137.507L213.379 137.808C215.384 136.404 217.99 135.703 220.495 134.099C220.596 133.999 220.696 133.899 220.696 133.698C220.696 133.598 220.596 133.398 220.495 133.297C218.29 131.995 215.183 131.393 212.778 130.09L212.578 130.491L212.778 130.792C213.78 130.09 215.183 129.489 216.687 128.888C218.19 128.286 219.694 127.685 220.997 126.883C221.097 126.783 221.197 126.683 221.197 126.482C221.197 126.382 221.097 126.181 220.997 126.081C219.794 125.38 218.19 124.879 216.587 124.377C214.983 123.876 213.279 123.375 211.976 122.674L211.776 123.074L211.976 123.375C213.079 122.573 214.783 121.972 216.587 121.371C218.391 120.769 220.195 120.068 221.698 119.266C221.798 119.166 221.899 119.065 221.899 118.865C221.899 118.765 221.798 118.564 221.698 118.464C220.395 117.662 218.491 117.161 216.486 116.56C214.482 115.958 212.578 115.357 211.074 114.555C210.874 114.455 210.573 114.455 210.473 114.656C210.573 115.157 210.573 115.457 210.774 115.558Z" fill="#605E5E"/>
<path d="M191.129 87.4943C191.129 87.4943 194.236 97.3164 192.031 104.633C190.729 109.043 193.535 119.867 203.357 119.867C207.767 119.867 213.079 118.063 216.587 112.15C220.094 117.963 224.805 119.867 229.215 119.867C239.037 119.867 241.843 109.043 240.54 104.633C238.436 97.3164 241.442 87.4943 241.442 87.4943L221.999 83.9865L221.397 83.8862H211.575L191.129 87.4943Z" fill="#3B8027"/>
<path d="M232.623 85.8907L221.498 83.786H211.776L200.651 85.8907L198.346 100.624C198.346 100.624 207.667 101.927 216.787 101.927C228.213 101.927 234.928 100.624 234.928 100.624L232.623 85.8907Z" fill="white"/>
<path d="M229.315 85.3897L222.701 83.9865C222.701 83.8863 221.498 76.2692 221.498 76.2692H211.776C211.776 76.2692 210.473 83.8863 210.473 83.9865L203.858 85.3897L202.054 97.0158C202.054 97.0158 209.471 98.018 216.687 98.018C225.707 98.018 231.12 97.0158 231.12 97.0158L229.315 85.3897Z" fill="#F8A185"/>
<path d="M191.43 44.6982C185.116 44.6982 185.116 48.3064 185.717 51.8142C186.319 55.4223 188.624 57.8278 190.829 57.3266H190.929L191.43 44.6982Z" fill="#F8A185"/>
<path d="M241.743 44.8987C248.158 44.8987 248.057 48.5068 247.456 52.0147C246.855 55.6228 244.549 58.0282 242.345 57.5271H242.244L241.743 44.8987Z" fill="#F8A185"/>
<path d="M244.75 46.9032C244.75 64.0417 232.122 77.8728 216.587 77.8728C201.052 77.8728 188.423 64.0417 188.423 46.9032C188.423 29.7647 201.052 15.9336 216.587 15.9336C232.122 15.9336 244.75 29.7647 244.75 46.9032Z" fill="#F8A185"/>
<path d="M204.86 52.5157C204.86 54.8209 203.658 56.7252 202.255 56.7252C200.751 56.7252 199.649 54.8209 199.649 52.5157C199.649 50.2106 200.851 48.3063 202.255 48.3063C203.658 48.3063 204.86 50.2106 204.86 52.5157Z" fill="#2E0E0E"/>
<path d="M235.329 52.5157C235.329 54.8209 234.126 56.7252 232.723 56.7252C231.32 56.7252 230.117 54.8209 230.117 52.5157C230.117 50.2106 231.32 48.3063 232.723 48.3063C234.126 48.3063 235.329 50.2106 235.329 52.5157Z" fill="#2E0E0E"/>
<path d="M209.771 66.848C210.774 70.4561 212.979 72.9618 216.787 72.9618C220.496 72.9618 223.101 70.4561 224.204 66.848H209.771Z" fill="#DEDDDE"/>
<path d="M188.524 48.2062C188.524 12.8267 216.887 13.5282 216.887 13.5282C250.363 13.5282 245.351 49.2084 245.351 49.2084L244.449 53.4179C244.449 53.4179 241.342 54.9213 241.342 50.0102C241.242 46.3019 242.144 41.1904 238.536 35.1769C238.536 35.1769 230.718 36.4798 217.489 32.3706C217.489 32.3706 203.157 36.9809 197.544 34.8762C197.544 34.8762 191.23 38.6848 191.731 47.8053C191.931 52.6161 188.925 53.017 188.925 53.017L188.524 48.2062Z" fill="#F68426"/>
<path d="M215.284 54.3199C213.881 54.6205 213.279 59.5316 217.288 61.5361C219.994 62.839 221.698 61.1352 221.397 59.732C221.197 58.5293 219.994 59.4313 218.591 57.928C217.088 56.4246 218.19 53.6183 215.284 54.3199Z" fill="#F57C7C"/>
<path d="M191.13 57.4269C191.13 58.3289 190.328 59.1307 189.426 59.1307C188.524 59.1307 187.722 58.3289 187.722 57.4269C187.722 56.5248 188.524 55.723 189.426 55.723C190.328 55.723 191.13 56.5248 191.13 57.4269Z" fill="#3B8027"/>
<path d="M245.652 58.3288C245.652 59.2309 244.85 60.0327 243.948 60.0327C243.046 60.0327 242.244 59.2309 242.244 58.3288C242.244 57.4268 243.046 56.625 243.948 56.625C244.85 56.625 245.652 57.4268 245.652 58.3288Z" fill="#3B8027"/>
<path d="M216.988 31.8695C216.988 31.8695 207.366 50.0103 185.216 41.0902C185.216 41.0902 193.134 39.6871 196.642 32.972C200.05 26.4573 211.074 24.4528 217.088 27.66V31.8695" fill="#F68426"/>
<path d="M217.188 31.9696C217.188 31.9696 226.81 50.1104 248.96 41.1903C248.96 41.1903 241.042 39.7872 237.534 33.0721C234.126 26.5574 223.101 24.5529 217.088 27.7601V31.9696" fill="#F68426"/>
<path d="M233.826 147.83H199.649L163.568 193.132C163.568 193.132 191.13 206.161 217.99 206.161C242.645 206.161 269.806 193.132 269.806 193.132L233.826 147.83Z" fill="#3B8027"/>
<mask id="mask3_1196_2305" style="mask-type:luminance" maskUnits="userSpaceOnUse" x="0" y="85" width="51" height="108">
<path d="M50.6137 85.49H0V192.43H50.6137V85.49Z" fill="white"/>
</mask>
<g mask="url(#mask3_1196_2305)">
<path d="M2.20498 191.528C3.00678 191.528 3.60813 191.027 3.70836 190.426C3.90881 190.125 4.00903 189.824 4.00903 189.524C4.00903 190.526 4.81083 191.328 5.81309 191.328C6.01354 191.328 6.11376 191.328 6.31421 191.228C6.91556 191.127 7.41669 190.726 7.51692 190.225C7.61714 190.025 7.71737 189.724 7.71737 189.524C7.71737 190.025 7.91782 190.526 8.31872 190.827C8.51917 191.328 9.12052 191.628 9.8221 191.628C10.7241 191.628 11.4257 191.027 11.4257 190.326V190.025C11.4257 189.824 11.5259 189.724 11.5259 189.524C11.5259 190.125 11.8266 190.726 12.3277 191.027C12.6284 191.428 13.1295 191.628 13.7309 191.628C14.6329 191.628 15.3345 191.027 15.3345 190.326L15.2343 186.517V184.813C15.2343 186.216 17.5394 186.717 17.5394 186.717C17.5394 186.717 17.339 182.508 17.1385 178.499C17.0383 174.891 13.6307 174.49 13.6307 174.49C13.5304 172.385 11.3255 171.684 11.3255 171.684C11.4257 171.182 11.4257 170.681 11.4257 170.08C11.0248 148.131 18.5417 127.685 29.7669 113.252C38.1858 102.528 46.8052 98.1183 47.0057 98.0181C50.2129 96.4145 51.5158 92.6059 49.9122 89.3987C48.4088 86.2917 44.8007 84.9888 41.5935 86.2917C41.4933 86.3919 41.2928 86.3919 41.1926 86.4922C40.7917 86.6926 30.1678 92.0045 19.9448 104.833C10.5237 116.159 2.00453 138.71 2.50565 170.18C2.50565 170.581 2.50565 170.882 2.50565 171.182C-0.100202 171.182 2.30706e-05 174.791 2.30706e-05 176.294C0.100248 179.601 0.200474 189.524 0.200474 189.524C0.200474 189.925 0.300699 190.225 0.501149 190.526C0.7016 191.027 1.40318 191.528 2.20498 191.528Z" fill="#F8A185"/>
</g>
<path d="M30.3682 114.054C40.3907 101.325 50.7139 96.0135 50.9144 95.9133C54.7229 94.009 56.3265 89.3986 54.4223 85.5901C52.6182 81.8817 48.3085 80.2781 44.6002 81.7815C44.3997 81.8817 44.2995 81.8817 44.0991 81.982C43.5979 82.2826 30.9696 88.4966 18.8423 103.731C18.7421 103.931 18.5416 104.032 18.4414 104.232L30.3682 114.054Z" fill="#9E9C9D"/>
<path d="M29.6667 116.359C29.1655 117.061 28.3637 117.261 27.8626 116.861L15.8356 107.54C15.3344 107.139 15.4347 106.337 15.9358 105.635L17.9403 103.029C18.4414 102.328 19.2432 102.127 19.7444 102.528L31.7714 111.849C32.2725 112.25 32.1723 113.052 31.6712 113.754L29.6667 116.359Z" fill="#605E5E"/>
<path d="M156.752 26.758C156.051 26.3571 155.249 26.4573 154.848 26.9584C154.547 27.1589 154.347 27.3593 154.147 27.66C154.648 26.758 154.347 25.6555 153.445 25.1544C153.244 25.0541 153.144 25.0541 152.944 24.9539C152.342 24.7535 151.741 24.8537 151.44 25.2546C151.24 25.4551 151.04 25.5553 150.939 25.8559C151.14 25.455 151.24 24.8537 151.04 24.4528C151.04 23.9517 150.739 23.3503 150.137 23.0496C149.336 22.6487 148.434 22.8492 148.133 23.4505L147.933 23.7512C147.832 23.8514 147.732 23.9517 147.632 24.1521C147.933 23.651 147.933 22.9494 147.632 22.4483C147.532 21.9472 147.231 21.5463 146.73 21.2456C145.928 20.8447 145.026 20.9449 144.725 21.6465L142.921 24.9539L142.119 26.4573C142.821 25.2546 141.017 23.651 141.017 23.651C141.017 23.651 139.113 27.4596 137.309 30.9674C135.605 34.1746 138.411 36.1791 138.411 36.1791C137.509 38.0834 139.012 39.687 139.012 39.687C138.712 40.0879 138.511 40.4888 138.211 40.99C127.787 60.2332 111.25 74.5654 94.312 81.5812C81.6837 86.8931 71.9618 86.4922 71.7614 86.4922C68.1532 86.2918 65.1465 88.9978 64.946 92.606C64.7456 96.0136 67.2512 99.0204 70.6589 99.4213C70.8593 99.4213 70.9596 99.4213 71.16 99.4213C71.6611 99.4213 83.4877 100.023 98.6217 93.8087C112.453 88.196 130.894 72.7614 145.928 44.999C146.128 44.6983 146.229 44.3976 146.429 44.0969C148.634 45.2996 150.438 42.0924 151.04 40.8897C152.643 37.9832 157.253 29.2636 157.253 29.2636C157.454 28.9629 157.454 28.6623 157.454 28.2614C157.755 27.8605 157.454 27.1589 156.752 26.758Z" fill="#F8A185"/>
<path d="M94.2117 80.5789C79.1779 86.893 67.652 86.4921 67.3513 86.3919C63.1419 86.1915 59.4336 89.3987 59.2331 93.7084C59.0327 97.8176 62.0394 101.325 65.9482 101.827C66.1486 101.827 66.3491 101.827 66.5495 101.927C67.1509 101.927 81.1824 102.628 99.3232 95.2117C99.5236 95.1115 99.7241 95.0113 99.9245 95.0113L94.2117 80.5789Z" fill="#9E9C9D"/>
<path d="M83.4876 100.925C83.2872 80.7793 66.5496 81.1802 66.5496 81.1802L58.5315 83.6858L49.3108 80.7793C49.3108 80.7793 33.375 80.3784 33.4752 100.824C33.5755 119.266 33.375 167.374 33.375 167.374H83.4876C83.5878 167.474 83.7883 119.266 83.4876 100.925Z" fill="#B6B5B5"/>
<path d="M58.0303 83.9865L63.8433 92.4054L71.26 81.982C71.26 81.982 69.5562 81.6813 68.9548 81.4809C67.9526 81.1802 66.5494 81.1802 66.5494 81.1802L58.0303 83.9865Z" fill="white"/>
<path d="M57.9303 83.9865L52.1172 92.4054L45.2017 81.4809C45.2017 81.4809 46.4044 81.1802 46.9055 81.08C47.8075 80.8795 49.4111 80.7793 49.4111 80.7793L57.9303 83.9865Z" fill="white"/>
<path d="M72.7637 167.474H78.2761V85.7906C76.8729 84.3874 74.668 82.9843 72.7637 82.4832V167.474Z" fill="#3B8027"/>
<path d="M38.186 85.7906V167.374H43.6984V82.1825C41.8944 82.9843 39.8899 83.8863 38.186 85.7906Z" fill="#3B8027"/>
<path d="M54.5226 295.562C54.5226 295.562 54.5226 292.756 54.5226 290.25C54.5226 284.738 44.3998 284.136 37.8852 284.136C28.0631 284.136 21.6487 288.847 21.6487 295.662H54.5226" fill="#772B17"/>
<path d="M54.5226 298.168H21.6487V295.662H54.5226V298.168Z" fill="#772B17"/>
<path d="M52.1172 284.537C52.1172 286.141 52.919 291.753 43.0969 290.952C40.9922 290.751 37.8852 289.348 37.8852 284.437L36.3818 194.134C36.3818 179.401 39.8897 175.893 44.1994 175.893C48.5091 175.893 52.017 179.401 52.017 194.134V284.537" fill="#F8A185"/>
<path d="M62.4404 295.562C62.4404 295.562 62.4404 292.756 62.4404 290.25C62.4404 284.738 72.463 284.136 79.0778 284.136C88.8999 284.136 95.3143 288.847 95.3143 295.662H62.4404" fill="#772B17"/>
<path d="M62.4404 298.168H95.3143V295.662H62.4404V298.168Z" fill="#772B17"/>
<path d="M64.8456 284.537C64.8456 286.141 64.0438 291.753 73.8659 290.952C75.9706 290.751 79.0776 289.348 79.0776 284.437L80.581 194.134C80.581 179.401 77.0731 175.893 72.7634 175.893C68.4537 175.893 64.9459 179.401 64.9459 194.134V284.537" fill="#F8A185"/>
<path d="M59.9346 167.474H33.4751V229.514H57.1283V179.501L59.8343 176.695V229.514H83.5877V167.474H59.9346Z" fill="#772B17"/>
<path d="M57.8298 230.716C57.8298 231.518 57.1282 232.22 56.2262 232.22H33.3748C32.4728 232.22 31.7712 231.518 31.7712 230.716V227.509C31.7712 226.707 32.4728 226.006 33.3748 226.006H56.2262C57.1282 226.006 57.8298 226.707 57.8298 227.509V230.716Z" fill="#B74527"/>
<path d="M85.6926 230.716C85.6926 231.518 84.991 232.22 84.089 232.22H61.2376C60.3356 232.22 59.634 231.518 59.634 230.716V227.509C59.634 226.707 60.3356 226.006 61.2376 226.006H84.089C84.991 226.006 85.6926 226.707 85.6926 227.509V230.716Z" fill="#B74527"/>
<path d="M66.3491 81.1803L58.2308 83.8863L49.5112 80.7794L50.4133 72.9618H65.6475L66.3491 81.1803Z" fill="#F8A185"/>
<path d="M31.8717 44.3976C25.5575 44.3976 25.5575 48.0057 26.2591 51.5136C26.8604 55.0215 29.1656 57.5271 31.3706 57.026H31.4708L31.8717 44.3976Z" fill="#F8A185"/>
<path d="M83.2874 44.3976C89.6015 44.3976 89.6015 48.0057 89.0002 51.5136C88.3988 55.0215 86.0937 57.5271 83.8887 57.026H83.7885L83.2874 44.3976Z" fill="#F8A185"/>
<path d="M85.5923 46.4021C85.5923 63.4404 73.0642 77.2715 57.6295 77.2715C42.0946 77.1712 29.5664 63.4404 29.5664 46.4021C29.5664 29.3638 42.0946 15.5327 57.5292 15.5327C72.9639 15.5327 85.5923 29.3638 85.5923 46.4021Z" fill="#F8A185"/>
<path d="M45.9034 51.3131C45.9034 53.6183 44.7007 55.4223 43.2975 55.4223C41.8944 55.4223 40.6917 53.5181 40.6917 51.3131C40.6917 49.0079 41.8944 47.1036 43.2975 47.1036C44.7007 47.2039 45.9034 49.0079 45.9034 51.3131Z" fill="#2E0E0E"/>
<path d="M76.1712 51.3131C76.1712 53.6183 74.9685 55.4223 73.5653 55.4223C72.1622 55.4223 70.9595 53.5181 70.9595 51.3131C70.9595 49.0079 72.1622 47.1036 73.5653 47.1036C74.9685 47.2039 76.1712 49.0079 76.1712 51.3131Z" fill="#2E0E0E"/>
<path d="M76.472 45.7004C76.2715 45.7004 76.0711 45.6002 75.8706 45.4999C72.8639 43.0945 69.8571 43.9966 69.8571 43.9966C69.2558 44.197 68.7546 43.7961 68.5542 43.0945C68.3537 42.4932 68.7546 41.7916 69.2558 41.5912C69.4562 41.4909 73.2648 40.3885 77.0733 43.3952C77.5745 43.7961 77.6747 44.4977 77.374 45.099C77.0733 45.4999 76.7726 45.7004 76.472 45.7004Z" fill="#8D391C"/>
<path d="M39.3885 45.7004C39.589 45.7004 39.7894 45.6002 39.9899 45.4999C42.9966 43.0945 46.0034 43.9966 46.0034 43.9966C46.6048 44.197 47.1059 43.7961 47.3063 43.0945C47.5068 42.4932 47.1059 41.7916 46.6048 41.5912C46.4043 41.4909 42.5957 40.3885 38.7872 43.3952C38.2861 43.7961 38.1858 44.4977 38.4865 45.099C38.687 45.4999 39.0879 45.7004 39.3885 45.7004Z" fill="#8D391C"/>
<path d="M50.313 66.2466C51.3152 69.8547 53.5202 72.3603 57.2285 72.3603C60.9369 72.3603 63.5427 69.8547 64.6452 66.2466H50.313Z" fill="#DEDDDE"/>
<path d="M29.5664 47.6049C29.5664 12.4258 57.8299 13.1274 57.8299 13.1274C91.1047 13.1274 85.9932 49.3087 85.9932 49.3087L83.7883 48.7073C83.7883 48.7073 82.8862 40.5891 79.2781 34.5756C79.2781 34.5756 62.5405 42.794 48.509 38.4844C48.509 38.4844 59.1329 38.0835 61.3378 35.2771C61.3378 35.2771 55.3243 37.9832 51.2151 36.079C51.2151 36.079 57.8299 34.4753 58.4313 31.7693C58.4313 31.7693 43.4977 37.0812 37.8851 34.9765C37.8851 34.9765 30.8693 38.8853 31.8716 47.6049C32.3727 52.3154 29.9673 52.3154 29.9673 52.3154L29.5664 47.6049Z" fill="#8D391C"/>
<path d="M69.2555 63.3401C70.358 66.6475 66.8501 67.75 65.3467 65.1441C63.0415 61.2353 58.9323 59.6317 57.4289 63.2398C55.9255 59.6317 51.8163 61.3356 49.5111 65.1441C48.0077 67.75 44.4999 66.6475 45.6023 63.3401C45.6023 63.3401 42.3951 66.9482 48.108 69.554C50.2127 70.5563 55.3242 70.6565 57.4289 65.2443C59.5336 70.6565 64.6451 70.5563 66.7499 69.554C72.4627 66.9482 69.2555 63.3401 69.2555 63.3401Z" fill="#8D391C"/>
<path d="M55.5246 49.6092C52.9188 50.7117 52.3174 60.5338 59.3332 62.5383C62.2397 63.3401 65.948 61.9369 65.6474 58.7297C65.3467 55.8232 60.9368 57.7275 59.4334 56.2241C57.93 54.6205 58.9323 48.1059 55.5246 49.6092Z" fill="#F57C7C"/>
<path d="M92.6081 30.1656C92.6081 32.6712 92.107 34.9764 86.6948 34.8762C81.3829 34.776 73.3649 32.0699 59.1329 32.1701C43.8986 32.2703 35.9808 34.8762 30.9696 34.9764C26.1588 35.0766 24.7556 33.3728 24.7556 30.6667C24.7556 25.2546 38.0856 19.8424 59.634 19.8424C81.0822 19.8424 92.6081 26.4573 92.6081 30.1656Z" fill="#3B8027"/>
<path d="M96.8175 2.8042C96.8175 2.8042 96.7173 4.60825 96.1159 7.11388C96.0157 7.41456 95.0134 8.61726 95.0134 8.61726C95.0134 8.61726 95.6148 8.91794 95.5146 9.31884C95.1137 10.5215 94.6125 11.8245 94.0112 13.1274C93.8107 13.5283 90.0022 12.6263 90.0022 12.6263C90.0022 12.6263 92.9087 15.0317 92.7083 15.4326C91.6058 17.1364 90.3028 18.74 88.6992 20.0429C88.3986 20.3436 87.1959 19.1409 87.1959 19.1409C87.1959 19.1409 87.1959 21.1454 86.8952 21.3459C85.492 22.2479 83.7882 22.9495 81.9842 23.5508C81.9842 23.5508 81.3828 19.1409 83.8884 14.0294C84.0889 13.6285 85.6925 13.1274 85.6925 13.1274C85.6925 13.1274 85.0911 11.8245 85.3918 11.4236C86.4943 9.81996 87.8974 8.21636 89.8017 6.81321C90.1024 6.51253 91.2049 8.61726 91.2049 8.61726C91.2049 8.61726 91.0044 5.81096 91.2049 5.61051C92.8085 4.60825 94.6125 3.606 96.8175 2.8042Z" fill="#D9282C"/>
<path d="M78.9775 28.0608C85.4922 17.938 96.1161 3.70605 96.1161 3.70605L78.9775 28.0608Z" fill="#3B8027"/>
<path d="M82.0844 24.3526C82.0844 25.8559 80.3806 27.0587 78.2759 27.0587H37.7849C35.6801 27.0587 33.9763 25.8559 33.9763 24.3526L38.3862 4.30753C38.8874 2.30302 42.295 -0.403061 58.0304 2.30302C62.6407 3.10482 66.9504 2.40325 70.0574 1.40099C74.6678 -0.00215948 75.9707 2.40325 76.6723 4.30753L82.0844 24.3526Z" fill="#3B8027"/>
<path d="M82.8863 27.259C82.6858 27.7601 58.5315 32.2703 33.5755 27.1588C32.7737 26.9583 34.6779 21.1453 34.6779 21.1453C34.6779 21.1453 54.3221 25.3547 81.2827 21.4459C81.2827 21.4459 83.1869 26.4572 82.8863 27.259Z" fill="#D9282C"/>
<path d="M95.9156 78.875C96.7174 78.5744 97.5192 78.7748 97.7196 79.2759L103.633 93.3075C103.833 93.9088 103.432 94.6104 102.631 94.9111L99.6239 96.214C98.8221 96.5147 98.0203 96.3142 97.8198 95.8131L91.9066 81.7816C91.7061 81.1802 92.107 80.4786 92.9088 80.178L95.9156 78.875Z" fill="#605E5E"/>
</svg>
