<svg width="170" height="303" viewBox="0 0 170 303" fill="none" xmlns="http://www.w3.org/2000/svg">
<g clip-path="url(#clip0_1160_9412)">
<path d="M138.78 124.341C125.35 137.33 107.207 145.242 87.1794 145.242C64.9133 145.242 45.0034 135.441 31.3374 119.972V74.1559C44.8856 76.8718 63.9708 78.9973 85.0588 78.9973C106.147 78.9973 125.232 76.8718 138.78 74.1559V124.341Z" fill="#F4C9B7"/>
<mask id="mask0_1160_9412" style="mask-type:luminance" maskUnits="userSpaceOnUse" x="17" y="135" width="136" height="168">
<path d="M152.682 135.323H17.5537V303H152.682V135.323Z" fill="white"/>
</mask>
<g mask="url(#mask0_1160_9412)">
<path d="M152.211 252.697C152.211 275.487 152.211 286.468 152.211 286.468C152.211 295.561 122.169 302.882 85.0589 302.882C47.9487 302.882 17.7893 295.561 17.7893 286.468C17.7893 286.468 17.7893 275.369 17.7893 252.697C17.7893 230.97 24.9757 169.921 50.4227 135.677C61.2612 141.817 73.7491 145.36 87.0617 145.36C99.1961 145.36 110.624 142.408 120.755 137.33C145.26 171.81 152.211 231.324 152.211 252.697Z" fill="#D12C23"/>
</g>
<path d="M152.211 278.911C152.211 282.099 152.211 284.343 152.211 285.524C148.205 283.634 145.024 282.217 143.493 281.627C137.131 279.029 129.827 268.756 129.827 268.756L109.21 266.631L104.733 268.52C105.911 270.882 107.443 275.723 104.851 281.981C104.851 281.981 104.851 281.981 104.851 282.099C103.084 278.557 103.437 273.597 103.437 273.597C103.084 277.494 100.845 281.627 100.845 281.627C100.021 279.265 100.374 274.188 100.374 274.188C99.0783 277.022 94.3659 279.62 94.3659 279.62C94.6015 276.313 98.3714 271.118 98.3714 271.118H98.2536L91.774 273.834C91.774 273.834 92.0097 273.597 92.4809 273.243C91.5384 273.597 91.185 273.834 91.0672 273.834C94.4837 268.638 100.728 267.339 102.966 266.985C109.446 264.033 117.928 261.317 126.881 262.616C126.881 262.616 104.144 229.907 102.848 229.435C101.552 228.962 76.6943 225.538 76.6943 225.538H107.678C107.678 225.538 140.783 269.465 147.616 275.487C148.441 276.431 150.208 277.612 152.211 278.911Z" fill="#886242"/>
<mask id="mask1_1160_9412" style="mask-type:luminance" maskUnits="userSpaceOnUse" x="0" y="0" width="170" height="162">
<path d="M170 0H0V161.419H170V0Z" fill="white"/>
</mask>
<g mask="url(#mask1_1160_9412)">
<path d="M71.8642 94.348L39.4664 88.4439L39.113 90.2151L71.5107 96.1193L71.8642 94.348ZM130.769 90.2151L130.416 88.4439L98.018 94.348L98.3715 96.1193L130.769 90.2151ZM170 58.0966V129.773C170 147.131 155.981 161.065 138.663 161.065V74.1559C125.114 76.8718 106.029 78.9973 84.9411 78.9973C63.8531 78.9973 44.7678 76.8718 31.2197 74.1559V161.065C14.0194 161.065 0 147.013 0 129.773V58.0966C0 25.9782 25.9182 0 57.9626 0H112.155C144.082 0 170 25.9782 170 58.0966Z" fill="#302F2F"/>
</g>
<path d="M87.6507 222.468C87.6507 223.648 86.7082 224.593 85.5301 224.593C84.352 224.593 83.4096 223.648 83.4096 222.468C83.4096 221.287 84.352 220.342 85.5301 220.342C86.5904 220.342 87.6507 221.287 87.6507 222.468ZM94.4837 219.279C94.4837 220.46 93.5412 221.405 92.3631 221.405C91.185 221.405 90.2425 220.46 90.2425 219.279C90.2425 218.099 91.185 217.154 92.3631 217.154C93.5412 217.154 94.4837 218.099 94.4837 219.279ZM88.122 214.792C88.122 215.973 87.1795 216.918 86.0014 216.918C84.8233 216.918 83.8808 215.973 83.8808 214.792C83.8808 213.611 84.8233 212.667 86.0014 212.667C87.1795 212.667 88.122 213.611 88.122 214.792ZM90.2425 275.133C86.5904 282.336 88.711 287.531 88.711 287.531L93.4234 286.823L94.4837 290.601C94.4837 290.601 101.317 290.601 104.851 281.981C108.385 273.243 104.144 267.221 103.673 266.985C103.673 266.867 94.1303 267.457 90.2425 275.133ZM64.0887 235.457L69.1545 236.638L68.5655 240.652C78.815 243.841 83.6452 233.449 83.6452 233.449C85.4123 241.715 94.3659 246.202 94.6015 246.675C94.8371 247.265 97.5468 240.77 97.5468 240.77L101.67 241.951C106.618 234.63 100.256 226.364 100.256 226.364C109.092 227.427 114.394 218.807 114.04 219.161C113.687 219.516 110.859 216.209 110.859 216.209L113.451 211.486C108.503 207.471 97.0755 208.652 97.0755 208.652C100.61 201.685 95.4262 192.357 95.4262 192.357L91.5385 195.191L87.7685 191.53C81.289 197.316 80.3465 205.228 80.3465 205.228C70.2148 198.851 63.8531 202.866 63.8531 202.866L65.738 207.825L60.6722 208.77C62.5572 216.564 71.7464 221.051 71.7464 221.051C64.2065 226.719 64.0887 235.457 64.0887 235.457ZM51.0118 114.894C51.0118 110.053 42.2938 106.038 31.3375 105.684V120.09C32.5156 121.389 33.6937 122.688 34.9896 123.869C44.1788 122.924 51.0118 119.263 51.0118 114.894ZM138.78 105.684C128.06 106.156 119.577 110.053 119.577 114.894C119.577 119.736 127.942 123.633 138.78 124.105V105.684ZM18.8496 235.221C18.9674 234.158 19.0852 232.741 19.4387 230.143C19.7921 227.309 20.1455 224.357 20.6168 221.287C21.6771 220.106 22.973 218.807 24.3867 217.272C30.395 211.014 40.4089 200.977 53.957 188.932C61.0256 182.674 69.3902 175.589 78.815 168.15C67.3874 159.53 56.0776 151.618 44.7678 144.533C46.0637 142.29 47.4775 140.046 48.8912 138.039C60.9078 145.596 72.9244 153.98 85.0589 163.308C96.0152 154.924 108.15 146.304 121.227 138.039C122.64 140.164 124.054 142.29 125.468 144.651C67.9764 180.785 18.8496 234.276 18.8496 235.221Z" fill="#F791A3"/>
</g>
<defs>
<clipPath id="clip0_1160_9412">
<rect width="170" height="303" fill="white"/>
</clipPath>
</defs>
</svg>
