<svg width="244" height="41" viewBox="0 0 244 41" fill="none" xmlns="http://www.w3.org/2000/svg">
<g clip-path="url(#clip0_276_1249)">
<path d="M98.5954 12.3776C99.4318 12.6657 100.352 12.6633 101.213 12.4912C101.604 12.4131 101.925 12.2836 102.177 12.1038L101.846 10.7854C101.663 10.896 101.451 10.9865 101.207 11.0581C100.962 11.1291 100.661 11.1645 100.307 11.1645C99.928 11.1645 99.595 11.0953 99.3076 10.9569C99.024 10.8223 98.776 10.623 98.5836 10.3749C98.3908 10.1259 98.2477 9.82487 98.1518 9.47354C98.0537 9.09164 98.0062 8.6985 98.0105 8.30421C98.0105 7.32296 98.2092 6.5996 98.6084 6.13293C99.0077 5.66567 99.5335 5.43263 100.191 5.43263C100.546 5.43263 100.847 5.45215 101.096 5.49178C101.345 5.53141 101.559 5.59469 101.742 5.68105L102.061 4.30707C101.799 4.20663 101.527 4.13137 101.25 4.08231C99.9558 3.83212 98.5162 3.99951 97.5184 4.92929C96.5939 5.79165 96.3047 7.08046 96.3047 8.29829C96.3035 9.93962 96.8944 11.7909 98.5954 12.3776ZM108.395 10.9978H105.044V8.97257H108.04V7.5282H105.044V5.59765H108.336V4.1527H103.421V12.4427H108.395V10.9978ZM111.38 8.12026L111.19 6.81785H111.249L111.9 8.12026L115.015 12.5019H116.2V4.1527H114.66V8.51122L114.85 9.77756H114.79L114.163 8.51122L111.024 4.09355H109.84V12.4427H111.38V8.12026ZM119.706 12.4427H121.328V5.59765H123.743V4.1527H117.277V5.59765H119.706V12.4427ZM129.795 10.9978H126.443V8.97257H129.44V7.5282H126.443V5.59765H129.735V4.1527H124.821V12.4427H129.795V10.9978ZM132.862 9.04354L133.715 9.19733L135.598 12.4427H137.469L135.575 9.28072L134.996 8.91342C135.524 8.74781 135.946 8.45148 136.262 8.02563C136.578 7.59859 136.737 7.04675 136.737 6.36715C136.737 5.90936 136.649 5.52845 136.47 5.22444C136.3 4.9278 136.055 4.68085 135.76 4.50817C135.448 4.32898 135.108 4.20493 134.754 4.14146C134.377 4.0698 133.994 4.03396 133.61 4.0344C133.445 4.0344 133.263 4.03854 133.066 4.04623C132.869 4.05451 132.664 4.06634 132.456 4.08231C132.246 4.09828 132.038 4.12017 131.827 4.14737C131.631 4.17306 131.436 4.20264 131.242 4.23609V12.4433H132.863L132.862 9.04354ZM132.862 5.53791C132.949 5.51485 133.073 5.49888 133.237 5.4906C133.397 5.48291 133.562 5.47877 133.727 5.47877C134.153 5.47877 134.478 5.57932 134.699 5.78101C134.92 5.98151 135.03 6.2601 135.03 6.61557C135.03 7.08933 134.896 7.42884 134.628 7.63408C134.36 7.83931 134 7.94223 133.551 7.94223H132.863L132.862 5.53791ZM142.284 11.4242C142.57 11.8025 142.947 12.1037 143.378 12.3008C143.82 12.5054 144.343 12.6089 144.943 12.6089C146.064 12.6089 146.93 12.2357 147.543 11.4899C148.155 10.744 148.461 9.67996 148.461 8.29829C148.461 7.65123 148.389 7.06272 148.249 6.53395C148.107 6.00517 147.89 5.55093 147.596 5.1718C147.306 4.79447 146.928 4.49376 146.495 4.29583C146.054 4.09059 145.537 3.98768 144.944 3.98768C143.815 3.98768 142.946 4.36089 142.339 5.10673C141.731 5.85257 141.427 6.91722 141.427 8.29829C141.427 8.94595 141.498 9.53387 141.64 10.0632C141.78 10.5914 141.994 11.0451 142.284 11.4242ZM143.603 6.12406C143.92 5.66212 144.366 5.43145 144.942 5.43145C145.275 5.43145 145.554 5.5042 145.783 5.65029C146.012 5.79698 146.197 5.99985 146.339 6.26069C146.481 6.52152 146.586 6.82554 146.653 7.17273C146.72 7.51992 146.753 7.89491 146.753 8.2977C146.753 9.30852 146.596 10.0384 146.28 10.4885C145.964 10.9386 145.518 11.164 144.941 11.164C144.626 11.164 144.353 11.0924 144.124 10.9504C143.89 10.8034 143.696 10.5998 143.562 10.3584C143.415 10.1058 143.307 9.80358 143.236 9.45225C143.162 9.07195 143.126 8.68516 143.129 8.2977C143.13 7.31054 143.288 6.58659 143.603 6.12406ZM151.479 9.09145H154.51V7.6465H151.479V5.59765H154.771V4.1527H149.857V12.4427H151.479V9.09145ZM104.853 24.4081H106.898V13.9604H105.047L102.406 18.7064L101.958 19.9307H101.898L101.406 18.7365L98.615 13.9604H96.7495V24.4081H98.6895V18.9755L98.3914 16.9154H98.4665L99.123 18.5721L101.466 22.4829H102.122L104.347 18.5869L104.988 16.9154H105.077L104.853 18.9903V24.4081ZM109.772 23.1246C110.134 23.6011 110.608 23.9804 111.152 24.2283C111.709 24.4874 112.367 24.6163 113.122 24.6163C114.536 24.6163 115.627 24.1455 116.398 23.2062C117.17 22.2652 117.556 20.9255 117.556 19.1837C117.556 18.368 117.466 17.6263 117.287 16.9597C117.107 16.2932 116.833 15.7212 116.465 15.2433C116.099 14.7676 115.623 14.3886 115.077 14.139C114.521 13.88 113.868 13.751 113.121 13.751C111.699 13.751 110.603 14.2207 109.837 15.1611C109.071 16.1015 108.689 17.443 108.689 19.1837C108.689 19.9993 108.778 20.741 108.957 21.407C109.137 22.0748 109.408 22.6473 109.772 23.1246ZM111.436 16.4458C111.834 15.8632 112.396 15.5722 113.122 15.5722C113.539 15.5722 113.894 15.6638 114.182 15.8478C114.478 16.0397 114.72 16.3042 114.884 16.6161C115.063 16.945 115.195 17.3282 115.28 17.7653C115.365 18.203 115.407 18.6756 115.407 19.1831C115.407 20.4565 115.207 21.3768 114.809 21.944C114.412 22.5113 113.849 22.7946 113.122 22.7946C112.724 22.7946 112.381 22.7059 112.093 22.5266C111.798 22.3407 111.555 22.0839 111.385 21.7796C111.2 21.4614 111.063 21.0805 110.974 20.6375C110.881 20.1582 110.836 19.6708 110.839 19.1825C110.839 17.9404 111.038 17.0278 111.436 16.4458ZM126.376 22.8857C126.796 22.3743 127.101 21.7789 127.272 21.1397C127.452 20.4729 127.542 19.7851 127.54 19.0944C127.54 18.3184 127.445 17.6068 127.257 16.9603C127.069 16.3133 126.77 15.7561 126.362 15.2883C125.954 14.821 125.421 14.4578 124.765 14.1994C124.108 13.9403 123.317 13.8108 122.39 13.8108C121.883 13.8123 121.376 13.8223 120.869 13.8409C120.59 13.851 120.318 13.8658 120.056 13.8853C119.792 13.9054 119.555 13.9303 119.347 13.9598V24.4223C119.477 24.4412 119.671 24.4596 119.929 24.4743C120.188 24.4891 120.458 24.5045 120.742 24.5193C121.026 24.5329 121.298 24.5459 121.563 24.5566C121.827 24.566 122.039 24.5713 122.197 24.5713C123.202 24.5713 124.046 24.4158 124.726 24.1082C125.408 23.8013 125.958 23.3931 126.376 22.8857ZM125.256 20.4606C125.177 20.8779 125.017 21.2758 124.786 21.6318C124.555 21.9746 124.242 22.2541 123.875 22.4444C123.493 22.6491 123.012 22.7508 122.435 22.7508C122.384 22.7508 122.31 22.7484 122.21 22.7437C122.106 22.7382 122.001 22.7334 121.897 22.7295L121.591 22.7141C121.523 22.7124 121.455 22.7049 121.389 22.6917V15.6916C121.498 15.6721 121.666 15.6573 121.889 15.6473C122.113 15.6372 122.335 15.6325 122.553 15.6325C123.12 15.6325 123.589 15.7372 123.956 15.9454C124.308 16.1398 124.608 16.4166 124.829 16.7521C125.044 17.0804 125.19 17.4513 125.269 17.8635C125.351 18.2764 125.391 18.6862 125.391 19.0949C125.391 19.5622 125.346 20.0176 125.256 20.4606ZM135.525 15.7815V13.9604H129.331V24.4081H135.599V22.587H131.375V20.0348H135.152V18.2143H131.375V15.7815H135.525ZM142.181 19.9603C142.848 19.7509 143.379 19.3783 143.777 18.8406C144.175 18.3036 144.376 17.6068 144.376 16.7516C144.376 16.1743 144.264 15.694 144.04 15.3107C143.825 14.937 143.516 14.6258 143.144 14.4076C142.751 14.1818 142.321 14.0253 141.875 13.945C141.4 13.8553 140.918 13.8104 140.434 13.8108C140.225 13.8108 139.996 13.8155 139.748 13.8256C139.5 13.8362 139.243 13.8504 138.98 13.8705C138.716 13.8906 138.451 13.9184 138.189 13.9527C137.924 13.9882 137.678 14.0255 137.45 14.0645V24.4075H139.494V20.1241L140.568 20.3187L142.941 24.4081H145.3L142.911 20.4234L142.181 19.9603ZM140.361 18.7365H139.495V15.7064C139.604 15.6769 139.76 15.6573 139.965 15.6473C140.169 15.6372 140.375 15.6325 140.584 15.6325C141.122 15.6325 141.529 15.7597 141.808 16.0134C142.087 16.2671 142.225 16.6173 142.225 17.065C142.225 17.6624 142.057 18.09 141.719 18.3485C141.379 18.607 140.928 18.7365 140.361 18.7365ZM149.36 18.9607L153.286 24.4826H154.778V13.9604H152.837V19.4528L153.077 21.0503H153.002L152.211 19.4528L148.256 13.8859H146.763V24.4081H148.703V18.9607L148.465 17.3182H148.54L149.36 18.9607ZM98.8793 32.2522H102.764V30.3784H98.8793V27.8765H103.148V26.0027H96.7743V36.752H103.224V34.8789H98.8793V32.2522ZM111.379 31.6542L111.625 33.2967H111.547L110.734 31.6542L106.664 25.9258H105.128V36.752H107.124V31.1473L106.879 29.4581H106.955L107.801 31.1473L111.839 36.8283H113.376V26.0027H111.379V31.6542ZM119.348 32.4207L121.667 32.6668V34.6937C121.474 34.8363 121.255 34.9385 121.022 34.9942C120.766 35.0601 120.503 35.0935 120.239 35.0936C119.863 35.096 119.49 35.0232 119.142 34.8795C118.793 34.7319 118.485 34.5027 118.243 34.2111C117.986 33.9094 117.787 33.525 117.644 33.0595C117.5 32.594 117.429 32.038 117.429 31.3939C117.429 30.7179 117.503 30.1453 117.651 29.6739C117.8 29.2037 118.009 28.8169 118.281 28.5141C118.552 28.2124 118.873 27.9954 119.24 27.8611C119.63 27.7246 120.041 27.6571 120.454 27.6618C120.945 27.6618 121.35 27.6908 121.667 27.7469C121.961 27.797 122.249 27.8764 122.527 27.9841L122.957 26.2186C122.68 26.1163 122.31 26.0187 121.844 25.9264C121.378 25.8359 120.838 25.7898 120.224 25.7898C119.608 25.7898 118.996 25.8909 118.413 26.0891C117.814 26.2917 117.266 26.6219 116.807 27.0567C116.331 27.5027 115.948 28.0805 115.656 28.7921C115.364 29.5036 115.218 30.3666 115.218 31.3803C115.218 32.3533 115.341 33.192 115.587 33.8988C115.833 34.605 116.17 35.1864 116.601 35.6413C117.024 36.0924 117.547 36.4368 118.128 36.6462C118.717 36.8615 119.354 36.9697 120.04 36.9697C120.623 36.9697 121.214 36.8869 121.814 36.7236C122.413 36.5604 122.927 36.2996 123.357 35.9405V31.1497H119.349L119.348 32.4207ZM127.349 26.0027H125.245V36.752H132.048V34.8789H127.349V26.0027ZM133.691 26.0027H135.795V36.752H133.691V26.0027ZM143.665 31.2313C143.295 30.9672 142.899 30.7434 142.482 30.5635C142.085 30.3917 141.69 30.2126 141.299 30.0265C140.936 29.852 140.633 29.6633 140.393 29.4581C140.153 29.2522 140.033 28.9973 140.033 28.6897C140.033 28.3615 140.164 28.1018 140.425 27.9066C140.685 27.7126 141.062 27.6156 141.553 27.6156C142.075 27.6156 142.561 27.6748 143.012 27.7925C143.464 27.9096 143.801 28.0397 144.025 28.1834L144.686 26.4179C144.328 26.2133 143.872 26.0577 143.319 25.9501C142.737 25.8397 142.145 25.7858 141.553 25.7892C141.01 25.7892 140.519 25.8507 140.079 25.9737C139.639 26.0962 139.257 26.2854 138.935 26.5421C138.613 26.7973 138.357 27.1266 138.189 27.5021C138.016 27.8853 137.929 28.3384 137.929 28.8607C137.929 29.4646 138.049 29.9608 138.29 30.3512C138.524 30.7332 138.831 31.0646 139.195 31.3259C139.558 31.5862 139.952 31.8068 140.378 31.9866C140.803 32.1646 141.197 32.3391 141.56 32.5077C141.923 32.6774 142.225 32.8637 142.465 33.0678C142.706 33.2736 142.826 33.5392 142.826 33.8674C142.826 34.2974 142.66 34.6174 142.326 34.8274C141.993 35.0368 141.516 35.1415 140.89 35.1415C140.625 35.1415 140.366 35.1208 140.115 35.08C139.874 35.0417 139.635 34.9902 139.4 34.9256C139.195 34.8707 138.992 34.8039 138.795 34.7257C138.645 34.6682 138.499 34.6019 138.357 34.5269L137.681 36.3232C137.958 36.4664 138.387 36.6095 138.971 36.7538C139.555 36.8964 140.231 36.9679 140.999 36.9679C141.582 36.9679 142.117 36.9017 142.604 36.768C143.089 36.6349 143.503 36.4309 143.847 36.1547C144.192 35.8784 144.456 35.5318 144.647 35.1172C144.836 34.7026 144.93 34.2093 144.93 33.635C144.93 33.0619 144.81 32.584 144.571 32.1995C144.335 31.8206 144.027 31.4917 143.665 31.2313ZM152.702 26.0027V30.3784H148.77V26.0027H146.666V36.752H148.77V32.2522H152.702V36.752H154.804V26.0027H152.702ZM62.4077 36.671H86.0664V28.3905H72.4626V24.2502H86.0664V16.5611H72.4626V12.4208H86.0664V4.14028H62.4077V36.671ZM90.6432 0H92.2519V40.7906H90.6432V0ZM43.8243 15.6396L37.566 4.14028H27.5111V10.2673C27.0296 10.0431 25.894 9.62732 25.1452 9.46349V4.14028H16.2732C7.24086 4.14028 0.000105979 11.3591 0.000105979 20.3903C-0.00762747 22.5298 0.407952 24.6497 1.22292 26.628C2.03788 28.6063 3.23613 30.4038 4.74866 31.917C6.26119 33.4303 8.05813 34.6294 10.036 35.4453C12.0139 36.2611 14.1336 36.6777 16.2732 36.671H25.1452V27.2075C25.9707 26.8919 26.7632 26.4957 27.5111 26.0246C27.5146 26.0258 27.5111 36.671 27.5111 36.671H37.566V21.2928L43.8243 31.7299L49.9868 21.2928V36.671H60.0418V4.14028H49.9868L43.8243 15.6396ZM31.5431 25.7182C30.0828 25.3976 28.6597 24.9061 27.3443 24.1887C27.3159 24.1733 26.9385 24.4797 26.8906 24.5122C24.3307 26.2399 20.899 26.9828 17.8985 26.1115C17.1018 25.8803 16.2649 25.5325 15.5622 25.0889C14.2775 24.2803 13.2567 23.0383 12.7841 21.5886C11.4852 17.6039 14.4219 13.0738 19.3429 11.4709C20.2925 11.1593 21.2791 10.9748 22.2772 10.922C23.7215 10.8481 25.1819 11.0622 26.5245 11.6099C27.8476 12.1505 29.1187 13.0584 29.8899 14.2816C30.8026 15.7387 31.1145 17.493 30.76 19.1754C30.6813 19.5427 30.5624 19.9289 30.3939 20.2655C30.2182 20.6144 29.9568 20.9675 29.913 21.3656C29.8184 22.2185 30.508 23.0536 30.8416 23.7362C31.1095 24.2827 31.5123 24.7559 31.7513 25.3172C31.7637 25.3468 31.9039 25.7939 31.898 25.7927C31.7791 25.7691 31.6614 25.7436 31.5431 25.7182Z" fill="#E63C25"/>
<path d="M167.311 13.9205H166.165L165.987 12.4418H160.156V4.16126H161.776V10.9986H164.626V4.16126H166.247V10.9986H167.311V13.9205ZM168.459 4.16126H173.368V5.60444H170.08V7.53263H173.072V8.97581H170.08V10.9986H173.426V12.4418H168.459V4.16126ZM179.519 8.97581H176.492V12.4418H174.871V4.16126H176.492V7.53263H179.519V4.16126H181.14V12.4418H179.519V8.97581ZM188.687 5.60444H186.273V12.4418H184.653V5.60444H182.228V4.16126H188.687V5.60444ZM189.764 4.24407C190.095 4.18078 190.46 4.13169 190.858 4.0962C191.256 4.06071 191.653 4.04297 192.047 4.04297C192.457 4.04297 192.871 4.07668 193.284 4.14352C193.697 4.21035 194.071 4.34462 194.402 4.54572C194.734 4.74682 195.004 5.02658 195.213 5.3856C195.422 5.74462 195.526 6.21188 195.526 6.78738C195.526 7.30787 195.435 7.74792 195.254 8.10635C195.083 8.45139 194.836 8.75286 194.531 8.98764C194.226 9.21877 193.879 9.3876 193.509 9.48447C193.121 9.58764 192.72 9.63935 192.319 9.63826H192.131C191.947 9.63856 191.763 9.63067 191.579 9.6146C191.514 9.60992 191.449 9.60202 191.385 9.59094V12.4418H189.765L189.764 4.24407ZM192.177 5.43883C192.018 5.43883 191.869 5.44475 191.727 5.45658C191.585 5.46841 191.471 5.48201 191.384 5.49798V8.18324C191.416 8.19152 191.463 8.19921 191.526 8.2069C191.661 8.22263 191.798 8.23053 191.935 8.23056H192.083C192.295 8.23056 192.507 8.21104 192.715 8.17141C192.924 8.13238 193.111 8.05904 193.276 7.95257C193.442 7.84611 193.574 7.69824 193.673 7.50897C193.771 7.3197 193.82 7.07128 193.82 6.76372C193.82 6.50348 193.774 6.28877 193.679 6.11902C193.59 5.95466 193.462 5.81456 193.306 5.71091C193.146 5.60625 192.967 5.53392 192.779 5.49798C192.581 5.45825 192.379 5.43844 192.177 5.43883ZM164.982 19.8908L165.076 18.8143H165.016L164.461 19.9262L161.373 24.4805H160.154V16.2H161.775V20.707L161.656 21.8189H161.727L162.306 20.6715L165.394 16.2H166.601V24.4805H164.981L164.982 19.8908ZM172.918 21.014H169.89V24.48H168.27V16.1994H169.89V19.5708H172.918V16.1994H174.539V24.48H172.918V21.014ZM175.947 20.3403C175.947 18.9604 176.251 17.8975 176.858 17.1523C177.465 16.407 178.332 16.0344 179.46 16.0344C180.051 16.0344 180.567 16.1367 181.009 16.342C181.45 16.5472 181.817 16.8388 182.109 17.2173C182.4 17.5959 182.617 18.0495 182.76 18.5777C182.901 19.1065 182.972 19.6938 182.972 20.3403C182.972 21.7202 182.667 22.783 182.056 23.5283C181.445 24.2741 180.579 24.6473 179.458 24.6473C178.859 24.6473 178.338 24.5444 177.896 24.3392C177.465 24.1421 177.089 23.8416 176.802 23.4644C176.514 23.0847 176.299 22.6328 176.157 22.1034C176.018 21.5747 175.947 20.9862 175.947 20.3403ZM177.65 20.3403C177.65 20.7584 177.686 21.1417 177.757 21.493C177.828 21.845 177.937 22.146 178.083 22.3974C178.228 22.6505 178.416 22.8481 178.644 22.9889C178.873 23.1308 179.146 23.2018 179.46 23.2018C180.036 23.2018 180.482 22.977 180.798 22.5275C181.113 22.078 181.271 21.3487 181.271 20.3391C181.271 19.9369 181.237 19.5625 181.17 19.2153C181.113 18.8973 181.007 18.5901 180.857 18.3044C180.727 18.0573 180.536 17.8476 180.302 17.6952C180.072 17.5491 179.793 17.4764 179.461 17.4764C178.885 17.4764 178.439 17.7071 178.125 18.1684C177.808 18.6303 177.65 19.3543 177.65 20.3403ZM189.976 24.141C189.723 24.3214 189.402 24.4492 189.012 24.5279C188.621 24.6065 188.221 24.6456 187.811 24.6456C187.314 24.6456 186.843 24.5681 186.398 24.4137C185.952 24.2599 185.559 24.0115 185.221 23.6685C184.882 23.3254 184.612 22.88 184.41 22.3317C184.209 21.7835 184.109 21.1181 184.109 20.3385C184.109 19.5264 184.221 18.8462 184.446 18.2979C184.67 17.7502 184.962 17.3084 185.32 16.973C185.679 16.6383 186.079 16.3975 186.521 16.2515C186.963 16.1054 187.404 16.0326 187.846 16.0326C188.319 16.0326 188.72 16.064 189.046 16.1272C189.374 16.1905 189.644 16.2651 189.856 16.352L189.537 17.7242C189.332 17.6309 189.115 17.5672 188.892 17.5349C188.643 17.4959 188.342 17.4758 187.987 17.4758C187.333 17.4758 186.807 17.7088 186.408 18.1749C186.01 18.6416 185.81 19.3644 185.81 20.3438C185.81 20.7709 185.858 21.16 185.952 21.5114C186.047 21.8645 186.191 22.1644 186.383 22.4122C186.576 22.6618 186.816 22.8552 187.106 22.993C187.392 23.1308 187.727 23.2006 188.104 23.2006C188.46 23.2006 188.759 23.1651 189.004 23.0936C189.228 23.0318 189.442 22.9405 189.642 22.8221L189.976 24.141ZM197.026 17.6432H194.613V24.4805H192.994V17.6432H190.567V16.2H197.026V17.6432ZM198.103 16.2828C198.434 16.2195 198.799 16.1704 199.197 16.1349C199.596 16.0995 199.993 16.0817 200.387 16.0817C200.796 16.0817 201.21 16.1154 201.624 16.1823C202.037 16.2491 202.41 16.3834 202.742 16.5845C203.073 16.7856 203.344 17.0653 203.552 17.4243C203.76 17.7834 203.865 18.2506 203.865 18.8261C203.865 19.3466 203.774 19.7867 203.593 20.1451C203.423 20.4902 203.176 20.7916 202.87 21.0264C202.566 21.2575 202.218 21.4263 201.848 21.5232C201.46 21.6263 201.06 21.678 200.658 21.677H200.47C200.286 21.6773 200.102 21.6694 199.919 21.6533C199.854 21.6492 199.789 21.6415 199.724 21.6303V24.4805H198.104L198.103 16.2828ZM200.516 17.4776C200.357 17.4776 200.208 17.4835 200.066 17.4953C199.924 17.5071 199.81 17.5207 199.724 17.5367V20.222C199.755 20.2303 199.803 20.2379 199.865 20.2456C200.001 20.2614 200.137 20.2693 200.274 20.2693H200.422C200.635 20.2693 200.846 20.2498 201.055 20.2102C201.263 20.1711 201.451 20.0978 201.616 19.9913C201.781 19.8848 201.914 19.737 202.012 19.5477C202.111 19.3584 202.16 19.11 202.16 18.8025C202.16 18.5422 202.113 18.3275 202.019 18.1578C201.929 17.9937 201.801 17.8536 201.646 17.7496C201.486 17.645 201.307 17.5727 201.119 17.5367C200.92 17.497 200.719 17.4772 200.516 17.4776ZM208.277 22.6464H205.733L205.106 24.4811H203.485L206.466 16.1414H207.661L210.642 24.4811H208.939L208.277 22.6464ZM206.147 21.3452H207.921L207.306 19.5004L207.058 18.1992H206.998L206.749 19.5122L206.147 21.3452ZM216.237 21.014H213.209V24.48H211.589V16.1994H213.209V19.5708H216.237V16.1994H217.858V24.48H216.237V21.014ZM224.175 21.014H221.147V24.48H219.526V16.1994H221.147V19.5708H224.175V16.1994H225.795V24.48H224.175V21.014ZM227.463 16.2H229.084V19.1692C229.17 19.1538 229.309 19.1337 229.497 19.11C229.686 19.0864 229.872 19.0745 230.053 19.0745C230.447 19.0745 230.824 19.1142 231.182 19.1928C231.541 19.2715 231.855 19.4117 232.123 19.6128C232.391 19.8139 232.604 20.0859 232.762 20.429C232.92 20.7726 232.998 21.2038 232.998 21.7243C232.998 22.6866 232.718 23.4064 232.158 23.8832C231.598 24.3605 230.765 24.5982 229.661 24.5982C229.55 24.5982 229.408 24.5959 229.235 24.5923C229.048 24.5877 228.86 24.5777 228.673 24.5622C228.466 24.5463 228.259 24.5266 228.052 24.503C227.84 24.4794 227.643 24.4439 227.461 24.3966V16.2H227.463ZM229.782 23.1551C230.232 23.1551 230.596 23.0504 230.877 22.8416C231.157 22.6328 231.296 22.285 231.296 21.7947C231.296 21.535 231.257 21.3209 231.179 21.1559C231.108 21.0004 230.998 20.8659 230.859 20.7655C230.717 20.6677 230.556 20.6011 230.386 20.5704C230.191 20.5337 229.993 20.5159 229.794 20.5171C229.683 20.5171 229.554 20.5272 229.404 20.5467C229.254 20.5662 229.148 20.5881 229.085 20.6118V23.0841C229.171 23.1083 229.275 23.1255 229.398 23.1373C229.52 23.1497 229.648 23.1551 229.782 23.1551ZM233.851 16.2H235.472V24.4805H233.851V16.2ZM239.091 20.2693L236.784 16.2H238.737L240.014 18.5895L240.297 19.4294L240.569 18.5895L241.906 16.2H243.669L241.279 20.1865L243.787 24.4805H241.858L240.403 21.926L240.083 21.0512L239.776 21.926L238.309 24.4805H236.547L239.091 20.2693ZM165.584 36.7511H163.964V33.475L163.113 33.6992L161.386 36.7511H159.504L161.209 33.9949L161.917 33.4868C161.668 33.4255 161.429 33.3278 161.209 33.197C160.986 33.0664 160.79 32.896 160.629 32.6943C160.463 32.489 160.333 32.2465 160.239 31.9668C160.14 31.6596 160.092 31.3383 160.097 31.0157C160.097 30.5188 160.183 30.1007 160.357 29.7618C160.53 29.4234 160.771 29.1496 161.079 28.9396C161.387 28.7302 161.754 28.5806 162.179 28.4895C162.604 28.3984 163.066 28.3541 163.563 28.3541C164.079 28.3592 164.594 28.3952 165.106 28.4617C165.284 28.486 165.442 28.5173 165.586 28.5564L165.584 36.7511ZM163.36 29.7955C163.148 29.7955 162.946 29.815 162.757 29.8546C162.568 29.8937 162.402 29.9623 162.26 30.0563C162.118 30.1504 162.005 30.2811 161.924 30.4461C161.84 30.6123 161.8 30.8252 161.8 31.0849C161.8 31.3297 161.838 31.5368 161.917 31.7065C161.997 31.8763 162.106 32.0141 162.249 32.1199C162.391 32.227 162.557 32.3039 162.746 32.3512C162.935 32.3985 163.14 32.4222 163.361 32.4222H163.964V29.8546C163.876 29.8393 163.788 29.8259 163.699 29.8144C163.587 29.8004 163.474 29.7941 163.36 29.7955ZM167.963 33.0846V31.8183H168.506C168.608 31.8183 168.713 31.8159 168.819 31.8124C168.923 31.8083 169.028 31.8002 169.132 31.7881C169.215 31.7793 169.298 31.7659 169.38 31.7479C169.657 31.6846 169.893 31.5723 170.09 31.4108C170.287 31.2493 170.386 31.0293 170.386 30.7548C170.386 30.3757 170.266 30.1172 170.025 29.9794C169.786 29.8422 169.468 29.7724 169.074 29.7724C168.718 29.7724 168.388 29.8185 168.079 29.9132C167.772 30.0078 167.54 30.0983 167.381 30.1858L166.967 28.8136C167.054 28.7663 167.178 28.7155 167.34 28.6599C167.741 28.5243 168.156 28.4288 168.576 28.3748C168.823 28.3429 169.072 28.327 169.321 28.3275C169.668 28.3275 170.007 28.3606 170.339 28.4221C170.652 28.4779 170.953 28.5905 171.226 28.7545C171.486 28.913 171.695 29.1224 171.854 29.3868C172.011 29.6506 172.089 29.9883 172.089 30.3976C172.089 30.8081 171.981 31.1866 171.764 31.5338C171.547 31.881 171.198 32.1336 170.717 32.2909V32.35C171.229 32.4535 171.63 32.6742 171.917 33.0125C172.204 33.3514 172.348 33.805 172.348 34.3734C172.348 34.823 172.258 35.2068 172.076 35.5262C171.894 35.8456 171.656 36.107 171.361 36.3123C171.065 36.5187 170.724 36.6695 170.337 36.7683C169.951 36.8677 169.557 36.9162 169.154 36.9162C168.634 36.9162 168.161 36.8736 167.736 36.786C167.309 36.6997 166.983 36.5974 166.754 36.4785L167.17 35.0696C167.352 35.156 167.612 35.2453 167.951 35.3363C168.292 35.4263 168.696 35.4718 169.162 35.4718C169.337 35.4718 169.513 35.4505 169.691 35.4073C169.869 35.3647 170.029 35.2932 170.172 35.195C170.314 35.0968 170.43 34.9685 170.516 34.8111C170.602 34.6538 170.647 34.4639 170.647 34.2427C170.647 33.8725 170.509 33.5915 170.232 33.4028C169.954 33.2142 169.458 33.1118 168.746 33.0947C168.675 33.0878 168.604 33.0839 168.532 33.0829H167.963V33.0846ZM173.711 28.4706H175.332V31.4404C175.418 31.4244 175.557 31.4043 175.745 31.38C175.929 31.3568 176.115 31.3448 176.301 31.3439C176.694 31.3439 177.072 31.3836 177.43 31.4622C177.789 31.5415 178.103 31.6811 178.371 31.8822C178.639 32.0833 178.852 32.3559 179.01 32.699C179.168 33.042 179.246 33.4744 179.246 33.9931C179.246 34.9554 178.965 35.6753 178.406 36.1514C177.846 36.6293 177.013 36.8677 175.909 36.8677C175.798 36.8677 175.656 36.8653 175.483 36.8617C175.309 36.857 175.122 36.8481 174.921 36.8316C174.72 36.815 174.513 36.7955 174.3 36.7724C174.101 36.7505 173.903 36.7146 173.709 36.6648V28.4706H173.711ZM176.03 35.4257C176.48 35.4257 176.844 35.3216 177.125 35.1134C177.405 34.904 177.544 34.5556 177.544 34.0659C177.544 33.8056 177.505 33.5915 177.427 33.4271C177.347 33.2615 177.242 33.1314 177.107 33.0367C176.965 32.9387 176.804 32.8722 176.634 32.8415C176.438 32.8048 176.24 32.787 176.042 32.7883C175.931 32.7883 175.802 32.7984 175.652 32.8179C175.544 32.8282 175.437 32.85 175.333 32.8829V35.3553C175.419 35.3789 175.523 35.3967 175.645 35.4091C175.768 35.4203 175.896 35.4257 176.03 35.4257ZM180.099 28.4706H181.72V36.7511H180.099V28.4706ZM185.434 33.2142H185.008V36.7506H183.388V28.47H185.008V32.1371L185.387 31.9715L187.67 28.47H189.514L187.102 31.9484L186.463 32.3979L187.124 32.8587L189.881 36.7506H187.882L185.434 33.2142ZM190.391 32.6109C190.391 31.2316 190.695 30.1687 191.301 29.4223C191.908 28.677 192.776 28.3044 193.904 28.3044C194.495 28.3044 195.011 28.4073 195.453 28.6125C195.894 28.8184 196.261 29.1094 196.552 29.4873C196.844 29.8653 197.061 30.3189 197.204 30.8477C197.345 31.3771 197.416 31.9638 197.416 32.6097C197.416 33.9902 197.11 35.053 196.499 35.7983C195.888 36.5441 195.022 36.9162 193.903 36.9162C193.302 36.9162 192.782 36.8144 192.34 36.608C191.909 36.4109 191.533 36.1104 191.246 35.7332C190.958 35.3547 190.742 34.9022 190.601 34.3734C190.462 33.8458 190.391 33.2573 190.391 32.6109ZM192.093 32.6109C192.093 33.029 192.13 33.4135 192.2 33.7648C192.271 34.1156 192.38 34.4172 192.526 34.6692C192.671 34.9211 192.859 35.1187 193.088 35.2606C193.317 35.402 193.589 35.4724 193.904 35.4724C194.48 35.4724 194.926 35.2482 195.241 34.7981C195.556 34.3486 195.714 33.6193 195.714 32.6097C195.714 32.2069 195.681 31.8331 195.614 31.4865C195.547 31.1399 195.442 30.8353 195.3 30.5756C195.17 30.3288 194.979 30.1192 194.746 29.9664C194.517 29.8209 194.237 29.7482 193.906 29.7482C193.329 29.7482 192.883 29.9794 192.568 30.4402C192.251 30.9015 192.093 31.6255 192.093 32.6109ZM204.385 30.3982C204.385 30.6046 204.359 30.8087 204.308 31.0139C204.257 31.2191 204.172 31.406 204.055 31.5752C203.937 31.7444 203.784 31.8952 203.597 32.0247C203.39 32.1639 203.159 32.2623 202.915 32.3145V32.3855C203.15 32.4246 203.373 32.4926 203.586 32.5872C203.798 32.6813 203.982 32.8114 204.14 32.977C204.297 33.142 204.421 33.3431 204.511 33.5809C204.601 33.8186 204.646 34.0972 204.646 34.4208C204.646 34.8466 204.556 35.2163 204.374 35.5268C204.195 35.8347 203.946 36.0961 203.647 36.2898C203.329 36.4928 202.979 36.6408 202.612 36.7275C202.221 36.8222 201.819 36.8697 201.417 36.8688H200.903C200.694 36.8688 200.469 36.8629 200.228 36.8511C199.988 36.8387 199.743 36.8215 199.494 36.7973C199.246 36.7748 199.019 36.7381 198.815 36.6908V28.5286C199.192 28.4699 199.571 28.4265 199.951 28.3984C200.408 28.3655 200.865 28.3493 201.323 28.3499C201.708 28.3499 202.086 28.3795 202.452 28.4381C202.818 28.4978 203.147 28.6013 203.434 28.7509C203.721 28.9012 203.952 29.11 204.126 29.3785C204.298 29.6488 204.385 29.9889 204.385 30.3982ZM200.918 31.949C201.029 31.949 201.156 31.9449 201.303 31.9372C201.448 31.9283 201.569 31.9177 201.662 31.9005C201.947 31.815 202.211 31.6716 202.438 31.4794C202.655 31.2925 202.763 31.0476 202.763 30.7418C202.763 30.539 202.724 30.371 202.645 30.2385C202.57 30.1084 202.462 29.9998 202.333 29.9226C202.196 29.8415 202.046 29.786 201.889 29.7588C201.717 29.727 201.543 29.7113 201.368 29.7121C201.162 29.7121 200.974 29.7168 200.8 29.7245C200.626 29.7322 200.492 29.7428 200.398 29.7594V31.9484L200.918 31.949ZM201.432 35.5096C201.625 35.5096 201.814 35.4866 201.995 35.4393C202.177 35.3931 202.338 35.3204 202.476 35.2234C202.615 35.1252 202.729 35.0028 202.813 34.8537C202.898 34.7058 202.94 34.5302 202.94 34.3267C202.94 34.0682 202.89 33.866 202.789 33.7181C202.688 33.5702 202.557 33.4549 202.394 33.3727C202.232 33.2905 202.05 33.2372 201.848 33.2136C201.648 33.1907 201.446 33.1791 201.245 33.1787H200.396V35.4375C200.435 35.4535 200.497 35.4653 200.582 35.4742C200.667 35.4813 200.758 35.4872 200.855 35.4907C200.952 35.4949 201.052 35.4996 201.157 35.5031C201.263 35.5073 201.354 35.5096 201.432 35.5096Z" fill="#393939"/>
</g>
<defs>
<clipPath id="clip0_276_1249">
<rect width="244" height="40.7906" fill="white"/>
</clipPath>
</defs>
</svg>
