<svg width="120" height="98" viewBox="0 0 120 98" fill="none" xmlns="http://www.w3.org/2000/svg">
<path d="M54.7913 57.9183C48.0801 57.9183 42.571 52.407 42.571 45.6933C42.571 38.9796 48.0801 33.5686 54.7913 33.5686C61.5025 33.5686 67.0117 38.9796 67.0117 45.7936C67.0117 52.6075 61.5025 57.9183 54.7913 57.9183ZM54.7913 37.7772C50.384 37.7772 46.8781 41.2843 46.8781 45.6933C46.8781 50.1023 50.384 53.6095 54.7913 53.6095C59.1987 53.6095 62.7045 50.1023 62.7045 45.6933C62.7045 41.3846 59.1987 37.7772 54.7913 37.7772Z" fill="#393939"/>
<path d="M73.5225 78.7607H36.0601C34.8581 78.7607 33.9566 77.7586 33.9566 76.6564V72.1472C33.9566 65.7341 39.1653 60.5234 45.576 60.5234H64.1068C70.5175 60.5234 75.7262 65.7341 75.7262 72.1472V76.6564C75.626 77.8588 74.7245 78.7607 73.5225 78.7607ZM38.2638 74.4519H71.419V72.1472C71.419 68.139 68.1135 64.8322 64.1068 64.8322H45.576C41.5693 64.8322 38.2638 68.139 38.2638 72.1472V74.4519Z" fill="#393939"/>
<mask id="mask0_70_8612" style="mask-type:luminance" maskUnits="userSpaceOnUse" x="0" y="0" width="120" height="98">
<path d="M120 0H0V98H120V0Z" fill="white"/>
</mask>
<g mask="url(#mask0_70_8612)">
<path d="M119.499 19.1391C119.499 8.61759 108.08 0 94.1569 0C80.2337 0 68.7145 8.61759 68.7145 19.1391C68.7145 21.2434 69.2154 23.2474 70.0167 25.1513H11.1185C8.51419 25.1513 6.31052 27.456 6.31052 30.362V81.4663H4.60768C2.10351 81.4663 0 83.4703 0 85.8752C0 92.3885 5.80968 97.7996 13.0217 97.7996H96.3606C103.472 97.7996 109.282 92.4887 109.282 85.8752C109.282 83.4703 107.179 81.4663 104.674 81.4663H102.972V37.1759C112.588 34.3701 119.499 27.3558 119.499 19.1391ZM94.1569 4.30879C105.776 4.30879 115.292 11.0225 115.292 19.2393C115.292 27.456 105.776 34.1697 94.1569 34.1697C91.6527 34.1697 89.2487 33.8691 86.9449 33.2679C85.8431 32.9673 85.1419 33.4683 84.2404 34.0695C83.0384 34.8712 80.8347 36.3742 76.9282 37.3763C78.6311 33.9693 79.5325 30.0613 77.7295 28.5583C74.6244 25.8528 73.0217 22.6462 73.0217 19.2393C73.0217 10.9223 82.5376 4.30879 94.1569 4.30879ZM104.674 85.775C104.875 85.775 104.975 85.8752 105.075 85.8752C105.075 90.0838 101.169 93.4908 96.3606 93.4908H13.0217C8.21369 93.4908 4.30718 90.0838 4.30718 85.8752C4.30718 85.8752 4.40735 85.775 4.70785 85.775H37.8631C39.3656 86.6769 41.4691 87.7791 43.5726 87.7791H65.8097C68.2137 87.7791 70.4174 87.0777 71.7195 85.8752L104.674 85.775ZM98.6644 81.4663H71.6194C70.6177 81.4663 69.616 81.8671 68.9149 82.4683C68.414 82.8691 67.3122 83.3701 65.7095 83.3701H43.5726C42.7713 83.3701 41.4691 82.8691 40.1669 81.9673C39.4658 81.5665 38.7646 81.366 37.9633 81.366H10.6177V30.2618C10.6177 29.7607 10.9182 29.3599 11.1185 29.3599H72.7212C73.222 29.9611 73.823 30.6626 74.424 31.1636C74.3239 32.2658 73.4224 35.4724 71.3189 37.8773C70.6177 38.6789 70.5175 39.7812 71.0184 40.7832C71.5192 41.6851 72.3205 42.1861 73.3222 42.1861C73.4224 42.1861 73.5225 42.1861 73.6227 42.1861C80.9349 41.2842 84.8414 38.5787 86.5442 37.3763C88.9482 37.9775 91.4524 38.1779 94.0568 38.1779C95.6594 38.1779 97.1619 38.0777 98.6644 37.8773V81.4663Z" fill="#393939"/>
</g>
<path d="M92.7546 17.1349H81.9366C80.7346 17.1349 79.8331 16.1328 79.8331 15.0306C79.8331 13.8281 80.8347 12.9263 81.9366 12.9263H92.6544C93.8564 12.9263 94.7579 13.9283 94.7579 15.0306C94.8581 16.1328 93.8564 17.1349 92.7546 17.1349Z" fill="#393939"/>
<path d="M105.576 25.1512H81.9366C80.7346 25.1512 79.8331 24.1492 79.8331 23.0469C79.8331 21.8445 80.8347 20.9426 81.9366 20.9426H105.576C106.778 20.9426 107.679 21.9447 107.679 23.0469C107.679 24.1492 106.778 25.1512 105.576 25.1512Z" fill="#393939"/>
</svg>
