<svg width="211" height="303" viewBox="0 0 211 303" fill="none" xmlns="http://www.w3.org/2000/svg">
<g clip-path="url(#clip0_1160_7153)">
<path d="M71.8874 250.744C65.5986 255.85 73.5138 273.558 103.44 273.558C133.366 273.558 144.534 256.936 134.233 250.744C124.041 244.442 123.824 225.539 134.233 208.482C144.642 191.317 57.1413 199.9 71.8874 208.482C86.6336 217.065 78.1762 245.638 71.8874 250.744Z" fill="#F8A680"/>
<path d="M71.8875 250.744L70.6948 249.331C69.8274 250.092 69.1768 250.961 68.6347 252.047C68.201 253.025 67.9841 254.22 67.9841 255.415C67.9841 257.588 68.7431 259.978 70.1527 262.26C72.3212 265.736 76.1162 268.995 81.5376 271.385C87.0674 273.884 94.2236 275.405 103.223 275.405C114.825 275.405 123.716 273.015 129.896 269.539C132.932 267.8 135.318 265.736 137.052 263.672C138.679 261.499 139.655 259.218 139.655 256.828C139.655 255.307 139.221 253.894 138.462 252.591C137.703 251.287 136.51 250.2 135.101 249.331C132.932 247.919 131.197 245.963 130.005 243.247C128.812 240.64 128.161 237.381 128.27 233.687C128.27 226.408 130.764 217.717 135.751 209.46C136.51 208.265 136.836 207.07 136.836 205.875C136.836 204.897 136.51 203.919 136.077 203.05C135.209 201.638 133.8 200.66 132.065 199.9C129.571 198.705 126.318 197.944 122.523 197.51C118.728 197.075 114.5 196.858 110.054 196.858C100.838 196.858 90.7539 197.835 82.9471 199.248C79.0437 200.008 75.6825 200.877 73.1887 201.855C71.8875 202.398 70.9117 202.942 70.0443 203.593C69.6105 203.919 69.2853 204.354 68.96 204.788C68.6347 205.223 68.4178 205.875 68.4178 206.527C68.4178 207.396 68.7431 208.156 69.2853 208.7C69.719 209.243 70.3695 209.677 71.0201 210.112C73.6224 211.633 75.4656 213.914 76.6583 216.63C77.851 219.346 78.3932 222.714 78.3932 226.082C78.3932 231.08 77.3089 236.294 75.7909 240.64C75.0319 242.813 74.1645 244.768 73.2971 246.289C72.4297 247.81 71.5622 248.897 70.9117 249.44L71.8875 250.744L73.0802 252.156C74.2729 251.178 75.3572 249.766 76.3331 248.028C77.851 245.42 79.2606 241.944 80.2364 238.141C81.2123 234.339 81.8629 230.21 81.8629 226.082C81.8629 222.28 81.3207 218.477 79.9112 215.218C78.5016 211.85 76.2246 208.917 72.7549 206.961C72.3212 206.744 71.996 206.527 71.996 206.418L71.5622 206.635H71.996C71.996 206.527 71.996 206.418 71.996 206.418L71.5622 206.635H71.996H71.4538L71.996 206.744V206.635H71.4538L71.996 206.744C71.996 206.744 72.1044 206.635 72.2128 206.527C72.5381 206.309 73.0802 205.875 73.9476 205.549C75.3572 204.897 77.5258 204.245 80.128 203.593C87.9348 201.747 99.5365 200.551 110.054 200.551C116.668 200.551 122.848 201.095 127.186 202.181C129.354 202.724 131.089 203.376 132.065 204.137C132.607 204.463 132.932 204.788 133.041 205.114C133.258 205.44 133.258 205.658 133.258 205.984C133.258 206.418 133.149 206.961 132.715 207.722C127.402 216.522 124.692 225.756 124.692 233.796C124.692 237.815 125.342 241.618 126.752 244.768C128.161 248.028 130.33 250.635 133.258 252.482C134.342 253.134 134.992 253.786 135.426 254.546C135.86 255.307 136.077 256.067 136.077 256.936C136.077 258.24 135.534 259.87 134.233 261.608C132.282 264.107 128.812 266.714 123.607 268.778C118.403 270.734 111.68 272.037 103.332 272.037C91.8382 272.037 83.8145 269.321 78.7185 265.953C76.2246 264.215 74.3814 262.368 73.2971 260.521C72.1044 258.674 71.6707 257.045 71.6707 255.633C71.6707 254.872 71.7791 254.22 71.996 253.677C72.2128 253.134 72.5381 252.699 72.9718 252.373L71.8875 250.744Z" fill="#0F0A0A"/>
<path d="M198.314 301.153C196.037 291.158 191.7 280.946 184.002 272.581C170.231 257.697 134.125 250.852 134.125 250.852H71.8876C71.8876 250.852 39.2509 259.435 26.1311 273.124C19.9508 279.534 14.3125 290.615 10.5176 301.153H198.314Z" fill="#F4F4F4"/>
<mask id="mask0_1160_7153" style="mask-type:luminance" maskUnits="userSpaceOnUse" x="7" y="248" width="195" height="55">
<path d="M201.35 248.028H7.58984V302.891H201.35V248.028Z" fill="white"/>
</mask>
<g mask="url(#mask0_1160_7153)">
<path d="M198.314 301.153L200.049 300.719C197.663 290.506 193.326 279.968 185.303 271.277C181.616 267.366 176.628 263.998 171.207 261.282C163.075 257.153 153.859 254.112 146.702 252.047C139.546 250.092 134.45 249.114 134.45 249.005C134.342 249.005 134.233 249.005 134.125 249.005H71.8874C71.7789 249.005 71.5621 249.005 71.4536 249.114C71.4536 249.114 63.2132 251.287 53.2378 255.198C48.2502 257.153 42.9372 259.544 37.8411 262.368C32.8534 265.193 28.1911 268.343 24.7214 271.929C21.4685 275.297 18.4326 279.859 15.7219 284.748C13.0112 289.746 10.6258 295.178 8.6741 300.501C8.45725 301.044 8.56567 301.696 8.89096 302.131C9.21624 302.565 9.75838 302.891 10.4089 302.891H198.314C198.856 302.891 199.398 302.674 199.723 302.24C200.049 301.805 200.157 301.262 200.049 300.719L198.314 301.153V299.306H10.5174V301.153L12.2522 301.805C14.0955 296.59 16.4809 291.267 19.0831 286.487C21.6854 281.706 24.6129 277.469 27.4321 274.427C30.468 271.168 34.9136 268.126 39.6844 265.519C46.949 261.499 55.0811 258.24 61.4783 256.067C64.6227 254.981 67.4418 254.111 69.2851 253.568C70.2609 253.242 71.0199 253.025 71.5621 252.916C71.7789 252.808 71.9958 252.808 72.1042 252.808C72.2126 252.808 72.3211 252.699 72.3211 252.699L71.8874 250.961V252.808H134.233V250.961L133.908 252.699H134.016C134.992 252.916 144.1 254.763 154.509 258.24C159.714 259.978 165.243 262.151 170.231 264.758C175.219 267.366 179.773 270.408 182.809 273.776C190.29 281.815 194.41 291.81 196.687 301.588L198.314 301.153Z" fill="#0F0A0A"/>
</g>
<path d="M134.233 250.744C131.739 245.203 127.836 239.988 126.643 236.077C126.643 236.077 113.415 240.423 103.115 240.423C92.8139 240.423 79.1521 235.099 79.1521 235.099C77.6341 239.228 74.056 247.376 71.9958 250.744C77.6341 261.391 128.27 263.672 134.233 250.744Z" fill="#F4F4F4"/>
<path d="M134.233 250.744L135.86 249.983C134.559 247.158 132.932 244.334 131.523 241.835C130.113 239.336 128.92 237.163 128.378 235.425C128.27 234.991 127.944 234.556 127.511 234.339C127.077 234.122 126.535 234.122 126.101 234.23C126.101 234.23 126.101 234.23 125.993 234.23C125.234 234.447 121.872 235.534 117.535 236.512C113.198 237.489 107.777 238.467 103.223 238.467C98.3437 238.467 92.4886 237.163 87.8262 235.86C85.5493 235.208 83.4891 234.556 82.0796 234.013C81.3206 233.796 80.7784 233.578 80.4532 233.47C80.2363 233.361 80.1279 233.361 80.0194 233.252C79.911 233.252 79.911 233.144 79.911 233.144C79.4773 232.926 78.9352 233.035 78.5015 233.144C78.0678 233.361 77.7425 233.687 77.5256 234.122C76.7666 236.186 75.5739 239.228 74.1644 242.052C73.5138 243.465 72.8632 244.986 72.2127 246.181C71.5621 247.484 71.02 248.571 70.4778 249.331C70.1525 249.874 70.1525 250.635 70.3694 251.178C70.9115 252.156 71.6705 252.916 72.5379 253.677C74.0559 254.981 76.0076 255.958 78.2846 256.936C81.7543 258.24 85.983 259.326 90.5369 259.978C95.1993 260.63 100.079 261.065 105.066 261.065C111.897 261.065 118.62 260.413 124.149 258.892C126.86 258.131 129.354 257.153 131.414 255.958C133.474 254.763 135.101 253.134 135.968 251.178C136.185 250.744 136.185 250.092 135.968 249.657L134.233 250.744L132.607 249.983C132.065 251.07 131.089 252.156 129.462 253.134C127.077 254.655 123.39 255.85 119.162 256.61C114.933 257.371 110.054 257.805 105.066 257.805C97.8016 257.805 90.4285 257.045 84.5734 255.524C81.6459 254.763 79.152 253.894 77.2003 252.916C76.2245 252.373 75.4655 251.939 74.8149 251.395C74.1644 250.852 73.8391 250.418 73.5138 249.983L71.8874 250.852L73.4054 251.83C73.9475 250.961 74.5981 249.766 75.2486 248.354C77.2003 244.334 79.4773 239.01 80.67 235.86L78.9352 235.208L78.2846 236.946C78.2846 236.946 81.7543 238.359 86.5251 239.662C91.2959 240.966 97.3679 242.378 102.898 242.378C108.319 242.378 114.283 241.292 118.945 240.097C123.607 239.01 126.969 237.924 126.969 237.815L126.426 236.077L124.692 236.62C125.451 238.902 126.752 241.183 128.161 243.682C129.571 246.181 131.197 248.897 132.39 251.504L134.233 250.744Z" fill="#0F0A0A"/>
<path d="M136.076 8.9086C136.076 12.711 132.932 15.8616 129.137 15.8616C125.342 15.8616 122.198 12.711 122.198 8.9086C122.198 5.10616 125.342 1.95557 129.137 1.95557C132.932 1.95557 136.076 4.99752 136.076 8.9086Z" fill="#EE2A28"/>
<path d="M136.076 8.90857H134.233C134.233 10.3209 133.691 11.6246 132.715 12.6024C131.739 13.5801 130.547 14.1233 129.029 14.1233C127.619 14.1233 126.318 13.5801 125.342 12.6024C124.366 11.6246 123.824 10.4295 123.824 8.90857C123.824 7.49624 124.366 6.19254 125.342 5.21477C126.318 4.237 127.511 3.6938 129.029 3.6938C130.438 3.6938 131.739 4.237 132.715 5.21477C133.691 6.19254 134.233 7.38759 134.233 8.90857H137.92C137.92 4.01972 134.016 0.108643 129.137 0.108643C124.258 0.108643 120.354 4.01972 120.354 8.90857C120.354 13.7974 124.258 17.7085 129.137 17.7085C134.016 17.7085 137.92 13.7974 137.92 8.90857H136.076Z" fill="#0F0A0A"/>
<path d="M184.327 109.076C181.725 109.076 179.231 109.836 177.062 111.031C177.062 103.318 177.062 95.7128 177.062 88.4339C177.062 -1.41231 30.143 -0.760464 30.143 88.4339C30.143 97.0165 30.143 104.513 30.143 111.14C27.866 109.836 25.2637 108.967 22.6615 108.967C13.0114 108.967 5.09619 118.636 5.09619 130.695C5.09619 142.646 12.903 152.423 22.6615 152.423C25.3721 152.423 27.866 151.554 30.143 150.251C30.143 154.814 30.143 159.702 30.143 165.026C30.143 192.621 54.3223 227.603 99.5366 227.603C144.642 227.603 177.171 190.122 177.171 165.026C177.171 160.897 177.171 155.9 177.171 150.359C179.448 151.663 181.833 152.315 184.435 152.315C194.085 152.315 202.001 142.646 202.001 130.587C201.892 118.745 193.977 109.076 184.327 109.076Z" fill="#F8A680"/>
<path d="M184.327 109.076V107.229C181.399 107.229 178.58 108.098 176.195 109.51L177.062 111.14H178.905C178.905 103.426 178.905 95.8215 178.905 88.5425C178.905 77.1352 176.52 67.0316 172.4 58.3403C166.219 45.412 156.027 35.6343 143.883 29.2245C131.739 22.8147 117.752 19.5554 103.765 19.5554C85.0071 19.5554 66.1407 25.3134 51.9367 36.8294C44.8889 42.5873 38.9254 49.7576 34.6967 58.4489C30.5765 67.0316 28.191 77.1352 28.191 88.5425C28.191 97.1252 28.191 104.621 28.191 111.249H30.0343L31.0102 109.728C28.5163 108.207 25.5888 107.337 22.5528 107.337C19.8421 107.337 17.2399 107.989 14.8545 109.293C11.3848 111.14 8.45724 114.182 6.39711 117.876C4.33699 121.569 3.14429 126.132 3.14429 130.913C3.14429 137.322 5.20441 143.08 8.67409 147.426C10.4089 149.599 12.4691 151.337 14.8545 152.532C17.2399 153.727 19.8421 154.488 22.5528 154.488C25.5888 154.488 28.5163 153.51 31.0102 152.098L30.0343 150.577H28.191C28.191 155.14 28.191 160.028 28.191 165.352C28.191 179.692 34.4798 195.771 46.4069 208.265C58.4423 220.759 76.3329 229.776 99.3195 229.776C122.415 229.776 142.257 220.216 156.244 207.396C163.292 200.986 168.822 193.816 172.725 186.537C176.628 179.258 178.688 171.979 178.688 165.352C178.688 161.223 178.688 156.226 178.688 150.685H176.845L175.978 152.315C178.472 153.727 181.182 154.596 184.11 154.596C186.821 154.596 189.423 153.944 191.808 152.641C195.278 150.794 198.205 147.752 200.266 144.058C202.326 140.364 203.518 135.801 203.518 131.021C203.518 124.611 201.458 118.745 197.989 114.508C196.254 112.335 194.194 110.597 191.808 109.402C189.423 108.207 186.821 107.446 184.11 107.446V111.031C186.278 111.031 188.23 111.574 190.073 112.552C192.892 113.965 195.278 116.463 197.013 119.723C198.748 122.873 199.832 126.784 199.832 131.021C199.832 136.671 197.989 141.668 195.061 145.253C193.651 147.1 191.917 148.512 190.073 149.49C188.23 150.468 186.17 151.011 184.11 151.011C181.833 151.011 179.773 150.359 177.713 149.273C177.17 148.947 176.411 148.947 175.869 149.273C175.327 149.599 175.002 150.142 175.002 150.794C175.002 156.335 175.002 161.332 175.002 165.46C175.002 171.327 173.05 178.171 169.472 185.016C164.051 195.337 154.726 205.658 142.691 213.371C130.655 221.085 115.8 226.299 99.3195 226.299C77.2003 226.299 60.394 217.825 49.0091 205.875C37.6242 194.033 31.7692 178.715 31.7692 165.46C31.7692 160.137 31.7692 155.248 31.7692 150.685C31.7692 150.033 31.4439 149.382 30.9017 149.056C30.3596 148.73 29.6006 148.73 29.0585 149.056C26.9983 150.251 24.8298 151.011 22.4444 151.011C20.2758 151.011 18.3241 150.468 16.4809 149.49C13.6618 148.078 11.2764 145.579 9.54151 142.32C7.80667 139.169 6.7224 135.258 6.7224 131.021C6.7224 125.372 8.56566 120.374 11.4932 116.789C12.9028 115.051 14.6376 113.53 16.4809 112.661C18.3241 111.683 20.3843 111.14 22.4444 111.14C24.8298 111.14 26.9983 111.9 29.0585 113.095C29.6006 113.421 30.3596 113.421 30.9017 113.095C31.4439 112.769 31.7692 112.226 31.7692 111.466C31.7692 104.73 31.7692 97.3424 31.7692 88.7598C31.7692 77.787 34.0461 68.3353 37.9495 60.1872C43.913 47.8021 53.5631 38.5676 65.0564 32.4837C76.6582 26.2912 90.2116 23.2492 103.657 23.2492C121.656 23.2492 139.546 28.6813 152.883 39.5454C159.605 44.9774 165.135 51.7132 168.93 59.8613C172.833 68.0093 175.002 77.5698 175.002 88.4339C175.002 95.6042 175.002 103.318 175.002 111.031C175.002 111.683 175.327 112.226 175.869 112.552C176.411 112.878 177.17 112.878 177.713 112.552C179.664 111.466 181.833 110.814 184.11 110.814V109.076" fill="#0F0A0A"/>
<path d="M136.402 53.7773C131.414 85.3919 40.9857 71.7031 30.143 111.248C27.3239 108.641 20.4929 109.293 20.4929 109.293C20.4929 109.293 20.7098 68.8785 25.8059 59.9699C50.6358 17.2739 107.127 5.10614 121.222 9.66906C135.318 14.232 138.896 37.5898 136.402 53.7773Z" fill="#0F0A0A"/>
<path d="M132.173 56.4933C137.161 88.1079 165.786 71.7031 176.628 111.248C179.447 108.641 186.278 109.293 186.278 109.293C186.278 109.293 189.64 74.9623 184.76 60.0785C167.846 42.6959 139.546 21.8368 121.981 15.9702C111.247 26.0738 129.571 40.3058 132.173 56.4933Z" fill="#0F0A0A"/>
<path d="M92.5972 153.293C93.6815 154.488 95.1995 155.357 96.7175 155.9C98.2355 156.443 99.9703 156.66 101.597 156.66C103.006 156.66 104.307 156.443 105.5 156.117C106.476 155.791 107.018 154.814 106.693 153.836C106.368 152.858 105.392 152.315 104.416 152.641C103.657 152.858 102.681 153.075 101.597 153.075C100.404 153.075 98.9945 152.858 97.9102 152.532C96.7175 152.098 95.8501 151.554 95.3079 150.902C94.6574 150.142 93.4647 150.142 92.7057 150.794C92.0551 151.446 91.9467 152.641 92.5972 153.293Z" fill="#0F0A0A"/>
<path d="M127.186 127.979C127.186 124.503 128.053 121.243 129.463 119.071C130.113 117.984 130.98 117.115 131.739 116.572C132.498 116.029 133.366 115.811 134.125 115.811C134.992 115.811 135.751 116.029 136.51 116.572C137.703 117.332 138.896 118.853 139.763 120.809C140.631 122.764 141.173 125.263 141.173 127.871C141.173 128.848 142.04 129.717 143.016 129.717C143.992 129.717 144.859 128.957 144.859 127.871C144.859 123.742 143.775 119.94 142.04 117.115C141.173 115.703 139.98 114.508 138.679 113.639C137.378 112.769 135.86 112.226 134.233 112.226C132.607 112.226 131.089 112.769 129.788 113.639C127.836 114.942 126.318 117.006 125.234 119.505C124.15 122.004 123.607 124.829 123.607 127.979C123.607 128.957 124.475 129.826 125.451 129.826C126.427 129.826 127.186 129.066 127.186 127.979Z" fill="#0F0A0A"/>
<path d="M79.2606 127.979C79.2606 123.851 78.1763 120.048 76.4415 117.224C75.5741 115.811 74.3814 114.616 73.0802 113.747C71.7791 112.878 70.2611 112.335 68.6347 112.335C67.0083 112.335 65.4903 112.878 64.1892 113.747C62.2375 115.051 60.7195 117.115 59.6352 119.614C58.5509 122.113 58.0088 124.937 58.0088 128.088C58.0088 129.066 58.8762 129.935 59.8521 129.935C60.8279 129.935 61.6953 129.174 61.6953 128.088C61.6953 124.611 62.5627 121.352 63.9723 119.179C64.6229 118.093 65.4903 117.224 66.2493 116.68C67.0083 116.137 67.8757 115.92 68.6347 115.92C69.5021 115.92 70.2611 116.137 71.0201 116.68C72.2128 117.441 73.4055 118.962 74.2729 120.917C75.1403 122.873 75.6825 125.372 75.6825 127.979C75.6825 128.957 76.5499 129.826 77.5257 129.826C78.3932 129.826 79.2606 129.066 79.2606 127.979Z" fill="#0F0A0A"/>
<path d="M196.145 107.989C156.895 132.542 107.777 69.313 107.777 69.313C107.777 69.313 60.2856 79.0907 25.6973 67.0316C1.62635 58.7749 -10.7344 18.7949 20.3843 8.9086C51.3946 -0.97774 99.5364 -2.06415 137.161 15.8616C177.93 35.417 235.288 83.4364 196.145 107.989Z" fill="#EE2A28"/>
<path d="M196.145 107.989L195.17 106.468C189.098 110.271 182.809 111.9 176.52 111.9C168.388 111.9 160.039 109.293 152.232 105.165C140.414 99.0807 129.679 89.8462 121.873 82.1327C117.969 78.2216 114.825 74.7451 112.656 72.2463C111.572 71.0513 110.705 69.9649 110.162 69.313C109.837 68.9871 109.62 68.6612 109.512 68.5525C109.403 68.4439 109.403 68.4439 109.403 68.3353V68.2266C108.97 67.6834 108.319 67.4661 107.56 67.5748C107.56 67.5748 107.452 67.5748 107.343 67.5748C105.283 68.0093 88.1516 71.2686 67.5504 71.2686C54.1053 71.2686 39.2508 69.8562 26.3479 65.4019C19.8422 63.1205 14.204 58.4489 10.1922 52.4737C6.18037 46.4984 3.68654 39.5454 3.68654 32.9183C3.68654 28.138 4.98767 23.4665 7.69836 19.664C10.409 15.753 14.7461 12.6024 20.9265 10.5382C34.5884 6.19254 51.6115 3.58516 69.7189 3.58516C92.055 3.58516 115.909 7.71352 136.402 17.4912C151.799 24.8788 169.798 36.3948 183.676 49.2144C190.616 55.6242 196.688 62.2514 200.808 68.7698C205.036 75.2883 207.422 81.6981 207.422 87.4561C207.422 91.0412 206.554 94.3005 204.603 97.5597C202.651 100.71 199.615 103.752 195.17 106.577L196.145 107.989L197.121 109.51C201.892 106.468 205.362 103.1 207.747 99.4066C210.024 95.7128 211.108 91.5844 211.108 87.4561C211.108 80.7203 208.398 73.7673 203.952 66.8143C197.338 56.4934 186.712 46.1725 174.894 37.0466C163.075 27.9208 149.847 19.8813 138.028 14.232C116.776 4.12836 92.4887 0 69.7189 0C51.2862 0 33.9378 2.71603 19.8422 7.17031C12.9029 9.34313 7.91521 13.0369 4.66238 17.5999C1.40956 22.1628 0 27.4862 0 32.9183C0 40.3058 2.60226 48.0194 7.04779 54.4292C11.4933 60.839 17.6737 66.2711 25.0468 68.7698C38.4918 73.4414 53.7801 74.8537 67.4419 74.8537C89.778 74.8537 108.102 71.0513 108.102 71.0513L107.777 69.313L106.367 70.3994C106.367 70.5081 115.042 81.5895 128.161 92.7795C134.667 98.4288 142.365 103.97 150.497 108.207C158.738 112.444 167.521 115.377 176.52 115.377C183.459 115.377 190.507 113.639 197.121 109.402L196.145 107.989Z" fill="#0F0A0A"/>
<path d="M137.92 287.682C137.92 291.158 135.101 293.983 131.631 293.983C128.161 293.983 125.342 291.158 125.342 287.682C125.342 284.205 128.161 281.38 131.631 281.38C135.101 281.38 137.92 284.205 137.92 287.682Z" fill="#918F8F"/>
<path d="M137.92 287.682H136.077C136.077 288.877 135.534 289.963 134.775 290.832C134.016 291.593 132.824 292.136 131.631 292.136C130.438 292.136 129.354 291.593 128.487 290.832C127.728 290.072 127.186 288.877 127.186 287.682C127.186 286.486 127.728 285.4 128.487 284.531C129.354 283.77 130.438 283.227 131.631 283.227C132.824 283.227 134.016 283.77 134.775 284.531C135.534 285.291 136.077 286.486 136.077 287.682H139.763C139.763 283.227 136.185 279.642 131.631 279.642C127.186 279.642 123.499 283.227 123.499 287.682C123.499 292.136 127.077 295.721 131.631 295.721C136.077 295.721 139.763 292.136 139.763 287.682H137.92Z" fill="#0F0A0A"/>
<path d="M134.775 176.325C134.775 176.325 134.125 180.344 121.005 180.996C108.97 181.539 101.922 170.784 101.922 170.784C101.922 170.784 105.066 164.483 109.078 164.483C110.596 164.483 115.15 171.979 119.379 174.043C130.005 179.258 134.775 176.325 134.775 176.325Z" fill="#0F0A0A"/>
<path d="M71.2368 176.325C71.2368 176.325 71.8874 180.344 85.0071 180.996C97.0426 181.539 104.09 170.784 104.09 170.784C104.09 170.784 100.946 164.483 96.9341 164.483C95.4162 164.483 90.7538 171.979 86.6335 174.043C76.0076 179.258 71.2368 176.325 71.2368 176.325Z" fill="#0F0A0A"/>
<path d="M109.078 68.118L80.0195 34.4392C79.3689 33.6788 78.1762 33.5701 77.4172 34.222C76.6582 34.8738 76.5498 36.0689 77.2004 36.8293L106.259 70.5081C106.91 71.2686 108.102 71.3772 108.861 70.7254C109.729 70.0735 109.729 68.8785 109.078 68.118Z" fill="#0F0A0A"/>
</g>
<defs>
<clipPath id="clip0_1160_7153">
<rect width="211" height="303" fill="white"/>
</clipPath>
</defs>
</svg>
